G04 EAGLE Gerber RS-274X export*
G75*
%MOMM*%
%FSLAX34Y34*%
%LPD*%
%INTop Copper*%
%IPPOS*%
%AMOC8*
5,1,8,0,0,1.08239X$1,22.5*%
G01*
%ADD10C,0.208000*%
%ADD11C,0.195000*%
%ADD12C,0.193500*%
%ADD13C,0.198000*%
%ADD14C,0.201500*%
%ADD15C,0.200000*%
%ADD16C,0.192000*%
%ADD17C,2.700000*%
%ADD18C,2.400000*%
%ADD19C,1.524000*%
%ADD20C,0.700000*%

G36*
X316062Y10669D02*
X316062Y10669D01*
X316065Y10669D01*
X316160Y10689D01*
X316256Y10708D01*
X316258Y10710D01*
X316261Y10710D01*
X316341Y10766D01*
X316422Y10821D01*
X316423Y10823D01*
X316425Y10825D01*
X316479Y10908D01*
X316531Y10989D01*
X316532Y10992D01*
X316533Y10994D01*
X316549Y11090D01*
X316567Y11186D01*
X316566Y11189D01*
X316567Y11191D01*
X316545Y11285D01*
X316523Y11382D01*
X316522Y11384D01*
X316521Y11387D01*
X316418Y11535D01*
X310789Y17164D01*
X307339Y25492D01*
X307339Y34508D01*
X310789Y42836D01*
X317164Y49211D01*
X317281Y49259D01*
X318505Y49767D01*
X319730Y50274D01*
X320955Y50781D01*
X322179Y51288D01*
X323404Y51796D01*
X324628Y52303D01*
X324629Y52303D01*
X325492Y52661D01*
X334508Y52661D01*
X342836Y49211D01*
X348465Y43582D01*
X348468Y43580D01*
X348469Y43578D01*
X348550Y43526D01*
X348632Y43471D01*
X348635Y43470D01*
X348637Y43469D01*
X348733Y43452D01*
X348829Y43433D01*
X348832Y43434D01*
X348834Y43433D01*
X348931Y43455D01*
X349025Y43475D01*
X349027Y43476D01*
X349030Y43477D01*
X349110Y43533D01*
X349190Y43589D01*
X349191Y43591D01*
X349193Y43593D01*
X349245Y43676D01*
X349297Y43758D01*
X349298Y43761D01*
X349299Y43763D01*
X349331Y43940D01*
X349331Y356060D01*
X349331Y356062D01*
X349331Y356065D01*
X349311Y356160D01*
X349292Y356256D01*
X349290Y356258D01*
X349290Y356261D01*
X349234Y356341D01*
X349179Y356422D01*
X349177Y356423D01*
X349175Y356425D01*
X349092Y356479D01*
X349011Y356531D01*
X349008Y356532D01*
X349006Y356533D01*
X348910Y356549D01*
X348814Y356567D01*
X348811Y356566D01*
X348809Y356567D01*
X348715Y356545D01*
X348618Y356523D01*
X348616Y356522D01*
X348613Y356521D01*
X348465Y356418D01*
X342836Y350789D01*
X342106Y350487D01*
X340881Y349979D01*
X339657Y349472D01*
X338432Y348965D01*
X337208Y348458D01*
X337207Y348458D01*
X335983Y347950D01*
X334758Y347443D01*
X334508Y347339D01*
X325492Y347339D01*
X317164Y350789D01*
X310789Y357164D01*
X307339Y365492D01*
X307339Y374508D01*
X310789Y382836D01*
X316418Y388465D01*
X316420Y388468D01*
X316422Y388469D01*
X316474Y388550D01*
X316529Y388632D01*
X316530Y388635D01*
X316531Y388637D01*
X316548Y388733D01*
X316567Y388829D01*
X316566Y388832D01*
X316567Y388834D01*
X316545Y388931D01*
X316525Y389025D01*
X316524Y389027D01*
X316523Y389030D01*
X316467Y389110D01*
X316411Y389190D01*
X316409Y389191D01*
X316407Y389193D01*
X316324Y389245D01*
X316242Y389297D01*
X316239Y389298D01*
X316237Y389299D01*
X316060Y389331D01*
X43940Y389331D01*
X43938Y389331D01*
X43935Y389331D01*
X43840Y389311D01*
X43744Y389292D01*
X43742Y389290D01*
X43739Y389290D01*
X43659Y389234D01*
X43578Y389179D01*
X43577Y389177D01*
X43575Y389175D01*
X43521Y389092D01*
X43469Y389011D01*
X43468Y389008D01*
X43467Y389006D01*
X43451Y388910D01*
X43433Y388814D01*
X43434Y388811D01*
X43433Y388809D01*
X43455Y388715D01*
X43477Y388618D01*
X43478Y388616D01*
X43479Y388613D01*
X43582Y388465D01*
X49211Y382836D01*
X52661Y374508D01*
X52661Y365492D01*
X49211Y357164D01*
X42836Y350789D01*
X42106Y350487D01*
X40881Y349979D01*
X39657Y349472D01*
X38432Y348965D01*
X37208Y348458D01*
X37207Y348458D01*
X35983Y347950D01*
X34758Y347443D01*
X34508Y347339D01*
X25492Y347339D01*
X17164Y350789D01*
X11535Y356418D01*
X11532Y356420D01*
X11531Y356422D01*
X11450Y356474D01*
X11368Y356529D01*
X11365Y356530D01*
X11363Y356531D01*
X11267Y356548D01*
X11171Y356567D01*
X11168Y356566D01*
X11166Y356567D01*
X11069Y356545D01*
X10975Y356525D01*
X10973Y356524D01*
X10970Y356523D01*
X10890Y356467D01*
X10810Y356411D01*
X10809Y356409D01*
X10807Y356407D01*
X10755Y356324D01*
X10703Y356242D01*
X10702Y356239D01*
X10701Y356237D01*
X10669Y356060D01*
X10669Y43940D01*
X10669Y43938D01*
X10669Y43935D01*
X10689Y43840D01*
X10708Y43744D01*
X10710Y43742D01*
X10710Y43739D01*
X10766Y43659D01*
X10821Y43578D01*
X10823Y43577D01*
X10825Y43575D01*
X10908Y43521D01*
X10989Y43469D01*
X10992Y43468D01*
X10994Y43467D01*
X11090Y43451D01*
X11186Y43433D01*
X11189Y43434D01*
X11191Y43433D01*
X11285Y43455D01*
X11382Y43477D01*
X11384Y43478D01*
X11387Y43479D01*
X11535Y43582D01*
X17164Y49211D01*
X17281Y49259D01*
X18505Y49767D01*
X19730Y50274D01*
X20955Y50781D01*
X22179Y51288D01*
X23404Y51796D01*
X24628Y52303D01*
X24629Y52303D01*
X25492Y52661D01*
X34508Y52661D01*
X42836Y49211D01*
X49211Y42836D01*
X52661Y34508D01*
X52661Y25492D01*
X49211Y17164D01*
X43582Y11535D01*
X43580Y11532D01*
X43578Y11531D01*
X43526Y11450D01*
X43471Y11368D01*
X43470Y11365D01*
X43469Y11363D01*
X43452Y11267D01*
X43433Y11171D01*
X43434Y11168D01*
X43433Y11166D01*
X43455Y11069D01*
X43475Y10975D01*
X43476Y10973D01*
X43477Y10970D01*
X43533Y10890D01*
X43589Y10810D01*
X43591Y10809D01*
X43593Y10807D01*
X43676Y10755D01*
X43758Y10703D01*
X43761Y10702D01*
X43763Y10701D01*
X43940Y10669D01*
X316060Y10669D01*
X316062Y10669D01*
G37*
%LPC*%
G36*
X214034Y22699D02*
X214034Y22699D01*
X212299Y24434D01*
X212299Y52966D01*
X214034Y54701D01*
X220292Y54701D01*
X220297Y54702D01*
X220302Y54701D01*
X220395Y54722D01*
X220489Y54740D01*
X220493Y54743D01*
X220498Y54744D01*
X220576Y54800D01*
X220654Y54853D01*
X220657Y54857D01*
X220661Y54860D01*
X220712Y54942D01*
X220764Y55021D01*
X220764Y55026D01*
X220767Y55031D01*
X220799Y55208D01*
X220799Y83192D01*
X220798Y83197D01*
X220799Y83202D01*
X220778Y83295D01*
X220760Y83389D01*
X220757Y83393D01*
X220756Y83398D01*
X220700Y83476D01*
X220647Y83554D01*
X220643Y83557D01*
X220640Y83561D01*
X220558Y83612D01*
X220479Y83664D01*
X220474Y83664D01*
X220469Y83667D01*
X220292Y83699D01*
X214034Y83699D01*
X212299Y85434D01*
X212299Y105711D01*
X212298Y105719D01*
X212299Y105727D01*
X212278Y105817D01*
X212260Y105908D01*
X212255Y105914D01*
X212253Y105922D01*
X212151Y106070D01*
X176420Y141801D01*
X176414Y141805D01*
X176409Y141811D01*
X176330Y141860D01*
X176253Y141912D01*
X176245Y141913D01*
X176239Y141917D01*
X176061Y141949D01*
X68642Y141949D01*
X65705Y144886D01*
X65699Y144890D01*
X65694Y144896D01*
X65615Y144945D01*
X65538Y144997D01*
X65530Y144998D01*
X65524Y145002D01*
X65346Y145034D01*
X54100Y145034D01*
X52319Y146815D01*
X52319Y158061D01*
X52318Y158069D01*
X52319Y158077D01*
X52298Y158167D01*
X52280Y158258D01*
X52275Y158264D01*
X52273Y158272D01*
X52171Y158420D01*
X43319Y167272D01*
X43319Y184544D01*
X43319Y184546D01*
X43319Y184549D01*
X43299Y184644D01*
X43280Y184740D01*
X43278Y184742D01*
X43278Y184745D01*
X43222Y184825D01*
X43167Y184906D01*
X43165Y184907D01*
X43163Y184910D01*
X43080Y184962D01*
X42999Y185015D01*
X42996Y185016D01*
X42994Y185017D01*
X42898Y185033D01*
X42802Y185051D01*
X42799Y185050D01*
X42797Y185051D01*
X42702Y185029D01*
X42606Y185007D01*
X42604Y185006D01*
X42601Y185005D01*
X42453Y184902D01*
X41996Y184445D01*
X41246Y184134D01*
X34895Y184134D01*
X34895Y193642D01*
X34894Y193647D01*
X34895Y193652D01*
X34874Y193745D01*
X34856Y193838D01*
X34853Y193843D01*
X34851Y193848D01*
X34796Y193926D01*
X34743Y194004D01*
X34739Y194007D01*
X34735Y194011D01*
X34654Y194062D01*
X34575Y194113D01*
X34570Y194114D01*
X34565Y194117D01*
X34388Y194149D01*
X33879Y194149D01*
X33879Y194151D01*
X34388Y194151D01*
X34393Y194152D01*
X34398Y194151D01*
X34491Y194172D01*
X34584Y194190D01*
X34589Y194193D01*
X34594Y194195D01*
X34672Y194250D01*
X34750Y194303D01*
X34753Y194307D01*
X34757Y194311D01*
X34808Y194392D01*
X34859Y194471D01*
X34860Y194476D01*
X34863Y194481D01*
X34895Y194658D01*
X34895Y204166D01*
X41246Y204166D01*
X41996Y203855D01*
X42453Y203398D01*
X42456Y203396D01*
X42457Y203394D01*
X42538Y203341D01*
X42620Y203287D01*
X42623Y203286D01*
X42625Y203285D01*
X42721Y203268D01*
X42817Y203249D01*
X42820Y203250D01*
X42822Y203249D01*
X42919Y203271D01*
X43013Y203291D01*
X43015Y203292D01*
X43018Y203293D01*
X43098Y203350D01*
X43178Y203405D01*
X43179Y203407D01*
X43181Y203409D01*
X43233Y203492D01*
X43285Y203574D01*
X43286Y203577D01*
X43287Y203579D01*
X43319Y203756D01*
X43319Y218263D01*
X43318Y218271D01*
X43319Y218279D01*
X43298Y218369D01*
X43280Y218460D01*
X43275Y218466D01*
X43273Y218474D01*
X43171Y218622D01*
X43099Y218693D01*
X43099Y222219D01*
X43099Y222221D01*
X43099Y222224D01*
X43079Y222319D01*
X43060Y222415D01*
X43058Y222417D01*
X43058Y222420D01*
X43002Y222500D01*
X42947Y222581D01*
X42945Y222582D01*
X42943Y222585D01*
X42859Y222638D01*
X42779Y222690D01*
X42776Y222691D01*
X42774Y222692D01*
X42677Y222709D01*
X42582Y222726D01*
X42579Y222725D01*
X42576Y222726D01*
X42482Y222704D01*
X42386Y222682D01*
X42384Y222681D01*
X42381Y222680D01*
X42233Y222577D01*
X42216Y222560D01*
X41466Y222249D01*
X35115Y222249D01*
X35115Y231742D01*
X35114Y231747D01*
X35115Y231752D01*
X35094Y231845D01*
X35076Y231938D01*
X35073Y231943D01*
X35071Y231948D01*
X35016Y232026D01*
X34963Y232104D01*
X34959Y232107D01*
X34955Y232111D01*
X34874Y232162D01*
X34795Y232213D01*
X34790Y232214D01*
X34785Y232217D01*
X34608Y232249D01*
X34099Y232249D01*
X34099Y232251D01*
X34608Y232251D01*
X34613Y232252D01*
X34618Y232251D01*
X34711Y232272D01*
X34804Y232290D01*
X34809Y232293D01*
X34814Y232295D01*
X34892Y232350D01*
X34970Y232403D01*
X34973Y232407D01*
X34977Y232411D01*
X35028Y232492D01*
X35079Y232571D01*
X35080Y232576D01*
X35083Y232581D01*
X35115Y232758D01*
X35115Y242251D01*
X41466Y242251D01*
X42216Y241940D01*
X42233Y241923D01*
X42236Y241921D01*
X42237Y241919D01*
X42317Y241867D01*
X42400Y241812D01*
X42403Y241811D01*
X42405Y241810D01*
X42501Y241793D01*
X42597Y241774D01*
X42600Y241775D01*
X42602Y241774D01*
X42699Y241796D01*
X42793Y241816D01*
X42795Y241817D01*
X42798Y241818D01*
X42878Y241875D01*
X42958Y241930D01*
X42959Y241932D01*
X42961Y241934D01*
X43013Y242016D01*
X43065Y242099D01*
X43066Y242102D01*
X43067Y242104D01*
X43099Y242281D01*
X43099Y245807D01*
X55776Y258483D01*
X55777Y258486D01*
X55780Y258487D01*
X55832Y258568D01*
X55887Y258650D01*
X55887Y258653D01*
X55889Y258655D01*
X55906Y258751D01*
X55924Y258847D01*
X55924Y258850D01*
X55924Y258852D01*
X55903Y258949D01*
X55883Y259043D01*
X55881Y259045D01*
X55881Y259048D01*
X55824Y259128D01*
X55769Y259208D01*
X55766Y259209D01*
X55765Y259211D01*
X55682Y259263D01*
X55599Y259315D01*
X55597Y259316D01*
X55595Y259317D01*
X55417Y259349D01*
X53880Y259349D01*
X52099Y261130D01*
X52099Y279570D01*
X53880Y281351D01*
X70320Y281351D01*
X72101Y279570D01*
X72101Y276358D01*
X72102Y276353D01*
X72101Y276348D01*
X72122Y276255D01*
X72140Y276161D01*
X72143Y276157D01*
X72144Y276152D01*
X72200Y276074D01*
X72253Y275996D01*
X72257Y275993D01*
X72260Y275989D01*
X72342Y275938D01*
X72421Y275886D01*
X72426Y275886D01*
X72431Y275883D01*
X72608Y275851D01*
X95092Y275851D01*
X95097Y275852D01*
X95102Y275851D01*
X95195Y275872D01*
X95289Y275890D01*
X95293Y275893D01*
X95298Y275894D01*
X95376Y275950D01*
X95454Y276003D01*
X95457Y276007D01*
X95461Y276010D01*
X95512Y276092D01*
X95564Y276171D01*
X95564Y276176D01*
X95567Y276181D01*
X95599Y276358D01*
X95599Y297278D01*
X98970Y300649D01*
X126801Y328480D01*
X126805Y328486D01*
X126811Y328491D01*
X126860Y328570D01*
X126912Y328647D01*
X126913Y328655D01*
X126917Y328661D01*
X126949Y328839D01*
X126949Y344862D01*
X128688Y346601D01*
X151212Y346601D01*
X152951Y344862D01*
X152951Y322838D01*
X151212Y321099D01*
X135189Y321099D01*
X135181Y321098D01*
X135173Y321099D01*
X135083Y321078D01*
X134992Y321060D01*
X134986Y321055D01*
X134978Y321053D01*
X134830Y320951D01*
X106749Y292870D01*
X106745Y292864D01*
X106739Y292859D01*
X106690Y292780D01*
X106638Y292703D01*
X106637Y292695D01*
X106633Y292689D01*
X106601Y292511D01*
X106601Y272949D01*
X106602Y272941D01*
X106601Y272933D01*
X106622Y272843D01*
X106640Y272752D01*
X106645Y272746D01*
X106647Y272738D01*
X106749Y272590D01*
X108601Y270739D01*
X108601Y263761D01*
X106839Y261999D01*
X103839Y261999D01*
X103831Y261998D01*
X103823Y261999D01*
X103733Y261978D01*
X103642Y261960D01*
X103636Y261955D01*
X103628Y261953D01*
X103480Y261851D01*
X103378Y261749D01*
X98822Y261749D01*
X98720Y261851D01*
X98714Y261855D01*
X98709Y261861D01*
X98630Y261910D01*
X98553Y261962D01*
X98545Y261963D01*
X98539Y261967D01*
X98361Y261999D01*
X95361Y261999D01*
X93599Y263761D01*
X93599Y264342D01*
X93598Y264347D01*
X93599Y264352D01*
X93578Y264445D01*
X93560Y264539D01*
X93557Y264543D01*
X93556Y264548D01*
X93500Y264626D01*
X93447Y264704D01*
X93443Y264707D01*
X93440Y264711D01*
X93358Y264762D01*
X93279Y264814D01*
X93274Y264814D01*
X93269Y264817D01*
X93092Y264849D01*
X72608Y264849D01*
X72603Y264848D01*
X72598Y264849D01*
X72505Y264828D01*
X72411Y264810D01*
X72407Y264807D01*
X72402Y264806D01*
X72324Y264750D01*
X72246Y264697D01*
X72243Y264693D01*
X72239Y264690D01*
X72188Y264608D01*
X72136Y264529D01*
X72136Y264524D01*
X72133Y264519D01*
X72101Y264342D01*
X72101Y261130D01*
X70320Y259349D01*
X68108Y259349D01*
X68103Y259348D01*
X68098Y259349D01*
X68005Y259328D01*
X67911Y259310D01*
X67907Y259307D01*
X67902Y259306D01*
X67824Y259250D01*
X67746Y259197D01*
X67743Y259193D01*
X67739Y259190D01*
X67688Y259108D01*
X67636Y259029D01*
X67636Y259024D01*
X67633Y259019D01*
X67601Y258842D01*
X67601Y254750D01*
X56968Y244117D01*
X56966Y244114D01*
X56964Y244113D01*
X56912Y244032D01*
X56857Y243950D01*
X56856Y243947D01*
X56855Y243945D01*
X56837Y243849D01*
X56819Y243753D01*
X56820Y243750D01*
X56819Y243748D01*
X56841Y243651D01*
X56861Y243557D01*
X56862Y243555D01*
X56863Y243552D01*
X56919Y243472D01*
X56975Y243392D01*
X56977Y243391D01*
X56979Y243389D01*
X57062Y243337D01*
X57144Y243285D01*
X57147Y243284D01*
X57149Y243283D01*
X57326Y243251D01*
X70320Y243251D01*
X72101Y241470D01*
X72101Y238258D01*
X72102Y238253D01*
X72101Y238248D01*
X72122Y238155D01*
X72140Y238061D01*
X72143Y238057D01*
X72144Y238052D01*
X72200Y237974D01*
X72253Y237896D01*
X72257Y237893D01*
X72260Y237889D01*
X72342Y237838D01*
X72421Y237786D01*
X72426Y237786D01*
X72431Y237783D01*
X72608Y237751D01*
X82811Y237751D01*
X82819Y237752D01*
X82827Y237751D01*
X82917Y237772D01*
X83008Y237790D01*
X83014Y237795D01*
X83022Y237797D01*
X83170Y237899D01*
X93451Y248180D01*
X93455Y248186D01*
X93461Y248191D01*
X93510Y248270D01*
X93562Y248347D01*
X93563Y248355D01*
X93567Y248361D01*
X93599Y248539D01*
X93599Y251539D01*
X95361Y253301D01*
X98361Y253301D01*
X98369Y253302D01*
X98377Y253301D01*
X98467Y253322D01*
X98558Y253340D01*
X98564Y253345D01*
X98572Y253347D01*
X98720Y253449D01*
X98822Y253551D01*
X114092Y253551D01*
X114097Y253552D01*
X114102Y253551D01*
X114195Y253572D01*
X114289Y253590D01*
X114293Y253593D01*
X114298Y253594D01*
X114376Y253650D01*
X114454Y253703D01*
X114457Y253707D01*
X114461Y253710D01*
X114512Y253792D01*
X114564Y253871D01*
X114564Y253876D01*
X114567Y253881D01*
X114599Y254058D01*
X114599Y261139D01*
X116361Y262901D01*
X119361Y262901D01*
X119369Y262902D01*
X119377Y262901D01*
X119467Y262922D01*
X119558Y262940D01*
X119564Y262945D01*
X119572Y262947D01*
X119720Y263049D01*
X127336Y270665D01*
X130707Y274036D01*
X154702Y274036D01*
X154707Y274037D01*
X154712Y274036D01*
X154805Y274057D01*
X154899Y274075D01*
X154903Y274078D01*
X154908Y274079D01*
X154986Y274135D01*
X155064Y274188D01*
X155067Y274192D01*
X155071Y274195D01*
X155122Y274277D01*
X155174Y274356D01*
X155174Y274361D01*
X155177Y274366D01*
X155209Y274543D01*
X155209Y353242D01*
X155208Y353247D01*
X155209Y353252D01*
X155188Y353345D01*
X155170Y353439D01*
X155167Y353443D01*
X155166Y353448D01*
X155110Y353526D01*
X155057Y353604D01*
X155053Y353607D01*
X155050Y353611D01*
X154968Y353662D01*
X154889Y353714D01*
X154884Y353714D01*
X154879Y353717D01*
X154702Y353749D01*
X123839Y353749D01*
X123831Y353748D01*
X123823Y353749D01*
X123733Y353728D01*
X123642Y353710D01*
X123636Y353705D01*
X123628Y353703D01*
X123480Y353601D01*
X109099Y339220D01*
X109095Y339214D01*
X109089Y339209D01*
X109040Y339130D01*
X108988Y339053D01*
X108987Y339048D01*
X108986Y339046D01*
X108986Y339044D01*
X108983Y339039D01*
X108951Y338861D01*
X108951Y322838D01*
X107212Y321099D01*
X91189Y321099D01*
X91181Y321098D01*
X91173Y321099D01*
X91083Y321078D01*
X90992Y321060D01*
X90986Y321055D01*
X90978Y321053D01*
X90830Y320951D01*
X72828Y302949D01*
X66608Y302949D01*
X66603Y302948D01*
X66598Y302949D01*
X66505Y302928D01*
X66411Y302910D01*
X66407Y302907D01*
X66402Y302906D01*
X66324Y302850D01*
X66246Y302797D01*
X66243Y302793D01*
X66239Y302790D01*
X66188Y302708D01*
X66136Y302629D01*
X66136Y302624D01*
X66133Y302619D01*
X66101Y302442D01*
X66101Y300692D01*
X64358Y298949D01*
X50842Y298949D01*
X49099Y300692D01*
X49099Y316208D01*
X50842Y317951D01*
X64358Y317951D01*
X66101Y316208D01*
X66101Y314458D01*
X66102Y314453D01*
X66101Y314448D01*
X66122Y314355D01*
X66140Y314261D01*
X66143Y314257D01*
X66144Y314252D01*
X66200Y314174D01*
X66253Y314096D01*
X66257Y314093D01*
X66260Y314089D01*
X66342Y314038D01*
X66421Y313986D01*
X66426Y313986D01*
X66431Y313983D01*
X66608Y313951D01*
X68061Y313951D01*
X68069Y313952D01*
X68077Y313951D01*
X68167Y313972D01*
X68258Y313990D01*
X68264Y313995D01*
X68272Y313997D01*
X68420Y314099D01*
X82801Y328480D01*
X82805Y328486D01*
X82811Y328491D01*
X82860Y328570D01*
X82912Y328647D01*
X82913Y328655D01*
X82917Y328661D01*
X82949Y328839D01*
X82949Y344862D01*
X84688Y346601D01*
X100711Y346601D01*
X100719Y346602D01*
X100727Y346601D01*
X100817Y346622D01*
X100908Y346640D01*
X100914Y346645D01*
X100922Y346647D01*
X101070Y346749D01*
X119072Y364751D01*
X162988Y364751D01*
X166211Y361528D01*
X166211Y276358D01*
X166212Y276353D01*
X166211Y276348D01*
X166232Y276255D01*
X166250Y276161D01*
X166253Y276157D01*
X166254Y276152D01*
X166310Y276074D01*
X166363Y275996D01*
X166367Y275993D01*
X166370Y275989D01*
X166452Y275938D01*
X166531Y275886D01*
X166536Y275886D01*
X166541Y275883D01*
X166718Y275851D01*
X171103Y275851D01*
X171111Y275852D01*
X171118Y275851D01*
X171208Y275872D01*
X171299Y275890D01*
X171306Y275895D01*
X171314Y275897D01*
X171462Y275999D01*
X173968Y278506D01*
X174041Y278536D01*
X174042Y278536D01*
X175266Y279044D01*
X176491Y279551D01*
X177504Y279971D01*
X198096Y279971D01*
X201632Y278506D01*
X204338Y275800D01*
X205803Y272264D01*
X205803Y268436D01*
X204338Y264900D01*
X201632Y262194D01*
X200483Y261718D01*
X200482Y261718D01*
X199258Y261211D01*
X198096Y260729D01*
X177504Y260729D01*
X173968Y262194D01*
X173277Y262886D01*
X173270Y262890D01*
X173265Y262896D01*
X173187Y262945D01*
X173110Y262997D01*
X173102Y262998D01*
X173095Y263002D01*
X172918Y263034D01*
X135474Y263034D01*
X135466Y263033D01*
X135458Y263034D01*
X135368Y263013D01*
X135277Y262995D01*
X135271Y262990D01*
X135263Y262988D01*
X135115Y262886D01*
X129749Y257520D01*
X129745Y257514D01*
X129739Y257509D01*
X129690Y257430D01*
X129638Y257353D01*
X129637Y257345D01*
X129633Y257339D01*
X129601Y257161D01*
X129601Y254058D01*
X129602Y254053D01*
X129601Y254048D01*
X129622Y253955D01*
X129640Y253861D01*
X129643Y253857D01*
X129644Y253852D01*
X129700Y253774D01*
X129753Y253696D01*
X129757Y253693D01*
X129760Y253689D01*
X129842Y253638D01*
X129921Y253586D01*
X129926Y253586D01*
X129931Y253583D01*
X130108Y253551D01*
X168421Y253551D01*
X182187Y239784D01*
X182194Y239780D01*
X182198Y239774D01*
X182277Y239725D01*
X182354Y239673D01*
X182362Y239672D01*
X182368Y239668D01*
X182546Y239636D01*
X227207Y239636D01*
X233721Y233122D01*
X233721Y219208D01*
X233722Y219203D01*
X233721Y219198D01*
X233742Y219105D01*
X233760Y219011D01*
X233763Y219007D01*
X233764Y219002D01*
X233820Y218924D01*
X233873Y218846D01*
X233877Y218843D01*
X233880Y218839D01*
X233962Y218788D01*
X234041Y218736D01*
X234046Y218736D01*
X234051Y218733D01*
X234228Y218701D01*
X246111Y218701D01*
X246119Y218702D01*
X246127Y218701D01*
X246217Y218722D01*
X246308Y218740D01*
X246314Y218745D01*
X246322Y218747D01*
X246470Y218849D01*
X248354Y220733D01*
X248356Y220736D01*
X248358Y220737D01*
X248410Y220818D01*
X248465Y220900D01*
X248466Y220903D01*
X248467Y220905D01*
X248484Y221001D01*
X248503Y221097D01*
X248502Y221100D01*
X248503Y221102D01*
X248481Y221199D01*
X248461Y221293D01*
X248460Y221295D01*
X248459Y221298D01*
X248402Y221378D01*
X248347Y221458D01*
X248345Y221459D01*
X248343Y221461D01*
X248260Y221513D01*
X248178Y221565D01*
X248175Y221566D01*
X248173Y221567D01*
X247995Y221599D01*
X246257Y221599D01*
X244499Y223357D01*
X244499Y233843D01*
X246257Y235601D01*
X281743Y235601D01*
X283501Y233843D01*
X283501Y223357D01*
X281743Y221599D01*
X264989Y221599D01*
X264981Y221598D01*
X264973Y221599D01*
X264883Y221578D01*
X264792Y221560D01*
X264786Y221555D01*
X264778Y221553D01*
X264630Y221451D01*
X254249Y211070D01*
X250878Y207699D01*
X234228Y207699D01*
X234223Y207698D01*
X234218Y207699D01*
X234125Y207678D01*
X234031Y207660D01*
X234027Y207657D01*
X234022Y207656D01*
X233944Y207600D01*
X233866Y207547D01*
X233863Y207543D01*
X233859Y207540D01*
X233808Y207458D01*
X233756Y207379D01*
X233756Y207374D01*
X233753Y207369D01*
X233721Y207192D01*
X233721Y183707D01*
X230498Y180484D01*
X167373Y180484D01*
X149857Y198001D01*
X149850Y198005D01*
X149846Y198011D01*
X149767Y198060D01*
X149690Y198112D01*
X149682Y198113D01*
X149676Y198117D01*
X149498Y198149D01*
X144861Y198149D01*
X144858Y198149D01*
X144855Y198149D01*
X144761Y198129D01*
X144664Y198110D01*
X144662Y198108D01*
X144659Y198108D01*
X144580Y198052D01*
X144498Y197997D01*
X144497Y197995D01*
X144495Y197993D01*
X144441Y197909D01*
X144389Y197829D01*
X144389Y197826D01*
X144387Y197824D01*
X144371Y197728D01*
X144354Y197632D01*
X144354Y197629D01*
X144354Y197626D01*
X144375Y197533D01*
X144397Y197436D01*
X144399Y197434D01*
X144399Y197431D01*
X144496Y197292D01*
X144801Y196556D01*
X144801Y195165D01*
X137308Y195165D01*
X137303Y195164D01*
X137298Y195165D01*
X137205Y195144D01*
X137112Y195126D01*
X137107Y195123D01*
X137102Y195121D01*
X137024Y195066D01*
X136946Y195013D01*
X136943Y195009D01*
X136939Y195005D01*
X136888Y194924D01*
X136837Y194845D01*
X136836Y194840D01*
X136833Y194835D01*
X136801Y194658D01*
X136801Y193642D01*
X136802Y193637D01*
X136801Y193632D01*
X136822Y193539D01*
X136840Y193446D01*
X136843Y193441D01*
X136845Y193436D01*
X136900Y193358D01*
X136953Y193280D01*
X136957Y193277D01*
X136961Y193273D01*
X137042Y193222D01*
X137121Y193171D01*
X137126Y193170D01*
X137131Y193167D01*
X137308Y193135D01*
X144801Y193135D01*
X144801Y191744D01*
X144498Y191012D01*
X143951Y190466D01*
X143948Y190461D01*
X143944Y190458D01*
X143893Y190378D01*
X143840Y190299D01*
X143839Y190294D01*
X143836Y190289D01*
X143820Y190195D01*
X143803Y190102D01*
X143804Y190097D01*
X143803Y190092D01*
X143824Y189999D01*
X143844Y189906D01*
X143847Y189902D01*
X143848Y189896D01*
X143951Y189748D01*
X145801Y187899D01*
X145801Y181401D01*
X144049Y179649D01*
X139789Y179649D01*
X139781Y179648D01*
X139773Y179649D01*
X139683Y179628D01*
X139592Y179610D01*
X139586Y179605D01*
X139578Y179603D01*
X139430Y179501D01*
X139079Y179149D01*
X134521Y179149D01*
X134170Y179501D01*
X134164Y179505D01*
X134159Y179511D01*
X134080Y179560D01*
X134003Y179612D01*
X133995Y179613D01*
X133989Y179617D01*
X133811Y179649D01*
X125743Y179649D01*
X121667Y183726D01*
X121664Y183727D01*
X121663Y183730D01*
X121582Y183782D01*
X121500Y183837D01*
X121497Y183837D01*
X121495Y183839D01*
X121399Y183856D01*
X121303Y183874D01*
X121300Y183874D01*
X121298Y183874D01*
X121201Y183853D01*
X121107Y183833D01*
X121105Y183831D01*
X121102Y183831D01*
X121022Y183774D01*
X120942Y183719D01*
X120941Y183716D01*
X120939Y183715D01*
X120887Y183632D01*
X120835Y183549D01*
X120834Y183547D01*
X120833Y183545D01*
X120801Y183367D01*
X120801Y181401D01*
X119049Y179649D01*
X114789Y179649D01*
X114781Y179648D01*
X114773Y179649D01*
X114683Y179628D01*
X114592Y179610D01*
X114586Y179605D01*
X114578Y179603D01*
X114430Y179501D01*
X114079Y179149D01*
X109521Y179149D01*
X109170Y179501D01*
X109164Y179505D01*
X109159Y179511D01*
X109080Y179560D01*
X109003Y179612D01*
X108995Y179613D01*
X108989Y179617D01*
X108811Y179649D01*
X104551Y179649D01*
X102799Y181401D01*
X102799Y185661D01*
X102798Y185669D01*
X102799Y185677D01*
X102778Y185767D01*
X102760Y185858D01*
X102755Y185864D01*
X102753Y185872D01*
X102651Y186020D01*
X100170Y188501D01*
X100164Y188505D01*
X100159Y188511D01*
X100080Y188560D01*
X100003Y188612D01*
X99995Y188613D01*
X99989Y188617D01*
X99811Y188649D01*
X72828Y188649D01*
X72823Y188648D01*
X72818Y188649D01*
X72725Y188628D01*
X72631Y188610D01*
X72627Y188607D01*
X72622Y188606D01*
X72544Y188550D01*
X72466Y188497D01*
X72463Y188493D01*
X72459Y188490D01*
X72408Y188408D01*
X72356Y188329D01*
X72356Y188324D01*
X72353Y188319D01*
X72321Y188142D01*
X72321Y184915D01*
X70540Y183134D01*
X54828Y183134D01*
X54823Y183133D01*
X54818Y183134D01*
X54725Y183113D01*
X54631Y183095D01*
X54627Y183092D01*
X54622Y183091D01*
X54544Y183035D01*
X54466Y182982D01*
X54463Y182978D01*
X54459Y182975D01*
X54408Y182893D01*
X54356Y182814D01*
X54356Y182809D01*
X54353Y182804D01*
X54321Y182627D01*
X54321Y172039D01*
X54322Y172031D01*
X54321Y172023D01*
X54342Y171933D01*
X54360Y171842D01*
X54365Y171836D01*
X54367Y171828D01*
X54469Y171680D01*
X58935Y167214D01*
X58941Y167210D01*
X58946Y167204D01*
X59025Y167155D01*
X59102Y167103D01*
X59110Y167102D01*
X59116Y167098D01*
X59294Y167066D01*
X70540Y167066D01*
X72321Y165285D01*
X72321Y154039D01*
X72322Y154031D01*
X72321Y154023D01*
X72342Y153933D01*
X72360Y153842D01*
X72365Y153836D01*
X72367Y153828D01*
X72469Y153680D01*
X73050Y153099D01*
X73056Y153095D01*
X73061Y153089D01*
X73140Y153040D01*
X73217Y152988D01*
X73225Y152987D01*
X73231Y152983D01*
X73409Y152951D01*
X180828Y152951D01*
X217930Y115849D01*
X217936Y115845D01*
X217941Y115839D01*
X218020Y115790D01*
X218097Y115738D01*
X218105Y115737D01*
X218111Y115733D01*
X218289Y115701D01*
X238566Y115701D01*
X240301Y113966D01*
X240301Y85434D01*
X238566Y83699D01*
X232308Y83699D01*
X232303Y83698D01*
X232298Y83699D01*
X232205Y83678D01*
X232111Y83660D01*
X232107Y83657D01*
X232102Y83656D01*
X232024Y83600D01*
X231946Y83547D01*
X231943Y83543D01*
X231939Y83540D01*
X231888Y83458D01*
X231836Y83379D01*
X231836Y83374D01*
X231833Y83369D01*
X231801Y83192D01*
X231801Y55208D01*
X231802Y55203D01*
X231801Y55198D01*
X231822Y55105D01*
X231840Y55011D01*
X231843Y55007D01*
X231844Y55002D01*
X231900Y54924D01*
X231953Y54846D01*
X231957Y54843D01*
X231960Y54839D01*
X232042Y54788D01*
X232121Y54736D01*
X232126Y54736D01*
X232131Y54733D01*
X232308Y54701D01*
X238566Y54701D01*
X240301Y52966D01*
X240301Y24434D01*
X238566Y22699D01*
X214034Y22699D01*
G37*
%LPD*%
%LPC*%
G36*
X166217Y39199D02*
X166217Y39199D01*
X160520Y41559D01*
X156159Y45920D01*
X153799Y51617D01*
X153799Y57783D01*
X156159Y63480D01*
X160520Y67841D01*
X160970Y68028D01*
X162195Y68535D01*
X163419Y69042D01*
X163420Y69042D01*
X164644Y69549D01*
X165869Y70057D01*
X166217Y70201D01*
X172383Y70201D01*
X178080Y67841D01*
X182441Y63480D01*
X184801Y57783D01*
X184801Y51617D01*
X182441Y45920D01*
X178080Y41559D01*
X176886Y41064D01*
X176885Y41064D01*
X175661Y40557D01*
X174436Y40050D01*
X173212Y39542D01*
X172383Y39199D01*
X166217Y39199D01*
G37*
%LPD*%
%LPC*%
G36*
X304242Y262599D02*
X304242Y262599D01*
X302499Y264342D01*
X302499Y279858D01*
X304242Y281601D01*
X338758Y281601D01*
X340501Y279858D01*
X340501Y264342D01*
X338758Y262599D01*
X304242Y262599D01*
G37*
%LPD*%
%LPC*%
G36*
X304242Y195599D02*
X304242Y195599D01*
X302499Y197342D01*
X302499Y212858D01*
X304242Y214601D01*
X338758Y214601D01*
X340501Y212858D01*
X340501Y197342D01*
X338758Y195599D01*
X304242Y195599D01*
G37*
%LPD*%
%LPC*%
G36*
X166515Y85699D02*
X166515Y85699D01*
X161369Y87831D01*
X157431Y91769D01*
X155299Y96915D01*
X155299Y102485D01*
X157431Y107631D01*
X161369Y111569D01*
X161567Y111651D01*
X162791Y112158D01*
X164016Y112666D01*
X165241Y113173D01*
X166465Y113680D01*
X166515Y113701D01*
X172085Y113701D01*
X177231Y111569D01*
X181169Y107631D01*
X183301Y102485D01*
X183301Y96915D01*
X181169Y91769D01*
X177231Y87831D01*
X176990Y87731D01*
X175766Y87224D01*
X174541Y86717D01*
X173317Y86209D01*
X173316Y86209D01*
X172092Y85702D01*
X172085Y85699D01*
X166515Y85699D01*
G37*
%LPD*%
%LPC*%
G36*
X177504Y336929D02*
X177504Y336929D01*
X173968Y338394D01*
X171262Y341100D01*
X169797Y344636D01*
X169797Y348464D01*
X171262Y352000D01*
X173968Y354706D01*
X174994Y355131D01*
X176219Y355638D01*
X177443Y356146D01*
X177444Y356146D01*
X177504Y356171D01*
X198096Y356171D01*
X201632Y354706D01*
X204338Y352000D01*
X205803Y348464D01*
X205803Y344636D01*
X204338Y341100D01*
X201632Y338394D01*
X201435Y338313D01*
X200211Y337805D01*
X198986Y337298D01*
X198096Y336929D01*
X177504Y336929D01*
G37*
%LPD*%
%LPC*%
G36*
X113315Y39715D02*
X113315Y39715D01*
X113315Y53701D01*
X123730Y53701D01*
X124451Y53402D01*
X125002Y52851D01*
X125301Y52130D01*
X125301Y39715D01*
X113315Y39715D01*
G37*
%LPD*%
%LPC*%
G36*
X113315Y100715D02*
X113315Y100715D01*
X113315Y114701D01*
X123730Y114701D01*
X124451Y114402D01*
X125002Y113851D01*
X125301Y113130D01*
X125301Y100715D01*
X113315Y100715D01*
G37*
%LPD*%
%LPC*%
G36*
X113315Y84699D02*
X113315Y84699D01*
X113315Y98685D01*
X125301Y98685D01*
X125301Y86270D01*
X125002Y85549D01*
X124451Y84998D01*
X123730Y84699D01*
X113315Y84699D01*
G37*
%LPD*%
%LPC*%
G36*
X113315Y23699D02*
X113315Y23699D01*
X113315Y37685D01*
X125301Y37685D01*
X125301Y25270D01*
X125002Y24549D01*
X124451Y23998D01*
X124016Y23818D01*
X123730Y23699D01*
X113315Y23699D01*
G37*
%LPD*%
%LPC*%
G36*
X99299Y39715D02*
X99299Y39715D01*
X99299Y52130D01*
X99598Y52851D01*
X100149Y53402D01*
X100870Y53701D01*
X111285Y53701D01*
X111285Y39715D01*
X99299Y39715D01*
G37*
%LPD*%
%LPC*%
G36*
X99299Y100715D02*
X99299Y100715D01*
X99299Y113130D01*
X99598Y113851D01*
X100149Y114402D01*
X100855Y114695D01*
X100870Y114701D01*
X111285Y114701D01*
X111285Y100715D01*
X99299Y100715D01*
G37*
%LPD*%
%LPC*%
G36*
X100870Y84699D02*
X100870Y84699D01*
X100149Y84998D01*
X99598Y85549D01*
X99299Y86270D01*
X99299Y98685D01*
X111285Y98685D01*
X111285Y84699D01*
X100870Y84699D01*
G37*
%LPD*%
%LPC*%
G36*
X100870Y23699D02*
X100870Y23699D01*
X100149Y23998D01*
X99598Y24549D01*
X99299Y25270D01*
X99299Y37685D01*
X111285Y37685D01*
X111285Y23699D01*
X100870Y23699D01*
G37*
%LPD*%
%LPC*%
G36*
X188815Y296765D02*
X188815Y296765D01*
X188815Y304371D01*
X197031Y304371D01*
X198697Y304039D01*
X200265Y303390D01*
X201677Y302446D01*
X202878Y301245D01*
X203822Y299833D01*
X204471Y298265D01*
X204770Y296765D01*
X188815Y296765D01*
G37*
%LPD*%
%LPC*%
G36*
X188815Y322165D02*
X188815Y322165D01*
X188815Y329771D01*
X197031Y329771D01*
X198697Y329439D01*
X200265Y328790D01*
X201677Y327846D01*
X202878Y326645D01*
X203822Y325233D01*
X204471Y323665D01*
X204770Y322165D01*
X188815Y322165D01*
G37*
%LPD*%
%LPC*%
G36*
X170830Y296765D02*
X170830Y296765D01*
X171129Y298265D01*
X171778Y299833D01*
X172722Y301245D01*
X173923Y302446D01*
X175335Y303390D01*
X175339Y303392D01*
X176564Y303899D01*
X176903Y304039D01*
X178569Y304371D01*
X186785Y304371D01*
X186785Y296765D01*
X170830Y296765D01*
G37*
%LPD*%
%LPC*%
G36*
X170830Y322165D02*
X170830Y322165D01*
X171129Y323665D01*
X171778Y325233D01*
X172722Y326645D01*
X173923Y327846D01*
X175335Y328790D01*
X176473Y329261D01*
X176903Y329439D01*
X178569Y329771D01*
X186785Y329771D01*
X186785Y322165D01*
X170830Y322165D01*
G37*
%LPD*%
%LPC*%
G36*
X188815Y287129D02*
X188815Y287129D01*
X188815Y294735D01*
X204770Y294735D01*
X204471Y293235D01*
X203822Y291667D01*
X202878Y290255D01*
X201677Y289054D01*
X200265Y288110D01*
X200228Y288095D01*
X199003Y287588D01*
X198697Y287461D01*
X197031Y287129D01*
X188815Y287129D01*
G37*
%LPD*%
%LPC*%
G36*
X188815Y312529D02*
X188815Y312529D01*
X188815Y320135D01*
X204770Y320135D01*
X204471Y318635D01*
X203822Y317067D01*
X202878Y315655D01*
X201677Y314454D01*
X200265Y313510D01*
X200138Y313457D01*
X200137Y313457D01*
X198913Y312950D01*
X198697Y312861D01*
X197031Y312529D01*
X188815Y312529D01*
G37*
%LPD*%
%LPC*%
G36*
X178569Y287129D02*
X178569Y287129D01*
X176903Y287461D01*
X175335Y288110D01*
X173923Y289054D01*
X172722Y290255D01*
X171778Y291667D01*
X171129Y293235D01*
X170830Y294735D01*
X186785Y294735D01*
X186785Y287129D01*
X178569Y287129D01*
G37*
%LPD*%
%LPC*%
G36*
X178569Y312529D02*
X178569Y312529D01*
X176903Y312861D01*
X175335Y313510D01*
X173923Y314454D01*
X172722Y315655D01*
X171778Y317067D01*
X171129Y318635D01*
X170830Y320135D01*
X186785Y320135D01*
X186785Y312529D01*
X178569Y312529D01*
G37*
%LPD*%
%LPC*%
G36*
X245499Y249615D02*
X245499Y249615D01*
X245499Y252998D01*
X245804Y253733D01*
X246367Y254296D01*
X247102Y254601D01*
X262985Y254601D01*
X262985Y249615D01*
X245499Y249615D01*
G37*
%LPD*%
%LPC*%
G36*
X265015Y249615D02*
X265015Y249615D01*
X265015Y254601D01*
X280898Y254601D01*
X281633Y254296D01*
X282196Y253733D01*
X282501Y252998D01*
X282501Y249615D01*
X265015Y249615D01*
G37*
%LPD*%
%LPC*%
G36*
X265015Y242599D02*
X265015Y242599D01*
X265015Y247585D01*
X282501Y247585D01*
X282501Y244202D01*
X282196Y243467D01*
X281633Y242904D01*
X280898Y242599D01*
X265015Y242599D01*
G37*
%LPD*%
%LPC*%
G36*
X247102Y242599D02*
X247102Y242599D01*
X246367Y242904D01*
X245804Y243467D01*
X245499Y244202D01*
X245499Y247585D01*
X262985Y247585D01*
X262985Y242599D01*
X247102Y242599D01*
G37*
%LPD*%
%LPC*%
G36*
X34895Y157065D02*
X34895Y157065D01*
X34895Y166066D01*
X41246Y166066D01*
X41996Y165755D01*
X42570Y165181D01*
X42881Y164431D01*
X42881Y157065D01*
X34895Y157065D01*
G37*
%LPD*%
%LPC*%
G36*
X24879Y195165D02*
X24879Y195165D01*
X24879Y202531D01*
X25190Y203281D01*
X25764Y203855D01*
X26043Y203971D01*
X26514Y204166D01*
X32865Y204166D01*
X32865Y195165D01*
X24879Y195165D01*
G37*
%LPD*%
%LPC*%
G36*
X24879Y157065D02*
X24879Y157065D01*
X24879Y164431D01*
X25190Y165181D01*
X25764Y165755D01*
X26179Y165927D01*
X26514Y166066D01*
X32865Y166066D01*
X32865Y157065D01*
X24879Y157065D01*
G37*
%LPD*%
%LPC*%
G36*
X34895Y146034D02*
X34895Y146034D01*
X34895Y155035D01*
X42881Y155035D01*
X42881Y147669D01*
X42570Y146919D01*
X41996Y146345D01*
X41320Y146065D01*
X41246Y146034D01*
X34895Y146034D01*
G37*
%LPD*%
%LPC*%
G36*
X26514Y146034D02*
X26514Y146034D01*
X25764Y146345D01*
X25190Y146919D01*
X24879Y147669D01*
X24879Y155035D01*
X32865Y155035D01*
X32865Y146034D01*
X26514Y146034D01*
G37*
%LPD*%
%LPC*%
G36*
X26514Y184134D02*
X26514Y184134D01*
X25764Y184445D01*
X25190Y185019D01*
X24879Y185769D01*
X24879Y193135D01*
X32865Y193135D01*
X32865Y184134D01*
X26514Y184134D01*
G37*
%LPD*%
%LPC*%
G36*
X35115Y271365D02*
X35115Y271365D01*
X35115Y280351D01*
X41466Y280351D01*
X42216Y280040D01*
X42790Y279466D01*
X43101Y278716D01*
X43101Y271365D01*
X35115Y271365D01*
G37*
%LPD*%
%LPC*%
G36*
X25099Y233265D02*
X25099Y233265D01*
X25099Y240616D01*
X25410Y241366D01*
X25984Y241940D01*
X26163Y242014D01*
X26734Y242251D01*
X33085Y242251D01*
X33085Y233265D01*
X25099Y233265D01*
G37*
%LPD*%
%LPC*%
G36*
X25099Y271365D02*
X25099Y271365D01*
X25099Y278716D01*
X25410Y279466D01*
X25984Y280040D01*
X26027Y280058D01*
X26028Y280058D01*
X26734Y280351D01*
X33085Y280351D01*
X33085Y271365D01*
X25099Y271365D01*
G37*
%LPD*%
%LPC*%
G36*
X35115Y260349D02*
X35115Y260349D01*
X35115Y269335D01*
X43101Y269335D01*
X43101Y261984D01*
X42790Y261234D01*
X42216Y260660D01*
X41466Y260349D01*
X35115Y260349D01*
G37*
%LPD*%
%LPC*%
G36*
X26734Y222249D02*
X26734Y222249D01*
X25984Y222560D01*
X25410Y223134D01*
X25099Y223884D01*
X25099Y231235D01*
X33085Y231235D01*
X33085Y222249D01*
X26734Y222249D01*
G37*
%LPD*%
%LPC*%
G36*
X26734Y260349D02*
X26734Y260349D01*
X25984Y260660D01*
X25410Y261234D01*
X25099Y261984D01*
X25099Y269335D01*
X33085Y269335D01*
X33085Y260349D01*
X26734Y260349D01*
G37*
%LPD*%
%LPC*%
G36*
X39615Y309465D02*
X39615Y309465D01*
X39615Y316951D01*
X44518Y316951D01*
X45244Y316650D01*
X45800Y316094D01*
X46101Y315368D01*
X46101Y309465D01*
X39615Y309465D01*
G37*
%LPD*%
%LPC*%
G36*
X39615Y299949D02*
X39615Y299949D01*
X39615Y307435D01*
X46101Y307435D01*
X46101Y301532D01*
X45800Y300806D01*
X45244Y300250D01*
X44518Y299949D01*
X39615Y299949D01*
G37*
%LPD*%
%LPC*%
G36*
X31099Y309465D02*
X31099Y309465D01*
X31099Y315368D01*
X31400Y316094D01*
X31956Y316650D01*
X32682Y316951D01*
X37585Y316951D01*
X37585Y309465D01*
X31099Y309465D01*
G37*
%LPD*%
%LPC*%
G36*
X32682Y299949D02*
X32682Y299949D01*
X31956Y300250D01*
X31400Y300806D01*
X31099Y301532D01*
X31099Y307435D01*
X37585Y307435D01*
X37585Y299949D01*
X32682Y299949D01*
G37*
%LPD*%
%LPC*%
G36*
X187799Y295749D02*
X187799Y295749D01*
X187799Y295751D01*
X187801Y295751D01*
X187801Y295749D01*
X187799Y295749D01*
G37*
%LPD*%
%LPC*%
G36*
X187799Y321149D02*
X187799Y321149D01*
X187799Y321151D01*
X187801Y321151D01*
X187801Y321149D01*
X187799Y321149D01*
G37*
%LPD*%
%LPC*%
G36*
X33879Y156049D02*
X33879Y156049D01*
X33879Y156051D01*
X33881Y156051D01*
X33881Y156049D01*
X33879Y156049D01*
G37*
%LPD*%
%LPC*%
G36*
X38599Y308449D02*
X38599Y308449D01*
X38599Y308451D01*
X38601Y308451D01*
X38601Y308449D01*
X38599Y308449D01*
G37*
%LPD*%
%LPC*%
G36*
X112299Y99699D02*
X112299Y99699D01*
X112299Y99701D01*
X112301Y99701D01*
X112301Y99699D01*
X112299Y99699D01*
G37*
%LPD*%
%LPC*%
G36*
X112299Y38699D02*
X112299Y38699D01*
X112299Y38701D01*
X112301Y38701D01*
X112301Y38699D01*
X112299Y38699D01*
G37*
%LPD*%
%LPC*%
G36*
X263999Y248599D02*
X263999Y248599D01*
X263999Y248601D01*
X264001Y248601D01*
X264001Y248599D01*
X263999Y248599D01*
G37*
%LPD*%
%LPC*%
G36*
X34099Y270349D02*
X34099Y270349D01*
X34099Y270351D01*
X34101Y270351D01*
X34101Y270349D01*
X34099Y270349D01*
G37*
%LPD*%
D10*
X41060Y224290D02*
X27140Y224290D01*
X27140Y240210D01*
X41060Y240210D01*
X41060Y224290D01*
X41060Y226266D02*
X27140Y226266D01*
X27140Y228242D02*
X41060Y228242D01*
X41060Y230218D02*
X27140Y230218D01*
X27140Y232194D02*
X41060Y232194D01*
X41060Y234170D02*
X27140Y234170D01*
X27140Y236146D02*
X41060Y236146D01*
X41060Y238122D02*
X27140Y238122D01*
X27140Y240098D02*
X41060Y240098D01*
X55140Y224290D02*
X69060Y224290D01*
X55140Y224290D02*
X55140Y240210D01*
X69060Y240210D01*
X69060Y224290D01*
X69060Y226266D02*
X55140Y226266D01*
X55140Y228242D02*
X69060Y228242D01*
X69060Y230218D02*
X55140Y230218D01*
X55140Y232194D02*
X69060Y232194D01*
X69060Y234170D02*
X55140Y234170D01*
X55140Y236146D02*
X69060Y236146D01*
X69060Y238122D02*
X55140Y238122D01*
X55140Y240098D02*
X69060Y240098D01*
X69060Y278310D02*
X55140Y278310D01*
X69060Y278310D02*
X69060Y262390D01*
X55140Y262390D01*
X55140Y278310D01*
X55140Y264366D02*
X69060Y264366D01*
X69060Y266342D02*
X55140Y266342D01*
X55140Y268318D02*
X69060Y268318D01*
X69060Y270294D02*
X55140Y270294D01*
X55140Y272270D02*
X69060Y272270D01*
X69060Y274246D02*
X55140Y274246D01*
X55140Y276222D02*
X69060Y276222D01*
X69060Y278198D02*
X55140Y278198D01*
X41060Y278310D02*
X27140Y278310D01*
X41060Y278310D02*
X41060Y262390D01*
X27140Y262390D01*
X27140Y278310D01*
X27140Y264366D02*
X41060Y264366D01*
X41060Y266342D02*
X27140Y266342D01*
X27140Y268318D02*
X41060Y268318D01*
X41060Y270294D02*
X27140Y270294D01*
X27140Y272270D02*
X41060Y272270D01*
X41060Y274246D02*
X27140Y274246D01*
X27140Y276222D02*
X41060Y276222D01*
X41060Y278198D02*
X27140Y278198D01*
D11*
X52075Y314975D02*
X63125Y314975D01*
X63125Y301925D01*
X52075Y301925D01*
X52075Y314975D01*
X52075Y303777D02*
X63125Y303777D01*
X63125Y305629D02*
X52075Y305629D01*
X52075Y307481D02*
X63125Y307481D01*
X63125Y309333D02*
X52075Y309333D01*
X52075Y311185D02*
X63125Y311185D01*
X63125Y313037D02*
X52075Y313037D01*
X52075Y314889D02*
X63125Y314889D01*
X44125Y314975D02*
X33075Y314975D01*
X44125Y314975D02*
X44125Y301925D01*
X33075Y301925D01*
X33075Y314975D01*
X33075Y303777D02*
X44125Y303777D01*
X44125Y305629D02*
X33075Y305629D01*
X33075Y307481D02*
X44125Y307481D01*
X44125Y309333D02*
X33075Y309333D01*
X33075Y311185D02*
X44125Y311185D01*
X44125Y313037D02*
X33075Y313037D01*
X33075Y314889D02*
X44125Y314889D01*
D12*
X85917Y324067D02*
X105983Y324067D01*
X85917Y324067D02*
X85917Y343633D01*
X105983Y343633D01*
X105983Y324067D01*
X105983Y325905D02*
X85917Y325905D01*
X85917Y327743D02*
X105983Y327743D01*
X105983Y329581D02*
X85917Y329581D01*
X85917Y331419D02*
X105983Y331419D01*
X105983Y333257D02*
X85917Y333257D01*
X85917Y335095D02*
X105983Y335095D01*
X105983Y336933D02*
X85917Y336933D01*
X85917Y338771D02*
X105983Y338771D01*
X105983Y340609D02*
X85917Y340609D01*
X85917Y342447D02*
X105983Y342447D01*
X129917Y324067D02*
X149983Y324067D01*
X129917Y324067D02*
X129917Y343633D01*
X149983Y343633D01*
X149983Y324067D01*
X149983Y325905D02*
X129917Y325905D01*
X129917Y327743D02*
X149983Y327743D01*
X149983Y329581D02*
X129917Y329581D01*
X129917Y331419D02*
X149983Y331419D01*
X149983Y333257D02*
X129917Y333257D01*
X129917Y335095D02*
X149983Y335095D01*
X149983Y336933D02*
X129917Y336933D01*
X129917Y338771D02*
X149983Y338771D01*
X149983Y340609D02*
X129917Y340609D01*
X129917Y342447D02*
X149983Y342447D01*
D13*
X142810Y186660D02*
X130790Y186660D01*
X142810Y186660D02*
X142810Y182640D01*
X130790Y182640D01*
X130790Y186660D01*
X130790Y184521D02*
X142810Y184521D01*
X142810Y186402D02*
X130790Y186402D01*
X130790Y196160D02*
X142810Y196160D01*
X142810Y192140D01*
X130790Y192140D01*
X130790Y196160D01*
X130790Y194021D02*
X142810Y194021D01*
X142810Y195902D02*
X130790Y195902D01*
X130790Y205660D02*
X142810Y205660D01*
X142810Y201640D01*
X130790Y201640D01*
X130790Y205660D01*
X130790Y203521D02*
X142810Y203521D01*
X142810Y205402D02*
X130790Y205402D01*
X117810Y205660D02*
X105790Y205660D01*
X117810Y205660D02*
X117810Y201640D01*
X105790Y201640D01*
X105790Y205660D01*
X105790Y203521D02*
X117810Y203521D01*
X117810Y205402D02*
X105790Y205402D01*
X105790Y186660D02*
X117810Y186660D01*
X117810Y182640D01*
X105790Y182640D01*
X105790Y186660D01*
X105790Y184521D02*
X117810Y184521D01*
X117810Y186402D02*
X105790Y186402D01*
D14*
X105593Y265007D02*
X96607Y265007D01*
X96607Y269493D01*
X105593Y269493D01*
X105593Y265007D01*
X105593Y266921D02*
X96607Y266921D01*
X96607Y268835D02*
X105593Y268835D01*
X105593Y245807D02*
X96607Y245807D01*
X96607Y250293D01*
X105593Y250293D01*
X105593Y245807D01*
X105593Y247721D02*
X96607Y247721D01*
X96607Y249635D02*
X105593Y249635D01*
X117607Y255407D02*
X126593Y255407D01*
X117607Y255407D02*
X117607Y259893D01*
X126593Y259893D01*
X126593Y255407D01*
X126593Y257321D02*
X117607Y257321D01*
X117607Y259235D02*
X126593Y259235D01*
D15*
X247500Y252600D02*
X247500Y244600D01*
X247500Y252600D02*
X280500Y252600D01*
X280500Y244600D01*
X247500Y244600D01*
X247500Y246500D02*
X280500Y246500D01*
X280500Y248400D02*
X247500Y248400D01*
X247500Y250300D02*
X280500Y250300D01*
X280500Y252200D02*
X247500Y252200D01*
X247500Y232600D02*
X247500Y224600D01*
X247500Y232600D02*
X280500Y232600D01*
X280500Y224600D01*
X247500Y224600D01*
X247500Y226500D02*
X280500Y226500D01*
X280500Y228400D02*
X247500Y228400D01*
X247500Y230300D02*
X280500Y230300D01*
X280500Y232200D02*
X247500Y232200D01*
D11*
X305475Y265575D02*
X305475Y278625D01*
X337525Y278625D01*
X337525Y265575D01*
X305475Y265575D01*
X305475Y267427D02*
X337525Y267427D01*
X337525Y269279D02*
X305475Y269279D01*
X305475Y271131D02*
X337525Y271131D01*
X337525Y272983D02*
X305475Y272983D01*
X305475Y274835D02*
X337525Y274835D01*
X337525Y276687D02*
X305475Y276687D01*
X305475Y278539D02*
X337525Y278539D01*
X305475Y211625D02*
X305475Y198575D01*
X305475Y211625D02*
X337525Y211625D01*
X337525Y198575D01*
X305475Y198575D01*
X305475Y200427D02*
X337525Y200427D01*
X337525Y202279D02*
X305475Y202279D01*
X305475Y204131D02*
X337525Y204131D01*
X337525Y205983D02*
X305475Y205983D01*
X305475Y207835D02*
X337525Y207835D01*
X337525Y209687D02*
X305475Y209687D01*
X305475Y211539D02*
X337525Y211539D01*
D16*
X215260Y51740D02*
X215260Y25660D01*
X215260Y51740D02*
X237340Y51740D01*
X237340Y25660D01*
X215260Y25660D01*
X215260Y27484D02*
X237340Y27484D01*
X237340Y29308D02*
X215260Y29308D01*
X215260Y31132D02*
X237340Y31132D01*
X237340Y32956D02*
X215260Y32956D01*
X215260Y34780D02*
X237340Y34780D01*
X237340Y36604D02*
X215260Y36604D01*
X215260Y38428D02*
X237340Y38428D01*
X237340Y40252D02*
X215260Y40252D01*
X215260Y42076D02*
X237340Y42076D01*
X237340Y43900D02*
X215260Y43900D01*
X215260Y45724D02*
X237340Y45724D01*
X237340Y47548D02*
X215260Y47548D01*
X215260Y49372D02*
X237340Y49372D01*
X237340Y51196D02*
X215260Y51196D01*
X215260Y86660D02*
X215260Y112740D01*
X237340Y112740D01*
X237340Y86660D01*
X215260Y86660D01*
X215260Y88484D02*
X237340Y88484D01*
X237340Y90308D02*
X215260Y90308D01*
X215260Y92132D02*
X237340Y92132D01*
X237340Y93956D02*
X215260Y93956D01*
X215260Y95780D02*
X237340Y95780D01*
X237340Y97604D02*
X215260Y97604D01*
X215260Y99428D02*
X237340Y99428D01*
X237340Y101252D02*
X215260Y101252D01*
X215260Y103076D02*
X237340Y103076D01*
X237340Y104900D02*
X215260Y104900D01*
X215260Y106724D02*
X237340Y106724D01*
X237340Y108548D02*
X215260Y108548D01*
X215260Y110372D02*
X237340Y110372D01*
X237340Y112196D02*
X215260Y112196D01*
X101260Y112740D02*
X101260Y86660D01*
X101260Y112740D02*
X123340Y112740D01*
X123340Y86660D01*
X101260Y86660D01*
X101260Y88484D02*
X123340Y88484D01*
X123340Y90308D02*
X101260Y90308D01*
X101260Y92132D02*
X123340Y92132D01*
X123340Y93956D02*
X101260Y93956D01*
X101260Y95780D02*
X123340Y95780D01*
X123340Y97604D02*
X101260Y97604D01*
X101260Y99428D02*
X123340Y99428D01*
X123340Y101252D02*
X101260Y101252D01*
X101260Y103076D02*
X123340Y103076D01*
X123340Y104900D02*
X101260Y104900D01*
X101260Y106724D02*
X123340Y106724D01*
X123340Y108548D02*
X101260Y108548D01*
X101260Y110372D02*
X123340Y110372D01*
X123340Y112196D02*
X101260Y112196D01*
X101260Y51740D02*
X101260Y25660D01*
X101260Y51740D02*
X123340Y51740D01*
X123340Y25660D01*
X101260Y25660D01*
X101260Y27484D02*
X123340Y27484D01*
X123340Y29308D02*
X101260Y29308D01*
X101260Y31132D02*
X123340Y31132D01*
X123340Y32956D02*
X101260Y32956D01*
X101260Y34780D02*
X123340Y34780D01*
X123340Y36604D02*
X101260Y36604D01*
X101260Y38428D02*
X123340Y38428D01*
X123340Y40252D02*
X101260Y40252D01*
X101260Y42076D02*
X123340Y42076D01*
X123340Y43900D02*
X101260Y43900D01*
X101260Y45724D02*
X123340Y45724D01*
X123340Y47548D02*
X101260Y47548D01*
X101260Y49372D02*
X123340Y49372D01*
X123340Y51196D02*
X101260Y51196D01*
D17*
X169300Y54700D03*
D18*
X169300Y99700D03*
D19*
X179418Y270350D02*
X196182Y270350D01*
X196182Y295750D02*
X179418Y295750D01*
X179418Y321150D02*
X196182Y321150D01*
X196182Y346550D02*
X179418Y346550D01*
D10*
X136090Y224275D02*
X122170Y224275D01*
X122170Y240225D01*
X136090Y240225D01*
X136090Y224275D01*
X136090Y226251D02*
X122170Y226251D01*
X122170Y228227D02*
X136090Y228227D01*
X136090Y230203D02*
X122170Y230203D01*
X122170Y232179D02*
X136090Y232179D01*
X136090Y234155D02*
X122170Y234155D01*
X122170Y236131D02*
X136090Y236131D01*
X136090Y238107D02*
X122170Y238107D01*
X122170Y240083D02*
X136090Y240083D01*
X150610Y224275D02*
X164530Y224275D01*
X150610Y224275D02*
X150610Y240225D01*
X164530Y240225D01*
X164530Y224275D01*
X164530Y226251D02*
X150610Y226251D01*
X150610Y228227D02*
X164530Y228227D01*
X164530Y230203D02*
X150610Y230203D01*
X150610Y232179D02*
X164530Y232179D01*
X164530Y234155D02*
X150610Y234155D01*
X150610Y236131D02*
X164530Y236131D01*
X164530Y238107D02*
X150610Y238107D01*
X150610Y240083D02*
X164530Y240083D01*
X40840Y202125D02*
X26920Y202125D01*
X40840Y202125D02*
X40840Y186175D01*
X26920Y186175D01*
X26920Y202125D01*
X26920Y188151D02*
X40840Y188151D01*
X40840Y190127D02*
X26920Y190127D01*
X26920Y192103D02*
X40840Y192103D01*
X40840Y194079D02*
X26920Y194079D01*
X26920Y196055D02*
X40840Y196055D01*
X40840Y198031D02*
X26920Y198031D01*
X26920Y200007D02*
X40840Y200007D01*
X40840Y201983D02*
X26920Y201983D01*
X55360Y202125D02*
X69280Y202125D01*
X69280Y186175D01*
X55360Y186175D01*
X55360Y202125D01*
X55360Y188151D02*
X69280Y188151D01*
X69280Y190127D02*
X55360Y190127D01*
X55360Y192103D02*
X69280Y192103D01*
X69280Y194079D02*
X55360Y194079D01*
X55360Y196055D02*
X69280Y196055D01*
X69280Y198031D02*
X55360Y198031D01*
X55360Y200007D02*
X69280Y200007D01*
X69280Y201983D02*
X55360Y201983D01*
X179320Y227525D02*
X193240Y227525D01*
X193240Y211575D01*
X179320Y211575D01*
X179320Y227525D01*
X179320Y213551D02*
X193240Y213551D01*
X193240Y215527D02*
X179320Y215527D01*
X179320Y217503D02*
X193240Y217503D01*
X193240Y219479D02*
X179320Y219479D01*
X179320Y221455D02*
X193240Y221455D01*
X193240Y223431D02*
X179320Y223431D01*
X179320Y225407D02*
X193240Y225407D01*
X193240Y227383D02*
X179320Y227383D01*
X207760Y227525D02*
X221680Y227525D01*
X221680Y211575D01*
X207760Y211575D01*
X207760Y227525D01*
X207760Y213551D02*
X221680Y213551D01*
X221680Y215527D02*
X207760Y215527D01*
X207760Y217503D02*
X221680Y217503D01*
X221680Y219479D02*
X207760Y219479D01*
X207760Y221455D02*
X221680Y221455D01*
X221680Y223431D02*
X207760Y223431D01*
X207760Y225407D02*
X221680Y225407D01*
X221680Y227383D02*
X207760Y227383D01*
X40840Y164025D02*
X26920Y164025D01*
X40840Y164025D02*
X40840Y148075D01*
X26920Y148075D01*
X26920Y164025D01*
X26920Y150051D02*
X40840Y150051D01*
X40840Y152027D02*
X26920Y152027D01*
X26920Y154003D02*
X40840Y154003D01*
X40840Y155979D02*
X26920Y155979D01*
X26920Y157955D02*
X40840Y157955D01*
X40840Y159931D02*
X26920Y159931D01*
X26920Y161907D02*
X40840Y161907D01*
X40840Y163883D02*
X26920Y163883D01*
X55360Y164025D02*
X69280Y164025D01*
X69280Y148075D01*
X55360Y148075D01*
X55360Y164025D01*
X55360Y150051D02*
X69280Y150051D01*
X69280Y152027D02*
X55360Y152027D01*
X55360Y154003D02*
X69280Y154003D01*
X69280Y155979D02*
X55360Y155979D01*
X55360Y157955D02*
X69280Y157955D01*
X69280Y159931D02*
X55360Y159931D01*
X55360Y161907D02*
X69280Y161907D01*
X69280Y163883D02*
X55360Y163883D01*
D20*
X124300Y188872D02*
X124300Y208928D01*
X136300Y185150D02*
X136800Y184650D01*
X136300Y185150D02*
X128022Y185150D01*
X124300Y188872D01*
X214720Y208370D02*
X214720Y219550D01*
X214720Y208370D02*
X206850Y200500D01*
X175100Y200500D01*
X157865Y217735D01*
X133107Y217735D01*
X124300Y208928D01*
X136800Y203650D02*
X151987Y203650D01*
X169652Y185985D01*
X228220Y185985D01*
X166142Y248050D02*
X101100Y248050D01*
X166142Y248050D02*
X180057Y234135D01*
X224928Y234135D02*
X228220Y230843D01*
X224928Y234135D02*
X180057Y234135D01*
X228220Y213200D02*
X228220Y185985D01*
X228220Y213200D02*
X228220Y230843D01*
X101100Y248050D02*
X85300Y232250D01*
X62100Y232250D01*
X248600Y213200D02*
X264000Y228600D01*
X248600Y213200D02*
X228220Y213200D01*
X102300Y194150D02*
X62320Y194150D01*
X102300Y194150D02*
X111800Y184650D01*
X34100Y156270D02*
X33880Y156050D01*
X35400Y154530D01*
X35400Y130650D01*
X36100Y129950D01*
X112300Y99700D02*
X112300Y38700D01*
X264000Y295750D02*
X295750Y295750D01*
X264000Y295750D02*
X187800Y295750D01*
X38600Y308450D02*
X35400Y311650D01*
X264000Y295750D02*
X264000Y371950D01*
X187800Y321150D02*
X187800Y295750D01*
X264000Y248600D02*
X266700Y251300D01*
X34100Y270350D02*
X33880Y270130D01*
X33880Y194150D02*
X33880Y156050D01*
X136800Y194150D02*
X148759Y194150D01*
X165924Y176985D01*
X295750Y176985D01*
X295750Y295750D01*
X38600Y308450D02*
X38600Y274850D01*
X34100Y270350D01*
X34100Y232250D01*
X33880Y232030D01*
X34100Y232250D02*
X34100Y194370D01*
X33880Y194150D01*
X264000Y248600D02*
X264000Y295750D01*
X81350Y130650D02*
X112300Y99700D01*
X81350Y130650D02*
X35400Y130650D01*
X38600Y308450D02*
X38600Y328600D01*
X81950Y371950D02*
X264000Y371950D01*
X81950Y371950D02*
X38600Y328600D01*
X157570Y232250D02*
X170270Y219550D01*
X186280Y219550D01*
X70920Y147450D02*
X62320Y156050D01*
X101100Y295000D02*
X139950Y333850D01*
X101100Y295000D02*
X101100Y267250D01*
X111700Y203750D02*
X111800Y203650D01*
X111700Y203750D02*
X90600Y203750D01*
X48820Y169550D02*
X62320Y156050D01*
X48820Y169550D02*
X48820Y205443D01*
X52042Y208665D01*
X85685Y208665D01*
X90600Y203750D01*
X101100Y267250D02*
X98000Y270350D01*
X62100Y270350D01*
X48600Y243528D02*
X48600Y220972D01*
X62100Y257028D02*
X62100Y270350D01*
X48600Y220972D02*
X48820Y220752D01*
X48820Y205443D01*
X48600Y243528D02*
X62100Y257028D01*
X111800Y214920D02*
X111800Y203650D01*
X111800Y214920D02*
X129130Y232250D01*
X178550Y147450D02*
X226300Y99700D01*
X178550Y147450D02*
X70920Y147450D01*
X226300Y99700D02*
X226300Y38700D01*
X70550Y308450D02*
X95950Y333850D01*
X70550Y308450D02*
X57600Y308450D01*
X185985Y268535D02*
X187800Y270350D01*
X121350Y359250D02*
X95950Y333850D01*
X121350Y359250D02*
X160710Y359250D01*
X160710Y270350D02*
X187800Y270350D01*
X160710Y270350D02*
X160710Y359250D01*
X132985Y268535D02*
X122100Y257650D01*
X132985Y268535D02*
X185985Y268535D01*
M02*
