G04 EAGLE Gerber RS-274X export*
G75*
%MOMM*%
%FSLAX34Y34*%
%LPD*%
%IN*%
%IPPOS*%
%AMOC8*
5,1,8,0,0,1.08239X$1,22.5*%
G01*
%ADD10C,0.254000*%


D10*
X0Y0D02*
X360000Y0D01*
X360000Y400000D01*
X0Y400000D01*
X0Y0D01*
X42500Y369509D02*
X42423Y368530D01*
X42269Y367560D01*
X42040Y366604D01*
X41736Y365670D01*
X41361Y364763D01*
X40915Y363888D01*
X40401Y363050D01*
X39824Y362255D01*
X39186Y361508D01*
X38492Y360814D01*
X37745Y360176D01*
X36950Y359599D01*
X36112Y359085D01*
X35237Y358639D01*
X34330Y358264D01*
X33396Y357960D01*
X32441Y357731D01*
X31470Y357577D01*
X30491Y357500D01*
X29509Y357500D01*
X28530Y357577D01*
X27560Y357731D01*
X26604Y357960D01*
X25670Y358264D01*
X24763Y358639D01*
X23888Y359085D01*
X23050Y359599D01*
X22255Y360176D01*
X21508Y360814D01*
X20814Y361508D01*
X20176Y362255D01*
X19599Y363050D01*
X19085Y363888D01*
X18639Y364763D01*
X18264Y365670D01*
X17960Y366604D01*
X17731Y367560D01*
X17577Y368530D01*
X17500Y369509D01*
X17500Y370491D01*
X17577Y371470D01*
X17731Y372441D01*
X17960Y373396D01*
X18264Y374330D01*
X18639Y375237D01*
X19085Y376112D01*
X19599Y376950D01*
X20176Y377745D01*
X20814Y378492D01*
X21508Y379186D01*
X22255Y379824D01*
X23050Y380401D01*
X23888Y380915D01*
X24763Y381361D01*
X25670Y381736D01*
X26604Y382040D01*
X27560Y382269D01*
X28530Y382423D01*
X29509Y382500D01*
X30491Y382500D01*
X31470Y382423D01*
X32441Y382269D01*
X33396Y382040D01*
X34330Y381736D01*
X35237Y381361D01*
X36112Y380915D01*
X36950Y380401D01*
X37745Y379824D01*
X38492Y379186D01*
X39186Y378492D01*
X39824Y377745D01*
X40401Y376950D01*
X40915Y376112D01*
X41361Y375237D01*
X41736Y374330D01*
X42040Y373396D01*
X42269Y372441D01*
X42423Y371470D01*
X42500Y370491D01*
X42500Y369509D01*
X342500Y369509D02*
X342423Y368530D01*
X342269Y367560D01*
X342040Y366604D01*
X341736Y365670D01*
X341361Y364763D01*
X340915Y363888D01*
X340401Y363050D01*
X339824Y362255D01*
X339186Y361508D01*
X338492Y360814D01*
X337745Y360176D01*
X336950Y359599D01*
X336112Y359085D01*
X335237Y358639D01*
X334330Y358264D01*
X333396Y357960D01*
X332441Y357731D01*
X331470Y357577D01*
X330491Y357500D01*
X329509Y357500D01*
X328530Y357577D01*
X327560Y357731D01*
X326604Y357960D01*
X325670Y358264D01*
X324763Y358639D01*
X323888Y359085D01*
X323050Y359599D01*
X322255Y360176D01*
X321508Y360814D01*
X320814Y361508D01*
X320176Y362255D01*
X319599Y363050D01*
X319085Y363888D01*
X318639Y364763D01*
X318264Y365670D01*
X317960Y366604D01*
X317731Y367560D01*
X317577Y368530D01*
X317500Y369509D01*
X317500Y370491D01*
X317577Y371470D01*
X317731Y372441D01*
X317960Y373396D01*
X318264Y374330D01*
X318639Y375237D01*
X319085Y376112D01*
X319599Y376950D01*
X320176Y377745D01*
X320814Y378492D01*
X321508Y379186D01*
X322255Y379824D01*
X323050Y380401D01*
X323888Y380915D01*
X324763Y381361D01*
X325670Y381736D01*
X326604Y382040D01*
X327560Y382269D01*
X328530Y382423D01*
X329509Y382500D01*
X330491Y382500D01*
X331470Y382423D01*
X332441Y382269D01*
X333396Y382040D01*
X334330Y381736D01*
X335237Y381361D01*
X336112Y380915D01*
X336950Y380401D01*
X337745Y379824D01*
X338492Y379186D01*
X339186Y378492D01*
X339824Y377745D01*
X340401Y376950D01*
X340915Y376112D01*
X341361Y375237D01*
X341736Y374330D01*
X342040Y373396D01*
X342269Y372441D01*
X342423Y371470D01*
X342500Y370491D01*
X342500Y369509D01*
X342500Y29509D02*
X342423Y28530D01*
X342269Y27560D01*
X342040Y26604D01*
X341736Y25670D01*
X341361Y24763D01*
X340915Y23888D01*
X340401Y23050D01*
X339824Y22255D01*
X339186Y21508D01*
X338492Y20814D01*
X337745Y20176D01*
X336950Y19599D01*
X336112Y19085D01*
X335237Y18639D01*
X334330Y18264D01*
X333396Y17960D01*
X332441Y17731D01*
X331470Y17577D01*
X330491Y17500D01*
X329509Y17500D01*
X328530Y17577D01*
X327560Y17731D01*
X326604Y17960D01*
X325670Y18264D01*
X324763Y18639D01*
X323888Y19085D01*
X323050Y19599D01*
X322255Y20176D01*
X321508Y20814D01*
X320814Y21508D01*
X320176Y22255D01*
X319599Y23050D01*
X319085Y23888D01*
X318639Y24763D01*
X318264Y25670D01*
X317960Y26604D01*
X317731Y27560D01*
X317577Y28530D01*
X317500Y29509D01*
X317500Y30491D01*
X317577Y31470D01*
X317731Y32441D01*
X317960Y33396D01*
X318264Y34330D01*
X318639Y35237D01*
X319085Y36112D01*
X319599Y36950D01*
X320176Y37745D01*
X320814Y38492D01*
X321508Y39186D01*
X322255Y39824D01*
X323050Y40401D01*
X323888Y40915D01*
X324763Y41361D01*
X325670Y41736D01*
X326604Y42040D01*
X327560Y42269D01*
X328530Y42423D01*
X329509Y42500D01*
X330491Y42500D01*
X331470Y42423D01*
X332441Y42269D01*
X333396Y42040D01*
X334330Y41736D01*
X335237Y41361D01*
X336112Y40915D01*
X336950Y40401D01*
X337745Y39824D01*
X338492Y39186D01*
X339186Y38492D01*
X339824Y37745D01*
X340401Y36950D01*
X340915Y36112D01*
X341361Y35237D01*
X341736Y34330D01*
X342040Y33396D01*
X342269Y32441D01*
X342423Y31470D01*
X342500Y30491D01*
X342500Y29509D01*
X42500Y29509D02*
X42423Y28530D01*
X42269Y27560D01*
X42040Y26604D01*
X41736Y25670D01*
X41361Y24763D01*
X40915Y23888D01*
X40401Y23050D01*
X39824Y22255D01*
X39186Y21508D01*
X38492Y20814D01*
X37745Y20176D01*
X36950Y19599D01*
X36112Y19085D01*
X35237Y18639D01*
X34330Y18264D01*
X33396Y17960D01*
X32441Y17731D01*
X31470Y17577D01*
X30491Y17500D01*
X29509Y17500D01*
X28530Y17577D01*
X27560Y17731D01*
X26604Y17960D01*
X25670Y18264D01*
X24763Y18639D01*
X23888Y19085D01*
X23050Y19599D01*
X22255Y20176D01*
X21508Y20814D01*
X20814Y21508D01*
X20176Y22255D01*
X19599Y23050D01*
X19085Y23888D01*
X18639Y24763D01*
X18264Y25670D01*
X17960Y26604D01*
X17731Y27560D01*
X17577Y28530D01*
X17500Y29509D01*
X17500Y30491D01*
X17577Y31470D01*
X17731Y32441D01*
X17960Y33396D01*
X18264Y34330D01*
X18639Y35237D01*
X19085Y36112D01*
X19599Y36950D01*
X20176Y37745D01*
X20814Y38492D01*
X21508Y39186D01*
X22255Y39824D01*
X23050Y40401D01*
X23888Y40915D01*
X24763Y41361D01*
X25670Y41736D01*
X26604Y42040D01*
X27560Y42269D01*
X28530Y42423D01*
X29509Y42500D01*
X30491Y42500D01*
X31470Y42423D01*
X32441Y42269D01*
X33396Y42040D01*
X34330Y41736D01*
X35237Y41361D01*
X36112Y40915D01*
X36950Y40401D01*
X37745Y39824D01*
X38492Y39186D01*
X39186Y38492D01*
X39824Y37745D01*
X40401Y36950D01*
X40915Y36112D01*
X41361Y35237D01*
X41736Y34330D01*
X42040Y33396D01*
X42269Y32441D01*
X42423Y31470D01*
X42500Y30491D01*
X42500Y29509D01*
M02*
