G04 EAGLE Gerber RS-274X export*
G75*
%MOMM*%
%FSLAX34Y34*%
%LPD*%
%INSilkscreen Top*%
%IPPOS*%
%AMOC8*
5,1,8,0,0,1.08239X$1,22.5*%
G01*
%ADD10C,0.101600*%
%ADD11C,0.200000*%
%ADD12C,0.127000*%
%ADD13C,0.300000*%
%ADD14C,0.400000*%
%ADD15C,0.152400*%
%ADD16R,0.200000X0.200000*%
%ADD17R,0.150000X0.250000*%


D10*
X41101Y245458D02*
X38504Y245458D01*
X38405Y245460D01*
X38305Y245466D01*
X38206Y245475D01*
X38108Y245488D01*
X38010Y245505D01*
X37912Y245526D01*
X37816Y245551D01*
X37721Y245579D01*
X37627Y245611D01*
X37534Y245646D01*
X37442Y245685D01*
X37352Y245728D01*
X37264Y245773D01*
X37177Y245823D01*
X37093Y245875D01*
X37010Y245931D01*
X36930Y245989D01*
X36852Y246051D01*
X36777Y246116D01*
X36704Y246184D01*
X36634Y246254D01*
X36566Y246327D01*
X36501Y246402D01*
X36439Y246480D01*
X36381Y246560D01*
X36325Y246643D01*
X36273Y246727D01*
X36223Y246814D01*
X36178Y246902D01*
X36135Y246992D01*
X36096Y247084D01*
X36061Y247177D01*
X36029Y247271D01*
X36001Y247366D01*
X35976Y247462D01*
X35955Y247560D01*
X35938Y247658D01*
X35925Y247756D01*
X35916Y247855D01*
X35910Y247955D01*
X35908Y248054D01*
X35908Y254546D01*
X35910Y254645D01*
X35916Y254745D01*
X35925Y254844D01*
X35938Y254942D01*
X35955Y255040D01*
X35976Y255138D01*
X36001Y255234D01*
X36029Y255329D01*
X36061Y255423D01*
X36096Y255516D01*
X36135Y255608D01*
X36178Y255698D01*
X36223Y255786D01*
X36273Y255873D01*
X36325Y255957D01*
X36381Y256040D01*
X36439Y256120D01*
X36501Y256198D01*
X36566Y256273D01*
X36634Y256346D01*
X36704Y256416D01*
X36777Y256484D01*
X36852Y256549D01*
X36930Y256611D01*
X37010Y256669D01*
X37093Y256725D01*
X37177Y256777D01*
X37264Y256827D01*
X37352Y256872D01*
X37442Y256915D01*
X37534Y256954D01*
X37626Y256989D01*
X37721Y257021D01*
X37816Y257049D01*
X37912Y257074D01*
X38010Y257095D01*
X38108Y257112D01*
X38206Y257125D01*
X38305Y257134D01*
X38405Y257140D01*
X38504Y257142D01*
X41101Y257142D01*
X49036Y257142D02*
X49143Y257140D01*
X49249Y257134D01*
X49355Y257124D01*
X49461Y257111D01*
X49567Y257093D01*
X49671Y257072D01*
X49775Y257047D01*
X49878Y257018D01*
X49979Y256986D01*
X50079Y256949D01*
X50178Y256909D01*
X50276Y256866D01*
X50372Y256819D01*
X50466Y256768D01*
X50558Y256714D01*
X50648Y256657D01*
X50736Y256597D01*
X50821Y256533D01*
X50904Y256466D01*
X50985Y256396D01*
X51063Y256324D01*
X51139Y256248D01*
X51211Y256170D01*
X51281Y256089D01*
X51348Y256006D01*
X51412Y255921D01*
X51472Y255833D01*
X51529Y255743D01*
X51583Y255651D01*
X51634Y255557D01*
X51681Y255461D01*
X51724Y255363D01*
X51764Y255264D01*
X51801Y255164D01*
X51833Y255063D01*
X51862Y254960D01*
X51887Y254856D01*
X51908Y254752D01*
X51926Y254646D01*
X51939Y254540D01*
X51949Y254434D01*
X51955Y254328D01*
X51957Y254221D01*
X49036Y257142D02*
X48915Y257140D01*
X48794Y257134D01*
X48674Y257124D01*
X48553Y257111D01*
X48434Y257093D01*
X48314Y257072D01*
X48196Y257047D01*
X48079Y257018D01*
X47962Y256985D01*
X47847Y256949D01*
X47733Y256908D01*
X47620Y256865D01*
X47508Y256817D01*
X47399Y256766D01*
X47291Y256711D01*
X47184Y256653D01*
X47080Y256592D01*
X46978Y256527D01*
X46878Y256459D01*
X46780Y256388D01*
X46684Y256314D01*
X46591Y256237D01*
X46501Y256156D01*
X46413Y256073D01*
X46328Y255987D01*
X46245Y255898D01*
X46166Y255807D01*
X46089Y255713D01*
X46016Y255617D01*
X45946Y255519D01*
X45879Y255418D01*
X45815Y255315D01*
X45755Y255210D01*
X45698Y255103D01*
X45644Y254995D01*
X45594Y254885D01*
X45548Y254773D01*
X45505Y254660D01*
X45466Y254545D01*
X50984Y251949D02*
X51063Y252026D01*
X51139Y252107D01*
X51212Y252190D01*
X51282Y252275D01*
X51349Y252363D01*
X51413Y252453D01*
X51473Y252545D01*
X51530Y252640D01*
X51584Y252736D01*
X51635Y252834D01*
X51682Y252934D01*
X51726Y253036D01*
X51766Y253139D01*
X51802Y253243D01*
X51834Y253349D01*
X51863Y253455D01*
X51888Y253563D01*
X51910Y253671D01*
X51927Y253781D01*
X51941Y253890D01*
X51950Y254000D01*
X51956Y254111D01*
X51958Y254221D01*
X50984Y251949D02*
X45466Y245458D01*
X51957Y245458D01*
X56896Y251949D02*
X60791Y251949D01*
X60890Y251947D01*
X60990Y251941D01*
X61089Y251932D01*
X61187Y251919D01*
X61285Y251902D01*
X61383Y251881D01*
X61479Y251856D01*
X61574Y251828D01*
X61668Y251796D01*
X61761Y251761D01*
X61853Y251722D01*
X61943Y251679D01*
X62031Y251634D01*
X62118Y251584D01*
X62202Y251532D01*
X62285Y251476D01*
X62365Y251418D01*
X62443Y251356D01*
X62518Y251291D01*
X62591Y251223D01*
X62661Y251153D01*
X62729Y251080D01*
X62794Y251005D01*
X62856Y250927D01*
X62914Y250847D01*
X62970Y250764D01*
X63022Y250680D01*
X63072Y250593D01*
X63117Y250505D01*
X63160Y250415D01*
X63199Y250323D01*
X63234Y250230D01*
X63266Y250136D01*
X63294Y250041D01*
X63319Y249945D01*
X63340Y249847D01*
X63357Y249749D01*
X63370Y249651D01*
X63379Y249552D01*
X63385Y249452D01*
X63387Y249353D01*
X63387Y248704D01*
X63388Y248704D02*
X63386Y248591D01*
X63380Y248478D01*
X63370Y248365D01*
X63356Y248252D01*
X63339Y248140D01*
X63317Y248029D01*
X63292Y247919D01*
X63262Y247809D01*
X63229Y247701D01*
X63192Y247594D01*
X63152Y247488D01*
X63107Y247384D01*
X63059Y247281D01*
X63008Y247180D01*
X62953Y247081D01*
X62895Y246984D01*
X62833Y246889D01*
X62768Y246796D01*
X62700Y246706D01*
X62629Y246618D01*
X62554Y246532D01*
X62477Y246449D01*
X62397Y246369D01*
X62314Y246292D01*
X62228Y246217D01*
X62140Y246146D01*
X62050Y246078D01*
X61957Y246013D01*
X61862Y245951D01*
X61765Y245893D01*
X61666Y245838D01*
X61565Y245787D01*
X61462Y245739D01*
X61358Y245694D01*
X61252Y245654D01*
X61145Y245617D01*
X61037Y245584D01*
X60927Y245554D01*
X60817Y245529D01*
X60706Y245507D01*
X60594Y245490D01*
X60481Y245476D01*
X60368Y245466D01*
X60255Y245460D01*
X60142Y245458D01*
X60029Y245460D01*
X59916Y245466D01*
X59803Y245476D01*
X59690Y245490D01*
X59578Y245507D01*
X59467Y245529D01*
X59357Y245554D01*
X59247Y245584D01*
X59139Y245617D01*
X59032Y245654D01*
X58926Y245694D01*
X58822Y245739D01*
X58719Y245787D01*
X58618Y245838D01*
X58519Y245893D01*
X58422Y245951D01*
X58327Y246013D01*
X58234Y246078D01*
X58144Y246146D01*
X58056Y246217D01*
X57970Y246292D01*
X57887Y246369D01*
X57807Y246449D01*
X57730Y246532D01*
X57655Y246618D01*
X57584Y246706D01*
X57516Y246796D01*
X57451Y246889D01*
X57389Y246984D01*
X57331Y247081D01*
X57276Y247180D01*
X57225Y247281D01*
X57177Y247384D01*
X57132Y247488D01*
X57092Y247594D01*
X57055Y247701D01*
X57022Y247809D01*
X56992Y247919D01*
X56967Y248029D01*
X56945Y248140D01*
X56928Y248252D01*
X56914Y248365D01*
X56904Y248478D01*
X56898Y248591D01*
X56896Y248704D01*
X56896Y251949D01*
X56898Y252092D01*
X56904Y252235D01*
X56914Y252378D01*
X56928Y252520D01*
X56945Y252662D01*
X56967Y252804D01*
X56992Y252945D01*
X57022Y253085D01*
X57055Y253224D01*
X57092Y253362D01*
X57133Y253499D01*
X57177Y253635D01*
X57226Y253770D01*
X57278Y253903D01*
X57333Y254035D01*
X57393Y254165D01*
X57456Y254294D01*
X57522Y254421D01*
X57592Y254545D01*
X57665Y254668D01*
X57742Y254789D01*
X57822Y254908D01*
X57905Y255024D01*
X57991Y255139D01*
X58080Y255250D01*
X58173Y255360D01*
X58268Y255466D01*
X58367Y255570D01*
X58468Y255671D01*
X58572Y255770D01*
X58678Y255865D01*
X58788Y255958D01*
X58899Y256047D01*
X59014Y256133D01*
X59130Y256216D01*
X59249Y256296D01*
X59370Y256373D01*
X59492Y256446D01*
X59617Y256516D01*
X59744Y256582D01*
X59873Y256645D01*
X60003Y256705D01*
X60135Y256760D01*
X60268Y256812D01*
X60403Y256861D01*
X60539Y256905D01*
X60676Y256946D01*
X60814Y256983D01*
X60953Y257016D01*
X61093Y257046D01*
X61234Y257071D01*
X61376Y257093D01*
X61518Y257110D01*
X61660Y257124D01*
X61803Y257134D01*
X61946Y257140D01*
X62089Y257142D01*
X38006Y245458D02*
X35409Y245458D01*
X35310Y245460D01*
X35210Y245466D01*
X35111Y245475D01*
X35013Y245488D01*
X34915Y245505D01*
X34817Y245526D01*
X34721Y245551D01*
X34626Y245579D01*
X34532Y245611D01*
X34439Y245646D01*
X34347Y245685D01*
X34257Y245728D01*
X34169Y245773D01*
X34082Y245823D01*
X33998Y245875D01*
X33915Y245931D01*
X33835Y245989D01*
X33757Y246051D01*
X33682Y246116D01*
X33609Y246184D01*
X33539Y246254D01*
X33471Y246327D01*
X33406Y246402D01*
X33344Y246480D01*
X33286Y246560D01*
X33230Y246643D01*
X33178Y246727D01*
X33128Y246814D01*
X33083Y246902D01*
X33040Y246992D01*
X33001Y247084D01*
X32966Y247177D01*
X32934Y247271D01*
X32906Y247366D01*
X32881Y247462D01*
X32860Y247560D01*
X32843Y247658D01*
X32830Y247756D01*
X32821Y247855D01*
X32815Y247955D01*
X32813Y248054D01*
X32813Y254546D01*
X32815Y254645D01*
X32821Y254745D01*
X32830Y254844D01*
X32843Y254942D01*
X32860Y255040D01*
X32881Y255138D01*
X32906Y255234D01*
X32934Y255329D01*
X32966Y255423D01*
X33001Y255516D01*
X33040Y255608D01*
X33083Y255698D01*
X33128Y255786D01*
X33178Y255873D01*
X33230Y255957D01*
X33286Y256040D01*
X33344Y256120D01*
X33406Y256198D01*
X33471Y256273D01*
X33539Y256346D01*
X33609Y256416D01*
X33682Y256484D01*
X33757Y256549D01*
X33835Y256611D01*
X33915Y256669D01*
X33998Y256725D01*
X34082Y256777D01*
X34169Y256827D01*
X34257Y256872D01*
X34347Y256915D01*
X34439Y256954D01*
X34531Y256989D01*
X34626Y257021D01*
X34721Y257049D01*
X34817Y257074D01*
X34915Y257095D01*
X35013Y257112D01*
X35111Y257125D01*
X35210Y257134D01*
X35310Y257140D01*
X35409Y257142D01*
X38006Y257142D01*
X45941Y257142D02*
X46048Y257140D01*
X46154Y257134D01*
X46260Y257124D01*
X46366Y257111D01*
X46472Y257093D01*
X46576Y257072D01*
X46680Y257047D01*
X46783Y257018D01*
X46884Y256986D01*
X46984Y256949D01*
X47083Y256909D01*
X47181Y256866D01*
X47277Y256819D01*
X47371Y256768D01*
X47463Y256714D01*
X47553Y256657D01*
X47641Y256597D01*
X47726Y256533D01*
X47809Y256466D01*
X47890Y256396D01*
X47968Y256324D01*
X48044Y256248D01*
X48116Y256170D01*
X48186Y256089D01*
X48253Y256006D01*
X48317Y255921D01*
X48377Y255833D01*
X48434Y255743D01*
X48488Y255651D01*
X48539Y255557D01*
X48586Y255461D01*
X48629Y255363D01*
X48669Y255264D01*
X48706Y255164D01*
X48738Y255063D01*
X48767Y254960D01*
X48792Y254856D01*
X48813Y254752D01*
X48831Y254646D01*
X48844Y254540D01*
X48854Y254434D01*
X48860Y254328D01*
X48862Y254221D01*
X45941Y257142D02*
X45820Y257140D01*
X45699Y257134D01*
X45579Y257124D01*
X45458Y257111D01*
X45339Y257093D01*
X45219Y257072D01*
X45101Y257047D01*
X44984Y257018D01*
X44867Y256985D01*
X44752Y256949D01*
X44638Y256908D01*
X44525Y256865D01*
X44413Y256817D01*
X44304Y256766D01*
X44196Y256711D01*
X44089Y256653D01*
X43985Y256592D01*
X43883Y256527D01*
X43783Y256459D01*
X43685Y256388D01*
X43589Y256314D01*
X43496Y256237D01*
X43406Y256156D01*
X43318Y256073D01*
X43233Y255987D01*
X43150Y255898D01*
X43071Y255807D01*
X42994Y255713D01*
X42921Y255617D01*
X42851Y255519D01*
X42784Y255418D01*
X42720Y255315D01*
X42660Y255210D01*
X42603Y255103D01*
X42549Y254995D01*
X42499Y254885D01*
X42453Y254773D01*
X42410Y254660D01*
X42371Y254545D01*
X47889Y251949D02*
X47968Y252026D01*
X48044Y252107D01*
X48117Y252190D01*
X48187Y252275D01*
X48254Y252363D01*
X48318Y252453D01*
X48378Y252545D01*
X48435Y252640D01*
X48489Y252736D01*
X48540Y252834D01*
X48587Y252934D01*
X48631Y253036D01*
X48671Y253139D01*
X48707Y253243D01*
X48739Y253349D01*
X48768Y253455D01*
X48793Y253563D01*
X48815Y253671D01*
X48832Y253781D01*
X48846Y253890D01*
X48855Y254000D01*
X48861Y254111D01*
X48863Y254221D01*
X47888Y251949D02*
X42371Y245458D01*
X48862Y245458D01*
X53801Y255844D02*
X53801Y257142D01*
X60292Y257142D01*
X57046Y245458D01*
X38006Y283558D02*
X35409Y283558D01*
X35310Y283560D01*
X35210Y283566D01*
X35111Y283575D01*
X35013Y283588D01*
X34915Y283605D01*
X34817Y283626D01*
X34721Y283651D01*
X34626Y283679D01*
X34532Y283711D01*
X34439Y283746D01*
X34347Y283785D01*
X34257Y283828D01*
X34169Y283873D01*
X34082Y283923D01*
X33998Y283975D01*
X33915Y284031D01*
X33835Y284089D01*
X33757Y284151D01*
X33682Y284216D01*
X33609Y284284D01*
X33539Y284354D01*
X33471Y284427D01*
X33406Y284502D01*
X33344Y284580D01*
X33286Y284660D01*
X33230Y284743D01*
X33178Y284827D01*
X33128Y284914D01*
X33083Y285002D01*
X33040Y285092D01*
X33001Y285184D01*
X32966Y285277D01*
X32934Y285371D01*
X32906Y285466D01*
X32881Y285562D01*
X32860Y285660D01*
X32843Y285758D01*
X32830Y285856D01*
X32821Y285955D01*
X32815Y286055D01*
X32813Y286154D01*
X32813Y292646D01*
X32815Y292745D01*
X32821Y292845D01*
X32830Y292944D01*
X32843Y293042D01*
X32860Y293140D01*
X32881Y293238D01*
X32906Y293334D01*
X32934Y293429D01*
X32966Y293523D01*
X33001Y293616D01*
X33040Y293708D01*
X33083Y293798D01*
X33128Y293886D01*
X33178Y293973D01*
X33230Y294057D01*
X33286Y294140D01*
X33344Y294220D01*
X33406Y294298D01*
X33471Y294373D01*
X33539Y294446D01*
X33609Y294516D01*
X33682Y294584D01*
X33757Y294649D01*
X33835Y294711D01*
X33915Y294769D01*
X33998Y294825D01*
X34082Y294877D01*
X34169Y294927D01*
X34257Y294972D01*
X34347Y295015D01*
X34439Y295054D01*
X34531Y295089D01*
X34626Y295121D01*
X34721Y295149D01*
X34817Y295174D01*
X34915Y295195D01*
X35013Y295212D01*
X35111Y295225D01*
X35210Y295234D01*
X35310Y295240D01*
X35409Y295242D01*
X38006Y295242D01*
X42371Y283558D02*
X45616Y283558D01*
X45729Y283560D01*
X45842Y283566D01*
X45955Y283576D01*
X46068Y283590D01*
X46180Y283607D01*
X46291Y283629D01*
X46401Y283654D01*
X46511Y283684D01*
X46619Y283717D01*
X46726Y283754D01*
X46832Y283794D01*
X46936Y283839D01*
X47039Y283887D01*
X47140Y283938D01*
X47239Y283993D01*
X47336Y284051D01*
X47431Y284113D01*
X47524Y284178D01*
X47614Y284246D01*
X47702Y284317D01*
X47788Y284392D01*
X47871Y284469D01*
X47951Y284549D01*
X48028Y284632D01*
X48103Y284718D01*
X48174Y284806D01*
X48242Y284896D01*
X48307Y284989D01*
X48369Y285084D01*
X48427Y285181D01*
X48482Y285280D01*
X48533Y285381D01*
X48581Y285484D01*
X48626Y285588D01*
X48666Y285694D01*
X48703Y285801D01*
X48736Y285909D01*
X48766Y286019D01*
X48791Y286129D01*
X48813Y286240D01*
X48830Y286352D01*
X48844Y286465D01*
X48854Y286578D01*
X48860Y286691D01*
X48862Y286804D01*
X48860Y286917D01*
X48854Y287030D01*
X48844Y287143D01*
X48830Y287256D01*
X48813Y287368D01*
X48791Y287479D01*
X48766Y287589D01*
X48736Y287699D01*
X48703Y287807D01*
X48666Y287914D01*
X48626Y288020D01*
X48581Y288124D01*
X48533Y288227D01*
X48482Y288328D01*
X48427Y288427D01*
X48369Y288524D01*
X48307Y288619D01*
X48242Y288712D01*
X48174Y288802D01*
X48103Y288890D01*
X48028Y288976D01*
X47951Y289059D01*
X47871Y289139D01*
X47788Y289216D01*
X47702Y289291D01*
X47614Y289362D01*
X47524Y289430D01*
X47431Y289495D01*
X47336Y289557D01*
X47239Y289615D01*
X47140Y289670D01*
X47039Y289721D01*
X46936Y289769D01*
X46832Y289814D01*
X46726Y289854D01*
X46619Y289891D01*
X46511Y289924D01*
X46401Y289954D01*
X46291Y289979D01*
X46180Y290001D01*
X46068Y290018D01*
X45955Y290032D01*
X45842Y290042D01*
X45729Y290048D01*
X45616Y290050D01*
X46266Y295242D02*
X42371Y295242D01*
X46266Y295242D02*
X46367Y295240D01*
X46467Y295234D01*
X46567Y295224D01*
X46667Y295211D01*
X46766Y295193D01*
X46865Y295172D01*
X46962Y295147D01*
X47059Y295118D01*
X47154Y295085D01*
X47248Y295049D01*
X47340Y295009D01*
X47431Y294966D01*
X47520Y294919D01*
X47607Y294869D01*
X47693Y294815D01*
X47776Y294758D01*
X47856Y294698D01*
X47935Y294635D01*
X48011Y294568D01*
X48084Y294499D01*
X48154Y294427D01*
X48222Y294353D01*
X48287Y294276D01*
X48348Y294196D01*
X48407Y294114D01*
X48462Y294030D01*
X48514Y293944D01*
X48563Y293856D01*
X48608Y293766D01*
X48650Y293674D01*
X48688Y293581D01*
X48722Y293486D01*
X48753Y293391D01*
X48780Y293294D01*
X48803Y293196D01*
X48823Y293097D01*
X48838Y292997D01*
X48850Y292897D01*
X48858Y292797D01*
X48862Y292696D01*
X48862Y292596D01*
X48858Y292495D01*
X48850Y292395D01*
X48838Y292295D01*
X48823Y292195D01*
X48803Y292096D01*
X48780Y291998D01*
X48753Y291901D01*
X48722Y291806D01*
X48688Y291711D01*
X48650Y291618D01*
X48608Y291526D01*
X48563Y291436D01*
X48514Y291348D01*
X48462Y291262D01*
X48407Y291178D01*
X48348Y291096D01*
X48287Y291016D01*
X48222Y290939D01*
X48154Y290865D01*
X48084Y290793D01*
X48011Y290724D01*
X47935Y290657D01*
X47856Y290594D01*
X47776Y290534D01*
X47693Y290477D01*
X47607Y290423D01*
X47520Y290373D01*
X47431Y290326D01*
X47340Y290283D01*
X47248Y290243D01*
X47154Y290207D01*
X47059Y290174D01*
X46962Y290145D01*
X46865Y290120D01*
X46766Y290099D01*
X46667Y290081D01*
X46567Y290068D01*
X46467Y290058D01*
X46367Y290052D01*
X46266Y290050D01*
X46266Y290049D02*
X43669Y290049D01*
X53801Y289400D02*
X53804Y289630D01*
X53812Y289860D01*
X53826Y290089D01*
X53845Y290318D01*
X53870Y290547D01*
X53900Y290774D01*
X53935Y291002D01*
X53976Y291228D01*
X54022Y291453D01*
X54074Y291677D01*
X54131Y291899D01*
X54193Y292121D01*
X54261Y292340D01*
X54334Y292558D01*
X54412Y292775D01*
X54495Y292989D01*
X54583Y293201D01*
X54676Y293411D01*
X54775Y293619D01*
X54774Y293619D02*
X54807Y293709D01*
X54843Y293798D01*
X54883Y293886D01*
X54927Y293971D01*
X54974Y294055D01*
X55024Y294137D01*
X55078Y294217D01*
X55134Y294294D01*
X55194Y294370D01*
X55257Y294443D01*
X55322Y294513D01*
X55391Y294581D01*
X55462Y294645D01*
X55535Y294707D01*
X55611Y294766D01*
X55689Y294822D01*
X55770Y294875D01*
X55852Y294924D01*
X55936Y294970D01*
X56023Y295013D01*
X56110Y295052D01*
X56200Y295088D01*
X56290Y295120D01*
X56382Y295148D01*
X56475Y295173D01*
X56569Y295194D01*
X56663Y295211D01*
X56758Y295225D01*
X56854Y295234D01*
X56950Y295240D01*
X57046Y295242D01*
X57142Y295240D01*
X57238Y295234D01*
X57334Y295225D01*
X57429Y295211D01*
X57523Y295194D01*
X57617Y295173D01*
X57710Y295148D01*
X57802Y295120D01*
X57892Y295088D01*
X57982Y295052D01*
X58069Y295013D01*
X58156Y294970D01*
X58240Y294924D01*
X58322Y294875D01*
X58403Y294822D01*
X58481Y294766D01*
X58557Y294707D01*
X58630Y294645D01*
X58701Y294581D01*
X58770Y294513D01*
X58835Y294443D01*
X58898Y294370D01*
X58958Y294294D01*
X59014Y294217D01*
X59068Y294137D01*
X59118Y294055D01*
X59165Y293971D01*
X59209Y293886D01*
X59249Y293798D01*
X59285Y293709D01*
X59318Y293619D01*
X59319Y293619D02*
X59418Y293412D01*
X59511Y293202D01*
X59599Y292989D01*
X59682Y292775D01*
X59760Y292559D01*
X59833Y292341D01*
X59901Y292121D01*
X59963Y291900D01*
X60020Y291677D01*
X60072Y291453D01*
X60118Y291228D01*
X60159Y291002D01*
X60194Y290775D01*
X60224Y290547D01*
X60249Y290318D01*
X60268Y290089D01*
X60282Y289860D01*
X60290Y289630D01*
X60293Y289400D01*
X53801Y289400D02*
X53804Y289170D01*
X53812Y288940D01*
X53826Y288711D01*
X53845Y288482D01*
X53870Y288253D01*
X53900Y288025D01*
X53935Y287798D01*
X53976Y287572D01*
X54022Y287347D01*
X54074Y287123D01*
X54131Y286900D01*
X54193Y286679D01*
X54261Y286459D01*
X54334Y286241D01*
X54412Y286025D01*
X54495Y285811D01*
X54583Y285599D01*
X54676Y285388D01*
X54775Y285181D01*
X54774Y285181D02*
X54807Y285091D01*
X54843Y285002D01*
X54884Y284914D01*
X54927Y284829D01*
X54974Y284745D01*
X55024Y284663D01*
X55078Y284583D01*
X55134Y284506D01*
X55194Y284430D01*
X55257Y284357D01*
X55322Y284287D01*
X55391Y284219D01*
X55462Y284155D01*
X55535Y284093D01*
X55611Y284034D01*
X55689Y283978D01*
X55770Y283925D01*
X55852Y283876D01*
X55936Y283830D01*
X56023Y283787D01*
X56110Y283748D01*
X56200Y283712D01*
X56290Y283680D01*
X56382Y283652D01*
X56475Y283627D01*
X56569Y283606D01*
X56663Y283589D01*
X56758Y283575D01*
X56854Y283566D01*
X56950Y283560D01*
X57046Y283558D01*
X59318Y285181D02*
X59417Y285388D01*
X59510Y285599D01*
X59598Y285811D01*
X59681Y286025D01*
X59759Y286241D01*
X59832Y286459D01*
X59900Y286679D01*
X59962Y286900D01*
X60019Y287123D01*
X60071Y287347D01*
X60117Y287572D01*
X60158Y287798D01*
X60193Y288025D01*
X60223Y288253D01*
X60248Y288482D01*
X60267Y288711D01*
X60281Y288940D01*
X60289Y289170D01*
X60292Y289400D01*
X59318Y285181D02*
X59285Y285091D01*
X59249Y285002D01*
X59209Y284914D01*
X59165Y284829D01*
X59118Y284745D01*
X59068Y284663D01*
X59014Y284583D01*
X58958Y284506D01*
X58898Y284430D01*
X58835Y284357D01*
X58770Y284287D01*
X58701Y284219D01*
X58630Y284155D01*
X58557Y284093D01*
X58481Y284034D01*
X58403Y283978D01*
X58322Y283925D01*
X58240Y283876D01*
X58156Y283830D01*
X58069Y283787D01*
X57982Y283748D01*
X57892Y283712D01*
X57802Y283680D01*
X57710Y283652D01*
X57617Y283627D01*
X57523Y283606D01*
X57429Y283589D01*
X57334Y283575D01*
X57238Y283566D01*
X57142Y283560D01*
X57046Y283558D01*
X54450Y286154D02*
X59643Y292646D01*
D11*
X85200Y351950D02*
X144950Y351950D01*
X144950Y315750D02*
X90950Y315750D01*
D10*
X108799Y328008D02*
X108799Y339692D01*
X112045Y339692D01*
X112158Y339690D01*
X112271Y339684D01*
X112384Y339674D01*
X112497Y339660D01*
X112609Y339643D01*
X112720Y339621D01*
X112830Y339596D01*
X112940Y339566D01*
X113048Y339533D01*
X113155Y339496D01*
X113261Y339456D01*
X113365Y339411D01*
X113468Y339363D01*
X113569Y339312D01*
X113668Y339257D01*
X113765Y339199D01*
X113860Y339137D01*
X113953Y339072D01*
X114043Y339004D01*
X114131Y338933D01*
X114217Y338858D01*
X114300Y338781D01*
X114380Y338701D01*
X114457Y338618D01*
X114532Y338532D01*
X114603Y338444D01*
X114671Y338354D01*
X114736Y338261D01*
X114798Y338166D01*
X114856Y338069D01*
X114911Y337970D01*
X114962Y337869D01*
X115010Y337766D01*
X115055Y337662D01*
X115095Y337556D01*
X115132Y337449D01*
X115165Y337341D01*
X115195Y337231D01*
X115220Y337121D01*
X115242Y337010D01*
X115259Y336898D01*
X115273Y336785D01*
X115283Y336672D01*
X115289Y336559D01*
X115291Y336446D01*
X115290Y336446D02*
X115290Y331254D01*
X115291Y331254D02*
X115289Y331141D01*
X115283Y331028D01*
X115273Y330915D01*
X115259Y330802D01*
X115242Y330690D01*
X115220Y330579D01*
X115195Y330469D01*
X115165Y330359D01*
X115132Y330251D01*
X115095Y330144D01*
X115055Y330038D01*
X115010Y329934D01*
X114962Y329831D01*
X114911Y329730D01*
X114856Y329631D01*
X114798Y329534D01*
X114736Y329439D01*
X114671Y329346D01*
X114603Y329256D01*
X114532Y329168D01*
X114457Y329082D01*
X114380Y328999D01*
X114300Y328919D01*
X114217Y328842D01*
X114131Y328767D01*
X114043Y328696D01*
X113953Y328628D01*
X113860Y328563D01*
X113765Y328501D01*
X113668Y328443D01*
X113569Y328388D01*
X113468Y328337D01*
X113365Y328289D01*
X113261Y328244D01*
X113155Y328204D01*
X113048Y328167D01*
X112940Y328134D01*
X112830Y328104D01*
X112720Y328079D01*
X112609Y328057D01*
X112497Y328040D01*
X112384Y328026D01*
X112271Y328016D01*
X112158Y328010D01*
X112045Y328008D01*
X108799Y328008D01*
X120610Y337096D02*
X123855Y339692D01*
X123855Y328008D01*
X120610Y328008D02*
X127101Y328008D01*
D11*
X126300Y179650D02*
X122300Y179650D01*
X122300Y208650D01*
X126300Y208650D01*
X126300Y179650D01*
X129800Y179150D02*
X143800Y179150D01*
D10*
X113992Y188308D02*
X113992Y199992D01*
X112694Y188308D02*
X115290Y188308D01*
X115290Y199992D02*
X112694Y199992D01*
X122454Y188308D02*
X125050Y188308D01*
X122454Y188308D02*
X122355Y188310D01*
X122255Y188316D01*
X122156Y188325D01*
X122058Y188338D01*
X121960Y188355D01*
X121862Y188376D01*
X121766Y188401D01*
X121671Y188429D01*
X121577Y188461D01*
X121484Y188496D01*
X121392Y188535D01*
X121302Y188578D01*
X121214Y188623D01*
X121127Y188673D01*
X121043Y188725D01*
X120960Y188781D01*
X120880Y188839D01*
X120802Y188901D01*
X120727Y188966D01*
X120654Y189034D01*
X120584Y189104D01*
X120516Y189177D01*
X120451Y189252D01*
X120389Y189330D01*
X120331Y189410D01*
X120275Y189493D01*
X120223Y189577D01*
X120173Y189664D01*
X120128Y189752D01*
X120085Y189842D01*
X120046Y189934D01*
X120011Y190027D01*
X119979Y190121D01*
X119951Y190216D01*
X119926Y190312D01*
X119905Y190410D01*
X119888Y190508D01*
X119875Y190606D01*
X119866Y190705D01*
X119860Y190805D01*
X119858Y190904D01*
X119857Y190904D02*
X119857Y197396D01*
X119858Y197396D02*
X119860Y197495D01*
X119866Y197595D01*
X119875Y197694D01*
X119888Y197792D01*
X119905Y197890D01*
X119926Y197988D01*
X119951Y198084D01*
X119979Y198179D01*
X120011Y198273D01*
X120046Y198366D01*
X120085Y198458D01*
X120128Y198548D01*
X120173Y198636D01*
X120223Y198723D01*
X120275Y198807D01*
X120331Y198890D01*
X120389Y198970D01*
X120451Y199048D01*
X120516Y199123D01*
X120584Y199196D01*
X120654Y199266D01*
X120727Y199334D01*
X120802Y199399D01*
X120880Y199461D01*
X120960Y199519D01*
X121043Y199575D01*
X121127Y199627D01*
X121214Y199677D01*
X121302Y199722D01*
X121392Y199765D01*
X121484Y199804D01*
X121576Y199839D01*
X121671Y199871D01*
X121766Y199899D01*
X121862Y199924D01*
X121960Y199945D01*
X122058Y199962D01*
X122156Y199975D01*
X122255Y199984D01*
X122355Y199990D01*
X122454Y199992D01*
X125050Y199992D01*
X129415Y197396D02*
X132661Y199992D01*
X132661Y188308D01*
X135906Y188308D02*
X129415Y188308D01*
D11*
X113100Y272150D02*
X110100Y272150D01*
X113100Y272150D02*
X113100Y243150D01*
X110100Y243150D01*
X110100Y272150D01*
X106600Y273000D02*
X95600Y273000D01*
D10*
X101292Y263492D02*
X101292Y251808D01*
X99994Y251808D02*
X102590Y251808D01*
X102590Y263492D02*
X99994Y263492D01*
X109754Y251808D02*
X112350Y251808D01*
X109754Y251808D02*
X109655Y251810D01*
X109555Y251816D01*
X109456Y251825D01*
X109358Y251838D01*
X109260Y251855D01*
X109162Y251876D01*
X109066Y251901D01*
X108971Y251929D01*
X108877Y251961D01*
X108784Y251996D01*
X108692Y252035D01*
X108602Y252078D01*
X108514Y252123D01*
X108427Y252173D01*
X108343Y252225D01*
X108260Y252281D01*
X108180Y252339D01*
X108102Y252401D01*
X108027Y252466D01*
X107954Y252534D01*
X107884Y252604D01*
X107816Y252677D01*
X107751Y252752D01*
X107689Y252830D01*
X107631Y252910D01*
X107575Y252993D01*
X107523Y253077D01*
X107473Y253164D01*
X107428Y253252D01*
X107385Y253342D01*
X107346Y253434D01*
X107311Y253527D01*
X107279Y253621D01*
X107251Y253716D01*
X107226Y253812D01*
X107205Y253910D01*
X107188Y254008D01*
X107175Y254106D01*
X107166Y254205D01*
X107160Y254305D01*
X107158Y254404D01*
X107157Y254404D02*
X107157Y260896D01*
X107158Y260896D02*
X107160Y260995D01*
X107166Y261095D01*
X107175Y261194D01*
X107188Y261292D01*
X107205Y261390D01*
X107226Y261488D01*
X107251Y261584D01*
X107279Y261679D01*
X107311Y261773D01*
X107346Y261866D01*
X107385Y261958D01*
X107428Y262048D01*
X107473Y262136D01*
X107523Y262223D01*
X107575Y262307D01*
X107631Y262390D01*
X107689Y262470D01*
X107751Y262548D01*
X107816Y262623D01*
X107884Y262696D01*
X107954Y262766D01*
X108027Y262834D01*
X108102Y262899D01*
X108180Y262961D01*
X108260Y263019D01*
X108343Y263075D01*
X108427Y263127D01*
X108514Y263177D01*
X108602Y263222D01*
X108692Y263265D01*
X108784Y263304D01*
X108876Y263339D01*
X108971Y263371D01*
X109066Y263399D01*
X109162Y263424D01*
X109260Y263445D01*
X109358Y263462D01*
X109456Y263475D01*
X109555Y263484D01*
X109655Y263490D01*
X109754Y263492D01*
X112350Y263492D01*
X116715Y251808D02*
X119961Y251808D01*
X120074Y251810D01*
X120187Y251816D01*
X120300Y251826D01*
X120413Y251840D01*
X120525Y251857D01*
X120636Y251879D01*
X120746Y251904D01*
X120856Y251934D01*
X120964Y251967D01*
X121071Y252004D01*
X121177Y252044D01*
X121281Y252089D01*
X121384Y252137D01*
X121485Y252188D01*
X121584Y252243D01*
X121681Y252301D01*
X121776Y252363D01*
X121869Y252428D01*
X121959Y252496D01*
X122047Y252567D01*
X122133Y252642D01*
X122216Y252719D01*
X122296Y252799D01*
X122373Y252882D01*
X122448Y252968D01*
X122519Y253056D01*
X122587Y253146D01*
X122652Y253239D01*
X122714Y253334D01*
X122772Y253431D01*
X122827Y253530D01*
X122878Y253631D01*
X122926Y253734D01*
X122971Y253838D01*
X123011Y253944D01*
X123048Y254051D01*
X123081Y254159D01*
X123111Y254269D01*
X123136Y254379D01*
X123158Y254490D01*
X123175Y254602D01*
X123189Y254715D01*
X123199Y254828D01*
X123205Y254941D01*
X123207Y255054D01*
X123205Y255167D01*
X123199Y255280D01*
X123189Y255393D01*
X123175Y255506D01*
X123158Y255618D01*
X123136Y255729D01*
X123111Y255839D01*
X123081Y255949D01*
X123048Y256057D01*
X123011Y256164D01*
X122971Y256270D01*
X122926Y256374D01*
X122878Y256477D01*
X122827Y256578D01*
X122772Y256677D01*
X122714Y256774D01*
X122652Y256869D01*
X122587Y256962D01*
X122519Y257052D01*
X122448Y257140D01*
X122373Y257226D01*
X122296Y257309D01*
X122216Y257389D01*
X122133Y257466D01*
X122047Y257541D01*
X121959Y257612D01*
X121869Y257680D01*
X121776Y257745D01*
X121681Y257807D01*
X121584Y257865D01*
X121485Y257920D01*
X121384Y257971D01*
X121281Y258019D01*
X121177Y258064D01*
X121071Y258104D01*
X120964Y258141D01*
X120856Y258174D01*
X120746Y258204D01*
X120636Y258229D01*
X120525Y258251D01*
X120413Y258268D01*
X120300Y258282D01*
X120187Y258292D01*
X120074Y258298D01*
X119961Y258300D01*
X120610Y263492D02*
X116715Y263492D01*
X120610Y263492D02*
X120711Y263490D01*
X120811Y263484D01*
X120911Y263474D01*
X121011Y263461D01*
X121110Y263443D01*
X121209Y263422D01*
X121306Y263397D01*
X121403Y263368D01*
X121498Y263335D01*
X121592Y263299D01*
X121684Y263259D01*
X121775Y263216D01*
X121864Y263169D01*
X121951Y263119D01*
X122037Y263065D01*
X122120Y263008D01*
X122200Y262948D01*
X122279Y262885D01*
X122355Y262818D01*
X122428Y262749D01*
X122498Y262677D01*
X122566Y262603D01*
X122631Y262526D01*
X122692Y262446D01*
X122751Y262364D01*
X122806Y262280D01*
X122858Y262194D01*
X122907Y262106D01*
X122952Y262016D01*
X122994Y261924D01*
X123032Y261831D01*
X123066Y261736D01*
X123097Y261641D01*
X123124Y261544D01*
X123147Y261446D01*
X123167Y261347D01*
X123182Y261247D01*
X123194Y261147D01*
X123202Y261047D01*
X123206Y260946D01*
X123206Y260846D01*
X123202Y260745D01*
X123194Y260645D01*
X123182Y260545D01*
X123167Y260445D01*
X123147Y260346D01*
X123124Y260248D01*
X123097Y260151D01*
X123066Y260056D01*
X123032Y259961D01*
X122994Y259868D01*
X122952Y259776D01*
X122907Y259686D01*
X122858Y259598D01*
X122806Y259512D01*
X122751Y259428D01*
X122692Y259346D01*
X122631Y259266D01*
X122566Y259189D01*
X122498Y259115D01*
X122428Y259043D01*
X122355Y258974D01*
X122279Y258907D01*
X122200Y258844D01*
X122120Y258784D01*
X122037Y258727D01*
X121951Y258673D01*
X121864Y258623D01*
X121775Y258576D01*
X121684Y258533D01*
X121592Y258493D01*
X121498Y258457D01*
X121403Y258424D01*
X121306Y258395D01*
X121209Y258370D01*
X121110Y258349D01*
X121011Y258331D01*
X120911Y258318D01*
X120811Y258308D01*
X120711Y258302D01*
X120610Y258300D01*
X120610Y258299D02*
X118014Y258299D01*
D12*
X260500Y257600D02*
X260500Y278100D01*
X260500Y219600D02*
X260500Y199100D01*
X300500Y199100D01*
D13*
X249500Y217100D02*
X249502Y217163D01*
X249508Y217225D01*
X249518Y217287D01*
X249531Y217349D01*
X249549Y217409D01*
X249570Y217468D01*
X249595Y217526D01*
X249624Y217582D01*
X249656Y217636D01*
X249691Y217688D01*
X249729Y217737D01*
X249771Y217785D01*
X249815Y217829D01*
X249863Y217871D01*
X249912Y217909D01*
X249964Y217944D01*
X250018Y217976D01*
X250074Y218005D01*
X250132Y218030D01*
X250191Y218051D01*
X250251Y218069D01*
X250313Y218082D01*
X250375Y218092D01*
X250437Y218098D01*
X250500Y218100D01*
X250563Y218098D01*
X250625Y218092D01*
X250687Y218082D01*
X250749Y218069D01*
X250809Y218051D01*
X250868Y218030D01*
X250926Y218005D01*
X250982Y217976D01*
X251036Y217944D01*
X251088Y217909D01*
X251137Y217871D01*
X251185Y217829D01*
X251229Y217785D01*
X251271Y217737D01*
X251309Y217688D01*
X251344Y217636D01*
X251376Y217582D01*
X251405Y217526D01*
X251430Y217468D01*
X251451Y217409D01*
X251469Y217349D01*
X251482Y217287D01*
X251492Y217225D01*
X251498Y217163D01*
X251500Y217100D01*
X251498Y217037D01*
X251492Y216975D01*
X251482Y216913D01*
X251469Y216851D01*
X251451Y216791D01*
X251430Y216732D01*
X251405Y216674D01*
X251376Y216618D01*
X251344Y216564D01*
X251309Y216512D01*
X251271Y216463D01*
X251229Y216415D01*
X251185Y216371D01*
X251137Y216329D01*
X251088Y216291D01*
X251036Y216256D01*
X250982Y216224D01*
X250926Y216195D01*
X250868Y216170D01*
X250809Y216149D01*
X250749Y216131D01*
X250687Y216118D01*
X250625Y216108D01*
X250563Y216102D01*
X250500Y216100D01*
X250437Y216102D01*
X250375Y216108D01*
X250313Y216118D01*
X250251Y216131D01*
X250191Y216149D01*
X250132Y216170D01*
X250074Y216195D01*
X250018Y216224D01*
X249964Y216256D01*
X249912Y216291D01*
X249863Y216329D01*
X249815Y216371D01*
X249771Y216415D01*
X249729Y216463D01*
X249691Y216512D01*
X249656Y216564D01*
X249624Y216618D01*
X249595Y216674D01*
X249570Y216732D01*
X249549Y216791D01*
X249531Y216851D01*
X249518Y216913D01*
X249508Y216975D01*
X249502Y217037D01*
X249500Y217100D01*
D12*
X336500Y216600D02*
X336500Y260600D01*
X300500Y278100D02*
X260500Y278100D01*
D10*
X235413Y204270D02*
X226304Y204270D01*
X235413Y204270D02*
X235513Y204268D01*
X235612Y204262D01*
X235712Y204253D01*
X235810Y204239D01*
X235909Y204222D01*
X236006Y204202D01*
X236103Y204177D01*
X236198Y204149D01*
X236293Y204117D01*
X236386Y204081D01*
X236478Y204042D01*
X236568Y204000D01*
X236657Y203954D01*
X236743Y203904D01*
X236828Y203852D01*
X236911Y203796D01*
X236991Y203737D01*
X237069Y203675D01*
X237145Y203610D01*
X237218Y203543D01*
X237289Y203472D01*
X237356Y203399D01*
X237421Y203323D01*
X237483Y203245D01*
X237542Y203165D01*
X237598Y203082D01*
X237650Y202997D01*
X237700Y202911D01*
X237746Y202822D01*
X237788Y202732D01*
X237827Y202640D01*
X237863Y202547D01*
X237895Y202452D01*
X237923Y202357D01*
X237948Y202260D01*
X237968Y202163D01*
X237985Y202064D01*
X237999Y201966D01*
X238008Y201866D01*
X238014Y201767D01*
X238016Y201667D01*
X238016Y200366D01*
X235413Y209553D02*
X226304Y212156D01*
X235413Y209553D02*
X235413Y216060D01*
X232811Y214108D02*
X238016Y214108D01*
D11*
X214300Y149700D02*
X124300Y149700D01*
X124300Y1700D02*
X214300Y1700D01*
X214300Y21080D01*
X124300Y21270D02*
X124300Y1700D01*
X124300Y118220D02*
X124300Y149700D01*
X214300Y149700D02*
X214300Y116450D01*
X214300Y83860D02*
X214300Y55300D01*
X124300Y54670D02*
X124300Y83230D01*
D14*
X246518Y35820D02*
X246520Y35913D01*
X246526Y36006D01*
X246536Y36099D01*
X246550Y36191D01*
X246568Y36283D01*
X246589Y36373D01*
X246615Y36463D01*
X246644Y36552D01*
X246677Y36639D01*
X246714Y36725D01*
X246755Y36809D01*
X246799Y36891D01*
X246846Y36971D01*
X246897Y37049D01*
X246951Y37125D01*
X247009Y37199D01*
X247069Y37270D01*
X247133Y37338D01*
X247199Y37404D01*
X247268Y37466D01*
X247340Y37526D01*
X247414Y37583D01*
X247490Y37636D01*
X247569Y37686D01*
X247650Y37733D01*
X247732Y37776D01*
X247817Y37815D01*
X247903Y37851D01*
X247990Y37883D01*
X248079Y37912D01*
X248169Y37936D01*
X248260Y37957D01*
X248352Y37974D01*
X248444Y37987D01*
X248537Y37996D01*
X248630Y38001D01*
X248723Y38002D01*
X248817Y37999D01*
X248910Y37992D01*
X249002Y37981D01*
X249094Y37966D01*
X249186Y37947D01*
X249276Y37925D01*
X249365Y37898D01*
X249454Y37868D01*
X249540Y37834D01*
X249626Y37796D01*
X249709Y37755D01*
X249791Y37710D01*
X249871Y37661D01*
X249948Y37610D01*
X250024Y37555D01*
X250097Y37496D01*
X250167Y37435D01*
X250235Y37371D01*
X250300Y37304D01*
X250361Y37234D01*
X250420Y37162D01*
X250476Y37087D01*
X250529Y37010D01*
X250578Y36931D01*
X250624Y36850D01*
X250666Y36767D01*
X250705Y36682D01*
X250740Y36595D01*
X250771Y36508D01*
X250798Y36418D01*
X250822Y36328D01*
X250842Y36237D01*
X250858Y36145D01*
X250870Y36053D01*
X250878Y35960D01*
X250882Y35867D01*
X250882Y35773D01*
X250878Y35680D01*
X250870Y35587D01*
X250858Y35495D01*
X250842Y35403D01*
X250822Y35312D01*
X250798Y35222D01*
X250771Y35132D01*
X250740Y35045D01*
X250705Y34958D01*
X250666Y34873D01*
X250624Y34790D01*
X250578Y34709D01*
X250529Y34630D01*
X250476Y34553D01*
X250420Y34478D01*
X250361Y34406D01*
X250300Y34336D01*
X250235Y34269D01*
X250167Y34205D01*
X250097Y34144D01*
X250024Y34085D01*
X249948Y34030D01*
X249871Y33979D01*
X249791Y33930D01*
X249709Y33885D01*
X249626Y33844D01*
X249540Y33806D01*
X249454Y33772D01*
X249365Y33742D01*
X249276Y33715D01*
X249186Y33693D01*
X249094Y33674D01*
X249002Y33659D01*
X248910Y33648D01*
X248817Y33641D01*
X248723Y33638D01*
X248630Y33639D01*
X248537Y33644D01*
X248444Y33653D01*
X248352Y33666D01*
X248260Y33683D01*
X248169Y33704D01*
X248079Y33728D01*
X247990Y33757D01*
X247903Y33789D01*
X247817Y33825D01*
X247732Y33864D01*
X247650Y33907D01*
X247569Y33954D01*
X247490Y34004D01*
X247414Y34057D01*
X247340Y34114D01*
X247268Y34174D01*
X247199Y34236D01*
X247133Y34302D01*
X247069Y34370D01*
X247009Y34441D01*
X246951Y34515D01*
X246897Y34591D01*
X246846Y34669D01*
X246799Y34749D01*
X246755Y34831D01*
X246714Y34915D01*
X246677Y35001D01*
X246644Y35088D01*
X246615Y35177D01*
X246589Y35267D01*
X246568Y35357D01*
X246550Y35449D01*
X246536Y35541D01*
X246526Y35634D01*
X246520Y35727D01*
X246518Y35820D01*
D10*
X174094Y77854D02*
X165007Y77854D01*
X174094Y77853D02*
X174193Y77851D01*
X174293Y77845D01*
X174392Y77836D01*
X174490Y77823D01*
X174588Y77806D01*
X174686Y77785D01*
X174782Y77760D01*
X174877Y77732D01*
X174971Y77700D01*
X175064Y77665D01*
X175156Y77626D01*
X175246Y77583D01*
X175334Y77538D01*
X175421Y77488D01*
X175505Y77436D01*
X175588Y77380D01*
X175668Y77322D01*
X175746Y77260D01*
X175821Y77195D01*
X175894Y77127D01*
X175964Y77057D01*
X176032Y76984D01*
X176097Y76909D01*
X176159Y76831D01*
X176217Y76751D01*
X176273Y76668D01*
X176325Y76584D01*
X176375Y76497D01*
X176420Y76409D01*
X176463Y76319D01*
X176502Y76227D01*
X176537Y76134D01*
X176569Y76040D01*
X176597Y75945D01*
X176622Y75849D01*
X176643Y75751D01*
X176660Y75653D01*
X176673Y75555D01*
X176682Y75456D01*
X176688Y75356D01*
X176690Y75257D01*
X176691Y75257D02*
X176691Y73959D01*
X170199Y83127D02*
X170199Y87022D01*
X170200Y87022D02*
X170202Y87121D01*
X170208Y87221D01*
X170217Y87320D01*
X170230Y87418D01*
X170247Y87516D01*
X170268Y87614D01*
X170293Y87710D01*
X170321Y87805D01*
X170353Y87899D01*
X170388Y87992D01*
X170427Y88084D01*
X170470Y88174D01*
X170515Y88262D01*
X170565Y88349D01*
X170617Y88433D01*
X170673Y88516D01*
X170731Y88596D01*
X170793Y88674D01*
X170858Y88749D01*
X170926Y88822D01*
X170996Y88892D01*
X171069Y88960D01*
X171144Y89025D01*
X171222Y89087D01*
X171302Y89145D01*
X171385Y89201D01*
X171469Y89253D01*
X171556Y89303D01*
X171644Y89348D01*
X171734Y89391D01*
X171826Y89430D01*
X171919Y89465D01*
X172013Y89497D01*
X172108Y89525D01*
X172204Y89550D01*
X172302Y89571D01*
X172400Y89588D01*
X172498Y89601D01*
X172597Y89610D01*
X172697Y89616D01*
X172796Y89618D01*
X173445Y89618D01*
X173445Y89619D02*
X173558Y89617D01*
X173671Y89611D01*
X173784Y89601D01*
X173897Y89587D01*
X174009Y89570D01*
X174120Y89548D01*
X174230Y89523D01*
X174340Y89493D01*
X174448Y89460D01*
X174555Y89423D01*
X174661Y89383D01*
X174765Y89338D01*
X174868Y89290D01*
X174969Y89239D01*
X175068Y89184D01*
X175165Y89126D01*
X175260Y89064D01*
X175353Y88999D01*
X175443Y88931D01*
X175531Y88860D01*
X175617Y88785D01*
X175700Y88708D01*
X175780Y88628D01*
X175857Y88545D01*
X175932Y88459D01*
X176003Y88371D01*
X176071Y88281D01*
X176136Y88188D01*
X176198Y88093D01*
X176256Y87996D01*
X176311Y87897D01*
X176362Y87796D01*
X176410Y87693D01*
X176455Y87589D01*
X176495Y87483D01*
X176532Y87376D01*
X176565Y87268D01*
X176595Y87158D01*
X176620Y87048D01*
X176642Y86937D01*
X176659Y86825D01*
X176673Y86712D01*
X176683Y86599D01*
X176689Y86486D01*
X176691Y86373D01*
X176689Y86260D01*
X176683Y86147D01*
X176673Y86034D01*
X176659Y85921D01*
X176642Y85809D01*
X176620Y85698D01*
X176595Y85588D01*
X176565Y85478D01*
X176532Y85370D01*
X176495Y85263D01*
X176455Y85157D01*
X176410Y85053D01*
X176362Y84950D01*
X176311Y84849D01*
X176256Y84750D01*
X176198Y84653D01*
X176136Y84558D01*
X176071Y84465D01*
X176003Y84375D01*
X175932Y84287D01*
X175857Y84201D01*
X175780Y84118D01*
X175700Y84038D01*
X175617Y83961D01*
X175531Y83886D01*
X175443Y83815D01*
X175353Y83747D01*
X175260Y83682D01*
X175165Y83620D01*
X175068Y83562D01*
X174969Y83507D01*
X174868Y83456D01*
X174765Y83408D01*
X174661Y83363D01*
X174555Y83323D01*
X174448Y83286D01*
X174340Y83253D01*
X174230Y83223D01*
X174120Y83198D01*
X174009Y83176D01*
X173897Y83159D01*
X173784Y83145D01*
X173671Y83135D01*
X173558Y83129D01*
X173445Y83127D01*
X170199Y83127D01*
X170056Y83129D01*
X169913Y83135D01*
X169770Y83145D01*
X169628Y83159D01*
X169486Y83176D01*
X169344Y83198D01*
X169203Y83223D01*
X169063Y83253D01*
X168924Y83286D01*
X168786Y83323D01*
X168649Y83364D01*
X168513Y83408D01*
X168378Y83457D01*
X168245Y83509D01*
X168113Y83564D01*
X167983Y83624D01*
X167854Y83687D01*
X167727Y83753D01*
X167603Y83823D01*
X167480Y83896D01*
X167359Y83973D01*
X167240Y84052D01*
X167124Y84136D01*
X167009Y84222D01*
X166898Y84311D01*
X166789Y84404D01*
X166682Y84499D01*
X166578Y84598D01*
X166477Y84699D01*
X166378Y84803D01*
X166283Y84909D01*
X166190Y85019D01*
X166101Y85130D01*
X166015Y85244D01*
X165932Y85361D01*
X165852Y85480D01*
X165775Y85601D01*
X165702Y85723D01*
X165632Y85848D01*
X165566Y85975D01*
X165503Y86104D01*
X165443Y86234D01*
X165388Y86366D01*
X165336Y86499D01*
X165287Y86634D01*
X165243Y86770D01*
X165202Y86907D01*
X165165Y87045D01*
X165132Y87184D01*
X165102Y87324D01*
X165077Y87465D01*
X165055Y87607D01*
X165038Y87749D01*
X165024Y87891D01*
X165014Y88034D01*
X165008Y88177D01*
X165006Y88320D01*
D15*
X181450Y308450D02*
X175100Y314800D01*
X175100Y327500D01*
X181450Y333850D01*
X194150Y333850D01*
X200500Y327500D01*
X200500Y314800D01*
X194150Y308450D01*
X175100Y276700D02*
X175100Y264000D01*
X175100Y276700D02*
X181450Y283050D01*
X194150Y283050D01*
X200500Y276700D01*
X181450Y283050D02*
X175100Y289400D01*
X175100Y302100D01*
X181450Y308450D01*
X194150Y308450D01*
X200500Y302100D01*
X200500Y289400D01*
X194150Y283050D01*
X194150Y257650D02*
X181450Y257650D01*
X175100Y264000D01*
X194150Y257650D02*
X200500Y264000D01*
X200500Y276700D01*
X175100Y340200D02*
X175100Y352900D01*
X181450Y359250D01*
X194150Y359250D01*
X200500Y352900D01*
X181450Y333850D02*
X175100Y340200D01*
X194150Y333850D02*
X200500Y340200D01*
X200500Y352900D01*
D12*
X166337Y261333D02*
X157447Y261333D01*
X166337Y261333D02*
X166437Y261331D01*
X166536Y261325D01*
X166636Y261315D01*
X166734Y261302D01*
X166833Y261284D01*
X166930Y261263D01*
X167026Y261238D01*
X167122Y261209D01*
X167216Y261176D01*
X167309Y261140D01*
X167400Y261100D01*
X167490Y261056D01*
X167578Y261009D01*
X167664Y260959D01*
X167748Y260905D01*
X167830Y260848D01*
X167909Y260788D01*
X167987Y260724D01*
X168061Y260658D01*
X168133Y260589D01*
X168202Y260517D01*
X168268Y260443D01*
X168332Y260365D01*
X168392Y260286D01*
X168449Y260204D01*
X168503Y260120D01*
X168553Y260034D01*
X168600Y259946D01*
X168644Y259856D01*
X168684Y259765D01*
X168720Y259672D01*
X168753Y259578D01*
X168782Y259482D01*
X168807Y259386D01*
X168828Y259289D01*
X168846Y259190D01*
X168859Y259092D01*
X168869Y258992D01*
X168875Y258893D01*
X168877Y258793D01*
X168877Y257523D01*
X168877Y267313D02*
X157447Y267313D01*
X157447Y270488D01*
X157449Y270599D01*
X157455Y270709D01*
X157464Y270820D01*
X157478Y270930D01*
X157495Y271039D01*
X157516Y271148D01*
X157541Y271256D01*
X157570Y271363D01*
X157602Y271469D01*
X157638Y271574D01*
X157678Y271677D01*
X157721Y271779D01*
X157768Y271880D01*
X157819Y271979D01*
X157872Y272076D01*
X157929Y272170D01*
X157990Y272263D01*
X158053Y272354D01*
X158120Y272443D01*
X158190Y272529D01*
X158263Y272612D01*
X158338Y272694D01*
X158416Y272772D01*
X158498Y272847D01*
X158581Y272920D01*
X158667Y272990D01*
X158756Y273057D01*
X158847Y273120D01*
X158940Y273181D01*
X159035Y273238D01*
X159131Y273291D01*
X159230Y273342D01*
X159331Y273389D01*
X159433Y273432D01*
X159536Y273472D01*
X159641Y273508D01*
X159747Y273540D01*
X159854Y273569D01*
X159962Y273594D01*
X160071Y273615D01*
X160180Y273632D01*
X160290Y273646D01*
X160401Y273655D01*
X160511Y273661D01*
X160622Y273663D01*
X160733Y273661D01*
X160843Y273655D01*
X160954Y273646D01*
X161064Y273632D01*
X161173Y273615D01*
X161282Y273594D01*
X161390Y273569D01*
X161497Y273540D01*
X161603Y273508D01*
X161708Y273472D01*
X161811Y273432D01*
X161913Y273389D01*
X162014Y273342D01*
X162113Y273291D01*
X162210Y273238D01*
X162304Y273181D01*
X162397Y273120D01*
X162488Y273057D01*
X162577Y272990D01*
X162663Y272920D01*
X162746Y272847D01*
X162828Y272772D01*
X162906Y272694D01*
X162981Y272612D01*
X163054Y272529D01*
X163124Y272443D01*
X163191Y272354D01*
X163254Y272263D01*
X163315Y272170D01*
X163372Y272076D01*
X163425Y271979D01*
X163476Y271880D01*
X163523Y271779D01*
X163566Y271677D01*
X163606Y271574D01*
X163642Y271469D01*
X163674Y271363D01*
X163703Y271256D01*
X163728Y271148D01*
X163749Y271039D01*
X163766Y270930D01*
X163780Y270820D01*
X163789Y270709D01*
X163795Y270599D01*
X163797Y270488D01*
X163797Y267313D01*
X159987Y278172D02*
X157447Y281347D01*
X168877Y281347D01*
X168877Y278172D02*
X168877Y284522D01*
D10*
X148850Y227250D02*
X148726Y227117D01*
X148598Y226987D01*
X148468Y226860D01*
X148334Y226736D01*
X148198Y226615D01*
X148058Y226498D01*
X147916Y226385D01*
X147771Y226275D01*
X147623Y226168D01*
X147473Y226065D01*
X147320Y225966D01*
X147165Y225871D01*
X147008Y225779D01*
X146848Y225692D01*
X146686Y225608D01*
X146523Y225528D01*
X146357Y225452D01*
X146190Y225381D01*
X146020Y225313D01*
X145850Y225250D01*
X145678Y225191D01*
X145504Y225136D01*
X145329Y225085D01*
X145153Y225039D01*
X144976Y224997D01*
X144798Y224959D01*
X144618Y224926D01*
X144439Y224897D01*
X144258Y224873D01*
X144077Y224853D01*
X143896Y224837D01*
X143714Y224826D01*
X143532Y224819D01*
X143350Y224817D01*
X143168Y224819D01*
X142986Y224826D01*
X142804Y224837D01*
X142623Y224853D01*
X142442Y224873D01*
X142261Y224897D01*
X142082Y224926D01*
X141902Y224959D01*
X141724Y224997D01*
X141547Y225039D01*
X141371Y225085D01*
X141196Y225136D01*
X141022Y225191D01*
X140850Y225250D01*
X140680Y225313D01*
X140510Y225381D01*
X140343Y225452D01*
X140177Y225528D01*
X140014Y225608D01*
X139852Y225692D01*
X139692Y225779D01*
X139535Y225871D01*
X139380Y225966D01*
X139227Y226065D01*
X139077Y226168D01*
X138929Y226275D01*
X138784Y226385D01*
X138642Y226498D01*
X138502Y226615D01*
X138366Y226736D01*
X138232Y226860D01*
X138102Y226987D01*
X137974Y227117D01*
X137850Y227250D01*
X137850Y237250D02*
X137974Y237383D01*
X138102Y237513D01*
X138232Y237640D01*
X138366Y237764D01*
X138502Y237885D01*
X138642Y238002D01*
X138784Y238115D01*
X138929Y238225D01*
X139077Y238332D01*
X139227Y238435D01*
X139380Y238534D01*
X139535Y238629D01*
X139692Y238721D01*
X139852Y238808D01*
X140014Y238892D01*
X140177Y238972D01*
X140343Y239048D01*
X140510Y239119D01*
X140680Y239187D01*
X140850Y239250D01*
X141022Y239309D01*
X141196Y239364D01*
X141371Y239415D01*
X141547Y239461D01*
X141724Y239503D01*
X141902Y239541D01*
X142082Y239574D01*
X142261Y239603D01*
X142442Y239627D01*
X142623Y239647D01*
X142804Y239663D01*
X142986Y239674D01*
X143168Y239681D01*
X143350Y239683D01*
X143532Y239681D01*
X143714Y239674D01*
X143896Y239663D01*
X144077Y239647D01*
X144258Y239627D01*
X144439Y239603D01*
X144618Y239574D01*
X144798Y239541D01*
X144976Y239503D01*
X145153Y239461D01*
X145329Y239415D01*
X145504Y239364D01*
X145678Y239309D01*
X145850Y239250D01*
X146020Y239187D01*
X146190Y239119D01*
X146357Y239048D01*
X146523Y238972D01*
X146686Y238892D01*
X146848Y238808D01*
X147008Y238721D01*
X147165Y238629D01*
X147320Y238534D01*
X147473Y238435D01*
X147623Y238332D01*
X147771Y238225D01*
X147916Y238115D01*
X148058Y238002D01*
X148198Y237885D01*
X148334Y237764D01*
X148468Y237640D01*
X148598Y237513D01*
X148726Y237383D01*
X148850Y237250D01*
D16*
X143350Y232250D03*
D17*
X148600Y226500D03*
D10*
X131158Y245458D02*
X131158Y257142D01*
X131158Y245458D02*
X136351Y245458D01*
X141064Y245458D02*
X146257Y245458D01*
X141064Y245458D02*
X141064Y257142D01*
X146257Y257142D01*
X144959Y251949D02*
X141064Y251949D01*
X150947Y257142D02*
X150947Y245458D01*
X150947Y257142D02*
X154193Y257142D01*
X154306Y257140D01*
X154419Y257134D01*
X154532Y257124D01*
X154645Y257110D01*
X154757Y257093D01*
X154868Y257071D01*
X154978Y257046D01*
X155088Y257016D01*
X155196Y256983D01*
X155303Y256946D01*
X155409Y256906D01*
X155513Y256861D01*
X155616Y256813D01*
X155717Y256762D01*
X155816Y256707D01*
X155913Y256649D01*
X156008Y256587D01*
X156101Y256522D01*
X156191Y256454D01*
X156279Y256383D01*
X156365Y256308D01*
X156448Y256231D01*
X156528Y256151D01*
X156605Y256068D01*
X156680Y255982D01*
X156751Y255894D01*
X156819Y255804D01*
X156884Y255711D01*
X156946Y255616D01*
X157004Y255519D01*
X157059Y255420D01*
X157110Y255319D01*
X157158Y255216D01*
X157203Y255112D01*
X157243Y255006D01*
X157280Y254899D01*
X157313Y254791D01*
X157343Y254681D01*
X157368Y254571D01*
X157390Y254460D01*
X157407Y254348D01*
X157421Y254235D01*
X157431Y254122D01*
X157437Y254009D01*
X157439Y253896D01*
X157439Y248704D01*
X157437Y248591D01*
X157431Y248478D01*
X157421Y248365D01*
X157407Y248252D01*
X157390Y248140D01*
X157368Y248029D01*
X157343Y247919D01*
X157313Y247809D01*
X157280Y247701D01*
X157243Y247594D01*
X157203Y247488D01*
X157158Y247384D01*
X157110Y247281D01*
X157059Y247180D01*
X157004Y247081D01*
X156946Y246984D01*
X156884Y246889D01*
X156819Y246796D01*
X156751Y246706D01*
X156680Y246618D01*
X156605Y246532D01*
X156528Y246449D01*
X156448Y246369D01*
X156365Y246292D01*
X156279Y246217D01*
X156191Y246146D01*
X156101Y246078D01*
X156008Y246013D01*
X155913Y245951D01*
X155816Y245893D01*
X155717Y245838D01*
X155616Y245787D01*
X155513Y245739D01*
X155409Y245694D01*
X155303Y245654D01*
X155196Y245617D01*
X155088Y245584D01*
X154978Y245554D01*
X154868Y245529D01*
X154757Y245507D01*
X154645Y245490D01*
X154532Y245476D01*
X154419Y245466D01*
X154306Y245460D01*
X154193Y245458D01*
X150947Y245458D01*
X166328Y257142D02*
X166435Y257140D01*
X166541Y257134D01*
X166647Y257124D01*
X166753Y257111D01*
X166859Y257093D01*
X166963Y257072D01*
X167067Y257047D01*
X167170Y257018D01*
X167271Y256986D01*
X167371Y256949D01*
X167470Y256909D01*
X167568Y256866D01*
X167664Y256819D01*
X167758Y256768D01*
X167850Y256714D01*
X167940Y256657D01*
X168028Y256597D01*
X168113Y256533D01*
X168196Y256466D01*
X168277Y256396D01*
X168355Y256324D01*
X168431Y256248D01*
X168503Y256170D01*
X168573Y256089D01*
X168640Y256006D01*
X168704Y255921D01*
X168764Y255833D01*
X168821Y255743D01*
X168875Y255651D01*
X168926Y255557D01*
X168973Y255461D01*
X169016Y255363D01*
X169056Y255264D01*
X169093Y255164D01*
X169125Y255063D01*
X169154Y254960D01*
X169179Y254856D01*
X169200Y254752D01*
X169218Y254646D01*
X169231Y254540D01*
X169241Y254434D01*
X169247Y254328D01*
X169249Y254221D01*
X166328Y257142D02*
X166207Y257140D01*
X166086Y257134D01*
X165966Y257124D01*
X165845Y257111D01*
X165726Y257093D01*
X165606Y257072D01*
X165488Y257047D01*
X165371Y257018D01*
X165254Y256985D01*
X165139Y256949D01*
X165025Y256908D01*
X164912Y256865D01*
X164800Y256817D01*
X164691Y256766D01*
X164583Y256711D01*
X164476Y256653D01*
X164372Y256592D01*
X164270Y256527D01*
X164170Y256459D01*
X164072Y256388D01*
X163976Y256314D01*
X163883Y256237D01*
X163793Y256156D01*
X163705Y256073D01*
X163620Y255987D01*
X163537Y255898D01*
X163458Y255807D01*
X163381Y255713D01*
X163308Y255617D01*
X163238Y255519D01*
X163171Y255418D01*
X163107Y255315D01*
X163047Y255210D01*
X162990Y255103D01*
X162936Y254995D01*
X162886Y254885D01*
X162840Y254773D01*
X162797Y254660D01*
X162758Y254545D01*
X168276Y251949D02*
X168355Y252026D01*
X168431Y252107D01*
X168504Y252190D01*
X168574Y252275D01*
X168641Y252363D01*
X168705Y252453D01*
X168765Y252545D01*
X168822Y252640D01*
X168876Y252736D01*
X168927Y252834D01*
X168974Y252934D01*
X169018Y253036D01*
X169058Y253139D01*
X169094Y253243D01*
X169126Y253349D01*
X169155Y253455D01*
X169180Y253563D01*
X169202Y253671D01*
X169219Y253781D01*
X169233Y253890D01*
X169242Y254000D01*
X169248Y254111D01*
X169250Y254221D01*
X168276Y251949D02*
X162758Y245458D01*
X169249Y245458D01*
X31015Y180942D02*
X31015Y169258D01*
X31015Y180942D02*
X34260Y180942D01*
X34373Y180940D01*
X34486Y180934D01*
X34599Y180924D01*
X34712Y180910D01*
X34824Y180893D01*
X34935Y180871D01*
X35045Y180846D01*
X35155Y180816D01*
X35263Y180783D01*
X35370Y180746D01*
X35476Y180706D01*
X35580Y180661D01*
X35683Y180613D01*
X35784Y180562D01*
X35883Y180507D01*
X35980Y180449D01*
X36075Y180387D01*
X36168Y180322D01*
X36258Y180254D01*
X36346Y180183D01*
X36432Y180108D01*
X36515Y180031D01*
X36595Y179951D01*
X36672Y179868D01*
X36747Y179782D01*
X36818Y179694D01*
X36886Y179604D01*
X36951Y179511D01*
X37013Y179416D01*
X37071Y179319D01*
X37126Y179220D01*
X37177Y179119D01*
X37225Y179016D01*
X37270Y178912D01*
X37310Y178806D01*
X37347Y178699D01*
X37380Y178591D01*
X37410Y178481D01*
X37435Y178371D01*
X37457Y178260D01*
X37474Y178148D01*
X37488Y178035D01*
X37498Y177922D01*
X37504Y177809D01*
X37506Y177696D01*
X37504Y177583D01*
X37498Y177470D01*
X37488Y177357D01*
X37474Y177244D01*
X37457Y177132D01*
X37435Y177021D01*
X37410Y176911D01*
X37380Y176801D01*
X37347Y176693D01*
X37310Y176586D01*
X37270Y176480D01*
X37225Y176376D01*
X37177Y176273D01*
X37126Y176172D01*
X37071Y176073D01*
X37013Y175976D01*
X36951Y175881D01*
X36886Y175788D01*
X36818Y175698D01*
X36747Y175610D01*
X36672Y175524D01*
X36595Y175441D01*
X36515Y175361D01*
X36432Y175284D01*
X36346Y175209D01*
X36258Y175138D01*
X36168Y175070D01*
X36075Y175005D01*
X35980Y174943D01*
X35883Y174885D01*
X35784Y174830D01*
X35683Y174779D01*
X35580Y174731D01*
X35476Y174686D01*
X35370Y174646D01*
X35263Y174609D01*
X35155Y174576D01*
X35045Y174546D01*
X34935Y174521D01*
X34824Y174499D01*
X34712Y174482D01*
X34599Y174468D01*
X34486Y174458D01*
X34373Y174452D01*
X34260Y174450D01*
X34260Y174451D02*
X31015Y174451D01*
X34909Y174451D02*
X37506Y169258D01*
X42371Y178346D02*
X45616Y180942D01*
X45616Y169258D01*
X42371Y169258D02*
X48862Y169258D01*
X60292Y178021D02*
X60290Y178128D01*
X60284Y178234D01*
X60274Y178340D01*
X60261Y178446D01*
X60243Y178552D01*
X60222Y178656D01*
X60197Y178760D01*
X60168Y178863D01*
X60136Y178964D01*
X60099Y179064D01*
X60059Y179163D01*
X60016Y179261D01*
X59969Y179357D01*
X59918Y179451D01*
X59864Y179543D01*
X59807Y179633D01*
X59747Y179721D01*
X59683Y179806D01*
X59616Y179889D01*
X59546Y179970D01*
X59474Y180048D01*
X59398Y180124D01*
X59320Y180196D01*
X59239Y180266D01*
X59156Y180333D01*
X59071Y180397D01*
X58983Y180457D01*
X58893Y180514D01*
X58801Y180568D01*
X58707Y180619D01*
X58611Y180666D01*
X58513Y180709D01*
X58414Y180749D01*
X58314Y180786D01*
X58213Y180818D01*
X58110Y180847D01*
X58006Y180872D01*
X57902Y180893D01*
X57796Y180911D01*
X57690Y180924D01*
X57584Y180934D01*
X57478Y180940D01*
X57371Y180942D01*
X57250Y180940D01*
X57129Y180934D01*
X57009Y180924D01*
X56888Y180911D01*
X56769Y180893D01*
X56649Y180872D01*
X56531Y180847D01*
X56414Y180818D01*
X56297Y180785D01*
X56182Y180749D01*
X56068Y180708D01*
X55955Y180665D01*
X55843Y180617D01*
X55734Y180566D01*
X55626Y180511D01*
X55519Y180453D01*
X55415Y180392D01*
X55313Y180327D01*
X55213Y180259D01*
X55115Y180188D01*
X55019Y180114D01*
X54926Y180037D01*
X54836Y179956D01*
X54748Y179873D01*
X54663Y179787D01*
X54580Y179698D01*
X54501Y179607D01*
X54424Y179513D01*
X54351Y179417D01*
X54281Y179319D01*
X54214Y179218D01*
X54150Y179115D01*
X54090Y179010D01*
X54033Y178903D01*
X53979Y178795D01*
X53929Y178685D01*
X53883Y178573D01*
X53840Y178460D01*
X53801Y178345D01*
X59319Y175749D02*
X59398Y175826D01*
X59474Y175907D01*
X59547Y175990D01*
X59617Y176075D01*
X59684Y176163D01*
X59748Y176253D01*
X59808Y176345D01*
X59865Y176440D01*
X59919Y176536D01*
X59970Y176634D01*
X60017Y176734D01*
X60061Y176836D01*
X60101Y176939D01*
X60137Y177043D01*
X60169Y177149D01*
X60198Y177255D01*
X60223Y177363D01*
X60245Y177471D01*
X60262Y177581D01*
X60276Y177690D01*
X60285Y177800D01*
X60291Y177911D01*
X60293Y178021D01*
X59318Y175749D02*
X53801Y169258D01*
X60292Y169258D01*
X183415Y194658D02*
X183415Y206342D01*
X186660Y206342D01*
X186773Y206340D01*
X186886Y206334D01*
X186999Y206324D01*
X187112Y206310D01*
X187224Y206293D01*
X187335Y206271D01*
X187445Y206246D01*
X187555Y206216D01*
X187663Y206183D01*
X187770Y206146D01*
X187876Y206106D01*
X187980Y206061D01*
X188083Y206013D01*
X188184Y205962D01*
X188283Y205907D01*
X188380Y205849D01*
X188475Y205787D01*
X188568Y205722D01*
X188658Y205654D01*
X188746Y205583D01*
X188832Y205508D01*
X188915Y205431D01*
X188995Y205351D01*
X189072Y205268D01*
X189147Y205182D01*
X189218Y205094D01*
X189286Y205004D01*
X189351Y204911D01*
X189413Y204816D01*
X189471Y204719D01*
X189526Y204620D01*
X189577Y204519D01*
X189625Y204416D01*
X189670Y204312D01*
X189710Y204206D01*
X189747Y204099D01*
X189780Y203991D01*
X189810Y203881D01*
X189835Y203771D01*
X189857Y203660D01*
X189874Y203548D01*
X189888Y203435D01*
X189898Y203322D01*
X189904Y203209D01*
X189906Y203096D01*
X189904Y202983D01*
X189898Y202870D01*
X189888Y202757D01*
X189874Y202644D01*
X189857Y202532D01*
X189835Y202421D01*
X189810Y202311D01*
X189780Y202201D01*
X189747Y202093D01*
X189710Y201986D01*
X189670Y201880D01*
X189625Y201776D01*
X189577Y201673D01*
X189526Y201572D01*
X189471Y201473D01*
X189413Y201376D01*
X189351Y201281D01*
X189286Y201188D01*
X189218Y201098D01*
X189147Y201010D01*
X189072Y200924D01*
X188995Y200841D01*
X188915Y200761D01*
X188832Y200684D01*
X188746Y200609D01*
X188658Y200538D01*
X188568Y200470D01*
X188475Y200405D01*
X188380Y200343D01*
X188283Y200285D01*
X188184Y200230D01*
X188083Y200179D01*
X187980Y200131D01*
X187876Y200086D01*
X187770Y200046D01*
X187663Y200009D01*
X187555Y199976D01*
X187445Y199946D01*
X187335Y199921D01*
X187224Y199899D01*
X187112Y199882D01*
X186999Y199868D01*
X186886Y199858D01*
X186773Y199852D01*
X186660Y199850D01*
X186660Y199851D02*
X183415Y199851D01*
X187309Y199851D02*
X189906Y194658D01*
X194771Y203746D02*
X198016Y206342D01*
X198016Y194658D01*
X194771Y194658D02*
X201262Y194658D01*
X206201Y194658D02*
X209446Y194658D01*
X209559Y194660D01*
X209672Y194666D01*
X209785Y194676D01*
X209898Y194690D01*
X210010Y194707D01*
X210121Y194729D01*
X210231Y194754D01*
X210341Y194784D01*
X210449Y194817D01*
X210556Y194854D01*
X210662Y194894D01*
X210766Y194939D01*
X210869Y194987D01*
X210970Y195038D01*
X211069Y195093D01*
X211166Y195151D01*
X211261Y195213D01*
X211354Y195278D01*
X211444Y195346D01*
X211532Y195417D01*
X211618Y195492D01*
X211701Y195569D01*
X211781Y195649D01*
X211858Y195732D01*
X211933Y195818D01*
X212004Y195906D01*
X212072Y195996D01*
X212137Y196089D01*
X212199Y196184D01*
X212257Y196281D01*
X212312Y196380D01*
X212363Y196481D01*
X212411Y196584D01*
X212456Y196688D01*
X212496Y196794D01*
X212533Y196901D01*
X212566Y197009D01*
X212596Y197119D01*
X212621Y197229D01*
X212643Y197340D01*
X212660Y197452D01*
X212674Y197565D01*
X212684Y197678D01*
X212690Y197791D01*
X212692Y197904D01*
X212690Y198017D01*
X212684Y198130D01*
X212674Y198243D01*
X212660Y198356D01*
X212643Y198468D01*
X212621Y198579D01*
X212596Y198689D01*
X212566Y198799D01*
X212533Y198907D01*
X212496Y199014D01*
X212456Y199120D01*
X212411Y199224D01*
X212363Y199327D01*
X212312Y199428D01*
X212257Y199527D01*
X212199Y199624D01*
X212137Y199719D01*
X212072Y199812D01*
X212004Y199902D01*
X211933Y199990D01*
X211858Y200076D01*
X211781Y200159D01*
X211701Y200239D01*
X211618Y200316D01*
X211532Y200391D01*
X211444Y200462D01*
X211354Y200530D01*
X211261Y200595D01*
X211166Y200657D01*
X211069Y200715D01*
X210970Y200770D01*
X210869Y200821D01*
X210766Y200869D01*
X210662Y200914D01*
X210556Y200954D01*
X210449Y200991D01*
X210341Y201024D01*
X210231Y201054D01*
X210121Y201079D01*
X210010Y201101D01*
X209898Y201118D01*
X209785Y201132D01*
X209672Y201142D01*
X209559Y201148D01*
X209446Y201150D01*
X210096Y206342D02*
X206201Y206342D01*
X210096Y206342D02*
X210197Y206340D01*
X210297Y206334D01*
X210397Y206324D01*
X210497Y206311D01*
X210596Y206293D01*
X210695Y206272D01*
X210792Y206247D01*
X210889Y206218D01*
X210984Y206185D01*
X211078Y206149D01*
X211170Y206109D01*
X211261Y206066D01*
X211350Y206019D01*
X211437Y205969D01*
X211523Y205915D01*
X211606Y205858D01*
X211686Y205798D01*
X211765Y205735D01*
X211841Y205668D01*
X211914Y205599D01*
X211984Y205527D01*
X212052Y205453D01*
X212117Y205376D01*
X212178Y205296D01*
X212237Y205214D01*
X212292Y205130D01*
X212344Y205044D01*
X212393Y204956D01*
X212438Y204866D01*
X212480Y204774D01*
X212518Y204681D01*
X212552Y204586D01*
X212583Y204491D01*
X212610Y204394D01*
X212633Y204296D01*
X212653Y204197D01*
X212668Y204097D01*
X212680Y203997D01*
X212688Y203897D01*
X212692Y203796D01*
X212692Y203696D01*
X212688Y203595D01*
X212680Y203495D01*
X212668Y203395D01*
X212653Y203295D01*
X212633Y203196D01*
X212610Y203098D01*
X212583Y203001D01*
X212552Y202906D01*
X212518Y202811D01*
X212480Y202718D01*
X212438Y202626D01*
X212393Y202536D01*
X212344Y202448D01*
X212292Y202362D01*
X212237Y202278D01*
X212178Y202196D01*
X212117Y202116D01*
X212052Y202039D01*
X211984Y201965D01*
X211914Y201893D01*
X211841Y201824D01*
X211765Y201757D01*
X211686Y201694D01*
X211606Y201634D01*
X211523Y201577D01*
X211437Y201523D01*
X211350Y201473D01*
X211261Y201426D01*
X211170Y201383D01*
X211078Y201343D01*
X210984Y201307D01*
X210889Y201274D01*
X210792Y201245D01*
X210695Y201220D01*
X210596Y201199D01*
X210497Y201181D01*
X210397Y201168D01*
X210297Y201158D01*
X210197Y201152D01*
X210096Y201150D01*
X210096Y201149D02*
X207499Y201149D01*
X31015Y142842D02*
X31015Y131158D01*
X31015Y142842D02*
X34260Y142842D01*
X34373Y142840D01*
X34486Y142834D01*
X34599Y142824D01*
X34712Y142810D01*
X34824Y142793D01*
X34935Y142771D01*
X35045Y142746D01*
X35155Y142716D01*
X35263Y142683D01*
X35370Y142646D01*
X35476Y142606D01*
X35580Y142561D01*
X35683Y142513D01*
X35784Y142462D01*
X35883Y142407D01*
X35980Y142349D01*
X36075Y142287D01*
X36168Y142222D01*
X36258Y142154D01*
X36346Y142083D01*
X36432Y142008D01*
X36515Y141931D01*
X36595Y141851D01*
X36672Y141768D01*
X36747Y141682D01*
X36818Y141594D01*
X36886Y141504D01*
X36951Y141411D01*
X37013Y141316D01*
X37071Y141219D01*
X37126Y141120D01*
X37177Y141019D01*
X37225Y140916D01*
X37270Y140812D01*
X37310Y140706D01*
X37347Y140599D01*
X37380Y140491D01*
X37410Y140381D01*
X37435Y140271D01*
X37457Y140160D01*
X37474Y140048D01*
X37488Y139935D01*
X37498Y139822D01*
X37504Y139709D01*
X37506Y139596D01*
X37504Y139483D01*
X37498Y139370D01*
X37488Y139257D01*
X37474Y139144D01*
X37457Y139032D01*
X37435Y138921D01*
X37410Y138811D01*
X37380Y138701D01*
X37347Y138593D01*
X37310Y138486D01*
X37270Y138380D01*
X37225Y138276D01*
X37177Y138173D01*
X37126Y138072D01*
X37071Y137973D01*
X37013Y137876D01*
X36951Y137781D01*
X36886Y137688D01*
X36818Y137598D01*
X36747Y137510D01*
X36672Y137424D01*
X36595Y137341D01*
X36515Y137261D01*
X36432Y137184D01*
X36346Y137109D01*
X36258Y137038D01*
X36168Y136970D01*
X36075Y136905D01*
X35980Y136843D01*
X35883Y136785D01*
X35784Y136730D01*
X35683Y136679D01*
X35580Y136631D01*
X35476Y136586D01*
X35370Y136546D01*
X35263Y136509D01*
X35155Y136476D01*
X35045Y136446D01*
X34935Y136421D01*
X34824Y136399D01*
X34712Y136382D01*
X34599Y136368D01*
X34486Y136358D01*
X34373Y136352D01*
X34260Y136350D01*
X34260Y136351D02*
X31015Y136351D01*
X34909Y136351D02*
X37506Y131158D01*
X42371Y140246D02*
X45616Y142842D01*
X45616Y131158D01*
X42371Y131158D02*
X48862Y131158D01*
X53801Y133754D02*
X56397Y142842D01*
X53801Y133754D02*
X60292Y133754D01*
X58345Y136351D02*
X58345Y131158D01*
M02*
