G04 EAGLE Gerber RS-274X export*
G75*
%MOMM*%
%FSLAX34Y34*%
%LPD*%
%INSoldermask Top*%
%IPPOS*%
%AMOC8*
5,1,8,0,0,1.08239X$1,22.5*%
G01*
%ADD10C,2.700000*%
%ADD11C,0.414000*%
%ADD12C,0.390000*%
%ADD13C,0.399500*%
%ADD14C,0.400000*%
%ADD15C,0.396000*%
%ADD16C,0.391000*%
%ADD17C,2.900000*%
%ADD18C,2.600000*%
%ADD19C,1.724000*%


D10*
X30000Y370000D03*
X330000Y370000D03*
X330000Y30000D03*
X30000Y30000D03*
D11*
X27170Y224320D02*
X41030Y224320D01*
X27170Y224320D02*
X27170Y240180D01*
X41030Y240180D01*
X41030Y224320D01*
X41030Y228253D02*
X27170Y228253D01*
X27170Y232186D02*
X41030Y232186D01*
X41030Y236119D02*
X27170Y236119D01*
X27170Y240052D02*
X41030Y240052D01*
X55170Y224320D02*
X69030Y224320D01*
X55170Y224320D02*
X55170Y240180D01*
X69030Y240180D01*
X69030Y224320D01*
X69030Y228253D02*
X55170Y228253D01*
X55170Y232186D02*
X69030Y232186D01*
X69030Y236119D02*
X55170Y236119D01*
X55170Y240052D02*
X69030Y240052D01*
X69030Y278280D02*
X55170Y278280D01*
X69030Y278280D02*
X69030Y262420D01*
X55170Y262420D01*
X55170Y278280D01*
X55170Y266353D02*
X69030Y266353D01*
X69030Y270286D02*
X55170Y270286D01*
X55170Y274219D02*
X69030Y274219D01*
X69030Y278152D02*
X55170Y278152D01*
X41030Y278280D02*
X27170Y278280D01*
X41030Y278280D02*
X41030Y262420D01*
X27170Y262420D01*
X27170Y278280D01*
X27170Y266353D02*
X41030Y266353D01*
X41030Y270286D02*
X27170Y270286D01*
X27170Y274219D02*
X41030Y274219D01*
X41030Y278152D02*
X27170Y278152D01*
D12*
X52050Y315000D02*
X63150Y315000D01*
X63150Y301900D01*
X52050Y301900D01*
X52050Y315000D01*
X52050Y305605D02*
X63150Y305605D01*
X63150Y309310D02*
X52050Y309310D01*
X52050Y313015D02*
X63150Y313015D01*
X44150Y315000D02*
X33050Y315000D01*
X44150Y315000D02*
X44150Y301900D01*
X33050Y301900D01*
X33050Y315000D01*
X33050Y305605D02*
X44150Y305605D01*
X44150Y309310D02*
X33050Y309310D01*
X33050Y313015D02*
X44150Y313015D01*
D13*
X85947Y324097D02*
X105953Y324097D01*
X85947Y324097D02*
X85947Y343603D01*
X105953Y343603D01*
X105953Y324097D01*
X105953Y327892D02*
X85947Y327892D01*
X85947Y331687D02*
X105953Y331687D01*
X105953Y335482D02*
X85947Y335482D01*
X85947Y339277D02*
X105953Y339277D01*
X105953Y343072D02*
X85947Y343072D01*
X129947Y324097D02*
X149953Y324097D01*
X129947Y324097D02*
X129947Y343603D01*
X149953Y343603D01*
X149953Y324097D01*
X149953Y327892D02*
X129947Y327892D01*
X129947Y331687D02*
X149953Y331687D01*
X149953Y335482D02*
X129947Y335482D01*
X129947Y339277D02*
X149953Y339277D01*
X149953Y343072D02*
X129947Y343072D01*
D14*
X130800Y186650D02*
X142800Y186650D01*
X142800Y182650D01*
X130800Y182650D01*
X130800Y186650D01*
X130800Y186450D02*
X142800Y186450D01*
X142800Y196150D02*
X130800Y196150D01*
X142800Y196150D02*
X142800Y192150D01*
X130800Y192150D01*
X130800Y196150D01*
X130800Y195950D02*
X142800Y195950D01*
X142800Y205650D02*
X130800Y205650D01*
X142800Y205650D02*
X142800Y201650D01*
X130800Y201650D01*
X130800Y205650D01*
X130800Y205450D02*
X142800Y205450D01*
X117800Y205650D02*
X105800Y205650D01*
X117800Y205650D02*
X117800Y201650D01*
X105800Y201650D01*
X105800Y205650D01*
X105800Y205450D02*
X117800Y205450D01*
X117800Y186650D02*
X105800Y186650D01*
X117800Y186650D02*
X117800Y182650D01*
X105800Y182650D01*
X105800Y186650D01*
X105800Y186450D02*
X117800Y186450D01*
D13*
X105603Y264997D02*
X96597Y264997D01*
X96597Y269503D01*
X105603Y269503D01*
X105603Y264997D01*
X105603Y268792D02*
X96597Y268792D01*
X96597Y245797D02*
X105603Y245797D01*
X96597Y245797D02*
X96597Y250303D01*
X105603Y250303D01*
X105603Y245797D01*
X105603Y249592D02*
X96597Y249592D01*
X117597Y255397D02*
X126603Y255397D01*
X117597Y255397D02*
X117597Y259903D01*
X126603Y259903D01*
X126603Y255397D01*
X126603Y259192D02*
X117597Y259192D01*
D15*
X247480Y252620D02*
X247480Y244580D01*
X247480Y252620D02*
X280520Y252620D01*
X280520Y244580D01*
X247480Y244580D01*
X247480Y248342D02*
X280520Y248342D01*
X280520Y252104D02*
X247480Y252104D01*
X247480Y232620D02*
X247480Y224580D01*
X247480Y232620D02*
X280520Y232620D01*
X280520Y224580D01*
X247480Y224580D01*
X247480Y228342D02*
X280520Y228342D01*
X280520Y232104D02*
X247480Y232104D01*
D16*
X305455Y265555D02*
X305455Y278645D01*
X337545Y278645D01*
X337545Y265555D01*
X305455Y265555D01*
X305455Y269269D02*
X337545Y269269D01*
X337545Y272983D02*
X305455Y272983D01*
X305455Y276697D02*
X337545Y276697D01*
X305455Y211645D02*
X305455Y198555D01*
X305455Y211645D02*
X337545Y211645D01*
X337545Y198555D01*
X305455Y198555D01*
X305455Y202269D02*
X337545Y202269D01*
X337545Y205983D02*
X305455Y205983D01*
X305455Y209697D02*
X337545Y209697D01*
D12*
X215250Y51750D02*
X215250Y25650D01*
X215250Y51750D02*
X237350Y51750D01*
X237350Y25650D01*
X215250Y25650D01*
X215250Y29355D02*
X237350Y29355D01*
X237350Y33060D02*
X215250Y33060D01*
X215250Y36765D02*
X237350Y36765D01*
X237350Y40470D02*
X215250Y40470D01*
X215250Y44175D02*
X237350Y44175D01*
X237350Y47880D02*
X215250Y47880D01*
X215250Y51585D02*
X237350Y51585D01*
X215250Y86650D02*
X215250Y112750D01*
X237350Y112750D01*
X237350Y86650D01*
X215250Y86650D01*
X215250Y90355D02*
X237350Y90355D01*
X237350Y94060D02*
X215250Y94060D01*
X215250Y97765D02*
X237350Y97765D01*
X237350Y101470D02*
X215250Y101470D01*
X215250Y105175D02*
X237350Y105175D01*
X237350Y108880D02*
X215250Y108880D01*
X215250Y112585D02*
X237350Y112585D01*
X101250Y112750D02*
X101250Y86650D01*
X101250Y112750D02*
X123350Y112750D01*
X123350Y86650D01*
X101250Y86650D01*
X101250Y90355D02*
X123350Y90355D01*
X123350Y94060D02*
X101250Y94060D01*
X101250Y97765D02*
X123350Y97765D01*
X123350Y101470D02*
X101250Y101470D01*
X101250Y105175D02*
X123350Y105175D01*
X123350Y108880D02*
X101250Y108880D01*
X101250Y112585D02*
X123350Y112585D01*
X101250Y51750D02*
X101250Y25650D01*
X101250Y51750D02*
X123350Y51750D01*
X123350Y25650D01*
X101250Y25650D01*
X101250Y29355D02*
X123350Y29355D01*
X123350Y33060D02*
X101250Y33060D01*
X101250Y36765D02*
X123350Y36765D01*
X123350Y40470D02*
X101250Y40470D01*
X101250Y44175D02*
X123350Y44175D01*
X123350Y47880D02*
X101250Y47880D01*
X101250Y51585D02*
X123350Y51585D01*
D17*
X169300Y54700D03*
D18*
X169300Y99700D03*
D19*
X179418Y270350D02*
X196182Y270350D01*
X196182Y295750D02*
X179418Y295750D01*
X179418Y321150D02*
X196182Y321150D01*
X196182Y346550D02*
X179418Y346550D01*
D11*
X136060Y224305D02*
X122200Y224305D01*
X122200Y240195D01*
X136060Y240195D01*
X136060Y224305D01*
X136060Y228238D02*
X122200Y228238D01*
X122200Y232171D02*
X136060Y232171D01*
X136060Y236104D02*
X122200Y236104D01*
X122200Y240037D02*
X136060Y240037D01*
X150640Y224305D02*
X164500Y224305D01*
X150640Y224305D02*
X150640Y240195D01*
X164500Y240195D01*
X164500Y224305D01*
X164500Y228238D02*
X150640Y228238D01*
X150640Y232171D02*
X164500Y232171D01*
X164500Y236104D02*
X150640Y236104D01*
X150640Y240037D02*
X164500Y240037D01*
X40810Y202095D02*
X26950Y202095D01*
X40810Y202095D02*
X40810Y186205D01*
X26950Y186205D01*
X26950Y202095D01*
X26950Y190138D02*
X40810Y190138D01*
X40810Y194071D02*
X26950Y194071D01*
X26950Y198004D02*
X40810Y198004D01*
X40810Y201937D02*
X26950Y201937D01*
X55390Y202095D02*
X69250Y202095D01*
X69250Y186205D01*
X55390Y186205D01*
X55390Y202095D01*
X55390Y190138D02*
X69250Y190138D01*
X69250Y194071D02*
X55390Y194071D01*
X55390Y198004D02*
X69250Y198004D01*
X69250Y201937D02*
X55390Y201937D01*
X179350Y227495D02*
X193210Y227495D01*
X193210Y211605D01*
X179350Y211605D01*
X179350Y227495D01*
X179350Y215538D02*
X193210Y215538D01*
X193210Y219471D02*
X179350Y219471D01*
X179350Y223404D02*
X193210Y223404D01*
X193210Y227337D02*
X179350Y227337D01*
X207790Y227495D02*
X221650Y227495D01*
X221650Y211605D01*
X207790Y211605D01*
X207790Y227495D01*
X207790Y215538D02*
X221650Y215538D01*
X221650Y219471D02*
X207790Y219471D01*
X207790Y223404D02*
X221650Y223404D01*
X221650Y227337D02*
X207790Y227337D01*
X40810Y163995D02*
X26950Y163995D01*
X40810Y163995D02*
X40810Y148105D01*
X26950Y148105D01*
X26950Y163995D01*
X26950Y152038D02*
X40810Y152038D01*
X40810Y155971D02*
X26950Y155971D01*
X26950Y159904D02*
X40810Y159904D01*
X40810Y163837D02*
X26950Y163837D01*
X55390Y163995D02*
X69250Y163995D01*
X69250Y148105D01*
X55390Y148105D01*
X55390Y163995D01*
X55390Y152038D02*
X69250Y152038D01*
X69250Y155971D02*
X55390Y155971D01*
X55390Y159904D02*
X69250Y159904D01*
X69250Y163837D02*
X55390Y163837D01*
M02*
