G04 EAGLE Gerber RS-274X export*
G75*
%MOMM*%
%FSLAX34Y34*%
%LPD*%
%INSolderpaste Top*%
%IPPOS*%
%AMOC8*
5,1,8,0,0,1.08239X$1,22.5*%
G01*
%ADD10C,0.014000*%
%ADD11R,1.100000X1.300000*%
%ADD12R,2.000000X1.950000*%
%ADD13R,1.200000X0.400000*%
%ADD14R,0.900000X0.450000*%
%ADD15R,3.300000X0.800000*%
%ADD16R,3.200000X1.300000*%
%ADD17R,2.200000X2.600000*%


D10*
X41030Y224320D02*
X27170Y224320D01*
X27170Y240180D01*
X41030Y240180D01*
X41030Y224320D01*
X41030Y224453D02*
X27170Y224453D01*
X27170Y224586D02*
X41030Y224586D01*
X41030Y224719D02*
X27170Y224719D01*
X27170Y224852D02*
X41030Y224852D01*
X41030Y224985D02*
X27170Y224985D01*
X27170Y225118D02*
X41030Y225118D01*
X41030Y225251D02*
X27170Y225251D01*
X27170Y225384D02*
X41030Y225384D01*
X41030Y225517D02*
X27170Y225517D01*
X27170Y225650D02*
X41030Y225650D01*
X41030Y225783D02*
X27170Y225783D01*
X27170Y225916D02*
X41030Y225916D01*
X41030Y226049D02*
X27170Y226049D01*
X27170Y226182D02*
X41030Y226182D01*
X41030Y226315D02*
X27170Y226315D01*
X27170Y226448D02*
X41030Y226448D01*
X41030Y226581D02*
X27170Y226581D01*
X27170Y226714D02*
X41030Y226714D01*
X41030Y226847D02*
X27170Y226847D01*
X27170Y226980D02*
X41030Y226980D01*
X41030Y227113D02*
X27170Y227113D01*
X27170Y227246D02*
X41030Y227246D01*
X41030Y227379D02*
X27170Y227379D01*
X27170Y227512D02*
X41030Y227512D01*
X41030Y227645D02*
X27170Y227645D01*
X27170Y227778D02*
X41030Y227778D01*
X41030Y227911D02*
X27170Y227911D01*
X27170Y228044D02*
X41030Y228044D01*
X41030Y228177D02*
X27170Y228177D01*
X27170Y228310D02*
X41030Y228310D01*
X41030Y228443D02*
X27170Y228443D01*
X27170Y228576D02*
X41030Y228576D01*
X41030Y228709D02*
X27170Y228709D01*
X27170Y228842D02*
X41030Y228842D01*
X41030Y228975D02*
X27170Y228975D01*
X27170Y229108D02*
X41030Y229108D01*
X41030Y229241D02*
X27170Y229241D01*
X27170Y229374D02*
X41030Y229374D01*
X41030Y229507D02*
X27170Y229507D01*
X27170Y229640D02*
X41030Y229640D01*
X41030Y229773D02*
X27170Y229773D01*
X27170Y229906D02*
X41030Y229906D01*
X41030Y230039D02*
X27170Y230039D01*
X27170Y230172D02*
X41030Y230172D01*
X41030Y230305D02*
X27170Y230305D01*
X27170Y230438D02*
X41030Y230438D01*
X41030Y230571D02*
X27170Y230571D01*
X27170Y230704D02*
X41030Y230704D01*
X41030Y230837D02*
X27170Y230837D01*
X27170Y230970D02*
X41030Y230970D01*
X41030Y231103D02*
X27170Y231103D01*
X27170Y231236D02*
X41030Y231236D01*
X41030Y231369D02*
X27170Y231369D01*
X27170Y231502D02*
X41030Y231502D01*
X41030Y231635D02*
X27170Y231635D01*
X27170Y231768D02*
X41030Y231768D01*
X41030Y231901D02*
X27170Y231901D01*
X27170Y232034D02*
X41030Y232034D01*
X41030Y232167D02*
X27170Y232167D01*
X27170Y232300D02*
X41030Y232300D01*
X41030Y232433D02*
X27170Y232433D01*
X27170Y232566D02*
X41030Y232566D01*
X41030Y232699D02*
X27170Y232699D01*
X27170Y232832D02*
X41030Y232832D01*
X41030Y232965D02*
X27170Y232965D01*
X27170Y233098D02*
X41030Y233098D01*
X41030Y233231D02*
X27170Y233231D01*
X27170Y233364D02*
X41030Y233364D01*
X41030Y233497D02*
X27170Y233497D01*
X27170Y233630D02*
X41030Y233630D01*
X41030Y233763D02*
X27170Y233763D01*
X27170Y233896D02*
X41030Y233896D01*
X41030Y234029D02*
X27170Y234029D01*
X27170Y234162D02*
X41030Y234162D01*
X41030Y234295D02*
X27170Y234295D01*
X27170Y234428D02*
X41030Y234428D01*
X41030Y234561D02*
X27170Y234561D01*
X27170Y234694D02*
X41030Y234694D01*
X41030Y234827D02*
X27170Y234827D01*
X27170Y234960D02*
X41030Y234960D01*
X41030Y235093D02*
X27170Y235093D01*
X27170Y235226D02*
X41030Y235226D01*
X41030Y235359D02*
X27170Y235359D01*
X27170Y235492D02*
X41030Y235492D01*
X41030Y235625D02*
X27170Y235625D01*
X27170Y235758D02*
X41030Y235758D01*
X41030Y235891D02*
X27170Y235891D01*
X27170Y236024D02*
X41030Y236024D01*
X41030Y236157D02*
X27170Y236157D01*
X27170Y236290D02*
X41030Y236290D01*
X41030Y236423D02*
X27170Y236423D01*
X27170Y236556D02*
X41030Y236556D01*
X41030Y236689D02*
X27170Y236689D01*
X27170Y236822D02*
X41030Y236822D01*
X41030Y236955D02*
X27170Y236955D01*
X27170Y237088D02*
X41030Y237088D01*
X41030Y237221D02*
X27170Y237221D01*
X27170Y237354D02*
X41030Y237354D01*
X41030Y237487D02*
X27170Y237487D01*
X27170Y237620D02*
X41030Y237620D01*
X41030Y237753D02*
X27170Y237753D01*
X27170Y237886D02*
X41030Y237886D01*
X41030Y238019D02*
X27170Y238019D01*
X27170Y238152D02*
X41030Y238152D01*
X41030Y238285D02*
X27170Y238285D01*
X27170Y238418D02*
X41030Y238418D01*
X41030Y238551D02*
X27170Y238551D01*
X27170Y238684D02*
X41030Y238684D01*
X41030Y238817D02*
X27170Y238817D01*
X27170Y238950D02*
X41030Y238950D01*
X41030Y239083D02*
X27170Y239083D01*
X27170Y239216D02*
X41030Y239216D01*
X41030Y239349D02*
X27170Y239349D01*
X27170Y239482D02*
X41030Y239482D01*
X41030Y239615D02*
X27170Y239615D01*
X27170Y239748D02*
X41030Y239748D01*
X41030Y239881D02*
X27170Y239881D01*
X27170Y240014D02*
X41030Y240014D01*
X41030Y240147D02*
X27170Y240147D01*
X55170Y224320D02*
X69030Y224320D01*
X55170Y224320D02*
X55170Y240180D01*
X69030Y240180D01*
X69030Y224320D01*
X69030Y224453D02*
X55170Y224453D01*
X55170Y224586D02*
X69030Y224586D01*
X69030Y224719D02*
X55170Y224719D01*
X55170Y224852D02*
X69030Y224852D01*
X69030Y224985D02*
X55170Y224985D01*
X55170Y225118D02*
X69030Y225118D01*
X69030Y225251D02*
X55170Y225251D01*
X55170Y225384D02*
X69030Y225384D01*
X69030Y225517D02*
X55170Y225517D01*
X55170Y225650D02*
X69030Y225650D01*
X69030Y225783D02*
X55170Y225783D01*
X55170Y225916D02*
X69030Y225916D01*
X69030Y226049D02*
X55170Y226049D01*
X55170Y226182D02*
X69030Y226182D01*
X69030Y226315D02*
X55170Y226315D01*
X55170Y226448D02*
X69030Y226448D01*
X69030Y226581D02*
X55170Y226581D01*
X55170Y226714D02*
X69030Y226714D01*
X69030Y226847D02*
X55170Y226847D01*
X55170Y226980D02*
X69030Y226980D01*
X69030Y227113D02*
X55170Y227113D01*
X55170Y227246D02*
X69030Y227246D01*
X69030Y227379D02*
X55170Y227379D01*
X55170Y227512D02*
X69030Y227512D01*
X69030Y227645D02*
X55170Y227645D01*
X55170Y227778D02*
X69030Y227778D01*
X69030Y227911D02*
X55170Y227911D01*
X55170Y228044D02*
X69030Y228044D01*
X69030Y228177D02*
X55170Y228177D01*
X55170Y228310D02*
X69030Y228310D01*
X69030Y228443D02*
X55170Y228443D01*
X55170Y228576D02*
X69030Y228576D01*
X69030Y228709D02*
X55170Y228709D01*
X55170Y228842D02*
X69030Y228842D01*
X69030Y228975D02*
X55170Y228975D01*
X55170Y229108D02*
X69030Y229108D01*
X69030Y229241D02*
X55170Y229241D01*
X55170Y229374D02*
X69030Y229374D01*
X69030Y229507D02*
X55170Y229507D01*
X55170Y229640D02*
X69030Y229640D01*
X69030Y229773D02*
X55170Y229773D01*
X55170Y229906D02*
X69030Y229906D01*
X69030Y230039D02*
X55170Y230039D01*
X55170Y230172D02*
X69030Y230172D01*
X69030Y230305D02*
X55170Y230305D01*
X55170Y230438D02*
X69030Y230438D01*
X69030Y230571D02*
X55170Y230571D01*
X55170Y230704D02*
X69030Y230704D01*
X69030Y230837D02*
X55170Y230837D01*
X55170Y230970D02*
X69030Y230970D01*
X69030Y231103D02*
X55170Y231103D01*
X55170Y231236D02*
X69030Y231236D01*
X69030Y231369D02*
X55170Y231369D01*
X55170Y231502D02*
X69030Y231502D01*
X69030Y231635D02*
X55170Y231635D01*
X55170Y231768D02*
X69030Y231768D01*
X69030Y231901D02*
X55170Y231901D01*
X55170Y232034D02*
X69030Y232034D01*
X69030Y232167D02*
X55170Y232167D01*
X55170Y232300D02*
X69030Y232300D01*
X69030Y232433D02*
X55170Y232433D01*
X55170Y232566D02*
X69030Y232566D01*
X69030Y232699D02*
X55170Y232699D01*
X55170Y232832D02*
X69030Y232832D01*
X69030Y232965D02*
X55170Y232965D01*
X55170Y233098D02*
X69030Y233098D01*
X69030Y233231D02*
X55170Y233231D01*
X55170Y233364D02*
X69030Y233364D01*
X69030Y233497D02*
X55170Y233497D01*
X55170Y233630D02*
X69030Y233630D01*
X69030Y233763D02*
X55170Y233763D01*
X55170Y233896D02*
X69030Y233896D01*
X69030Y234029D02*
X55170Y234029D01*
X55170Y234162D02*
X69030Y234162D01*
X69030Y234295D02*
X55170Y234295D01*
X55170Y234428D02*
X69030Y234428D01*
X69030Y234561D02*
X55170Y234561D01*
X55170Y234694D02*
X69030Y234694D01*
X69030Y234827D02*
X55170Y234827D01*
X55170Y234960D02*
X69030Y234960D01*
X69030Y235093D02*
X55170Y235093D01*
X55170Y235226D02*
X69030Y235226D01*
X69030Y235359D02*
X55170Y235359D01*
X55170Y235492D02*
X69030Y235492D01*
X69030Y235625D02*
X55170Y235625D01*
X55170Y235758D02*
X69030Y235758D01*
X69030Y235891D02*
X55170Y235891D01*
X55170Y236024D02*
X69030Y236024D01*
X69030Y236157D02*
X55170Y236157D01*
X55170Y236290D02*
X69030Y236290D01*
X69030Y236423D02*
X55170Y236423D01*
X55170Y236556D02*
X69030Y236556D01*
X69030Y236689D02*
X55170Y236689D01*
X55170Y236822D02*
X69030Y236822D01*
X69030Y236955D02*
X55170Y236955D01*
X55170Y237088D02*
X69030Y237088D01*
X69030Y237221D02*
X55170Y237221D01*
X55170Y237354D02*
X69030Y237354D01*
X69030Y237487D02*
X55170Y237487D01*
X55170Y237620D02*
X69030Y237620D01*
X69030Y237753D02*
X55170Y237753D01*
X55170Y237886D02*
X69030Y237886D01*
X69030Y238019D02*
X55170Y238019D01*
X55170Y238152D02*
X69030Y238152D01*
X69030Y238285D02*
X55170Y238285D01*
X55170Y238418D02*
X69030Y238418D01*
X69030Y238551D02*
X55170Y238551D01*
X55170Y238684D02*
X69030Y238684D01*
X69030Y238817D02*
X55170Y238817D01*
X55170Y238950D02*
X69030Y238950D01*
X69030Y239083D02*
X55170Y239083D01*
X55170Y239216D02*
X69030Y239216D01*
X69030Y239349D02*
X55170Y239349D01*
X55170Y239482D02*
X69030Y239482D01*
X69030Y239615D02*
X55170Y239615D01*
X55170Y239748D02*
X69030Y239748D01*
X69030Y239881D02*
X55170Y239881D01*
X55170Y240014D02*
X69030Y240014D01*
X69030Y240147D02*
X55170Y240147D01*
X55170Y278280D02*
X69030Y278280D01*
X69030Y262420D01*
X55170Y262420D01*
X55170Y278280D01*
X55170Y262553D02*
X69030Y262553D01*
X69030Y262686D02*
X55170Y262686D01*
X55170Y262819D02*
X69030Y262819D01*
X69030Y262952D02*
X55170Y262952D01*
X55170Y263085D02*
X69030Y263085D01*
X69030Y263218D02*
X55170Y263218D01*
X55170Y263351D02*
X69030Y263351D01*
X69030Y263484D02*
X55170Y263484D01*
X55170Y263617D02*
X69030Y263617D01*
X69030Y263750D02*
X55170Y263750D01*
X55170Y263883D02*
X69030Y263883D01*
X69030Y264016D02*
X55170Y264016D01*
X55170Y264149D02*
X69030Y264149D01*
X69030Y264282D02*
X55170Y264282D01*
X55170Y264415D02*
X69030Y264415D01*
X69030Y264548D02*
X55170Y264548D01*
X55170Y264681D02*
X69030Y264681D01*
X69030Y264814D02*
X55170Y264814D01*
X55170Y264947D02*
X69030Y264947D01*
X69030Y265080D02*
X55170Y265080D01*
X55170Y265213D02*
X69030Y265213D01*
X69030Y265346D02*
X55170Y265346D01*
X55170Y265479D02*
X69030Y265479D01*
X69030Y265612D02*
X55170Y265612D01*
X55170Y265745D02*
X69030Y265745D01*
X69030Y265878D02*
X55170Y265878D01*
X55170Y266011D02*
X69030Y266011D01*
X69030Y266144D02*
X55170Y266144D01*
X55170Y266277D02*
X69030Y266277D01*
X69030Y266410D02*
X55170Y266410D01*
X55170Y266543D02*
X69030Y266543D01*
X69030Y266676D02*
X55170Y266676D01*
X55170Y266809D02*
X69030Y266809D01*
X69030Y266942D02*
X55170Y266942D01*
X55170Y267075D02*
X69030Y267075D01*
X69030Y267208D02*
X55170Y267208D01*
X55170Y267341D02*
X69030Y267341D01*
X69030Y267474D02*
X55170Y267474D01*
X55170Y267607D02*
X69030Y267607D01*
X69030Y267740D02*
X55170Y267740D01*
X55170Y267873D02*
X69030Y267873D01*
X69030Y268006D02*
X55170Y268006D01*
X55170Y268139D02*
X69030Y268139D01*
X69030Y268272D02*
X55170Y268272D01*
X55170Y268405D02*
X69030Y268405D01*
X69030Y268538D02*
X55170Y268538D01*
X55170Y268671D02*
X69030Y268671D01*
X69030Y268804D02*
X55170Y268804D01*
X55170Y268937D02*
X69030Y268937D01*
X69030Y269070D02*
X55170Y269070D01*
X55170Y269203D02*
X69030Y269203D01*
X69030Y269336D02*
X55170Y269336D01*
X55170Y269469D02*
X69030Y269469D01*
X69030Y269602D02*
X55170Y269602D01*
X55170Y269735D02*
X69030Y269735D01*
X69030Y269868D02*
X55170Y269868D01*
X55170Y270001D02*
X69030Y270001D01*
X69030Y270134D02*
X55170Y270134D01*
X55170Y270267D02*
X69030Y270267D01*
X69030Y270400D02*
X55170Y270400D01*
X55170Y270533D02*
X69030Y270533D01*
X69030Y270666D02*
X55170Y270666D01*
X55170Y270799D02*
X69030Y270799D01*
X69030Y270932D02*
X55170Y270932D01*
X55170Y271065D02*
X69030Y271065D01*
X69030Y271198D02*
X55170Y271198D01*
X55170Y271331D02*
X69030Y271331D01*
X69030Y271464D02*
X55170Y271464D01*
X55170Y271597D02*
X69030Y271597D01*
X69030Y271730D02*
X55170Y271730D01*
X55170Y271863D02*
X69030Y271863D01*
X69030Y271996D02*
X55170Y271996D01*
X55170Y272129D02*
X69030Y272129D01*
X69030Y272262D02*
X55170Y272262D01*
X55170Y272395D02*
X69030Y272395D01*
X69030Y272528D02*
X55170Y272528D01*
X55170Y272661D02*
X69030Y272661D01*
X69030Y272794D02*
X55170Y272794D01*
X55170Y272927D02*
X69030Y272927D01*
X69030Y273060D02*
X55170Y273060D01*
X55170Y273193D02*
X69030Y273193D01*
X69030Y273326D02*
X55170Y273326D01*
X55170Y273459D02*
X69030Y273459D01*
X69030Y273592D02*
X55170Y273592D01*
X55170Y273725D02*
X69030Y273725D01*
X69030Y273858D02*
X55170Y273858D01*
X55170Y273991D02*
X69030Y273991D01*
X69030Y274124D02*
X55170Y274124D01*
X55170Y274257D02*
X69030Y274257D01*
X69030Y274390D02*
X55170Y274390D01*
X55170Y274523D02*
X69030Y274523D01*
X69030Y274656D02*
X55170Y274656D01*
X55170Y274789D02*
X69030Y274789D01*
X69030Y274922D02*
X55170Y274922D01*
X55170Y275055D02*
X69030Y275055D01*
X69030Y275188D02*
X55170Y275188D01*
X55170Y275321D02*
X69030Y275321D01*
X69030Y275454D02*
X55170Y275454D01*
X55170Y275587D02*
X69030Y275587D01*
X69030Y275720D02*
X55170Y275720D01*
X55170Y275853D02*
X69030Y275853D01*
X69030Y275986D02*
X55170Y275986D01*
X55170Y276119D02*
X69030Y276119D01*
X69030Y276252D02*
X55170Y276252D01*
X55170Y276385D02*
X69030Y276385D01*
X69030Y276518D02*
X55170Y276518D01*
X55170Y276651D02*
X69030Y276651D01*
X69030Y276784D02*
X55170Y276784D01*
X55170Y276917D02*
X69030Y276917D01*
X69030Y277050D02*
X55170Y277050D01*
X55170Y277183D02*
X69030Y277183D01*
X69030Y277316D02*
X55170Y277316D01*
X55170Y277449D02*
X69030Y277449D01*
X69030Y277582D02*
X55170Y277582D01*
X55170Y277715D02*
X69030Y277715D01*
X69030Y277848D02*
X55170Y277848D01*
X55170Y277981D02*
X69030Y277981D01*
X69030Y278114D02*
X55170Y278114D01*
X55170Y278247D02*
X69030Y278247D01*
X41030Y278280D02*
X27170Y278280D01*
X41030Y278280D02*
X41030Y262420D01*
X27170Y262420D01*
X27170Y278280D01*
X27170Y262553D02*
X41030Y262553D01*
X41030Y262686D02*
X27170Y262686D01*
X27170Y262819D02*
X41030Y262819D01*
X41030Y262952D02*
X27170Y262952D01*
X27170Y263085D02*
X41030Y263085D01*
X41030Y263218D02*
X27170Y263218D01*
X27170Y263351D02*
X41030Y263351D01*
X41030Y263484D02*
X27170Y263484D01*
X27170Y263617D02*
X41030Y263617D01*
X41030Y263750D02*
X27170Y263750D01*
X27170Y263883D02*
X41030Y263883D01*
X41030Y264016D02*
X27170Y264016D01*
X27170Y264149D02*
X41030Y264149D01*
X41030Y264282D02*
X27170Y264282D01*
X27170Y264415D02*
X41030Y264415D01*
X41030Y264548D02*
X27170Y264548D01*
X27170Y264681D02*
X41030Y264681D01*
X41030Y264814D02*
X27170Y264814D01*
X27170Y264947D02*
X41030Y264947D01*
X41030Y265080D02*
X27170Y265080D01*
X27170Y265213D02*
X41030Y265213D01*
X41030Y265346D02*
X27170Y265346D01*
X27170Y265479D02*
X41030Y265479D01*
X41030Y265612D02*
X27170Y265612D01*
X27170Y265745D02*
X41030Y265745D01*
X41030Y265878D02*
X27170Y265878D01*
X27170Y266011D02*
X41030Y266011D01*
X41030Y266144D02*
X27170Y266144D01*
X27170Y266277D02*
X41030Y266277D01*
X41030Y266410D02*
X27170Y266410D01*
X27170Y266543D02*
X41030Y266543D01*
X41030Y266676D02*
X27170Y266676D01*
X27170Y266809D02*
X41030Y266809D01*
X41030Y266942D02*
X27170Y266942D01*
X27170Y267075D02*
X41030Y267075D01*
X41030Y267208D02*
X27170Y267208D01*
X27170Y267341D02*
X41030Y267341D01*
X41030Y267474D02*
X27170Y267474D01*
X27170Y267607D02*
X41030Y267607D01*
X41030Y267740D02*
X27170Y267740D01*
X27170Y267873D02*
X41030Y267873D01*
X41030Y268006D02*
X27170Y268006D01*
X27170Y268139D02*
X41030Y268139D01*
X41030Y268272D02*
X27170Y268272D01*
X27170Y268405D02*
X41030Y268405D01*
X41030Y268538D02*
X27170Y268538D01*
X27170Y268671D02*
X41030Y268671D01*
X41030Y268804D02*
X27170Y268804D01*
X27170Y268937D02*
X41030Y268937D01*
X41030Y269070D02*
X27170Y269070D01*
X27170Y269203D02*
X41030Y269203D01*
X41030Y269336D02*
X27170Y269336D01*
X27170Y269469D02*
X41030Y269469D01*
X41030Y269602D02*
X27170Y269602D01*
X27170Y269735D02*
X41030Y269735D01*
X41030Y269868D02*
X27170Y269868D01*
X27170Y270001D02*
X41030Y270001D01*
X41030Y270134D02*
X27170Y270134D01*
X27170Y270267D02*
X41030Y270267D01*
X41030Y270400D02*
X27170Y270400D01*
X27170Y270533D02*
X41030Y270533D01*
X41030Y270666D02*
X27170Y270666D01*
X27170Y270799D02*
X41030Y270799D01*
X41030Y270932D02*
X27170Y270932D01*
X27170Y271065D02*
X41030Y271065D01*
X41030Y271198D02*
X27170Y271198D01*
X27170Y271331D02*
X41030Y271331D01*
X41030Y271464D02*
X27170Y271464D01*
X27170Y271597D02*
X41030Y271597D01*
X41030Y271730D02*
X27170Y271730D01*
X27170Y271863D02*
X41030Y271863D01*
X41030Y271996D02*
X27170Y271996D01*
X27170Y272129D02*
X41030Y272129D01*
X41030Y272262D02*
X27170Y272262D01*
X27170Y272395D02*
X41030Y272395D01*
X41030Y272528D02*
X27170Y272528D01*
X27170Y272661D02*
X41030Y272661D01*
X41030Y272794D02*
X27170Y272794D01*
X27170Y272927D02*
X41030Y272927D01*
X41030Y273060D02*
X27170Y273060D01*
X27170Y273193D02*
X41030Y273193D01*
X41030Y273326D02*
X27170Y273326D01*
X27170Y273459D02*
X41030Y273459D01*
X41030Y273592D02*
X27170Y273592D01*
X27170Y273725D02*
X41030Y273725D01*
X41030Y273858D02*
X27170Y273858D01*
X27170Y273991D02*
X41030Y273991D01*
X41030Y274124D02*
X27170Y274124D01*
X27170Y274257D02*
X41030Y274257D01*
X41030Y274390D02*
X27170Y274390D01*
X27170Y274523D02*
X41030Y274523D01*
X41030Y274656D02*
X27170Y274656D01*
X27170Y274789D02*
X41030Y274789D01*
X41030Y274922D02*
X27170Y274922D01*
X27170Y275055D02*
X41030Y275055D01*
X41030Y275188D02*
X27170Y275188D01*
X27170Y275321D02*
X41030Y275321D01*
X41030Y275454D02*
X27170Y275454D01*
X27170Y275587D02*
X41030Y275587D01*
X41030Y275720D02*
X27170Y275720D01*
X27170Y275853D02*
X41030Y275853D01*
X41030Y275986D02*
X27170Y275986D01*
X27170Y276119D02*
X41030Y276119D01*
X41030Y276252D02*
X27170Y276252D01*
X27170Y276385D02*
X41030Y276385D01*
X41030Y276518D02*
X27170Y276518D01*
X27170Y276651D02*
X41030Y276651D01*
X41030Y276784D02*
X27170Y276784D01*
X27170Y276917D02*
X41030Y276917D01*
X41030Y277050D02*
X27170Y277050D01*
X27170Y277183D02*
X41030Y277183D01*
X41030Y277316D02*
X27170Y277316D01*
X27170Y277449D02*
X41030Y277449D01*
X41030Y277582D02*
X27170Y277582D01*
X27170Y277715D02*
X41030Y277715D01*
X41030Y277848D02*
X27170Y277848D01*
X27170Y277981D02*
X41030Y277981D01*
X41030Y278114D02*
X27170Y278114D01*
X27170Y278247D02*
X41030Y278247D01*
D11*
X57600Y308450D03*
X38600Y308450D03*
D12*
X95950Y333850D03*
X139950Y333850D03*
D13*
X136800Y184650D03*
X136800Y194150D03*
X136800Y203650D03*
X111800Y203650D03*
X111800Y184650D03*
D14*
X101100Y267250D03*
X101100Y248050D03*
X122100Y257650D03*
D15*
X264000Y248600D03*
X264000Y228600D03*
D16*
X321500Y272100D03*
X321500Y205100D03*
D17*
X226300Y38700D03*
X226300Y99700D03*
X112300Y99700D03*
X112300Y38700D03*
D10*
X122200Y224305D02*
X136060Y224305D01*
X122200Y224305D02*
X122200Y240195D01*
X136060Y240195D01*
X136060Y224305D01*
X136060Y224438D02*
X122200Y224438D01*
X122200Y224571D02*
X136060Y224571D01*
X136060Y224704D02*
X122200Y224704D01*
X122200Y224837D02*
X136060Y224837D01*
X136060Y224970D02*
X122200Y224970D01*
X122200Y225103D02*
X136060Y225103D01*
X136060Y225236D02*
X122200Y225236D01*
X122200Y225369D02*
X136060Y225369D01*
X136060Y225502D02*
X122200Y225502D01*
X122200Y225635D02*
X136060Y225635D01*
X136060Y225768D02*
X122200Y225768D01*
X122200Y225901D02*
X136060Y225901D01*
X136060Y226034D02*
X122200Y226034D01*
X122200Y226167D02*
X136060Y226167D01*
X136060Y226300D02*
X122200Y226300D01*
X122200Y226433D02*
X136060Y226433D01*
X136060Y226566D02*
X122200Y226566D01*
X122200Y226699D02*
X136060Y226699D01*
X136060Y226832D02*
X122200Y226832D01*
X122200Y226965D02*
X136060Y226965D01*
X136060Y227098D02*
X122200Y227098D01*
X122200Y227231D02*
X136060Y227231D01*
X136060Y227364D02*
X122200Y227364D01*
X122200Y227497D02*
X136060Y227497D01*
X136060Y227630D02*
X122200Y227630D01*
X122200Y227763D02*
X136060Y227763D01*
X136060Y227896D02*
X122200Y227896D01*
X122200Y228029D02*
X136060Y228029D01*
X136060Y228162D02*
X122200Y228162D01*
X122200Y228295D02*
X136060Y228295D01*
X136060Y228428D02*
X122200Y228428D01*
X122200Y228561D02*
X136060Y228561D01*
X136060Y228694D02*
X122200Y228694D01*
X122200Y228827D02*
X136060Y228827D01*
X136060Y228960D02*
X122200Y228960D01*
X122200Y229093D02*
X136060Y229093D01*
X136060Y229226D02*
X122200Y229226D01*
X122200Y229359D02*
X136060Y229359D01*
X136060Y229492D02*
X122200Y229492D01*
X122200Y229625D02*
X136060Y229625D01*
X136060Y229758D02*
X122200Y229758D01*
X122200Y229891D02*
X136060Y229891D01*
X136060Y230024D02*
X122200Y230024D01*
X122200Y230157D02*
X136060Y230157D01*
X136060Y230290D02*
X122200Y230290D01*
X122200Y230423D02*
X136060Y230423D01*
X136060Y230556D02*
X122200Y230556D01*
X122200Y230689D02*
X136060Y230689D01*
X136060Y230822D02*
X122200Y230822D01*
X122200Y230955D02*
X136060Y230955D01*
X136060Y231088D02*
X122200Y231088D01*
X122200Y231221D02*
X136060Y231221D01*
X136060Y231354D02*
X122200Y231354D01*
X122200Y231487D02*
X136060Y231487D01*
X136060Y231620D02*
X122200Y231620D01*
X122200Y231753D02*
X136060Y231753D01*
X136060Y231886D02*
X122200Y231886D01*
X122200Y232019D02*
X136060Y232019D01*
X136060Y232152D02*
X122200Y232152D01*
X122200Y232285D02*
X136060Y232285D01*
X136060Y232418D02*
X122200Y232418D01*
X122200Y232551D02*
X136060Y232551D01*
X136060Y232684D02*
X122200Y232684D01*
X122200Y232817D02*
X136060Y232817D01*
X136060Y232950D02*
X122200Y232950D01*
X122200Y233083D02*
X136060Y233083D01*
X136060Y233216D02*
X122200Y233216D01*
X122200Y233349D02*
X136060Y233349D01*
X136060Y233482D02*
X122200Y233482D01*
X122200Y233615D02*
X136060Y233615D01*
X136060Y233748D02*
X122200Y233748D01*
X122200Y233881D02*
X136060Y233881D01*
X136060Y234014D02*
X122200Y234014D01*
X122200Y234147D02*
X136060Y234147D01*
X136060Y234280D02*
X122200Y234280D01*
X122200Y234413D02*
X136060Y234413D01*
X136060Y234546D02*
X122200Y234546D01*
X122200Y234679D02*
X136060Y234679D01*
X136060Y234812D02*
X122200Y234812D01*
X122200Y234945D02*
X136060Y234945D01*
X136060Y235078D02*
X122200Y235078D01*
X122200Y235211D02*
X136060Y235211D01*
X136060Y235344D02*
X122200Y235344D01*
X122200Y235477D02*
X136060Y235477D01*
X136060Y235610D02*
X122200Y235610D01*
X122200Y235743D02*
X136060Y235743D01*
X136060Y235876D02*
X122200Y235876D01*
X122200Y236009D02*
X136060Y236009D01*
X136060Y236142D02*
X122200Y236142D01*
X122200Y236275D02*
X136060Y236275D01*
X136060Y236408D02*
X122200Y236408D01*
X122200Y236541D02*
X136060Y236541D01*
X136060Y236674D02*
X122200Y236674D01*
X122200Y236807D02*
X136060Y236807D01*
X136060Y236940D02*
X122200Y236940D01*
X122200Y237073D02*
X136060Y237073D01*
X136060Y237206D02*
X122200Y237206D01*
X122200Y237339D02*
X136060Y237339D01*
X136060Y237472D02*
X122200Y237472D01*
X122200Y237605D02*
X136060Y237605D01*
X136060Y237738D02*
X122200Y237738D01*
X122200Y237871D02*
X136060Y237871D01*
X136060Y238004D02*
X122200Y238004D01*
X122200Y238137D02*
X136060Y238137D01*
X136060Y238270D02*
X122200Y238270D01*
X122200Y238403D02*
X136060Y238403D01*
X136060Y238536D02*
X122200Y238536D01*
X122200Y238669D02*
X136060Y238669D01*
X136060Y238802D02*
X122200Y238802D01*
X122200Y238935D02*
X136060Y238935D01*
X136060Y239068D02*
X122200Y239068D01*
X122200Y239201D02*
X136060Y239201D01*
X136060Y239334D02*
X122200Y239334D01*
X122200Y239467D02*
X136060Y239467D01*
X136060Y239600D02*
X122200Y239600D01*
X122200Y239733D02*
X136060Y239733D01*
X136060Y239866D02*
X122200Y239866D01*
X122200Y239999D02*
X136060Y239999D01*
X136060Y240132D02*
X122200Y240132D01*
X150640Y224305D02*
X164500Y224305D01*
X150640Y224305D02*
X150640Y240195D01*
X164500Y240195D01*
X164500Y224305D01*
X164500Y224438D02*
X150640Y224438D01*
X150640Y224571D02*
X164500Y224571D01*
X164500Y224704D02*
X150640Y224704D01*
X150640Y224837D02*
X164500Y224837D01*
X164500Y224970D02*
X150640Y224970D01*
X150640Y225103D02*
X164500Y225103D01*
X164500Y225236D02*
X150640Y225236D01*
X150640Y225369D02*
X164500Y225369D01*
X164500Y225502D02*
X150640Y225502D01*
X150640Y225635D02*
X164500Y225635D01*
X164500Y225768D02*
X150640Y225768D01*
X150640Y225901D02*
X164500Y225901D01*
X164500Y226034D02*
X150640Y226034D01*
X150640Y226167D02*
X164500Y226167D01*
X164500Y226300D02*
X150640Y226300D01*
X150640Y226433D02*
X164500Y226433D01*
X164500Y226566D02*
X150640Y226566D01*
X150640Y226699D02*
X164500Y226699D01*
X164500Y226832D02*
X150640Y226832D01*
X150640Y226965D02*
X164500Y226965D01*
X164500Y227098D02*
X150640Y227098D01*
X150640Y227231D02*
X164500Y227231D01*
X164500Y227364D02*
X150640Y227364D01*
X150640Y227497D02*
X164500Y227497D01*
X164500Y227630D02*
X150640Y227630D01*
X150640Y227763D02*
X164500Y227763D01*
X164500Y227896D02*
X150640Y227896D01*
X150640Y228029D02*
X164500Y228029D01*
X164500Y228162D02*
X150640Y228162D01*
X150640Y228295D02*
X164500Y228295D01*
X164500Y228428D02*
X150640Y228428D01*
X150640Y228561D02*
X164500Y228561D01*
X164500Y228694D02*
X150640Y228694D01*
X150640Y228827D02*
X164500Y228827D01*
X164500Y228960D02*
X150640Y228960D01*
X150640Y229093D02*
X164500Y229093D01*
X164500Y229226D02*
X150640Y229226D01*
X150640Y229359D02*
X164500Y229359D01*
X164500Y229492D02*
X150640Y229492D01*
X150640Y229625D02*
X164500Y229625D01*
X164500Y229758D02*
X150640Y229758D01*
X150640Y229891D02*
X164500Y229891D01*
X164500Y230024D02*
X150640Y230024D01*
X150640Y230157D02*
X164500Y230157D01*
X164500Y230290D02*
X150640Y230290D01*
X150640Y230423D02*
X164500Y230423D01*
X164500Y230556D02*
X150640Y230556D01*
X150640Y230689D02*
X164500Y230689D01*
X164500Y230822D02*
X150640Y230822D01*
X150640Y230955D02*
X164500Y230955D01*
X164500Y231088D02*
X150640Y231088D01*
X150640Y231221D02*
X164500Y231221D01*
X164500Y231354D02*
X150640Y231354D01*
X150640Y231487D02*
X164500Y231487D01*
X164500Y231620D02*
X150640Y231620D01*
X150640Y231753D02*
X164500Y231753D01*
X164500Y231886D02*
X150640Y231886D01*
X150640Y232019D02*
X164500Y232019D01*
X164500Y232152D02*
X150640Y232152D01*
X150640Y232285D02*
X164500Y232285D01*
X164500Y232418D02*
X150640Y232418D01*
X150640Y232551D02*
X164500Y232551D01*
X164500Y232684D02*
X150640Y232684D01*
X150640Y232817D02*
X164500Y232817D01*
X164500Y232950D02*
X150640Y232950D01*
X150640Y233083D02*
X164500Y233083D01*
X164500Y233216D02*
X150640Y233216D01*
X150640Y233349D02*
X164500Y233349D01*
X164500Y233482D02*
X150640Y233482D01*
X150640Y233615D02*
X164500Y233615D01*
X164500Y233748D02*
X150640Y233748D01*
X150640Y233881D02*
X164500Y233881D01*
X164500Y234014D02*
X150640Y234014D01*
X150640Y234147D02*
X164500Y234147D01*
X164500Y234280D02*
X150640Y234280D01*
X150640Y234413D02*
X164500Y234413D01*
X164500Y234546D02*
X150640Y234546D01*
X150640Y234679D02*
X164500Y234679D01*
X164500Y234812D02*
X150640Y234812D01*
X150640Y234945D02*
X164500Y234945D01*
X164500Y235078D02*
X150640Y235078D01*
X150640Y235211D02*
X164500Y235211D01*
X164500Y235344D02*
X150640Y235344D01*
X150640Y235477D02*
X164500Y235477D01*
X164500Y235610D02*
X150640Y235610D01*
X150640Y235743D02*
X164500Y235743D01*
X164500Y235876D02*
X150640Y235876D01*
X150640Y236009D02*
X164500Y236009D01*
X164500Y236142D02*
X150640Y236142D01*
X150640Y236275D02*
X164500Y236275D01*
X164500Y236408D02*
X150640Y236408D01*
X150640Y236541D02*
X164500Y236541D01*
X164500Y236674D02*
X150640Y236674D01*
X150640Y236807D02*
X164500Y236807D01*
X164500Y236940D02*
X150640Y236940D01*
X150640Y237073D02*
X164500Y237073D01*
X164500Y237206D02*
X150640Y237206D01*
X150640Y237339D02*
X164500Y237339D01*
X164500Y237472D02*
X150640Y237472D01*
X150640Y237605D02*
X164500Y237605D01*
X164500Y237738D02*
X150640Y237738D01*
X150640Y237871D02*
X164500Y237871D01*
X164500Y238004D02*
X150640Y238004D01*
X150640Y238137D02*
X164500Y238137D01*
X164500Y238270D02*
X150640Y238270D01*
X150640Y238403D02*
X164500Y238403D01*
X164500Y238536D02*
X150640Y238536D01*
X150640Y238669D02*
X164500Y238669D01*
X164500Y238802D02*
X150640Y238802D01*
X150640Y238935D02*
X164500Y238935D01*
X164500Y239068D02*
X150640Y239068D01*
X150640Y239201D02*
X164500Y239201D01*
X164500Y239334D02*
X150640Y239334D01*
X150640Y239467D02*
X164500Y239467D01*
X164500Y239600D02*
X150640Y239600D01*
X150640Y239733D02*
X164500Y239733D01*
X164500Y239866D02*
X150640Y239866D01*
X150640Y239999D02*
X164500Y239999D01*
X164500Y240132D02*
X150640Y240132D01*
X40810Y202095D02*
X26950Y202095D01*
X40810Y202095D02*
X40810Y186205D01*
X26950Y186205D01*
X26950Y202095D01*
X26950Y186338D02*
X40810Y186338D01*
X40810Y186471D02*
X26950Y186471D01*
X26950Y186604D02*
X40810Y186604D01*
X40810Y186737D02*
X26950Y186737D01*
X26950Y186870D02*
X40810Y186870D01*
X40810Y187003D02*
X26950Y187003D01*
X26950Y187136D02*
X40810Y187136D01*
X40810Y187269D02*
X26950Y187269D01*
X26950Y187402D02*
X40810Y187402D01*
X40810Y187535D02*
X26950Y187535D01*
X26950Y187668D02*
X40810Y187668D01*
X40810Y187801D02*
X26950Y187801D01*
X26950Y187934D02*
X40810Y187934D01*
X40810Y188067D02*
X26950Y188067D01*
X26950Y188200D02*
X40810Y188200D01*
X40810Y188333D02*
X26950Y188333D01*
X26950Y188466D02*
X40810Y188466D01*
X40810Y188599D02*
X26950Y188599D01*
X26950Y188732D02*
X40810Y188732D01*
X40810Y188865D02*
X26950Y188865D01*
X26950Y188998D02*
X40810Y188998D01*
X40810Y189131D02*
X26950Y189131D01*
X26950Y189264D02*
X40810Y189264D01*
X40810Y189397D02*
X26950Y189397D01*
X26950Y189530D02*
X40810Y189530D01*
X40810Y189663D02*
X26950Y189663D01*
X26950Y189796D02*
X40810Y189796D01*
X40810Y189929D02*
X26950Y189929D01*
X26950Y190062D02*
X40810Y190062D01*
X40810Y190195D02*
X26950Y190195D01*
X26950Y190328D02*
X40810Y190328D01*
X40810Y190461D02*
X26950Y190461D01*
X26950Y190594D02*
X40810Y190594D01*
X40810Y190727D02*
X26950Y190727D01*
X26950Y190860D02*
X40810Y190860D01*
X40810Y190993D02*
X26950Y190993D01*
X26950Y191126D02*
X40810Y191126D01*
X40810Y191259D02*
X26950Y191259D01*
X26950Y191392D02*
X40810Y191392D01*
X40810Y191525D02*
X26950Y191525D01*
X26950Y191658D02*
X40810Y191658D01*
X40810Y191791D02*
X26950Y191791D01*
X26950Y191924D02*
X40810Y191924D01*
X40810Y192057D02*
X26950Y192057D01*
X26950Y192190D02*
X40810Y192190D01*
X40810Y192323D02*
X26950Y192323D01*
X26950Y192456D02*
X40810Y192456D01*
X40810Y192589D02*
X26950Y192589D01*
X26950Y192722D02*
X40810Y192722D01*
X40810Y192855D02*
X26950Y192855D01*
X26950Y192988D02*
X40810Y192988D01*
X40810Y193121D02*
X26950Y193121D01*
X26950Y193254D02*
X40810Y193254D01*
X40810Y193387D02*
X26950Y193387D01*
X26950Y193520D02*
X40810Y193520D01*
X40810Y193653D02*
X26950Y193653D01*
X26950Y193786D02*
X40810Y193786D01*
X40810Y193919D02*
X26950Y193919D01*
X26950Y194052D02*
X40810Y194052D01*
X40810Y194185D02*
X26950Y194185D01*
X26950Y194318D02*
X40810Y194318D01*
X40810Y194451D02*
X26950Y194451D01*
X26950Y194584D02*
X40810Y194584D01*
X40810Y194717D02*
X26950Y194717D01*
X26950Y194850D02*
X40810Y194850D01*
X40810Y194983D02*
X26950Y194983D01*
X26950Y195116D02*
X40810Y195116D01*
X40810Y195249D02*
X26950Y195249D01*
X26950Y195382D02*
X40810Y195382D01*
X40810Y195515D02*
X26950Y195515D01*
X26950Y195648D02*
X40810Y195648D01*
X40810Y195781D02*
X26950Y195781D01*
X26950Y195914D02*
X40810Y195914D01*
X40810Y196047D02*
X26950Y196047D01*
X26950Y196180D02*
X40810Y196180D01*
X40810Y196313D02*
X26950Y196313D01*
X26950Y196446D02*
X40810Y196446D01*
X40810Y196579D02*
X26950Y196579D01*
X26950Y196712D02*
X40810Y196712D01*
X40810Y196845D02*
X26950Y196845D01*
X26950Y196978D02*
X40810Y196978D01*
X40810Y197111D02*
X26950Y197111D01*
X26950Y197244D02*
X40810Y197244D01*
X40810Y197377D02*
X26950Y197377D01*
X26950Y197510D02*
X40810Y197510D01*
X40810Y197643D02*
X26950Y197643D01*
X26950Y197776D02*
X40810Y197776D01*
X40810Y197909D02*
X26950Y197909D01*
X26950Y198042D02*
X40810Y198042D01*
X40810Y198175D02*
X26950Y198175D01*
X26950Y198308D02*
X40810Y198308D01*
X40810Y198441D02*
X26950Y198441D01*
X26950Y198574D02*
X40810Y198574D01*
X40810Y198707D02*
X26950Y198707D01*
X26950Y198840D02*
X40810Y198840D01*
X40810Y198973D02*
X26950Y198973D01*
X26950Y199106D02*
X40810Y199106D01*
X40810Y199239D02*
X26950Y199239D01*
X26950Y199372D02*
X40810Y199372D01*
X40810Y199505D02*
X26950Y199505D01*
X26950Y199638D02*
X40810Y199638D01*
X40810Y199771D02*
X26950Y199771D01*
X26950Y199904D02*
X40810Y199904D01*
X40810Y200037D02*
X26950Y200037D01*
X26950Y200170D02*
X40810Y200170D01*
X40810Y200303D02*
X26950Y200303D01*
X26950Y200436D02*
X40810Y200436D01*
X40810Y200569D02*
X26950Y200569D01*
X26950Y200702D02*
X40810Y200702D01*
X40810Y200835D02*
X26950Y200835D01*
X26950Y200968D02*
X40810Y200968D01*
X40810Y201101D02*
X26950Y201101D01*
X26950Y201234D02*
X40810Y201234D01*
X40810Y201367D02*
X26950Y201367D01*
X26950Y201500D02*
X40810Y201500D01*
X40810Y201633D02*
X26950Y201633D01*
X26950Y201766D02*
X40810Y201766D01*
X40810Y201899D02*
X26950Y201899D01*
X26950Y202032D02*
X40810Y202032D01*
X55390Y202095D02*
X69250Y202095D01*
X69250Y186205D01*
X55390Y186205D01*
X55390Y202095D01*
X55390Y186338D02*
X69250Y186338D01*
X69250Y186471D02*
X55390Y186471D01*
X55390Y186604D02*
X69250Y186604D01*
X69250Y186737D02*
X55390Y186737D01*
X55390Y186870D02*
X69250Y186870D01*
X69250Y187003D02*
X55390Y187003D01*
X55390Y187136D02*
X69250Y187136D01*
X69250Y187269D02*
X55390Y187269D01*
X55390Y187402D02*
X69250Y187402D01*
X69250Y187535D02*
X55390Y187535D01*
X55390Y187668D02*
X69250Y187668D01*
X69250Y187801D02*
X55390Y187801D01*
X55390Y187934D02*
X69250Y187934D01*
X69250Y188067D02*
X55390Y188067D01*
X55390Y188200D02*
X69250Y188200D01*
X69250Y188333D02*
X55390Y188333D01*
X55390Y188466D02*
X69250Y188466D01*
X69250Y188599D02*
X55390Y188599D01*
X55390Y188732D02*
X69250Y188732D01*
X69250Y188865D02*
X55390Y188865D01*
X55390Y188998D02*
X69250Y188998D01*
X69250Y189131D02*
X55390Y189131D01*
X55390Y189264D02*
X69250Y189264D01*
X69250Y189397D02*
X55390Y189397D01*
X55390Y189530D02*
X69250Y189530D01*
X69250Y189663D02*
X55390Y189663D01*
X55390Y189796D02*
X69250Y189796D01*
X69250Y189929D02*
X55390Y189929D01*
X55390Y190062D02*
X69250Y190062D01*
X69250Y190195D02*
X55390Y190195D01*
X55390Y190328D02*
X69250Y190328D01*
X69250Y190461D02*
X55390Y190461D01*
X55390Y190594D02*
X69250Y190594D01*
X69250Y190727D02*
X55390Y190727D01*
X55390Y190860D02*
X69250Y190860D01*
X69250Y190993D02*
X55390Y190993D01*
X55390Y191126D02*
X69250Y191126D01*
X69250Y191259D02*
X55390Y191259D01*
X55390Y191392D02*
X69250Y191392D01*
X69250Y191525D02*
X55390Y191525D01*
X55390Y191658D02*
X69250Y191658D01*
X69250Y191791D02*
X55390Y191791D01*
X55390Y191924D02*
X69250Y191924D01*
X69250Y192057D02*
X55390Y192057D01*
X55390Y192190D02*
X69250Y192190D01*
X69250Y192323D02*
X55390Y192323D01*
X55390Y192456D02*
X69250Y192456D01*
X69250Y192589D02*
X55390Y192589D01*
X55390Y192722D02*
X69250Y192722D01*
X69250Y192855D02*
X55390Y192855D01*
X55390Y192988D02*
X69250Y192988D01*
X69250Y193121D02*
X55390Y193121D01*
X55390Y193254D02*
X69250Y193254D01*
X69250Y193387D02*
X55390Y193387D01*
X55390Y193520D02*
X69250Y193520D01*
X69250Y193653D02*
X55390Y193653D01*
X55390Y193786D02*
X69250Y193786D01*
X69250Y193919D02*
X55390Y193919D01*
X55390Y194052D02*
X69250Y194052D01*
X69250Y194185D02*
X55390Y194185D01*
X55390Y194318D02*
X69250Y194318D01*
X69250Y194451D02*
X55390Y194451D01*
X55390Y194584D02*
X69250Y194584D01*
X69250Y194717D02*
X55390Y194717D01*
X55390Y194850D02*
X69250Y194850D01*
X69250Y194983D02*
X55390Y194983D01*
X55390Y195116D02*
X69250Y195116D01*
X69250Y195249D02*
X55390Y195249D01*
X55390Y195382D02*
X69250Y195382D01*
X69250Y195515D02*
X55390Y195515D01*
X55390Y195648D02*
X69250Y195648D01*
X69250Y195781D02*
X55390Y195781D01*
X55390Y195914D02*
X69250Y195914D01*
X69250Y196047D02*
X55390Y196047D01*
X55390Y196180D02*
X69250Y196180D01*
X69250Y196313D02*
X55390Y196313D01*
X55390Y196446D02*
X69250Y196446D01*
X69250Y196579D02*
X55390Y196579D01*
X55390Y196712D02*
X69250Y196712D01*
X69250Y196845D02*
X55390Y196845D01*
X55390Y196978D02*
X69250Y196978D01*
X69250Y197111D02*
X55390Y197111D01*
X55390Y197244D02*
X69250Y197244D01*
X69250Y197377D02*
X55390Y197377D01*
X55390Y197510D02*
X69250Y197510D01*
X69250Y197643D02*
X55390Y197643D01*
X55390Y197776D02*
X69250Y197776D01*
X69250Y197909D02*
X55390Y197909D01*
X55390Y198042D02*
X69250Y198042D01*
X69250Y198175D02*
X55390Y198175D01*
X55390Y198308D02*
X69250Y198308D01*
X69250Y198441D02*
X55390Y198441D01*
X55390Y198574D02*
X69250Y198574D01*
X69250Y198707D02*
X55390Y198707D01*
X55390Y198840D02*
X69250Y198840D01*
X69250Y198973D02*
X55390Y198973D01*
X55390Y199106D02*
X69250Y199106D01*
X69250Y199239D02*
X55390Y199239D01*
X55390Y199372D02*
X69250Y199372D01*
X69250Y199505D02*
X55390Y199505D01*
X55390Y199638D02*
X69250Y199638D01*
X69250Y199771D02*
X55390Y199771D01*
X55390Y199904D02*
X69250Y199904D01*
X69250Y200037D02*
X55390Y200037D01*
X55390Y200170D02*
X69250Y200170D01*
X69250Y200303D02*
X55390Y200303D01*
X55390Y200436D02*
X69250Y200436D01*
X69250Y200569D02*
X55390Y200569D01*
X55390Y200702D02*
X69250Y200702D01*
X69250Y200835D02*
X55390Y200835D01*
X55390Y200968D02*
X69250Y200968D01*
X69250Y201101D02*
X55390Y201101D01*
X55390Y201234D02*
X69250Y201234D01*
X69250Y201367D02*
X55390Y201367D01*
X55390Y201500D02*
X69250Y201500D01*
X69250Y201633D02*
X55390Y201633D01*
X55390Y201766D02*
X69250Y201766D01*
X69250Y201899D02*
X55390Y201899D01*
X55390Y202032D02*
X69250Y202032D01*
X179350Y227495D02*
X193210Y227495D01*
X193210Y211605D01*
X179350Y211605D01*
X179350Y227495D01*
X179350Y211738D02*
X193210Y211738D01*
X193210Y211871D02*
X179350Y211871D01*
X179350Y212004D02*
X193210Y212004D01*
X193210Y212137D02*
X179350Y212137D01*
X179350Y212270D02*
X193210Y212270D01*
X193210Y212403D02*
X179350Y212403D01*
X179350Y212536D02*
X193210Y212536D01*
X193210Y212669D02*
X179350Y212669D01*
X179350Y212802D02*
X193210Y212802D01*
X193210Y212935D02*
X179350Y212935D01*
X179350Y213068D02*
X193210Y213068D01*
X193210Y213201D02*
X179350Y213201D01*
X179350Y213334D02*
X193210Y213334D01*
X193210Y213467D02*
X179350Y213467D01*
X179350Y213600D02*
X193210Y213600D01*
X193210Y213733D02*
X179350Y213733D01*
X179350Y213866D02*
X193210Y213866D01*
X193210Y213999D02*
X179350Y213999D01*
X179350Y214132D02*
X193210Y214132D01*
X193210Y214265D02*
X179350Y214265D01*
X179350Y214398D02*
X193210Y214398D01*
X193210Y214531D02*
X179350Y214531D01*
X179350Y214664D02*
X193210Y214664D01*
X193210Y214797D02*
X179350Y214797D01*
X179350Y214930D02*
X193210Y214930D01*
X193210Y215063D02*
X179350Y215063D01*
X179350Y215196D02*
X193210Y215196D01*
X193210Y215329D02*
X179350Y215329D01*
X179350Y215462D02*
X193210Y215462D01*
X193210Y215595D02*
X179350Y215595D01*
X179350Y215728D02*
X193210Y215728D01*
X193210Y215861D02*
X179350Y215861D01*
X179350Y215994D02*
X193210Y215994D01*
X193210Y216127D02*
X179350Y216127D01*
X179350Y216260D02*
X193210Y216260D01*
X193210Y216393D02*
X179350Y216393D01*
X179350Y216526D02*
X193210Y216526D01*
X193210Y216659D02*
X179350Y216659D01*
X179350Y216792D02*
X193210Y216792D01*
X193210Y216925D02*
X179350Y216925D01*
X179350Y217058D02*
X193210Y217058D01*
X193210Y217191D02*
X179350Y217191D01*
X179350Y217324D02*
X193210Y217324D01*
X193210Y217457D02*
X179350Y217457D01*
X179350Y217590D02*
X193210Y217590D01*
X193210Y217723D02*
X179350Y217723D01*
X179350Y217856D02*
X193210Y217856D01*
X193210Y217989D02*
X179350Y217989D01*
X179350Y218122D02*
X193210Y218122D01*
X193210Y218255D02*
X179350Y218255D01*
X179350Y218388D02*
X193210Y218388D01*
X193210Y218521D02*
X179350Y218521D01*
X179350Y218654D02*
X193210Y218654D01*
X193210Y218787D02*
X179350Y218787D01*
X179350Y218920D02*
X193210Y218920D01*
X193210Y219053D02*
X179350Y219053D01*
X179350Y219186D02*
X193210Y219186D01*
X193210Y219319D02*
X179350Y219319D01*
X179350Y219452D02*
X193210Y219452D01*
X193210Y219585D02*
X179350Y219585D01*
X179350Y219718D02*
X193210Y219718D01*
X193210Y219851D02*
X179350Y219851D01*
X179350Y219984D02*
X193210Y219984D01*
X193210Y220117D02*
X179350Y220117D01*
X179350Y220250D02*
X193210Y220250D01*
X193210Y220383D02*
X179350Y220383D01*
X179350Y220516D02*
X193210Y220516D01*
X193210Y220649D02*
X179350Y220649D01*
X179350Y220782D02*
X193210Y220782D01*
X193210Y220915D02*
X179350Y220915D01*
X179350Y221048D02*
X193210Y221048D01*
X193210Y221181D02*
X179350Y221181D01*
X179350Y221314D02*
X193210Y221314D01*
X193210Y221447D02*
X179350Y221447D01*
X179350Y221580D02*
X193210Y221580D01*
X193210Y221713D02*
X179350Y221713D01*
X179350Y221846D02*
X193210Y221846D01*
X193210Y221979D02*
X179350Y221979D01*
X179350Y222112D02*
X193210Y222112D01*
X193210Y222245D02*
X179350Y222245D01*
X179350Y222378D02*
X193210Y222378D01*
X193210Y222511D02*
X179350Y222511D01*
X179350Y222644D02*
X193210Y222644D01*
X193210Y222777D02*
X179350Y222777D01*
X179350Y222910D02*
X193210Y222910D01*
X193210Y223043D02*
X179350Y223043D01*
X179350Y223176D02*
X193210Y223176D01*
X193210Y223309D02*
X179350Y223309D01*
X179350Y223442D02*
X193210Y223442D01*
X193210Y223575D02*
X179350Y223575D01*
X179350Y223708D02*
X193210Y223708D01*
X193210Y223841D02*
X179350Y223841D01*
X179350Y223974D02*
X193210Y223974D01*
X193210Y224107D02*
X179350Y224107D01*
X179350Y224240D02*
X193210Y224240D01*
X193210Y224373D02*
X179350Y224373D01*
X179350Y224506D02*
X193210Y224506D01*
X193210Y224639D02*
X179350Y224639D01*
X179350Y224772D02*
X193210Y224772D01*
X193210Y224905D02*
X179350Y224905D01*
X179350Y225038D02*
X193210Y225038D01*
X193210Y225171D02*
X179350Y225171D01*
X179350Y225304D02*
X193210Y225304D01*
X193210Y225437D02*
X179350Y225437D01*
X179350Y225570D02*
X193210Y225570D01*
X193210Y225703D02*
X179350Y225703D01*
X179350Y225836D02*
X193210Y225836D01*
X193210Y225969D02*
X179350Y225969D01*
X179350Y226102D02*
X193210Y226102D01*
X193210Y226235D02*
X179350Y226235D01*
X179350Y226368D02*
X193210Y226368D01*
X193210Y226501D02*
X179350Y226501D01*
X179350Y226634D02*
X193210Y226634D01*
X193210Y226767D02*
X179350Y226767D01*
X179350Y226900D02*
X193210Y226900D01*
X193210Y227033D02*
X179350Y227033D01*
X179350Y227166D02*
X193210Y227166D01*
X193210Y227299D02*
X179350Y227299D01*
X179350Y227432D02*
X193210Y227432D01*
X207790Y227495D02*
X221650Y227495D01*
X221650Y211605D01*
X207790Y211605D01*
X207790Y227495D01*
X207790Y211738D02*
X221650Y211738D01*
X221650Y211871D02*
X207790Y211871D01*
X207790Y212004D02*
X221650Y212004D01*
X221650Y212137D02*
X207790Y212137D01*
X207790Y212270D02*
X221650Y212270D01*
X221650Y212403D02*
X207790Y212403D01*
X207790Y212536D02*
X221650Y212536D01*
X221650Y212669D02*
X207790Y212669D01*
X207790Y212802D02*
X221650Y212802D01*
X221650Y212935D02*
X207790Y212935D01*
X207790Y213068D02*
X221650Y213068D01*
X221650Y213201D02*
X207790Y213201D01*
X207790Y213334D02*
X221650Y213334D01*
X221650Y213467D02*
X207790Y213467D01*
X207790Y213600D02*
X221650Y213600D01*
X221650Y213733D02*
X207790Y213733D01*
X207790Y213866D02*
X221650Y213866D01*
X221650Y213999D02*
X207790Y213999D01*
X207790Y214132D02*
X221650Y214132D01*
X221650Y214265D02*
X207790Y214265D01*
X207790Y214398D02*
X221650Y214398D01*
X221650Y214531D02*
X207790Y214531D01*
X207790Y214664D02*
X221650Y214664D01*
X221650Y214797D02*
X207790Y214797D01*
X207790Y214930D02*
X221650Y214930D01*
X221650Y215063D02*
X207790Y215063D01*
X207790Y215196D02*
X221650Y215196D01*
X221650Y215329D02*
X207790Y215329D01*
X207790Y215462D02*
X221650Y215462D01*
X221650Y215595D02*
X207790Y215595D01*
X207790Y215728D02*
X221650Y215728D01*
X221650Y215861D02*
X207790Y215861D01*
X207790Y215994D02*
X221650Y215994D01*
X221650Y216127D02*
X207790Y216127D01*
X207790Y216260D02*
X221650Y216260D01*
X221650Y216393D02*
X207790Y216393D01*
X207790Y216526D02*
X221650Y216526D01*
X221650Y216659D02*
X207790Y216659D01*
X207790Y216792D02*
X221650Y216792D01*
X221650Y216925D02*
X207790Y216925D01*
X207790Y217058D02*
X221650Y217058D01*
X221650Y217191D02*
X207790Y217191D01*
X207790Y217324D02*
X221650Y217324D01*
X221650Y217457D02*
X207790Y217457D01*
X207790Y217590D02*
X221650Y217590D01*
X221650Y217723D02*
X207790Y217723D01*
X207790Y217856D02*
X221650Y217856D01*
X221650Y217989D02*
X207790Y217989D01*
X207790Y218122D02*
X221650Y218122D01*
X221650Y218255D02*
X207790Y218255D01*
X207790Y218388D02*
X221650Y218388D01*
X221650Y218521D02*
X207790Y218521D01*
X207790Y218654D02*
X221650Y218654D01*
X221650Y218787D02*
X207790Y218787D01*
X207790Y218920D02*
X221650Y218920D01*
X221650Y219053D02*
X207790Y219053D01*
X207790Y219186D02*
X221650Y219186D01*
X221650Y219319D02*
X207790Y219319D01*
X207790Y219452D02*
X221650Y219452D01*
X221650Y219585D02*
X207790Y219585D01*
X207790Y219718D02*
X221650Y219718D01*
X221650Y219851D02*
X207790Y219851D01*
X207790Y219984D02*
X221650Y219984D01*
X221650Y220117D02*
X207790Y220117D01*
X207790Y220250D02*
X221650Y220250D01*
X221650Y220383D02*
X207790Y220383D01*
X207790Y220516D02*
X221650Y220516D01*
X221650Y220649D02*
X207790Y220649D01*
X207790Y220782D02*
X221650Y220782D01*
X221650Y220915D02*
X207790Y220915D01*
X207790Y221048D02*
X221650Y221048D01*
X221650Y221181D02*
X207790Y221181D01*
X207790Y221314D02*
X221650Y221314D01*
X221650Y221447D02*
X207790Y221447D01*
X207790Y221580D02*
X221650Y221580D01*
X221650Y221713D02*
X207790Y221713D01*
X207790Y221846D02*
X221650Y221846D01*
X221650Y221979D02*
X207790Y221979D01*
X207790Y222112D02*
X221650Y222112D01*
X221650Y222245D02*
X207790Y222245D01*
X207790Y222378D02*
X221650Y222378D01*
X221650Y222511D02*
X207790Y222511D01*
X207790Y222644D02*
X221650Y222644D01*
X221650Y222777D02*
X207790Y222777D01*
X207790Y222910D02*
X221650Y222910D01*
X221650Y223043D02*
X207790Y223043D01*
X207790Y223176D02*
X221650Y223176D01*
X221650Y223309D02*
X207790Y223309D01*
X207790Y223442D02*
X221650Y223442D01*
X221650Y223575D02*
X207790Y223575D01*
X207790Y223708D02*
X221650Y223708D01*
X221650Y223841D02*
X207790Y223841D01*
X207790Y223974D02*
X221650Y223974D01*
X221650Y224107D02*
X207790Y224107D01*
X207790Y224240D02*
X221650Y224240D01*
X221650Y224373D02*
X207790Y224373D01*
X207790Y224506D02*
X221650Y224506D01*
X221650Y224639D02*
X207790Y224639D01*
X207790Y224772D02*
X221650Y224772D01*
X221650Y224905D02*
X207790Y224905D01*
X207790Y225038D02*
X221650Y225038D01*
X221650Y225171D02*
X207790Y225171D01*
X207790Y225304D02*
X221650Y225304D01*
X221650Y225437D02*
X207790Y225437D01*
X207790Y225570D02*
X221650Y225570D01*
X221650Y225703D02*
X207790Y225703D01*
X207790Y225836D02*
X221650Y225836D01*
X221650Y225969D02*
X207790Y225969D01*
X207790Y226102D02*
X221650Y226102D01*
X221650Y226235D02*
X207790Y226235D01*
X207790Y226368D02*
X221650Y226368D01*
X221650Y226501D02*
X207790Y226501D01*
X207790Y226634D02*
X221650Y226634D01*
X221650Y226767D02*
X207790Y226767D01*
X207790Y226900D02*
X221650Y226900D01*
X221650Y227033D02*
X207790Y227033D01*
X207790Y227166D02*
X221650Y227166D01*
X221650Y227299D02*
X207790Y227299D01*
X207790Y227432D02*
X221650Y227432D01*
X40810Y163995D02*
X26950Y163995D01*
X40810Y163995D02*
X40810Y148105D01*
X26950Y148105D01*
X26950Y163995D01*
X26950Y148238D02*
X40810Y148238D01*
X40810Y148371D02*
X26950Y148371D01*
X26950Y148504D02*
X40810Y148504D01*
X40810Y148637D02*
X26950Y148637D01*
X26950Y148770D02*
X40810Y148770D01*
X40810Y148903D02*
X26950Y148903D01*
X26950Y149036D02*
X40810Y149036D01*
X40810Y149169D02*
X26950Y149169D01*
X26950Y149302D02*
X40810Y149302D01*
X40810Y149435D02*
X26950Y149435D01*
X26950Y149568D02*
X40810Y149568D01*
X40810Y149701D02*
X26950Y149701D01*
X26950Y149834D02*
X40810Y149834D01*
X40810Y149967D02*
X26950Y149967D01*
X26950Y150100D02*
X40810Y150100D01*
X40810Y150233D02*
X26950Y150233D01*
X26950Y150366D02*
X40810Y150366D01*
X40810Y150499D02*
X26950Y150499D01*
X26950Y150632D02*
X40810Y150632D01*
X40810Y150765D02*
X26950Y150765D01*
X26950Y150898D02*
X40810Y150898D01*
X40810Y151031D02*
X26950Y151031D01*
X26950Y151164D02*
X40810Y151164D01*
X40810Y151297D02*
X26950Y151297D01*
X26950Y151430D02*
X40810Y151430D01*
X40810Y151563D02*
X26950Y151563D01*
X26950Y151696D02*
X40810Y151696D01*
X40810Y151829D02*
X26950Y151829D01*
X26950Y151962D02*
X40810Y151962D01*
X40810Y152095D02*
X26950Y152095D01*
X26950Y152228D02*
X40810Y152228D01*
X40810Y152361D02*
X26950Y152361D01*
X26950Y152494D02*
X40810Y152494D01*
X40810Y152627D02*
X26950Y152627D01*
X26950Y152760D02*
X40810Y152760D01*
X40810Y152893D02*
X26950Y152893D01*
X26950Y153026D02*
X40810Y153026D01*
X40810Y153159D02*
X26950Y153159D01*
X26950Y153292D02*
X40810Y153292D01*
X40810Y153425D02*
X26950Y153425D01*
X26950Y153558D02*
X40810Y153558D01*
X40810Y153691D02*
X26950Y153691D01*
X26950Y153824D02*
X40810Y153824D01*
X40810Y153957D02*
X26950Y153957D01*
X26950Y154090D02*
X40810Y154090D01*
X40810Y154223D02*
X26950Y154223D01*
X26950Y154356D02*
X40810Y154356D01*
X40810Y154489D02*
X26950Y154489D01*
X26950Y154622D02*
X40810Y154622D01*
X40810Y154755D02*
X26950Y154755D01*
X26950Y154888D02*
X40810Y154888D01*
X40810Y155021D02*
X26950Y155021D01*
X26950Y155154D02*
X40810Y155154D01*
X40810Y155287D02*
X26950Y155287D01*
X26950Y155420D02*
X40810Y155420D01*
X40810Y155553D02*
X26950Y155553D01*
X26950Y155686D02*
X40810Y155686D01*
X40810Y155819D02*
X26950Y155819D01*
X26950Y155952D02*
X40810Y155952D01*
X40810Y156085D02*
X26950Y156085D01*
X26950Y156218D02*
X40810Y156218D01*
X40810Y156351D02*
X26950Y156351D01*
X26950Y156484D02*
X40810Y156484D01*
X40810Y156617D02*
X26950Y156617D01*
X26950Y156750D02*
X40810Y156750D01*
X40810Y156883D02*
X26950Y156883D01*
X26950Y157016D02*
X40810Y157016D01*
X40810Y157149D02*
X26950Y157149D01*
X26950Y157282D02*
X40810Y157282D01*
X40810Y157415D02*
X26950Y157415D01*
X26950Y157548D02*
X40810Y157548D01*
X40810Y157681D02*
X26950Y157681D01*
X26950Y157814D02*
X40810Y157814D01*
X40810Y157947D02*
X26950Y157947D01*
X26950Y158080D02*
X40810Y158080D01*
X40810Y158213D02*
X26950Y158213D01*
X26950Y158346D02*
X40810Y158346D01*
X40810Y158479D02*
X26950Y158479D01*
X26950Y158612D02*
X40810Y158612D01*
X40810Y158745D02*
X26950Y158745D01*
X26950Y158878D02*
X40810Y158878D01*
X40810Y159011D02*
X26950Y159011D01*
X26950Y159144D02*
X40810Y159144D01*
X40810Y159277D02*
X26950Y159277D01*
X26950Y159410D02*
X40810Y159410D01*
X40810Y159543D02*
X26950Y159543D01*
X26950Y159676D02*
X40810Y159676D01*
X40810Y159809D02*
X26950Y159809D01*
X26950Y159942D02*
X40810Y159942D01*
X40810Y160075D02*
X26950Y160075D01*
X26950Y160208D02*
X40810Y160208D01*
X40810Y160341D02*
X26950Y160341D01*
X26950Y160474D02*
X40810Y160474D01*
X40810Y160607D02*
X26950Y160607D01*
X26950Y160740D02*
X40810Y160740D01*
X40810Y160873D02*
X26950Y160873D01*
X26950Y161006D02*
X40810Y161006D01*
X40810Y161139D02*
X26950Y161139D01*
X26950Y161272D02*
X40810Y161272D01*
X40810Y161405D02*
X26950Y161405D01*
X26950Y161538D02*
X40810Y161538D01*
X40810Y161671D02*
X26950Y161671D01*
X26950Y161804D02*
X40810Y161804D01*
X40810Y161937D02*
X26950Y161937D01*
X26950Y162070D02*
X40810Y162070D01*
X40810Y162203D02*
X26950Y162203D01*
X26950Y162336D02*
X40810Y162336D01*
X40810Y162469D02*
X26950Y162469D01*
X26950Y162602D02*
X40810Y162602D01*
X40810Y162735D02*
X26950Y162735D01*
X26950Y162868D02*
X40810Y162868D01*
X40810Y163001D02*
X26950Y163001D01*
X26950Y163134D02*
X40810Y163134D01*
X40810Y163267D02*
X26950Y163267D01*
X26950Y163400D02*
X40810Y163400D01*
X40810Y163533D02*
X26950Y163533D01*
X26950Y163666D02*
X40810Y163666D01*
X40810Y163799D02*
X26950Y163799D01*
X26950Y163932D02*
X40810Y163932D01*
X55390Y163995D02*
X69250Y163995D01*
X69250Y148105D01*
X55390Y148105D01*
X55390Y163995D01*
X55390Y148238D02*
X69250Y148238D01*
X69250Y148371D02*
X55390Y148371D01*
X55390Y148504D02*
X69250Y148504D01*
X69250Y148637D02*
X55390Y148637D01*
X55390Y148770D02*
X69250Y148770D01*
X69250Y148903D02*
X55390Y148903D01*
X55390Y149036D02*
X69250Y149036D01*
X69250Y149169D02*
X55390Y149169D01*
X55390Y149302D02*
X69250Y149302D01*
X69250Y149435D02*
X55390Y149435D01*
X55390Y149568D02*
X69250Y149568D01*
X69250Y149701D02*
X55390Y149701D01*
X55390Y149834D02*
X69250Y149834D01*
X69250Y149967D02*
X55390Y149967D01*
X55390Y150100D02*
X69250Y150100D01*
X69250Y150233D02*
X55390Y150233D01*
X55390Y150366D02*
X69250Y150366D01*
X69250Y150499D02*
X55390Y150499D01*
X55390Y150632D02*
X69250Y150632D01*
X69250Y150765D02*
X55390Y150765D01*
X55390Y150898D02*
X69250Y150898D01*
X69250Y151031D02*
X55390Y151031D01*
X55390Y151164D02*
X69250Y151164D01*
X69250Y151297D02*
X55390Y151297D01*
X55390Y151430D02*
X69250Y151430D01*
X69250Y151563D02*
X55390Y151563D01*
X55390Y151696D02*
X69250Y151696D01*
X69250Y151829D02*
X55390Y151829D01*
X55390Y151962D02*
X69250Y151962D01*
X69250Y152095D02*
X55390Y152095D01*
X55390Y152228D02*
X69250Y152228D01*
X69250Y152361D02*
X55390Y152361D01*
X55390Y152494D02*
X69250Y152494D01*
X69250Y152627D02*
X55390Y152627D01*
X55390Y152760D02*
X69250Y152760D01*
X69250Y152893D02*
X55390Y152893D01*
X55390Y153026D02*
X69250Y153026D01*
X69250Y153159D02*
X55390Y153159D01*
X55390Y153292D02*
X69250Y153292D01*
X69250Y153425D02*
X55390Y153425D01*
X55390Y153558D02*
X69250Y153558D01*
X69250Y153691D02*
X55390Y153691D01*
X55390Y153824D02*
X69250Y153824D01*
X69250Y153957D02*
X55390Y153957D01*
X55390Y154090D02*
X69250Y154090D01*
X69250Y154223D02*
X55390Y154223D01*
X55390Y154356D02*
X69250Y154356D01*
X69250Y154489D02*
X55390Y154489D01*
X55390Y154622D02*
X69250Y154622D01*
X69250Y154755D02*
X55390Y154755D01*
X55390Y154888D02*
X69250Y154888D01*
X69250Y155021D02*
X55390Y155021D01*
X55390Y155154D02*
X69250Y155154D01*
X69250Y155287D02*
X55390Y155287D01*
X55390Y155420D02*
X69250Y155420D01*
X69250Y155553D02*
X55390Y155553D01*
X55390Y155686D02*
X69250Y155686D01*
X69250Y155819D02*
X55390Y155819D01*
X55390Y155952D02*
X69250Y155952D01*
X69250Y156085D02*
X55390Y156085D01*
X55390Y156218D02*
X69250Y156218D01*
X69250Y156351D02*
X55390Y156351D01*
X55390Y156484D02*
X69250Y156484D01*
X69250Y156617D02*
X55390Y156617D01*
X55390Y156750D02*
X69250Y156750D01*
X69250Y156883D02*
X55390Y156883D01*
X55390Y157016D02*
X69250Y157016D01*
X69250Y157149D02*
X55390Y157149D01*
X55390Y157282D02*
X69250Y157282D01*
X69250Y157415D02*
X55390Y157415D01*
X55390Y157548D02*
X69250Y157548D01*
X69250Y157681D02*
X55390Y157681D01*
X55390Y157814D02*
X69250Y157814D01*
X69250Y157947D02*
X55390Y157947D01*
X55390Y158080D02*
X69250Y158080D01*
X69250Y158213D02*
X55390Y158213D01*
X55390Y158346D02*
X69250Y158346D01*
X69250Y158479D02*
X55390Y158479D01*
X55390Y158612D02*
X69250Y158612D01*
X69250Y158745D02*
X55390Y158745D01*
X55390Y158878D02*
X69250Y158878D01*
X69250Y159011D02*
X55390Y159011D01*
X55390Y159144D02*
X69250Y159144D01*
X69250Y159277D02*
X55390Y159277D01*
X55390Y159410D02*
X69250Y159410D01*
X69250Y159543D02*
X55390Y159543D01*
X55390Y159676D02*
X69250Y159676D01*
X69250Y159809D02*
X55390Y159809D01*
X55390Y159942D02*
X69250Y159942D01*
X69250Y160075D02*
X55390Y160075D01*
X55390Y160208D02*
X69250Y160208D01*
X69250Y160341D02*
X55390Y160341D01*
X55390Y160474D02*
X69250Y160474D01*
X69250Y160607D02*
X55390Y160607D01*
X55390Y160740D02*
X69250Y160740D01*
X69250Y160873D02*
X55390Y160873D01*
X55390Y161006D02*
X69250Y161006D01*
X69250Y161139D02*
X55390Y161139D01*
X55390Y161272D02*
X69250Y161272D01*
X69250Y161405D02*
X55390Y161405D01*
X55390Y161538D02*
X69250Y161538D01*
X69250Y161671D02*
X55390Y161671D01*
X55390Y161804D02*
X69250Y161804D01*
X69250Y161937D02*
X55390Y161937D01*
X55390Y162070D02*
X69250Y162070D01*
X69250Y162203D02*
X55390Y162203D01*
X55390Y162336D02*
X69250Y162336D01*
X69250Y162469D02*
X55390Y162469D01*
X55390Y162602D02*
X69250Y162602D01*
X69250Y162735D02*
X55390Y162735D01*
X55390Y162868D02*
X69250Y162868D01*
X69250Y163001D02*
X55390Y163001D01*
X55390Y163134D02*
X69250Y163134D01*
X69250Y163267D02*
X55390Y163267D01*
X55390Y163400D02*
X69250Y163400D01*
X69250Y163533D02*
X55390Y163533D01*
X55390Y163666D02*
X69250Y163666D01*
X69250Y163799D02*
X55390Y163799D01*
X55390Y163932D02*
X69250Y163932D01*
M02*
