G04 EAGLE Gerber RS-274X export*
G75*
%MOMM*%
%FSLAX34Y34*%
%LPD*%
%INSoldermask Top*%
%IPPOS*%
%AMOC8*
5,1,8,0,0,1.08239X$1,22.5*%
G01*
%ADD10C,3.000000*%
%ADD11C,0.390000*%
%ADD12C,0.400000*%
%ADD13C,0.396000*%
%ADD14C,1.724000*%


D10*
X30000Y320000D03*
X30000Y30000D03*
X350000Y320000D03*
X350000Y30000D03*
D11*
X295411Y152856D02*
X284315Y152585D01*
X283995Y165680D01*
X295091Y165951D01*
X295411Y152856D01*
X295327Y156290D02*
X284224Y156290D01*
X284134Y159995D02*
X295237Y159995D01*
X295146Y163700D02*
X284043Y163700D01*
X303309Y153049D02*
X314405Y153320D01*
X303309Y153049D02*
X302989Y166144D01*
X314085Y166415D01*
X314405Y153320D01*
X314321Y156754D02*
X303218Y156754D01*
X303128Y160459D02*
X314231Y160459D01*
X314140Y164164D02*
X303037Y164164D01*
X303950Y129050D02*
X315050Y129050D01*
X315050Y115950D01*
X303950Y115950D01*
X303950Y129050D01*
X303950Y119655D02*
X315050Y119655D01*
X315050Y123360D02*
X303950Y123360D01*
X303950Y127065D02*
X315050Y127065D01*
X296050Y129050D02*
X284950Y129050D01*
X296050Y129050D02*
X296050Y115950D01*
X284950Y115950D01*
X284950Y129050D01*
X284950Y119655D02*
X296050Y119655D01*
X296050Y123360D02*
X284950Y123360D01*
X284950Y127065D02*
X296050Y127065D01*
X107850Y33550D02*
X96750Y33550D01*
X107850Y33550D02*
X107850Y20450D01*
X96750Y20450D01*
X96750Y33550D01*
X96750Y24155D02*
X107850Y24155D01*
X107850Y27860D02*
X96750Y27860D01*
X96750Y31565D02*
X107850Y31565D01*
X88850Y33550D02*
X77750Y33550D01*
X88850Y33550D02*
X88850Y20450D01*
X77750Y20450D01*
X77750Y33550D01*
X77750Y24155D02*
X88850Y24155D01*
X88850Y27860D02*
X77750Y27860D01*
X77750Y31565D02*
X88850Y31565D01*
X114950Y110450D02*
X126050Y110450D01*
X114950Y110450D02*
X114950Y123550D01*
X126050Y123550D01*
X126050Y110450D01*
X126050Y114155D02*
X114950Y114155D01*
X114950Y117860D02*
X126050Y117860D01*
X126050Y121565D02*
X114950Y121565D01*
X133950Y110450D02*
X145050Y110450D01*
X133950Y110450D02*
X133950Y123550D01*
X145050Y123550D01*
X145050Y110450D01*
X145050Y114155D02*
X133950Y114155D01*
X133950Y117860D02*
X145050Y117860D01*
X145050Y121565D02*
X133950Y121565D01*
X284350Y192450D02*
X295450Y192450D01*
X284350Y192450D02*
X284350Y205550D01*
X295450Y205550D01*
X295450Y192450D01*
X295450Y196155D02*
X284350Y196155D01*
X284350Y199860D02*
X295450Y199860D01*
X295450Y203565D02*
X284350Y203565D01*
X303350Y192450D02*
X314450Y192450D01*
X303350Y192450D02*
X303350Y205550D01*
X314450Y205550D01*
X314450Y192450D01*
X314450Y196155D02*
X303350Y196155D01*
X303350Y199860D02*
X314450Y199860D01*
X314450Y203565D02*
X303350Y203565D01*
X212250Y78950D02*
X201150Y78950D01*
X201150Y92050D01*
X212250Y92050D01*
X212250Y78950D01*
X212250Y82655D02*
X201150Y82655D01*
X201150Y86360D02*
X212250Y86360D01*
X212250Y90065D02*
X201150Y90065D01*
X220150Y78950D02*
X231250Y78950D01*
X220150Y78950D02*
X220150Y92050D01*
X231250Y92050D01*
X231250Y78950D01*
X231250Y82655D02*
X220150Y82655D01*
X220150Y86360D02*
X231250Y86360D01*
X231250Y90065D02*
X220150Y90065D01*
X285450Y32450D02*
X296550Y32450D01*
X285450Y32450D02*
X285450Y45550D01*
X296550Y45550D01*
X296550Y32450D01*
X296550Y36155D02*
X285450Y36155D01*
X285450Y39860D02*
X296550Y39860D01*
X296550Y43565D02*
X285450Y43565D01*
X304450Y32450D02*
X315550Y32450D01*
X304450Y32450D02*
X304450Y45550D01*
X315550Y45550D01*
X315550Y32450D01*
X315550Y36155D02*
X304450Y36155D01*
X304450Y39860D02*
X315550Y39860D01*
X315550Y43565D02*
X304450Y43565D01*
X303950Y92550D02*
X315050Y92550D01*
X315050Y79450D01*
X303950Y79450D01*
X303950Y92550D01*
X303950Y83155D02*
X315050Y83155D01*
X315050Y86860D02*
X303950Y86860D01*
X303950Y90565D02*
X315050Y90565D01*
X296050Y92550D02*
X284950Y92550D01*
X296050Y92550D02*
X296050Y79450D01*
X284950Y79450D01*
X284950Y92550D01*
X284950Y83155D02*
X296050Y83155D01*
X296050Y86860D02*
X284950Y86860D01*
X284950Y90565D02*
X296050Y90565D01*
D12*
X288800Y257900D02*
X288800Y272900D01*
X288800Y257900D02*
X284800Y257900D01*
X284800Y272900D01*
X288800Y272900D01*
X288800Y261700D02*
X284800Y261700D01*
X284800Y265500D02*
X288800Y265500D01*
X288800Y269300D02*
X284800Y269300D01*
X278800Y272900D02*
X278800Y257900D01*
X274800Y257900D01*
X274800Y272900D01*
X278800Y272900D01*
X278800Y261700D02*
X274800Y261700D01*
X274800Y265500D02*
X278800Y265500D01*
X278800Y269300D02*
X274800Y269300D01*
D13*
X269820Y303880D02*
X269820Y329920D01*
X269820Y303880D02*
X261780Y303880D01*
X261780Y329920D01*
X269820Y329920D01*
X269820Y307642D02*
X261780Y307642D01*
X261780Y311404D02*
X269820Y311404D01*
X269820Y315166D02*
X261780Y315166D01*
X261780Y318928D02*
X269820Y318928D01*
X269820Y322690D02*
X261780Y322690D01*
X261780Y326452D02*
X269820Y326452D01*
X301820Y329920D02*
X301820Y303880D01*
X293780Y303880D01*
X293780Y329920D01*
X301820Y329920D01*
X301820Y307642D02*
X293780Y307642D01*
X293780Y311404D02*
X301820Y311404D01*
X301820Y315166D02*
X293780Y315166D01*
X293780Y318928D02*
X301820Y318928D01*
X301820Y322690D02*
X293780Y322690D01*
X293780Y326452D02*
X301820Y326452D01*
D12*
X176400Y272900D02*
X176400Y257900D01*
X172400Y257900D01*
X172400Y272900D01*
X176400Y272900D01*
X176400Y261700D02*
X172400Y261700D01*
X172400Y265500D02*
X176400Y265500D01*
X176400Y269300D02*
X172400Y269300D01*
X166400Y272900D02*
X166400Y257900D01*
X162400Y257900D01*
X162400Y272900D01*
X166400Y272900D01*
X166400Y261700D02*
X162400Y261700D01*
X162400Y265500D02*
X166400Y265500D01*
X166400Y269300D02*
X162400Y269300D01*
D13*
X157420Y303880D02*
X157420Y329920D01*
X157420Y303880D02*
X149380Y303880D01*
X149380Y329920D01*
X157420Y329920D01*
X157420Y307642D02*
X149380Y307642D01*
X149380Y311404D02*
X157420Y311404D01*
X157420Y315166D02*
X149380Y315166D01*
X149380Y318928D02*
X157420Y318928D01*
X157420Y322690D02*
X149380Y322690D01*
X149380Y326452D02*
X157420Y326452D01*
X189420Y329920D02*
X189420Y303880D01*
X181380Y303880D01*
X181380Y329920D01*
X189420Y329920D01*
X189420Y307642D02*
X181380Y307642D01*
X181380Y311404D02*
X189420Y311404D01*
X189420Y315166D02*
X181380Y315166D01*
X181380Y318928D02*
X189420Y318928D01*
X189420Y322690D02*
X181380Y322690D01*
X181380Y326452D02*
X189420Y326452D01*
D14*
X90082Y101400D02*
X73318Y101400D01*
X73318Y126800D02*
X90082Y126800D01*
X90082Y152200D02*
X73318Y152200D01*
X73318Y177600D02*
X90082Y177600D01*
X167118Y213400D02*
X183882Y213400D01*
X183882Y188000D02*
X167118Y188000D01*
X167118Y162600D02*
X183882Y162600D01*
X183882Y137200D02*
X167118Y137200D01*
X167118Y111800D02*
X183882Y111800D01*
X183882Y86400D02*
X167118Y86400D01*
X167118Y61000D02*
X183882Y61000D01*
X183882Y35600D02*
X167118Y35600D01*
X246918Y35600D02*
X263682Y35600D01*
X263682Y61000D02*
X246918Y61000D01*
X246918Y86400D02*
X263682Y86400D01*
X263682Y111800D02*
X246918Y111800D01*
X246918Y137200D02*
X263682Y137200D01*
X263682Y162600D02*
X246918Y162600D01*
X246918Y188000D02*
X263682Y188000D01*
X263682Y213400D02*
X246918Y213400D01*
D11*
X88450Y51950D02*
X77350Y51950D01*
X77350Y65050D01*
X88450Y65050D01*
X88450Y51950D01*
X88450Y55655D02*
X77350Y55655D01*
X77350Y59360D02*
X88450Y59360D01*
X88450Y63065D02*
X77350Y63065D01*
X96350Y51950D02*
X107450Y51950D01*
X96350Y51950D02*
X96350Y65050D01*
X107450Y65050D01*
X107450Y51950D01*
X107450Y55655D02*
X96350Y55655D01*
X96350Y59360D02*
X107450Y59360D01*
X107450Y63065D02*
X96350Y63065D01*
X114550Y77950D02*
X125650Y77950D01*
X114550Y77950D02*
X114550Y91050D01*
X125650Y91050D01*
X125650Y77950D01*
X125650Y81655D02*
X114550Y81655D01*
X114550Y85360D02*
X125650Y85360D01*
X125650Y89065D02*
X114550Y89065D01*
X133550Y77950D02*
X144650Y77950D01*
X133550Y77950D02*
X133550Y91050D01*
X144650Y91050D01*
X144650Y77950D01*
X144650Y81655D02*
X133550Y81655D01*
X133550Y85360D02*
X144650Y85360D01*
X144650Y89065D02*
X133550Y89065D01*
M02*
