M48
;GenerationSoftware,Autodesk,EAGLE,9.6.1*%
;CreationDate,2020-05-16T20:18:09Z*%
FMAT,2
ICI,OFF
METRIC,TZ,000.000
T3C1.016
T2C2.800
%
G90
M71
T2
X3000Y3000
X35000Y32000
X35000Y3000
X3000Y32000
T3
X25530Y21340
X25530Y18800
X25530Y16260
X25530Y13720
X25530Y11180
X25530Y8640
X25530Y6100
X25530Y3560
X17550Y3560
X17550Y6100
X17550Y8640
X17550Y11180
X17550Y13720
X17550Y16260
X17550Y18800
X17550Y21340
X8170Y17760
X8170Y15220
X8170Y12680
X8170Y10140
M30