M48
;GenerationSoftware,Autodesk,EAGLE,9.6.1*%
;CreationDate,2020-05-16T20:19:35Z*%
FMAT,2
ICI,OFF
METRIC,TZ,000.000
T4C1.000
T3C1.016
T2C2.800
%
G90
M71
T2
X4000Y4000
X50000Y4000
X50000Y63000
X4000Y63000
T3
X48000Y36830
X48000Y39370
X48000Y41910
X48000Y44450
X48000Y46990
X48000Y49530
X11430Y53975
X5080Y28575
X21590Y17145
X15875Y8255
X27305Y17145
X12065Y10160
X43180Y36830
X43180Y39370
X43180Y41910
X43180Y44450
X43180Y46990
X43180Y49530
T4
X22225Y22860
X19685Y25400
X19685Y22860
X22225Y25400
X24765Y22860
X24765Y25400
X35052Y26416
X37338Y26416
X39624Y26416
M30