G04 EAGLE Gerber RS-274X export*
G75*
%MOMM*%
%FSLAX34Y34*%
%LPD*%
%IN*%
%IPPOS*%
%AMOC8*
5,1,8,0,0,1.08239X$1,22.5*%
G01*
%ADD10C,0.254000*%


D10*
X0Y0D02*
X540000Y0D01*
X540000Y670000D01*
X0Y670000D01*
X0Y0D01*
X54000Y629500D02*
X53929Y628503D01*
X53786Y627513D01*
X53574Y626536D01*
X53292Y625576D01*
X52943Y624639D01*
X52527Y623729D01*
X52048Y622852D01*
X51507Y622010D01*
X50908Y621210D01*
X50253Y620454D01*
X49546Y619747D01*
X48790Y619092D01*
X47990Y618493D01*
X47148Y617952D01*
X46271Y617473D01*
X45361Y617057D01*
X44424Y616708D01*
X43465Y616426D01*
X42487Y616214D01*
X41498Y616071D01*
X40500Y616000D01*
X39500Y616000D01*
X38503Y616071D01*
X37513Y616214D01*
X36536Y616426D01*
X35576Y616708D01*
X34639Y617057D01*
X33729Y617473D01*
X32852Y617952D01*
X32010Y618493D01*
X31210Y619092D01*
X30454Y619747D01*
X29747Y620454D01*
X29092Y621210D01*
X28493Y622010D01*
X27952Y622852D01*
X27473Y623729D01*
X27057Y624639D01*
X26708Y625576D01*
X26426Y626536D01*
X26214Y627513D01*
X26071Y628503D01*
X26000Y629500D01*
X26000Y630500D01*
X26071Y631498D01*
X26214Y632487D01*
X26426Y633465D01*
X26708Y634424D01*
X27057Y635361D01*
X27473Y636271D01*
X27952Y637148D01*
X28493Y637990D01*
X29092Y638790D01*
X29747Y639546D01*
X30454Y640253D01*
X31210Y640908D01*
X32010Y641507D01*
X32852Y642048D01*
X33729Y642527D01*
X34639Y642943D01*
X35576Y643292D01*
X36536Y643574D01*
X37513Y643786D01*
X38503Y643929D01*
X39500Y644000D01*
X40500Y644000D01*
X41498Y643929D01*
X42487Y643786D01*
X43465Y643574D01*
X44424Y643292D01*
X45361Y642943D01*
X46271Y642527D01*
X47148Y642048D01*
X47990Y641507D01*
X48790Y640908D01*
X49546Y640253D01*
X50253Y639546D01*
X50908Y638790D01*
X51507Y637990D01*
X52048Y637148D01*
X52527Y636271D01*
X52943Y635361D01*
X53292Y634424D01*
X53574Y633465D01*
X53786Y632487D01*
X53929Y631498D01*
X54000Y630500D01*
X54000Y629500D01*
X54000Y39500D02*
X53929Y38503D01*
X53786Y37513D01*
X53574Y36536D01*
X53292Y35576D01*
X52943Y34639D01*
X52527Y33729D01*
X52048Y32852D01*
X51507Y32010D01*
X50908Y31210D01*
X50253Y30454D01*
X49546Y29747D01*
X48790Y29092D01*
X47990Y28493D01*
X47148Y27952D01*
X46271Y27473D01*
X45361Y27057D01*
X44424Y26708D01*
X43465Y26426D01*
X42487Y26214D01*
X41498Y26071D01*
X40500Y26000D01*
X39500Y26000D01*
X38503Y26071D01*
X37513Y26214D01*
X36536Y26426D01*
X35576Y26708D01*
X34639Y27057D01*
X33729Y27473D01*
X32852Y27952D01*
X32010Y28493D01*
X31210Y29092D01*
X30454Y29747D01*
X29747Y30454D01*
X29092Y31210D01*
X28493Y32010D01*
X27952Y32852D01*
X27473Y33729D01*
X27057Y34639D01*
X26708Y35576D01*
X26426Y36536D01*
X26214Y37513D01*
X26071Y38503D01*
X26000Y39500D01*
X26000Y40500D01*
X26071Y41498D01*
X26214Y42487D01*
X26426Y43465D01*
X26708Y44424D01*
X27057Y45361D01*
X27473Y46271D01*
X27952Y47148D01*
X28493Y47990D01*
X29092Y48790D01*
X29747Y49546D01*
X30454Y50253D01*
X31210Y50908D01*
X32010Y51507D01*
X32852Y52048D01*
X33729Y52527D01*
X34639Y52943D01*
X35576Y53292D01*
X36536Y53574D01*
X37513Y53786D01*
X38503Y53929D01*
X39500Y54000D01*
X40500Y54000D01*
X41498Y53929D01*
X42487Y53786D01*
X43465Y53574D01*
X44424Y53292D01*
X45361Y52943D01*
X46271Y52527D01*
X47148Y52048D01*
X47990Y51507D01*
X48790Y50908D01*
X49546Y50253D01*
X50253Y49546D01*
X50908Y48790D01*
X51507Y47990D01*
X52048Y47148D01*
X52527Y46271D01*
X52943Y45361D01*
X53292Y44424D01*
X53574Y43465D01*
X53786Y42487D01*
X53929Y41498D01*
X54000Y40500D01*
X54000Y39500D01*
X514000Y39500D02*
X513929Y38503D01*
X513786Y37513D01*
X513574Y36536D01*
X513292Y35576D01*
X512943Y34639D01*
X512527Y33729D01*
X512048Y32852D01*
X511507Y32010D01*
X510908Y31210D01*
X510253Y30454D01*
X509546Y29747D01*
X508790Y29092D01*
X507990Y28493D01*
X507148Y27952D01*
X506271Y27473D01*
X505361Y27057D01*
X504424Y26708D01*
X503465Y26426D01*
X502487Y26214D01*
X501498Y26071D01*
X500500Y26000D01*
X499500Y26000D01*
X498503Y26071D01*
X497513Y26214D01*
X496536Y26426D01*
X495576Y26708D01*
X494639Y27057D01*
X493729Y27473D01*
X492852Y27952D01*
X492010Y28493D01*
X491210Y29092D01*
X490454Y29747D01*
X489747Y30454D01*
X489092Y31210D01*
X488493Y32010D01*
X487952Y32852D01*
X487473Y33729D01*
X487057Y34639D01*
X486708Y35576D01*
X486426Y36536D01*
X486214Y37513D01*
X486071Y38503D01*
X486000Y39500D01*
X486000Y40500D01*
X486071Y41498D01*
X486214Y42487D01*
X486426Y43465D01*
X486708Y44424D01*
X487057Y45361D01*
X487473Y46271D01*
X487952Y47148D01*
X488493Y47990D01*
X489092Y48790D01*
X489747Y49546D01*
X490454Y50253D01*
X491210Y50908D01*
X492010Y51507D01*
X492852Y52048D01*
X493729Y52527D01*
X494639Y52943D01*
X495576Y53292D01*
X496536Y53574D01*
X497513Y53786D01*
X498503Y53929D01*
X499500Y54000D01*
X500500Y54000D01*
X501498Y53929D01*
X502487Y53786D01*
X503465Y53574D01*
X504424Y53292D01*
X505361Y52943D01*
X506271Y52527D01*
X507148Y52048D01*
X507990Y51507D01*
X508790Y50908D01*
X509546Y50253D01*
X510253Y49546D01*
X510908Y48790D01*
X511507Y47990D01*
X512048Y47148D01*
X512527Y46271D01*
X512943Y45361D01*
X513292Y44424D01*
X513574Y43465D01*
X513786Y42487D01*
X513929Y41498D01*
X514000Y40500D01*
X514000Y39500D01*
X514000Y629500D02*
X513929Y628503D01*
X513786Y627513D01*
X513574Y626536D01*
X513292Y625576D01*
X512943Y624639D01*
X512527Y623729D01*
X512048Y622852D01*
X511507Y622010D01*
X510908Y621210D01*
X510253Y620454D01*
X509546Y619747D01*
X508790Y619092D01*
X507990Y618493D01*
X507148Y617952D01*
X506271Y617473D01*
X505361Y617057D01*
X504424Y616708D01*
X503465Y616426D01*
X502487Y616214D01*
X501498Y616071D01*
X500500Y616000D01*
X499500Y616000D01*
X498503Y616071D01*
X497513Y616214D01*
X496536Y616426D01*
X495576Y616708D01*
X494639Y617057D01*
X493729Y617473D01*
X492852Y617952D01*
X492010Y618493D01*
X491210Y619092D01*
X490454Y619747D01*
X489747Y620454D01*
X489092Y621210D01*
X488493Y622010D01*
X487952Y622852D01*
X487473Y623729D01*
X487057Y624639D01*
X486708Y625576D01*
X486426Y626536D01*
X486214Y627513D01*
X486071Y628503D01*
X486000Y629500D01*
X486000Y630500D01*
X486071Y631498D01*
X486214Y632487D01*
X486426Y633465D01*
X486708Y634424D01*
X487057Y635361D01*
X487473Y636271D01*
X487952Y637148D01*
X488493Y637990D01*
X489092Y638790D01*
X489747Y639546D01*
X490454Y640253D01*
X491210Y640908D01*
X492010Y641507D01*
X492852Y642048D01*
X493729Y642527D01*
X494639Y642943D01*
X495576Y643292D01*
X496536Y643574D01*
X497513Y643786D01*
X498503Y643929D01*
X499500Y644000D01*
X500500Y644000D01*
X501498Y643929D01*
X502487Y643786D01*
X503465Y643574D01*
X504424Y643292D01*
X505361Y642943D01*
X506271Y642527D01*
X507148Y642048D01*
X507990Y641507D01*
X508790Y640908D01*
X509546Y640253D01*
X510253Y639546D01*
X510908Y638790D01*
X511507Y637990D01*
X512048Y637148D01*
X512527Y636271D01*
X512943Y635361D01*
X513292Y634424D01*
X513574Y633465D01*
X513786Y632487D01*
X513929Y631498D01*
X514000Y630500D01*
X514000Y629500D01*
M02*
