G04 EAGLE Gerber RS-274X export*
G75*
%MOMM*%
%FSLAX34Y34*%
%LPD*%
%INSilkscreen Top*%
%IPPOS*%
%AMOC8*
5,1,8,0,0,1.08239X$1,22.5*%
G01*
%ADD10C,0.101600*%
%ADD11C,0.200000*%
%ADD12C,0.100000*%
%ADD13C,0.400000*%
%ADD14C,0.400000*%
%ADD15R,0.200000X0.200000*%
%ADD16R,0.150000X0.250000*%
%ADD17C,0.254000*%
%ADD18C,0.152400*%
%ADD19C,0.127000*%
%ADD20C,0.203200*%
%ADD21C,0.406400*%


D10*
X221601Y133858D02*
X219004Y133858D01*
X218905Y133860D01*
X218805Y133866D01*
X218706Y133875D01*
X218608Y133888D01*
X218510Y133905D01*
X218412Y133926D01*
X218316Y133951D01*
X218221Y133979D01*
X218127Y134011D01*
X218034Y134046D01*
X217942Y134085D01*
X217852Y134128D01*
X217764Y134173D01*
X217677Y134223D01*
X217593Y134275D01*
X217510Y134331D01*
X217430Y134389D01*
X217352Y134451D01*
X217277Y134516D01*
X217204Y134584D01*
X217134Y134654D01*
X217066Y134727D01*
X217001Y134802D01*
X216939Y134880D01*
X216881Y134960D01*
X216825Y135043D01*
X216773Y135127D01*
X216723Y135214D01*
X216678Y135302D01*
X216635Y135392D01*
X216596Y135484D01*
X216561Y135577D01*
X216529Y135671D01*
X216501Y135766D01*
X216476Y135862D01*
X216455Y135960D01*
X216438Y136058D01*
X216425Y136156D01*
X216416Y136255D01*
X216410Y136355D01*
X216408Y136454D01*
X216408Y142946D01*
X216410Y143045D01*
X216416Y143145D01*
X216425Y143244D01*
X216438Y143342D01*
X216455Y143440D01*
X216476Y143538D01*
X216501Y143634D01*
X216529Y143729D01*
X216561Y143823D01*
X216596Y143916D01*
X216635Y144008D01*
X216678Y144098D01*
X216723Y144186D01*
X216773Y144273D01*
X216825Y144357D01*
X216881Y144440D01*
X216939Y144520D01*
X217001Y144598D01*
X217066Y144673D01*
X217134Y144746D01*
X217204Y144816D01*
X217277Y144884D01*
X217352Y144949D01*
X217430Y145011D01*
X217510Y145069D01*
X217593Y145125D01*
X217677Y145177D01*
X217764Y145227D01*
X217852Y145272D01*
X217942Y145315D01*
X218034Y145354D01*
X218126Y145389D01*
X218221Y145421D01*
X218316Y145449D01*
X218412Y145474D01*
X218510Y145495D01*
X218608Y145512D01*
X218706Y145525D01*
X218805Y145534D01*
X218905Y145540D01*
X219004Y145542D01*
X221601Y145542D01*
X225966Y142946D02*
X229212Y145542D01*
X229212Y133858D01*
X232457Y133858D02*
X225966Y133858D01*
X237397Y139700D02*
X237400Y139930D01*
X237408Y140160D01*
X237422Y140389D01*
X237441Y140618D01*
X237466Y140847D01*
X237496Y141074D01*
X237531Y141302D01*
X237572Y141528D01*
X237618Y141753D01*
X237670Y141977D01*
X237727Y142199D01*
X237789Y142421D01*
X237857Y142640D01*
X237930Y142858D01*
X238008Y143075D01*
X238091Y143289D01*
X238179Y143501D01*
X238272Y143711D01*
X238371Y143919D01*
X238370Y143919D02*
X238403Y144009D01*
X238439Y144098D01*
X238479Y144186D01*
X238523Y144271D01*
X238570Y144355D01*
X238620Y144437D01*
X238674Y144517D01*
X238730Y144594D01*
X238790Y144670D01*
X238853Y144743D01*
X238918Y144813D01*
X238987Y144881D01*
X239058Y144945D01*
X239131Y145007D01*
X239207Y145066D01*
X239285Y145122D01*
X239366Y145175D01*
X239448Y145224D01*
X239532Y145270D01*
X239619Y145313D01*
X239706Y145352D01*
X239796Y145388D01*
X239886Y145420D01*
X239978Y145448D01*
X240071Y145473D01*
X240165Y145494D01*
X240259Y145511D01*
X240354Y145525D01*
X240450Y145534D01*
X240546Y145540D01*
X240642Y145542D01*
X240738Y145540D01*
X240834Y145534D01*
X240930Y145525D01*
X241025Y145511D01*
X241119Y145494D01*
X241213Y145473D01*
X241306Y145448D01*
X241398Y145420D01*
X241488Y145388D01*
X241578Y145352D01*
X241665Y145313D01*
X241752Y145270D01*
X241836Y145224D01*
X241918Y145175D01*
X241999Y145122D01*
X242077Y145066D01*
X242153Y145007D01*
X242226Y144945D01*
X242297Y144881D01*
X242366Y144813D01*
X242431Y144743D01*
X242494Y144670D01*
X242554Y144594D01*
X242610Y144517D01*
X242664Y144437D01*
X242714Y144355D01*
X242761Y144271D01*
X242805Y144186D01*
X242845Y144098D01*
X242881Y144009D01*
X242914Y143919D01*
X243013Y143712D01*
X243106Y143502D01*
X243194Y143289D01*
X243277Y143075D01*
X243355Y142859D01*
X243428Y142641D01*
X243496Y142421D01*
X243558Y142200D01*
X243615Y141977D01*
X243667Y141753D01*
X243713Y141528D01*
X243754Y141302D01*
X243789Y141075D01*
X243819Y140847D01*
X243844Y140618D01*
X243863Y140389D01*
X243877Y140160D01*
X243885Y139930D01*
X243888Y139700D01*
X237396Y139700D02*
X237399Y139470D01*
X237407Y139240D01*
X237421Y139011D01*
X237440Y138782D01*
X237465Y138553D01*
X237495Y138325D01*
X237530Y138098D01*
X237571Y137872D01*
X237617Y137647D01*
X237669Y137423D01*
X237726Y137200D01*
X237788Y136979D01*
X237856Y136759D01*
X237929Y136541D01*
X238007Y136325D01*
X238090Y136111D01*
X238178Y135899D01*
X238271Y135688D01*
X238370Y135481D01*
X238403Y135391D01*
X238439Y135302D01*
X238480Y135214D01*
X238523Y135129D01*
X238570Y135045D01*
X238620Y134963D01*
X238674Y134883D01*
X238730Y134806D01*
X238790Y134730D01*
X238853Y134657D01*
X238918Y134587D01*
X238987Y134519D01*
X239058Y134455D01*
X239131Y134393D01*
X239207Y134334D01*
X239285Y134278D01*
X239366Y134225D01*
X239448Y134176D01*
X239532Y134130D01*
X239619Y134087D01*
X239706Y134048D01*
X239796Y134012D01*
X239886Y133980D01*
X239978Y133952D01*
X240071Y133927D01*
X240165Y133906D01*
X240259Y133889D01*
X240354Y133875D01*
X240450Y133866D01*
X240546Y133860D01*
X240642Y133858D01*
X242914Y135481D02*
X243013Y135688D01*
X243106Y135899D01*
X243194Y136111D01*
X243277Y136325D01*
X243355Y136541D01*
X243428Y136759D01*
X243496Y136979D01*
X243558Y137200D01*
X243615Y137423D01*
X243667Y137647D01*
X243713Y137872D01*
X243754Y138098D01*
X243789Y138325D01*
X243819Y138553D01*
X243844Y138782D01*
X243863Y139011D01*
X243877Y139240D01*
X243885Y139470D01*
X243888Y139700D01*
X242914Y135481D02*
X242881Y135391D01*
X242845Y135302D01*
X242805Y135214D01*
X242761Y135129D01*
X242714Y135045D01*
X242664Y134963D01*
X242610Y134883D01*
X242554Y134806D01*
X242494Y134730D01*
X242431Y134657D01*
X242366Y134587D01*
X242297Y134519D01*
X242226Y134455D01*
X242153Y134393D01*
X242077Y134334D01*
X241999Y134278D01*
X241918Y134225D01*
X241836Y134176D01*
X241752Y134130D01*
X241665Y134087D01*
X241578Y134048D01*
X241488Y134012D01*
X241398Y133980D01*
X241306Y133952D01*
X241213Y133927D01*
X241119Y133906D01*
X241025Y133889D01*
X240930Y133875D01*
X240834Y133866D01*
X240738Y133860D01*
X240642Y133858D01*
X238045Y136454D02*
X243238Y142946D01*
X91506Y324358D02*
X88909Y324358D01*
X88810Y324360D01*
X88710Y324366D01*
X88611Y324375D01*
X88513Y324388D01*
X88415Y324405D01*
X88317Y324426D01*
X88221Y324451D01*
X88126Y324479D01*
X88032Y324511D01*
X87939Y324546D01*
X87847Y324585D01*
X87757Y324628D01*
X87669Y324673D01*
X87582Y324723D01*
X87498Y324775D01*
X87415Y324831D01*
X87335Y324889D01*
X87257Y324951D01*
X87182Y325016D01*
X87109Y325084D01*
X87039Y325154D01*
X86971Y325227D01*
X86906Y325302D01*
X86844Y325380D01*
X86786Y325460D01*
X86730Y325543D01*
X86678Y325627D01*
X86628Y325714D01*
X86583Y325802D01*
X86540Y325892D01*
X86501Y325984D01*
X86466Y326077D01*
X86434Y326171D01*
X86406Y326266D01*
X86381Y326362D01*
X86360Y326460D01*
X86343Y326558D01*
X86330Y326656D01*
X86321Y326755D01*
X86315Y326855D01*
X86313Y326954D01*
X86313Y333446D01*
X86315Y333545D01*
X86321Y333645D01*
X86330Y333744D01*
X86343Y333842D01*
X86360Y333940D01*
X86381Y334038D01*
X86406Y334134D01*
X86434Y334229D01*
X86466Y334323D01*
X86501Y334416D01*
X86540Y334508D01*
X86583Y334598D01*
X86628Y334686D01*
X86678Y334773D01*
X86730Y334857D01*
X86786Y334940D01*
X86844Y335020D01*
X86906Y335098D01*
X86971Y335173D01*
X87039Y335246D01*
X87109Y335316D01*
X87182Y335384D01*
X87257Y335449D01*
X87335Y335511D01*
X87415Y335569D01*
X87498Y335625D01*
X87582Y335677D01*
X87669Y335727D01*
X87757Y335772D01*
X87847Y335815D01*
X87939Y335854D01*
X88031Y335889D01*
X88126Y335921D01*
X88221Y335949D01*
X88317Y335974D01*
X88415Y335995D01*
X88513Y336012D01*
X88611Y336025D01*
X88710Y336034D01*
X88810Y336040D01*
X88909Y336042D01*
X91506Y336042D01*
X95871Y333446D02*
X99116Y336042D01*
X99116Y324358D01*
X95871Y324358D02*
X102362Y324358D01*
X107301Y333446D02*
X110546Y336042D01*
X110546Y324358D01*
X107301Y324358D02*
X113792Y324358D01*
X165109Y102108D02*
X167706Y102108D01*
X165109Y102108D02*
X165010Y102110D01*
X164910Y102116D01*
X164811Y102125D01*
X164713Y102138D01*
X164615Y102155D01*
X164517Y102176D01*
X164421Y102201D01*
X164326Y102229D01*
X164232Y102261D01*
X164139Y102296D01*
X164047Y102335D01*
X163957Y102378D01*
X163869Y102423D01*
X163782Y102473D01*
X163698Y102525D01*
X163615Y102581D01*
X163535Y102639D01*
X163457Y102701D01*
X163382Y102766D01*
X163309Y102834D01*
X163239Y102904D01*
X163171Y102977D01*
X163106Y103052D01*
X163044Y103130D01*
X162986Y103210D01*
X162930Y103293D01*
X162878Y103377D01*
X162828Y103464D01*
X162783Y103552D01*
X162740Y103642D01*
X162701Y103734D01*
X162666Y103827D01*
X162634Y103921D01*
X162606Y104016D01*
X162581Y104112D01*
X162560Y104210D01*
X162543Y104308D01*
X162530Y104406D01*
X162521Y104505D01*
X162515Y104605D01*
X162513Y104704D01*
X162513Y111196D01*
X162515Y111295D01*
X162521Y111395D01*
X162530Y111494D01*
X162543Y111592D01*
X162560Y111690D01*
X162581Y111788D01*
X162606Y111884D01*
X162634Y111979D01*
X162666Y112073D01*
X162701Y112166D01*
X162740Y112258D01*
X162783Y112348D01*
X162828Y112436D01*
X162878Y112523D01*
X162930Y112607D01*
X162986Y112690D01*
X163044Y112770D01*
X163106Y112848D01*
X163171Y112923D01*
X163239Y112996D01*
X163309Y113066D01*
X163382Y113134D01*
X163457Y113199D01*
X163535Y113261D01*
X163615Y113319D01*
X163698Y113375D01*
X163782Y113427D01*
X163869Y113477D01*
X163957Y113522D01*
X164047Y113565D01*
X164139Y113604D01*
X164231Y113639D01*
X164326Y113671D01*
X164421Y113699D01*
X164517Y113724D01*
X164615Y113745D01*
X164713Y113762D01*
X164811Y113775D01*
X164910Y113784D01*
X165010Y113790D01*
X165109Y113792D01*
X167706Y113792D01*
X172071Y111196D02*
X175316Y113792D01*
X175316Y102108D01*
X172071Y102108D02*
X178562Y102108D01*
X189992Y110871D02*
X189990Y110978D01*
X189984Y111084D01*
X189974Y111190D01*
X189961Y111296D01*
X189943Y111402D01*
X189922Y111506D01*
X189897Y111610D01*
X189868Y111713D01*
X189836Y111814D01*
X189799Y111914D01*
X189759Y112013D01*
X189716Y112111D01*
X189669Y112207D01*
X189618Y112301D01*
X189564Y112393D01*
X189507Y112483D01*
X189447Y112571D01*
X189383Y112656D01*
X189316Y112739D01*
X189246Y112820D01*
X189174Y112898D01*
X189098Y112974D01*
X189020Y113046D01*
X188939Y113116D01*
X188856Y113183D01*
X188771Y113247D01*
X188683Y113307D01*
X188593Y113364D01*
X188501Y113418D01*
X188407Y113469D01*
X188311Y113516D01*
X188213Y113559D01*
X188114Y113599D01*
X188014Y113636D01*
X187913Y113668D01*
X187810Y113697D01*
X187706Y113722D01*
X187602Y113743D01*
X187496Y113761D01*
X187390Y113774D01*
X187284Y113784D01*
X187178Y113790D01*
X187071Y113792D01*
X186950Y113790D01*
X186829Y113784D01*
X186709Y113774D01*
X186588Y113761D01*
X186469Y113743D01*
X186349Y113722D01*
X186231Y113697D01*
X186114Y113668D01*
X185997Y113635D01*
X185882Y113599D01*
X185768Y113558D01*
X185655Y113515D01*
X185543Y113467D01*
X185434Y113416D01*
X185326Y113361D01*
X185219Y113303D01*
X185115Y113242D01*
X185013Y113177D01*
X184913Y113109D01*
X184815Y113038D01*
X184719Y112964D01*
X184626Y112887D01*
X184536Y112806D01*
X184448Y112723D01*
X184363Y112637D01*
X184280Y112548D01*
X184201Y112457D01*
X184124Y112363D01*
X184051Y112267D01*
X183981Y112169D01*
X183914Y112068D01*
X183850Y111965D01*
X183790Y111860D01*
X183733Y111753D01*
X183679Y111645D01*
X183629Y111535D01*
X183583Y111423D01*
X183540Y111310D01*
X183501Y111195D01*
X189019Y108599D02*
X189098Y108676D01*
X189174Y108757D01*
X189247Y108840D01*
X189317Y108925D01*
X189384Y109013D01*
X189448Y109103D01*
X189508Y109195D01*
X189565Y109290D01*
X189619Y109386D01*
X189670Y109484D01*
X189717Y109584D01*
X189761Y109686D01*
X189801Y109789D01*
X189837Y109893D01*
X189869Y109999D01*
X189898Y110105D01*
X189923Y110213D01*
X189945Y110321D01*
X189962Y110431D01*
X189976Y110540D01*
X189985Y110650D01*
X189991Y110761D01*
X189993Y110871D01*
X189018Y108599D02*
X183501Y102108D01*
X189992Y102108D01*
X279409Y95758D02*
X282006Y95758D01*
X279409Y95758D02*
X279310Y95760D01*
X279210Y95766D01*
X279111Y95775D01*
X279013Y95788D01*
X278915Y95805D01*
X278817Y95826D01*
X278721Y95851D01*
X278626Y95879D01*
X278532Y95911D01*
X278439Y95946D01*
X278347Y95985D01*
X278257Y96028D01*
X278169Y96073D01*
X278082Y96123D01*
X277998Y96175D01*
X277915Y96231D01*
X277835Y96289D01*
X277757Y96351D01*
X277682Y96416D01*
X277609Y96484D01*
X277539Y96554D01*
X277471Y96627D01*
X277406Y96702D01*
X277344Y96780D01*
X277286Y96860D01*
X277230Y96943D01*
X277178Y97027D01*
X277128Y97114D01*
X277083Y97202D01*
X277040Y97292D01*
X277001Y97384D01*
X276966Y97477D01*
X276934Y97571D01*
X276906Y97666D01*
X276881Y97762D01*
X276860Y97860D01*
X276843Y97958D01*
X276830Y98056D01*
X276821Y98155D01*
X276815Y98255D01*
X276813Y98354D01*
X276813Y104846D01*
X276815Y104945D01*
X276821Y105045D01*
X276830Y105144D01*
X276843Y105242D01*
X276860Y105340D01*
X276881Y105438D01*
X276906Y105534D01*
X276934Y105629D01*
X276966Y105723D01*
X277001Y105816D01*
X277040Y105908D01*
X277083Y105998D01*
X277128Y106086D01*
X277178Y106173D01*
X277230Y106257D01*
X277286Y106340D01*
X277344Y106420D01*
X277406Y106498D01*
X277471Y106573D01*
X277539Y106646D01*
X277609Y106716D01*
X277682Y106784D01*
X277757Y106849D01*
X277835Y106911D01*
X277915Y106969D01*
X277998Y107025D01*
X278082Y107077D01*
X278169Y107127D01*
X278257Y107172D01*
X278347Y107215D01*
X278439Y107254D01*
X278531Y107289D01*
X278626Y107321D01*
X278721Y107349D01*
X278817Y107374D01*
X278915Y107395D01*
X279013Y107412D01*
X279111Y107425D01*
X279210Y107434D01*
X279310Y107440D01*
X279409Y107442D01*
X282006Y107442D01*
X286371Y104846D02*
X289616Y107442D01*
X289616Y95758D01*
X286371Y95758D02*
X292862Y95758D01*
X297801Y95758D02*
X301046Y95758D01*
X301159Y95760D01*
X301272Y95766D01*
X301385Y95776D01*
X301498Y95790D01*
X301610Y95807D01*
X301721Y95829D01*
X301831Y95854D01*
X301941Y95884D01*
X302049Y95917D01*
X302156Y95954D01*
X302262Y95994D01*
X302366Y96039D01*
X302469Y96087D01*
X302570Y96138D01*
X302669Y96193D01*
X302766Y96251D01*
X302861Y96313D01*
X302954Y96378D01*
X303044Y96446D01*
X303132Y96517D01*
X303218Y96592D01*
X303301Y96669D01*
X303381Y96749D01*
X303458Y96832D01*
X303533Y96918D01*
X303604Y97006D01*
X303672Y97096D01*
X303737Y97189D01*
X303799Y97284D01*
X303857Y97381D01*
X303912Y97480D01*
X303963Y97581D01*
X304011Y97684D01*
X304056Y97788D01*
X304096Y97894D01*
X304133Y98001D01*
X304166Y98109D01*
X304196Y98219D01*
X304221Y98329D01*
X304243Y98440D01*
X304260Y98552D01*
X304274Y98665D01*
X304284Y98778D01*
X304290Y98891D01*
X304292Y99004D01*
X304290Y99117D01*
X304284Y99230D01*
X304274Y99343D01*
X304260Y99456D01*
X304243Y99568D01*
X304221Y99679D01*
X304196Y99789D01*
X304166Y99899D01*
X304133Y100007D01*
X304096Y100114D01*
X304056Y100220D01*
X304011Y100324D01*
X303963Y100427D01*
X303912Y100528D01*
X303857Y100627D01*
X303799Y100724D01*
X303737Y100819D01*
X303672Y100912D01*
X303604Y101002D01*
X303533Y101090D01*
X303458Y101176D01*
X303381Y101259D01*
X303301Y101339D01*
X303218Y101416D01*
X303132Y101491D01*
X303044Y101562D01*
X302954Y101630D01*
X302861Y101695D01*
X302766Y101757D01*
X302669Y101815D01*
X302570Y101870D01*
X302469Y101921D01*
X302366Y101969D01*
X302262Y102014D01*
X302156Y102054D01*
X302049Y102091D01*
X301941Y102124D01*
X301831Y102154D01*
X301721Y102179D01*
X301610Y102201D01*
X301498Y102218D01*
X301385Y102232D01*
X301272Y102242D01*
X301159Y102248D01*
X301046Y102250D01*
X301696Y107442D02*
X297801Y107442D01*
X301696Y107442D02*
X301797Y107440D01*
X301897Y107434D01*
X301997Y107424D01*
X302097Y107411D01*
X302196Y107393D01*
X302295Y107372D01*
X302392Y107347D01*
X302489Y107318D01*
X302584Y107285D01*
X302678Y107249D01*
X302770Y107209D01*
X302861Y107166D01*
X302950Y107119D01*
X303037Y107069D01*
X303123Y107015D01*
X303206Y106958D01*
X303286Y106898D01*
X303365Y106835D01*
X303441Y106768D01*
X303514Y106699D01*
X303584Y106627D01*
X303652Y106553D01*
X303717Y106476D01*
X303778Y106396D01*
X303837Y106314D01*
X303892Y106230D01*
X303944Y106144D01*
X303993Y106056D01*
X304038Y105966D01*
X304080Y105874D01*
X304118Y105781D01*
X304152Y105686D01*
X304183Y105591D01*
X304210Y105494D01*
X304233Y105396D01*
X304253Y105297D01*
X304268Y105197D01*
X304280Y105097D01*
X304288Y104997D01*
X304292Y104896D01*
X304292Y104796D01*
X304288Y104695D01*
X304280Y104595D01*
X304268Y104495D01*
X304253Y104395D01*
X304233Y104296D01*
X304210Y104198D01*
X304183Y104101D01*
X304152Y104006D01*
X304118Y103911D01*
X304080Y103818D01*
X304038Y103726D01*
X303993Y103636D01*
X303944Y103548D01*
X303892Y103462D01*
X303837Y103378D01*
X303778Y103296D01*
X303717Y103216D01*
X303652Y103139D01*
X303584Y103065D01*
X303514Y102993D01*
X303441Y102924D01*
X303365Y102857D01*
X303286Y102794D01*
X303206Y102734D01*
X303123Y102677D01*
X303037Y102623D01*
X302950Y102573D01*
X302861Y102526D01*
X302770Y102483D01*
X302678Y102443D01*
X302584Y102407D01*
X302489Y102374D01*
X302392Y102345D01*
X302295Y102320D01*
X302196Y102299D01*
X302097Y102281D01*
X301997Y102268D01*
X301897Y102258D01*
X301797Y102252D01*
X301696Y102250D01*
X301696Y102249D02*
X299099Y102249D01*
X102936Y400558D02*
X100339Y400558D01*
X100240Y400560D01*
X100140Y400566D01*
X100041Y400575D01*
X99943Y400588D01*
X99845Y400605D01*
X99747Y400626D01*
X99651Y400651D01*
X99556Y400679D01*
X99462Y400711D01*
X99369Y400746D01*
X99277Y400785D01*
X99187Y400828D01*
X99099Y400873D01*
X99012Y400923D01*
X98928Y400975D01*
X98845Y401031D01*
X98765Y401089D01*
X98687Y401151D01*
X98612Y401216D01*
X98539Y401284D01*
X98469Y401354D01*
X98401Y401427D01*
X98336Y401502D01*
X98274Y401580D01*
X98216Y401660D01*
X98160Y401743D01*
X98108Y401827D01*
X98058Y401914D01*
X98013Y402002D01*
X97970Y402092D01*
X97931Y402184D01*
X97896Y402277D01*
X97864Y402371D01*
X97836Y402466D01*
X97811Y402562D01*
X97790Y402660D01*
X97773Y402758D01*
X97760Y402856D01*
X97751Y402955D01*
X97745Y403055D01*
X97743Y403154D01*
X97743Y409646D01*
X97745Y409745D01*
X97751Y409845D01*
X97760Y409944D01*
X97773Y410042D01*
X97790Y410140D01*
X97811Y410238D01*
X97836Y410334D01*
X97864Y410429D01*
X97896Y410523D01*
X97931Y410616D01*
X97970Y410708D01*
X98013Y410798D01*
X98058Y410886D01*
X98108Y410973D01*
X98160Y411057D01*
X98216Y411140D01*
X98274Y411220D01*
X98336Y411298D01*
X98401Y411373D01*
X98469Y411446D01*
X98539Y411516D01*
X98612Y411584D01*
X98687Y411649D01*
X98765Y411711D01*
X98845Y411769D01*
X98928Y411825D01*
X99012Y411877D01*
X99099Y411927D01*
X99187Y411972D01*
X99277Y412015D01*
X99369Y412054D01*
X99461Y412089D01*
X99556Y412121D01*
X99651Y412149D01*
X99747Y412174D01*
X99845Y412195D01*
X99943Y412212D01*
X100041Y412225D01*
X100140Y412234D01*
X100240Y412240D01*
X100339Y412242D01*
X102936Y412242D01*
X109897Y405751D02*
X113792Y405751D01*
X109897Y405751D02*
X109798Y405753D01*
X109698Y405759D01*
X109599Y405768D01*
X109501Y405781D01*
X109403Y405798D01*
X109305Y405819D01*
X109209Y405844D01*
X109114Y405872D01*
X109020Y405904D01*
X108927Y405939D01*
X108835Y405978D01*
X108745Y406021D01*
X108657Y406066D01*
X108570Y406116D01*
X108486Y406168D01*
X108403Y406224D01*
X108323Y406282D01*
X108245Y406344D01*
X108170Y406409D01*
X108097Y406477D01*
X108027Y406547D01*
X107959Y406620D01*
X107894Y406695D01*
X107832Y406773D01*
X107774Y406853D01*
X107718Y406936D01*
X107666Y407020D01*
X107616Y407107D01*
X107571Y407195D01*
X107528Y407285D01*
X107489Y407377D01*
X107454Y407470D01*
X107422Y407564D01*
X107394Y407659D01*
X107369Y407755D01*
X107348Y407853D01*
X107331Y407951D01*
X107318Y408049D01*
X107309Y408148D01*
X107303Y408248D01*
X107301Y408347D01*
X107301Y408996D01*
X107300Y408996D02*
X107302Y409109D01*
X107308Y409222D01*
X107318Y409335D01*
X107332Y409448D01*
X107349Y409560D01*
X107371Y409671D01*
X107396Y409781D01*
X107426Y409891D01*
X107459Y409999D01*
X107496Y410106D01*
X107536Y410212D01*
X107581Y410316D01*
X107629Y410419D01*
X107680Y410520D01*
X107735Y410619D01*
X107793Y410716D01*
X107855Y410811D01*
X107920Y410904D01*
X107988Y410994D01*
X108059Y411082D01*
X108134Y411168D01*
X108211Y411251D01*
X108291Y411331D01*
X108374Y411408D01*
X108460Y411483D01*
X108548Y411554D01*
X108638Y411622D01*
X108731Y411687D01*
X108826Y411749D01*
X108923Y411807D01*
X109022Y411862D01*
X109123Y411913D01*
X109226Y411961D01*
X109330Y412006D01*
X109436Y412046D01*
X109543Y412083D01*
X109651Y412116D01*
X109761Y412146D01*
X109871Y412171D01*
X109982Y412193D01*
X110094Y412210D01*
X110207Y412224D01*
X110320Y412234D01*
X110433Y412240D01*
X110546Y412242D01*
X110659Y412240D01*
X110772Y412234D01*
X110885Y412224D01*
X110998Y412210D01*
X111110Y412193D01*
X111221Y412171D01*
X111331Y412146D01*
X111441Y412116D01*
X111549Y412083D01*
X111656Y412046D01*
X111762Y412006D01*
X111866Y411961D01*
X111969Y411913D01*
X112070Y411862D01*
X112169Y411807D01*
X112266Y411749D01*
X112361Y411687D01*
X112454Y411622D01*
X112544Y411554D01*
X112632Y411483D01*
X112718Y411408D01*
X112801Y411331D01*
X112881Y411251D01*
X112958Y411168D01*
X113033Y411082D01*
X113104Y410994D01*
X113172Y410904D01*
X113237Y410811D01*
X113299Y410716D01*
X113357Y410619D01*
X113412Y410520D01*
X113463Y410419D01*
X113511Y410316D01*
X113556Y410212D01*
X113596Y410106D01*
X113633Y409999D01*
X113666Y409891D01*
X113696Y409781D01*
X113721Y409671D01*
X113743Y409560D01*
X113760Y409448D01*
X113774Y409335D01*
X113784Y409222D01*
X113790Y409109D01*
X113792Y408996D01*
X113792Y405751D01*
X113790Y405608D01*
X113784Y405465D01*
X113774Y405322D01*
X113760Y405180D01*
X113743Y405038D01*
X113721Y404896D01*
X113696Y404755D01*
X113666Y404615D01*
X113633Y404476D01*
X113596Y404338D01*
X113555Y404201D01*
X113511Y404065D01*
X113462Y403930D01*
X113410Y403797D01*
X113355Y403665D01*
X113295Y403535D01*
X113232Y403406D01*
X113166Y403279D01*
X113096Y403154D01*
X113023Y403032D01*
X112946Y402911D01*
X112866Y402792D01*
X112783Y402676D01*
X112697Y402561D01*
X112608Y402450D01*
X112515Y402340D01*
X112420Y402234D01*
X112321Y402130D01*
X112220Y402029D01*
X112116Y401930D01*
X112010Y401835D01*
X111900Y401742D01*
X111789Y401653D01*
X111674Y401567D01*
X111558Y401484D01*
X111439Y401404D01*
X111318Y401327D01*
X111195Y401254D01*
X111071Y401184D01*
X110944Y401118D01*
X110815Y401055D01*
X110685Y400995D01*
X110553Y400940D01*
X110420Y400888D01*
X110285Y400839D01*
X110149Y400795D01*
X110012Y400754D01*
X109874Y400717D01*
X109735Y400684D01*
X109595Y400654D01*
X109454Y400629D01*
X109312Y400607D01*
X109170Y400590D01*
X109028Y400576D01*
X108885Y400566D01*
X108742Y400560D01*
X108599Y400558D01*
D11*
X68300Y458950D02*
X68300Y518950D01*
X68300Y458950D02*
X33300Y458950D01*
X33300Y518950D01*
X68300Y518950D01*
X49268Y552690D02*
X49270Y552733D01*
X49276Y552775D01*
X49286Y552816D01*
X49299Y552857D01*
X49316Y552896D01*
X49337Y552933D01*
X49361Y552968D01*
X49389Y553001D01*
X49419Y553031D01*
X49452Y553059D01*
X49487Y553083D01*
X49524Y553104D01*
X49563Y553121D01*
X49604Y553134D01*
X49645Y553144D01*
X49687Y553150D01*
X49730Y553152D01*
X49773Y553150D01*
X49815Y553144D01*
X49856Y553134D01*
X49897Y553121D01*
X49936Y553104D01*
X49973Y553083D01*
X50008Y553059D01*
X50041Y553031D01*
X50071Y553001D01*
X50099Y552968D01*
X50123Y552933D01*
X50144Y552896D01*
X50161Y552857D01*
X50174Y552816D01*
X50184Y552775D01*
X50190Y552733D01*
X50192Y552690D01*
X50190Y552647D01*
X50184Y552605D01*
X50174Y552564D01*
X50161Y552523D01*
X50144Y552484D01*
X50123Y552447D01*
X50099Y552412D01*
X50071Y552379D01*
X50041Y552349D01*
X50008Y552321D01*
X49973Y552297D01*
X49936Y552276D01*
X49897Y552259D01*
X49856Y552246D01*
X49815Y552236D01*
X49773Y552230D01*
X49730Y552228D01*
X49687Y552230D01*
X49645Y552236D01*
X49604Y552246D01*
X49563Y552259D01*
X49524Y552276D01*
X49487Y552297D01*
X49452Y552321D01*
X49419Y552349D01*
X49389Y552379D01*
X49361Y552412D01*
X49337Y552447D01*
X49316Y552484D01*
X49299Y552523D01*
X49286Y552564D01*
X49276Y552605D01*
X49270Y552647D01*
X49268Y552690D01*
D10*
X63842Y462776D02*
X63842Y457583D01*
X52158Y457583D01*
X52158Y462776D01*
X57351Y461477D02*
X57351Y457583D01*
X52158Y467466D02*
X63842Y467466D01*
X63842Y473957D02*
X52158Y467466D01*
X52158Y473957D02*
X63842Y473957D01*
D12*
X157800Y553550D02*
X157800Y620550D01*
X338800Y620550D01*
X337800Y620550D02*
X337800Y555550D01*
X337800Y311550D02*
X337800Y306550D01*
X157800Y306550D01*
X157800Y311550D01*
D13*
X144800Y547550D03*
D14*
X144798Y547506D01*
X144792Y547463D01*
X144783Y547421D01*
X144770Y547379D01*
X144753Y547339D01*
X144733Y547300D01*
X144710Y547263D01*
X144683Y547229D01*
X144654Y547196D01*
X144621Y547167D01*
X144587Y547140D01*
X144550Y547117D01*
X144511Y547097D01*
X144471Y547080D01*
X144429Y547067D01*
X144387Y547058D01*
X144344Y547052D01*
X144300Y547050D01*
X144256Y547052D01*
X144213Y547058D01*
X144171Y547067D01*
X144129Y547080D01*
X144089Y547097D01*
X144050Y547117D01*
X144013Y547140D01*
X143979Y547167D01*
X143946Y547196D01*
X143917Y547229D01*
X143890Y547263D01*
X143867Y547300D01*
X143847Y547339D01*
X143830Y547379D01*
X143817Y547421D01*
X143808Y547463D01*
X143802Y547506D01*
X143800Y547550D01*
D13*
X143800Y547550D03*
D14*
X143802Y547594D01*
X143808Y547637D01*
X143817Y547679D01*
X143830Y547721D01*
X143847Y547761D01*
X143867Y547800D01*
X143890Y547837D01*
X143917Y547871D01*
X143946Y547904D01*
X143979Y547933D01*
X144013Y547960D01*
X144050Y547983D01*
X144089Y548003D01*
X144129Y548020D01*
X144171Y548033D01*
X144213Y548042D01*
X144256Y548048D01*
X144300Y548050D01*
X144344Y548048D01*
X144387Y548042D01*
X144429Y548033D01*
X144471Y548020D01*
X144511Y548003D01*
X144550Y547983D01*
X144587Y547960D01*
X144621Y547933D01*
X144654Y547904D01*
X144683Y547871D01*
X144710Y547837D01*
X144733Y547800D01*
X144753Y547761D01*
X144770Y547721D01*
X144783Y547679D01*
X144792Y547637D01*
X144798Y547594D01*
X144800Y547550D01*
D10*
X232992Y469392D02*
X232992Y457708D01*
X231694Y457708D02*
X234290Y457708D01*
X234290Y469392D02*
X231694Y469392D01*
X241454Y457708D02*
X244050Y457708D01*
X241454Y457708D02*
X241355Y457710D01*
X241255Y457716D01*
X241156Y457725D01*
X241058Y457738D01*
X240960Y457755D01*
X240862Y457776D01*
X240766Y457801D01*
X240671Y457829D01*
X240577Y457861D01*
X240484Y457896D01*
X240392Y457935D01*
X240302Y457978D01*
X240214Y458023D01*
X240127Y458073D01*
X240043Y458125D01*
X239960Y458181D01*
X239880Y458239D01*
X239802Y458301D01*
X239727Y458366D01*
X239654Y458434D01*
X239584Y458504D01*
X239516Y458577D01*
X239451Y458652D01*
X239389Y458730D01*
X239331Y458810D01*
X239275Y458893D01*
X239223Y458977D01*
X239173Y459064D01*
X239128Y459152D01*
X239085Y459242D01*
X239046Y459334D01*
X239011Y459427D01*
X238979Y459521D01*
X238951Y459616D01*
X238926Y459712D01*
X238905Y459810D01*
X238888Y459908D01*
X238875Y460006D01*
X238866Y460105D01*
X238860Y460205D01*
X238858Y460304D01*
X238857Y460304D02*
X238857Y466796D01*
X238858Y466796D02*
X238860Y466895D01*
X238866Y466995D01*
X238875Y467094D01*
X238888Y467192D01*
X238905Y467290D01*
X238926Y467388D01*
X238951Y467484D01*
X238979Y467579D01*
X239011Y467673D01*
X239046Y467766D01*
X239085Y467858D01*
X239128Y467948D01*
X239173Y468036D01*
X239223Y468123D01*
X239275Y468207D01*
X239331Y468290D01*
X239389Y468370D01*
X239451Y468448D01*
X239516Y468523D01*
X239584Y468596D01*
X239654Y468666D01*
X239727Y468734D01*
X239802Y468799D01*
X239880Y468861D01*
X239960Y468919D01*
X240043Y468975D01*
X240127Y469027D01*
X240214Y469077D01*
X240302Y469122D01*
X240392Y469165D01*
X240484Y469204D01*
X240576Y469239D01*
X240671Y469271D01*
X240766Y469299D01*
X240862Y469324D01*
X240960Y469345D01*
X241058Y469362D01*
X241156Y469375D01*
X241255Y469384D01*
X241355Y469390D01*
X241454Y469392D01*
X244050Y469392D01*
X248415Y464199D02*
X252310Y464199D01*
X252409Y464197D01*
X252509Y464191D01*
X252608Y464182D01*
X252706Y464169D01*
X252804Y464152D01*
X252902Y464131D01*
X252998Y464106D01*
X253093Y464078D01*
X253187Y464046D01*
X253280Y464011D01*
X253372Y463972D01*
X253462Y463929D01*
X253550Y463884D01*
X253637Y463834D01*
X253721Y463782D01*
X253804Y463726D01*
X253884Y463668D01*
X253962Y463606D01*
X254037Y463541D01*
X254110Y463473D01*
X254180Y463403D01*
X254248Y463330D01*
X254313Y463255D01*
X254375Y463177D01*
X254433Y463097D01*
X254489Y463014D01*
X254541Y462930D01*
X254591Y462843D01*
X254636Y462755D01*
X254679Y462665D01*
X254718Y462573D01*
X254753Y462480D01*
X254785Y462386D01*
X254813Y462291D01*
X254838Y462195D01*
X254859Y462097D01*
X254876Y461999D01*
X254889Y461901D01*
X254898Y461802D01*
X254904Y461702D01*
X254906Y461603D01*
X254906Y460954D01*
X254907Y460954D02*
X254905Y460841D01*
X254899Y460728D01*
X254889Y460615D01*
X254875Y460502D01*
X254858Y460390D01*
X254836Y460279D01*
X254811Y460169D01*
X254781Y460059D01*
X254748Y459951D01*
X254711Y459844D01*
X254671Y459738D01*
X254626Y459634D01*
X254578Y459531D01*
X254527Y459430D01*
X254472Y459331D01*
X254414Y459234D01*
X254352Y459139D01*
X254287Y459046D01*
X254219Y458956D01*
X254148Y458868D01*
X254073Y458782D01*
X253996Y458699D01*
X253916Y458619D01*
X253833Y458542D01*
X253747Y458467D01*
X253659Y458396D01*
X253569Y458328D01*
X253476Y458263D01*
X253381Y458201D01*
X253284Y458143D01*
X253185Y458088D01*
X253084Y458037D01*
X252981Y457989D01*
X252877Y457944D01*
X252771Y457904D01*
X252664Y457867D01*
X252556Y457834D01*
X252446Y457804D01*
X252336Y457779D01*
X252225Y457757D01*
X252113Y457740D01*
X252000Y457726D01*
X251887Y457716D01*
X251774Y457710D01*
X251661Y457708D01*
X251548Y457710D01*
X251435Y457716D01*
X251322Y457726D01*
X251209Y457740D01*
X251097Y457757D01*
X250986Y457779D01*
X250876Y457804D01*
X250766Y457834D01*
X250658Y457867D01*
X250551Y457904D01*
X250445Y457944D01*
X250341Y457989D01*
X250238Y458037D01*
X250137Y458088D01*
X250038Y458143D01*
X249941Y458201D01*
X249846Y458263D01*
X249753Y458328D01*
X249663Y458396D01*
X249575Y458467D01*
X249489Y458542D01*
X249406Y458619D01*
X249326Y458699D01*
X249249Y458782D01*
X249174Y458868D01*
X249103Y458956D01*
X249035Y459046D01*
X248970Y459139D01*
X248908Y459234D01*
X248850Y459331D01*
X248795Y459430D01*
X248744Y459531D01*
X248696Y459634D01*
X248651Y459738D01*
X248611Y459844D01*
X248574Y459951D01*
X248541Y460059D01*
X248511Y460169D01*
X248486Y460279D01*
X248464Y460390D01*
X248447Y460502D01*
X248433Y460615D01*
X248423Y460728D01*
X248417Y460841D01*
X248415Y460954D01*
X248415Y464199D01*
X248417Y464342D01*
X248423Y464485D01*
X248433Y464628D01*
X248447Y464770D01*
X248464Y464912D01*
X248486Y465054D01*
X248511Y465195D01*
X248541Y465335D01*
X248574Y465474D01*
X248611Y465612D01*
X248652Y465749D01*
X248696Y465885D01*
X248745Y466020D01*
X248797Y466153D01*
X248852Y466285D01*
X248912Y466415D01*
X248975Y466544D01*
X249041Y466671D01*
X249111Y466795D01*
X249184Y466918D01*
X249261Y467039D01*
X249341Y467158D01*
X249424Y467274D01*
X249510Y467389D01*
X249599Y467500D01*
X249692Y467610D01*
X249787Y467716D01*
X249886Y467820D01*
X249987Y467921D01*
X250091Y468020D01*
X250197Y468115D01*
X250307Y468208D01*
X250418Y468297D01*
X250533Y468383D01*
X250649Y468466D01*
X250768Y468546D01*
X250889Y468623D01*
X251011Y468696D01*
X251136Y468766D01*
X251263Y468832D01*
X251392Y468895D01*
X251522Y468955D01*
X251654Y469010D01*
X251787Y469062D01*
X251922Y469111D01*
X252058Y469155D01*
X252195Y469196D01*
X252333Y469233D01*
X252472Y469266D01*
X252612Y469296D01*
X252753Y469321D01*
X252895Y469343D01*
X253037Y469360D01*
X253179Y469374D01*
X253322Y469384D01*
X253465Y469390D01*
X253608Y469392D01*
D11*
X312100Y78550D02*
X312100Y18550D01*
X262100Y18550D02*
X262100Y78550D01*
X281280Y94460D02*
X281282Y94500D01*
X281288Y94539D01*
X281298Y94578D01*
X281311Y94615D01*
X281329Y94651D01*
X281350Y94685D01*
X281374Y94717D01*
X281401Y94746D01*
X281431Y94773D01*
X281463Y94796D01*
X281498Y94816D01*
X281534Y94832D01*
X281572Y94845D01*
X281611Y94854D01*
X281650Y94859D01*
X281690Y94860D01*
X281730Y94857D01*
X281769Y94850D01*
X281807Y94839D01*
X281845Y94825D01*
X281880Y94806D01*
X281913Y94785D01*
X281945Y94760D01*
X281973Y94732D01*
X281999Y94702D01*
X282021Y94669D01*
X282040Y94634D01*
X282056Y94597D01*
X282068Y94559D01*
X282076Y94520D01*
X282080Y94480D01*
X282080Y94440D01*
X282076Y94400D01*
X282068Y94361D01*
X282056Y94323D01*
X282040Y94286D01*
X282021Y94251D01*
X281999Y94218D01*
X281973Y94188D01*
X281945Y94160D01*
X281913Y94135D01*
X281880Y94114D01*
X281845Y94095D01*
X281807Y94081D01*
X281769Y94070D01*
X281730Y94063D01*
X281690Y94060D01*
X281650Y94061D01*
X281611Y94066D01*
X281572Y94075D01*
X281534Y94088D01*
X281498Y94104D01*
X281463Y94124D01*
X281431Y94147D01*
X281401Y94174D01*
X281374Y94203D01*
X281350Y94235D01*
X281329Y94269D01*
X281311Y94305D01*
X281298Y94342D01*
X281288Y94381D01*
X281282Y94420D01*
X281280Y94460D01*
X299450Y78550D02*
X312100Y78550D01*
X274750Y78550D02*
X262100Y78550D01*
X279190Y18550D02*
X295010Y18550D01*
D10*
X287155Y49814D02*
X287155Y58902D01*
X287155Y49814D02*
X287153Y49715D01*
X287147Y49615D01*
X287138Y49516D01*
X287125Y49418D01*
X287108Y49320D01*
X287087Y49222D01*
X287062Y49126D01*
X287034Y49031D01*
X287002Y48937D01*
X286967Y48844D01*
X286928Y48752D01*
X286885Y48662D01*
X286840Y48574D01*
X286790Y48487D01*
X286738Y48403D01*
X286682Y48320D01*
X286624Y48240D01*
X286562Y48162D01*
X286497Y48087D01*
X286429Y48014D01*
X286359Y47944D01*
X286286Y47876D01*
X286211Y47811D01*
X286133Y47749D01*
X286053Y47691D01*
X285970Y47635D01*
X285886Y47583D01*
X285799Y47533D01*
X285711Y47488D01*
X285621Y47445D01*
X285529Y47406D01*
X285436Y47371D01*
X285342Y47339D01*
X285247Y47311D01*
X285151Y47286D01*
X285053Y47265D01*
X284955Y47248D01*
X284857Y47235D01*
X284758Y47226D01*
X284658Y47220D01*
X284559Y47218D01*
X283260Y47218D01*
X292428Y47218D02*
X295674Y47218D01*
X295787Y47220D01*
X295900Y47226D01*
X296013Y47236D01*
X296126Y47250D01*
X296238Y47267D01*
X296349Y47289D01*
X296459Y47314D01*
X296569Y47344D01*
X296677Y47377D01*
X296784Y47414D01*
X296890Y47454D01*
X296994Y47499D01*
X297097Y47547D01*
X297198Y47598D01*
X297297Y47653D01*
X297394Y47711D01*
X297489Y47773D01*
X297582Y47838D01*
X297672Y47906D01*
X297760Y47977D01*
X297846Y48052D01*
X297929Y48129D01*
X298009Y48209D01*
X298086Y48292D01*
X298161Y48378D01*
X298232Y48466D01*
X298300Y48556D01*
X298365Y48649D01*
X298427Y48744D01*
X298485Y48841D01*
X298540Y48940D01*
X298591Y49041D01*
X298639Y49144D01*
X298684Y49248D01*
X298724Y49354D01*
X298761Y49461D01*
X298794Y49569D01*
X298824Y49679D01*
X298849Y49789D01*
X298871Y49900D01*
X298888Y50012D01*
X298902Y50125D01*
X298912Y50238D01*
X298918Y50351D01*
X298920Y50464D01*
X298918Y50577D01*
X298912Y50690D01*
X298902Y50803D01*
X298888Y50916D01*
X298871Y51028D01*
X298849Y51139D01*
X298824Y51249D01*
X298794Y51359D01*
X298761Y51467D01*
X298724Y51574D01*
X298684Y51680D01*
X298639Y51784D01*
X298591Y51887D01*
X298540Y51988D01*
X298485Y52087D01*
X298427Y52184D01*
X298365Y52279D01*
X298300Y52372D01*
X298232Y52462D01*
X298161Y52550D01*
X298086Y52636D01*
X298009Y52719D01*
X297929Y52799D01*
X297846Y52876D01*
X297760Y52951D01*
X297672Y53022D01*
X297582Y53090D01*
X297489Y53155D01*
X297394Y53217D01*
X297297Y53275D01*
X297198Y53330D01*
X297097Y53381D01*
X296994Y53429D01*
X296890Y53474D01*
X296784Y53514D01*
X296677Y53551D01*
X296569Y53584D01*
X296459Y53614D01*
X296349Y53639D01*
X296238Y53661D01*
X296126Y53678D01*
X296013Y53692D01*
X295900Y53702D01*
X295787Y53708D01*
X295674Y53710D01*
X296323Y58902D02*
X292428Y58902D01*
X296323Y58902D02*
X296424Y58900D01*
X296524Y58894D01*
X296624Y58884D01*
X296724Y58871D01*
X296823Y58853D01*
X296922Y58832D01*
X297019Y58807D01*
X297116Y58778D01*
X297211Y58745D01*
X297305Y58709D01*
X297397Y58669D01*
X297488Y58626D01*
X297577Y58579D01*
X297664Y58529D01*
X297750Y58475D01*
X297833Y58418D01*
X297913Y58358D01*
X297992Y58295D01*
X298068Y58228D01*
X298141Y58159D01*
X298211Y58087D01*
X298279Y58013D01*
X298344Y57936D01*
X298405Y57856D01*
X298464Y57774D01*
X298519Y57690D01*
X298571Y57604D01*
X298620Y57516D01*
X298665Y57426D01*
X298707Y57334D01*
X298745Y57241D01*
X298779Y57146D01*
X298810Y57051D01*
X298837Y56954D01*
X298860Y56856D01*
X298880Y56757D01*
X298895Y56657D01*
X298907Y56557D01*
X298915Y56457D01*
X298919Y56356D01*
X298919Y56256D01*
X298915Y56155D01*
X298907Y56055D01*
X298895Y55955D01*
X298880Y55855D01*
X298860Y55756D01*
X298837Y55658D01*
X298810Y55561D01*
X298779Y55466D01*
X298745Y55371D01*
X298707Y55278D01*
X298665Y55186D01*
X298620Y55096D01*
X298571Y55008D01*
X298519Y54922D01*
X298464Y54838D01*
X298405Y54756D01*
X298344Y54676D01*
X298279Y54599D01*
X298211Y54525D01*
X298141Y54453D01*
X298068Y54384D01*
X297992Y54317D01*
X297913Y54254D01*
X297833Y54194D01*
X297750Y54137D01*
X297664Y54083D01*
X297577Y54033D01*
X297488Y53986D01*
X297397Y53943D01*
X297305Y53903D01*
X297211Y53867D01*
X297116Y53834D01*
X297019Y53805D01*
X296922Y53780D01*
X296823Y53759D01*
X296724Y53741D01*
X296624Y53728D01*
X296524Y53718D01*
X296424Y53712D01*
X296323Y53710D01*
X296323Y53709D02*
X293727Y53709D01*
D11*
X235900Y78550D02*
X235900Y18550D01*
X185900Y18550D02*
X185900Y78550D01*
X205080Y94460D02*
X205082Y94500D01*
X205088Y94539D01*
X205098Y94578D01*
X205111Y94615D01*
X205129Y94651D01*
X205150Y94685D01*
X205174Y94717D01*
X205201Y94746D01*
X205231Y94773D01*
X205263Y94796D01*
X205298Y94816D01*
X205334Y94832D01*
X205372Y94845D01*
X205411Y94854D01*
X205450Y94859D01*
X205490Y94860D01*
X205530Y94857D01*
X205569Y94850D01*
X205607Y94839D01*
X205645Y94825D01*
X205680Y94806D01*
X205713Y94785D01*
X205745Y94760D01*
X205773Y94732D01*
X205799Y94702D01*
X205821Y94669D01*
X205840Y94634D01*
X205856Y94597D01*
X205868Y94559D01*
X205876Y94520D01*
X205880Y94480D01*
X205880Y94440D01*
X205876Y94400D01*
X205868Y94361D01*
X205856Y94323D01*
X205840Y94286D01*
X205821Y94251D01*
X205799Y94218D01*
X205773Y94188D01*
X205745Y94160D01*
X205713Y94135D01*
X205680Y94114D01*
X205645Y94095D01*
X205607Y94081D01*
X205569Y94070D01*
X205530Y94063D01*
X205490Y94060D01*
X205450Y94061D01*
X205411Y94066D01*
X205372Y94075D01*
X205334Y94088D01*
X205298Y94104D01*
X205263Y94124D01*
X205231Y94147D01*
X205201Y94174D01*
X205174Y94203D01*
X205150Y94235D01*
X205129Y94269D01*
X205111Y94305D01*
X205098Y94342D01*
X205088Y94381D01*
X205082Y94420D01*
X205080Y94460D01*
X223250Y78550D02*
X235900Y78550D01*
X198550Y78550D02*
X185900Y78550D01*
X202990Y18550D02*
X218810Y18550D01*
D10*
X210955Y49814D02*
X210955Y58902D01*
X210955Y49814D02*
X210953Y49715D01*
X210947Y49615D01*
X210938Y49516D01*
X210925Y49418D01*
X210908Y49320D01*
X210887Y49222D01*
X210862Y49126D01*
X210834Y49031D01*
X210802Y48937D01*
X210767Y48844D01*
X210728Y48752D01*
X210685Y48662D01*
X210640Y48574D01*
X210590Y48487D01*
X210538Y48403D01*
X210482Y48320D01*
X210424Y48240D01*
X210362Y48162D01*
X210297Y48087D01*
X210229Y48014D01*
X210159Y47944D01*
X210086Y47876D01*
X210011Y47811D01*
X209933Y47749D01*
X209853Y47691D01*
X209770Y47635D01*
X209686Y47583D01*
X209599Y47533D01*
X209511Y47488D01*
X209421Y47445D01*
X209329Y47406D01*
X209236Y47371D01*
X209142Y47339D01*
X209047Y47311D01*
X208951Y47286D01*
X208853Y47265D01*
X208755Y47248D01*
X208657Y47235D01*
X208558Y47226D01*
X208458Y47220D01*
X208359Y47218D01*
X207060Y47218D01*
X216228Y47218D02*
X220123Y47218D01*
X220222Y47220D01*
X220322Y47226D01*
X220421Y47235D01*
X220519Y47248D01*
X220617Y47265D01*
X220715Y47286D01*
X220811Y47311D01*
X220906Y47339D01*
X221000Y47371D01*
X221093Y47406D01*
X221185Y47445D01*
X221275Y47488D01*
X221363Y47533D01*
X221450Y47583D01*
X221534Y47635D01*
X221617Y47691D01*
X221697Y47749D01*
X221775Y47811D01*
X221850Y47876D01*
X221923Y47944D01*
X221993Y48014D01*
X222061Y48087D01*
X222126Y48162D01*
X222188Y48240D01*
X222246Y48320D01*
X222302Y48403D01*
X222354Y48487D01*
X222404Y48574D01*
X222449Y48662D01*
X222492Y48752D01*
X222531Y48844D01*
X222566Y48937D01*
X222598Y49031D01*
X222626Y49126D01*
X222651Y49222D01*
X222672Y49320D01*
X222689Y49418D01*
X222702Y49516D01*
X222711Y49615D01*
X222717Y49715D01*
X222719Y49814D01*
X222720Y49814D02*
X222720Y51113D01*
X222719Y51113D02*
X222717Y51212D01*
X222711Y51312D01*
X222702Y51411D01*
X222689Y51509D01*
X222672Y51607D01*
X222651Y51705D01*
X222626Y51801D01*
X222598Y51896D01*
X222566Y51990D01*
X222531Y52083D01*
X222492Y52175D01*
X222449Y52265D01*
X222404Y52353D01*
X222354Y52440D01*
X222302Y52524D01*
X222246Y52607D01*
X222188Y52687D01*
X222126Y52765D01*
X222061Y52840D01*
X221993Y52913D01*
X221923Y52983D01*
X221850Y53051D01*
X221775Y53116D01*
X221697Y53178D01*
X221617Y53236D01*
X221534Y53292D01*
X221450Y53344D01*
X221363Y53394D01*
X221275Y53439D01*
X221185Y53482D01*
X221093Y53521D01*
X221000Y53556D01*
X220906Y53588D01*
X220811Y53616D01*
X220715Y53641D01*
X220617Y53662D01*
X220519Y53679D01*
X220421Y53692D01*
X220322Y53701D01*
X220222Y53707D01*
X220123Y53709D01*
X216228Y53709D01*
X216228Y58902D01*
X222720Y58902D01*
X337400Y233600D02*
X337524Y233733D01*
X337652Y233863D01*
X337782Y233990D01*
X337916Y234114D01*
X338052Y234235D01*
X338192Y234352D01*
X338334Y234465D01*
X338479Y234575D01*
X338627Y234682D01*
X338777Y234785D01*
X338930Y234884D01*
X339085Y234979D01*
X339242Y235071D01*
X339402Y235158D01*
X339564Y235242D01*
X339727Y235322D01*
X339893Y235398D01*
X340060Y235469D01*
X340230Y235537D01*
X340400Y235600D01*
X340572Y235659D01*
X340746Y235714D01*
X340921Y235765D01*
X341097Y235811D01*
X341274Y235853D01*
X341452Y235891D01*
X341632Y235924D01*
X341811Y235953D01*
X341992Y235977D01*
X342173Y235997D01*
X342354Y236013D01*
X342536Y236024D01*
X342718Y236031D01*
X342900Y236033D01*
X343082Y236031D01*
X343264Y236024D01*
X343446Y236013D01*
X343627Y235997D01*
X343808Y235977D01*
X343989Y235953D01*
X344168Y235924D01*
X344348Y235891D01*
X344526Y235853D01*
X344703Y235811D01*
X344879Y235765D01*
X345054Y235714D01*
X345228Y235659D01*
X345400Y235600D01*
X345570Y235537D01*
X345740Y235469D01*
X345907Y235398D01*
X346073Y235322D01*
X346236Y235242D01*
X346398Y235158D01*
X346558Y235071D01*
X346715Y234979D01*
X346870Y234884D01*
X347023Y234785D01*
X347173Y234682D01*
X347321Y234575D01*
X347466Y234465D01*
X347608Y234352D01*
X347748Y234235D01*
X347884Y234114D01*
X348018Y233990D01*
X348148Y233863D01*
X348276Y233733D01*
X348400Y233600D01*
X348400Y223600D02*
X348276Y223467D01*
X348148Y223337D01*
X348018Y223210D01*
X347884Y223086D01*
X347748Y222965D01*
X347608Y222848D01*
X347466Y222735D01*
X347321Y222625D01*
X347173Y222518D01*
X347023Y222415D01*
X346870Y222316D01*
X346715Y222221D01*
X346558Y222129D01*
X346398Y222042D01*
X346236Y221958D01*
X346073Y221878D01*
X345907Y221802D01*
X345740Y221731D01*
X345570Y221663D01*
X345400Y221600D01*
X345228Y221541D01*
X345054Y221486D01*
X344879Y221435D01*
X344703Y221389D01*
X344526Y221347D01*
X344348Y221309D01*
X344168Y221276D01*
X343989Y221247D01*
X343808Y221223D01*
X343627Y221203D01*
X343446Y221187D01*
X343264Y221176D01*
X343082Y221169D01*
X342900Y221167D01*
X342718Y221169D01*
X342536Y221176D01*
X342354Y221187D01*
X342173Y221203D01*
X341992Y221223D01*
X341811Y221247D01*
X341632Y221276D01*
X341452Y221309D01*
X341274Y221347D01*
X341097Y221389D01*
X340921Y221435D01*
X340746Y221486D01*
X340572Y221541D01*
X340400Y221600D01*
X340230Y221663D01*
X340060Y221731D01*
X339893Y221802D01*
X339727Y221878D01*
X339564Y221958D01*
X339402Y222042D01*
X339242Y222129D01*
X339085Y222221D01*
X338930Y222316D01*
X338777Y222415D01*
X338627Y222518D01*
X338479Y222625D01*
X338334Y222735D01*
X338192Y222848D01*
X338052Y222965D01*
X337916Y223086D01*
X337782Y223210D01*
X337652Y223337D01*
X337524Y223467D01*
X337400Y223600D01*
D15*
X342900Y228600D03*
D16*
X337650Y234350D03*
D10*
X317001Y215392D02*
X317001Y203708D01*
X322193Y203708D01*
X326907Y203708D02*
X332099Y203708D01*
X326907Y203708D02*
X326907Y215392D01*
X332099Y215392D01*
X330801Y210199D02*
X326907Y210199D01*
X336790Y215392D02*
X336790Y203708D01*
X336790Y215392D02*
X340035Y215392D01*
X340148Y215390D01*
X340261Y215384D01*
X340374Y215374D01*
X340487Y215360D01*
X340599Y215343D01*
X340710Y215321D01*
X340820Y215296D01*
X340930Y215266D01*
X341038Y215233D01*
X341145Y215196D01*
X341251Y215156D01*
X341355Y215111D01*
X341458Y215063D01*
X341559Y215012D01*
X341658Y214957D01*
X341755Y214899D01*
X341850Y214837D01*
X341943Y214772D01*
X342033Y214704D01*
X342121Y214633D01*
X342207Y214558D01*
X342290Y214481D01*
X342370Y214401D01*
X342447Y214318D01*
X342522Y214232D01*
X342593Y214144D01*
X342661Y214054D01*
X342726Y213961D01*
X342788Y213866D01*
X342846Y213769D01*
X342901Y213670D01*
X342952Y213569D01*
X343000Y213466D01*
X343045Y213362D01*
X343085Y213256D01*
X343122Y213149D01*
X343155Y213041D01*
X343185Y212931D01*
X343210Y212821D01*
X343232Y212710D01*
X343249Y212598D01*
X343263Y212485D01*
X343273Y212372D01*
X343279Y212259D01*
X343281Y212146D01*
X343281Y206954D01*
X343282Y206954D02*
X343280Y206841D01*
X343274Y206728D01*
X343264Y206615D01*
X343250Y206502D01*
X343233Y206390D01*
X343211Y206279D01*
X343186Y206169D01*
X343156Y206059D01*
X343123Y205951D01*
X343086Y205844D01*
X343046Y205738D01*
X343001Y205634D01*
X342953Y205531D01*
X342902Y205430D01*
X342847Y205331D01*
X342789Y205234D01*
X342727Y205139D01*
X342662Y205046D01*
X342594Y204956D01*
X342523Y204868D01*
X342448Y204782D01*
X342371Y204699D01*
X342291Y204619D01*
X342208Y204542D01*
X342122Y204467D01*
X342034Y204396D01*
X341944Y204328D01*
X341851Y204263D01*
X341756Y204201D01*
X341659Y204143D01*
X341560Y204088D01*
X341459Y204037D01*
X341356Y203989D01*
X341252Y203944D01*
X341146Y203904D01*
X341039Y203867D01*
X340931Y203834D01*
X340821Y203804D01*
X340711Y203779D01*
X340600Y203757D01*
X340488Y203740D01*
X340375Y203726D01*
X340262Y203716D01*
X340149Y203710D01*
X340036Y203708D01*
X340035Y203708D02*
X336790Y203708D01*
X348601Y212796D02*
X351846Y215392D01*
X351846Y203708D01*
X348601Y203708D02*
X355092Y203708D01*
D17*
X337820Y251460D02*
X408940Y251460D01*
X337820Y251460D02*
X337820Y276860D01*
X408940Y276860D01*
X408940Y251460D01*
D10*
X339844Y283154D02*
X339844Y288346D01*
X339843Y288346D02*
X339845Y288459D01*
X339851Y288572D01*
X339861Y288685D01*
X339875Y288798D01*
X339892Y288910D01*
X339914Y289021D01*
X339939Y289131D01*
X339969Y289241D01*
X340002Y289349D01*
X340039Y289456D01*
X340079Y289562D01*
X340124Y289666D01*
X340172Y289769D01*
X340223Y289870D01*
X340278Y289969D01*
X340336Y290066D01*
X340398Y290161D01*
X340463Y290254D01*
X340531Y290344D01*
X340602Y290432D01*
X340677Y290518D01*
X340754Y290601D01*
X340834Y290681D01*
X340917Y290758D01*
X341003Y290833D01*
X341091Y290904D01*
X341181Y290972D01*
X341274Y291037D01*
X341369Y291099D01*
X341466Y291157D01*
X341565Y291212D01*
X341666Y291263D01*
X341769Y291311D01*
X341873Y291356D01*
X341979Y291396D01*
X342086Y291433D01*
X342194Y291466D01*
X342304Y291496D01*
X342414Y291521D01*
X342525Y291543D01*
X342637Y291560D01*
X342750Y291574D01*
X342863Y291584D01*
X342976Y291590D01*
X343089Y291592D01*
X343202Y291590D01*
X343315Y291584D01*
X343428Y291574D01*
X343541Y291560D01*
X343653Y291543D01*
X343764Y291521D01*
X343874Y291496D01*
X343984Y291466D01*
X344092Y291433D01*
X344199Y291396D01*
X344305Y291356D01*
X344409Y291311D01*
X344512Y291263D01*
X344613Y291212D01*
X344712Y291157D01*
X344809Y291099D01*
X344904Y291037D01*
X344997Y290972D01*
X345087Y290904D01*
X345175Y290833D01*
X345261Y290758D01*
X345344Y290681D01*
X345424Y290601D01*
X345501Y290518D01*
X345576Y290432D01*
X345647Y290344D01*
X345715Y290254D01*
X345780Y290161D01*
X345842Y290066D01*
X345900Y289969D01*
X345955Y289870D01*
X346006Y289769D01*
X346054Y289666D01*
X346099Y289562D01*
X346139Y289456D01*
X346176Y289349D01*
X346209Y289241D01*
X346239Y289131D01*
X346264Y289021D01*
X346286Y288910D01*
X346303Y288798D01*
X346317Y288685D01*
X346327Y288572D01*
X346333Y288459D01*
X346335Y288346D01*
X346335Y283154D01*
X346333Y283041D01*
X346327Y282928D01*
X346317Y282815D01*
X346303Y282702D01*
X346286Y282590D01*
X346264Y282479D01*
X346239Y282369D01*
X346209Y282259D01*
X346176Y282151D01*
X346139Y282044D01*
X346099Y281938D01*
X346054Y281834D01*
X346006Y281731D01*
X345955Y281630D01*
X345900Y281531D01*
X345842Y281434D01*
X345780Y281339D01*
X345715Y281246D01*
X345647Y281156D01*
X345576Y281068D01*
X345501Y280982D01*
X345424Y280899D01*
X345344Y280819D01*
X345261Y280742D01*
X345175Y280667D01*
X345087Y280596D01*
X344997Y280528D01*
X344904Y280463D01*
X344809Y280401D01*
X344712Y280343D01*
X344613Y280288D01*
X344512Y280237D01*
X344409Y280189D01*
X344305Y280144D01*
X344199Y280104D01*
X344092Y280067D01*
X343984Y280034D01*
X343874Y280004D01*
X343764Y279979D01*
X343653Y279957D01*
X343541Y279940D01*
X343428Y279926D01*
X343315Y279916D01*
X343202Y279910D01*
X343089Y279908D01*
X342976Y279910D01*
X342863Y279916D01*
X342750Y279926D01*
X342637Y279940D01*
X342525Y279957D01*
X342414Y279979D01*
X342304Y280004D01*
X342194Y280034D01*
X342086Y280067D01*
X341979Y280104D01*
X341873Y280144D01*
X341769Y280189D01*
X341666Y280237D01*
X341565Y280288D01*
X341466Y280343D01*
X341369Y280401D01*
X341274Y280463D01*
X341181Y280528D01*
X341091Y280596D01*
X341003Y280667D01*
X340917Y280742D01*
X340834Y280819D01*
X340754Y280899D01*
X340677Y280982D01*
X340602Y281068D01*
X340531Y281156D01*
X340463Y281246D01*
X340398Y281339D01*
X340336Y281434D01*
X340278Y281531D01*
X340223Y281630D01*
X340172Y281731D01*
X340124Y281834D01*
X340079Y281938D01*
X340039Y282044D01*
X340002Y282151D01*
X339969Y282259D01*
X339939Y282369D01*
X339914Y282479D01*
X339892Y282590D01*
X339875Y282702D01*
X339861Y282815D01*
X339851Y282928D01*
X339845Y283041D01*
X339843Y283154D01*
X351655Y279908D02*
X351655Y291592D01*
X358146Y279908D01*
X358146Y291592D01*
X368165Y292890D02*
X362972Y278610D01*
X372610Y283154D02*
X372610Y288346D01*
X372609Y288346D02*
X372611Y288459D01*
X372617Y288572D01*
X372627Y288685D01*
X372641Y288798D01*
X372658Y288910D01*
X372680Y289021D01*
X372705Y289131D01*
X372735Y289241D01*
X372768Y289349D01*
X372805Y289456D01*
X372845Y289562D01*
X372890Y289666D01*
X372938Y289769D01*
X372989Y289870D01*
X373044Y289969D01*
X373102Y290066D01*
X373164Y290161D01*
X373229Y290254D01*
X373297Y290344D01*
X373368Y290432D01*
X373443Y290518D01*
X373520Y290601D01*
X373600Y290681D01*
X373683Y290758D01*
X373769Y290833D01*
X373857Y290904D01*
X373947Y290972D01*
X374040Y291037D01*
X374135Y291099D01*
X374232Y291157D01*
X374331Y291212D01*
X374432Y291263D01*
X374535Y291311D01*
X374639Y291356D01*
X374745Y291396D01*
X374852Y291433D01*
X374960Y291466D01*
X375070Y291496D01*
X375180Y291521D01*
X375291Y291543D01*
X375403Y291560D01*
X375516Y291574D01*
X375629Y291584D01*
X375742Y291590D01*
X375855Y291592D01*
X375968Y291590D01*
X376081Y291584D01*
X376194Y291574D01*
X376307Y291560D01*
X376419Y291543D01*
X376530Y291521D01*
X376640Y291496D01*
X376750Y291466D01*
X376858Y291433D01*
X376965Y291396D01*
X377071Y291356D01*
X377175Y291311D01*
X377278Y291263D01*
X377379Y291212D01*
X377478Y291157D01*
X377575Y291099D01*
X377670Y291037D01*
X377763Y290972D01*
X377853Y290904D01*
X377941Y290833D01*
X378027Y290758D01*
X378110Y290681D01*
X378190Y290601D01*
X378267Y290518D01*
X378342Y290432D01*
X378413Y290344D01*
X378481Y290254D01*
X378546Y290161D01*
X378608Y290066D01*
X378666Y289969D01*
X378721Y289870D01*
X378772Y289769D01*
X378820Y289666D01*
X378865Y289562D01*
X378905Y289456D01*
X378942Y289349D01*
X378975Y289241D01*
X379005Y289131D01*
X379030Y289021D01*
X379052Y288910D01*
X379069Y288798D01*
X379083Y288685D01*
X379093Y288572D01*
X379099Y288459D01*
X379101Y288346D01*
X379101Y283154D01*
X379099Y283041D01*
X379093Y282928D01*
X379083Y282815D01*
X379069Y282702D01*
X379052Y282590D01*
X379030Y282479D01*
X379005Y282369D01*
X378975Y282259D01*
X378942Y282151D01*
X378905Y282044D01*
X378865Y281938D01*
X378820Y281834D01*
X378772Y281731D01*
X378721Y281630D01*
X378666Y281531D01*
X378608Y281434D01*
X378546Y281339D01*
X378481Y281246D01*
X378413Y281156D01*
X378342Y281068D01*
X378267Y280982D01*
X378190Y280899D01*
X378110Y280819D01*
X378027Y280742D01*
X377941Y280667D01*
X377853Y280596D01*
X377763Y280528D01*
X377670Y280463D01*
X377575Y280401D01*
X377478Y280343D01*
X377379Y280288D01*
X377278Y280237D01*
X377175Y280189D01*
X377071Y280144D01*
X376965Y280104D01*
X376858Y280067D01*
X376750Y280034D01*
X376640Y280004D01*
X376530Y279979D01*
X376419Y279957D01*
X376307Y279940D01*
X376194Y279926D01*
X376081Y279916D01*
X375968Y279910D01*
X375855Y279908D01*
X375742Y279910D01*
X375629Y279916D01*
X375516Y279926D01*
X375403Y279940D01*
X375291Y279957D01*
X375180Y279979D01*
X375070Y280004D01*
X374960Y280034D01*
X374852Y280067D01*
X374745Y280104D01*
X374639Y280144D01*
X374535Y280189D01*
X374432Y280237D01*
X374331Y280288D01*
X374232Y280343D01*
X374135Y280401D01*
X374040Y280463D01*
X373947Y280528D01*
X373857Y280596D01*
X373769Y280667D01*
X373683Y280742D01*
X373600Y280819D01*
X373520Y280899D01*
X373443Y280982D01*
X373368Y281068D01*
X373297Y281156D01*
X373229Y281246D01*
X373164Y281339D01*
X373102Y281434D01*
X373044Y281531D01*
X372989Y281630D01*
X372938Y281731D01*
X372890Y281834D01*
X372845Y281938D01*
X372805Y282044D01*
X372768Y282151D01*
X372735Y282259D01*
X372705Y282369D01*
X372680Y282479D01*
X372658Y282590D01*
X372641Y282702D01*
X372627Y282815D01*
X372617Y282928D01*
X372611Y283041D01*
X372609Y283154D01*
X384443Y279908D02*
X384443Y291592D01*
X389636Y291592D01*
X389636Y286399D02*
X384443Y286399D01*
X394349Y291592D02*
X394349Y279908D01*
X394349Y291592D02*
X399542Y291592D01*
X399542Y286399D02*
X394349Y286399D01*
X89595Y286258D02*
X89595Y297942D01*
X92840Y297942D01*
X92953Y297940D01*
X93066Y297934D01*
X93179Y297924D01*
X93292Y297910D01*
X93404Y297893D01*
X93515Y297871D01*
X93625Y297846D01*
X93735Y297816D01*
X93843Y297783D01*
X93950Y297746D01*
X94056Y297706D01*
X94160Y297661D01*
X94263Y297613D01*
X94364Y297562D01*
X94463Y297507D01*
X94560Y297449D01*
X94655Y297387D01*
X94748Y297322D01*
X94838Y297254D01*
X94926Y297183D01*
X95012Y297108D01*
X95095Y297031D01*
X95175Y296951D01*
X95252Y296868D01*
X95327Y296782D01*
X95398Y296694D01*
X95466Y296604D01*
X95531Y296511D01*
X95593Y296416D01*
X95651Y296319D01*
X95706Y296220D01*
X95757Y296119D01*
X95805Y296016D01*
X95850Y295912D01*
X95890Y295806D01*
X95927Y295699D01*
X95960Y295591D01*
X95990Y295481D01*
X96015Y295371D01*
X96037Y295260D01*
X96054Y295148D01*
X96068Y295035D01*
X96078Y294922D01*
X96084Y294809D01*
X96086Y294696D01*
X96084Y294583D01*
X96078Y294470D01*
X96068Y294357D01*
X96054Y294244D01*
X96037Y294132D01*
X96015Y294021D01*
X95990Y293911D01*
X95960Y293801D01*
X95927Y293693D01*
X95890Y293586D01*
X95850Y293480D01*
X95805Y293376D01*
X95757Y293273D01*
X95706Y293172D01*
X95651Y293073D01*
X95593Y292976D01*
X95531Y292881D01*
X95466Y292788D01*
X95398Y292698D01*
X95327Y292610D01*
X95252Y292524D01*
X95175Y292441D01*
X95095Y292361D01*
X95012Y292284D01*
X94926Y292209D01*
X94838Y292138D01*
X94748Y292070D01*
X94655Y292005D01*
X94560Y291943D01*
X94463Y291885D01*
X94364Y291830D01*
X94263Y291779D01*
X94160Y291731D01*
X94056Y291686D01*
X93950Y291646D01*
X93843Y291609D01*
X93735Y291576D01*
X93625Y291546D01*
X93515Y291521D01*
X93404Y291499D01*
X93292Y291482D01*
X93179Y291468D01*
X93066Y291458D01*
X92953Y291452D01*
X92840Y291450D01*
X92840Y291451D02*
X89595Y291451D01*
X93489Y291451D02*
X96086Y286258D01*
X100951Y286258D02*
X104196Y286258D01*
X104309Y286260D01*
X104422Y286266D01*
X104535Y286276D01*
X104648Y286290D01*
X104760Y286307D01*
X104871Y286329D01*
X104981Y286354D01*
X105091Y286384D01*
X105199Y286417D01*
X105306Y286454D01*
X105412Y286494D01*
X105516Y286539D01*
X105619Y286587D01*
X105720Y286638D01*
X105819Y286693D01*
X105916Y286751D01*
X106011Y286813D01*
X106104Y286878D01*
X106194Y286946D01*
X106282Y287017D01*
X106368Y287092D01*
X106451Y287169D01*
X106531Y287249D01*
X106608Y287332D01*
X106683Y287418D01*
X106754Y287506D01*
X106822Y287596D01*
X106887Y287689D01*
X106949Y287784D01*
X107007Y287881D01*
X107062Y287980D01*
X107113Y288081D01*
X107161Y288184D01*
X107206Y288288D01*
X107246Y288394D01*
X107283Y288501D01*
X107316Y288609D01*
X107346Y288719D01*
X107371Y288829D01*
X107393Y288940D01*
X107410Y289052D01*
X107424Y289165D01*
X107434Y289278D01*
X107440Y289391D01*
X107442Y289504D01*
X107440Y289617D01*
X107434Y289730D01*
X107424Y289843D01*
X107410Y289956D01*
X107393Y290068D01*
X107371Y290179D01*
X107346Y290289D01*
X107316Y290399D01*
X107283Y290507D01*
X107246Y290614D01*
X107206Y290720D01*
X107161Y290824D01*
X107113Y290927D01*
X107062Y291028D01*
X107007Y291127D01*
X106949Y291224D01*
X106887Y291319D01*
X106822Y291412D01*
X106754Y291502D01*
X106683Y291590D01*
X106608Y291676D01*
X106531Y291759D01*
X106451Y291839D01*
X106368Y291916D01*
X106282Y291991D01*
X106194Y292062D01*
X106104Y292130D01*
X106011Y292195D01*
X105916Y292257D01*
X105819Y292315D01*
X105720Y292370D01*
X105619Y292421D01*
X105516Y292469D01*
X105412Y292514D01*
X105306Y292554D01*
X105199Y292591D01*
X105091Y292624D01*
X104981Y292654D01*
X104871Y292679D01*
X104760Y292701D01*
X104648Y292718D01*
X104535Y292732D01*
X104422Y292742D01*
X104309Y292748D01*
X104196Y292750D01*
X104846Y297942D02*
X100951Y297942D01*
X104846Y297942D02*
X104947Y297940D01*
X105047Y297934D01*
X105147Y297924D01*
X105247Y297911D01*
X105346Y297893D01*
X105445Y297872D01*
X105542Y297847D01*
X105639Y297818D01*
X105734Y297785D01*
X105828Y297749D01*
X105920Y297709D01*
X106011Y297666D01*
X106100Y297619D01*
X106187Y297569D01*
X106273Y297515D01*
X106356Y297458D01*
X106436Y297398D01*
X106515Y297335D01*
X106591Y297268D01*
X106664Y297199D01*
X106734Y297127D01*
X106802Y297053D01*
X106867Y296976D01*
X106928Y296896D01*
X106987Y296814D01*
X107042Y296730D01*
X107094Y296644D01*
X107143Y296556D01*
X107188Y296466D01*
X107230Y296374D01*
X107268Y296281D01*
X107302Y296186D01*
X107333Y296091D01*
X107360Y295994D01*
X107383Y295896D01*
X107403Y295797D01*
X107418Y295697D01*
X107430Y295597D01*
X107438Y295497D01*
X107442Y295396D01*
X107442Y295296D01*
X107438Y295195D01*
X107430Y295095D01*
X107418Y294995D01*
X107403Y294895D01*
X107383Y294796D01*
X107360Y294698D01*
X107333Y294601D01*
X107302Y294506D01*
X107268Y294411D01*
X107230Y294318D01*
X107188Y294226D01*
X107143Y294136D01*
X107094Y294048D01*
X107042Y293962D01*
X106987Y293878D01*
X106928Y293796D01*
X106867Y293716D01*
X106802Y293639D01*
X106734Y293565D01*
X106664Y293493D01*
X106591Y293424D01*
X106515Y293357D01*
X106436Y293294D01*
X106356Y293234D01*
X106273Y293177D01*
X106187Y293123D01*
X106100Y293073D01*
X106011Y293026D01*
X105920Y292983D01*
X105828Y292943D01*
X105734Y292907D01*
X105639Y292874D01*
X105542Y292845D01*
X105445Y292820D01*
X105346Y292799D01*
X105247Y292781D01*
X105147Y292768D01*
X105047Y292758D01*
X104947Y292752D01*
X104846Y292750D01*
X104846Y292749D02*
X102249Y292749D01*
X121158Y349945D02*
X132842Y349945D01*
X121158Y349945D02*
X121158Y353190D01*
X121160Y353303D01*
X121166Y353416D01*
X121176Y353529D01*
X121190Y353642D01*
X121207Y353754D01*
X121229Y353865D01*
X121254Y353975D01*
X121284Y354085D01*
X121317Y354193D01*
X121354Y354300D01*
X121394Y354406D01*
X121439Y354510D01*
X121487Y354613D01*
X121538Y354714D01*
X121593Y354813D01*
X121651Y354910D01*
X121713Y355005D01*
X121778Y355098D01*
X121846Y355188D01*
X121917Y355276D01*
X121992Y355362D01*
X122069Y355445D01*
X122149Y355525D01*
X122232Y355602D01*
X122318Y355677D01*
X122406Y355748D01*
X122496Y355816D01*
X122589Y355881D01*
X122684Y355943D01*
X122781Y356001D01*
X122880Y356056D01*
X122981Y356107D01*
X123084Y356155D01*
X123188Y356200D01*
X123294Y356240D01*
X123401Y356277D01*
X123509Y356310D01*
X123619Y356340D01*
X123729Y356365D01*
X123840Y356387D01*
X123952Y356404D01*
X124065Y356418D01*
X124178Y356428D01*
X124291Y356434D01*
X124404Y356436D01*
X124517Y356434D01*
X124630Y356428D01*
X124743Y356418D01*
X124856Y356404D01*
X124968Y356387D01*
X125079Y356365D01*
X125189Y356340D01*
X125299Y356310D01*
X125407Y356277D01*
X125514Y356240D01*
X125620Y356200D01*
X125724Y356155D01*
X125827Y356107D01*
X125928Y356056D01*
X126027Y356001D01*
X126124Y355943D01*
X126219Y355881D01*
X126312Y355816D01*
X126402Y355748D01*
X126490Y355677D01*
X126576Y355602D01*
X126659Y355525D01*
X126739Y355445D01*
X126816Y355362D01*
X126891Y355276D01*
X126962Y355188D01*
X127030Y355098D01*
X127095Y355005D01*
X127157Y354910D01*
X127215Y354813D01*
X127270Y354714D01*
X127321Y354613D01*
X127369Y354510D01*
X127414Y354406D01*
X127454Y354300D01*
X127491Y354193D01*
X127524Y354085D01*
X127554Y353975D01*
X127579Y353865D01*
X127601Y353754D01*
X127618Y353642D01*
X127632Y353529D01*
X127642Y353416D01*
X127648Y353303D01*
X127650Y353190D01*
X127649Y353190D02*
X127649Y349945D01*
X127649Y353839D02*
X132842Y356436D01*
X130246Y361301D02*
X121158Y363897D01*
X130246Y361301D02*
X130246Y367792D01*
X127649Y365845D02*
X132842Y365845D01*
X349945Y151892D02*
X349945Y140208D01*
X349945Y151892D02*
X353190Y151892D01*
X353303Y151890D01*
X353416Y151884D01*
X353529Y151874D01*
X353642Y151860D01*
X353754Y151843D01*
X353865Y151821D01*
X353975Y151796D01*
X354085Y151766D01*
X354193Y151733D01*
X354300Y151696D01*
X354406Y151656D01*
X354510Y151611D01*
X354613Y151563D01*
X354714Y151512D01*
X354813Y151457D01*
X354910Y151399D01*
X355005Y151337D01*
X355098Y151272D01*
X355188Y151204D01*
X355276Y151133D01*
X355362Y151058D01*
X355445Y150981D01*
X355525Y150901D01*
X355602Y150818D01*
X355677Y150732D01*
X355748Y150644D01*
X355816Y150554D01*
X355881Y150461D01*
X355943Y150366D01*
X356001Y150269D01*
X356056Y150170D01*
X356107Y150069D01*
X356155Y149966D01*
X356200Y149862D01*
X356240Y149756D01*
X356277Y149649D01*
X356310Y149541D01*
X356340Y149431D01*
X356365Y149321D01*
X356387Y149210D01*
X356404Y149098D01*
X356418Y148985D01*
X356428Y148872D01*
X356434Y148759D01*
X356436Y148646D01*
X356434Y148533D01*
X356428Y148420D01*
X356418Y148307D01*
X356404Y148194D01*
X356387Y148082D01*
X356365Y147971D01*
X356340Y147861D01*
X356310Y147751D01*
X356277Y147643D01*
X356240Y147536D01*
X356200Y147430D01*
X356155Y147326D01*
X356107Y147223D01*
X356056Y147122D01*
X356001Y147023D01*
X355943Y146926D01*
X355881Y146831D01*
X355816Y146738D01*
X355748Y146648D01*
X355677Y146560D01*
X355602Y146474D01*
X355525Y146391D01*
X355445Y146311D01*
X355362Y146234D01*
X355276Y146159D01*
X355188Y146088D01*
X355098Y146020D01*
X355005Y145955D01*
X354910Y145893D01*
X354813Y145835D01*
X354714Y145780D01*
X354613Y145729D01*
X354510Y145681D01*
X354406Y145636D01*
X354300Y145596D01*
X354193Y145559D01*
X354085Y145526D01*
X353975Y145496D01*
X353865Y145471D01*
X353754Y145449D01*
X353642Y145432D01*
X353529Y145418D01*
X353416Y145408D01*
X353303Y145402D01*
X353190Y145400D01*
X353190Y145401D02*
X349945Y145401D01*
X353839Y145401D02*
X356436Y140208D01*
X361301Y140208D02*
X365196Y140208D01*
X365295Y140210D01*
X365395Y140216D01*
X365494Y140225D01*
X365592Y140238D01*
X365690Y140255D01*
X365788Y140276D01*
X365884Y140301D01*
X365979Y140329D01*
X366073Y140361D01*
X366166Y140396D01*
X366258Y140435D01*
X366348Y140478D01*
X366436Y140523D01*
X366523Y140573D01*
X366607Y140625D01*
X366690Y140681D01*
X366770Y140739D01*
X366848Y140801D01*
X366923Y140866D01*
X366996Y140934D01*
X367066Y141004D01*
X367134Y141077D01*
X367199Y141152D01*
X367261Y141230D01*
X367319Y141310D01*
X367375Y141393D01*
X367427Y141477D01*
X367477Y141564D01*
X367522Y141652D01*
X367565Y141742D01*
X367604Y141834D01*
X367639Y141927D01*
X367671Y142021D01*
X367699Y142116D01*
X367724Y142212D01*
X367745Y142310D01*
X367762Y142408D01*
X367775Y142506D01*
X367784Y142605D01*
X367790Y142705D01*
X367792Y142804D01*
X367792Y144103D01*
X367790Y144202D01*
X367784Y144302D01*
X367775Y144401D01*
X367762Y144499D01*
X367745Y144597D01*
X367724Y144695D01*
X367699Y144791D01*
X367671Y144886D01*
X367639Y144980D01*
X367604Y145073D01*
X367565Y145165D01*
X367522Y145255D01*
X367477Y145343D01*
X367427Y145430D01*
X367375Y145514D01*
X367319Y145597D01*
X367261Y145677D01*
X367199Y145755D01*
X367134Y145830D01*
X367066Y145903D01*
X366996Y145973D01*
X366923Y146041D01*
X366848Y146106D01*
X366770Y146168D01*
X366690Y146226D01*
X366607Y146282D01*
X366523Y146334D01*
X366436Y146384D01*
X366348Y146429D01*
X366258Y146472D01*
X366166Y146511D01*
X366073Y146546D01*
X365979Y146578D01*
X365884Y146606D01*
X365788Y146631D01*
X365690Y146652D01*
X365592Y146669D01*
X365494Y146682D01*
X365395Y146691D01*
X365295Y146697D01*
X365196Y146699D01*
X361301Y146699D01*
X361301Y151892D01*
X367792Y151892D01*
X387858Y241808D02*
X387858Y253492D01*
X391104Y253492D01*
X391217Y253490D01*
X391330Y253484D01*
X391443Y253474D01*
X391556Y253460D01*
X391668Y253443D01*
X391779Y253421D01*
X391889Y253396D01*
X391999Y253366D01*
X392107Y253333D01*
X392214Y253296D01*
X392320Y253256D01*
X392424Y253211D01*
X392527Y253163D01*
X392628Y253112D01*
X392727Y253057D01*
X392824Y252999D01*
X392919Y252937D01*
X393012Y252872D01*
X393102Y252804D01*
X393190Y252733D01*
X393276Y252658D01*
X393359Y252581D01*
X393439Y252501D01*
X393516Y252418D01*
X393591Y252332D01*
X393662Y252244D01*
X393730Y252154D01*
X393795Y252061D01*
X393857Y251966D01*
X393915Y251869D01*
X393970Y251770D01*
X394021Y251669D01*
X394069Y251566D01*
X394114Y251462D01*
X394154Y251356D01*
X394191Y251249D01*
X394224Y251141D01*
X394254Y251031D01*
X394279Y250921D01*
X394301Y250810D01*
X394318Y250698D01*
X394332Y250585D01*
X394342Y250472D01*
X394348Y250359D01*
X394350Y250246D01*
X394348Y250133D01*
X394342Y250020D01*
X394332Y249907D01*
X394318Y249794D01*
X394301Y249682D01*
X394279Y249571D01*
X394254Y249461D01*
X394224Y249351D01*
X394191Y249243D01*
X394154Y249136D01*
X394114Y249030D01*
X394069Y248926D01*
X394021Y248823D01*
X393970Y248722D01*
X393915Y248623D01*
X393857Y248526D01*
X393795Y248431D01*
X393730Y248338D01*
X393662Y248248D01*
X393591Y248160D01*
X393516Y248074D01*
X393439Y247991D01*
X393359Y247911D01*
X393276Y247834D01*
X393190Y247759D01*
X393102Y247688D01*
X393012Y247620D01*
X392919Y247555D01*
X392824Y247493D01*
X392727Y247435D01*
X392628Y247380D01*
X392527Y247329D01*
X392424Y247281D01*
X392320Y247236D01*
X392214Y247196D01*
X392107Y247159D01*
X391999Y247126D01*
X391889Y247096D01*
X391779Y247071D01*
X391668Y247049D01*
X391556Y247032D01*
X391443Y247018D01*
X391330Y247008D01*
X391217Y247002D01*
X391104Y247000D01*
X391104Y247001D02*
X387858Y247001D01*
X391753Y247001D02*
X394349Y241808D01*
X399214Y248299D02*
X403109Y248299D01*
X403208Y248297D01*
X403308Y248291D01*
X403407Y248282D01*
X403505Y248269D01*
X403603Y248252D01*
X403701Y248231D01*
X403797Y248206D01*
X403892Y248178D01*
X403986Y248146D01*
X404079Y248111D01*
X404171Y248072D01*
X404261Y248029D01*
X404349Y247984D01*
X404436Y247934D01*
X404520Y247882D01*
X404603Y247826D01*
X404683Y247768D01*
X404761Y247706D01*
X404836Y247641D01*
X404909Y247573D01*
X404979Y247503D01*
X405047Y247430D01*
X405112Y247355D01*
X405174Y247277D01*
X405232Y247197D01*
X405288Y247114D01*
X405340Y247030D01*
X405390Y246943D01*
X405435Y246855D01*
X405478Y246765D01*
X405517Y246673D01*
X405552Y246580D01*
X405584Y246486D01*
X405612Y246391D01*
X405637Y246295D01*
X405658Y246197D01*
X405675Y246099D01*
X405688Y246001D01*
X405697Y245902D01*
X405703Y245802D01*
X405705Y245703D01*
X405705Y245054D01*
X405706Y245054D02*
X405704Y244941D01*
X405698Y244828D01*
X405688Y244715D01*
X405674Y244602D01*
X405657Y244490D01*
X405635Y244379D01*
X405610Y244269D01*
X405580Y244159D01*
X405547Y244051D01*
X405510Y243944D01*
X405470Y243838D01*
X405425Y243734D01*
X405377Y243631D01*
X405326Y243530D01*
X405271Y243431D01*
X405213Y243334D01*
X405151Y243239D01*
X405086Y243146D01*
X405018Y243056D01*
X404947Y242968D01*
X404872Y242882D01*
X404795Y242799D01*
X404715Y242719D01*
X404632Y242642D01*
X404546Y242567D01*
X404458Y242496D01*
X404368Y242428D01*
X404275Y242363D01*
X404180Y242301D01*
X404083Y242243D01*
X403984Y242188D01*
X403883Y242137D01*
X403780Y242089D01*
X403676Y242044D01*
X403570Y242004D01*
X403463Y241967D01*
X403355Y241934D01*
X403245Y241904D01*
X403135Y241879D01*
X403024Y241857D01*
X402912Y241840D01*
X402799Y241826D01*
X402686Y241816D01*
X402573Y241810D01*
X402460Y241808D01*
X402347Y241810D01*
X402234Y241816D01*
X402121Y241826D01*
X402008Y241840D01*
X401896Y241857D01*
X401785Y241879D01*
X401675Y241904D01*
X401565Y241934D01*
X401457Y241967D01*
X401350Y242004D01*
X401244Y242044D01*
X401140Y242089D01*
X401037Y242137D01*
X400936Y242188D01*
X400837Y242243D01*
X400740Y242301D01*
X400645Y242363D01*
X400552Y242428D01*
X400462Y242496D01*
X400374Y242567D01*
X400288Y242642D01*
X400205Y242719D01*
X400125Y242799D01*
X400048Y242882D01*
X399973Y242968D01*
X399902Y243056D01*
X399834Y243146D01*
X399769Y243239D01*
X399707Y243334D01*
X399649Y243431D01*
X399594Y243530D01*
X399543Y243631D01*
X399495Y243734D01*
X399450Y243838D01*
X399410Y243944D01*
X399373Y244051D01*
X399340Y244159D01*
X399310Y244269D01*
X399285Y244379D01*
X399263Y244490D01*
X399246Y244602D01*
X399232Y244715D01*
X399222Y244828D01*
X399216Y244941D01*
X399214Y245054D01*
X399214Y248299D01*
X399216Y248442D01*
X399222Y248585D01*
X399232Y248728D01*
X399246Y248870D01*
X399263Y249012D01*
X399285Y249154D01*
X399310Y249295D01*
X399340Y249435D01*
X399373Y249574D01*
X399410Y249712D01*
X399451Y249849D01*
X399495Y249985D01*
X399544Y250120D01*
X399596Y250253D01*
X399651Y250385D01*
X399711Y250515D01*
X399774Y250644D01*
X399840Y250771D01*
X399910Y250895D01*
X399983Y251018D01*
X400060Y251139D01*
X400140Y251258D01*
X400223Y251374D01*
X400309Y251489D01*
X400398Y251600D01*
X400491Y251710D01*
X400586Y251816D01*
X400685Y251920D01*
X400786Y252021D01*
X400890Y252120D01*
X400996Y252215D01*
X401106Y252308D01*
X401217Y252397D01*
X401332Y252483D01*
X401448Y252566D01*
X401567Y252646D01*
X401688Y252723D01*
X401810Y252796D01*
X401935Y252866D01*
X402062Y252932D01*
X402191Y252995D01*
X402321Y253055D01*
X402453Y253110D01*
X402586Y253162D01*
X402721Y253211D01*
X402857Y253255D01*
X402994Y253296D01*
X403132Y253333D01*
X403271Y253366D01*
X403411Y253396D01*
X403552Y253421D01*
X403694Y253443D01*
X403836Y253460D01*
X403978Y253474D01*
X404121Y253484D01*
X404264Y253490D01*
X404407Y253492D01*
D11*
X369850Y401800D02*
X369850Y461800D01*
X404850Y461800D01*
X404850Y401800D01*
X369850Y401800D01*
X387958Y368060D02*
X387960Y368103D01*
X387966Y368145D01*
X387976Y368186D01*
X387989Y368227D01*
X388006Y368266D01*
X388027Y368303D01*
X388051Y368338D01*
X388079Y368371D01*
X388109Y368401D01*
X388142Y368429D01*
X388177Y368453D01*
X388214Y368474D01*
X388253Y368491D01*
X388294Y368504D01*
X388335Y368514D01*
X388377Y368520D01*
X388420Y368522D01*
X388463Y368520D01*
X388505Y368514D01*
X388546Y368504D01*
X388587Y368491D01*
X388626Y368474D01*
X388663Y368453D01*
X388698Y368429D01*
X388731Y368401D01*
X388761Y368371D01*
X388789Y368338D01*
X388813Y368303D01*
X388834Y368266D01*
X388851Y368227D01*
X388864Y368186D01*
X388874Y368145D01*
X388880Y368103D01*
X388882Y368060D01*
X388880Y368017D01*
X388874Y367975D01*
X388864Y367934D01*
X388851Y367893D01*
X388834Y367854D01*
X388813Y367817D01*
X388789Y367782D01*
X388761Y367749D01*
X388731Y367719D01*
X388698Y367691D01*
X388663Y367667D01*
X388626Y367646D01*
X388587Y367629D01*
X388546Y367616D01*
X388505Y367606D01*
X388463Y367600D01*
X388420Y367598D01*
X388377Y367600D01*
X388335Y367606D01*
X388294Y367616D01*
X388253Y367629D01*
X388214Y367646D01*
X388177Y367667D01*
X388142Y367691D01*
X388109Y367719D01*
X388079Y367749D01*
X388051Y367782D01*
X388027Y367817D01*
X388006Y367854D01*
X387989Y367893D01*
X387976Y367934D01*
X387966Y367975D01*
X387960Y368017D01*
X387958Y368060D01*
D10*
X373292Y415703D02*
X361608Y415703D01*
X361608Y418949D01*
X361610Y419062D01*
X361616Y419175D01*
X361626Y419288D01*
X361640Y419401D01*
X361657Y419513D01*
X361679Y419624D01*
X361704Y419734D01*
X361734Y419844D01*
X361767Y419952D01*
X361804Y420059D01*
X361844Y420165D01*
X361889Y420269D01*
X361937Y420372D01*
X361988Y420473D01*
X362043Y420572D01*
X362101Y420669D01*
X362163Y420764D01*
X362228Y420857D01*
X362296Y420947D01*
X362367Y421035D01*
X362442Y421121D01*
X362519Y421204D01*
X362599Y421284D01*
X362682Y421361D01*
X362768Y421436D01*
X362856Y421507D01*
X362946Y421575D01*
X363039Y421640D01*
X363134Y421702D01*
X363231Y421760D01*
X363330Y421815D01*
X363431Y421866D01*
X363534Y421914D01*
X363638Y421959D01*
X363744Y421999D01*
X363851Y422036D01*
X363959Y422069D01*
X364069Y422099D01*
X364179Y422124D01*
X364290Y422146D01*
X364402Y422163D01*
X364515Y422177D01*
X364628Y422187D01*
X364741Y422193D01*
X364854Y422195D01*
X364967Y422193D01*
X365080Y422187D01*
X365193Y422177D01*
X365306Y422163D01*
X365418Y422146D01*
X365529Y422124D01*
X365639Y422099D01*
X365749Y422069D01*
X365857Y422036D01*
X365964Y421999D01*
X366070Y421959D01*
X366174Y421914D01*
X366277Y421866D01*
X366378Y421815D01*
X366477Y421760D01*
X366574Y421702D01*
X366669Y421640D01*
X366762Y421575D01*
X366852Y421507D01*
X366940Y421436D01*
X367026Y421361D01*
X367109Y421284D01*
X367189Y421204D01*
X367266Y421121D01*
X367341Y421035D01*
X367412Y420947D01*
X367480Y420857D01*
X367545Y420764D01*
X367607Y420669D01*
X367665Y420572D01*
X367720Y420473D01*
X367771Y420372D01*
X367819Y420269D01*
X367864Y420165D01*
X367904Y420059D01*
X367941Y419952D01*
X367974Y419844D01*
X368004Y419734D01*
X368029Y419624D01*
X368051Y419513D01*
X368068Y419401D01*
X368082Y419288D01*
X368092Y419175D01*
X368098Y419062D01*
X368100Y418949D01*
X368099Y418949D02*
X368099Y415703D01*
X368099Y419598D02*
X373292Y422194D01*
X373292Y430573D02*
X373290Y430672D01*
X373284Y430772D01*
X373275Y430871D01*
X373262Y430969D01*
X373245Y431067D01*
X373224Y431165D01*
X373199Y431261D01*
X373171Y431356D01*
X373139Y431450D01*
X373104Y431543D01*
X373065Y431635D01*
X373022Y431725D01*
X372977Y431813D01*
X372927Y431900D01*
X372875Y431984D01*
X372819Y432067D01*
X372761Y432147D01*
X372699Y432225D01*
X372634Y432300D01*
X372566Y432373D01*
X372496Y432443D01*
X372423Y432511D01*
X372348Y432576D01*
X372270Y432638D01*
X372190Y432696D01*
X372107Y432752D01*
X372023Y432804D01*
X371936Y432854D01*
X371848Y432899D01*
X371758Y432942D01*
X371666Y432981D01*
X371573Y433016D01*
X371479Y433048D01*
X371384Y433076D01*
X371288Y433101D01*
X371190Y433122D01*
X371092Y433139D01*
X370994Y433152D01*
X370895Y433161D01*
X370795Y433167D01*
X370696Y433169D01*
X373292Y430573D02*
X373290Y430429D01*
X373284Y430284D01*
X373275Y430140D01*
X373262Y429997D01*
X373245Y429853D01*
X373224Y429710D01*
X373199Y429568D01*
X373171Y429427D01*
X373139Y429286D01*
X373103Y429146D01*
X373064Y429007D01*
X373021Y428869D01*
X372974Y428733D01*
X372924Y428597D01*
X372870Y428463D01*
X372813Y428331D01*
X372752Y428200D01*
X372688Y428071D01*
X372620Y427943D01*
X372550Y427817D01*
X372475Y427693D01*
X372398Y427572D01*
X372317Y427452D01*
X372234Y427334D01*
X372147Y427219D01*
X372057Y427106D01*
X371964Y426995D01*
X371869Y426887D01*
X371770Y426781D01*
X371669Y426678D01*
X364204Y427004D02*
X364105Y427006D01*
X364005Y427012D01*
X363906Y427021D01*
X363808Y427034D01*
X363710Y427051D01*
X363612Y427072D01*
X363516Y427097D01*
X363421Y427125D01*
X363327Y427157D01*
X363234Y427192D01*
X363142Y427231D01*
X363052Y427274D01*
X362964Y427319D01*
X362877Y427369D01*
X362793Y427421D01*
X362710Y427477D01*
X362630Y427535D01*
X362552Y427597D01*
X362477Y427662D01*
X362404Y427730D01*
X362334Y427800D01*
X362266Y427873D01*
X362201Y427948D01*
X362139Y428026D01*
X362081Y428106D01*
X362025Y428189D01*
X361973Y428273D01*
X361923Y428360D01*
X361878Y428448D01*
X361835Y428538D01*
X361796Y428630D01*
X361761Y428723D01*
X361729Y428817D01*
X361701Y428912D01*
X361676Y429008D01*
X361655Y429106D01*
X361638Y429204D01*
X361625Y429302D01*
X361616Y429401D01*
X361610Y429501D01*
X361608Y429600D01*
X361610Y429736D01*
X361616Y429872D01*
X361625Y430008D01*
X361638Y430144D01*
X361656Y430279D01*
X361676Y430413D01*
X361701Y430547D01*
X361729Y430681D01*
X361762Y430813D01*
X361797Y430944D01*
X361837Y431075D01*
X361880Y431204D01*
X361926Y431332D01*
X361977Y431458D01*
X362030Y431584D01*
X362088Y431707D01*
X362148Y431829D01*
X362212Y431949D01*
X362280Y432068D01*
X362350Y432184D01*
X362424Y432298D01*
X362501Y432411D01*
X362582Y432521D01*
X366476Y428301D02*
X366423Y428215D01*
X366366Y428131D01*
X366307Y428049D01*
X366244Y427969D01*
X366178Y427892D01*
X366110Y427817D01*
X366038Y427745D01*
X365964Y427676D01*
X365887Y427610D01*
X365808Y427547D01*
X365726Y427487D01*
X365642Y427430D01*
X365556Y427376D01*
X365468Y427326D01*
X365378Y427279D01*
X365287Y427235D01*
X365193Y427196D01*
X365099Y427159D01*
X365003Y427127D01*
X364905Y427098D01*
X364807Y427073D01*
X364708Y427052D01*
X364608Y427034D01*
X364508Y427021D01*
X364407Y427011D01*
X364305Y427005D01*
X364204Y427003D01*
X368424Y431872D02*
X368477Y431958D01*
X368534Y432042D01*
X368593Y432124D01*
X368656Y432204D01*
X368722Y432281D01*
X368790Y432356D01*
X368862Y432428D01*
X368936Y432497D01*
X369013Y432563D01*
X369092Y432626D01*
X369174Y432686D01*
X369258Y432743D01*
X369344Y432797D01*
X369432Y432847D01*
X369522Y432894D01*
X369613Y432938D01*
X369707Y432977D01*
X369801Y433014D01*
X369897Y433046D01*
X369995Y433075D01*
X370093Y433100D01*
X370192Y433121D01*
X370292Y433139D01*
X370392Y433152D01*
X370493Y433162D01*
X370595Y433168D01*
X370696Y433170D01*
X368424Y431872D02*
X366476Y428301D01*
X361608Y440211D02*
X373292Y440211D01*
X361608Y436966D02*
X361608Y443457D01*
D18*
X444500Y488950D02*
X444500Y501650D01*
X444500Y488950D02*
X438150Y482600D01*
X425450Y482600D02*
X419100Y488950D01*
X438150Y482600D02*
X444500Y476250D01*
X444500Y463550D01*
X438150Y457200D01*
X425450Y457200D02*
X419100Y463550D01*
X419100Y476250D01*
X425450Y482600D01*
X425450Y508000D02*
X438150Y508000D01*
X444500Y501650D01*
X425450Y508000D02*
X419100Y501650D01*
X419100Y488950D01*
X438150Y457200D02*
X444500Y450850D01*
X444500Y438150D01*
X438150Y431800D01*
X425450Y431800D02*
X419100Y438150D01*
X419100Y450850D01*
X425450Y457200D01*
X444500Y425450D02*
X444500Y412750D01*
X438150Y406400D01*
X425450Y406400D02*
X419100Y412750D01*
X438150Y406400D02*
X444500Y400050D01*
X444500Y387350D01*
X438150Y381000D01*
X425450Y381000D02*
X419100Y387350D01*
X419100Y400050D01*
X425450Y406400D01*
X444500Y425450D02*
X438150Y431800D01*
X425450Y431800D02*
X419100Y425450D01*
X419100Y412750D01*
X438150Y381000D02*
X444500Y374650D01*
X444500Y361950D01*
X438150Y355600D01*
X425450Y355600D02*
X419100Y361950D01*
X419100Y374650D01*
X425450Y381000D01*
X425450Y355600D02*
X438150Y355600D01*
D19*
X405765Y494665D02*
X403225Y497840D01*
X414655Y497840D01*
X414655Y494665D02*
X414655Y501015D01*
X454025Y371475D02*
X454025Y367665D01*
X454025Y371475D02*
X454027Y371575D01*
X454033Y371674D01*
X454043Y371774D01*
X454056Y371872D01*
X454074Y371971D01*
X454095Y372068D01*
X454120Y372164D01*
X454149Y372260D01*
X454182Y372354D01*
X454218Y372447D01*
X454258Y372538D01*
X454302Y372628D01*
X454349Y372716D01*
X454399Y372802D01*
X454453Y372886D01*
X454510Y372968D01*
X454570Y373047D01*
X454634Y373125D01*
X454700Y373199D01*
X454769Y373271D01*
X454841Y373340D01*
X454915Y373406D01*
X454993Y373470D01*
X455072Y373530D01*
X455154Y373587D01*
X455238Y373641D01*
X455324Y373691D01*
X455412Y373738D01*
X455502Y373782D01*
X455593Y373822D01*
X455686Y373858D01*
X455780Y373891D01*
X455876Y373920D01*
X455972Y373945D01*
X456069Y373966D01*
X456168Y373984D01*
X456266Y373997D01*
X456366Y374007D01*
X456465Y374013D01*
X456565Y374015D01*
X457200Y374015D01*
X457311Y374013D01*
X457421Y374007D01*
X457532Y373998D01*
X457642Y373984D01*
X457751Y373967D01*
X457860Y373946D01*
X457968Y373921D01*
X458075Y373892D01*
X458181Y373860D01*
X458286Y373824D01*
X458389Y373784D01*
X458491Y373741D01*
X458592Y373694D01*
X458691Y373643D01*
X458788Y373590D01*
X458882Y373533D01*
X458975Y373472D01*
X459066Y373409D01*
X459155Y373342D01*
X459241Y373272D01*
X459324Y373199D01*
X459406Y373124D01*
X459484Y373046D01*
X459559Y372964D01*
X459632Y372881D01*
X459702Y372795D01*
X459769Y372706D01*
X459832Y372615D01*
X459893Y372522D01*
X459950Y372427D01*
X460003Y372331D01*
X460054Y372232D01*
X460101Y372131D01*
X460144Y372029D01*
X460184Y371926D01*
X460220Y371821D01*
X460252Y371715D01*
X460281Y371608D01*
X460306Y371500D01*
X460327Y371391D01*
X460344Y371282D01*
X460358Y371172D01*
X460367Y371061D01*
X460373Y370951D01*
X460375Y370840D01*
X460373Y370729D01*
X460367Y370619D01*
X460358Y370508D01*
X460344Y370398D01*
X460327Y370289D01*
X460306Y370180D01*
X460281Y370072D01*
X460252Y369965D01*
X460220Y369859D01*
X460184Y369754D01*
X460144Y369651D01*
X460101Y369549D01*
X460054Y369448D01*
X460003Y369349D01*
X459950Y369252D01*
X459893Y369158D01*
X459832Y369065D01*
X459769Y368974D01*
X459702Y368885D01*
X459632Y368799D01*
X459559Y368716D01*
X459484Y368634D01*
X459406Y368556D01*
X459324Y368481D01*
X459241Y368408D01*
X459155Y368338D01*
X459066Y368271D01*
X458975Y368208D01*
X458882Y368147D01*
X458788Y368090D01*
X458691Y368037D01*
X458592Y367986D01*
X458491Y367939D01*
X458389Y367896D01*
X458286Y367856D01*
X458181Y367820D01*
X458075Y367788D01*
X457968Y367759D01*
X457860Y367734D01*
X457751Y367713D01*
X457642Y367696D01*
X457532Y367682D01*
X457421Y367673D01*
X457311Y367667D01*
X457200Y367665D01*
X454025Y367665D01*
X453885Y367667D01*
X453745Y367673D01*
X453605Y367682D01*
X453466Y367696D01*
X453327Y367713D01*
X453189Y367734D01*
X453051Y367759D01*
X452914Y367788D01*
X452778Y367820D01*
X452643Y367857D01*
X452509Y367897D01*
X452376Y367940D01*
X452244Y367988D01*
X452113Y368038D01*
X451984Y368093D01*
X451857Y368151D01*
X451731Y368212D01*
X451607Y368277D01*
X451485Y368346D01*
X451365Y368417D01*
X451247Y368492D01*
X451130Y368570D01*
X451016Y368652D01*
X450905Y368736D01*
X450796Y368824D01*
X450689Y368914D01*
X450584Y369008D01*
X450483Y369104D01*
X450384Y369203D01*
X450288Y369304D01*
X450194Y369409D01*
X450104Y369516D01*
X450016Y369625D01*
X449932Y369736D01*
X449850Y369850D01*
X449772Y369967D01*
X449697Y370085D01*
X449626Y370205D01*
X449557Y370327D01*
X449492Y370451D01*
X449431Y370577D01*
X449373Y370704D01*
X449318Y370833D01*
X449268Y370964D01*
X449220Y371096D01*
X449177Y371229D01*
X449137Y371363D01*
X449100Y371498D01*
X449068Y371634D01*
X449039Y371771D01*
X449014Y371909D01*
X448993Y372047D01*
X448976Y372186D01*
X448962Y372325D01*
X448953Y372465D01*
X448947Y372605D01*
X448945Y372745D01*
D20*
X241250Y281600D02*
X241250Y274500D01*
X203250Y274500D02*
X203250Y281600D01*
D21*
X264850Y271700D02*
X271850Y261000D01*
X264850Y271700D02*
X257850Y261000D01*
X271850Y261000D01*
D20*
X298950Y282300D02*
X298950Y200300D01*
X298950Y282300D02*
X145550Y282300D01*
X145550Y200300D01*
X298950Y200300D01*
X290950Y208300D02*
X290950Y274300D01*
X290950Y208300D02*
X153550Y208300D01*
X153550Y274300D01*
X203250Y274300D01*
X241250Y274300D02*
X290950Y274300D01*
X290950Y208300D02*
X298950Y200300D01*
X290950Y274300D02*
X298950Y282300D01*
X153550Y208300D02*
X145550Y200300D01*
X153550Y274300D02*
X145550Y282300D01*
D18*
X216163Y322998D02*
X216163Y334738D01*
X216163Y322998D02*
X216165Y322865D01*
X216171Y322733D01*
X216181Y322601D01*
X216194Y322469D01*
X216212Y322337D01*
X216233Y322207D01*
X216258Y322076D01*
X216287Y321947D01*
X216320Y321819D01*
X216356Y321691D01*
X216396Y321565D01*
X216440Y321440D01*
X216488Y321316D01*
X216539Y321194D01*
X216594Y321073D01*
X216652Y320954D01*
X216714Y320836D01*
X216779Y320721D01*
X216848Y320607D01*
X216919Y320496D01*
X216995Y320387D01*
X217073Y320280D01*
X217154Y320175D01*
X217239Y320073D01*
X217326Y319973D01*
X217416Y319876D01*
X217509Y319781D01*
X217605Y319690D01*
X217703Y319601D01*
X217804Y319515D01*
X217908Y319432D01*
X218014Y319352D01*
X218122Y319276D01*
X218232Y319202D01*
X218345Y319132D01*
X218459Y319065D01*
X218576Y319002D01*
X218694Y318942D01*
X218814Y318885D01*
X218936Y318832D01*
X219059Y318783D01*
X219183Y318737D01*
X219309Y318695D01*
X219436Y318657D01*
X219564Y318622D01*
X219693Y318591D01*
X219822Y318564D01*
X219953Y318541D01*
X220084Y318521D01*
X220216Y318506D01*
X220348Y318494D01*
X220480Y318486D01*
X220613Y318482D01*
X220745Y318482D01*
X220878Y318486D01*
X221010Y318494D01*
X221142Y318506D01*
X221274Y318521D01*
X221405Y318541D01*
X221536Y318564D01*
X221665Y318591D01*
X221794Y318622D01*
X221922Y318657D01*
X222049Y318695D01*
X222175Y318737D01*
X222299Y318783D01*
X222422Y318832D01*
X222544Y318885D01*
X222664Y318942D01*
X222782Y319002D01*
X222899Y319065D01*
X223013Y319132D01*
X223126Y319202D01*
X223236Y319276D01*
X223344Y319352D01*
X223450Y319432D01*
X223554Y319515D01*
X223655Y319601D01*
X223753Y319690D01*
X223849Y319781D01*
X223942Y319876D01*
X224032Y319973D01*
X224119Y320073D01*
X224204Y320175D01*
X224285Y320280D01*
X224363Y320387D01*
X224439Y320496D01*
X224510Y320607D01*
X224579Y320721D01*
X224644Y320836D01*
X224706Y320954D01*
X224764Y321073D01*
X224819Y321194D01*
X224870Y321316D01*
X224918Y321440D01*
X224962Y321565D01*
X225002Y321691D01*
X225038Y321819D01*
X225071Y321947D01*
X225100Y322076D01*
X225125Y322207D01*
X225146Y322337D01*
X225164Y322469D01*
X225177Y322601D01*
X225187Y322733D01*
X225193Y322865D01*
X225195Y322998D01*
X225194Y322998D02*
X225194Y334738D01*
X236831Y334738D02*
X231412Y318482D01*
X242250Y318482D02*
X236831Y334738D01*
X240895Y322546D02*
X232767Y322546D01*
X248559Y318482D02*
X248559Y334738D01*
X253075Y334738D01*
X253208Y334736D01*
X253340Y334730D01*
X253472Y334720D01*
X253604Y334707D01*
X253736Y334689D01*
X253866Y334668D01*
X253997Y334643D01*
X254126Y334614D01*
X254254Y334581D01*
X254382Y334545D01*
X254508Y334505D01*
X254633Y334461D01*
X254757Y334413D01*
X254879Y334362D01*
X255000Y334307D01*
X255119Y334249D01*
X255237Y334187D01*
X255352Y334122D01*
X255466Y334053D01*
X255577Y333982D01*
X255686Y333906D01*
X255793Y333828D01*
X255898Y333747D01*
X256000Y333662D01*
X256100Y333575D01*
X256197Y333485D01*
X256292Y333392D01*
X256383Y333296D01*
X256472Y333198D01*
X256558Y333097D01*
X256641Y332993D01*
X256721Y332887D01*
X256797Y332779D01*
X256871Y332669D01*
X256941Y332556D01*
X257008Y332442D01*
X257071Y332325D01*
X257131Y332207D01*
X257188Y332087D01*
X257241Y331965D01*
X257290Y331842D01*
X257336Y331718D01*
X257378Y331592D01*
X257416Y331465D01*
X257451Y331337D01*
X257482Y331208D01*
X257509Y331079D01*
X257532Y330948D01*
X257552Y330817D01*
X257567Y330685D01*
X257579Y330553D01*
X257587Y330421D01*
X257591Y330288D01*
X257591Y330156D01*
X257587Y330023D01*
X257579Y329891D01*
X257567Y329759D01*
X257552Y329627D01*
X257532Y329496D01*
X257509Y329365D01*
X257482Y329236D01*
X257451Y329107D01*
X257416Y328979D01*
X257378Y328852D01*
X257336Y328726D01*
X257290Y328602D01*
X257241Y328479D01*
X257188Y328357D01*
X257131Y328237D01*
X257071Y328119D01*
X257008Y328002D01*
X256941Y327888D01*
X256871Y327775D01*
X256797Y327665D01*
X256721Y327557D01*
X256641Y327451D01*
X256558Y327347D01*
X256472Y327246D01*
X256383Y327148D01*
X256292Y327052D01*
X256197Y326959D01*
X256100Y326869D01*
X256000Y326782D01*
X255898Y326697D01*
X255793Y326616D01*
X255686Y326538D01*
X255577Y326462D01*
X255466Y326391D01*
X255352Y326322D01*
X255237Y326257D01*
X255119Y326195D01*
X255000Y326137D01*
X254879Y326082D01*
X254757Y326031D01*
X254633Y325983D01*
X254508Y325939D01*
X254382Y325899D01*
X254254Y325863D01*
X254126Y325830D01*
X253997Y325801D01*
X253866Y325776D01*
X253736Y325755D01*
X253604Y325737D01*
X253472Y325724D01*
X253340Y325714D01*
X253208Y325708D01*
X253075Y325706D01*
X253075Y325707D02*
X248559Y325707D01*
X253978Y325707D02*
X257590Y318482D01*
X267572Y318482D02*
X267572Y334738D01*
X263057Y334738D02*
X272088Y334738D01*
X127000Y114300D02*
X114300Y114300D01*
X127000Y114300D02*
X133350Y107950D01*
X133350Y95250D01*
X127000Y88900D01*
X107950Y95250D02*
X107950Y107950D01*
X114300Y114300D01*
X107950Y95250D02*
X114300Y88900D01*
X127000Y88900D01*
D19*
X111633Y123063D02*
X111633Y131953D01*
X111633Y123063D02*
X111631Y122963D01*
X111625Y122864D01*
X111615Y122764D01*
X111602Y122666D01*
X111584Y122567D01*
X111563Y122470D01*
X111538Y122374D01*
X111509Y122278D01*
X111476Y122184D01*
X111440Y122091D01*
X111400Y122000D01*
X111356Y121910D01*
X111309Y121822D01*
X111259Y121736D01*
X111205Y121652D01*
X111148Y121570D01*
X111088Y121491D01*
X111024Y121413D01*
X110958Y121339D01*
X110889Y121267D01*
X110817Y121198D01*
X110743Y121132D01*
X110665Y121068D01*
X110586Y121008D01*
X110504Y120951D01*
X110420Y120897D01*
X110334Y120847D01*
X110246Y120800D01*
X110156Y120756D01*
X110065Y120716D01*
X109972Y120680D01*
X109878Y120647D01*
X109782Y120618D01*
X109686Y120593D01*
X109589Y120572D01*
X109490Y120554D01*
X109392Y120541D01*
X109292Y120531D01*
X109193Y120525D01*
X109093Y120523D01*
X107823Y120523D01*
X117613Y120523D02*
X117613Y131953D01*
X120788Y131953D01*
X120899Y131951D01*
X121009Y131945D01*
X121120Y131936D01*
X121230Y131922D01*
X121339Y131905D01*
X121448Y131884D01*
X121556Y131859D01*
X121663Y131830D01*
X121769Y131798D01*
X121874Y131762D01*
X121977Y131722D01*
X122079Y131679D01*
X122180Y131632D01*
X122279Y131581D01*
X122376Y131528D01*
X122470Y131471D01*
X122563Y131410D01*
X122654Y131347D01*
X122743Y131280D01*
X122829Y131210D01*
X122912Y131137D01*
X122994Y131062D01*
X123072Y130984D01*
X123147Y130902D01*
X123220Y130819D01*
X123290Y130733D01*
X123357Y130644D01*
X123420Y130553D01*
X123481Y130460D01*
X123538Y130365D01*
X123591Y130269D01*
X123642Y130170D01*
X123689Y130069D01*
X123732Y129967D01*
X123772Y129864D01*
X123808Y129759D01*
X123840Y129653D01*
X123869Y129546D01*
X123894Y129438D01*
X123915Y129329D01*
X123932Y129220D01*
X123946Y129110D01*
X123955Y128999D01*
X123961Y128889D01*
X123963Y128778D01*
X123961Y128667D01*
X123955Y128557D01*
X123946Y128446D01*
X123932Y128336D01*
X123915Y128227D01*
X123894Y128118D01*
X123869Y128010D01*
X123840Y127903D01*
X123808Y127797D01*
X123772Y127692D01*
X123732Y127589D01*
X123689Y127487D01*
X123642Y127386D01*
X123591Y127287D01*
X123538Y127190D01*
X123481Y127096D01*
X123420Y127003D01*
X123357Y126912D01*
X123290Y126823D01*
X123220Y126737D01*
X123147Y126654D01*
X123072Y126572D01*
X122994Y126494D01*
X122912Y126419D01*
X122829Y126346D01*
X122743Y126276D01*
X122654Y126209D01*
X122563Y126146D01*
X122470Y126085D01*
X122375Y126028D01*
X122279Y125975D01*
X122180Y125924D01*
X122079Y125877D01*
X121977Y125834D01*
X121874Y125794D01*
X121769Y125758D01*
X121663Y125726D01*
X121556Y125697D01*
X121448Y125672D01*
X121339Y125651D01*
X121230Y125634D01*
X121120Y125620D01*
X121009Y125611D01*
X120899Y125605D01*
X120788Y125603D01*
X117613Y125603D01*
X128472Y129413D02*
X131647Y131953D01*
X131647Y120523D01*
X128472Y120523D02*
X134822Y120523D01*
D18*
X266700Y184150D02*
X279400Y184150D01*
X285750Y177800D01*
X285750Y165100D01*
X279400Y158750D01*
X260350Y165100D02*
X260350Y177800D01*
X266700Y184150D01*
X260350Y165100D02*
X266700Y158750D01*
X279400Y158750D01*
D19*
X264033Y192913D02*
X264033Y201803D01*
X264033Y192913D02*
X264031Y192813D01*
X264025Y192714D01*
X264015Y192614D01*
X264002Y192516D01*
X263984Y192417D01*
X263963Y192320D01*
X263938Y192224D01*
X263909Y192128D01*
X263876Y192034D01*
X263840Y191941D01*
X263800Y191850D01*
X263756Y191760D01*
X263709Y191672D01*
X263659Y191586D01*
X263605Y191502D01*
X263548Y191420D01*
X263488Y191341D01*
X263424Y191263D01*
X263358Y191189D01*
X263289Y191117D01*
X263217Y191048D01*
X263143Y190982D01*
X263065Y190918D01*
X262986Y190858D01*
X262904Y190801D01*
X262820Y190747D01*
X262734Y190697D01*
X262646Y190650D01*
X262556Y190606D01*
X262465Y190566D01*
X262372Y190530D01*
X262278Y190497D01*
X262182Y190468D01*
X262086Y190443D01*
X261989Y190422D01*
X261890Y190404D01*
X261792Y190391D01*
X261692Y190381D01*
X261593Y190375D01*
X261493Y190373D01*
X260223Y190373D01*
X270013Y190373D02*
X270013Y201803D01*
X273188Y201803D01*
X273299Y201801D01*
X273409Y201795D01*
X273520Y201786D01*
X273630Y201772D01*
X273739Y201755D01*
X273848Y201734D01*
X273956Y201709D01*
X274063Y201680D01*
X274169Y201648D01*
X274274Y201612D01*
X274377Y201572D01*
X274479Y201529D01*
X274580Y201482D01*
X274679Y201431D01*
X274776Y201378D01*
X274870Y201321D01*
X274963Y201260D01*
X275054Y201197D01*
X275143Y201130D01*
X275229Y201060D01*
X275312Y200987D01*
X275394Y200912D01*
X275472Y200834D01*
X275547Y200752D01*
X275620Y200669D01*
X275690Y200583D01*
X275757Y200494D01*
X275820Y200403D01*
X275881Y200310D01*
X275938Y200215D01*
X275991Y200119D01*
X276042Y200020D01*
X276089Y199919D01*
X276132Y199817D01*
X276172Y199714D01*
X276208Y199609D01*
X276240Y199503D01*
X276269Y199396D01*
X276294Y199288D01*
X276315Y199179D01*
X276332Y199070D01*
X276346Y198960D01*
X276355Y198849D01*
X276361Y198739D01*
X276363Y198628D01*
X276361Y198517D01*
X276355Y198407D01*
X276346Y198296D01*
X276332Y198186D01*
X276315Y198077D01*
X276294Y197968D01*
X276269Y197860D01*
X276240Y197753D01*
X276208Y197647D01*
X276172Y197542D01*
X276132Y197439D01*
X276089Y197337D01*
X276042Y197236D01*
X275991Y197137D01*
X275938Y197040D01*
X275881Y196946D01*
X275820Y196853D01*
X275757Y196762D01*
X275690Y196673D01*
X275620Y196587D01*
X275547Y196504D01*
X275472Y196422D01*
X275394Y196344D01*
X275312Y196269D01*
X275229Y196196D01*
X275143Y196126D01*
X275054Y196059D01*
X274963Y195996D01*
X274870Y195935D01*
X274776Y195878D01*
X274679Y195825D01*
X274580Y195774D01*
X274479Y195727D01*
X274377Y195684D01*
X274274Y195644D01*
X274169Y195608D01*
X274063Y195576D01*
X273956Y195547D01*
X273848Y195522D01*
X273739Y195501D01*
X273630Y195484D01*
X273520Y195470D01*
X273409Y195461D01*
X273299Y195455D01*
X273188Y195453D01*
X270013Y195453D01*
X284364Y201804D02*
X284468Y201802D01*
X284573Y201796D01*
X284677Y201787D01*
X284780Y201774D01*
X284883Y201756D01*
X284985Y201736D01*
X285087Y201711D01*
X285187Y201683D01*
X285287Y201651D01*
X285385Y201615D01*
X285482Y201576D01*
X285577Y201534D01*
X285671Y201488D01*
X285763Y201438D01*
X285853Y201386D01*
X285941Y201330D01*
X286027Y201270D01*
X286111Y201208D01*
X286192Y201143D01*
X286271Y201075D01*
X286348Y201003D01*
X286421Y200930D01*
X286493Y200853D01*
X286561Y200774D01*
X286626Y200693D01*
X286688Y200609D01*
X286748Y200523D01*
X286804Y200435D01*
X286856Y200345D01*
X286906Y200253D01*
X286952Y200159D01*
X286994Y200064D01*
X287033Y199967D01*
X287069Y199869D01*
X287101Y199769D01*
X287129Y199669D01*
X287154Y199567D01*
X287174Y199465D01*
X287192Y199362D01*
X287205Y199259D01*
X287214Y199155D01*
X287220Y199050D01*
X287222Y198946D01*
X284364Y201803D02*
X284246Y201801D01*
X284127Y201795D01*
X284009Y201786D01*
X283892Y201773D01*
X283775Y201755D01*
X283658Y201735D01*
X283542Y201710D01*
X283427Y201682D01*
X283314Y201649D01*
X283201Y201614D01*
X283089Y201574D01*
X282979Y201532D01*
X282870Y201485D01*
X282762Y201435D01*
X282657Y201382D01*
X282553Y201325D01*
X282451Y201265D01*
X282351Y201202D01*
X282253Y201135D01*
X282157Y201066D01*
X282064Y200993D01*
X281973Y200917D01*
X281884Y200839D01*
X281798Y200757D01*
X281715Y200673D01*
X281634Y200587D01*
X281557Y200497D01*
X281482Y200406D01*
X281410Y200312D01*
X281341Y200215D01*
X281276Y200117D01*
X281213Y200016D01*
X281154Y199913D01*
X281098Y199809D01*
X281046Y199703D01*
X280997Y199595D01*
X280952Y199486D01*
X280910Y199375D01*
X280872Y199263D01*
X286270Y196724D02*
X286346Y196799D01*
X286421Y196878D01*
X286492Y196959D01*
X286561Y197043D01*
X286626Y197129D01*
X286688Y197217D01*
X286748Y197307D01*
X286804Y197399D01*
X286857Y197494D01*
X286906Y197590D01*
X286952Y197688D01*
X286995Y197787D01*
X287034Y197888D01*
X287069Y197990D01*
X287101Y198093D01*
X287129Y198197D01*
X287154Y198302D01*
X287175Y198409D01*
X287192Y198515D01*
X287205Y198622D01*
X287214Y198730D01*
X287220Y198838D01*
X287222Y198946D01*
X286269Y196723D02*
X280872Y190373D01*
X287222Y190373D01*
D18*
X165100Y95250D02*
X152400Y95250D01*
X165100Y95250D02*
X171450Y88900D01*
X171450Y76200D01*
X165100Y69850D01*
X146050Y76200D02*
X146050Y88900D01*
X152400Y95250D01*
X146050Y76200D02*
X152400Y69850D01*
X165100Y69850D01*
D19*
X149733Y104013D02*
X149733Y112903D01*
X149733Y104013D02*
X149731Y103913D01*
X149725Y103814D01*
X149715Y103714D01*
X149702Y103616D01*
X149684Y103517D01*
X149663Y103420D01*
X149638Y103324D01*
X149609Y103228D01*
X149576Y103134D01*
X149540Y103041D01*
X149500Y102950D01*
X149456Y102860D01*
X149409Y102772D01*
X149359Y102686D01*
X149305Y102602D01*
X149248Y102520D01*
X149188Y102441D01*
X149124Y102363D01*
X149058Y102289D01*
X148989Y102217D01*
X148917Y102148D01*
X148843Y102082D01*
X148765Y102018D01*
X148686Y101958D01*
X148604Y101901D01*
X148520Y101847D01*
X148434Y101797D01*
X148346Y101750D01*
X148256Y101706D01*
X148165Y101666D01*
X148072Y101630D01*
X147978Y101597D01*
X147882Y101568D01*
X147786Y101543D01*
X147689Y101522D01*
X147590Y101504D01*
X147492Y101491D01*
X147392Y101481D01*
X147293Y101475D01*
X147193Y101473D01*
X145923Y101473D01*
X155713Y101473D02*
X155713Y112903D01*
X158888Y112903D01*
X158999Y112901D01*
X159109Y112895D01*
X159220Y112886D01*
X159330Y112872D01*
X159439Y112855D01*
X159548Y112834D01*
X159656Y112809D01*
X159763Y112780D01*
X159869Y112748D01*
X159974Y112712D01*
X160077Y112672D01*
X160179Y112629D01*
X160280Y112582D01*
X160379Y112531D01*
X160476Y112478D01*
X160570Y112421D01*
X160663Y112360D01*
X160754Y112297D01*
X160843Y112230D01*
X160929Y112160D01*
X161012Y112087D01*
X161094Y112012D01*
X161172Y111934D01*
X161247Y111852D01*
X161320Y111769D01*
X161390Y111683D01*
X161457Y111594D01*
X161520Y111503D01*
X161581Y111410D01*
X161638Y111315D01*
X161691Y111219D01*
X161742Y111120D01*
X161789Y111019D01*
X161832Y110917D01*
X161872Y110814D01*
X161908Y110709D01*
X161940Y110603D01*
X161969Y110496D01*
X161994Y110388D01*
X162015Y110279D01*
X162032Y110170D01*
X162046Y110060D01*
X162055Y109949D01*
X162061Y109839D01*
X162063Y109728D01*
X162061Y109617D01*
X162055Y109507D01*
X162046Y109396D01*
X162032Y109286D01*
X162015Y109177D01*
X161994Y109068D01*
X161969Y108960D01*
X161940Y108853D01*
X161908Y108747D01*
X161872Y108642D01*
X161832Y108539D01*
X161789Y108437D01*
X161742Y108336D01*
X161691Y108237D01*
X161638Y108140D01*
X161581Y108046D01*
X161520Y107953D01*
X161457Y107862D01*
X161390Y107773D01*
X161320Y107687D01*
X161247Y107604D01*
X161172Y107522D01*
X161094Y107444D01*
X161012Y107369D01*
X160929Y107296D01*
X160843Y107226D01*
X160754Y107159D01*
X160663Y107096D01*
X160570Y107035D01*
X160475Y106978D01*
X160379Y106925D01*
X160280Y106874D01*
X160179Y106827D01*
X160077Y106784D01*
X159974Y106744D01*
X159869Y106708D01*
X159763Y106676D01*
X159656Y106647D01*
X159548Y106622D01*
X159439Y106601D01*
X159330Y106584D01*
X159220Y106570D01*
X159109Y106561D01*
X158999Y106555D01*
X158888Y106553D01*
X155713Y106553D01*
X166572Y101473D02*
X169747Y101473D01*
X169858Y101475D01*
X169968Y101481D01*
X170079Y101490D01*
X170189Y101504D01*
X170298Y101521D01*
X170407Y101542D01*
X170515Y101567D01*
X170622Y101596D01*
X170728Y101628D01*
X170833Y101664D01*
X170936Y101704D01*
X171038Y101747D01*
X171139Y101794D01*
X171238Y101845D01*
X171334Y101898D01*
X171429Y101955D01*
X171522Y102016D01*
X171613Y102079D01*
X171702Y102146D01*
X171788Y102216D01*
X171871Y102289D01*
X171953Y102364D01*
X172031Y102442D01*
X172106Y102524D01*
X172179Y102607D01*
X172249Y102693D01*
X172316Y102782D01*
X172379Y102873D01*
X172440Y102966D01*
X172497Y103060D01*
X172550Y103157D01*
X172601Y103256D01*
X172648Y103357D01*
X172691Y103459D01*
X172731Y103562D01*
X172767Y103667D01*
X172799Y103773D01*
X172828Y103880D01*
X172853Y103988D01*
X172874Y104097D01*
X172891Y104206D01*
X172905Y104316D01*
X172914Y104427D01*
X172920Y104537D01*
X172922Y104648D01*
X172920Y104759D01*
X172914Y104869D01*
X172905Y104980D01*
X172891Y105090D01*
X172874Y105199D01*
X172853Y105308D01*
X172828Y105416D01*
X172799Y105523D01*
X172767Y105629D01*
X172731Y105734D01*
X172691Y105837D01*
X172648Y105939D01*
X172601Y106040D01*
X172550Y106139D01*
X172497Y106235D01*
X172440Y106330D01*
X172379Y106423D01*
X172316Y106514D01*
X172249Y106603D01*
X172179Y106689D01*
X172106Y106772D01*
X172031Y106854D01*
X171953Y106932D01*
X171871Y107007D01*
X171788Y107080D01*
X171702Y107150D01*
X171613Y107217D01*
X171522Y107280D01*
X171429Y107341D01*
X171335Y107398D01*
X171238Y107451D01*
X171139Y107502D01*
X171038Y107549D01*
X170936Y107592D01*
X170833Y107632D01*
X170728Y107668D01*
X170622Y107700D01*
X170515Y107729D01*
X170407Y107754D01*
X170298Y107775D01*
X170189Y107792D01*
X170079Y107806D01*
X169968Y107815D01*
X169858Y107821D01*
X169747Y107823D01*
X170382Y112903D02*
X166572Y112903D01*
X170382Y112903D02*
X170482Y112901D01*
X170581Y112895D01*
X170681Y112885D01*
X170779Y112872D01*
X170878Y112854D01*
X170975Y112833D01*
X171071Y112808D01*
X171167Y112779D01*
X171261Y112746D01*
X171354Y112710D01*
X171445Y112670D01*
X171535Y112626D01*
X171623Y112579D01*
X171709Y112529D01*
X171793Y112475D01*
X171875Y112418D01*
X171954Y112358D01*
X172032Y112294D01*
X172106Y112228D01*
X172178Y112159D01*
X172247Y112087D01*
X172313Y112013D01*
X172377Y111935D01*
X172437Y111856D01*
X172494Y111774D01*
X172548Y111690D01*
X172598Y111604D01*
X172645Y111516D01*
X172689Y111426D01*
X172729Y111335D01*
X172765Y111242D01*
X172798Y111148D01*
X172827Y111052D01*
X172852Y110956D01*
X172873Y110859D01*
X172891Y110760D01*
X172904Y110662D01*
X172914Y110562D01*
X172920Y110463D01*
X172922Y110363D01*
X172920Y110263D01*
X172914Y110164D01*
X172904Y110064D01*
X172891Y109966D01*
X172873Y109867D01*
X172852Y109770D01*
X172827Y109674D01*
X172798Y109578D01*
X172765Y109484D01*
X172729Y109391D01*
X172689Y109300D01*
X172645Y109210D01*
X172598Y109122D01*
X172548Y109036D01*
X172494Y108952D01*
X172437Y108870D01*
X172377Y108791D01*
X172313Y108713D01*
X172247Y108639D01*
X172178Y108567D01*
X172106Y108498D01*
X172032Y108432D01*
X171954Y108368D01*
X171875Y108308D01*
X171793Y108251D01*
X171709Y108197D01*
X171623Y108147D01*
X171535Y108100D01*
X171445Y108056D01*
X171354Y108016D01*
X171261Y107980D01*
X171167Y107947D01*
X171071Y107918D01*
X170975Y107893D01*
X170878Y107872D01*
X170779Y107854D01*
X170681Y107841D01*
X170581Y107831D01*
X170482Y107825D01*
X170382Y107823D01*
X167842Y107823D01*
D18*
X209550Y184150D02*
X222250Y184150D01*
X228600Y177800D01*
X228600Y165100D01*
X222250Y158750D01*
X203200Y165100D02*
X203200Y177800D01*
X209550Y184150D01*
X203200Y165100D02*
X209550Y158750D01*
X222250Y158750D01*
D19*
X206883Y192913D02*
X206883Y201803D01*
X206883Y192913D02*
X206881Y192813D01*
X206875Y192714D01*
X206865Y192614D01*
X206852Y192516D01*
X206834Y192417D01*
X206813Y192320D01*
X206788Y192224D01*
X206759Y192128D01*
X206726Y192034D01*
X206690Y191941D01*
X206650Y191850D01*
X206606Y191760D01*
X206559Y191672D01*
X206509Y191586D01*
X206455Y191502D01*
X206398Y191420D01*
X206338Y191341D01*
X206274Y191263D01*
X206208Y191189D01*
X206139Y191117D01*
X206067Y191048D01*
X205993Y190982D01*
X205915Y190918D01*
X205836Y190858D01*
X205754Y190801D01*
X205670Y190747D01*
X205584Y190697D01*
X205496Y190650D01*
X205406Y190606D01*
X205315Y190566D01*
X205222Y190530D01*
X205128Y190497D01*
X205032Y190468D01*
X204936Y190443D01*
X204839Y190422D01*
X204740Y190404D01*
X204642Y190391D01*
X204542Y190381D01*
X204443Y190375D01*
X204343Y190373D01*
X203073Y190373D01*
X212863Y190373D02*
X212863Y201803D01*
X216038Y201803D01*
X216149Y201801D01*
X216259Y201795D01*
X216370Y201786D01*
X216480Y201772D01*
X216589Y201755D01*
X216698Y201734D01*
X216806Y201709D01*
X216913Y201680D01*
X217019Y201648D01*
X217124Y201612D01*
X217227Y201572D01*
X217329Y201529D01*
X217430Y201482D01*
X217529Y201431D01*
X217626Y201378D01*
X217720Y201321D01*
X217813Y201260D01*
X217904Y201197D01*
X217993Y201130D01*
X218079Y201060D01*
X218162Y200987D01*
X218244Y200912D01*
X218322Y200834D01*
X218397Y200752D01*
X218470Y200669D01*
X218540Y200583D01*
X218607Y200494D01*
X218670Y200403D01*
X218731Y200310D01*
X218788Y200215D01*
X218841Y200119D01*
X218892Y200020D01*
X218939Y199919D01*
X218982Y199817D01*
X219022Y199714D01*
X219058Y199609D01*
X219090Y199503D01*
X219119Y199396D01*
X219144Y199288D01*
X219165Y199179D01*
X219182Y199070D01*
X219196Y198960D01*
X219205Y198849D01*
X219211Y198739D01*
X219213Y198628D01*
X219211Y198517D01*
X219205Y198407D01*
X219196Y198296D01*
X219182Y198186D01*
X219165Y198077D01*
X219144Y197968D01*
X219119Y197860D01*
X219090Y197753D01*
X219058Y197647D01*
X219022Y197542D01*
X218982Y197439D01*
X218939Y197337D01*
X218892Y197236D01*
X218841Y197137D01*
X218788Y197040D01*
X218731Y196946D01*
X218670Y196853D01*
X218607Y196762D01*
X218540Y196673D01*
X218470Y196587D01*
X218397Y196504D01*
X218322Y196422D01*
X218244Y196344D01*
X218162Y196269D01*
X218079Y196196D01*
X217993Y196126D01*
X217904Y196059D01*
X217813Y195996D01*
X217720Y195935D01*
X217625Y195878D01*
X217529Y195825D01*
X217430Y195774D01*
X217329Y195727D01*
X217227Y195684D01*
X217124Y195644D01*
X217019Y195608D01*
X216913Y195576D01*
X216806Y195547D01*
X216698Y195522D01*
X216589Y195501D01*
X216480Y195484D01*
X216370Y195470D01*
X216259Y195461D01*
X216149Y195455D01*
X216038Y195453D01*
X212863Y195453D01*
X223722Y192913D02*
X226262Y201803D01*
X223722Y192913D02*
X230072Y192913D01*
X228167Y195453D02*
X228167Y190373D01*
D18*
X57150Y298450D02*
X44450Y298450D01*
X57150Y298450D02*
X63500Y292100D01*
X63500Y279400D01*
X57150Y273050D01*
X38100Y279400D02*
X38100Y292100D01*
X44450Y298450D01*
X38100Y279400D02*
X44450Y273050D01*
X57150Y273050D01*
D19*
X41783Y307213D02*
X41783Y316103D01*
X41783Y307213D02*
X41781Y307113D01*
X41775Y307014D01*
X41765Y306914D01*
X41752Y306816D01*
X41734Y306717D01*
X41713Y306620D01*
X41688Y306524D01*
X41659Y306428D01*
X41626Y306334D01*
X41590Y306241D01*
X41550Y306150D01*
X41506Y306060D01*
X41459Y305972D01*
X41409Y305886D01*
X41355Y305802D01*
X41298Y305720D01*
X41238Y305641D01*
X41174Y305563D01*
X41108Y305489D01*
X41039Y305417D01*
X40967Y305348D01*
X40893Y305282D01*
X40815Y305218D01*
X40736Y305158D01*
X40654Y305101D01*
X40570Y305047D01*
X40484Y304997D01*
X40396Y304950D01*
X40306Y304906D01*
X40215Y304866D01*
X40122Y304830D01*
X40028Y304797D01*
X39932Y304768D01*
X39836Y304743D01*
X39739Y304722D01*
X39640Y304704D01*
X39542Y304691D01*
X39442Y304681D01*
X39343Y304675D01*
X39243Y304673D01*
X37973Y304673D01*
X47763Y304673D02*
X47763Y316103D01*
X50938Y316103D01*
X51049Y316101D01*
X51159Y316095D01*
X51270Y316086D01*
X51380Y316072D01*
X51489Y316055D01*
X51598Y316034D01*
X51706Y316009D01*
X51813Y315980D01*
X51919Y315948D01*
X52024Y315912D01*
X52127Y315872D01*
X52229Y315829D01*
X52330Y315782D01*
X52429Y315731D01*
X52526Y315678D01*
X52620Y315621D01*
X52713Y315560D01*
X52804Y315497D01*
X52893Y315430D01*
X52979Y315360D01*
X53062Y315287D01*
X53144Y315212D01*
X53222Y315134D01*
X53297Y315052D01*
X53370Y314969D01*
X53440Y314883D01*
X53507Y314794D01*
X53570Y314703D01*
X53631Y314610D01*
X53688Y314515D01*
X53741Y314419D01*
X53792Y314320D01*
X53839Y314219D01*
X53882Y314117D01*
X53922Y314014D01*
X53958Y313909D01*
X53990Y313803D01*
X54019Y313696D01*
X54044Y313588D01*
X54065Y313479D01*
X54082Y313370D01*
X54096Y313260D01*
X54105Y313149D01*
X54111Y313039D01*
X54113Y312928D01*
X54111Y312817D01*
X54105Y312707D01*
X54096Y312596D01*
X54082Y312486D01*
X54065Y312377D01*
X54044Y312268D01*
X54019Y312160D01*
X53990Y312053D01*
X53958Y311947D01*
X53922Y311842D01*
X53882Y311739D01*
X53839Y311637D01*
X53792Y311536D01*
X53741Y311437D01*
X53688Y311340D01*
X53631Y311246D01*
X53570Y311153D01*
X53507Y311062D01*
X53440Y310973D01*
X53370Y310887D01*
X53297Y310804D01*
X53222Y310722D01*
X53144Y310644D01*
X53062Y310569D01*
X52979Y310496D01*
X52893Y310426D01*
X52804Y310359D01*
X52713Y310296D01*
X52620Y310235D01*
X52525Y310178D01*
X52429Y310125D01*
X52330Y310074D01*
X52229Y310027D01*
X52127Y309984D01*
X52024Y309944D01*
X51919Y309908D01*
X51813Y309876D01*
X51706Y309847D01*
X51598Y309822D01*
X51489Y309801D01*
X51380Y309784D01*
X51270Y309770D01*
X51159Y309761D01*
X51049Y309755D01*
X50938Y309753D01*
X47763Y309753D01*
X58622Y304673D02*
X62432Y304673D01*
X62532Y304675D01*
X62631Y304681D01*
X62731Y304691D01*
X62829Y304704D01*
X62928Y304722D01*
X63025Y304743D01*
X63121Y304768D01*
X63217Y304797D01*
X63311Y304830D01*
X63404Y304866D01*
X63495Y304906D01*
X63585Y304950D01*
X63673Y304997D01*
X63759Y305047D01*
X63843Y305101D01*
X63925Y305158D01*
X64004Y305218D01*
X64082Y305282D01*
X64156Y305348D01*
X64228Y305417D01*
X64297Y305489D01*
X64363Y305563D01*
X64427Y305641D01*
X64487Y305720D01*
X64544Y305802D01*
X64598Y305886D01*
X64648Y305972D01*
X64695Y306060D01*
X64739Y306150D01*
X64779Y306241D01*
X64815Y306334D01*
X64848Y306428D01*
X64877Y306524D01*
X64902Y306620D01*
X64923Y306717D01*
X64941Y306816D01*
X64954Y306914D01*
X64964Y307014D01*
X64970Y307113D01*
X64972Y307213D01*
X64972Y308483D01*
X64970Y308583D01*
X64964Y308682D01*
X64954Y308782D01*
X64941Y308880D01*
X64923Y308979D01*
X64902Y309076D01*
X64877Y309172D01*
X64848Y309268D01*
X64815Y309362D01*
X64779Y309455D01*
X64739Y309546D01*
X64695Y309636D01*
X64648Y309724D01*
X64598Y309810D01*
X64544Y309894D01*
X64487Y309976D01*
X64427Y310055D01*
X64363Y310133D01*
X64297Y310207D01*
X64228Y310279D01*
X64156Y310348D01*
X64082Y310414D01*
X64004Y310478D01*
X63925Y310538D01*
X63843Y310595D01*
X63759Y310649D01*
X63673Y310699D01*
X63585Y310746D01*
X63495Y310790D01*
X63404Y310830D01*
X63311Y310866D01*
X63217Y310899D01*
X63121Y310928D01*
X63025Y310953D01*
X62928Y310974D01*
X62829Y310992D01*
X62731Y311005D01*
X62631Y311015D01*
X62532Y311021D01*
X62432Y311023D01*
X58622Y311023D01*
X58622Y316103D01*
X64972Y316103D01*
D18*
X107950Y552450D02*
X120650Y552450D01*
X127000Y546100D01*
X127000Y533400D01*
X120650Y527050D01*
X101600Y533400D02*
X101600Y546100D01*
X107950Y552450D01*
X101600Y533400D02*
X107950Y527050D01*
X120650Y527050D01*
D19*
X105283Y561213D02*
X105283Y570103D01*
X105283Y561213D02*
X105281Y561113D01*
X105275Y561014D01*
X105265Y560914D01*
X105252Y560816D01*
X105234Y560717D01*
X105213Y560620D01*
X105188Y560524D01*
X105159Y560428D01*
X105126Y560334D01*
X105090Y560241D01*
X105050Y560150D01*
X105006Y560060D01*
X104959Y559972D01*
X104909Y559886D01*
X104855Y559802D01*
X104798Y559720D01*
X104738Y559641D01*
X104674Y559563D01*
X104608Y559489D01*
X104539Y559417D01*
X104467Y559348D01*
X104393Y559282D01*
X104315Y559218D01*
X104236Y559158D01*
X104154Y559101D01*
X104070Y559047D01*
X103984Y558997D01*
X103896Y558950D01*
X103806Y558906D01*
X103715Y558866D01*
X103622Y558830D01*
X103528Y558797D01*
X103432Y558768D01*
X103336Y558743D01*
X103239Y558722D01*
X103140Y558704D01*
X103042Y558691D01*
X102942Y558681D01*
X102843Y558675D01*
X102743Y558673D01*
X101473Y558673D01*
X111263Y558673D02*
X111263Y570103D01*
X114438Y570103D01*
X114549Y570101D01*
X114659Y570095D01*
X114770Y570086D01*
X114880Y570072D01*
X114989Y570055D01*
X115098Y570034D01*
X115206Y570009D01*
X115313Y569980D01*
X115419Y569948D01*
X115524Y569912D01*
X115627Y569872D01*
X115729Y569829D01*
X115830Y569782D01*
X115929Y569731D01*
X116026Y569678D01*
X116120Y569621D01*
X116213Y569560D01*
X116304Y569497D01*
X116393Y569430D01*
X116479Y569360D01*
X116562Y569287D01*
X116644Y569212D01*
X116722Y569134D01*
X116797Y569052D01*
X116870Y568969D01*
X116940Y568883D01*
X117007Y568794D01*
X117070Y568703D01*
X117131Y568610D01*
X117188Y568515D01*
X117241Y568419D01*
X117292Y568320D01*
X117339Y568219D01*
X117382Y568117D01*
X117422Y568014D01*
X117458Y567909D01*
X117490Y567803D01*
X117519Y567696D01*
X117544Y567588D01*
X117565Y567479D01*
X117582Y567370D01*
X117596Y567260D01*
X117605Y567149D01*
X117611Y567039D01*
X117613Y566928D01*
X117611Y566817D01*
X117605Y566707D01*
X117596Y566596D01*
X117582Y566486D01*
X117565Y566377D01*
X117544Y566268D01*
X117519Y566160D01*
X117490Y566053D01*
X117458Y565947D01*
X117422Y565842D01*
X117382Y565739D01*
X117339Y565637D01*
X117292Y565536D01*
X117241Y565437D01*
X117188Y565341D01*
X117131Y565246D01*
X117070Y565153D01*
X117007Y565062D01*
X116940Y564973D01*
X116870Y564887D01*
X116797Y564804D01*
X116722Y564722D01*
X116644Y564644D01*
X116562Y564569D01*
X116479Y564496D01*
X116393Y564426D01*
X116304Y564359D01*
X116213Y564296D01*
X116120Y564235D01*
X116025Y564178D01*
X115929Y564125D01*
X115830Y564074D01*
X115729Y564027D01*
X115627Y563984D01*
X115524Y563944D01*
X115419Y563908D01*
X115313Y563876D01*
X115206Y563847D01*
X115098Y563822D01*
X114989Y563801D01*
X114880Y563784D01*
X114770Y563770D01*
X114659Y563761D01*
X114549Y563755D01*
X114438Y563753D01*
X111263Y563753D01*
X122122Y565023D02*
X125932Y565023D01*
X126032Y565021D01*
X126131Y565015D01*
X126231Y565005D01*
X126329Y564992D01*
X126428Y564974D01*
X126525Y564953D01*
X126621Y564928D01*
X126717Y564899D01*
X126811Y564866D01*
X126904Y564830D01*
X126995Y564790D01*
X127085Y564746D01*
X127173Y564699D01*
X127259Y564649D01*
X127343Y564595D01*
X127425Y564538D01*
X127504Y564478D01*
X127582Y564414D01*
X127656Y564348D01*
X127728Y564279D01*
X127797Y564207D01*
X127863Y564133D01*
X127927Y564055D01*
X127987Y563976D01*
X128044Y563894D01*
X128098Y563810D01*
X128148Y563724D01*
X128195Y563636D01*
X128239Y563546D01*
X128279Y563455D01*
X128315Y563362D01*
X128348Y563268D01*
X128377Y563172D01*
X128402Y563076D01*
X128423Y562979D01*
X128441Y562880D01*
X128454Y562782D01*
X128464Y562682D01*
X128470Y562583D01*
X128472Y562483D01*
X128472Y561848D01*
X128470Y561737D01*
X128464Y561627D01*
X128455Y561516D01*
X128441Y561406D01*
X128424Y561297D01*
X128403Y561188D01*
X128378Y561080D01*
X128349Y560973D01*
X128317Y560867D01*
X128281Y560762D01*
X128241Y560659D01*
X128198Y560557D01*
X128151Y560456D01*
X128100Y560357D01*
X128047Y560261D01*
X127990Y560166D01*
X127929Y560073D01*
X127866Y559982D01*
X127799Y559893D01*
X127729Y559807D01*
X127656Y559724D01*
X127581Y559642D01*
X127503Y559564D01*
X127421Y559489D01*
X127338Y559416D01*
X127252Y559346D01*
X127163Y559279D01*
X127072Y559216D01*
X126979Y559155D01*
X126884Y559098D01*
X126788Y559045D01*
X126689Y558994D01*
X126588Y558947D01*
X126486Y558904D01*
X126383Y558864D01*
X126278Y558828D01*
X126172Y558796D01*
X126065Y558767D01*
X125957Y558742D01*
X125848Y558721D01*
X125739Y558704D01*
X125629Y558690D01*
X125518Y558681D01*
X125408Y558675D01*
X125297Y558673D01*
X125186Y558675D01*
X125076Y558681D01*
X124965Y558690D01*
X124855Y558704D01*
X124746Y558721D01*
X124637Y558742D01*
X124529Y558767D01*
X124422Y558796D01*
X124316Y558828D01*
X124211Y558864D01*
X124108Y558904D01*
X124006Y558947D01*
X123905Y558994D01*
X123806Y559045D01*
X123710Y559098D01*
X123615Y559155D01*
X123522Y559216D01*
X123431Y559279D01*
X123342Y559346D01*
X123256Y559416D01*
X123173Y559489D01*
X123091Y559564D01*
X123013Y559642D01*
X122938Y559724D01*
X122865Y559807D01*
X122795Y559893D01*
X122728Y559982D01*
X122665Y560073D01*
X122604Y560166D01*
X122547Y560261D01*
X122494Y560357D01*
X122443Y560456D01*
X122396Y560557D01*
X122353Y560659D01*
X122313Y560762D01*
X122277Y560867D01*
X122245Y560973D01*
X122216Y561080D01*
X122191Y561188D01*
X122170Y561297D01*
X122153Y561406D01*
X122139Y561516D01*
X122130Y561627D01*
X122124Y561737D01*
X122122Y561848D01*
X122122Y565023D01*
X122124Y565163D01*
X122130Y565303D01*
X122139Y565443D01*
X122153Y565582D01*
X122170Y565721D01*
X122191Y565859D01*
X122216Y565997D01*
X122245Y566134D01*
X122277Y566270D01*
X122314Y566405D01*
X122354Y566539D01*
X122397Y566672D01*
X122445Y566804D01*
X122495Y566935D01*
X122550Y567064D01*
X122608Y567191D01*
X122669Y567317D01*
X122734Y567441D01*
X122803Y567563D01*
X122874Y567683D01*
X122949Y567801D01*
X123027Y567918D01*
X123109Y568032D01*
X123193Y568143D01*
X123281Y568252D01*
X123371Y568359D01*
X123465Y568464D01*
X123561Y568565D01*
X123660Y568664D01*
X123761Y568760D01*
X123866Y568854D01*
X123973Y568944D01*
X124082Y569032D01*
X124193Y569116D01*
X124307Y569198D01*
X124424Y569276D01*
X124542Y569351D01*
X124662Y569422D01*
X124784Y569491D01*
X124908Y569556D01*
X125034Y569617D01*
X125161Y569675D01*
X125290Y569730D01*
X125421Y569780D01*
X125553Y569828D01*
X125686Y569871D01*
X125820Y569911D01*
X125955Y569948D01*
X126091Y569980D01*
X126228Y570009D01*
X126366Y570034D01*
X126504Y570055D01*
X126643Y570072D01*
X126782Y570086D01*
X126922Y570095D01*
X127062Y570101D01*
X127202Y570103D01*
D18*
X492700Y501650D02*
X492700Y488950D01*
X486350Y482600D01*
X473650Y482600D02*
X467300Y488950D01*
X486350Y482600D02*
X492700Y476250D01*
X492700Y463550D01*
X486350Y457200D01*
X473650Y457200D02*
X467300Y463550D01*
X467300Y476250D01*
X473650Y482600D01*
X473650Y508000D02*
X486350Y508000D01*
X492700Y501650D01*
X473650Y508000D02*
X467300Y501650D01*
X467300Y488950D01*
X486350Y457200D02*
X492700Y450850D01*
X492700Y438150D01*
X486350Y431800D01*
X473650Y431800D02*
X467300Y438150D01*
X467300Y450850D01*
X473650Y457200D01*
X492700Y425450D02*
X492700Y412750D01*
X486350Y406400D01*
X473650Y406400D02*
X467300Y412750D01*
X486350Y406400D02*
X492700Y400050D01*
X492700Y387350D01*
X486350Y381000D01*
X473650Y381000D02*
X467300Y387350D01*
X467300Y400050D01*
X473650Y406400D01*
X492700Y425450D02*
X486350Y431800D01*
X473650Y431800D02*
X467300Y425450D01*
X467300Y412750D01*
X486350Y381000D02*
X492700Y374650D01*
X492700Y361950D01*
X486350Y355600D01*
X473650Y355600D02*
X467300Y361950D01*
X467300Y374650D01*
X473650Y381000D01*
X473650Y355600D02*
X486350Y355600D01*
D19*
X453965Y494665D02*
X451425Y497840D01*
X462855Y497840D01*
X462855Y494665D02*
X462855Y501015D01*
X502225Y371475D02*
X502225Y367665D01*
X502225Y371475D02*
X502227Y371575D01*
X502233Y371674D01*
X502243Y371774D01*
X502256Y371872D01*
X502274Y371971D01*
X502295Y372068D01*
X502320Y372164D01*
X502349Y372260D01*
X502382Y372354D01*
X502418Y372447D01*
X502458Y372538D01*
X502502Y372628D01*
X502549Y372716D01*
X502599Y372802D01*
X502653Y372886D01*
X502710Y372968D01*
X502770Y373047D01*
X502834Y373125D01*
X502900Y373199D01*
X502969Y373271D01*
X503041Y373340D01*
X503115Y373406D01*
X503193Y373470D01*
X503272Y373530D01*
X503354Y373587D01*
X503438Y373641D01*
X503524Y373691D01*
X503612Y373738D01*
X503702Y373782D01*
X503793Y373822D01*
X503886Y373858D01*
X503980Y373891D01*
X504076Y373920D01*
X504172Y373945D01*
X504269Y373966D01*
X504368Y373984D01*
X504466Y373997D01*
X504566Y374007D01*
X504665Y374013D01*
X504765Y374015D01*
X505400Y374015D01*
X505511Y374013D01*
X505621Y374007D01*
X505732Y373998D01*
X505842Y373984D01*
X505951Y373967D01*
X506060Y373946D01*
X506168Y373921D01*
X506275Y373892D01*
X506381Y373860D01*
X506486Y373824D01*
X506589Y373784D01*
X506691Y373741D01*
X506792Y373694D01*
X506891Y373643D01*
X506988Y373590D01*
X507082Y373533D01*
X507175Y373472D01*
X507266Y373409D01*
X507355Y373342D01*
X507441Y373272D01*
X507524Y373199D01*
X507606Y373124D01*
X507684Y373046D01*
X507759Y372964D01*
X507832Y372881D01*
X507902Y372795D01*
X507969Y372706D01*
X508032Y372615D01*
X508093Y372522D01*
X508150Y372427D01*
X508203Y372331D01*
X508254Y372232D01*
X508301Y372131D01*
X508344Y372029D01*
X508384Y371926D01*
X508420Y371821D01*
X508452Y371715D01*
X508481Y371608D01*
X508506Y371500D01*
X508527Y371391D01*
X508544Y371282D01*
X508558Y371172D01*
X508567Y371061D01*
X508573Y370951D01*
X508575Y370840D01*
X508573Y370729D01*
X508567Y370619D01*
X508558Y370508D01*
X508544Y370398D01*
X508527Y370289D01*
X508506Y370180D01*
X508481Y370072D01*
X508452Y369965D01*
X508420Y369859D01*
X508384Y369754D01*
X508344Y369651D01*
X508301Y369549D01*
X508254Y369448D01*
X508203Y369349D01*
X508150Y369252D01*
X508093Y369158D01*
X508032Y369065D01*
X507969Y368974D01*
X507902Y368885D01*
X507832Y368799D01*
X507759Y368716D01*
X507684Y368634D01*
X507606Y368556D01*
X507524Y368481D01*
X507441Y368408D01*
X507355Y368338D01*
X507266Y368271D01*
X507175Y368208D01*
X507082Y368147D01*
X506988Y368090D01*
X506891Y368037D01*
X506792Y367986D01*
X506691Y367939D01*
X506589Y367896D01*
X506486Y367856D01*
X506381Y367820D01*
X506275Y367788D01*
X506168Y367759D01*
X506060Y367734D01*
X505951Y367713D01*
X505842Y367696D01*
X505732Y367682D01*
X505621Y367673D01*
X505511Y367667D01*
X505400Y367665D01*
X502225Y367665D01*
X502085Y367667D01*
X501945Y367673D01*
X501805Y367682D01*
X501666Y367696D01*
X501527Y367713D01*
X501389Y367734D01*
X501251Y367759D01*
X501114Y367788D01*
X500978Y367820D01*
X500843Y367857D01*
X500709Y367897D01*
X500576Y367940D01*
X500444Y367988D01*
X500313Y368038D01*
X500184Y368093D01*
X500057Y368151D01*
X499931Y368212D01*
X499807Y368277D01*
X499685Y368346D01*
X499565Y368417D01*
X499447Y368492D01*
X499330Y368570D01*
X499216Y368652D01*
X499105Y368736D01*
X498996Y368824D01*
X498889Y368914D01*
X498784Y369008D01*
X498683Y369104D01*
X498584Y369203D01*
X498488Y369304D01*
X498394Y369409D01*
X498304Y369516D01*
X498216Y369625D01*
X498132Y369736D01*
X498050Y369850D01*
X497972Y369967D01*
X497897Y370085D01*
X497826Y370205D01*
X497757Y370327D01*
X497692Y370451D01*
X497631Y370577D01*
X497573Y370704D01*
X497518Y370833D01*
X497468Y370964D01*
X497420Y371096D01*
X497377Y371229D01*
X497337Y371363D01*
X497300Y371498D01*
X497268Y371634D01*
X497239Y371771D01*
X497214Y371909D01*
X497193Y372047D01*
X497176Y372186D01*
X497162Y372325D01*
X497153Y372465D01*
X497147Y372605D01*
X497145Y372745D01*
X508575Y482346D02*
X508573Y482446D01*
X508567Y482545D01*
X508557Y482645D01*
X508544Y482743D01*
X508526Y482842D01*
X508505Y482939D01*
X508480Y483035D01*
X508451Y483131D01*
X508418Y483225D01*
X508382Y483318D01*
X508342Y483409D01*
X508298Y483499D01*
X508251Y483587D01*
X508201Y483673D01*
X508147Y483757D01*
X508090Y483839D01*
X508030Y483918D01*
X507966Y483996D01*
X507900Y484070D01*
X507831Y484142D01*
X507759Y484211D01*
X507685Y484277D01*
X507607Y484341D01*
X507528Y484401D01*
X507446Y484458D01*
X507362Y484512D01*
X507276Y484562D01*
X507188Y484609D01*
X507098Y484653D01*
X507007Y484693D01*
X506914Y484729D01*
X506820Y484762D01*
X506724Y484791D01*
X506628Y484816D01*
X506531Y484837D01*
X506432Y484855D01*
X506334Y484868D01*
X506234Y484878D01*
X506135Y484884D01*
X506035Y484886D01*
X508575Y482346D02*
X508573Y482205D01*
X508568Y482064D01*
X508558Y481923D01*
X508545Y481782D01*
X508529Y481642D01*
X508508Y481502D01*
X508484Y481363D01*
X508456Y481224D01*
X508425Y481087D01*
X508390Y480950D01*
X508352Y480814D01*
X508310Y480679D01*
X508264Y480546D01*
X508215Y480413D01*
X508162Y480282D01*
X508106Y480153D01*
X508047Y480024D01*
X507984Y479898D01*
X507918Y479773D01*
X507849Y479650D01*
X507776Y479529D01*
X507700Y479410D01*
X507621Y479292D01*
X507540Y479177D01*
X507455Y479065D01*
X507367Y478954D01*
X507276Y478846D01*
X507183Y478740D01*
X507086Y478637D01*
X506987Y478536D01*
X499685Y478854D02*
X499585Y478856D01*
X499486Y478862D01*
X499386Y478872D01*
X499288Y478885D01*
X499189Y478903D01*
X499092Y478924D01*
X498996Y478949D01*
X498900Y478978D01*
X498806Y479011D01*
X498713Y479047D01*
X498622Y479087D01*
X498532Y479131D01*
X498444Y479178D01*
X498358Y479228D01*
X498274Y479282D01*
X498192Y479339D01*
X498113Y479399D01*
X498035Y479463D01*
X497961Y479529D01*
X497889Y479598D01*
X497820Y479670D01*
X497754Y479744D01*
X497690Y479822D01*
X497630Y479901D01*
X497573Y479983D01*
X497519Y480067D01*
X497469Y480153D01*
X497422Y480241D01*
X497378Y480331D01*
X497338Y480422D01*
X497302Y480515D01*
X497269Y480609D01*
X497240Y480705D01*
X497215Y480801D01*
X497194Y480898D01*
X497176Y480997D01*
X497163Y481095D01*
X497153Y481195D01*
X497147Y481294D01*
X497145Y481394D01*
X497147Y481527D01*
X497152Y481660D01*
X497162Y481793D01*
X497175Y481926D01*
X497192Y482058D01*
X497212Y482190D01*
X497236Y482321D01*
X497264Y482451D01*
X497295Y482581D01*
X497330Y482709D01*
X497369Y482837D01*
X497411Y482963D01*
X497457Y483088D01*
X497506Y483212D01*
X497558Y483335D01*
X497614Y483456D01*
X497674Y483575D01*
X497736Y483693D01*
X497802Y483808D01*
X497871Y483922D01*
X497944Y484034D01*
X498019Y484144D01*
X498098Y484252D01*
X501908Y480123D02*
X501856Y480039D01*
X501801Y479956D01*
X501742Y479876D01*
X501681Y479798D01*
X501617Y479723D01*
X501549Y479650D01*
X501479Y479579D01*
X501407Y479512D01*
X501332Y479447D01*
X501254Y479385D01*
X501174Y479326D01*
X501092Y479270D01*
X501008Y479218D01*
X500922Y479169D01*
X500834Y479123D01*
X500744Y479080D01*
X500653Y479041D01*
X500560Y479006D01*
X500466Y478974D01*
X500371Y478946D01*
X500275Y478921D01*
X500178Y478901D01*
X500080Y478883D01*
X499982Y478870D01*
X499883Y478861D01*
X499784Y478855D01*
X499685Y478853D01*
X503812Y483616D02*
X503864Y483700D01*
X503919Y483783D01*
X503978Y483863D01*
X504039Y483941D01*
X504103Y484016D01*
X504171Y484089D01*
X504241Y484160D01*
X504313Y484227D01*
X504388Y484292D01*
X504466Y484354D01*
X504546Y484413D01*
X504628Y484469D01*
X504712Y484521D01*
X504798Y484570D01*
X504886Y484616D01*
X504976Y484659D01*
X505067Y484698D01*
X505160Y484733D01*
X505254Y484765D01*
X505349Y484793D01*
X505445Y484818D01*
X505542Y484838D01*
X505640Y484856D01*
X505738Y484869D01*
X505837Y484878D01*
X505936Y484884D01*
X506035Y484886D01*
X503813Y483616D02*
X501908Y480124D01*
X497145Y488950D02*
X508575Y492760D01*
X497145Y496570D01*
X497145Y504508D02*
X497147Y504612D01*
X497153Y504717D01*
X497162Y504821D01*
X497175Y504924D01*
X497193Y505027D01*
X497213Y505129D01*
X497238Y505231D01*
X497266Y505331D01*
X497298Y505431D01*
X497334Y505529D01*
X497373Y505626D01*
X497415Y505721D01*
X497461Y505815D01*
X497511Y505907D01*
X497563Y505997D01*
X497619Y506085D01*
X497679Y506171D01*
X497741Y506255D01*
X497806Y506336D01*
X497874Y506415D01*
X497946Y506492D01*
X498019Y506565D01*
X498096Y506637D01*
X498175Y506705D01*
X498256Y506770D01*
X498340Y506832D01*
X498426Y506892D01*
X498514Y506948D01*
X498604Y507000D01*
X498696Y507050D01*
X498790Y507096D01*
X498885Y507138D01*
X498982Y507177D01*
X499080Y507213D01*
X499180Y507245D01*
X499280Y507273D01*
X499382Y507298D01*
X499484Y507318D01*
X499587Y507336D01*
X499690Y507349D01*
X499794Y507358D01*
X499899Y507364D01*
X500003Y507366D01*
X497145Y504508D02*
X497147Y504390D01*
X497153Y504271D01*
X497162Y504153D01*
X497175Y504036D01*
X497193Y503919D01*
X497213Y503802D01*
X497238Y503686D01*
X497266Y503571D01*
X497299Y503458D01*
X497334Y503345D01*
X497374Y503233D01*
X497416Y503123D01*
X497463Y503014D01*
X497513Y502906D01*
X497566Y502801D01*
X497623Y502697D01*
X497683Y502595D01*
X497746Y502495D01*
X497813Y502397D01*
X497882Y502301D01*
X497955Y502208D01*
X498031Y502117D01*
X498109Y502028D01*
X498191Y501942D01*
X498275Y501859D01*
X498361Y501778D01*
X498451Y501701D01*
X498542Y501626D01*
X498636Y501554D01*
X498733Y501485D01*
X498831Y501420D01*
X498932Y501357D01*
X499035Y501298D01*
X499139Y501242D01*
X499245Y501190D01*
X499353Y501141D01*
X499462Y501096D01*
X499573Y501054D01*
X499685Y501016D01*
X502225Y506413D02*
X502150Y506489D01*
X502071Y506564D01*
X501990Y506635D01*
X501906Y506704D01*
X501820Y506769D01*
X501732Y506831D01*
X501642Y506891D01*
X501550Y506947D01*
X501455Y507000D01*
X501359Y507049D01*
X501261Y507095D01*
X501162Y507138D01*
X501061Y507177D01*
X500959Y507212D01*
X500856Y507244D01*
X500752Y507272D01*
X500647Y507297D01*
X500540Y507318D01*
X500434Y507335D01*
X500327Y507348D01*
X500219Y507357D01*
X500111Y507363D01*
X500003Y507365D01*
X502225Y506413D02*
X508575Y501015D01*
X508575Y507365D01*
M02*
