G04 EAGLE Gerber RS-274X export*
G75*
%MOMM*%
%FSLAX34Y34*%
%LPD*%
%INSolderpaste Top*%
%IPPOS*%
%AMOC8*
5,1,8,0,0,1.08239X$1,22.5*%
G01*
%ADD10R,1.100000X1.300000*%
%ADD11C,0.014000*%
%ADD12R,1.800000X0.700000*%
%ADD13R,4.800000X4.800000*%
%ADD14R,0.400000X1.500000*%
%ADD15R,0.800000X2.600000*%
%ADD16R,1.300000X1.100000*%


D10*
X219100Y120650D03*
X238100Y120650D03*
X111100Y349250D03*
X92100Y349250D03*
D11*
X184870Y134930D02*
X198730Y134930D01*
X198730Y119070D01*
X184870Y119070D01*
X184870Y134930D01*
X184870Y119203D02*
X198730Y119203D01*
X198730Y119336D02*
X184870Y119336D01*
X184870Y119469D02*
X198730Y119469D01*
X198730Y119602D02*
X184870Y119602D01*
X184870Y119735D02*
X198730Y119735D01*
X198730Y119868D02*
X184870Y119868D01*
X184870Y120001D02*
X198730Y120001D01*
X198730Y120134D02*
X184870Y120134D01*
X184870Y120267D02*
X198730Y120267D01*
X198730Y120400D02*
X184870Y120400D01*
X184870Y120533D02*
X198730Y120533D01*
X198730Y120666D02*
X184870Y120666D01*
X184870Y120799D02*
X198730Y120799D01*
X198730Y120932D02*
X184870Y120932D01*
X184870Y121065D02*
X198730Y121065D01*
X198730Y121198D02*
X184870Y121198D01*
X184870Y121331D02*
X198730Y121331D01*
X198730Y121464D02*
X184870Y121464D01*
X184870Y121597D02*
X198730Y121597D01*
X198730Y121730D02*
X184870Y121730D01*
X184870Y121863D02*
X198730Y121863D01*
X198730Y121996D02*
X184870Y121996D01*
X184870Y122129D02*
X198730Y122129D01*
X198730Y122262D02*
X184870Y122262D01*
X184870Y122395D02*
X198730Y122395D01*
X198730Y122528D02*
X184870Y122528D01*
X184870Y122661D02*
X198730Y122661D01*
X198730Y122794D02*
X184870Y122794D01*
X184870Y122927D02*
X198730Y122927D01*
X198730Y123060D02*
X184870Y123060D01*
X184870Y123193D02*
X198730Y123193D01*
X198730Y123326D02*
X184870Y123326D01*
X184870Y123459D02*
X198730Y123459D01*
X198730Y123592D02*
X184870Y123592D01*
X184870Y123725D02*
X198730Y123725D01*
X198730Y123858D02*
X184870Y123858D01*
X184870Y123991D02*
X198730Y123991D01*
X198730Y124124D02*
X184870Y124124D01*
X184870Y124257D02*
X198730Y124257D01*
X198730Y124390D02*
X184870Y124390D01*
X184870Y124523D02*
X198730Y124523D01*
X198730Y124656D02*
X184870Y124656D01*
X184870Y124789D02*
X198730Y124789D01*
X198730Y124922D02*
X184870Y124922D01*
X184870Y125055D02*
X198730Y125055D01*
X198730Y125188D02*
X184870Y125188D01*
X184870Y125321D02*
X198730Y125321D01*
X198730Y125454D02*
X184870Y125454D01*
X184870Y125587D02*
X198730Y125587D01*
X198730Y125720D02*
X184870Y125720D01*
X184870Y125853D02*
X198730Y125853D01*
X198730Y125986D02*
X184870Y125986D01*
X184870Y126119D02*
X198730Y126119D01*
X198730Y126252D02*
X184870Y126252D01*
X184870Y126385D02*
X198730Y126385D01*
X198730Y126518D02*
X184870Y126518D01*
X184870Y126651D02*
X198730Y126651D01*
X198730Y126784D02*
X184870Y126784D01*
X184870Y126917D02*
X198730Y126917D01*
X198730Y127050D02*
X184870Y127050D01*
X184870Y127183D02*
X198730Y127183D01*
X198730Y127316D02*
X184870Y127316D01*
X184870Y127449D02*
X198730Y127449D01*
X198730Y127582D02*
X184870Y127582D01*
X184870Y127715D02*
X198730Y127715D01*
X198730Y127848D02*
X184870Y127848D01*
X184870Y127981D02*
X198730Y127981D01*
X198730Y128114D02*
X184870Y128114D01*
X184870Y128247D02*
X198730Y128247D01*
X198730Y128380D02*
X184870Y128380D01*
X184870Y128513D02*
X198730Y128513D01*
X198730Y128646D02*
X184870Y128646D01*
X184870Y128779D02*
X198730Y128779D01*
X198730Y128912D02*
X184870Y128912D01*
X184870Y129045D02*
X198730Y129045D01*
X198730Y129178D02*
X184870Y129178D01*
X184870Y129311D02*
X198730Y129311D01*
X198730Y129444D02*
X184870Y129444D01*
X184870Y129577D02*
X198730Y129577D01*
X198730Y129710D02*
X184870Y129710D01*
X184870Y129843D02*
X198730Y129843D01*
X198730Y129976D02*
X184870Y129976D01*
X184870Y130109D02*
X198730Y130109D01*
X198730Y130242D02*
X184870Y130242D01*
X184870Y130375D02*
X198730Y130375D01*
X198730Y130508D02*
X184870Y130508D01*
X184870Y130641D02*
X198730Y130641D01*
X198730Y130774D02*
X184870Y130774D01*
X184870Y130907D02*
X198730Y130907D01*
X198730Y131040D02*
X184870Y131040D01*
X184870Y131173D02*
X198730Y131173D01*
X198730Y131306D02*
X184870Y131306D01*
X184870Y131439D02*
X198730Y131439D01*
X198730Y131572D02*
X184870Y131572D01*
X184870Y131705D02*
X198730Y131705D01*
X198730Y131838D02*
X184870Y131838D01*
X184870Y131971D02*
X198730Y131971D01*
X198730Y132104D02*
X184870Y132104D01*
X184870Y132237D02*
X198730Y132237D01*
X198730Y132370D02*
X184870Y132370D01*
X184870Y132503D02*
X198730Y132503D01*
X198730Y132636D02*
X184870Y132636D01*
X184870Y132769D02*
X198730Y132769D01*
X198730Y132902D02*
X184870Y132902D01*
X184870Y133035D02*
X198730Y133035D01*
X198730Y133168D02*
X184870Y133168D01*
X184870Y133301D02*
X198730Y133301D01*
X198730Y133434D02*
X184870Y133434D01*
X184870Y133567D02*
X198730Y133567D01*
X198730Y133700D02*
X184870Y133700D01*
X184870Y133833D02*
X198730Y133833D01*
X198730Y133966D02*
X184870Y133966D01*
X184870Y134099D02*
X198730Y134099D01*
X198730Y134232D02*
X184870Y134232D01*
X184870Y134365D02*
X198730Y134365D01*
X198730Y134498D02*
X184870Y134498D01*
X184870Y134631D02*
X198730Y134631D01*
X198730Y134764D02*
X184870Y134764D01*
X184870Y134897D02*
X198730Y134897D01*
X170730Y134930D02*
X156870Y134930D01*
X170730Y134930D02*
X170730Y119070D01*
X156870Y119070D01*
X156870Y134930D01*
X156870Y119203D02*
X170730Y119203D01*
X170730Y119336D02*
X156870Y119336D01*
X156870Y119469D02*
X170730Y119469D01*
X170730Y119602D02*
X156870Y119602D01*
X156870Y119735D02*
X170730Y119735D01*
X170730Y119868D02*
X156870Y119868D01*
X156870Y120001D02*
X170730Y120001D01*
X170730Y120134D02*
X156870Y120134D01*
X156870Y120267D02*
X170730Y120267D01*
X170730Y120400D02*
X156870Y120400D01*
X156870Y120533D02*
X170730Y120533D01*
X170730Y120666D02*
X156870Y120666D01*
X156870Y120799D02*
X170730Y120799D01*
X170730Y120932D02*
X156870Y120932D01*
X156870Y121065D02*
X170730Y121065D01*
X170730Y121198D02*
X156870Y121198D01*
X156870Y121331D02*
X170730Y121331D01*
X170730Y121464D02*
X156870Y121464D01*
X156870Y121597D02*
X170730Y121597D01*
X170730Y121730D02*
X156870Y121730D01*
X156870Y121863D02*
X170730Y121863D01*
X170730Y121996D02*
X156870Y121996D01*
X156870Y122129D02*
X170730Y122129D01*
X170730Y122262D02*
X156870Y122262D01*
X156870Y122395D02*
X170730Y122395D01*
X170730Y122528D02*
X156870Y122528D01*
X156870Y122661D02*
X170730Y122661D01*
X170730Y122794D02*
X156870Y122794D01*
X156870Y122927D02*
X170730Y122927D01*
X170730Y123060D02*
X156870Y123060D01*
X156870Y123193D02*
X170730Y123193D01*
X170730Y123326D02*
X156870Y123326D01*
X156870Y123459D02*
X170730Y123459D01*
X170730Y123592D02*
X156870Y123592D01*
X156870Y123725D02*
X170730Y123725D01*
X170730Y123858D02*
X156870Y123858D01*
X156870Y123991D02*
X170730Y123991D01*
X170730Y124124D02*
X156870Y124124D01*
X156870Y124257D02*
X170730Y124257D01*
X170730Y124390D02*
X156870Y124390D01*
X156870Y124523D02*
X170730Y124523D01*
X170730Y124656D02*
X156870Y124656D01*
X156870Y124789D02*
X170730Y124789D01*
X170730Y124922D02*
X156870Y124922D01*
X156870Y125055D02*
X170730Y125055D01*
X170730Y125188D02*
X156870Y125188D01*
X156870Y125321D02*
X170730Y125321D01*
X170730Y125454D02*
X156870Y125454D01*
X156870Y125587D02*
X170730Y125587D01*
X170730Y125720D02*
X156870Y125720D01*
X156870Y125853D02*
X170730Y125853D01*
X170730Y125986D02*
X156870Y125986D01*
X156870Y126119D02*
X170730Y126119D01*
X170730Y126252D02*
X156870Y126252D01*
X156870Y126385D02*
X170730Y126385D01*
X170730Y126518D02*
X156870Y126518D01*
X156870Y126651D02*
X170730Y126651D01*
X170730Y126784D02*
X156870Y126784D01*
X156870Y126917D02*
X170730Y126917D01*
X170730Y127050D02*
X156870Y127050D01*
X156870Y127183D02*
X170730Y127183D01*
X170730Y127316D02*
X156870Y127316D01*
X156870Y127449D02*
X170730Y127449D01*
X170730Y127582D02*
X156870Y127582D01*
X156870Y127715D02*
X170730Y127715D01*
X170730Y127848D02*
X156870Y127848D01*
X156870Y127981D02*
X170730Y127981D01*
X170730Y128114D02*
X156870Y128114D01*
X156870Y128247D02*
X170730Y128247D01*
X170730Y128380D02*
X156870Y128380D01*
X156870Y128513D02*
X170730Y128513D01*
X170730Y128646D02*
X156870Y128646D01*
X156870Y128779D02*
X170730Y128779D01*
X170730Y128912D02*
X156870Y128912D01*
X156870Y129045D02*
X170730Y129045D01*
X170730Y129178D02*
X156870Y129178D01*
X156870Y129311D02*
X170730Y129311D01*
X170730Y129444D02*
X156870Y129444D01*
X156870Y129577D02*
X170730Y129577D01*
X170730Y129710D02*
X156870Y129710D01*
X156870Y129843D02*
X170730Y129843D01*
X170730Y129976D02*
X156870Y129976D01*
X156870Y130109D02*
X170730Y130109D01*
X170730Y130242D02*
X156870Y130242D01*
X156870Y130375D02*
X170730Y130375D01*
X170730Y130508D02*
X156870Y130508D01*
X156870Y130641D02*
X170730Y130641D01*
X170730Y130774D02*
X156870Y130774D01*
X156870Y130907D02*
X170730Y130907D01*
X170730Y131040D02*
X156870Y131040D01*
X156870Y131173D02*
X170730Y131173D01*
X170730Y131306D02*
X156870Y131306D01*
X156870Y131439D02*
X170730Y131439D01*
X170730Y131572D02*
X156870Y131572D01*
X156870Y131705D02*
X170730Y131705D01*
X170730Y131838D02*
X156870Y131838D01*
X156870Y131971D02*
X170730Y131971D01*
X170730Y132104D02*
X156870Y132104D01*
X156870Y132237D02*
X170730Y132237D01*
X170730Y132370D02*
X156870Y132370D01*
X156870Y132503D02*
X170730Y132503D01*
X170730Y132636D02*
X156870Y132636D01*
X156870Y132769D02*
X170730Y132769D01*
X170730Y132902D02*
X156870Y132902D01*
X156870Y133035D02*
X170730Y133035D01*
X170730Y133168D02*
X156870Y133168D01*
X156870Y133301D02*
X170730Y133301D01*
X170730Y133434D02*
X156870Y133434D01*
X156870Y133567D02*
X170730Y133567D01*
X170730Y133700D02*
X156870Y133700D01*
X156870Y133833D02*
X170730Y133833D01*
X170730Y133966D02*
X156870Y133966D01*
X156870Y134099D02*
X170730Y134099D01*
X170730Y134232D02*
X156870Y134232D01*
X156870Y134365D02*
X170730Y134365D01*
X170730Y134498D02*
X156870Y134498D01*
X156870Y134631D02*
X170730Y134631D01*
X170730Y134764D02*
X156870Y134764D01*
X156870Y134897D02*
X170730Y134897D01*
D10*
X301600Y120650D03*
X282600Y120650D03*
X111100Y425450D03*
X92100Y425450D03*
D11*
X43870Y524170D02*
X43870Y544730D01*
X57730Y544730D01*
X57730Y524170D01*
X43870Y524170D01*
X43870Y524303D02*
X57730Y524303D01*
X57730Y524436D02*
X43870Y524436D01*
X43870Y524569D02*
X57730Y524569D01*
X57730Y524702D02*
X43870Y524702D01*
X43870Y524835D02*
X57730Y524835D01*
X57730Y524968D02*
X43870Y524968D01*
X43870Y525101D02*
X57730Y525101D01*
X57730Y525234D02*
X43870Y525234D01*
X43870Y525367D02*
X57730Y525367D01*
X57730Y525500D02*
X43870Y525500D01*
X43870Y525633D02*
X57730Y525633D01*
X57730Y525766D02*
X43870Y525766D01*
X43870Y525899D02*
X57730Y525899D01*
X57730Y526032D02*
X43870Y526032D01*
X43870Y526165D02*
X57730Y526165D01*
X57730Y526298D02*
X43870Y526298D01*
X43870Y526431D02*
X57730Y526431D01*
X57730Y526564D02*
X43870Y526564D01*
X43870Y526697D02*
X57730Y526697D01*
X57730Y526830D02*
X43870Y526830D01*
X43870Y526963D02*
X57730Y526963D01*
X57730Y527096D02*
X43870Y527096D01*
X43870Y527229D02*
X57730Y527229D01*
X57730Y527362D02*
X43870Y527362D01*
X43870Y527495D02*
X57730Y527495D01*
X57730Y527628D02*
X43870Y527628D01*
X43870Y527761D02*
X57730Y527761D01*
X57730Y527894D02*
X43870Y527894D01*
X43870Y528027D02*
X57730Y528027D01*
X57730Y528160D02*
X43870Y528160D01*
X43870Y528293D02*
X57730Y528293D01*
X57730Y528426D02*
X43870Y528426D01*
X43870Y528559D02*
X57730Y528559D01*
X57730Y528692D02*
X43870Y528692D01*
X43870Y528825D02*
X57730Y528825D01*
X57730Y528958D02*
X43870Y528958D01*
X43870Y529091D02*
X57730Y529091D01*
X57730Y529224D02*
X43870Y529224D01*
X43870Y529357D02*
X57730Y529357D01*
X57730Y529490D02*
X43870Y529490D01*
X43870Y529623D02*
X57730Y529623D01*
X57730Y529756D02*
X43870Y529756D01*
X43870Y529889D02*
X57730Y529889D01*
X57730Y530022D02*
X43870Y530022D01*
X43870Y530155D02*
X57730Y530155D01*
X57730Y530288D02*
X43870Y530288D01*
X43870Y530421D02*
X57730Y530421D01*
X57730Y530554D02*
X43870Y530554D01*
X43870Y530687D02*
X57730Y530687D01*
X57730Y530820D02*
X43870Y530820D01*
X43870Y530953D02*
X57730Y530953D01*
X57730Y531086D02*
X43870Y531086D01*
X43870Y531219D02*
X57730Y531219D01*
X57730Y531352D02*
X43870Y531352D01*
X43870Y531485D02*
X57730Y531485D01*
X57730Y531618D02*
X43870Y531618D01*
X43870Y531751D02*
X57730Y531751D01*
X57730Y531884D02*
X43870Y531884D01*
X43870Y532017D02*
X57730Y532017D01*
X57730Y532150D02*
X43870Y532150D01*
X43870Y532283D02*
X57730Y532283D01*
X57730Y532416D02*
X43870Y532416D01*
X43870Y532549D02*
X57730Y532549D01*
X57730Y532682D02*
X43870Y532682D01*
X43870Y532815D02*
X57730Y532815D01*
X57730Y532948D02*
X43870Y532948D01*
X43870Y533081D02*
X57730Y533081D01*
X57730Y533214D02*
X43870Y533214D01*
X43870Y533347D02*
X57730Y533347D01*
X57730Y533480D02*
X43870Y533480D01*
X43870Y533613D02*
X57730Y533613D01*
X57730Y533746D02*
X43870Y533746D01*
X43870Y533879D02*
X57730Y533879D01*
X57730Y534012D02*
X43870Y534012D01*
X43870Y534145D02*
X57730Y534145D01*
X57730Y534278D02*
X43870Y534278D01*
X43870Y534411D02*
X57730Y534411D01*
X57730Y534544D02*
X43870Y534544D01*
X43870Y534677D02*
X57730Y534677D01*
X57730Y534810D02*
X43870Y534810D01*
X43870Y534943D02*
X57730Y534943D01*
X57730Y535076D02*
X43870Y535076D01*
X43870Y535209D02*
X57730Y535209D01*
X57730Y535342D02*
X43870Y535342D01*
X43870Y535475D02*
X57730Y535475D01*
X57730Y535608D02*
X43870Y535608D01*
X43870Y535741D02*
X57730Y535741D01*
X57730Y535874D02*
X43870Y535874D01*
X43870Y536007D02*
X57730Y536007D01*
X57730Y536140D02*
X43870Y536140D01*
X43870Y536273D02*
X57730Y536273D01*
X57730Y536406D02*
X43870Y536406D01*
X43870Y536539D02*
X57730Y536539D01*
X57730Y536672D02*
X43870Y536672D01*
X43870Y536805D02*
X57730Y536805D01*
X57730Y536938D02*
X43870Y536938D01*
X43870Y537071D02*
X57730Y537071D01*
X57730Y537204D02*
X43870Y537204D01*
X43870Y537337D02*
X57730Y537337D01*
X57730Y537470D02*
X43870Y537470D01*
X43870Y537603D02*
X57730Y537603D01*
X57730Y537736D02*
X43870Y537736D01*
X43870Y537869D02*
X57730Y537869D01*
X57730Y538002D02*
X43870Y538002D01*
X43870Y538135D02*
X57730Y538135D01*
X57730Y538268D02*
X43870Y538268D01*
X43870Y538401D02*
X57730Y538401D01*
X57730Y538534D02*
X43870Y538534D01*
X43870Y538667D02*
X57730Y538667D01*
X57730Y538800D02*
X43870Y538800D01*
X43870Y538933D02*
X57730Y538933D01*
X57730Y539066D02*
X43870Y539066D01*
X43870Y539199D02*
X57730Y539199D01*
X57730Y539332D02*
X43870Y539332D01*
X43870Y539465D02*
X57730Y539465D01*
X57730Y539598D02*
X43870Y539598D01*
X43870Y539731D02*
X57730Y539731D01*
X57730Y539864D02*
X43870Y539864D01*
X43870Y539997D02*
X57730Y539997D01*
X57730Y540130D02*
X43870Y540130D01*
X43870Y540263D02*
X57730Y540263D01*
X57730Y540396D02*
X43870Y540396D01*
X43870Y540529D02*
X57730Y540529D01*
X57730Y540662D02*
X43870Y540662D01*
X43870Y540795D02*
X57730Y540795D01*
X57730Y540928D02*
X43870Y540928D01*
X43870Y541061D02*
X57730Y541061D01*
X57730Y541194D02*
X43870Y541194D01*
X43870Y541327D02*
X57730Y541327D01*
X57730Y541460D02*
X43870Y541460D01*
X43870Y541593D02*
X57730Y541593D01*
X57730Y541726D02*
X43870Y541726D01*
X43870Y541859D02*
X57730Y541859D01*
X57730Y541992D02*
X43870Y541992D01*
X43870Y542125D02*
X57730Y542125D01*
X57730Y542258D02*
X43870Y542258D01*
X43870Y542391D02*
X57730Y542391D01*
X57730Y542524D02*
X43870Y542524D01*
X43870Y542657D02*
X57730Y542657D01*
X57730Y542790D02*
X43870Y542790D01*
X43870Y542923D02*
X57730Y542923D01*
X57730Y543056D02*
X43870Y543056D01*
X43870Y543189D02*
X57730Y543189D01*
X57730Y543322D02*
X43870Y543322D01*
X43870Y543455D02*
X57730Y543455D01*
X57730Y543588D02*
X43870Y543588D01*
X43870Y543721D02*
X57730Y543721D01*
X57730Y543854D02*
X43870Y543854D01*
X43870Y543987D02*
X57730Y543987D01*
X57730Y544120D02*
X43870Y544120D01*
X43870Y544253D02*
X57730Y544253D01*
X57730Y544386D02*
X43870Y544386D01*
X43870Y544519D02*
X57730Y544519D01*
X57730Y544652D02*
X43870Y544652D01*
X43870Y453730D02*
X43870Y433170D01*
X43870Y453730D02*
X57730Y453730D01*
X57730Y433170D01*
X43870Y433170D01*
X43870Y433303D02*
X57730Y433303D01*
X57730Y433436D02*
X43870Y433436D01*
X43870Y433569D02*
X57730Y433569D01*
X57730Y433702D02*
X43870Y433702D01*
X43870Y433835D02*
X57730Y433835D01*
X57730Y433968D02*
X43870Y433968D01*
X43870Y434101D02*
X57730Y434101D01*
X57730Y434234D02*
X43870Y434234D01*
X43870Y434367D02*
X57730Y434367D01*
X57730Y434500D02*
X43870Y434500D01*
X43870Y434633D02*
X57730Y434633D01*
X57730Y434766D02*
X43870Y434766D01*
X43870Y434899D02*
X57730Y434899D01*
X57730Y435032D02*
X43870Y435032D01*
X43870Y435165D02*
X57730Y435165D01*
X57730Y435298D02*
X43870Y435298D01*
X43870Y435431D02*
X57730Y435431D01*
X57730Y435564D02*
X43870Y435564D01*
X43870Y435697D02*
X57730Y435697D01*
X57730Y435830D02*
X43870Y435830D01*
X43870Y435963D02*
X57730Y435963D01*
X57730Y436096D02*
X43870Y436096D01*
X43870Y436229D02*
X57730Y436229D01*
X57730Y436362D02*
X43870Y436362D01*
X43870Y436495D02*
X57730Y436495D01*
X57730Y436628D02*
X43870Y436628D01*
X43870Y436761D02*
X57730Y436761D01*
X57730Y436894D02*
X43870Y436894D01*
X43870Y437027D02*
X57730Y437027D01*
X57730Y437160D02*
X43870Y437160D01*
X43870Y437293D02*
X57730Y437293D01*
X57730Y437426D02*
X43870Y437426D01*
X43870Y437559D02*
X57730Y437559D01*
X57730Y437692D02*
X43870Y437692D01*
X43870Y437825D02*
X57730Y437825D01*
X57730Y437958D02*
X43870Y437958D01*
X43870Y438091D02*
X57730Y438091D01*
X57730Y438224D02*
X43870Y438224D01*
X43870Y438357D02*
X57730Y438357D01*
X57730Y438490D02*
X43870Y438490D01*
X43870Y438623D02*
X57730Y438623D01*
X57730Y438756D02*
X43870Y438756D01*
X43870Y438889D02*
X57730Y438889D01*
X57730Y439022D02*
X43870Y439022D01*
X43870Y439155D02*
X57730Y439155D01*
X57730Y439288D02*
X43870Y439288D01*
X43870Y439421D02*
X57730Y439421D01*
X57730Y439554D02*
X43870Y439554D01*
X43870Y439687D02*
X57730Y439687D01*
X57730Y439820D02*
X43870Y439820D01*
X43870Y439953D02*
X57730Y439953D01*
X57730Y440086D02*
X43870Y440086D01*
X43870Y440219D02*
X57730Y440219D01*
X57730Y440352D02*
X43870Y440352D01*
X43870Y440485D02*
X57730Y440485D01*
X57730Y440618D02*
X43870Y440618D01*
X43870Y440751D02*
X57730Y440751D01*
X57730Y440884D02*
X43870Y440884D01*
X43870Y441017D02*
X57730Y441017D01*
X57730Y441150D02*
X43870Y441150D01*
X43870Y441283D02*
X57730Y441283D01*
X57730Y441416D02*
X43870Y441416D01*
X43870Y441549D02*
X57730Y441549D01*
X57730Y441682D02*
X43870Y441682D01*
X43870Y441815D02*
X57730Y441815D01*
X57730Y441948D02*
X43870Y441948D01*
X43870Y442081D02*
X57730Y442081D01*
X57730Y442214D02*
X43870Y442214D01*
X43870Y442347D02*
X57730Y442347D01*
X57730Y442480D02*
X43870Y442480D01*
X43870Y442613D02*
X57730Y442613D01*
X57730Y442746D02*
X43870Y442746D01*
X43870Y442879D02*
X57730Y442879D01*
X57730Y443012D02*
X43870Y443012D01*
X43870Y443145D02*
X57730Y443145D01*
X57730Y443278D02*
X43870Y443278D01*
X43870Y443411D02*
X57730Y443411D01*
X57730Y443544D02*
X43870Y443544D01*
X43870Y443677D02*
X57730Y443677D01*
X57730Y443810D02*
X43870Y443810D01*
X43870Y443943D02*
X57730Y443943D01*
X57730Y444076D02*
X43870Y444076D01*
X43870Y444209D02*
X57730Y444209D01*
X57730Y444342D02*
X43870Y444342D01*
X43870Y444475D02*
X57730Y444475D01*
X57730Y444608D02*
X43870Y444608D01*
X43870Y444741D02*
X57730Y444741D01*
X57730Y444874D02*
X43870Y444874D01*
X43870Y445007D02*
X57730Y445007D01*
X57730Y445140D02*
X43870Y445140D01*
X43870Y445273D02*
X57730Y445273D01*
X57730Y445406D02*
X43870Y445406D01*
X43870Y445539D02*
X57730Y445539D01*
X57730Y445672D02*
X43870Y445672D01*
X43870Y445805D02*
X57730Y445805D01*
X57730Y445938D02*
X43870Y445938D01*
X43870Y446071D02*
X57730Y446071D01*
X57730Y446204D02*
X43870Y446204D01*
X43870Y446337D02*
X57730Y446337D01*
X57730Y446470D02*
X43870Y446470D01*
X43870Y446603D02*
X57730Y446603D01*
X57730Y446736D02*
X43870Y446736D01*
X43870Y446869D02*
X57730Y446869D01*
X57730Y447002D02*
X43870Y447002D01*
X43870Y447135D02*
X57730Y447135D01*
X57730Y447268D02*
X43870Y447268D01*
X43870Y447401D02*
X57730Y447401D01*
X57730Y447534D02*
X43870Y447534D01*
X43870Y447667D02*
X57730Y447667D01*
X57730Y447800D02*
X43870Y447800D01*
X43870Y447933D02*
X57730Y447933D01*
X57730Y448066D02*
X43870Y448066D01*
X43870Y448199D02*
X57730Y448199D01*
X57730Y448332D02*
X43870Y448332D01*
X43870Y448465D02*
X57730Y448465D01*
X57730Y448598D02*
X43870Y448598D01*
X43870Y448731D02*
X57730Y448731D01*
X57730Y448864D02*
X43870Y448864D01*
X43870Y448997D02*
X57730Y448997D01*
X57730Y449130D02*
X43870Y449130D01*
X43870Y449263D02*
X57730Y449263D01*
X57730Y449396D02*
X43870Y449396D01*
X43870Y449529D02*
X57730Y449529D01*
X57730Y449662D02*
X43870Y449662D01*
X43870Y449795D02*
X57730Y449795D01*
X57730Y449928D02*
X43870Y449928D01*
X43870Y450061D02*
X57730Y450061D01*
X57730Y450194D02*
X43870Y450194D01*
X43870Y450327D02*
X57730Y450327D01*
X57730Y450460D02*
X43870Y450460D01*
X43870Y450593D02*
X57730Y450593D01*
X57730Y450726D02*
X43870Y450726D01*
X43870Y450859D02*
X57730Y450859D01*
X57730Y450992D02*
X43870Y450992D01*
X43870Y451125D02*
X57730Y451125D01*
X57730Y451258D02*
X43870Y451258D01*
X43870Y451391D02*
X57730Y451391D01*
X57730Y451524D02*
X43870Y451524D01*
X43870Y451657D02*
X57730Y451657D01*
X57730Y451790D02*
X43870Y451790D01*
X43870Y451923D02*
X57730Y451923D01*
X57730Y452056D02*
X43870Y452056D01*
X43870Y452189D02*
X57730Y452189D01*
X57730Y452322D02*
X43870Y452322D01*
X43870Y452455D02*
X57730Y452455D01*
X57730Y452588D02*
X43870Y452588D01*
X43870Y452721D02*
X57730Y452721D01*
X57730Y452854D02*
X43870Y452854D01*
X43870Y452987D02*
X57730Y452987D01*
X57730Y453120D02*
X43870Y453120D01*
X43870Y453253D02*
X57730Y453253D01*
X57730Y453386D02*
X43870Y453386D01*
X43870Y453519D02*
X57730Y453519D01*
X57730Y453652D02*
X43870Y453652D01*
D12*
X162800Y546150D03*
X162800Y533450D03*
X162800Y520750D03*
X162800Y508050D03*
X162800Y495350D03*
X162800Y482650D03*
X162800Y469950D03*
X162800Y457250D03*
X162800Y444550D03*
X162800Y431850D03*
X162800Y419150D03*
X162800Y406450D03*
X162800Y393750D03*
X162800Y381050D03*
X162800Y368350D03*
X162800Y355650D03*
X162800Y342950D03*
X162800Y330250D03*
X162800Y317550D03*
X332800Y317550D03*
X332800Y330250D03*
X332800Y342950D03*
X332800Y355650D03*
X332800Y368350D03*
X332800Y381050D03*
X332800Y393750D03*
X332800Y406450D03*
X332800Y419150D03*
X332800Y431850D03*
X332800Y444550D03*
X332800Y457250D03*
X332800Y469950D03*
X332800Y482650D03*
X332800Y495350D03*
X332800Y508050D03*
X332800Y520750D03*
X332800Y533450D03*
X332800Y546150D03*
D13*
X237800Y469950D03*
D14*
X282100Y82550D03*
X292100Y82550D03*
D15*
X303100Y31050D03*
X271100Y31050D03*
D14*
X205900Y82550D03*
X215900Y82550D03*
D15*
X226900Y31050D03*
X194900Y31050D03*
D11*
X350190Y236545D02*
X364050Y236545D01*
X364050Y220655D01*
X350190Y220655D01*
X350190Y236545D01*
X350190Y220788D02*
X364050Y220788D01*
X364050Y220921D02*
X350190Y220921D01*
X350190Y221054D02*
X364050Y221054D01*
X364050Y221187D02*
X350190Y221187D01*
X350190Y221320D02*
X364050Y221320D01*
X364050Y221453D02*
X350190Y221453D01*
X350190Y221586D02*
X364050Y221586D01*
X364050Y221719D02*
X350190Y221719D01*
X350190Y221852D02*
X364050Y221852D01*
X364050Y221985D02*
X350190Y221985D01*
X350190Y222118D02*
X364050Y222118D01*
X364050Y222251D02*
X350190Y222251D01*
X350190Y222384D02*
X364050Y222384D01*
X364050Y222517D02*
X350190Y222517D01*
X350190Y222650D02*
X364050Y222650D01*
X364050Y222783D02*
X350190Y222783D01*
X350190Y222916D02*
X364050Y222916D01*
X364050Y223049D02*
X350190Y223049D01*
X350190Y223182D02*
X364050Y223182D01*
X364050Y223315D02*
X350190Y223315D01*
X350190Y223448D02*
X364050Y223448D01*
X364050Y223581D02*
X350190Y223581D01*
X350190Y223714D02*
X364050Y223714D01*
X364050Y223847D02*
X350190Y223847D01*
X350190Y223980D02*
X364050Y223980D01*
X364050Y224113D02*
X350190Y224113D01*
X350190Y224246D02*
X364050Y224246D01*
X364050Y224379D02*
X350190Y224379D01*
X350190Y224512D02*
X364050Y224512D01*
X364050Y224645D02*
X350190Y224645D01*
X350190Y224778D02*
X364050Y224778D01*
X364050Y224911D02*
X350190Y224911D01*
X350190Y225044D02*
X364050Y225044D01*
X364050Y225177D02*
X350190Y225177D01*
X350190Y225310D02*
X364050Y225310D01*
X364050Y225443D02*
X350190Y225443D01*
X350190Y225576D02*
X364050Y225576D01*
X364050Y225709D02*
X350190Y225709D01*
X350190Y225842D02*
X364050Y225842D01*
X364050Y225975D02*
X350190Y225975D01*
X350190Y226108D02*
X364050Y226108D01*
X364050Y226241D02*
X350190Y226241D01*
X350190Y226374D02*
X364050Y226374D01*
X364050Y226507D02*
X350190Y226507D01*
X350190Y226640D02*
X364050Y226640D01*
X364050Y226773D02*
X350190Y226773D01*
X350190Y226906D02*
X364050Y226906D01*
X364050Y227039D02*
X350190Y227039D01*
X350190Y227172D02*
X364050Y227172D01*
X364050Y227305D02*
X350190Y227305D01*
X350190Y227438D02*
X364050Y227438D01*
X364050Y227571D02*
X350190Y227571D01*
X350190Y227704D02*
X364050Y227704D01*
X364050Y227837D02*
X350190Y227837D01*
X350190Y227970D02*
X364050Y227970D01*
X364050Y228103D02*
X350190Y228103D01*
X350190Y228236D02*
X364050Y228236D01*
X364050Y228369D02*
X350190Y228369D01*
X350190Y228502D02*
X364050Y228502D01*
X364050Y228635D02*
X350190Y228635D01*
X350190Y228768D02*
X364050Y228768D01*
X364050Y228901D02*
X350190Y228901D01*
X350190Y229034D02*
X364050Y229034D01*
X364050Y229167D02*
X350190Y229167D01*
X350190Y229300D02*
X364050Y229300D01*
X364050Y229433D02*
X350190Y229433D01*
X350190Y229566D02*
X364050Y229566D01*
X364050Y229699D02*
X350190Y229699D01*
X350190Y229832D02*
X364050Y229832D01*
X364050Y229965D02*
X350190Y229965D01*
X350190Y230098D02*
X364050Y230098D01*
X364050Y230231D02*
X350190Y230231D01*
X350190Y230364D02*
X364050Y230364D01*
X364050Y230497D02*
X350190Y230497D01*
X350190Y230630D02*
X364050Y230630D01*
X364050Y230763D02*
X350190Y230763D01*
X350190Y230896D02*
X364050Y230896D01*
X364050Y231029D02*
X350190Y231029D01*
X350190Y231162D02*
X364050Y231162D01*
X364050Y231295D02*
X350190Y231295D01*
X350190Y231428D02*
X364050Y231428D01*
X364050Y231561D02*
X350190Y231561D01*
X350190Y231694D02*
X364050Y231694D01*
X364050Y231827D02*
X350190Y231827D01*
X350190Y231960D02*
X364050Y231960D01*
X364050Y232093D02*
X350190Y232093D01*
X350190Y232226D02*
X364050Y232226D01*
X364050Y232359D02*
X350190Y232359D01*
X350190Y232492D02*
X364050Y232492D01*
X364050Y232625D02*
X350190Y232625D01*
X350190Y232758D02*
X364050Y232758D01*
X364050Y232891D02*
X350190Y232891D01*
X350190Y233024D02*
X364050Y233024D01*
X364050Y233157D02*
X350190Y233157D01*
X350190Y233290D02*
X364050Y233290D01*
X364050Y233423D02*
X350190Y233423D01*
X350190Y233556D02*
X364050Y233556D01*
X364050Y233689D02*
X350190Y233689D01*
X350190Y233822D02*
X364050Y233822D01*
X364050Y233955D02*
X350190Y233955D01*
X350190Y234088D02*
X364050Y234088D01*
X364050Y234221D02*
X350190Y234221D01*
X350190Y234354D02*
X364050Y234354D01*
X364050Y234487D02*
X350190Y234487D01*
X350190Y234620D02*
X364050Y234620D01*
X364050Y234753D02*
X350190Y234753D01*
X350190Y234886D02*
X364050Y234886D01*
X364050Y235019D02*
X350190Y235019D01*
X350190Y235152D02*
X364050Y235152D01*
X364050Y235285D02*
X350190Y235285D01*
X350190Y235418D02*
X364050Y235418D01*
X364050Y235551D02*
X350190Y235551D01*
X350190Y235684D02*
X364050Y235684D01*
X364050Y235817D02*
X350190Y235817D01*
X350190Y235950D02*
X364050Y235950D01*
X364050Y236083D02*
X350190Y236083D01*
X350190Y236216D02*
X364050Y236216D01*
X364050Y236349D02*
X350190Y236349D01*
X350190Y236482D02*
X364050Y236482D01*
X335610Y236545D02*
X321750Y236545D01*
X335610Y236545D02*
X335610Y220655D01*
X321750Y220655D01*
X321750Y236545D01*
X321750Y220788D02*
X335610Y220788D01*
X335610Y220921D02*
X321750Y220921D01*
X321750Y221054D02*
X335610Y221054D01*
X335610Y221187D02*
X321750Y221187D01*
X321750Y221320D02*
X335610Y221320D01*
X335610Y221453D02*
X321750Y221453D01*
X321750Y221586D02*
X335610Y221586D01*
X335610Y221719D02*
X321750Y221719D01*
X321750Y221852D02*
X335610Y221852D01*
X335610Y221985D02*
X321750Y221985D01*
X321750Y222118D02*
X335610Y222118D01*
X335610Y222251D02*
X321750Y222251D01*
X321750Y222384D02*
X335610Y222384D01*
X335610Y222517D02*
X321750Y222517D01*
X321750Y222650D02*
X335610Y222650D01*
X335610Y222783D02*
X321750Y222783D01*
X321750Y222916D02*
X335610Y222916D01*
X335610Y223049D02*
X321750Y223049D01*
X321750Y223182D02*
X335610Y223182D01*
X335610Y223315D02*
X321750Y223315D01*
X321750Y223448D02*
X335610Y223448D01*
X335610Y223581D02*
X321750Y223581D01*
X321750Y223714D02*
X335610Y223714D01*
X335610Y223847D02*
X321750Y223847D01*
X321750Y223980D02*
X335610Y223980D01*
X335610Y224113D02*
X321750Y224113D01*
X321750Y224246D02*
X335610Y224246D01*
X335610Y224379D02*
X321750Y224379D01*
X321750Y224512D02*
X335610Y224512D01*
X335610Y224645D02*
X321750Y224645D01*
X321750Y224778D02*
X335610Y224778D01*
X335610Y224911D02*
X321750Y224911D01*
X321750Y225044D02*
X335610Y225044D01*
X335610Y225177D02*
X321750Y225177D01*
X321750Y225310D02*
X335610Y225310D01*
X335610Y225443D02*
X321750Y225443D01*
X321750Y225576D02*
X335610Y225576D01*
X335610Y225709D02*
X321750Y225709D01*
X321750Y225842D02*
X335610Y225842D01*
X335610Y225975D02*
X321750Y225975D01*
X321750Y226108D02*
X335610Y226108D01*
X335610Y226241D02*
X321750Y226241D01*
X321750Y226374D02*
X335610Y226374D01*
X335610Y226507D02*
X321750Y226507D01*
X321750Y226640D02*
X335610Y226640D01*
X335610Y226773D02*
X321750Y226773D01*
X321750Y226906D02*
X335610Y226906D01*
X335610Y227039D02*
X321750Y227039D01*
X321750Y227172D02*
X335610Y227172D01*
X335610Y227305D02*
X321750Y227305D01*
X321750Y227438D02*
X335610Y227438D01*
X335610Y227571D02*
X321750Y227571D01*
X321750Y227704D02*
X335610Y227704D01*
X335610Y227837D02*
X321750Y227837D01*
X321750Y227970D02*
X335610Y227970D01*
X335610Y228103D02*
X321750Y228103D01*
X321750Y228236D02*
X335610Y228236D01*
X335610Y228369D02*
X321750Y228369D01*
X321750Y228502D02*
X335610Y228502D01*
X335610Y228635D02*
X321750Y228635D01*
X321750Y228768D02*
X335610Y228768D01*
X335610Y228901D02*
X321750Y228901D01*
X321750Y229034D02*
X335610Y229034D01*
X335610Y229167D02*
X321750Y229167D01*
X321750Y229300D02*
X335610Y229300D01*
X335610Y229433D02*
X321750Y229433D01*
X321750Y229566D02*
X335610Y229566D01*
X335610Y229699D02*
X321750Y229699D01*
X321750Y229832D02*
X335610Y229832D01*
X335610Y229965D02*
X321750Y229965D01*
X321750Y230098D02*
X335610Y230098D01*
X335610Y230231D02*
X321750Y230231D01*
X321750Y230364D02*
X335610Y230364D01*
X335610Y230497D02*
X321750Y230497D01*
X321750Y230630D02*
X335610Y230630D01*
X335610Y230763D02*
X321750Y230763D01*
X321750Y230896D02*
X335610Y230896D01*
X335610Y231029D02*
X321750Y231029D01*
X321750Y231162D02*
X335610Y231162D01*
X335610Y231295D02*
X321750Y231295D01*
X321750Y231428D02*
X335610Y231428D01*
X335610Y231561D02*
X321750Y231561D01*
X321750Y231694D02*
X335610Y231694D01*
X335610Y231827D02*
X321750Y231827D01*
X321750Y231960D02*
X335610Y231960D01*
X335610Y232093D02*
X321750Y232093D01*
X321750Y232226D02*
X335610Y232226D01*
X335610Y232359D02*
X321750Y232359D01*
X321750Y232492D02*
X335610Y232492D01*
X335610Y232625D02*
X321750Y232625D01*
X321750Y232758D02*
X335610Y232758D01*
X335610Y232891D02*
X321750Y232891D01*
X321750Y233024D02*
X335610Y233024D01*
X335610Y233157D02*
X321750Y233157D01*
X321750Y233290D02*
X335610Y233290D01*
X335610Y233423D02*
X321750Y233423D01*
X321750Y233556D02*
X335610Y233556D01*
X335610Y233689D02*
X321750Y233689D01*
X321750Y233822D02*
X335610Y233822D01*
X335610Y233955D02*
X321750Y233955D01*
X321750Y234088D02*
X335610Y234088D01*
X335610Y234221D02*
X321750Y234221D01*
X321750Y234354D02*
X335610Y234354D01*
X335610Y234487D02*
X321750Y234487D01*
X321750Y234620D02*
X335610Y234620D01*
X335610Y234753D02*
X321750Y234753D01*
X321750Y234886D02*
X335610Y234886D01*
X335610Y235019D02*
X321750Y235019D01*
X321750Y235152D02*
X335610Y235152D01*
X335610Y235285D02*
X321750Y235285D01*
X321750Y235418D02*
X335610Y235418D01*
X335610Y235551D02*
X321750Y235551D01*
X321750Y235684D02*
X335610Y235684D01*
X335610Y235817D02*
X321750Y235817D01*
X321750Y235950D02*
X335610Y235950D01*
X335610Y236083D02*
X321750Y236083D01*
X321750Y236216D02*
X335610Y236216D01*
X335610Y236349D02*
X321750Y236349D01*
X321750Y236482D02*
X335610Y236482D01*
D10*
X111100Y311150D03*
X92100Y311150D03*
D16*
X114300Y396850D03*
X114300Y377850D03*
D11*
X334450Y173045D02*
X348310Y173045D01*
X348310Y157155D01*
X334450Y157155D01*
X334450Y173045D01*
X334450Y157288D02*
X348310Y157288D01*
X348310Y157421D02*
X334450Y157421D01*
X334450Y157554D02*
X348310Y157554D01*
X348310Y157687D02*
X334450Y157687D01*
X334450Y157820D02*
X348310Y157820D01*
X348310Y157953D02*
X334450Y157953D01*
X334450Y158086D02*
X348310Y158086D01*
X348310Y158219D02*
X334450Y158219D01*
X334450Y158352D02*
X348310Y158352D01*
X348310Y158485D02*
X334450Y158485D01*
X334450Y158618D02*
X348310Y158618D01*
X348310Y158751D02*
X334450Y158751D01*
X334450Y158884D02*
X348310Y158884D01*
X348310Y159017D02*
X334450Y159017D01*
X334450Y159150D02*
X348310Y159150D01*
X348310Y159283D02*
X334450Y159283D01*
X334450Y159416D02*
X348310Y159416D01*
X348310Y159549D02*
X334450Y159549D01*
X334450Y159682D02*
X348310Y159682D01*
X348310Y159815D02*
X334450Y159815D01*
X334450Y159948D02*
X348310Y159948D01*
X348310Y160081D02*
X334450Y160081D01*
X334450Y160214D02*
X348310Y160214D01*
X348310Y160347D02*
X334450Y160347D01*
X334450Y160480D02*
X348310Y160480D01*
X348310Y160613D02*
X334450Y160613D01*
X334450Y160746D02*
X348310Y160746D01*
X348310Y160879D02*
X334450Y160879D01*
X334450Y161012D02*
X348310Y161012D01*
X348310Y161145D02*
X334450Y161145D01*
X334450Y161278D02*
X348310Y161278D01*
X348310Y161411D02*
X334450Y161411D01*
X334450Y161544D02*
X348310Y161544D01*
X348310Y161677D02*
X334450Y161677D01*
X334450Y161810D02*
X348310Y161810D01*
X348310Y161943D02*
X334450Y161943D01*
X334450Y162076D02*
X348310Y162076D01*
X348310Y162209D02*
X334450Y162209D01*
X334450Y162342D02*
X348310Y162342D01*
X348310Y162475D02*
X334450Y162475D01*
X334450Y162608D02*
X348310Y162608D01*
X348310Y162741D02*
X334450Y162741D01*
X334450Y162874D02*
X348310Y162874D01*
X348310Y163007D02*
X334450Y163007D01*
X334450Y163140D02*
X348310Y163140D01*
X348310Y163273D02*
X334450Y163273D01*
X334450Y163406D02*
X348310Y163406D01*
X348310Y163539D02*
X334450Y163539D01*
X334450Y163672D02*
X348310Y163672D01*
X348310Y163805D02*
X334450Y163805D01*
X334450Y163938D02*
X348310Y163938D01*
X348310Y164071D02*
X334450Y164071D01*
X334450Y164204D02*
X348310Y164204D01*
X348310Y164337D02*
X334450Y164337D01*
X334450Y164470D02*
X348310Y164470D01*
X348310Y164603D02*
X334450Y164603D01*
X334450Y164736D02*
X348310Y164736D01*
X348310Y164869D02*
X334450Y164869D01*
X334450Y165002D02*
X348310Y165002D01*
X348310Y165135D02*
X334450Y165135D01*
X334450Y165268D02*
X348310Y165268D01*
X348310Y165401D02*
X334450Y165401D01*
X334450Y165534D02*
X348310Y165534D01*
X348310Y165667D02*
X334450Y165667D01*
X334450Y165800D02*
X348310Y165800D01*
X348310Y165933D02*
X334450Y165933D01*
X334450Y166066D02*
X348310Y166066D01*
X348310Y166199D02*
X334450Y166199D01*
X334450Y166332D02*
X348310Y166332D01*
X348310Y166465D02*
X334450Y166465D01*
X334450Y166598D02*
X348310Y166598D01*
X348310Y166731D02*
X334450Y166731D01*
X334450Y166864D02*
X348310Y166864D01*
X348310Y166997D02*
X334450Y166997D01*
X334450Y167130D02*
X348310Y167130D01*
X348310Y167263D02*
X334450Y167263D01*
X334450Y167396D02*
X348310Y167396D01*
X348310Y167529D02*
X334450Y167529D01*
X334450Y167662D02*
X348310Y167662D01*
X348310Y167795D02*
X334450Y167795D01*
X334450Y167928D02*
X348310Y167928D01*
X348310Y168061D02*
X334450Y168061D01*
X334450Y168194D02*
X348310Y168194D01*
X348310Y168327D02*
X334450Y168327D01*
X334450Y168460D02*
X348310Y168460D01*
X348310Y168593D02*
X334450Y168593D01*
X334450Y168726D02*
X348310Y168726D01*
X348310Y168859D02*
X334450Y168859D01*
X334450Y168992D02*
X348310Y168992D01*
X348310Y169125D02*
X334450Y169125D01*
X334450Y169258D02*
X348310Y169258D01*
X348310Y169391D02*
X334450Y169391D01*
X334450Y169524D02*
X348310Y169524D01*
X348310Y169657D02*
X334450Y169657D01*
X334450Y169790D02*
X348310Y169790D01*
X348310Y169923D02*
X334450Y169923D01*
X334450Y170056D02*
X348310Y170056D01*
X348310Y170189D02*
X334450Y170189D01*
X334450Y170322D02*
X348310Y170322D01*
X348310Y170455D02*
X334450Y170455D01*
X334450Y170588D02*
X348310Y170588D01*
X348310Y170721D02*
X334450Y170721D01*
X334450Y170854D02*
X348310Y170854D01*
X348310Y170987D02*
X334450Y170987D01*
X334450Y171120D02*
X348310Y171120D01*
X348310Y171253D02*
X334450Y171253D01*
X334450Y171386D02*
X348310Y171386D01*
X348310Y171519D02*
X334450Y171519D01*
X334450Y171652D02*
X348310Y171652D01*
X348310Y171785D02*
X334450Y171785D01*
X334450Y171918D02*
X348310Y171918D01*
X348310Y172051D02*
X334450Y172051D01*
X334450Y172184D02*
X348310Y172184D01*
X348310Y172317D02*
X334450Y172317D01*
X334450Y172450D02*
X348310Y172450D01*
X348310Y172583D02*
X334450Y172583D01*
X334450Y172716D02*
X348310Y172716D01*
X348310Y172849D02*
X334450Y172849D01*
X334450Y172982D02*
X348310Y172982D01*
X362890Y173045D02*
X376750Y173045D01*
X376750Y157155D01*
X362890Y157155D01*
X362890Y173045D01*
X362890Y157288D02*
X376750Y157288D01*
X376750Y157421D02*
X362890Y157421D01*
X362890Y157554D02*
X376750Y157554D01*
X376750Y157687D02*
X362890Y157687D01*
X362890Y157820D02*
X376750Y157820D01*
X376750Y157953D02*
X362890Y157953D01*
X362890Y158086D02*
X376750Y158086D01*
X376750Y158219D02*
X362890Y158219D01*
X362890Y158352D02*
X376750Y158352D01*
X376750Y158485D02*
X362890Y158485D01*
X362890Y158618D02*
X376750Y158618D01*
X376750Y158751D02*
X362890Y158751D01*
X362890Y158884D02*
X376750Y158884D01*
X376750Y159017D02*
X362890Y159017D01*
X362890Y159150D02*
X376750Y159150D01*
X376750Y159283D02*
X362890Y159283D01*
X362890Y159416D02*
X376750Y159416D01*
X376750Y159549D02*
X362890Y159549D01*
X362890Y159682D02*
X376750Y159682D01*
X376750Y159815D02*
X362890Y159815D01*
X362890Y159948D02*
X376750Y159948D01*
X376750Y160081D02*
X362890Y160081D01*
X362890Y160214D02*
X376750Y160214D01*
X376750Y160347D02*
X362890Y160347D01*
X362890Y160480D02*
X376750Y160480D01*
X376750Y160613D02*
X362890Y160613D01*
X362890Y160746D02*
X376750Y160746D01*
X376750Y160879D02*
X362890Y160879D01*
X362890Y161012D02*
X376750Y161012D01*
X376750Y161145D02*
X362890Y161145D01*
X362890Y161278D02*
X376750Y161278D01*
X376750Y161411D02*
X362890Y161411D01*
X362890Y161544D02*
X376750Y161544D01*
X376750Y161677D02*
X362890Y161677D01*
X362890Y161810D02*
X376750Y161810D01*
X376750Y161943D02*
X362890Y161943D01*
X362890Y162076D02*
X376750Y162076D01*
X376750Y162209D02*
X362890Y162209D01*
X362890Y162342D02*
X376750Y162342D01*
X376750Y162475D02*
X362890Y162475D01*
X362890Y162608D02*
X376750Y162608D01*
X376750Y162741D02*
X362890Y162741D01*
X362890Y162874D02*
X376750Y162874D01*
X376750Y163007D02*
X362890Y163007D01*
X362890Y163140D02*
X376750Y163140D01*
X376750Y163273D02*
X362890Y163273D01*
X362890Y163406D02*
X376750Y163406D01*
X376750Y163539D02*
X362890Y163539D01*
X362890Y163672D02*
X376750Y163672D01*
X376750Y163805D02*
X362890Y163805D01*
X362890Y163938D02*
X376750Y163938D01*
X376750Y164071D02*
X362890Y164071D01*
X362890Y164204D02*
X376750Y164204D01*
X376750Y164337D02*
X362890Y164337D01*
X362890Y164470D02*
X376750Y164470D01*
X376750Y164603D02*
X362890Y164603D01*
X362890Y164736D02*
X376750Y164736D01*
X376750Y164869D02*
X362890Y164869D01*
X362890Y165002D02*
X376750Y165002D01*
X376750Y165135D02*
X362890Y165135D01*
X362890Y165268D02*
X376750Y165268D01*
X376750Y165401D02*
X362890Y165401D01*
X362890Y165534D02*
X376750Y165534D01*
X376750Y165667D02*
X362890Y165667D01*
X362890Y165800D02*
X376750Y165800D01*
X376750Y165933D02*
X362890Y165933D01*
X362890Y166066D02*
X376750Y166066D01*
X376750Y166199D02*
X362890Y166199D01*
X362890Y166332D02*
X376750Y166332D01*
X376750Y166465D02*
X362890Y166465D01*
X362890Y166598D02*
X376750Y166598D01*
X376750Y166731D02*
X362890Y166731D01*
X362890Y166864D02*
X376750Y166864D01*
X376750Y166997D02*
X362890Y166997D01*
X362890Y167130D02*
X376750Y167130D01*
X376750Y167263D02*
X362890Y167263D01*
X362890Y167396D02*
X376750Y167396D01*
X376750Y167529D02*
X362890Y167529D01*
X362890Y167662D02*
X376750Y167662D01*
X376750Y167795D02*
X362890Y167795D01*
X362890Y167928D02*
X376750Y167928D01*
X376750Y168061D02*
X362890Y168061D01*
X362890Y168194D02*
X376750Y168194D01*
X376750Y168327D02*
X362890Y168327D01*
X362890Y168460D02*
X376750Y168460D01*
X376750Y168593D02*
X362890Y168593D01*
X362890Y168726D02*
X376750Y168726D01*
X376750Y168859D02*
X362890Y168859D01*
X362890Y168992D02*
X376750Y168992D01*
X376750Y169125D02*
X362890Y169125D01*
X362890Y169258D02*
X376750Y169258D01*
X376750Y169391D02*
X362890Y169391D01*
X362890Y169524D02*
X376750Y169524D01*
X376750Y169657D02*
X362890Y169657D01*
X362890Y169790D02*
X376750Y169790D01*
X376750Y169923D02*
X362890Y169923D01*
X362890Y170056D02*
X376750Y170056D01*
X376750Y170189D02*
X362890Y170189D01*
X362890Y170322D02*
X376750Y170322D01*
X376750Y170455D02*
X362890Y170455D01*
X362890Y170588D02*
X376750Y170588D01*
X376750Y170721D02*
X362890Y170721D01*
X362890Y170854D02*
X376750Y170854D01*
X376750Y170987D02*
X362890Y170987D01*
X362890Y171120D02*
X376750Y171120D01*
X376750Y171253D02*
X362890Y171253D01*
X362890Y171386D02*
X376750Y171386D01*
X376750Y171519D02*
X362890Y171519D01*
X362890Y171652D02*
X376750Y171652D01*
X376750Y171785D02*
X362890Y171785D01*
X362890Y171918D02*
X376750Y171918D01*
X376750Y172051D02*
X362890Y172051D01*
X362890Y172184D02*
X376750Y172184D01*
X376750Y172317D02*
X362890Y172317D01*
X362890Y172450D02*
X376750Y172450D01*
X376750Y172583D02*
X362890Y172583D01*
X362890Y172716D02*
X376750Y172716D01*
X376750Y172849D02*
X362890Y172849D01*
X362890Y172982D02*
X376750Y172982D01*
X407340Y220655D02*
X421200Y220655D01*
X407340Y220655D02*
X407340Y236545D01*
X421200Y236545D01*
X421200Y220655D01*
X421200Y220788D02*
X407340Y220788D01*
X407340Y220921D02*
X421200Y220921D01*
X421200Y221054D02*
X407340Y221054D01*
X407340Y221187D02*
X421200Y221187D01*
X421200Y221320D02*
X407340Y221320D01*
X407340Y221453D02*
X421200Y221453D01*
X421200Y221586D02*
X407340Y221586D01*
X407340Y221719D02*
X421200Y221719D01*
X421200Y221852D02*
X407340Y221852D01*
X407340Y221985D02*
X421200Y221985D01*
X421200Y222118D02*
X407340Y222118D01*
X407340Y222251D02*
X421200Y222251D01*
X421200Y222384D02*
X407340Y222384D01*
X407340Y222517D02*
X421200Y222517D01*
X421200Y222650D02*
X407340Y222650D01*
X407340Y222783D02*
X421200Y222783D01*
X421200Y222916D02*
X407340Y222916D01*
X407340Y223049D02*
X421200Y223049D01*
X421200Y223182D02*
X407340Y223182D01*
X407340Y223315D02*
X421200Y223315D01*
X421200Y223448D02*
X407340Y223448D01*
X407340Y223581D02*
X421200Y223581D01*
X421200Y223714D02*
X407340Y223714D01*
X407340Y223847D02*
X421200Y223847D01*
X421200Y223980D02*
X407340Y223980D01*
X407340Y224113D02*
X421200Y224113D01*
X421200Y224246D02*
X407340Y224246D01*
X407340Y224379D02*
X421200Y224379D01*
X421200Y224512D02*
X407340Y224512D01*
X407340Y224645D02*
X421200Y224645D01*
X421200Y224778D02*
X407340Y224778D01*
X407340Y224911D02*
X421200Y224911D01*
X421200Y225044D02*
X407340Y225044D01*
X407340Y225177D02*
X421200Y225177D01*
X421200Y225310D02*
X407340Y225310D01*
X407340Y225443D02*
X421200Y225443D01*
X421200Y225576D02*
X407340Y225576D01*
X407340Y225709D02*
X421200Y225709D01*
X421200Y225842D02*
X407340Y225842D01*
X407340Y225975D02*
X421200Y225975D01*
X421200Y226108D02*
X407340Y226108D01*
X407340Y226241D02*
X421200Y226241D01*
X421200Y226374D02*
X407340Y226374D01*
X407340Y226507D02*
X421200Y226507D01*
X421200Y226640D02*
X407340Y226640D01*
X407340Y226773D02*
X421200Y226773D01*
X421200Y226906D02*
X407340Y226906D01*
X407340Y227039D02*
X421200Y227039D01*
X421200Y227172D02*
X407340Y227172D01*
X407340Y227305D02*
X421200Y227305D01*
X421200Y227438D02*
X407340Y227438D01*
X407340Y227571D02*
X421200Y227571D01*
X421200Y227704D02*
X407340Y227704D01*
X407340Y227837D02*
X421200Y227837D01*
X421200Y227970D02*
X407340Y227970D01*
X407340Y228103D02*
X421200Y228103D01*
X421200Y228236D02*
X407340Y228236D01*
X407340Y228369D02*
X421200Y228369D01*
X421200Y228502D02*
X407340Y228502D01*
X407340Y228635D02*
X421200Y228635D01*
X421200Y228768D02*
X407340Y228768D01*
X407340Y228901D02*
X421200Y228901D01*
X421200Y229034D02*
X407340Y229034D01*
X407340Y229167D02*
X421200Y229167D01*
X421200Y229300D02*
X407340Y229300D01*
X407340Y229433D02*
X421200Y229433D01*
X421200Y229566D02*
X407340Y229566D01*
X407340Y229699D02*
X421200Y229699D01*
X421200Y229832D02*
X407340Y229832D01*
X407340Y229965D02*
X421200Y229965D01*
X421200Y230098D02*
X407340Y230098D01*
X407340Y230231D02*
X421200Y230231D01*
X421200Y230364D02*
X407340Y230364D01*
X407340Y230497D02*
X421200Y230497D01*
X421200Y230630D02*
X407340Y230630D01*
X407340Y230763D02*
X421200Y230763D01*
X421200Y230896D02*
X407340Y230896D01*
X407340Y231029D02*
X421200Y231029D01*
X421200Y231162D02*
X407340Y231162D01*
X407340Y231295D02*
X421200Y231295D01*
X421200Y231428D02*
X407340Y231428D01*
X407340Y231561D02*
X421200Y231561D01*
X421200Y231694D02*
X407340Y231694D01*
X407340Y231827D02*
X421200Y231827D01*
X421200Y231960D02*
X407340Y231960D01*
X407340Y232093D02*
X421200Y232093D01*
X421200Y232226D02*
X407340Y232226D01*
X407340Y232359D02*
X421200Y232359D01*
X421200Y232492D02*
X407340Y232492D01*
X407340Y232625D02*
X421200Y232625D01*
X421200Y232758D02*
X407340Y232758D01*
X407340Y232891D02*
X421200Y232891D01*
X421200Y233024D02*
X407340Y233024D01*
X407340Y233157D02*
X421200Y233157D01*
X421200Y233290D02*
X407340Y233290D01*
X407340Y233423D02*
X421200Y233423D01*
X421200Y233556D02*
X407340Y233556D01*
X407340Y233689D02*
X421200Y233689D01*
X421200Y233822D02*
X407340Y233822D01*
X407340Y233955D02*
X421200Y233955D01*
X421200Y234088D02*
X407340Y234088D01*
X407340Y234221D02*
X421200Y234221D01*
X421200Y234354D02*
X407340Y234354D01*
X407340Y234487D02*
X421200Y234487D01*
X421200Y234620D02*
X407340Y234620D01*
X407340Y234753D02*
X421200Y234753D01*
X421200Y234886D02*
X407340Y234886D01*
X407340Y235019D02*
X421200Y235019D01*
X421200Y235152D02*
X407340Y235152D01*
X407340Y235285D02*
X421200Y235285D01*
X421200Y235418D02*
X407340Y235418D01*
X407340Y235551D02*
X421200Y235551D01*
X421200Y235684D02*
X407340Y235684D01*
X407340Y235817D02*
X421200Y235817D01*
X421200Y235950D02*
X407340Y235950D01*
X407340Y236083D02*
X421200Y236083D01*
X421200Y236216D02*
X407340Y236216D01*
X407340Y236349D02*
X421200Y236349D01*
X421200Y236482D02*
X407340Y236482D01*
X392760Y220655D02*
X378900Y220655D01*
X378900Y236545D01*
X392760Y236545D01*
X392760Y220655D01*
X392760Y220788D02*
X378900Y220788D01*
X378900Y220921D02*
X392760Y220921D01*
X392760Y221054D02*
X378900Y221054D01*
X378900Y221187D02*
X392760Y221187D01*
X392760Y221320D02*
X378900Y221320D01*
X378900Y221453D02*
X392760Y221453D01*
X392760Y221586D02*
X378900Y221586D01*
X378900Y221719D02*
X392760Y221719D01*
X392760Y221852D02*
X378900Y221852D01*
X378900Y221985D02*
X392760Y221985D01*
X392760Y222118D02*
X378900Y222118D01*
X378900Y222251D02*
X392760Y222251D01*
X392760Y222384D02*
X378900Y222384D01*
X378900Y222517D02*
X392760Y222517D01*
X392760Y222650D02*
X378900Y222650D01*
X378900Y222783D02*
X392760Y222783D01*
X392760Y222916D02*
X378900Y222916D01*
X378900Y223049D02*
X392760Y223049D01*
X392760Y223182D02*
X378900Y223182D01*
X378900Y223315D02*
X392760Y223315D01*
X392760Y223448D02*
X378900Y223448D01*
X378900Y223581D02*
X392760Y223581D01*
X392760Y223714D02*
X378900Y223714D01*
X378900Y223847D02*
X392760Y223847D01*
X392760Y223980D02*
X378900Y223980D01*
X378900Y224113D02*
X392760Y224113D01*
X392760Y224246D02*
X378900Y224246D01*
X378900Y224379D02*
X392760Y224379D01*
X392760Y224512D02*
X378900Y224512D01*
X378900Y224645D02*
X392760Y224645D01*
X392760Y224778D02*
X378900Y224778D01*
X378900Y224911D02*
X392760Y224911D01*
X392760Y225044D02*
X378900Y225044D01*
X378900Y225177D02*
X392760Y225177D01*
X392760Y225310D02*
X378900Y225310D01*
X378900Y225443D02*
X392760Y225443D01*
X392760Y225576D02*
X378900Y225576D01*
X378900Y225709D02*
X392760Y225709D01*
X392760Y225842D02*
X378900Y225842D01*
X378900Y225975D02*
X392760Y225975D01*
X392760Y226108D02*
X378900Y226108D01*
X378900Y226241D02*
X392760Y226241D01*
X392760Y226374D02*
X378900Y226374D01*
X378900Y226507D02*
X392760Y226507D01*
X392760Y226640D02*
X378900Y226640D01*
X378900Y226773D02*
X392760Y226773D01*
X392760Y226906D02*
X378900Y226906D01*
X378900Y227039D02*
X392760Y227039D01*
X392760Y227172D02*
X378900Y227172D01*
X378900Y227305D02*
X392760Y227305D01*
X392760Y227438D02*
X378900Y227438D01*
X378900Y227571D02*
X392760Y227571D01*
X392760Y227704D02*
X378900Y227704D01*
X378900Y227837D02*
X392760Y227837D01*
X392760Y227970D02*
X378900Y227970D01*
X378900Y228103D02*
X392760Y228103D01*
X392760Y228236D02*
X378900Y228236D01*
X378900Y228369D02*
X392760Y228369D01*
X392760Y228502D02*
X378900Y228502D01*
X378900Y228635D02*
X392760Y228635D01*
X392760Y228768D02*
X378900Y228768D01*
X378900Y228901D02*
X392760Y228901D01*
X392760Y229034D02*
X378900Y229034D01*
X378900Y229167D02*
X392760Y229167D01*
X392760Y229300D02*
X378900Y229300D01*
X378900Y229433D02*
X392760Y229433D01*
X392760Y229566D02*
X378900Y229566D01*
X378900Y229699D02*
X392760Y229699D01*
X392760Y229832D02*
X378900Y229832D01*
X378900Y229965D02*
X392760Y229965D01*
X392760Y230098D02*
X378900Y230098D01*
X378900Y230231D02*
X392760Y230231D01*
X392760Y230364D02*
X378900Y230364D01*
X378900Y230497D02*
X392760Y230497D01*
X392760Y230630D02*
X378900Y230630D01*
X378900Y230763D02*
X392760Y230763D01*
X392760Y230896D02*
X378900Y230896D01*
X378900Y231029D02*
X392760Y231029D01*
X392760Y231162D02*
X378900Y231162D01*
X378900Y231295D02*
X392760Y231295D01*
X392760Y231428D02*
X378900Y231428D01*
X378900Y231561D02*
X392760Y231561D01*
X392760Y231694D02*
X378900Y231694D01*
X378900Y231827D02*
X392760Y231827D01*
X392760Y231960D02*
X378900Y231960D01*
X378900Y232093D02*
X392760Y232093D01*
X392760Y232226D02*
X378900Y232226D01*
X378900Y232359D02*
X392760Y232359D01*
X392760Y232492D02*
X378900Y232492D01*
X378900Y232625D02*
X392760Y232625D01*
X392760Y232758D02*
X378900Y232758D01*
X378900Y232891D02*
X392760Y232891D01*
X392760Y233024D02*
X378900Y233024D01*
X378900Y233157D02*
X392760Y233157D01*
X392760Y233290D02*
X378900Y233290D01*
X378900Y233423D02*
X392760Y233423D01*
X392760Y233556D02*
X378900Y233556D01*
X378900Y233689D02*
X392760Y233689D01*
X392760Y233822D02*
X378900Y233822D01*
X378900Y233955D02*
X392760Y233955D01*
X392760Y234088D02*
X378900Y234088D01*
X378900Y234221D02*
X392760Y234221D01*
X392760Y234354D02*
X378900Y234354D01*
X378900Y234487D02*
X392760Y234487D01*
X392760Y234620D02*
X378900Y234620D01*
X378900Y234753D02*
X392760Y234753D01*
X392760Y234886D02*
X378900Y234886D01*
X378900Y235019D02*
X392760Y235019D01*
X392760Y235152D02*
X378900Y235152D01*
X378900Y235285D02*
X392760Y235285D01*
X392760Y235418D02*
X378900Y235418D01*
X378900Y235551D02*
X392760Y235551D01*
X392760Y235684D02*
X378900Y235684D01*
X378900Y235817D02*
X392760Y235817D01*
X392760Y235950D02*
X378900Y235950D01*
X378900Y236083D02*
X392760Y236083D01*
X392760Y236216D02*
X378900Y236216D01*
X378900Y236349D02*
X392760Y236349D01*
X392760Y236482D02*
X378900Y236482D01*
X394280Y376020D02*
X394280Y396580D01*
X394280Y376020D02*
X380420Y376020D01*
X380420Y396580D01*
X394280Y396580D01*
X394280Y376153D02*
X380420Y376153D01*
X380420Y376286D02*
X394280Y376286D01*
X394280Y376419D02*
X380420Y376419D01*
X380420Y376552D02*
X394280Y376552D01*
X394280Y376685D02*
X380420Y376685D01*
X380420Y376818D02*
X394280Y376818D01*
X394280Y376951D02*
X380420Y376951D01*
X380420Y377084D02*
X394280Y377084D01*
X394280Y377217D02*
X380420Y377217D01*
X380420Y377350D02*
X394280Y377350D01*
X394280Y377483D02*
X380420Y377483D01*
X380420Y377616D02*
X394280Y377616D01*
X394280Y377749D02*
X380420Y377749D01*
X380420Y377882D02*
X394280Y377882D01*
X394280Y378015D02*
X380420Y378015D01*
X380420Y378148D02*
X394280Y378148D01*
X394280Y378281D02*
X380420Y378281D01*
X380420Y378414D02*
X394280Y378414D01*
X394280Y378547D02*
X380420Y378547D01*
X380420Y378680D02*
X394280Y378680D01*
X394280Y378813D02*
X380420Y378813D01*
X380420Y378946D02*
X394280Y378946D01*
X394280Y379079D02*
X380420Y379079D01*
X380420Y379212D02*
X394280Y379212D01*
X394280Y379345D02*
X380420Y379345D01*
X380420Y379478D02*
X394280Y379478D01*
X394280Y379611D02*
X380420Y379611D01*
X380420Y379744D02*
X394280Y379744D01*
X394280Y379877D02*
X380420Y379877D01*
X380420Y380010D02*
X394280Y380010D01*
X394280Y380143D02*
X380420Y380143D01*
X380420Y380276D02*
X394280Y380276D01*
X394280Y380409D02*
X380420Y380409D01*
X380420Y380542D02*
X394280Y380542D01*
X394280Y380675D02*
X380420Y380675D01*
X380420Y380808D02*
X394280Y380808D01*
X394280Y380941D02*
X380420Y380941D01*
X380420Y381074D02*
X394280Y381074D01*
X394280Y381207D02*
X380420Y381207D01*
X380420Y381340D02*
X394280Y381340D01*
X394280Y381473D02*
X380420Y381473D01*
X380420Y381606D02*
X394280Y381606D01*
X394280Y381739D02*
X380420Y381739D01*
X380420Y381872D02*
X394280Y381872D01*
X394280Y382005D02*
X380420Y382005D01*
X380420Y382138D02*
X394280Y382138D01*
X394280Y382271D02*
X380420Y382271D01*
X380420Y382404D02*
X394280Y382404D01*
X394280Y382537D02*
X380420Y382537D01*
X380420Y382670D02*
X394280Y382670D01*
X394280Y382803D02*
X380420Y382803D01*
X380420Y382936D02*
X394280Y382936D01*
X394280Y383069D02*
X380420Y383069D01*
X380420Y383202D02*
X394280Y383202D01*
X394280Y383335D02*
X380420Y383335D01*
X380420Y383468D02*
X394280Y383468D01*
X394280Y383601D02*
X380420Y383601D01*
X380420Y383734D02*
X394280Y383734D01*
X394280Y383867D02*
X380420Y383867D01*
X380420Y384000D02*
X394280Y384000D01*
X394280Y384133D02*
X380420Y384133D01*
X380420Y384266D02*
X394280Y384266D01*
X394280Y384399D02*
X380420Y384399D01*
X380420Y384532D02*
X394280Y384532D01*
X394280Y384665D02*
X380420Y384665D01*
X380420Y384798D02*
X394280Y384798D01*
X394280Y384931D02*
X380420Y384931D01*
X380420Y385064D02*
X394280Y385064D01*
X394280Y385197D02*
X380420Y385197D01*
X380420Y385330D02*
X394280Y385330D01*
X394280Y385463D02*
X380420Y385463D01*
X380420Y385596D02*
X394280Y385596D01*
X394280Y385729D02*
X380420Y385729D01*
X380420Y385862D02*
X394280Y385862D01*
X394280Y385995D02*
X380420Y385995D01*
X380420Y386128D02*
X394280Y386128D01*
X394280Y386261D02*
X380420Y386261D01*
X380420Y386394D02*
X394280Y386394D01*
X394280Y386527D02*
X380420Y386527D01*
X380420Y386660D02*
X394280Y386660D01*
X394280Y386793D02*
X380420Y386793D01*
X380420Y386926D02*
X394280Y386926D01*
X394280Y387059D02*
X380420Y387059D01*
X380420Y387192D02*
X394280Y387192D01*
X394280Y387325D02*
X380420Y387325D01*
X380420Y387458D02*
X394280Y387458D01*
X394280Y387591D02*
X380420Y387591D01*
X380420Y387724D02*
X394280Y387724D01*
X394280Y387857D02*
X380420Y387857D01*
X380420Y387990D02*
X394280Y387990D01*
X394280Y388123D02*
X380420Y388123D01*
X380420Y388256D02*
X394280Y388256D01*
X394280Y388389D02*
X380420Y388389D01*
X380420Y388522D02*
X394280Y388522D01*
X394280Y388655D02*
X380420Y388655D01*
X380420Y388788D02*
X394280Y388788D01*
X394280Y388921D02*
X380420Y388921D01*
X380420Y389054D02*
X394280Y389054D01*
X394280Y389187D02*
X380420Y389187D01*
X380420Y389320D02*
X394280Y389320D01*
X394280Y389453D02*
X380420Y389453D01*
X380420Y389586D02*
X394280Y389586D01*
X394280Y389719D02*
X380420Y389719D01*
X380420Y389852D02*
X394280Y389852D01*
X394280Y389985D02*
X380420Y389985D01*
X380420Y390118D02*
X394280Y390118D01*
X394280Y390251D02*
X380420Y390251D01*
X380420Y390384D02*
X394280Y390384D01*
X394280Y390517D02*
X380420Y390517D01*
X380420Y390650D02*
X394280Y390650D01*
X394280Y390783D02*
X380420Y390783D01*
X380420Y390916D02*
X394280Y390916D01*
X394280Y391049D02*
X380420Y391049D01*
X380420Y391182D02*
X394280Y391182D01*
X394280Y391315D02*
X380420Y391315D01*
X380420Y391448D02*
X394280Y391448D01*
X394280Y391581D02*
X380420Y391581D01*
X380420Y391714D02*
X394280Y391714D01*
X394280Y391847D02*
X380420Y391847D01*
X380420Y391980D02*
X394280Y391980D01*
X394280Y392113D02*
X380420Y392113D01*
X380420Y392246D02*
X394280Y392246D01*
X394280Y392379D02*
X380420Y392379D01*
X380420Y392512D02*
X394280Y392512D01*
X394280Y392645D02*
X380420Y392645D01*
X380420Y392778D02*
X394280Y392778D01*
X394280Y392911D02*
X380420Y392911D01*
X380420Y393044D02*
X394280Y393044D01*
X394280Y393177D02*
X380420Y393177D01*
X380420Y393310D02*
X394280Y393310D01*
X394280Y393443D02*
X380420Y393443D01*
X380420Y393576D02*
X394280Y393576D01*
X394280Y393709D02*
X380420Y393709D01*
X380420Y393842D02*
X394280Y393842D01*
X394280Y393975D02*
X380420Y393975D01*
X380420Y394108D02*
X394280Y394108D01*
X394280Y394241D02*
X380420Y394241D01*
X380420Y394374D02*
X394280Y394374D01*
X394280Y394507D02*
X380420Y394507D01*
X380420Y394640D02*
X394280Y394640D01*
X394280Y394773D02*
X380420Y394773D01*
X380420Y394906D02*
X394280Y394906D01*
X394280Y395039D02*
X380420Y395039D01*
X380420Y395172D02*
X394280Y395172D01*
X394280Y395305D02*
X380420Y395305D01*
X380420Y395438D02*
X394280Y395438D01*
X394280Y395571D02*
X380420Y395571D01*
X380420Y395704D02*
X394280Y395704D01*
X394280Y395837D02*
X380420Y395837D01*
X380420Y395970D02*
X394280Y395970D01*
X394280Y396103D02*
X380420Y396103D01*
X380420Y396236D02*
X394280Y396236D01*
X394280Y396369D02*
X380420Y396369D01*
X380420Y396502D02*
X394280Y396502D01*
X394280Y467020D02*
X394280Y487580D01*
X394280Y467020D02*
X380420Y467020D01*
X380420Y487580D01*
X394280Y487580D01*
X394280Y467153D02*
X380420Y467153D01*
X380420Y467286D02*
X394280Y467286D01*
X394280Y467419D02*
X380420Y467419D01*
X380420Y467552D02*
X394280Y467552D01*
X394280Y467685D02*
X380420Y467685D01*
X380420Y467818D02*
X394280Y467818D01*
X394280Y467951D02*
X380420Y467951D01*
X380420Y468084D02*
X394280Y468084D01*
X394280Y468217D02*
X380420Y468217D01*
X380420Y468350D02*
X394280Y468350D01*
X394280Y468483D02*
X380420Y468483D01*
X380420Y468616D02*
X394280Y468616D01*
X394280Y468749D02*
X380420Y468749D01*
X380420Y468882D02*
X394280Y468882D01*
X394280Y469015D02*
X380420Y469015D01*
X380420Y469148D02*
X394280Y469148D01*
X394280Y469281D02*
X380420Y469281D01*
X380420Y469414D02*
X394280Y469414D01*
X394280Y469547D02*
X380420Y469547D01*
X380420Y469680D02*
X394280Y469680D01*
X394280Y469813D02*
X380420Y469813D01*
X380420Y469946D02*
X394280Y469946D01*
X394280Y470079D02*
X380420Y470079D01*
X380420Y470212D02*
X394280Y470212D01*
X394280Y470345D02*
X380420Y470345D01*
X380420Y470478D02*
X394280Y470478D01*
X394280Y470611D02*
X380420Y470611D01*
X380420Y470744D02*
X394280Y470744D01*
X394280Y470877D02*
X380420Y470877D01*
X380420Y471010D02*
X394280Y471010D01*
X394280Y471143D02*
X380420Y471143D01*
X380420Y471276D02*
X394280Y471276D01*
X394280Y471409D02*
X380420Y471409D01*
X380420Y471542D02*
X394280Y471542D01*
X394280Y471675D02*
X380420Y471675D01*
X380420Y471808D02*
X394280Y471808D01*
X394280Y471941D02*
X380420Y471941D01*
X380420Y472074D02*
X394280Y472074D01*
X394280Y472207D02*
X380420Y472207D01*
X380420Y472340D02*
X394280Y472340D01*
X394280Y472473D02*
X380420Y472473D01*
X380420Y472606D02*
X394280Y472606D01*
X394280Y472739D02*
X380420Y472739D01*
X380420Y472872D02*
X394280Y472872D01*
X394280Y473005D02*
X380420Y473005D01*
X380420Y473138D02*
X394280Y473138D01*
X394280Y473271D02*
X380420Y473271D01*
X380420Y473404D02*
X394280Y473404D01*
X394280Y473537D02*
X380420Y473537D01*
X380420Y473670D02*
X394280Y473670D01*
X394280Y473803D02*
X380420Y473803D01*
X380420Y473936D02*
X394280Y473936D01*
X394280Y474069D02*
X380420Y474069D01*
X380420Y474202D02*
X394280Y474202D01*
X394280Y474335D02*
X380420Y474335D01*
X380420Y474468D02*
X394280Y474468D01*
X394280Y474601D02*
X380420Y474601D01*
X380420Y474734D02*
X394280Y474734D01*
X394280Y474867D02*
X380420Y474867D01*
X380420Y475000D02*
X394280Y475000D01*
X394280Y475133D02*
X380420Y475133D01*
X380420Y475266D02*
X394280Y475266D01*
X394280Y475399D02*
X380420Y475399D01*
X380420Y475532D02*
X394280Y475532D01*
X394280Y475665D02*
X380420Y475665D01*
X380420Y475798D02*
X394280Y475798D01*
X394280Y475931D02*
X380420Y475931D01*
X380420Y476064D02*
X394280Y476064D01*
X394280Y476197D02*
X380420Y476197D01*
X380420Y476330D02*
X394280Y476330D01*
X394280Y476463D02*
X380420Y476463D01*
X380420Y476596D02*
X394280Y476596D01*
X394280Y476729D02*
X380420Y476729D01*
X380420Y476862D02*
X394280Y476862D01*
X394280Y476995D02*
X380420Y476995D01*
X380420Y477128D02*
X394280Y477128D01*
X394280Y477261D02*
X380420Y477261D01*
X380420Y477394D02*
X394280Y477394D01*
X394280Y477527D02*
X380420Y477527D01*
X380420Y477660D02*
X394280Y477660D01*
X394280Y477793D02*
X380420Y477793D01*
X380420Y477926D02*
X394280Y477926D01*
X394280Y478059D02*
X380420Y478059D01*
X380420Y478192D02*
X394280Y478192D01*
X394280Y478325D02*
X380420Y478325D01*
X380420Y478458D02*
X394280Y478458D01*
X394280Y478591D02*
X380420Y478591D01*
X380420Y478724D02*
X394280Y478724D01*
X394280Y478857D02*
X380420Y478857D01*
X380420Y478990D02*
X394280Y478990D01*
X394280Y479123D02*
X380420Y479123D01*
X380420Y479256D02*
X394280Y479256D01*
X394280Y479389D02*
X380420Y479389D01*
X380420Y479522D02*
X394280Y479522D01*
X394280Y479655D02*
X380420Y479655D01*
X380420Y479788D02*
X394280Y479788D01*
X394280Y479921D02*
X380420Y479921D01*
X380420Y480054D02*
X394280Y480054D01*
X394280Y480187D02*
X380420Y480187D01*
X380420Y480320D02*
X394280Y480320D01*
X394280Y480453D02*
X380420Y480453D01*
X380420Y480586D02*
X394280Y480586D01*
X394280Y480719D02*
X380420Y480719D01*
X380420Y480852D02*
X394280Y480852D01*
X394280Y480985D02*
X380420Y480985D01*
X380420Y481118D02*
X394280Y481118D01*
X394280Y481251D02*
X380420Y481251D01*
X380420Y481384D02*
X394280Y481384D01*
X394280Y481517D02*
X380420Y481517D01*
X380420Y481650D02*
X394280Y481650D01*
X394280Y481783D02*
X380420Y481783D01*
X380420Y481916D02*
X394280Y481916D01*
X394280Y482049D02*
X380420Y482049D01*
X380420Y482182D02*
X394280Y482182D01*
X394280Y482315D02*
X380420Y482315D01*
X380420Y482448D02*
X394280Y482448D01*
X394280Y482581D02*
X380420Y482581D01*
X380420Y482714D02*
X394280Y482714D01*
X394280Y482847D02*
X380420Y482847D01*
X380420Y482980D02*
X394280Y482980D01*
X394280Y483113D02*
X380420Y483113D01*
X380420Y483246D02*
X394280Y483246D01*
X394280Y483379D02*
X380420Y483379D01*
X380420Y483512D02*
X394280Y483512D01*
X394280Y483645D02*
X380420Y483645D01*
X380420Y483778D02*
X394280Y483778D01*
X394280Y483911D02*
X380420Y483911D01*
X380420Y484044D02*
X394280Y484044D01*
X394280Y484177D02*
X380420Y484177D01*
X380420Y484310D02*
X394280Y484310D01*
X394280Y484443D02*
X380420Y484443D01*
X380420Y484576D02*
X394280Y484576D01*
X394280Y484709D02*
X380420Y484709D01*
X380420Y484842D02*
X394280Y484842D01*
X394280Y484975D02*
X380420Y484975D01*
X380420Y485108D02*
X394280Y485108D01*
X394280Y485241D02*
X380420Y485241D01*
X380420Y485374D02*
X394280Y485374D01*
X394280Y485507D02*
X380420Y485507D01*
X380420Y485640D02*
X394280Y485640D01*
X394280Y485773D02*
X380420Y485773D01*
X380420Y485906D02*
X394280Y485906D01*
X394280Y486039D02*
X380420Y486039D01*
X380420Y486172D02*
X394280Y486172D01*
X394280Y486305D02*
X380420Y486305D01*
X380420Y486438D02*
X394280Y486438D01*
X394280Y486571D02*
X380420Y486571D01*
X380420Y486704D02*
X394280Y486704D01*
X394280Y486837D02*
X380420Y486837D01*
X380420Y486970D02*
X394280Y486970D01*
X394280Y487103D02*
X380420Y487103D01*
X380420Y487236D02*
X394280Y487236D01*
X394280Y487369D02*
X380420Y487369D01*
X380420Y487502D02*
X394280Y487502D01*
M02*
