G04 EAGLE Gerber RS-274X export*
G75*
%MOMM*%
%FSLAX34Y34*%
%LPD*%
%INSoldermask Top*%
%IPPOS*%
%AMOC8*
5,1,8,0,0,1.08239X$1,22.5*%
G01*
%ADD10C,3.000000*%
%ADD11C,0.390000*%
%ADD12C,0.414000*%
%ADD13C,0.396000*%
%ADD14C,0.416000*%
%ADD15C,0.400000*%
%ADD16R,1.978000X1.978000*%
%ADD17C,1.724000*%
%ADD18P,1.848722X8X202.500000*%
%ADD19P,1.866040X8X22.500000*%


D10*
X40000Y630000D03*
X40000Y40000D03*
X500000Y40000D03*
X500000Y630000D03*
D11*
X224650Y114100D02*
X213550Y114100D01*
X213550Y127200D01*
X224650Y127200D01*
X224650Y114100D01*
X224650Y117805D02*
X213550Y117805D01*
X213550Y121510D02*
X224650Y121510D01*
X224650Y125215D02*
X213550Y125215D01*
X232550Y114100D02*
X243650Y114100D01*
X232550Y114100D02*
X232550Y127200D01*
X243650Y127200D01*
X243650Y114100D01*
X243650Y117805D02*
X232550Y117805D01*
X232550Y121510D02*
X243650Y121510D01*
X243650Y125215D02*
X232550Y125215D01*
X116650Y355800D02*
X105550Y355800D01*
X116650Y355800D02*
X116650Y342700D01*
X105550Y342700D01*
X105550Y355800D01*
X105550Y346405D02*
X116650Y346405D01*
X116650Y350110D02*
X105550Y350110D01*
X105550Y353815D02*
X116650Y353815D01*
X97650Y355800D02*
X86550Y355800D01*
X97650Y355800D02*
X97650Y342700D01*
X86550Y342700D01*
X86550Y355800D01*
X86550Y346405D02*
X97650Y346405D01*
X97650Y350110D02*
X86550Y350110D01*
X86550Y353815D02*
X97650Y353815D01*
D12*
X184870Y134930D02*
X198730Y134930D01*
X198730Y119070D01*
X184870Y119070D01*
X184870Y134930D01*
X184870Y123003D02*
X198730Y123003D01*
X198730Y126936D02*
X184870Y126936D01*
X184870Y130869D02*
X198730Y130869D01*
X198730Y134802D02*
X184870Y134802D01*
X170730Y134930D02*
X156870Y134930D01*
X170730Y134930D02*
X170730Y119070D01*
X156870Y119070D01*
X156870Y134930D01*
X156870Y123003D02*
X170730Y123003D01*
X170730Y126936D02*
X156870Y126936D01*
X156870Y130869D02*
X170730Y130869D01*
X170730Y134802D02*
X156870Y134802D01*
D11*
X296050Y127200D02*
X307150Y127200D01*
X307150Y114100D01*
X296050Y114100D01*
X296050Y127200D01*
X296050Y117805D02*
X307150Y117805D01*
X307150Y121510D02*
X296050Y121510D01*
X296050Y125215D02*
X307150Y125215D01*
X288150Y127200D02*
X277050Y127200D01*
X288150Y127200D02*
X288150Y114100D01*
X277050Y114100D01*
X277050Y127200D01*
X277050Y117805D02*
X288150Y117805D01*
X288150Y121510D02*
X277050Y121510D01*
X277050Y125215D02*
X288150Y125215D01*
X116650Y432000D02*
X105550Y432000D01*
X116650Y432000D02*
X116650Y418900D01*
X105550Y418900D01*
X105550Y432000D01*
X105550Y422605D02*
X116650Y422605D01*
X116650Y426310D02*
X105550Y426310D01*
X105550Y430015D02*
X116650Y430015D01*
X97650Y432000D02*
X86550Y432000D01*
X97650Y432000D02*
X97650Y418900D01*
X86550Y418900D01*
X86550Y432000D01*
X86550Y422605D02*
X97650Y422605D01*
X97650Y426310D02*
X86550Y426310D01*
X86550Y430015D02*
X97650Y430015D01*
D12*
X43870Y524170D02*
X43870Y544730D01*
X57730Y544730D01*
X57730Y524170D01*
X43870Y524170D01*
X43870Y528103D02*
X57730Y528103D01*
X57730Y532036D02*
X43870Y532036D01*
X43870Y535969D02*
X57730Y535969D01*
X57730Y539902D02*
X43870Y539902D01*
X43870Y543835D02*
X57730Y543835D01*
X43870Y453730D02*
X43870Y433170D01*
X43870Y453730D02*
X57730Y453730D01*
X57730Y433170D01*
X43870Y433170D01*
X43870Y437103D02*
X57730Y437103D01*
X57730Y441036D02*
X43870Y441036D01*
X43870Y444969D02*
X57730Y444969D01*
X57730Y448902D02*
X43870Y448902D01*
X43870Y452835D02*
X57730Y452835D01*
D13*
X153780Y542630D02*
X171820Y542630D01*
X153780Y542630D02*
X153780Y549670D01*
X171820Y549670D01*
X171820Y542630D01*
X171820Y546392D02*
X153780Y546392D01*
X153780Y529930D02*
X171820Y529930D01*
X153780Y529930D02*
X153780Y536970D01*
X171820Y536970D01*
X171820Y529930D01*
X171820Y533692D02*
X153780Y533692D01*
X153780Y517230D02*
X171820Y517230D01*
X153780Y517230D02*
X153780Y524270D01*
X171820Y524270D01*
X171820Y517230D01*
X171820Y520992D02*
X153780Y520992D01*
X153780Y504530D02*
X171820Y504530D01*
X153780Y504530D02*
X153780Y511570D01*
X171820Y511570D01*
X171820Y504530D01*
X171820Y508292D02*
X153780Y508292D01*
X153780Y491830D02*
X171820Y491830D01*
X153780Y491830D02*
X153780Y498870D01*
X171820Y498870D01*
X171820Y491830D01*
X171820Y495592D02*
X153780Y495592D01*
X153780Y479130D02*
X171820Y479130D01*
X153780Y479130D02*
X153780Y486170D01*
X171820Y486170D01*
X171820Y479130D01*
X171820Y482892D02*
X153780Y482892D01*
X153780Y466430D02*
X171820Y466430D01*
X153780Y466430D02*
X153780Y473470D01*
X171820Y473470D01*
X171820Y466430D01*
X171820Y470192D02*
X153780Y470192D01*
X153780Y453730D02*
X171820Y453730D01*
X153780Y453730D02*
X153780Y460770D01*
X171820Y460770D01*
X171820Y453730D01*
X171820Y457492D02*
X153780Y457492D01*
X153780Y441030D02*
X171820Y441030D01*
X153780Y441030D02*
X153780Y448070D01*
X171820Y448070D01*
X171820Y441030D01*
X171820Y444792D02*
X153780Y444792D01*
X153780Y428330D02*
X171820Y428330D01*
X153780Y428330D02*
X153780Y435370D01*
X171820Y435370D01*
X171820Y428330D01*
X171820Y432092D02*
X153780Y432092D01*
X153780Y415630D02*
X171820Y415630D01*
X153780Y415630D02*
X153780Y422670D01*
X171820Y422670D01*
X171820Y415630D01*
X171820Y419392D02*
X153780Y419392D01*
X153780Y402930D02*
X171820Y402930D01*
X153780Y402930D02*
X153780Y409970D01*
X171820Y409970D01*
X171820Y402930D01*
X171820Y406692D02*
X153780Y406692D01*
X153780Y390230D02*
X171820Y390230D01*
X153780Y390230D02*
X153780Y397270D01*
X171820Y397270D01*
X171820Y390230D01*
X171820Y393992D02*
X153780Y393992D01*
X153780Y377530D02*
X171820Y377530D01*
X153780Y377530D02*
X153780Y384570D01*
X171820Y384570D01*
X171820Y377530D01*
X171820Y381292D02*
X153780Y381292D01*
X153780Y364830D02*
X171820Y364830D01*
X153780Y364830D02*
X153780Y371870D01*
X171820Y371870D01*
X171820Y364830D01*
X171820Y368592D02*
X153780Y368592D01*
X153780Y352130D02*
X171820Y352130D01*
X153780Y352130D02*
X153780Y359170D01*
X171820Y359170D01*
X171820Y352130D01*
X171820Y355892D02*
X153780Y355892D01*
X153780Y339430D02*
X171820Y339430D01*
X153780Y339430D02*
X153780Y346470D01*
X171820Y346470D01*
X171820Y339430D01*
X171820Y343192D02*
X153780Y343192D01*
X153780Y326730D02*
X171820Y326730D01*
X153780Y326730D02*
X153780Y333770D01*
X171820Y333770D01*
X171820Y326730D01*
X171820Y330492D02*
X153780Y330492D01*
X153780Y314030D02*
X171820Y314030D01*
X153780Y314030D02*
X153780Y321070D01*
X171820Y321070D01*
X171820Y314030D01*
X171820Y317792D02*
X153780Y317792D01*
X323780Y314030D02*
X341820Y314030D01*
X323780Y314030D02*
X323780Y321070D01*
X341820Y321070D01*
X341820Y314030D01*
X341820Y317792D02*
X323780Y317792D01*
X323780Y326730D02*
X341820Y326730D01*
X323780Y326730D02*
X323780Y333770D01*
X341820Y333770D01*
X341820Y326730D01*
X341820Y330492D02*
X323780Y330492D01*
X323780Y339430D02*
X341820Y339430D01*
X323780Y339430D02*
X323780Y346470D01*
X341820Y346470D01*
X341820Y339430D01*
X341820Y343192D02*
X323780Y343192D01*
X323780Y352130D02*
X341820Y352130D01*
X323780Y352130D02*
X323780Y359170D01*
X341820Y359170D01*
X341820Y352130D01*
X341820Y355892D02*
X323780Y355892D01*
X323780Y364830D02*
X341820Y364830D01*
X323780Y364830D02*
X323780Y371870D01*
X341820Y371870D01*
X341820Y364830D01*
X341820Y368592D02*
X323780Y368592D01*
X323780Y377530D02*
X341820Y377530D01*
X323780Y377530D02*
X323780Y384570D01*
X341820Y384570D01*
X341820Y377530D01*
X341820Y381292D02*
X323780Y381292D01*
X323780Y390230D02*
X341820Y390230D01*
X323780Y390230D02*
X323780Y397270D01*
X341820Y397270D01*
X341820Y390230D01*
X341820Y393992D02*
X323780Y393992D01*
X323780Y402930D02*
X341820Y402930D01*
X323780Y402930D02*
X323780Y409970D01*
X341820Y409970D01*
X341820Y402930D01*
X341820Y406692D02*
X323780Y406692D01*
X323780Y415630D02*
X341820Y415630D01*
X323780Y415630D02*
X323780Y422670D01*
X341820Y422670D01*
X341820Y415630D01*
X341820Y419392D02*
X323780Y419392D01*
X323780Y428330D02*
X341820Y428330D01*
X323780Y428330D02*
X323780Y435370D01*
X341820Y435370D01*
X341820Y428330D01*
X341820Y432092D02*
X323780Y432092D01*
X323780Y441030D02*
X341820Y441030D01*
X323780Y441030D02*
X323780Y448070D01*
X341820Y448070D01*
X341820Y441030D01*
X341820Y444792D02*
X323780Y444792D01*
X323780Y453730D02*
X341820Y453730D01*
X323780Y453730D02*
X323780Y460770D01*
X341820Y460770D01*
X341820Y453730D01*
X341820Y457492D02*
X323780Y457492D01*
X323780Y466430D02*
X341820Y466430D01*
X323780Y466430D02*
X323780Y473470D01*
X341820Y473470D01*
X341820Y466430D01*
X341820Y470192D02*
X323780Y470192D01*
X323780Y479130D02*
X341820Y479130D01*
X323780Y479130D02*
X323780Y486170D01*
X341820Y486170D01*
X341820Y479130D01*
X341820Y482892D02*
X323780Y482892D01*
X323780Y491830D02*
X341820Y491830D01*
X323780Y491830D02*
X323780Y498870D01*
X341820Y498870D01*
X341820Y491830D01*
X341820Y495592D02*
X323780Y495592D01*
X323780Y504530D02*
X341820Y504530D01*
X323780Y504530D02*
X323780Y511570D01*
X341820Y511570D01*
X341820Y504530D01*
X341820Y508292D02*
X323780Y508292D01*
X323780Y517230D02*
X341820Y517230D01*
X323780Y517230D02*
X323780Y524270D01*
X341820Y524270D01*
X341820Y517230D01*
X341820Y520992D02*
X323780Y520992D01*
X323780Y529930D02*
X341820Y529930D01*
X323780Y529930D02*
X323780Y536970D01*
X341820Y536970D01*
X341820Y529930D01*
X341820Y533692D02*
X323780Y533692D01*
X323780Y542630D02*
X341820Y542630D01*
X323780Y542630D02*
X323780Y549670D01*
X341820Y549670D01*
X341820Y542630D01*
X341820Y546392D02*
X323780Y546392D01*
D14*
X261720Y446030D02*
X213880Y446030D01*
X213880Y493870D01*
X261720Y493870D01*
X261720Y446030D01*
X261720Y449982D02*
X213880Y449982D01*
X213880Y453934D02*
X261720Y453934D01*
X261720Y457886D02*
X213880Y457886D01*
X213880Y461838D02*
X261720Y461838D01*
X261720Y465790D02*
X213880Y465790D01*
X213880Y469742D02*
X261720Y469742D01*
X261720Y473694D02*
X213880Y473694D01*
X213880Y477646D02*
X261720Y477646D01*
X261720Y481598D02*
X213880Y481598D01*
X213880Y485550D02*
X261720Y485550D01*
X261720Y489502D02*
X213880Y489502D01*
X213880Y493454D02*
X261720Y493454D01*
D15*
X280100Y90050D02*
X280100Y75050D01*
X280100Y90050D02*
X284100Y90050D01*
X284100Y75050D01*
X280100Y75050D01*
X280100Y78850D02*
X284100Y78850D01*
X284100Y82650D02*
X280100Y82650D01*
X280100Y86450D02*
X284100Y86450D01*
X290100Y90050D02*
X290100Y75050D01*
X290100Y90050D02*
X294100Y90050D01*
X294100Y75050D01*
X290100Y75050D01*
X290100Y78850D02*
X294100Y78850D01*
X294100Y82650D02*
X290100Y82650D01*
X290100Y86450D02*
X294100Y86450D01*
D13*
X299080Y44070D02*
X299080Y18030D01*
X299080Y44070D02*
X307120Y44070D01*
X307120Y18030D01*
X299080Y18030D01*
X299080Y21792D02*
X307120Y21792D01*
X307120Y25554D02*
X299080Y25554D01*
X299080Y29316D02*
X307120Y29316D01*
X307120Y33078D02*
X299080Y33078D01*
X299080Y36840D02*
X307120Y36840D01*
X307120Y40602D02*
X299080Y40602D01*
X267080Y44070D02*
X267080Y18030D01*
X267080Y44070D02*
X275120Y44070D01*
X275120Y18030D01*
X267080Y18030D01*
X267080Y21792D02*
X275120Y21792D01*
X275120Y25554D02*
X267080Y25554D01*
X267080Y29316D02*
X275120Y29316D01*
X275120Y33078D02*
X267080Y33078D01*
X267080Y36840D02*
X275120Y36840D01*
X275120Y40602D02*
X267080Y40602D01*
D15*
X203900Y75050D02*
X203900Y90050D01*
X207900Y90050D01*
X207900Y75050D01*
X203900Y75050D01*
X203900Y78850D02*
X207900Y78850D01*
X207900Y82650D02*
X203900Y82650D01*
X203900Y86450D02*
X207900Y86450D01*
X213900Y90050D02*
X213900Y75050D01*
X213900Y90050D02*
X217900Y90050D01*
X217900Y75050D01*
X213900Y75050D01*
X213900Y78850D02*
X217900Y78850D01*
X217900Y82650D02*
X213900Y82650D01*
X213900Y86450D02*
X217900Y86450D01*
D13*
X222880Y44070D02*
X222880Y18030D01*
X222880Y44070D02*
X230920Y44070D01*
X230920Y18030D01*
X222880Y18030D01*
X222880Y21792D02*
X230920Y21792D01*
X230920Y25554D02*
X222880Y25554D01*
X222880Y29316D02*
X230920Y29316D01*
X230920Y33078D02*
X222880Y33078D01*
X222880Y36840D02*
X230920Y36840D01*
X230920Y40602D02*
X222880Y40602D01*
X190880Y44070D02*
X190880Y18030D01*
X190880Y44070D02*
X198920Y44070D01*
X198920Y18030D01*
X190880Y18030D01*
X190880Y21792D02*
X198920Y21792D01*
X198920Y25554D02*
X190880Y25554D01*
X190880Y29316D02*
X198920Y29316D01*
X198920Y33078D02*
X190880Y33078D01*
X190880Y36840D02*
X198920Y36840D01*
X198920Y40602D02*
X190880Y40602D01*
D12*
X350190Y236545D02*
X364050Y236545D01*
X364050Y220655D01*
X350190Y220655D01*
X350190Y236545D01*
X350190Y224588D02*
X364050Y224588D01*
X364050Y228521D02*
X350190Y228521D01*
X350190Y232454D02*
X364050Y232454D01*
X364050Y236387D02*
X350190Y236387D01*
X335610Y236545D02*
X321750Y236545D01*
X335610Y236545D02*
X335610Y220655D01*
X321750Y220655D01*
X321750Y236545D01*
X321750Y224588D02*
X335610Y224588D01*
X335610Y228521D02*
X321750Y228521D01*
X321750Y232454D02*
X335610Y232454D01*
X335610Y236387D02*
X321750Y236387D01*
D16*
X396240Y264160D03*
X373380Y264160D03*
X350520Y264160D03*
D11*
X116650Y317700D02*
X105550Y317700D01*
X116650Y317700D02*
X116650Y304600D01*
X105550Y304600D01*
X105550Y317700D01*
X105550Y308305D02*
X116650Y308305D01*
X116650Y312010D02*
X105550Y312010D01*
X105550Y315715D02*
X116650Y315715D01*
X97650Y317700D02*
X86550Y317700D01*
X97650Y317700D02*
X97650Y304600D01*
X86550Y304600D01*
X86550Y317700D01*
X86550Y308305D02*
X97650Y308305D01*
X97650Y312010D02*
X86550Y312010D01*
X86550Y315715D02*
X97650Y315715D01*
X107750Y391300D02*
X107750Y402400D01*
X120850Y402400D01*
X120850Y391300D01*
X107750Y391300D01*
X107750Y395005D02*
X120850Y395005D01*
X120850Y398710D02*
X107750Y398710D01*
X107750Y383400D02*
X107750Y372300D01*
X107750Y383400D02*
X120850Y383400D01*
X120850Y372300D01*
X107750Y372300D01*
X107750Y376005D02*
X120850Y376005D01*
X120850Y379710D02*
X107750Y379710D01*
D12*
X334450Y173045D02*
X348310Y173045D01*
X348310Y157155D01*
X334450Y157155D01*
X334450Y173045D01*
X334450Y161088D02*
X348310Y161088D01*
X348310Y165021D02*
X334450Y165021D01*
X334450Y168954D02*
X348310Y168954D01*
X348310Y172887D02*
X334450Y172887D01*
X362890Y173045D02*
X376750Y173045D01*
X376750Y157155D01*
X362890Y157155D01*
X362890Y173045D01*
X362890Y161088D02*
X376750Y161088D01*
X376750Y165021D02*
X362890Y165021D01*
X362890Y168954D02*
X376750Y168954D01*
X376750Y172887D02*
X362890Y172887D01*
X407340Y220655D02*
X421200Y220655D01*
X407340Y220655D02*
X407340Y236545D01*
X421200Y236545D01*
X421200Y220655D01*
X421200Y224588D02*
X407340Y224588D01*
X407340Y228521D02*
X421200Y228521D01*
X421200Y232454D02*
X407340Y232454D01*
X407340Y236387D02*
X421200Y236387D01*
X392760Y220655D02*
X378900Y220655D01*
X378900Y236545D01*
X392760Y236545D01*
X392760Y220655D01*
X392760Y224588D02*
X378900Y224588D01*
X378900Y228521D02*
X392760Y228521D01*
X392760Y232454D02*
X378900Y232454D01*
X378900Y236387D02*
X392760Y236387D01*
X394280Y376020D02*
X394280Y396580D01*
X394280Y376020D02*
X380420Y376020D01*
X380420Y396580D01*
X394280Y396580D01*
X394280Y379953D02*
X380420Y379953D01*
X380420Y383886D02*
X394280Y383886D01*
X394280Y387819D02*
X380420Y387819D01*
X380420Y391752D02*
X394280Y391752D01*
X394280Y395685D02*
X380420Y395685D01*
X394280Y467020D02*
X394280Y487580D01*
X394280Y467020D02*
X380420Y467020D01*
X380420Y487580D01*
X394280Y487580D01*
X394280Y470953D02*
X380420Y470953D01*
X380420Y474886D02*
X394280Y474886D01*
X394280Y478819D02*
X380420Y478819D01*
X380420Y482752D02*
X394280Y482752D01*
X394280Y486685D02*
X380420Y486685D01*
D17*
X423418Y495300D02*
X440182Y495300D01*
X440182Y469900D02*
X423418Y469900D01*
X423418Y444500D02*
X440182Y444500D01*
X440182Y419100D02*
X423418Y419100D01*
X423418Y393700D02*
X440182Y393700D01*
X440182Y368300D02*
X423418Y368300D01*
D18*
X247650Y254000D03*
X247650Y228600D03*
X222250Y254000D03*
X222250Y228600D03*
X196850Y254000D03*
X196850Y228600D03*
D19*
X120650Y101600D03*
X273050Y171450D03*
X158750Y82550D03*
X215900Y171450D03*
X50800Y285750D03*
X114300Y539750D03*
D17*
X471618Y495300D02*
X488382Y495300D01*
X488382Y469900D02*
X471618Y469900D01*
X471618Y444500D02*
X488382Y444500D01*
X488382Y419100D02*
X471618Y419100D01*
X471618Y393700D02*
X488382Y393700D01*
X488382Y368300D02*
X471618Y368300D01*
M02*
