G04 EAGLE Gerber RS-274X export*
G75*
%MOMM*%
%FSLAX34Y34*%
%LPD*%
%INTop Copper*%
%IPPOS*%
%AMOC8*
5,1,8,0,0,1.08239X$1,22.5*%
G01*
%ADD10R,1.500000X1.300000*%
%ADD11R,1.600000X1.800000*%
%ADD12R,1.300000X1.500000*%
%ADD13R,1.800000X1.600000*%
%ADD14C,1.524000*%
%ADD15R,2.540000X1.015000*%
%ADD16R,1.400000X1.000000*%
%ADD17R,1.803000X1.600000*%
%ADD18C,1.508000*%
%ADD19C,4.155000*%
%ADD20R,1.800000X1.000000*%
%ADD21C,0.700000*%
%ADD22C,0.500000*%

G36*
X95277Y10172D02*
X95277Y10172D01*
X95349Y10174D01*
X95398Y10192D01*
X95449Y10200D01*
X95512Y10234D01*
X95580Y10259D01*
X95620Y10291D01*
X95666Y10316D01*
X95716Y10367D01*
X95772Y10412D01*
X95800Y10456D01*
X95836Y10494D01*
X95866Y10559D01*
X95905Y10619D01*
X95917Y10670D01*
X95939Y10717D01*
X95947Y10788D01*
X95965Y10858D01*
X95961Y10910D01*
X95967Y10961D01*
X95951Y11032D01*
X95946Y11103D01*
X95925Y11151D01*
X95914Y11202D01*
X95877Y11263D01*
X95849Y11329D01*
X95805Y11385D01*
X95788Y11413D01*
X95770Y11428D01*
X95745Y11460D01*
X63973Y43232D01*
X62304Y44900D01*
X61459Y46941D01*
X61459Y139375D01*
X61445Y139466D01*
X61437Y139556D01*
X61425Y139586D01*
X61420Y139618D01*
X61377Y139699D01*
X61341Y139783D01*
X61315Y139815D01*
X61304Y139836D01*
X61281Y139858D01*
X61236Y139914D01*
X28294Y172856D01*
X27449Y174896D01*
X27449Y339804D01*
X28294Y341844D01*
X30356Y343906D01*
X32396Y344751D01*
X36388Y344751D01*
X36408Y344754D01*
X36427Y344752D01*
X36529Y344774D01*
X36631Y344790D01*
X36648Y344800D01*
X36668Y344804D01*
X36757Y344857D01*
X36848Y344906D01*
X36862Y344920D01*
X36879Y344930D01*
X36946Y345009D01*
X37018Y345084D01*
X37026Y345102D01*
X37039Y345117D01*
X37078Y345213D01*
X37121Y345307D01*
X37123Y345327D01*
X37131Y345345D01*
X37149Y345512D01*
X37149Y348049D01*
X38351Y349251D01*
X41388Y349251D01*
X41408Y349254D01*
X41427Y349252D01*
X41529Y349274D01*
X41631Y349290D01*
X41648Y349300D01*
X41668Y349304D01*
X41757Y349357D01*
X41848Y349406D01*
X41862Y349420D01*
X41879Y349430D01*
X41946Y349509D01*
X42018Y349584D01*
X42026Y349602D01*
X42039Y349617D01*
X42078Y349713D01*
X42121Y349807D01*
X42123Y349827D01*
X42131Y349845D01*
X42149Y350012D01*
X42149Y357388D01*
X42146Y357408D01*
X42148Y357427D01*
X42126Y357529D01*
X42110Y357631D01*
X42100Y357648D01*
X42096Y357668D01*
X42043Y357757D01*
X41994Y357848D01*
X41980Y357862D01*
X41970Y357879D01*
X41891Y357946D01*
X41816Y358018D01*
X41798Y358026D01*
X41783Y358039D01*
X41687Y358078D01*
X41593Y358121D01*
X41573Y358123D01*
X41555Y358131D01*
X41388Y358149D01*
X39351Y358149D01*
X38149Y359351D01*
X38149Y374049D01*
X39351Y375251D01*
X56049Y375251D01*
X57251Y374049D01*
X57251Y359351D01*
X56049Y358149D01*
X54012Y358149D01*
X53992Y358146D01*
X53973Y358148D01*
X53871Y358126D01*
X53769Y358110D01*
X53752Y358100D01*
X53732Y358096D01*
X53643Y358043D01*
X53552Y357994D01*
X53538Y357980D01*
X53521Y357970D01*
X53454Y357891D01*
X53382Y357816D01*
X53374Y357798D01*
X53361Y357783D01*
X53322Y357687D01*
X53279Y357593D01*
X53277Y357573D01*
X53269Y357555D01*
X53251Y357388D01*
X53251Y350012D01*
X53254Y349992D01*
X53252Y349973D01*
X53274Y349871D01*
X53290Y349769D01*
X53300Y349752D01*
X53304Y349732D01*
X53357Y349643D01*
X53406Y349552D01*
X53420Y349538D01*
X53430Y349521D01*
X53509Y349454D01*
X53584Y349382D01*
X53602Y349374D01*
X53617Y349361D01*
X53713Y349322D01*
X53807Y349279D01*
X53827Y349277D01*
X53845Y349269D01*
X54012Y349251D01*
X58049Y349251D01*
X59251Y348049D01*
X59251Y330351D01*
X58049Y329149D01*
X39312Y329149D01*
X39292Y329146D01*
X39273Y329148D01*
X39171Y329126D01*
X39069Y329110D01*
X39052Y329100D01*
X39032Y329096D01*
X38943Y329043D01*
X38852Y328994D01*
X38838Y328980D01*
X38821Y328970D01*
X38754Y328891D01*
X38682Y328816D01*
X38674Y328798D01*
X38661Y328783D01*
X38622Y328687D01*
X38579Y328593D01*
X38577Y328573D01*
X38569Y328555D01*
X38551Y328388D01*
X38551Y322012D01*
X38554Y321992D01*
X38552Y321973D01*
X38574Y321871D01*
X38590Y321769D01*
X38600Y321752D01*
X38604Y321732D01*
X38657Y321643D01*
X38706Y321552D01*
X38720Y321538D01*
X38730Y321521D01*
X38809Y321454D01*
X38884Y321382D01*
X38902Y321374D01*
X38917Y321361D01*
X39013Y321322D01*
X39107Y321279D01*
X39127Y321277D01*
X39145Y321269D01*
X39312Y321251D01*
X58049Y321251D01*
X59251Y320049D01*
X59251Y302351D01*
X58049Y301149D01*
X54512Y301149D01*
X54492Y301146D01*
X54473Y301148D01*
X54371Y301126D01*
X54269Y301110D01*
X54252Y301100D01*
X54232Y301096D01*
X54143Y301043D01*
X54052Y300994D01*
X54038Y300980D01*
X54021Y300970D01*
X53954Y300891D01*
X53882Y300816D01*
X53874Y300798D01*
X53861Y300783D01*
X53822Y300687D01*
X53779Y300593D01*
X53777Y300573D01*
X53769Y300555D01*
X53751Y300388D01*
X53751Y283012D01*
X53754Y282992D01*
X53752Y282973D01*
X53774Y282871D01*
X53790Y282769D01*
X53800Y282752D01*
X53804Y282732D01*
X53857Y282643D01*
X53906Y282552D01*
X53920Y282538D01*
X53930Y282521D01*
X54009Y282454D01*
X54084Y282382D01*
X54102Y282374D01*
X54117Y282361D01*
X54213Y282322D01*
X54307Y282279D01*
X54327Y282277D01*
X54345Y282269D01*
X54512Y282251D01*
X56849Y282251D01*
X58051Y281049D01*
X58051Y266351D01*
X56849Y265149D01*
X40151Y265149D01*
X39850Y265450D01*
X39792Y265491D01*
X39740Y265541D01*
X39693Y265563D01*
X39651Y265593D01*
X39582Y265614D01*
X39517Y265644D01*
X39465Y265650D01*
X39415Y265665D01*
X39344Y265664D01*
X39273Y265672D01*
X39222Y265660D01*
X39170Y265659D01*
X39102Y265635D01*
X39032Y265619D01*
X38987Y265593D01*
X38939Y265575D01*
X38883Y265530D01*
X38821Y265493D01*
X38787Y265454D01*
X38747Y265421D01*
X38708Y265361D01*
X38661Y265306D01*
X38642Y265258D01*
X38614Y265214D01*
X38596Y265145D01*
X38569Y265078D01*
X38561Y265007D01*
X38553Y264976D01*
X38555Y264952D01*
X38551Y264911D01*
X38551Y263489D01*
X38562Y263418D01*
X38564Y263346D01*
X38582Y263297D01*
X38590Y263246D01*
X38624Y263183D01*
X38649Y263115D01*
X38681Y263075D01*
X38706Y263029D01*
X38758Y262979D01*
X38802Y262923D01*
X38846Y262895D01*
X38884Y262859D01*
X38949Y262829D01*
X39009Y262790D01*
X39060Y262778D01*
X39107Y262756D01*
X39178Y262748D01*
X39248Y262730D01*
X39300Y262734D01*
X39351Y262728D01*
X39422Y262744D01*
X39493Y262749D01*
X39541Y262770D01*
X39592Y262781D01*
X39653Y262818D01*
X39719Y262846D01*
X39775Y262890D01*
X39803Y262907D01*
X39818Y262925D01*
X39850Y262950D01*
X40151Y263251D01*
X56849Y263251D01*
X58051Y262049D01*
X58051Y247351D01*
X56849Y246149D01*
X54812Y246149D01*
X54792Y246146D01*
X54773Y246148D01*
X54671Y246126D01*
X54569Y246110D01*
X54552Y246100D01*
X54532Y246096D01*
X54443Y246043D01*
X54352Y245994D01*
X54338Y245980D01*
X54321Y245970D01*
X54254Y245891D01*
X54182Y245816D01*
X54174Y245798D01*
X54161Y245783D01*
X54122Y245687D01*
X54079Y245593D01*
X54077Y245573D01*
X54069Y245555D01*
X54051Y245388D01*
X54051Y233512D01*
X54054Y233492D01*
X54052Y233473D01*
X54074Y233371D01*
X54090Y233269D01*
X54100Y233252D01*
X54104Y233232D01*
X54157Y233143D01*
X54206Y233052D01*
X54220Y233038D01*
X54230Y233021D01*
X54309Y232954D01*
X54384Y232882D01*
X54402Y232874D01*
X54417Y232861D01*
X54513Y232822D01*
X54607Y232779D01*
X54627Y232777D01*
X54645Y232769D01*
X54812Y232751D01*
X58249Y232751D01*
X59451Y231549D01*
X59451Y216851D01*
X58249Y215649D01*
X41551Y215649D01*
X40349Y216851D01*
X40349Y231549D01*
X41551Y232751D01*
X42188Y232751D01*
X42208Y232754D01*
X42227Y232752D01*
X42329Y232774D01*
X42431Y232790D01*
X42448Y232800D01*
X42468Y232804D01*
X42557Y232857D01*
X42648Y232906D01*
X42662Y232920D01*
X42679Y232930D01*
X42746Y233009D01*
X42818Y233084D01*
X42826Y233102D01*
X42839Y233117D01*
X42878Y233213D01*
X42921Y233307D01*
X42923Y233327D01*
X42931Y233345D01*
X42949Y233512D01*
X42949Y245388D01*
X42946Y245407D01*
X42948Y245426D01*
X42948Y245427D01*
X42926Y245529D01*
X42910Y245631D01*
X42900Y245648D01*
X42896Y245668D01*
X42843Y245757D01*
X42794Y245848D01*
X42780Y245862D01*
X42770Y245879D01*
X42691Y245946D01*
X42616Y246018D01*
X42598Y246026D01*
X42583Y246039D01*
X42487Y246078D01*
X42393Y246121D01*
X42373Y246123D01*
X42355Y246131D01*
X42188Y246149D01*
X40151Y246149D01*
X39850Y246450D01*
X39792Y246491D01*
X39740Y246541D01*
X39693Y246563D01*
X39651Y246593D01*
X39582Y246614D01*
X39517Y246644D01*
X39465Y246650D01*
X39415Y246665D01*
X39344Y246664D01*
X39273Y246672D01*
X39222Y246660D01*
X39170Y246659D01*
X39102Y246635D01*
X39032Y246619D01*
X38987Y246593D01*
X38939Y246575D01*
X38883Y246530D01*
X38821Y246493D01*
X38787Y246454D01*
X38747Y246421D01*
X38708Y246361D01*
X38661Y246306D01*
X38642Y246258D01*
X38614Y246214D01*
X38596Y246145D01*
X38569Y246078D01*
X38561Y246007D01*
X38553Y245976D01*
X38555Y245952D01*
X38551Y245911D01*
X38551Y178615D01*
X38565Y178524D01*
X38573Y178434D01*
X38585Y178404D01*
X38590Y178372D01*
X38633Y178291D01*
X38669Y178207D01*
X38695Y178175D01*
X38706Y178154D01*
X38729Y178132D01*
X38774Y178076D01*
X71716Y145134D01*
X72561Y143094D01*
X72561Y138218D01*
X72563Y138206D01*
X72561Y138194D01*
X72582Y138085D01*
X72600Y137975D01*
X72606Y137964D01*
X72608Y137953D01*
X72664Y137856D01*
X72716Y137758D01*
X72724Y137749D01*
X72730Y137739D01*
X72813Y137665D01*
X72894Y137588D01*
X72905Y137583D01*
X72914Y137575D01*
X73016Y137531D01*
X73117Y137485D01*
X73129Y137483D01*
X73140Y137478D01*
X73251Y137470D01*
X73361Y137457D01*
X73373Y137460D01*
X73385Y137459D01*
X73493Y137486D01*
X73602Y137510D01*
X73612Y137516D01*
X73624Y137519D01*
X73769Y137602D01*
X74855Y138390D01*
X76280Y139116D01*
X77801Y139611D01*
X79380Y139861D01*
X86277Y139861D01*
X86277Y130462D01*
X86280Y130442D01*
X86278Y130423D01*
X86300Y130321D01*
X86317Y130219D01*
X86326Y130202D01*
X86330Y130182D01*
X86383Y130093D01*
X86432Y130002D01*
X86446Y129988D01*
X86456Y129971D01*
X86535Y129904D01*
X86610Y129833D01*
X86628Y129824D01*
X86643Y129811D01*
X86739Y129773D01*
X86833Y129729D01*
X86853Y129727D01*
X86871Y129719D01*
X87038Y129701D01*
X87801Y129701D01*
X87801Y129699D01*
X87038Y129699D01*
X87018Y129696D01*
X86999Y129698D01*
X86897Y129676D01*
X86795Y129659D01*
X86778Y129650D01*
X86758Y129646D01*
X86669Y129593D01*
X86578Y129544D01*
X86564Y129530D01*
X86547Y129520D01*
X86480Y129441D01*
X86409Y129366D01*
X86400Y129348D01*
X86387Y129333D01*
X86348Y129237D01*
X86305Y129143D01*
X86303Y129123D01*
X86295Y129105D01*
X86277Y128938D01*
X86277Y119539D01*
X79380Y119539D01*
X77801Y119789D01*
X76280Y120284D01*
X74855Y121010D01*
X73769Y121798D01*
X73759Y121804D01*
X73750Y121812D01*
X73649Y121859D01*
X73550Y121909D01*
X73538Y121910D01*
X73527Y121915D01*
X73416Y121928D01*
X73306Y121943D01*
X73294Y121941D01*
X73283Y121943D01*
X73174Y121919D01*
X73064Y121899D01*
X73054Y121893D01*
X73042Y121890D01*
X72946Y121833D01*
X72849Y121779D01*
X72841Y121770D01*
X72831Y121764D01*
X72759Y121679D01*
X72684Y121597D01*
X72679Y121586D01*
X72671Y121577D01*
X72629Y121474D01*
X72585Y121372D01*
X72584Y121360D01*
X72579Y121349D01*
X72561Y121182D01*
X72561Y112195D01*
X72572Y112124D01*
X72574Y112053D01*
X72592Y112004D01*
X72600Y111952D01*
X72634Y111889D01*
X72659Y111822D01*
X72691Y111781D01*
X72716Y111735D01*
X72768Y111686D01*
X72812Y111630D01*
X72856Y111601D01*
X72894Y111566D01*
X72959Y111535D01*
X73019Y111497D01*
X73070Y111484D01*
X73117Y111462D01*
X73188Y111454D01*
X73258Y111436D01*
X73310Y111441D01*
X73361Y111435D01*
X73432Y111450D01*
X73503Y111456D01*
X73551Y111476D01*
X73602Y111487D01*
X73663Y111524D01*
X73729Y111552D01*
X73785Y111597D01*
X73813Y111613D01*
X73828Y111631D01*
X73860Y111657D01*
X74702Y112498D01*
X78256Y113971D01*
X97344Y113971D01*
X100898Y112498D01*
X103323Y110074D01*
X103397Y110021D01*
X103466Y109961D01*
X103496Y109949D01*
X103523Y109930D01*
X103609Y109903D01*
X103694Y109869D01*
X103735Y109865D01*
X103758Y109858D01*
X103790Y109859D01*
X103861Y109851D01*
X113388Y109851D01*
X113408Y109854D01*
X113427Y109852D01*
X113529Y109874D01*
X113631Y109890D01*
X113648Y109900D01*
X113668Y109904D01*
X113757Y109957D01*
X113848Y110006D01*
X113862Y110020D01*
X113879Y110030D01*
X113946Y110109D01*
X114018Y110184D01*
X114026Y110202D01*
X114039Y110217D01*
X114078Y110313D01*
X114121Y110407D01*
X114123Y110427D01*
X114131Y110445D01*
X114149Y110612D01*
X114149Y111049D01*
X115351Y112251D01*
X132049Y112251D01*
X133251Y111049D01*
X133251Y96351D01*
X132049Y95149D01*
X115351Y95149D01*
X114149Y96351D01*
X114149Y97988D01*
X114146Y98008D01*
X114148Y98027D01*
X114126Y98129D01*
X114110Y98231D01*
X114100Y98248D01*
X114096Y98268D01*
X114043Y98357D01*
X113994Y98448D01*
X113980Y98462D01*
X113970Y98479D01*
X113891Y98546D01*
X113816Y98618D01*
X113798Y98626D01*
X113783Y98639D01*
X113687Y98678D01*
X113593Y98721D01*
X113573Y98723D01*
X113555Y98731D01*
X113388Y98749D01*
X103861Y98749D01*
X103771Y98735D01*
X103680Y98727D01*
X103650Y98715D01*
X103618Y98710D01*
X103538Y98667D01*
X103454Y98631D01*
X103422Y98605D01*
X103401Y98594D01*
X103379Y98571D01*
X103323Y98526D01*
X100898Y96102D01*
X97344Y94629D01*
X78256Y94629D01*
X74702Y96102D01*
X73860Y96943D01*
X73802Y96985D01*
X73750Y97034D01*
X73703Y97056D01*
X73661Y97087D01*
X73592Y97108D01*
X73527Y97138D01*
X73475Y97144D01*
X73425Y97159D01*
X73354Y97157D01*
X73283Y97165D01*
X73232Y97154D01*
X73180Y97153D01*
X73112Y97128D01*
X73042Y97113D01*
X72997Y97086D01*
X72949Y97068D01*
X72893Y97023D01*
X72831Y96987D01*
X72797Y96947D01*
X72757Y96915D01*
X72718Y96854D01*
X72671Y96800D01*
X72652Y96752D01*
X72624Y96708D01*
X72606Y96638D01*
X72579Y96572D01*
X72571Y96500D01*
X72563Y96469D01*
X72565Y96446D01*
X72561Y96405D01*
X72561Y86795D01*
X72572Y86724D01*
X72574Y86653D01*
X72592Y86604D01*
X72600Y86552D01*
X72634Y86489D01*
X72659Y86422D01*
X72691Y86381D01*
X72716Y86335D01*
X72768Y86286D01*
X72812Y86230D01*
X72856Y86201D01*
X72894Y86166D01*
X72959Y86135D01*
X73019Y86097D01*
X73070Y86084D01*
X73117Y86062D01*
X73188Y86054D01*
X73258Y86036D01*
X73310Y86041D01*
X73361Y86035D01*
X73432Y86050D01*
X73503Y86056D01*
X73551Y86076D01*
X73602Y86087D01*
X73663Y86124D01*
X73729Y86152D01*
X73785Y86197D01*
X73813Y86213D01*
X73828Y86231D01*
X73860Y86257D01*
X74702Y87098D01*
X78256Y88571D01*
X97344Y88571D01*
X100898Y87098D01*
X103618Y84378D01*
X105091Y80824D01*
X105091Y76976D01*
X103618Y73422D01*
X100898Y70702D01*
X97344Y69229D01*
X78256Y69229D01*
X74702Y70702D01*
X73860Y71543D01*
X73802Y71585D01*
X73750Y71634D01*
X73703Y71656D01*
X73661Y71687D01*
X73592Y71708D01*
X73527Y71738D01*
X73475Y71744D01*
X73425Y71759D01*
X73354Y71757D01*
X73283Y71765D01*
X73232Y71754D01*
X73180Y71753D01*
X73112Y71728D01*
X73042Y71713D01*
X72997Y71686D01*
X72949Y71668D01*
X72893Y71623D01*
X72831Y71587D01*
X72797Y71547D01*
X72757Y71515D01*
X72718Y71454D01*
X72671Y71400D01*
X72652Y71352D01*
X72624Y71308D01*
X72606Y71238D01*
X72579Y71172D01*
X72571Y71100D01*
X72563Y71069D01*
X72565Y71046D01*
X72561Y71005D01*
X72561Y61395D01*
X72572Y61324D01*
X72574Y61253D01*
X72592Y61204D01*
X72600Y61152D01*
X72634Y61089D01*
X72659Y61022D01*
X72691Y60981D01*
X72716Y60935D01*
X72768Y60886D01*
X72812Y60830D01*
X72856Y60801D01*
X72894Y60766D01*
X72959Y60735D01*
X73019Y60697D01*
X73070Y60684D01*
X73117Y60662D01*
X73188Y60654D01*
X73258Y60636D01*
X73310Y60641D01*
X73361Y60635D01*
X73432Y60650D01*
X73503Y60656D01*
X73551Y60676D01*
X73602Y60687D01*
X73663Y60724D01*
X73729Y60752D01*
X73785Y60797D01*
X73813Y60813D01*
X73828Y60831D01*
X73860Y60857D01*
X74702Y61698D01*
X78256Y63171D01*
X97344Y63171D01*
X100898Y61698D01*
X103618Y58978D01*
X105091Y55424D01*
X105091Y51576D01*
X103618Y48022D01*
X100898Y45302D01*
X97344Y43829D01*
X80913Y43829D01*
X80842Y43818D01*
X80771Y43816D01*
X80722Y43798D01*
X80670Y43790D01*
X80607Y43756D01*
X80540Y43731D01*
X80499Y43699D01*
X80453Y43674D01*
X80404Y43622D01*
X80348Y43578D01*
X80320Y43534D01*
X80284Y43496D01*
X80254Y43431D01*
X80215Y43371D01*
X80202Y43320D01*
X80180Y43273D01*
X80172Y43202D01*
X80155Y43132D01*
X80159Y43080D01*
X80153Y43029D01*
X80168Y42958D01*
X80174Y42887D01*
X80194Y42839D01*
X80205Y42788D01*
X80242Y42727D01*
X80270Y42661D01*
X80315Y42605D01*
X80331Y42577D01*
X80349Y42562D01*
X80375Y42530D01*
X101131Y21774D01*
X101205Y21721D01*
X101274Y21661D01*
X101305Y21649D01*
X101331Y21630D01*
X101418Y21603D01*
X101503Y21569D01*
X101543Y21565D01*
X101566Y21558D01*
X101598Y21559D01*
X101669Y21551D01*
X250018Y21551D01*
X250088Y21562D01*
X250160Y21564D01*
X250209Y21582D01*
X250260Y21590D01*
X250324Y21624D01*
X250391Y21649D01*
X250432Y21681D01*
X250478Y21706D01*
X250527Y21758D01*
X250583Y21802D01*
X250611Y21846D01*
X250647Y21884D01*
X250677Y21949D01*
X250716Y22009D01*
X250729Y22060D01*
X250751Y22107D01*
X250759Y22178D01*
X250776Y22248D01*
X250772Y22300D01*
X250778Y22351D01*
X250763Y22422D01*
X250757Y22493D01*
X250737Y22541D01*
X250726Y22592D01*
X250689Y22653D01*
X250661Y22719D01*
X250616Y22775D01*
X250599Y22803D01*
X250582Y22818D01*
X250556Y22850D01*
X250443Y22963D01*
X230354Y43052D01*
X229509Y45092D01*
X229509Y51905D01*
X229495Y51996D01*
X229487Y52086D01*
X229475Y52116D01*
X229470Y52148D01*
X229427Y52229D01*
X229391Y52313D01*
X229365Y52345D01*
X229354Y52366D01*
X229331Y52388D01*
X229286Y52444D01*
X200024Y81706D01*
X199950Y81759D01*
X199880Y81819D01*
X199850Y81831D01*
X199824Y81850D01*
X199737Y81877D01*
X199652Y81911D01*
X199611Y81915D01*
X199589Y81922D01*
X199557Y81921D01*
X199485Y81929D01*
X187736Y81929D01*
X186534Y83131D01*
X186534Y100829D01*
X187736Y102031D01*
X206302Y102031D01*
X206372Y102042D01*
X206444Y102044D01*
X206493Y102062D01*
X206544Y102070D01*
X206608Y102104D01*
X206675Y102129D01*
X206716Y102161D01*
X206762Y102186D01*
X206811Y102238D01*
X206867Y102282D01*
X206895Y102326D01*
X206931Y102364D01*
X206961Y102429D01*
X207000Y102489D01*
X207013Y102540D01*
X207035Y102587D01*
X207043Y102658D01*
X207060Y102728D01*
X207056Y102780D01*
X207062Y102831D01*
X207047Y102902D01*
X207041Y102973D01*
X207021Y103021D01*
X207010Y103072D01*
X206973Y103133D01*
X206945Y103199D01*
X206900Y103255D01*
X206883Y103283D01*
X206866Y103298D01*
X206840Y103330D01*
X200024Y110146D01*
X199950Y110199D01*
X199880Y110259D01*
X199850Y110271D01*
X199824Y110290D01*
X199737Y110317D01*
X199652Y110351D01*
X199611Y110355D01*
X199589Y110362D01*
X199557Y110361D01*
X199485Y110369D01*
X187736Y110369D01*
X186534Y111571D01*
X186534Y115388D01*
X186531Y115408D01*
X186533Y115427D01*
X186511Y115529D01*
X186495Y115631D01*
X186485Y115648D01*
X186481Y115668D01*
X186428Y115757D01*
X186379Y115848D01*
X186365Y115862D01*
X186355Y115879D01*
X186276Y115946D01*
X186201Y116018D01*
X186183Y116026D01*
X186168Y116039D01*
X186072Y116078D01*
X185978Y116121D01*
X185958Y116123D01*
X185940Y116131D01*
X185773Y116149D01*
X180212Y116149D01*
X180192Y116146D01*
X180173Y116148D01*
X180071Y116126D01*
X179969Y116110D01*
X179952Y116100D01*
X179932Y116096D01*
X179843Y116043D01*
X179752Y115994D01*
X179738Y115980D01*
X179721Y115970D01*
X179654Y115891D01*
X179582Y115816D01*
X179574Y115798D01*
X179561Y115783D01*
X179522Y115687D01*
X179479Y115593D01*
X179477Y115573D01*
X179469Y115555D01*
X179451Y115388D01*
X179451Y113351D01*
X178249Y112149D01*
X163551Y112149D01*
X162349Y113351D01*
X162349Y130049D01*
X163551Y131251D01*
X178249Y131251D01*
X179451Y130049D01*
X179451Y128012D01*
X179454Y127992D01*
X179452Y127973D01*
X179474Y127871D01*
X179490Y127769D01*
X179500Y127752D01*
X179504Y127732D01*
X179557Y127643D01*
X179606Y127552D01*
X179620Y127538D01*
X179630Y127521D01*
X179709Y127454D01*
X179784Y127382D01*
X179802Y127374D01*
X179817Y127361D01*
X179913Y127322D01*
X180007Y127279D01*
X180027Y127277D01*
X180045Y127269D01*
X180212Y127251D01*
X185773Y127251D01*
X185793Y127254D01*
X185812Y127252D01*
X185914Y127274D01*
X186016Y127290D01*
X186033Y127300D01*
X186053Y127304D01*
X186142Y127357D01*
X186233Y127406D01*
X186247Y127420D01*
X186264Y127430D01*
X186331Y127509D01*
X186403Y127584D01*
X186411Y127602D01*
X186424Y127617D01*
X186463Y127713D01*
X186506Y127807D01*
X186508Y127827D01*
X186516Y127845D01*
X186534Y128012D01*
X186534Y129269D01*
X187736Y130471D01*
X207464Y130471D01*
X208666Y129269D01*
X208666Y117520D01*
X208680Y117429D01*
X208688Y117339D01*
X208700Y117309D01*
X208705Y117277D01*
X208748Y117196D01*
X208784Y117112D01*
X208810Y117080D01*
X208821Y117059D01*
X208844Y117037D01*
X208864Y117012D01*
X208868Y117006D01*
X208871Y117003D01*
X208889Y116981D01*
X246310Y79560D01*
X246368Y79518D01*
X246420Y79469D01*
X246467Y79447D01*
X246509Y79417D01*
X246578Y79396D01*
X246643Y79365D01*
X246695Y79360D01*
X246745Y79344D01*
X246816Y79346D01*
X246887Y79338D01*
X246938Y79349D01*
X246990Y79351D01*
X247058Y79375D01*
X247128Y79390D01*
X247173Y79417D01*
X247221Y79435D01*
X247277Y79480D01*
X247339Y79517D01*
X247373Y79556D01*
X247413Y79589D01*
X247452Y79649D01*
X247499Y79704D01*
X247518Y79752D01*
X247546Y79796D01*
X247564Y79865D01*
X247591Y79932D01*
X247599Y80003D01*
X247607Y80034D01*
X247605Y80058D01*
X247609Y80098D01*
X247609Y82724D01*
X249082Y86278D01*
X251802Y88998D01*
X255356Y90471D01*
X274444Y90471D01*
X277998Y88998D01*
X280718Y86278D01*
X282191Y82724D01*
X282191Y78876D01*
X280718Y75322D01*
X277998Y72602D01*
X274444Y71129D01*
X255356Y71129D01*
X251802Y72602D01*
X250960Y73443D01*
X250902Y73485D01*
X250850Y73534D01*
X250803Y73556D01*
X250761Y73587D01*
X250692Y73608D01*
X250627Y73638D01*
X250575Y73644D01*
X250525Y73659D01*
X250454Y73657D01*
X250383Y73665D01*
X250332Y73654D01*
X250280Y73653D01*
X250212Y73628D01*
X250142Y73613D01*
X250097Y73586D01*
X250049Y73568D01*
X249993Y73523D01*
X249931Y73487D01*
X249897Y73447D01*
X249857Y73415D01*
X249818Y73354D01*
X249771Y73300D01*
X249752Y73252D01*
X249724Y73208D01*
X249706Y73138D01*
X249679Y73072D01*
X249671Y73000D01*
X249663Y72969D01*
X249665Y72946D01*
X249661Y72905D01*
X249661Y63295D01*
X249672Y63224D01*
X249674Y63153D01*
X249692Y63104D01*
X249700Y63052D01*
X249734Y62989D01*
X249759Y62922D01*
X249791Y62881D01*
X249816Y62835D01*
X249868Y62786D01*
X249912Y62730D01*
X249956Y62701D01*
X249994Y62666D01*
X250059Y62635D01*
X250119Y62597D01*
X250170Y62584D01*
X250217Y62562D01*
X250288Y62554D01*
X250358Y62536D01*
X250410Y62541D01*
X250461Y62535D01*
X250532Y62550D01*
X250603Y62556D01*
X250651Y62576D01*
X250702Y62587D01*
X250763Y62624D01*
X250829Y62652D01*
X250885Y62697D01*
X250913Y62713D01*
X250928Y62731D01*
X250960Y62757D01*
X251802Y63598D01*
X255356Y65071D01*
X274444Y65071D01*
X277998Y63598D01*
X280718Y60878D01*
X282191Y57324D01*
X282191Y53476D01*
X280718Y49922D01*
X277998Y47202D01*
X274444Y45729D01*
X258013Y45729D01*
X257942Y45718D01*
X257871Y45716D01*
X257822Y45698D01*
X257770Y45690D01*
X257707Y45656D01*
X257640Y45631D01*
X257599Y45599D01*
X257553Y45574D01*
X257504Y45522D01*
X257448Y45478D01*
X257420Y45434D01*
X257384Y45396D01*
X257354Y45331D01*
X257315Y45271D01*
X257302Y45220D01*
X257280Y45173D01*
X257272Y45102D01*
X257255Y45032D01*
X257259Y44980D01*
X257253Y44929D01*
X257268Y44858D01*
X257274Y44787D01*
X257294Y44739D01*
X257305Y44688D01*
X257342Y44627D01*
X257370Y44561D01*
X257415Y44505D01*
X257431Y44477D01*
X257449Y44462D01*
X257475Y44430D01*
X260131Y41774D01*
X260205Y41721D01*
X260274Y41661D01*
X260304Y41649D01*
X260331Y41630D01*
X260418Y41603D01*
X260503Y41569D01*
X260543Y41565D01*
X260566Y41558D01*
X260598Y41559D01*
X260669Y41551D01*
X350385Y41551D01*
X350476Y41565D01*
X350566Y41573D01*
X350596Y41585D01*
X350628Y41590D01*
X350709Y41633D01*
X350793Y41669D01*
X350825Y41695D01*
X350846Y41706D01*
X350868Y41729D01*
X350924Y41774D01*
X363033Y53883D01*
X363061Y53922D01*
X363096Y53955D01*
X363132Y54021D01*
X363177Y54083D01*
X363191Y54129D01*
X363214Y54171D01*
X363227Y54245D01*
X363249Y54318D01*
X363248Y54366D01*
X363256Y54413D01*
X363245Y54488D01*
X363243Y54564D01*
X363226Y54609D01*
X363219Y54656D01*
X363184Y54724D01*
X363158Y54795D01*
X363128Y54832D01*
X363106Y54875D01*
X363052Y54928D01*
X363004Y54987D01*
X362964Y55013D01*
X362930Y55046D01*
X362861Y55079D01*
X362798Y55120D01*
X362751Y55132D01*
X362708Y55152D01*
X362633Y55161D01*
X362559Y55180D01*
X362511Y55176D01*
X362464Y55182D01*
X362336Y55162D01*
X362314Y55161D01*
X362308Y55158D01*
X362298Y55157D01*
X361934Y55059D01*
X356123Y55059D01*
X356123Y61077D01*
X364141Y61077D01*
X364141Y57266D01*
X364043Y56902D01*
X364039Y56854D01*
X364024Y56809D01*
X364026Y56733D01*
X364019Y56657D01*
X364030Y56611D01*
X364031Y56563D01*
X364057Y56492D01*
X364074Y56418D01*
X364099Y56377D01*
X364115Y56332D01*
X364163Y56273D01*
X364202Y56208D01*
X364239Y56177D01*
X364269Y56140D01*
X364333Y56099D01*
X364391Y56050D01*
X364436Y56033D01*
X364476Y56007D01*
X364549Y55988D01*
X364620Y55961D01*
X364668Y55958D01*
X364714Y55947D01*
X364790Y55953D01*
X364866Y55949D01*
X364912Y55962D01*
X364960Y55966D01*
X365029Y55995D01*
X365102Y56016D01*
X365142Y56043D01*
X365186Y56062D01*
X365287Y56143D01*
X365305Y56155D01*
X365309Y56161D01*
X365317Y56167D01*
X372826Y63676D01*
X372869Y63736D01*
X372912Y63781D01*
X372920Y63798D01*
X372939Y63820D01*
X372951Y63850D01*
X372970Y63876D01*
X372996Y63962D01*
X373016Y64004D01*
X373017Y64014D01*
X373031Y64048D01*
X373035Y64089D01*
X373042Y64111D01*
X373041Y64143D01*
X373049Y64215D01*
X373049Y64288D01*
X373046Y64308D01*
X373048Y64327D01*
X373026Y64429D01*
X373010Y64531D01*
X373000Y64548D01*
X372996Y64568D01*
X372943Y64657D01*
X372894Y64748D01*
X372880Y64762D01*
X372870Y64779D01*
X372791Y64846D01*
X372716Y64918D01*
X372698Y64926D01*
X372683Y64939D01*
X372587Y64978D01*
X372493Y65021D01*
X372473Y65023D01*
X372455Y65031D01*
X372288Y65049D01*
X370751Y65049D01*
X369549Y66251D01*
X369549Y77949D01*
X370751Y79151D01*
X384838Y79151D01*
X384858Y79154D01*
X384877Y79152D01*
X384979Y79174D01*
X385081Y79190D01*
X385098Y79200D01*
X385118Y79204D01*
X385207Y79257D01*
X385298Y79306D01*
X385312Y79320D01*
X385329Y79330D01*
X385396Y79409D01*
X385468Y79484D01*
X385476Y79502D01*
X385489Y79517D01*
X385528Y79613D01*
X385571Y79707D01*
X385573Y79727D01*
X385581Y79745D01*
X385599Y79912D01*
X385599Y94388D01*
X385596Y94408D01*
X385598Y94427D01*
X385576Y94529D01*
X385560Y94631D01*
X385550Y94648D01*
X385546Y94668D01*
X385493Y94757D01*
X385444Y94848D01*
X385430Y94862D01*
X385420Y94879D01*
X385341Y94946D01*
X385266Y95018D01*
X385248Y95026D01*
X385233Y95039D01*
X385137Y95078D01*
X385043Y95121D01*
X385023Y95123D01*
X385005Y95131D01*
X384838Y95149D01*
X376397Y95149D01*
X376282Y95130D01*
X376166Y95113D01*
X376160Y95111D01*
X376154Y95110D01*
X376051Y95055D01*
X375947Y95002D01*
X375942Y94997D01*
X375937Y94994D01*
X375857Y94910D01*
X375774Y94826D01*
X375771Y94820D01*
X375767Y94816D01*
X375759Y94799D01*
X375693Y94679D01*
X374856Y92657D01*
X373187Y90988D01*
X370812Y88613D01*
X369143Y86944D01*
X366980Y86048D01*
X366925Y86014D01*
X366864Y85988D01*
X366799Y85936D01*
X366771Y85919D01*
X366759Y85904D01*
X366733Y85883D01*
X363874Y83024D01*
X363821Y82950D01*
X363802Y82928D01*
X363782Y82908D01*
X363780Y82903D01*
X363761Y82880D01*
X363749Y82850D01*
X363730Y82824D01*
X363704Y82738D01*
X363679Y82684D01*
X363678Y82673D01*
X363669Y82652D01*
X363665Y82611D01*
X363658Y82589D01*
X363659Y82557D01*
X363651Y82485D01*
X363651Y75751D01*
X362449Y74549D01*
X355715Y74549D01*
X355624Y74535D01*
X355534Y74527D01*
X355504Y74515D01*
X355472Y74510D01*
X355391Y74467D01*
X355307Y74431D01*
X355275Y74405D01*
X355254Y74394D01*
X355232Y74371D01*
X355176Y74326D01*
X352844Y71994D01*
X351905Y71605D01*
X351822Y71554D01*
X351736Y71508D01*
X351718Y71490D01*
X351696Y71476D01*
X351634Y71400D01*
X351567Y71330D01*
X351556Y71306D01*
X351539Y71286D01*
X351504Y71195D01*
X351463Y71107D01*
X351460Y71081D01*
X351451Y71057D01*
X351447Y70959D01*
X351436Y70863D01*
X351442Y70837D01*
X351441Y70811D01*
X351468Y70717D01*
X351488Y70622D01*
X351502Y70600D01*
X351509Y70575D01*
X351565Y70495D01*
X351615Y70411D01*
X351634Y70394D01*
X351649Y70373D01*
X351727Y70314D01*
X351801Y70251D01*
X351826Y70241D01*
X351847Y70226D01*
X351939Y70196D01*
X352030Y70159D01*
X352062Y70156D01*
X352081Y70150D01*
X352114Y70150D01*
X352196Y70141D01*
X353077Y70141D01*
X353077Y64123D01*
X345059Y64123D01*
X345059Y67934D01*
X345232Y68581D01*
X345567Y69160D01*
X346040Y69633D01*
X346206Y69729D01*
X346243Y69759D01*
X346285Y69782D01*
X346337Y69836D01*
X346396Y69884D01*
X346421Y69925D01*
X346455Y69960D01*
X346486Y70029D01*
X346527Y70093D01*
X346538Y70140D01*
X346558Y70183D01*
X346567Y70258D01*
X346584Y70332D01*
X346580Y70380D01*
X346585Y70427D01*
X346569Y70501D01*
X346563Y70577D01*
X346543Y70621D01*
X346533Y70668D01*
X346494Y70733D01*
X346464Y70802D01*
X346431Y70838D01*
X346407Y70879D01*
X346349Y70928D01*
X346298Y70984D01*
X346256Y71008D01*
X346220Y71039D01*
X346150Y71067D01*
X346084Y71104D01*
X346036Y71113D01*
X345992Y71131D01*
X345864Y71145D01*
X345842Y71149D01*
X345835Y71148D01*
X345825Y71149D01*
X332712Y71149D01*
X332692Y71146D01*
X332673Y71148D01*
X332571Y71126D01*
X332469Y71110D01*
X332452Y71100D01*
X332432Y71096D01*
X332343Y71043D01*
X332252Y70994D01*
X332238Y70980D01*
X332221Y70970D01*
X332154Y70891D01*
X332082Y70816D01*
X332074Y70798D01*
X332061Y70783D01*
X332022Y70687D01*
X331979Y70593D01*
X331977Y70573D01*
X331969Y70555D01*
X331951Y70388D01*
X331951Y68351D01*
X330749Y67149D01*
X316051Y67149D01*
X314847Y68353D01*
X314845Y68364D01*
X314848Y68388D01*
X314826Y68485D01*
X314810Y68583D01*
X314798Y68604D01*
X314793Y68628D01*
X314741Y68713D01*
X314694Y68800D01*
X314677Y68817D01*
X314664Y68837D01*
X314588Y68901D01*
X314516Y68970D01*
X314494Y68980D01*
X314476Y68995D01*
X314383Y69031D01*
X314293Y69073D01*
X314269Y69076D01*
X314247Y69085D01*
X314147Y69089D01*
X314049Y69100D01*
X314025Y69095D01*
X314001Y69096D01*
X313905Y69069D01*
X313808Y69048D01*
X313787Y69036D01*
X313764Y69029D01*
X313682Y68973D01*
X313597Y68922D01*
X313581Y68904D01*
X313562Y68890D01*
X313502Y68811D01*
X313437Y68735D01*
X313428Y68712D01*
X313414Y68693D01*
X313353Y68537D01*
X313268Y68219D01*
X312933Y67640D01*
X312460Y67167D01*
X311881Y66832D01*
X311234Y66659D01*
X305923Y66659D01*
X305923Y75938D01*
X305920Y75958D01*
X305922Y75977D01*
X305900Y76079D01*
X305883Y76181D01*
X305874Y76198D01*
X305870Y76218D01*
X305817Y76307D01*
X305768Y76398D01*
X305754Y76412D01*
X305744Y76429D01*
X305665Y76496D01*
X305590Y76567D01*
X305572Y76576D01*
X305557Y76589D01*
X305461Y76628D01*
X305367Y76671D01*
X305347Y76673D01*
X305329Y76681D01*
X305162Y76699D01*
X304399Y76699D01*
X304399Y76701D01*
X305162Y76701D01*
X305182Y76704D01*
X305201Y76702D01*
X305303Y76724D01*
X305405Y76741D01*
X305422Y76750D01*
X305442Y76754D01*
X305531Y76807D01*
X305622Y76856D01*
X305636Y76870D01*
X305653Y76880D01*
X305720Y76959D01*
X305791Y77034D01*
X305800Y77052D01*
X305813Y77067D01*
X305852Y77163D01*
X305895Y77257D01*
X305897Y77277D01*
X305905Y77295D01*
X305923Y77462D01*
X305923Y86741D01*
X311234Y86741D01*
X311881Y86568D01*
X312460Y86233D01*
X312933Y85760D01*
X313268Y85181D01*
X313353Y84863D01*
X313363Y84841D01*
X313367Y84817D01*
X313413Y84730D01*
X313454Y84639D01*
X313470Y84621D01*
X313482Y84600D01*
X313553Y84532D01*
X313621Y84459D01*
X313642Y84447D01*
X313660Y84430D01*
X313750Y84389D01*
X313837Y84341D01*
X313861Y84337D01*
X313883Y84327D01*
X313982Y84316D01*
X314080Y84299D01*
X314104Y84302D01*
X314127Y84300D01*
X314224Y84321D01*
X314323Y84336D01*
X314344Y84347D01*
X314368Y84352D01*
X314453Y84403D01*
X314542Y84449D01*
X314558Y84466D01*
X314579Y84478D01*
X314644Y84554D01*
X314713Y84625D01*
X314723Y84647D01*
X314739Y84665D01*
X314776Y84757D01*
X314819Y84847D01*
X314822Y84871D01*
X314831Y84893D01*
X314848Y85048D01*
X316051Y86251D01*
X330749Y86251D01*
X331951Y85049D01*
X331951Y83012D01*
X331954Y82992D01*
X331952Y82973D01*
X331974Y82871D01*
X331990Y82769D01*
X332000Y82752D01*
X332004Y82732D01*
X332057Y82643D01*
X332106Y82552D01*
X332120Y82538D01*
X332130Y82521D01*
X332209Y82454D01*
X332284Y82382D01*
X332302Y82374D01*
X332317Y82361D01*
X332413Y82322D01*
X332507Y82279D01*
X332527Y82277D01*
X332545Y82269D01*
X332712Y82251D01*
X344788Y82251D01*
X344808Y82254D01*
X344827Y82252D01*
X344929Y82274D01*
X345031Y82290D01*
X345048Y82300D01*
X345068Y82304D01*
X345157Y82357D01*
X345248Y82406D01*
X345262Y82420D01*
X345279Y82430D01*
X345346Y82509D01*
X345418Y82584D01*
X345426Y82602D01*
X345439Y82617D01*
X345478Y82713D01*
X345521Y82807D01*
X345523Y82827D01*
X345531Y82845D01*
X345549Y83012D01*
X345549Y87449D01*
X346751Y88651D01*
X353485Y88651D01*
X353576Y88665D01*
X353666Y88673D01*
X353696Y88685D01*
X353728Y88690D01*
X353809Y88733D01*
X353893Y88769D01*
X353925Y88795D01*
X353946Y88806D01*
X353968Y88829D01*
X354024Y88874D01*
X358510Y93360D01*
X358552Y93418D01*
X358601Y93470D01*
X358623Y93517D01*
X358653Y93559D01*
X358674Y93628D01*
X358705Y93693D01*
X358710Y93745D01*
X358726Y93795D01*
X358724Y93866D01*
X358732Y93937D01*
X358721Y93988D01*
X358719Y94040D01*
X358695Y94108D01*
X358680Y94178D01*
X358653Y94223D01*
X358635Y94271D01*
X358590Y94327D01*
X358553Y94389D01*
X358514Y94423D01*
X358481Y94463D01*
X358421Y94502D01*
X358366Y94549D01*
X358318Y94568D01*
X358274Y94596D01*
X358205Y94614D01*
X358138Y94641D01*
X358067Y94649D01*
X358036Y94657D01*
X358012Y94655D01*
X357972Y94659D01*
X357223Y94659D01*
X357223Y105438D01*
X357220Y105458D01*
X357222Y105477D01*
X357200Y105579D01*
X357183Y105681D01*
X357174Y105698D01*
X357170Y105718D01*
X357117Y105807D01*
X357068Y105898D01*
X357054Y105912D01*
X357044Y105929D01*
X356965Y105996D01*
X356890Y106067D01*
X356872Y106076D01*
X356857Y106089D01*
X356761Y106128D01*
X356667Y106171D01*
X356647Y106173D01*
X356629Y106181D01*
X356462Y106199D01*
X355699Y106199D01*
X355699Y106201D01*
X356462Y106201D01*
X356482Y106204D01*
X356501Y106202D01*
X356603Y106224D01*
X356705Y106241D01*
X356722Y106250D01*
X356742Y106254D01*
X356831Y106307D01*
X356922Y106356D01*
X356936Y106370D01*
X356953Y106380D01*
X357020Y106459D01*
X357091Y106534D01*
X357100Y106552D01*
X357113Y106567D01*
X357152Y106663D01*
X357195Y106757D01*
X357197Y106777D01*
X357205Y106795D01*
X357223Y106962D01*
X357223Y117741D01*
X363838Y117741D01*
X363858Y117744D01*
X363877Y117742D01*
X363979Y117764D01*
X364081Y117780D01*
X364098Y117790D01*
X364118Y117794D01*
X364207Y117847D01*
X364298Y117896D01*
X364312Y117910D01*
X364329Y117920D01*
X364396Y117999D01*
X364468Y118074D01*
X364476Y118092D01*
X364489Y118107D01*
X364528Y118203D01*
X364571Y118297D01*
X364573Y118317D01*
X364581Y118335D01*
X364599Y118502D01*
X364599Y136898D01*
X364596Y136918D01*
X364598Y136937D01*
X364576Y137039D01*
X364560Y137141D01*
X364550Y137158D01*
X364546Y137178D01*
X364493Y137267D01*
X364444Y137358D01*
X364430Y137372D01*
X364420Y137389D01*
X364341Y137456D01*
X364266Y137528D01*
X364248Y137536D01*
X364233Y137549D01*
X364137Y137588D01*
X364043Y137631D01*
X364023Y137633D01*
X364005Y137641D01*
X363838Y137659D01*
X357723Y137659D01*
X357723Y145938D01*
X357720Y145958D01*
X357722Y145977D01*
X357700Y146079D01*
X357683Y146181D01*
X357674Y146198D01*
X357670Y146218D01*
X357617Y146307D01*
X357568Y146398D01*
X357554Y146412D01*
X357544Y146429D01*
X357465Y146496D01*
X357390Y146567D01*
X357372Y146576D01*
X357357Y146589D01*
X357261Y146628D01*
X357167Y146671D01*
X357147Y146673D01*
X357129Y146681D01*
X356962Y146699D01*
X356199Y146699D01*
X356199Y147462D01*
X356196Y147482D01*
X356198Y147501D01*
X356176Y147603D01*
X356159Y147705D01*
X356150Y147722D01*
X356146Y147742D01*
X356093Y147831D01*
X356044Y147922D01*
X356030Y147936D01*
X356020Y147953D01*
X355941Y148020D01*
X355866Y148091D01*
X355848Y148100D01*
X355833Y148113D01*
X355737Y148152D01*
X355643Y148195D01*
X355623Y148197D01*
X355605Y148205D01*
X355438Y148223D01*
X346159Y148223D01*
X346159Y153534D01*
X346332Y154181D01*
X346667Y154760D01*
X347140Y155233D01*
X347719Y155568D01*
X348037Y155653D01*
X348059Y155663D01*
X348083Y155667D01*
X348170Y155713D01*
X348261Y155754D01*
X348279Y155770D01*
X348300Y155782D01*
X348368Y155853D01*
X348441Y155921D01*
X348453Y155942D01*
X348470Y155960D01*
X348511Y156050D01*
X348559Y156137D01*
X348563Y156161D01*
X348573Y156183D01*
X348584Y156281D01*
X348601Y156380D01*
X348598Y156404D01*
X348600Y156427D01*
X348579Y156524D01*
X348564Y156623D01*
X348553Y156644D01*
X348548Y156668D01*
X348497Y156753D01*
X348451Y156842D01*
X348434Y156858D01*
X348422Y156879D01*
X348346Y156944D01*
X348275Y157013D01*
X348253Y157023D01*
X348235Y157039D01*
X348142Y157076D01*
X348053Y157119D01*
X348029Y157122D01*
X348007Y157131D01*
X347852Y157148D01*
X346649Y158351D01*
X346649Y173049D01*
X347851Y174251D01*
X364549Y174251D01*
X365751Y173049D01*
X365751Y172012D01*
X365754Y171992D01*
X365752Y171973D01*
X365774Y171871D01*
X365790Y171769D01*
X365800Y171752D01*
X365804Y171732D01*
X365857Y171643D01*
X365906Y171552D01*
X365920Y171538D01*
X365930Y171521D01*
X366009Y171454D01*
X366084Y171382D01*
X366102Y171374D01*
X366117Y171361D01*
X366213Y171322D01*
X366307Y171279D01*
X366327Y171277D01*
X366345Y171269D01*
X366512Y171251D01*
X372973Y171251D01*
X372993Y171254D01*
X373012Y171252D01*
X373114Y171274D01*
X373216Y171290D01*
X373233Y171300D01*
X373253Y171304D01*
X373342Y171357D01*
X373433Y171406D01*
X373447Y171420D01*
X373464Y171430D01*
X373531Y171509D01*
X373603Y171584D01*
X373611Y171602D01*
X373624Y171617D01*
X373663Y171713D01*
X373706Y171807D01*
X373708Y171827D01*
X373716Y171845D01*
X373734Y172012D01*
X373734Y178269D01*
X374936Y179471D01*
X394664Y179471D01*
X395866Y178269D01*
X395866Y160842D01*
X395869Y160822D01*
X395867Y160803D01*
X395889Y160701D01*
X395905Y160599D01*
X395915Y160582D01*
X395919Y160562D01*
X395972Y160473D01*
X396021Y160382D01*
X396035Y160368D01*
X396045Y160351D01*
X396124Y160284D01*
X396199Y160212D01*
X396217Y160204D01*
X396232Y160191D01*
X396328Y160152D01*
X396422Y160109D01*
X396442Y160107D01*
X396460Y160099D01*
X396627Y160081D01*
X412634Y160081D01*
X414674Y159236D01*
X416236Y157674D01*
X417081Y155634D01*
X417081Y67829D01*
X416236Y65788D01*
X414567Y64120D01*
X362692Y12244D01*
X361197Y11625D01*
X361114Y11574D01*
X361028Y11528D01*
X361010Y11509D01*
X360988Y11496D01*
X360926Y11421D01*
X360859Y11350D01*
X360848Y11326D01*
X360831Y11306D01*
X360796Y11215D01*
X360755Y11127D01*
X360752Y11101D01*
X360743Y11077D01*
X360739Y10979D01*
X360728Y10883D01*
X360734Y10857D01*
X360733Y10831D01*
X360760Y10737D01*
X360780Y10642D01*
X360794Y10620D01*
X360801Y10595D01*
X360857Y10515D01*
X360907Y10431D01*
X360926Y10414D01*
X360941Y10393D01*
X361020Y10334D01*
X361094Y10271D01*
X361118Y10261D01*
X361139Y10246D01*
X361231Y10216D01*
X361322Y10179D01*
X361354Y10176D01*
X361373Y10170D01*
X361406Y10170D01*
X361488Y10161D01*
X403833Y10161D01*
X403904Y10172D01*
X403975Y10174D01*
X404024Y10192D01*
X404076Y10200D01*
X404139Y10234D01*
X404206Y10259D01*
X404247Y10291D01*
X404293Y10316D01*
X404343Y10368D01*
X404399Y10412D01*
X404427Y10456D01*
X404463Y10494D01*
X404493Y10559D01*
X404532Y10619D01*
X404544Y10670D01*
X404566Y10717D01*
X404574Y10788D01*
X404592Y10858D01*
X404588Y10910D01*
X404593Y10961D01*
X404578Y11032D01*
X404572Y11103D01*
X404552Y11151D01*
X404541Y11202D01*
X404504Y11263D01*
X404476Y11329D01*
X404431Y11385D01*
X404415Y11413D01*
X404397Y11428D01*
X404371Y11460D01*
X399518Y16314D01*
X395839Y25194D01*
X395839Y34806D01*
X399518Y43686D01*
X406314Y50482D01*
X415194Y54161D01*
X424806Y54161D01*
X433686Y50482D01*
X438540Y45629D01*
X438598Y45587D01*
X438650Y45537D01*
X438697Y45516D01*
X438739Y45485D01*
X438808Y45464D01*
X438873Y45434D01*
X438925Y45428D01*
X438975Y45413D01*
X439046Y45415D01*
X439117Y45407D01*
X439168Y45418D01*
X439220Y45419D01*
X439288Y45444D01*
X439358Y45459D01*
X439403Y45486D01*
X439451Y45504D01*
X439507Y45548D01*
X439569Y45585D01*
X439603Y45625D01*
X439643Y45657D01*
X439682Y45718D01*
X439729Y45772D01*
X439748Y45820D01*
X439776Y45864D01*
X439794Y45934D01*
X439821Y46000D01*
X439829Y46072D01*
X439837Y46103D01*
X439835Y46126D01*
X439839Y46167D01*
X439839Y553833D01*
X439828Y553904D01*
X439826Y553975D01*
X439808Y554024D01*
X439800Y554076D01*
X439766Y554139D01*
X439741Y554206D01*
X439709Y554247D01*
X439684Y554293D01*
X439632Y554343D01*
X439588Y554399D01*
X439544Y554427D01*
X439506Y554463D01*
X439441Y554493D01*
X439381Y554532D01*
X439330Y554544D01*
X439283Y554566D01*
X439212Y554574D01*
X439142Y554592D01*
X439090Y554588D01*
X439039Y554593D01*
X438968Y554578D01*
X438897Y554572D01*
X438849Y554552D01*
X438798Y554541D01*
X438737Y554504D01*
X438671Y554476D01*
X438615Y554431D01*
X438587Y554415D01*
X438572Y554397D01*
X438540Y554371D01*
X433686Y549518D01*
X424806Y545839D01*
X415194Y545839D01*
X406314Y549518D01*
X399518Y556314D01*
X395839Y565194D01*
X395839Y574806D01*
X399518Y583686D01*
X404371Y588540D01*
X404413Y588598D01*
X404463Y588650D01*
X404484Y588697D01*
X404515Y588739D01*
X404536Y588808D01*
X404566Y588873D01*
X404572Y588925D01*
X404587Y588975D01*
X404585Y589046D01*
X404593Y589117D01*
X404582Y589168D01*
X404581Y589220D01*
X404556Y589288D01*
X404541Y589358D01*
X404514Y589403D01*
X404496Y589451D01*
X404452Y589507D01*
X404415Y589569D01*
X404375Y589603D01*
X404343Y589643D01*
X404282Y589682D01*
X404228Y589729D01*
X404180Y589748D01*
X404136Y589776D01*
X404066Y589794D01*
X404000Y589821D01*
X403928Y589829D01*
X403897Y589837D01*
X403874Y589835D01*
X403833Y589839D01*
X46167Y589839D01*
X46096Y589828D01*
X46025Y589826D01*
X45976Y589808D01*
X45924Y589800D01*
X45861Y589766D01*
X45794Y589741D01*
X45753Y589709D01*
X45707Y589684D01*
X45657Y589632D01*
X45601Y589588D01*
X45573Y589544D01*
X45537Y589506D01*
X45507Y589441D01*
X45468Y589381D01*
X45456Y589330D01*
X45434Y589283D01*
X45426Y589212D01*
X45408Y589142D01*
X45412Y589090D01*
X45407Y589039D01*
X45422Y588968D01*
X45428Y588897D01*
X45448Y588849D01*
X45459Y588798D01*
X45496Y588737D01*
X45524Y588671D01*
X45569Y588615D01*
X45585Y588587D01*
X45603Y588572D01*
X45629Y588540D01*
X50482Y583686D01*
X54161Y574806D01*
X54161Y565194D01*
X50482Y556314D01*
X43686Y549518D01*
X34806Y545839D01*
X25194Y545839D01*
X16314Y549518D01*
X11460Y554371D01*
X11402Y554413D01*
X11350Y554463D01*
X11303Y554484D01*
X11261Y554515D01*
X11192Y554536D01*
X11127Y554566D01*
X11075Y554572D01*
X11025Y554587D01*
X10954Y554585D01*
X10883Y554593D01*
X10832Y554582D01*
X10780Y554581D01*
X10712Y554556D01*
X10642Y554541D01*
X10597Y554514D01*
X10549Y554496D01*
X10493Y554452D01*
X10431Y554415D01*
X10397Y554375D01*
X10357Y554343D01*
X10318Y554282D01*
X10271Y554228D01*
X10252Y554180D01*
X10224Y554136D01*
X10206Y554066D01*
X10179Y554000D01*
X10171Y553928D01*
X10163Y553897D01*
X10165Y553874D01*
X10161Y553833D01*
X10161Y46167D01*
X10172Y46096D01*
X10174Y46025D01*
X10192Y45976D01*
X10200Y45924D01*
X10234Y45861D01*
X10259Y45794D01*
X10291Y45753D01*
X10316Y45707D01*
X10368Y45657D01*
X10412Y45601D01*
X10456Y45573D01*
X10494Y45537D01*
X10559Y45507D01*
X10619Y45468D01*
X10670Y45456D01*
X10717Y45434D01*
X10788Y45426D01*
X10858Y45408D01*
X10910Y45412D01*
X10961Y45407D01*
X11032Y45422D01*
X11103Y45428D01*
X11151Y45448D01*
X11202Y45459D01*
X11263Y45496D01*
X11329Y45524D01*
X11385Y45569D01*
X11413Y45585D01*
X11428Y45603D01*
X11460Y45629D01*
X16314Y50482D01*
X25194Y54161D01*
X34806Y54161D01*
X43686Y50482D01*
X50482Y43686D01*
X54161Y34806D01*
X54161Y25194D01*
X50482Y16314D01*
X45629Y11460D01*
X45587Y11402D01*
X45537Y11350D01*
X45516Y11303D01*
X45485Y11261D01*
X45464Y11192D01*
X45434Y11127D01*
X45428Y11075D01*
X45413Y11025D01*
X45415Y10954D01*
X45407Y10883D01*
X45418Y10832D01*
X45419Y10780D01*
X45444Y10712D01*
X45459Y10642D01*
X45486Y10597D01*
X45504Y10549D01*
X45548Y10493D01*
X45585Y10431D01*
X45625Y10397D01*
X45657Y10357D01*
X45718Y10318D01*
X45772Y10271D01*
X45820Y10252D01*
X45864Y10224D01*
X45934Y10206D01*
X46000Y10179D01*
X46072Y10171D01*
X46103Y10163D01*
X46126Y10165D01*
X46167Y10161D01*
X95206Y10161D01*
X95277Y10172D01*
G37*
%LPC*%
G36*
X314551Y146149D02*
X314551Y146149D01*
X313349Y147351D01*
X313349Y164049D01*
X314551Y165251D01*
X315588Y165251D01*
X315608Y165254D01*
X315627Y165252D01*
X315729Y165274D01*
X315831Y165290D01*
X315848Y165300D01*
X315868Y165304D01*
X315957Y165357D01*
X316048Y165406D01*
X316062Y165420D01*
X316079Y165430D01*
X316146Y165509D01*
X316218Y165584D01*
X316226Y165602D01*
X316239Y165617D01*
X316278Y165713D01*
X316321Y165807D01*
X316323Y165827D01*
X316331Y165845D01*
X316349Y166012D01*
X316349Y180388D01*
X316346Y180408D01*
X316348Y180427D01*
X316326Y180529D01*
X316310Y180631D01*
X316300Y180648D01*
X316296Y180668D01*
X316243Y180757D01*
X316194Y180848D01*
X316180Y180862D01*
X316170Y180879D01*
X316091Y180946D01*
X316016Y181018D01*
X315998Y181026D01*
X315983Y181039D01*
X315887Y181078D01*
X315793Y181121D01*
X315773Y181123D01*
X315755Y181131D01*
X315588Y181149D01*
X314551Y181149D01*
X313349Y182351D01*
X313349Y199049D01*
X314551Y200251D01*
X315588Y200251D01*
X315608Y200254D01*
X315627Y200252D01*
X315729Y200274D01*
X315831Y200290D01*
X315848Y200300D01*
X315868Y200304D01*
X315957Y200357D01*
X316048Y200406D01*
X316062Y200420D01*
X316079Y200430D01*
X316146Y200509D01*
X316218Y200584D01*
X316226Y200602D01*
X316239Y200617D01*
X316278Y200713D01*
X316321Y200807D01*
X316323Y200827D01*
X316331Y200845D01*
X316349Y201012D01*
X316349Y211388D01*
X316346Y211408D01*
X316348Y211427D01*
X316326Y211529D01*
X316310Y211631D01*
X316300Y211648D01*
X316296Y211668D01*
X316243Y211757D01*
X316194Y211848D01*
X316180Y211862D01*
X316170Y211879D01*
X316091Y211946D01*
X316016Y212018D01*
X315998Y212026D01*
X315983Y212039D01*
X315887Y212078D01*
X315793Y212121D01*
X315773Y212123D01*
X315755Y212131D01*
X315588Y212149D01*
X315051Y212149D01*
X313849Y213351D01*
X313849Y230049D01*
X315051Y231251D01*
X316088Y231251D01*
X316108Y231254D01*
X316127Y231252D01*
X316229Y231274D01*
X316331Y231290D01*
X316348Y231300D01*
X316368Y231304D01*
X316457Y231357D01*
X316548Y231406D01*
X316562Y231420D01*
X316579Y231430D01*
X316646Y231509D01*
X316718Y231584D01*
X316726Y231602D01*
X316739Y231617D01*
X316778Y231713D01*
X316821Y231807D01*
X316823Y231827D01*
X316831Y231845D01*
X316849Y232012D01*
X316849Y240288D01*
X316846Y240308D01*
X316848Y240327D01*
X316826Y240429D01*
X316810Y240531D01*
X316800Y240548D01*
X316796Y240568D01*
X316743Y240657D01*
X316694Y240748D01*
X316680Y240762D01*
X316670Y240779D01*
X316591Y240846D01*
X316516Y240918D01*
X316498Y240926D01*
X316483Y240939D01*
X316387Y240978D01*
X316293Y241021D01*
X316273Y241023D01*
X316255Y241031D01*
X316088Y241049D01*
X313251Y241049D01*
X312049Y242251D01*
X312049Y253985D01*
X312035Y254076D01*
X312027Y254166D01*
X312015Y254196D01*
X312010Y254228D01*
X311967Y254309D01*
X311931Y254393D01*
X311905Y254425D01*
X311894Y254446D01*
X311871Y254468D01*
X311826Y254524D01*
X288124Y278226D01*
X288050Y278279D01*
X287980Y278339D01*
X287950Y278351D01*
X287924Y278370D01*
X287837Y278397D01*
X287752Y278431D01*
X287711Y278435D01*
X287689Y278442D01*
X287657Y278441D01*
X287585Y278449D01*
X280961Y278449D01*
X280871Y278435D01*
X280780Y278427D01*
X280750Y278415D01*
X280718Y278410D01*
X280638Y278367D01*
X280554Y278331D01*
X280522Y278305D01*
X280501Y278294D01*
X280479Y278271D01*
X280423Y278226D01*
X277998Y275802D01*
X274444Y274329D01*
X255356Y274329D01*
X251802Y275802D01*
X249082Y278522D01*
X247609Y282076D01*
X247609Y285924D01*
X249082Y289478D01*
X251802Y292198D01*
X255356Y293671D01*
X258588Y293671D01*
X258608Y293674D01*
X258627Y293672D01*
X258729Y293694D01*
X258831Y293710D01*
X258848Y293720D01*
X258868Y293724D01*
X258957Y293777D01*
X259048Y293826D01*
X259062Y293840D01*
X259079Y293850D01*
X259146Y293929D01*
X259218Y294004D01*
X259226Y294022D01*
X259239Y294037D01*
X259278Y294133D01*
X259321Y294227D01*
X259323Y294247D01*
X259331Y294265D01*
X259349Y294432D01*
X259349Y298968D01*
X259346Y298988D01*
X259348Y299007D01*
X259326Y299109D01*
X259310Y299211D01*
X259300Y299228D01*
X259296Y299248D01*
X259243Y299337D01*
X259194Y299428D01*
X259180Y299442D01*
X259170Y299459D01*
X259091Y299526D01*
X259016Y299598D01*
X258998Y299606D01*
X258983Y299619D01*
X258887Y299658D01*
X258793Y299701D01*
X258773Y299703D01*
X258755Y299711D01*
X258588Y299729D01*
X255356Y299729D01*
X251802Y301202D01*
X249082Y303922D01*
X247609Y307476D01*
X247609Y311324D01*
X249082Y314878D01*
X251802Y317598D01*
X255356Y319071D01*
X274444Y319071D01*
X277998Y317598D01*
X280718Y314878D01*
X282191Y311324D01*
X282191Y311012D01*
X282194Y310992D01*
X282192Y310973D01*
X282214Y310871D01*
X282230Y310769D01*
X282240Y310752D01*
X282244Y310732D01*
X282297Y310643D01*
X282346Y310552D01*
X282360Y310538D01*
X282370Y310521D01*
X282449Y310454D01*
X282524Y310382D01*
X282542Y310374D01*
X282557Y310361D01*
X282653Y310322D01*
X282747Y310279D01*
X282767Y310277D01*
X282785Y310269D01*
X282952Y310251D01*
X338788Y310251D01*
X338808Y310254D01*
X338827Y310252D01*
X338929Y310274D01*
X339031Y310290D01*
X339048Y310300D01*
X339068Y310304D01*
X339157Y310357D01*
X339248Y310406D01*
X339262Y310420D01*
X339279Y310430D01*
X339346Y310509D01*
X339418Y310584D01*
X339426Y310602D01*
X339439Y310617D01*
X339478Y310713D01*
X339521Y310807D01*
X339523Y310827D01*
X339531Y310845D01*
X339549Y311012D01*
X339549Y312049D01*
X340751Y313251D01*
X356688Y313251D01*
X356708Y313254D01*
X356727Y313252D01*
X356829Y313274D01*
X356931Y313290D01*
X356948Y313300D01*
X356968Y313304D01*
X357057Y313357D01*
X357148Y313406D01*
X357162Y313420D01*
X357179Y313430D01*
X357246Y313509D01*
X357318Y313584D01*
X357326Y313602D01*
X357339Y313617D01*
X357378Y313713D01*
X357421Y313807D01*
X357423Y313827D01*
X357431Y313845D01*
X357449Y314012D01*
X357449Y329688D01*
X357446Y329708D01*
X357448Y329727D01*
X357426Y329829D01*
X357410Y329931D01*
X357400Y329948D01*
X357396Y329968D01*
X357343Y330057D01*
X357294Y330148D01*
X357280Y330162D01*
X357270Y330179D01*
X357191Y330246D01*
X357116Y330318D01*
X357098Y330326D01*
X357083Y330339D01*
X356987Y330378D01*
X356893Y330421D01*
X356873Y330423D01*
X356855Y330431D01*
X356688Y330449D01*
X281694Y330449D01*
X281580Y330431D01*
X281463Y330413D01*
X281457Y330411D01*
X281451Y330410D01*
X281348Y330355D01*
X281244Y330302D01*
X281239Y330297D01*
X281234Y330294D01*
X281153Y330209D01*
X281072Y330126D01*
X281068Y330120D01*
X281065Y330116D01*
X281057Y330099D01*
X280991Y329979D01*
X280718Y329322D01*
X277998Y326602D01*
X274444Y325129D01*
X255356Y325129D01*
X251802Y326602D01*
X249082Y329322D01*
X247609Y332876D01*
X247609Y336724D01*
X249082Y340278D01*
X251802Y342998D01*
X255356Y344471D01*
X274444Y344471D01*
X277998Y342998D01*
X279223Y341774D01*
X279297Y341721D01*
X279366Y341661D01*
X279396Y341649D01*
X279422Y341630D01*
X279510Y341603D01*
X279594Y341569D01*
X279635Y341565D01*
X279658Y341558D01*
X279690Y341559D01*
X279761Y341551D01*
X364104Y341551D01*
X366144Y340706D01*
X367706Y339144D01*
X368551Y337104D01*
X368551Y284896D01*
X367706Y282856D01*
X366144Y281294D01*
X364104Y280449D01*
X359412Y280449D01*
X359392Y280446D01*
X359373Y280448D01*
X359271Y280426D01*
X359169Y280410D01*
X359152Y280400D01*
X359132Y280396D01*
X359043Y280343D01*
X358952Y280294D01*
X358938Y280280D01*
X358921Y280270D01*
X358854Y280191D01*
X358782Y280116D01*
X358774Y280098D01*
X358761Y280083D01*
X358722Y279987D01*
X358679Y279893D01*
X358677Y279873D01*
X358669Y279855D01*
X358651Y279688D01*
X358651Y278351D01*
X357449Y277149D01*
X356412Y277149D01*
X356392Y277146D01*
X356373Y277148D01*
X356271Y277126D01*
X356169Y277110D01*
X356152Y277100D01*
X356132Y277096D01*
X356043Y277043D01*
X355952Y276994D01*
X355938Y276980D01*
X355921Y276970D01*
X355854Y276891D01*
X355782Y276816D01*
X355774Y276798D01*
X355761Y276783D01*
X355722Y276687D01*
X355679Y276593D01*
X355677Y276573D01*
X355669Y276555D01*
X355651Y276388D01*
X355651Y263912D01*
X355654Y263892D01*
X355652Y263873D01*
X355674Y263771D01*
X355690Y263669D01*
X355700Y263652D01*
X355704Y263632D01*
X355757Y263543D01*
X355806Y263452D01*
X355820Y263438D01*
X355830Y263421D01*
X355909Y263354D01*
X355984Y263282D01*
X356002Y263274D01*
X356017Y263261D01*
X356113Y263222D01*
X356207Y263179D01*
X356227Y263177D01*
X356245Y263169D01*
X356412Y263151D01*
X358949Y263151D01*
X360151Y261949D01*
X360151Y242251D01*
X358949Y241049D01*
X341251Y241049D01*
X340049Y242251D01*
X340049Y261949D01*
X341251Y263151D01*
X343788Y263151D01*
X343808Y263154D01*
X343827Y263152D01*
X343929Y263174D01*
X344031Y263190D01*
X344048Y263200D01*
X344068Y263204D01*
X344157Y263257D01*
X344248Y263306D01*
X344262Y263320D01*
X344279Y263330D01*
X344346Y263409D01*
X344418Y263484D01*
X344426Y263502D01*
X344439Y263517D01*
X344478Y263613D01*
X344521Y263707D01*
X344523Y263727D01*
X344531Y263745D01*
X344549Y263912D01*
X344549Y276388D01*
X344546Y276408D01*
X344548Y276427D01*
X344526Y276529D01*
X344510Y276631D01*
X344500Y276648D01*
X344496Y276668D01*
X344443Y276757D01*
X344394Y276848D01*
X344380Y276862D01*
X344370Y276879D01*
X344291Y276946D01*
X344216Y277018D01*
X344198Y277026D01*
X344183Y277039D01*
X344087Y277078D01*
X343993Y277121D01*
X343973Y277123D01*
X343955Y277131D01*
X343788Y277149D01*
X340751Y277149D01*
X339549Y278351D01*
X339549Y293049D01*
X340751Y294251D01*
X356688Y294251D01*
X356708Y294254D01*
X356727Y294252D01*
X356829Y294274D01*
X356931Y294290D01*
X356948Y294300D01*
X356968Y294304D01*
X357057Y294357D01*
X357148Y294406D01*
X357162Y294420D01*
X357179Y294430D01*
X357246Y294509D01*
X357318Y294584D01*
X357326Y294602D01*
X357339Y294617D01*
X357378Y294713D01*
X357421Y294807D01*
X357423Y294827D01*
X357431Y294845D01*
X357449Y295012D01*
X357449Y295388D01*
X357446Y295408D01*
X357448Y295427D01*
X357426Y295529D01*
X357410Y295631D01*
X357400Y295648D01*
X357396Y295668D01*
X357343Y295757D01*
X357294Y295848D01*
X357280Y295862D01*
X357270Y295879D01*
X357191Y295946D01*
X357116Y296018D01*
X357098Y296026D01*
X357083Y296039D01*
X356987Y296078D01*
X356893Y296121D01*
X356873Y296123D01*
X356855Y296131D01*
X356688Y296149D01*
X340751Y296149D01*
X339549Y297351D01*
X339549Y298388D01*
X339546Y298408D01*
X339548Y298427D01*
X339526Y298529D01*
X339510Y298631D01*
X339500Y298648D01*
X339496Y298668D01*
X339443Y298757D01*
X339394Y298848D01*
X339380Y298862D01*
X339370Y298879D01*
X339291Y298946D01*
X339216Y299018D01*
X339198Y299026D01*
X339183Y299039D01*
X339087Y299078D01*
X338993Y299121D01*
X338973Y299123D01*
X338955Y299131D01*
X338788Y299149D01*
X271212Y299149D01*
X271192Y299146D01*
X271173Y299148D01*
X271071Y299126D01*
X270969Y299110D01*
X270952Y299100D01*
X270932Y299096D01*
X270843Y299043D01*
X270752Y298994D01*
X270738Y298980D01*
X270721Y298970D01*
X270654Y298891D01*
X270582Y298816D01*
X270574Y298798D01*
X270561Y298783D01*
X270522Y298687D01*
X270479Y298593D01*
X270477Y298573D01*
X270469Y298555D01*
X270451Y298388D01*
X270451Y294432D01*
X270454Y294412D01*
X270452Y294393D01*
X270474Y294291D01*
X270490Y294189D01*
X270500Y294172D01*
X270504Y294152D01*
X270557Y294063D01*
X270606Y293972D01*
X270620Y293958D01*
X270630Y293941D01*
X270709Y293874D01*
X270784Y293802D01*
X270802Y293794D01*
X270817Y293781D01*
X270913Y293742D01*
X271007Y293699D01*
X271027Y293697D01*
X271045Y293689D01*
X271212Y293671D01*
X274444Y293671D01*
X277998Y292198D01*
X280423Y289774D01*
X280497Y289721D01*
X280566Y289661D01*
X280596Y289649D01*
X280623Y289630D01*
X280709Y289603D01*
X280794Y289569D01*
X280835Y289565D01*
X280858Y289558D01*
X280890Y289559D01*
X280961Y289551D01*
X291304Y289551D01*
X293344Y288706D01*
X318676Y263374D01*
X318750Y263321D01*
X318820Y263261D01*
X318850Y263249D01*
X318876Y263230D01*
X318963Y263203D01*
X319048Y263169D01*
X319089Y263165D01*
X319111Y263158D01*
X319143Y263159D01*
X319215Y263151D01*
X330949Y263151D01*
X332151Y261949D01*
X332151Y242251D01*
X330949Y241049D01*
X328712Y241049D01*
X328692Y241046D01*
X328673Y241048D01*
X328571Y241026D01*
X328469Y241010D01*
X328452Y241000D01*
X328432Y240996D01*
X328343Y240943D01*
X328252Y240894D01*
X328238Y240880D01*
X328221Y240870D01*
X328154Y240791D01*
X328082Y240716D01*
X328074Y240698D01*
X328061Y240683D01*
X328022Y240587D01*
X327979Y240493D01*
X327977Y240473D01*
X327969Y240455D01*
X327951Y240288D01*
X327951Y232012D01*
X327954Y231992D01*
X327952Y231973D01*
X327974Y231871D01*
X327990Y231769D01*
X328000Y231752D01*
X328004Y231732D01*
X328057Y231643D01*
X328106Y231552D01*
X328120Y231538D01*
X328130Y231521D01*
X328209Y231454D01*
X328284Y231382D01*
X328302Y231374D01*
X328317Y231361D01*
X328413Y231322D01*
X328507Y231279D01*
X328527Y231277D01*
X328545Y231269D01*
X328712Y231251D01*
X329749Y231251D01*
X330951Y230049D01*
X330951Y213351D01*
X329749Y212149D01*
X328212Y212149D01*
X328192Y212146D01*
X328173Y212148D01*
X328071Y212126D01*
X327969Y212110D01*
X327952Y212100D01*
X327932Y212096D01*
X327843Y212043D01*
X327752Y211994D01*
X327738Y211980D01*
X327721Y211970D01*
X327654Y211891D01*
X327582Y211816D01*
X327574Y211798D01*
X327561Y211783D01*
X327522Y211687D01*
X327479Y211593D01*
X327477Y211573D01*
X327469Y211555D01*
X327451Y211388D01*
X327451Y201012D01*
X327454Y200992D01*
X327452Y200973D01*
X327474Y200871D01*
X327490Y200769D01*
X327500Y200752D01*
X327504Y200732D01*
X327557Y200643D01*
X327606Y200552D01*
X327620Y200538D01*
X327630Y200521D01*
X327709Y200454D01*
X327784Y200382D01*
X327802Y200374D01*
X327817Y200361D01*
X327913Y200322D01*
X328007Y200279D01*
X328027Y200277D01*
X328045Y200269D01*
X328212Y200251D01*
X329249Y200251D01*
X330451Y199049D01*
X330451Y182351D01*
X329249Y181149D01*
X328212Y181149D01*
X328192Y181146D01*
X328173Y181148D01*
X328071Y181126D01*
X327969Y181110D01*
X327952Y181100D01*
X327932Y181096D01*
X327843Y181043D01*
X327752Y180994D01*
X327738Y180980D01*
X327721Y180970D01*
X327654Y180891D01*
X327582Y180816D01*
X327574Y180798D01*
X327561Y180783D01*
X327522Y180687D01*
X327479Y180593D01*
X327477Y180573D01*
X327469Y180555D01*
X327451Y180388D01*
X327451Y166012D01*
X327454Y165992D01*
X327452Y165973D01*
X327474Y165871D01*
X327490Y165769D01*
X327500Y165752D01*
X327504Y165732D01*
X327557Y165643D01*
X327606Y165552D01*
X327620Y165538D01*
X327630Y165521D01*
X327709Y165454D01*
X327784Y165382D01*
X327802Y165374D01*
X327817Y165361D01*
X327913Y165322D01*
X328007Y165279D01*
X328027Y165277D01*
X328045Y165269D01*
X328212Y165251D01*
X329249Y165251D01*
X330451Y164049D01*
X330451Y147351D01*
X329249Y146149D01*
X314551Y146149D01*
G37*
%LPD*%
%LPC*%
G36*
X78256Y297829D02*
X78256Y297829D01*
X74702Y299302D01*
X71982Y302022D01*
X70509Y305576D01*
X70509Y309424D01*
X71982Y312978D01*
X74702Y315698D01*
X78256Y317171D01*
X97344Y317171D01*
X100898Y315698D01*
X103323Y313274D01*
X103397Y313221D01*
X103466Y313161D01*
X103496Y313149D01*
X103523Y313130D01*
X103609Y313103D01*
X103694Y313069D01*
X103735Y313065D01*
X103758Y313058D01*
X103790Y313059D01*
X103861Y313051D01*
X159386Y313051D01*
X159406Y313054D01*
X159426Y313052D01*
X159527Y313074D01*
X159629Y313090D01*
X159646Y313100D01*
X159666Y313104D01*
X159755Y313157D01*
X159846Y313206D01*
X159860Y313220D01*
X159877Y313230D01*
X159944Y313309D01*
X160016Y313384D01*
X160024Y313402D01*
X160037Y313417D01*
X160076Y313513D01*
X160119Y313607D01*
X160121Y313627D01*
X160129Y313645D01*
X160147Y313812D01*
X160147Y378333D01*
X160143Y378357D01*
X160146Y378381D01*
X160124Y378478D01*
X160108Y378576D01*
X160096Y378597D01*
X160091Y378621D01*
X160039Y378706D01*
X159993Y378793D01*
X159975Y378810D01*
X159963Y378830D01*
X159886Y378894D01*
X159814Y378963D01*
X159792Y378973D01*
X159774Y378988D01*
X159681Y379024D01*
X159591Y379066D01*
X159567Y379069D01*
X159545Y379078D01*
X159446Y379082D01*
X159347Y379093D01*
X159323Y379088D01*
X159299Y379089D01*
X159204Y379062D01*
X159106Y379041D01*
X159086Y379029D01*
X159062Y379022D01*
X158981Y378966D01*
X158895Y378915D01*
X158880Y378897D01*
X158860Y378883D01*
X158800Y378804D01*
X158735Y378728D01*
X158726Y378705D01*
X158712Y378686D01*
X158651Y378530D01*
X158568Y378219D01*
X158233Y377640D01*
X157760Y377167D01*
X157181Y376832D01*
X156534Y376659D01*
X149723Y376659D01*
X149723Y387438D01*
X149720Y387458D01*
X149722Y387477D01*
X149700Y387579D01*
X149683Y387681D01*
X149674Y387698D01*
X149670Y387718D01*
X149617Y387807D01*
X149568Y387898D01*
X149554Y387912D01*
X149544Y387929D01*
X149465Y387996D01*
X149390Y388067D01*
X149372Y388076D01*
X149357Y388089D01*
X149261Y388128D01*
X149167Y388171D01*
X149147Y388173D01*
X149129Y388181D01*
X148962Y388199D01*
X148199Y388199D01*
X148199Y388201D01*
X148962Y388201D01*
X148982Y388204D01*
X149001Y388202D01*
X149103Y388224D01*
X149205Y388241D01*
X149222Y388250D01*
X149242Y388254D01*
X149331Y388307D01*
X149422Y388356D01*
X149436Y388370D01*
X149453Y388380D01*
X149520Y388459D01*
X149591Y388534D01*
X149600Y388552D01*
X149613Y388567D01*
X149652Y388663D01*
X149695Y388757D01*
X149697Y388777D01*
X149705Y388795D01*
X149723Y388962D01*
X149723Y399741D01*
X156534Y399741D01*
X157181Y399568D01*
X157760Y399233D01*
X158233Y398760D01*
X158568Y398181D01*
X158651Y397870D01*
X158661Y397848D01*
X158665Y397824D01*
X158711Y397737D01*
X158752Y397646D01*
X158768Y397628D01*
X158780Y397607D01*
X158852Y397539D01*
X158919Y397466D01*
X158941Y397454D01*
X158958Y397437D01*
X159048Y397396D01*
X159136Y397348D01*
X159159Y397344D01*
X159181Y397334D01*
X159280Y397323D01*
X159378Y397306D01*
X159402Y397309D01*
X159426Y397307D01*
X159523Y397328D01*
X159621Y397343D01*
X159642Y397354D01*
X159666Y397359D01*
X159751Y397410D01*
X159840Y397456D01*
X159856Y397473D01*
X159877Y397485D01*
X159942Y397561D01*
X160011Y397632D01*
X160021Y397654D01*
X160037Y397672D01*
X160074Y397764D01*
X160117Y397854D01*
X160120Y397878D01*
X160129Y397900D01*
X160147Y398067D01*
X160147Y446835D01*
X160137Y446899D01*
X160136Y446965D01*
X160113Y447045D01*
X160108Y447077D01*
X160099Y447095D01*
X160089Y447126D01*
X159109Y449492D01*
X159109Y453308D01*
X160569Y456833D01*
X163267Y459531D01*
X166792Y460991D01*
X170608Y460991D01*
X174133Y459531D01*
X176831Y456833D01*
X178291Y453308D01*
X178291Y449492D01*
X176831Y445967D01*
X174133Y443269D01*
X171719Y442270D01*
X171620Y442208D01*
X171519Y442148D01*
X171515Y442143D01*
X171510Y442140D01*
X171435Y442050D01*
X171359Y441961D01*
X171357Y441955D01*
X171353Y441950D01*
X171311Y441842D01*
X171267Y441733D01*
X171266Y441725D01*
X171265Y441721D01*
X171264Y441703D01*
X171249Y441566D01*
X171249Y306396D01*
X170404Y304356D01*
X168842Y302794D01*
X166802Y301949D01*
X103861Y301949D01*
X103771Y301935D01*
X103680Y301927D01*
X103650Y301915D01*
X103618Y301910D01*
X103538Y301867D01*
X103454Y301831D01*
X103422Y301805D01*
X103401Y301794D01*
X103379Y301771D01*
X103323Y301726D01*
X100898Y299302D01*
X97344Y297829D01*
X78256Y297829D01*
G37*
%LPD*%
%LPC*%
G36*
X78256Y323229D02*
X78256Y323229D01*
X74702Y324702D01*
X71982Y327422D01*
X70509Y330976D01*
X70509Y334824D01*
X71982Y338378D01*
X74702Y341098D01*
X78256Y342571D01*
X97344Y342571D01*
X100898Y341098D01*
X102023Y339974D01*
X102097Y339921D01*
X102166Y339861D01*
X102196Y339849D01*
X102223Y339830D01*
X102309Y339803D01*
X102394Y339769D01*
X102435Y339765D01*
X102458Y339758D01*
X102490Y339759D01*
X102561Y339751D01*
X110888Y339751D01*
X110908Y339754D01*
X110927Y339752D01*
X111029Y339774D01*
X111131Y339790D01*
X111148Y339800D01*
X111168Y339804D01*
X111257Y339857D01*
X111348Y339906D01*
X111362Y339920D01*
X111379Y339930D01*
X111446Y340009D01*
X111518Y340084D01*
X111526Y340102D01*
X111539Y340117D01*
X111578Y340213D01*
X111621Y340307D01*
X111623Y340327D01*
X111631Y340345D01*
X111649Y340512D01*
X111649Y342549D01*
X112851Y343751D01*
X113888Y343751D01*
X113908Y343754D01*
X113927Y343752D01*
X114029Y343774D01*
X114131Y343790D01*
X114148Y343800D01*
X114168Y343804D01*
X114257Y343857D01*
X114348Y343906D01*
X114362Y343920D01*
X114379Y343930D01*
X114446Y344009D01*
X114518Y344084D01*
X114526Y344102D01*
X114539Y344117D01*
X114578Y344213D01*
X114621Y344307D01*
X114623Y344327D01*
X114631Y344345D01*
X114649Y344512D01*
X114649Y376388D01*
X114646Y376408D01*
X114648Y376427D01*
X114626Y376529D01*
X114610Y376631D01*
X114600Y376648D01*
X114596Y376668D01*
X114543Y376757D01*
X114494Y376848D01*
X114480Y376862D01*
X114470Y376879D01*
X114391Y376946D01*
X114316Y377018D01*
X114298Y377026D01*
X114283Y377039D01*
X114187Y377078D01*
X114093Y377121D01*
X114073Y377123D01*
X114055Y377131D01*
X113888Y377149D01*
X111351Y377149D01*
X110149Y378351D01*
X110149Y398049D01*
X111351Y399251D01*
X123086Y399251D01*
X123176Y399265D01*
X123267Y399273D01*
X123296Y399285D01*
X123328Y399290D01*
X123409Y399333D01*
X123493Y399369D01*
X123525Y399395D01*
X123546Y399406D01*
X123568Y399429D01*
X123624Y399474D01*
X137926Y413776D01*
X137979Y413850D01*
X138039Y413920D01*
X138051Y413950D01*
X138070Y413976D01*
X138097Y414063D01*
X138131Y414148D01*
X138135Y414189D01*
X138142Y414211D01*
X138141Y414243D01*
X138149Y414315D01*
X138149Y443072D01*
X138135Y443162D01*
X138127Y443253D01*
X138115Y443283D01*
X138110Y443315D01*
X138067Y443396D01*
X138031Y443479D01*
X138005Y443512D01*
X137994Y443532D01*
X137971Y443554D01*
X137926Y443610D01*
X135569Y445967D01*
X134109Y449492D01*
X134109Y453308D01*
X135569Y456833D01*
X138267Y459531D01*
X141792Y460991D01*
X145608Y460991D01*
X149133Y459531D01*
X151831Y456833D01*
X153291Y453308D01*
X153291Y449492D01*
X151831Y445967D01*
X149474Y443610D01*
X149421Y443536D01*
X149361Y443467D01*
X149349Y443437D01*
X149330Y443411D01*
X149303Y443324D01*
X149269Y443239D01*
X149265Y443198D01*
X149258Y443176D01*
X149259Y443143D01*
X149251Y443072D01*
X149251Y410596D01*
X148406Y408556D01*
X140890Y401040D01*
X140848Y400982D01*
X140799Y400930D01*
X140777Y400883D01*
X140747Y400841D01*
X140726Y400772D01*
X140695Y400707D01*
X140690Y400655D01*
X140674Y400605D01*
X140676Y400534D01*
X140668Y400463D01*
X140679Y400412D01*
X140681Y400360D01*
X140705Y400292D01*
X140720Y400222D01*
X140747Y400177D01*
X140765Y400129D01*
X140810Y400073D01*
X140847Y400011D01*
X140886Y399977D01*
X140919Y399937D01*
X140979Y399898D01*
X141034Y399851D01*
X141082Y399832D01*
X141126Y399804D01*
X141195Y399786D01*
X141262Y399759D01*
X141333Y399751D01*
X141364Y399743D01*
X141388Y399745D01*
X141428Y399741D01*
X146677Y399741D01*
X146677Y389723D01*
X137659Y389723D01*
X137659Y395972D01*
X137648Y396042D01*
X137646Y396114D01*
X137628Y396163D01*
X137620Y396214D01*
X137586Y396278D01*
X137561Y396345D01*
X137529Y396386D01*
X137504Y396432D01*
X137453Y396481D01*
X137408Y396537D01*
X137364Y396565D01*
X137326Y396601D01*
X137261Y396631D01*
X137201Y396670D01*
X137150Y396683D01*
X137103Y396705D01*
X137032Y396713D01*
X136962Y396730D01*
X136910Y396726D01*
X136859Y396732D01*
X136788Y396717D01*
X136717Y396711D01*
X136669Y396691D01*
X136618Y396680D01*
X136557Y396643D01*
X136491Y396615D01*
X136435Y396570D01*
X136407Y396553D01*
X136392Y396536D01*
X136360Y396510D01*
X130474Y390624D01*
X130421Y390550D01*
X130361Y390480D01*
X130349Y390450D01*
X130330Y390424D01*
X130303Y390337D01*
X130269Y390252D01*
X130265Y390211D01*
X130258Y390189D01*
X130259Y390157D01*
X130251Y390086D01*
X130251Y378351D01*
X129049Y377149D01*
X126512Y377149D01*
X126492Y377146D01*
X126473Y377148D01*
X126371Y377126D01*
X126269Y377110D01*
X126252Y377100D01*
X126232Y377096D01*
X126143Y377043D01*
X126052Y376994D01*
X126038Y376980D01*
X126021Y376970D01*
X125954Y376891D01*
X125882Y376816D01*
X125874Y376798D01*
X125861Y376783D01*
X125822Y376687D01*
X125779Y376593D01*
X125777Y376573D01*
X125769Y376555D01*
X125751Y376388D01*
X125751Y344512D01*
X125754Y344492D01*
X125752Y344473D01*
X125774Y344371D01*
X125790Y344269D01*
X125800Y344252D01*
X125804Y344232D01*
X125857Y344143D01*
X125906Y344052D01*
X125920Y344038D01*
X125930Y344021D01*
X126009Y343954D01*
X126084Y343882D01*
X126102Y343874D01*
X126117Y343861D01*
X126213Y343822D01*
X126307Y343779D01*
X126327Y343777D01*
X126345Y343769D01*
X126512Y343751D01*
X127549Y343751D01*
X128753Y342547D01*
X128755Y342536D01*
X128752Y342512D01*
X128774Y342415D01*
X128790Y342317D01*
X128802Y342296D01*
X128807Y342272D01*
X128859Y342187D01*
X128906Y342100D01*
X128923Y342083D01*
X128936Y342063D01*
X129012Y341999D01*
X129084Y341930D01*
X129106Y341920D01*
X129124Y341905D01*
X129217Y341869D01*
X129307Y341827D01*
X129331Y341824D01*
X129353Y341815D01*
X129453Y341811D01*
X129551Y341800D01*
X129575Y341805D01*
X129599Y341804D01*
X129695Y341831D01*
X129792Y341852D01*
X129813Y341864D01*
X129836Y341871D01*
X129918Y341927D01*
X130003Y341978D01*
X130019Y341996D01*
X130038Y342010D01*
X130098Y342089D01*
X130163Y342165D01*
X130172Y342188D01*
X130186Y342207D01*
X130247Y342363D01*
X130332Y342681D01*
X130667Y343260D01*
X131140Y343733D01*
X131719Y344068D01*
X132366Y344241D01*
X137677Y344241D01*
X137677Y334962D01*
X137680Y334942D01*
X137678Y334923D01*
X137700Y334821D01*
X137717Y334719D01*
X137726Y334702D01*
X137730Y334682D01*
X137783Y334593D01*
X137832Y334502D01*
X137846Y334488D01*
X137856Y334471D01*
X137935Y334404D01*
X138010Y334333D01*
X138028Y334324D01*
X138043Y334311D01*
X138139Y334272D01*
X138233Y334229D01*
X138253Y334227D01*
X138271Y334219D01*
X138438Y334201D01*
X139201Y334201D01*
X139201Y334199D01*
X138438Y334199D01*
X138418Y334196D01*
X138399Y334198D01*
X138297Y334176D01*
X138195Y334159D01*
X138178Y334150D01*
X138158Y334146D01*
X138069Y334093D01*
X137978Y334044D01*
X137964Y334030D01*
X137947Y334020D01*
X137880Y333941D01*
X137809Y333866D01*
X137800Y333848D01*
X137787Y333833D01*
X137748Y333737D01*
X137705Y333643D01*
X137703Y333623D01*
X137695Y333605D01*
X137677Y333438D01*
X137677Y324159D01*
X132366Y324159D01*
X131719Y324332D01*
X131140Y324667D01*
X130667Y325140D01*
X130332Y325719D01*
X130247Y326037D01*
X130237Y326059D01*
X130233Y326083D01*
X130187Y326170D01*
X130146Y326261D01*
X130130Y326279D01*
X130118Y326300D01*
X130047Y326368D01*
X129979Y326441D01*
X129958Y326453D01*
X129940Y326470D01*
X129850Y326511D01*
X129763Y326559D01*
X129739Y326563D01*
X129717Y326573D01*
X129618Y326584D01*
X129520Y326601D01*
X129496Y326598D01*
X129473Y326600D01*
X129376Y326579D01*
X129277Y326564D01*
X129256Y326553D01*
X129232Y326548D01*
X129147Y326497D01*
X129058Y326451D01*
X129042Y326434D01*
X129021Y326422D01*
X128956Y326346D01*
X128887Y326275D01*
X128877Y326253D01*
X128861Y326235D01*
X128824Y326143D01*
X128781Y326053D01*
X128778Y326029D01*
X128769Y326007D01*
X128752Y325852D01*
X127549Y324649D01*
X112851Y324649D01*
X111649Y325851D01*
X111649Y327888D01*
X111646Y327908D01*
X111648Y327927D01*
X111626Y328029D01*
X111610Y328131D01*
X111600Y328148D01*
X111596Y328168D01*
X111543Y328257D01*
X111494Y328348D01*
X111480Y328362D01*
X111470Y328379D01*
X111391Y328446D01*
X111316Y328518D01*
X111298Y328526D01*
X111283Y328539D01*
X111187Y328578D01*
X111093Y328621D01*
X111073Y328623D01*
X111055Y328631D01*
X110888Y328649D01*
X104635Y328649D01*
X104521Y328630D01*
X104405Y328613D01*
X104399Y328611D01*
X104393Y328610D01*
X104290Y328555D01*
X104185Y328502D01*
X104181Y328497D01*
X104175Y328494D01*
X104095Y328410D01*
X104013Y328326D01*
X104009Y328320D01*
X104006Y328316D01*
X103998Y328299D01*
X103932Y328179D01*
X103618Y327422D01*
X100898Y324702D01*
X97344Y323229D01*
X78256Y323229D01*
G37*
%LPD*%
%LPC*%
G36*
X78256Y196229D02*
X78256Y196229D01*
X74702Y197702D01*
X72277Y200126D01*
X72203Y200179D01*
X72134Y200239D01*
X72104Y200251D01*
X72077Y200270D01*
X71991Y200297D01*
X71906Y200331D01*
X71865Y200335D01*
X71842Y200342D01*
X71810Y200341D01*
X71739Y200349D01*
X60212Y200349D01*
X60192Y200346D01*
X60173Y200348D01*
X60071Y200326D01*
X59969Y200310D01*
X59952Y200300D01*
X59932Y200296D01*
X59843Y200243D01*
X59752Y200194D01*
X59738Y200180D01*
X59721Y200170D01*
X59654Y200091D01*
X59582Y200016D01*
X59574Y199998D01*
X59561Y199983D01*
X59522Y199887D01*
X59479Y199793D01*
X59477Y199773D01*
X59469Y199755D01*
X59451Y199588D01*
X59451Y197851D01*
X58249Y196649D01*
X41551Y196649D01*
X40349Y197851D01*
X40349Y212549D01*
X41551Y213751D01*
X58249Y213751D01*
X59451Y212549D01*
X59451Y212212D01*
X59454Y212192D01*
X59452Y212173D01*
X59474Y212071D01*
X59490Y211969D01*
X59500Y211952D01*
X59504Y211932D01*
X59557Y211843D01*
X59606Y211752D01*
X59620Y211738D01*
X59630Y211721D01*
X59709Y211654D01*
X59784Y211582D01*
X59802Y211574D01*
X59817Y211561D01*
X59913Y211522D01*
X60007Y211479D01*
X60027Y211477D01*
X60045Y211469D01*
X60212Y211451D01*
X71739Y211451D01*
X71829Y211465D01*
X71920Y211473D01*
X71950Y211485D01*
X71982Y211490D01*
X72062Y211533D01*
X72146Y211569D01*
X72178Y211595D01*
X72199Y211606D01*
X72221Y211629D01*
X72277Y211674D01*
X74702Y214098D01*
X78256Y215571D01*
X89306Y215571D01*
X89396Y215585D01*
X89487Y215593D01*
X89516Y215605D01*
X89548Y215610D01*
X89629Y215653D01*
X89713Y215689D01*
X89745Y215715D01*
X89766Y215726D01*
X89788Y215749D01*
X89844Y215794D01*
X94380Y220330D01*
X94422Y220388D01*
X94471Y220440D01*
X94493Y220487D01*
X94523Y220529D01*
X94544Y220598D01*
X94575Y220663D01*
X94580Y220715D01*
X94596Y220765D01*
X94594Y220836D01*
X94602Y220907D01*
X94591Y220958D01*
X94589Y221010D01*
X94565Y221078D01*
X94550Y221148D01*
X94523Y221192D01*
X94505Y221241D01*
X94460Y221297D01*
X94423Y221359D01*
X94384Y221393D01*
X94351Y221433D01*
X94291Y221472D01*
X94236Y221519D01*
X94188Y221538D01*
X94144Y221566D01*
X94075Y221584D01*
X94008Y221611D01*
X93937Y221619D01*
X93906Y221627D01*
X93882Y221625D01*
X93842Y221629D01*
X78256Y221629D01*
X74702Y223102D01*
X71982Y225822D01*
X70509Y229376D01*
X70509Y233224D01*
X71982Y236778D01*
X74702Y239498D01*
X78256Y240971D01*
X97344Y240971D01*
X100898Y239498D01*
X103618Y236778D01*
X105091Y233224D01*
X105091Y232033D01*
X105102Y231962D01*
X105104Y231891D01*
X105122Y231842D01*
X105130Y231790D01*
X105164Y231727D01*
X105189Y231660D01*
X105221Y231619D01*
X105246Y231573D01*
X105298Y231524D01*
X105342Y231468D01*
X105386Y231440D01*
X105424Y231404D01*
X105489Y231374D01*
X105549Y231335D01*
X105600Y231322D01*
X105647Y231300D01*
X105718Y231292D01*
X105788Y231275D01*
X105840Y231279D01*
X105891Y231273D01*
X105962Y231288D01*
X106033Y231294D01*
X106081Y231314D01*
X106132Y231325D01*
X106193Y231362D01*
X106259Y231390D01*
X106315Y231435D01*
X106343Y231451D01*
X106358Y231469D01*
X106390Y231495D01*
X107826Y232931D01*
X107879Y233005D01*
X107939Y233074D01*
X107951Y233104D01*
X107970Y233131D01*
X107997Y233218D01*
X108031Y233303D01*
X108035Y233343D01*
X108042Y233366D01*
X108041Y233398D01*
X108049Y233469D01*
X108049Y238494D01*
X109251Y239696D01*
X136349Y239696D01*
X137551Y238494D01*
X137551Y226646D01*
X136349Y225444D01*
X116355Y225444D01*
X116265Y225430D01*
X116174Y225422D01*
X116144Y225410D01*
X116112Y225405D01*
X116031Y225362D01*
X115947Y225326D01*
X115915Y225300D01*
X115895Y225289D01*
X115872Y225266D01*
X115816Y225221D01*
X104020Y213424D01*
X103342Y213144D01*
X103303Y213119D01*
X103259Y213104D01*
X103199Y213055D01*
X103132Y213014D01*
X103103Y212979D01*
X103067Y212950D01*
X103025Y212884D01*
X102976Y212824D01*
X102959Y212782D01*
X102934Y212743D01*
X102915Y212667D01*
X102887Y212595D01*
X102886Y212549D01*
X102874Y212504D01*
X102880Y212427D01*
X102877Y212349D01*
X102890Y212305D01*
X102893Y212259D01*
X102924Y212188D01*
X102946Y212113D01*
X102972Y212075D01*
X102990Y212033D01*
X103075Y211926D01*
X103086Y211911D01*
X103090Y211908D01*
X103095Y211902D01*
X103618Y211378D01*
X105091Y207824D01*
X105091Y203976D01*
X103618Y200422D01*
X100898Y197702D01*
X97344Y196229D01*
X78256Y196229D01*
G37*
%LPD*%
%LPC*%
G36*
X154323Y216159D02*
X154323Y216159D01*
X154323Y225438D01*
X154320Y225458D01*
X154322Y225477D01*
X154300Y225579D01*
X154283Y225681D01*
X154274Y225698D01*
X154270Y225718D01*
X154217Y225807D01*
X154168Y225898D01*
X154154Y225912D01*
X154144Y225929D01*
X154065Y225996D01*
X153990Y226067D01*
X153972Y226076D01*
X153957Y226089D01*
X153861Y226128D01*
X153767Y226171D01*
X153747Y226173D01*
X153729Y226181D01*
X153562Y226199D01*
X152799Y226199D01*
X152799Y226201D01*
X153562Y226201D01*
X153582Y226204D01*
X153601Y226202D01*
X153703Y226224D01*
X153805Y226241D01*
X153822Y226250D01*
X153842Y226254D01*
X153931Y226307D01*
X154022Y226356D01*
X154036Y226370D01*
X154053Y226380D01*
X154120Y226459D01*
X154191Y226534D01*
X154200Y226552D01*
X154213Y226567D01*
X154252Y226663D01*
X154295Y226757D01*
X154297Y226777D01*
X154305Y226795D01*
X154323Y226962D01*
X154323Y236241D01*
X159634Y236241D01*
X160281Y236068D01*
X160860Y235733D01*
X161333Y235260D01*
X161668Y234681D01*
X161753Y234363D01*
X161763Y234341D01*
X161767Y234317D01*
X161813Y234230D01*
X161854Y234139D01*
X161870Y234121D01*
X161882Y234100D01*
X161953Y234032D01*
X162021Y233959D01*
X162042Y233947D01*
X162060Y233930D01*
X162150Y233889D01*
X162237Y233841D01*
X162261Y233837D01*
X162283Y233827D01*
X162382Y233816D01*
X162480Y233799D01*
X162504Y233802D01*
X162527Y233800D01*
X162624Y233821D01*
X162723Y233836D01*
X162744Y233847D01*
X162768Y233852D01*
X162853Y233903D01*
X162942Y233949D01*
X162958Y233966D01*
X162979Y233978D01*
X163044Y234054D01*
X163113Y234125D01*
X163123Y234147D01*
X163139Y234165D01*
X163176Y234257D01*
X163219Y234347D01*
X163222Y234371D01*
X163231Y234393D01*
X163248Y234548D01*
X164451Y235751D01*
X179149Y235751D01*
X180351Y234549D01*
X180351Y232512D01*
X180354Y232492D01*
X180352Y232473D01*
X180374Y232371D01*
X180390Y232269D01*
X180400Y232252D01*
X180404Y232232D01*
X180457Y232143D01*
X180506Y232052D01*
X180520Y232038D01*
X180530Y232021D01*
X180609Y231954D01*
X180684Y231882D01*
X180702Y231874D01*
X180717Y231861D01*
X180813Y231822D01*
X180907Y231779D01*
X180927Y231777D01*
X180945Y231769D01*
X181112Y231751D01*
X205288Y231751D01*
X205308Y231754D01*
X205327Y231752D01*
X205429Y231774D01*
X205531Y231790D01*
X205548Y231800D01*
X205568Y231804D01*
X205657Y231857D01*
X205748Y231906D01*
X205762Y231920D01*
X205779Y231930D01*
X205846Y232009D01*
X205918Y232084D01*
X205926Y232102D01*
X205939Y232117D01*
X205978Y232213D01*
X206021Y232307D01*
X206023Y232327D01*
X206031Y232345D01*
X206049Y232512D01*
X206049Y237349D01*
X207251Y238551D01*
X226949Y238551D01*
X228226Y237274D01*
X228300Y237221D01*
X228370Y237161D01*
X228400Y237149D01*
X228426Y237130D01*
X228513Y237103D01*
X228598Y237069D01*
X228639Y237065D01*
X228661Y237058D01*
X228693Y237059D01*
X228765Y237051D01*
X247899Y237051D01*
X248014Y237070D01*
X248130Y237087D01*
X248135Y237089D01*
X248142Y237090D01*
X248244Y237145D01*
X248349Y237198D01*
X248353Y237203D01*
X248359Y237206D01*
X248439Y237290D01*
X248521Y237374D01*
X248525Y237380D01*
X248528Y237384D01*
X248536Y237401D01*
X248602Y237521D01*
X249082Y238678D01*
X251802Y241398D01*
X255356Y242871D01*
X274444Y242871D01*
X277998Y241398D01*
X280718Y238678D01*
X282191Y235124D01*
X282191Y231276D01*
X280718Y227722D01*
X277998Y225002D01*
X274444Y223529D01*
X255356Y223529D01*
X251802Y225002D01*
X251077Y225726D01*
X251003Y225779D01*
X250934Y225839D01*
X250904Y225851D01*
X250877Y225870D01*
X250791Y225897D01*
X250706Y225931D01*
X250665Y225935D01*
X250642Y225942D01*
X250610Y225941D01*
X250539Y225949D01*
X228765Y225949D01*
X228675Y225935D01*
X228584Y225927D01*
X228554Y225915D01*
X228522Y225910D01*
X228441Y225867D01*
X228357Y225831D01*
X228325Y225805D01*
X228305Y225794D01*
X228282Y225771D01*
X228226Y225726D01*
X226949Y224449D01*
X218215Y224449D01*
X218124Y224435D01*
X218034Y224427D01*
X218004Y224415D01*
X217972Y224410D01*
X217891Y224367D01*
X217807Y224331D01*
X217775Y224305D01*
X217754Y224294D01*
X217732Y224271D01*
X217676Y224226D01*
X214944Y221494D01*
X212904Y220649D01*
X181112Y220649D01*
X181092Y220646D01*
X181073Y220648D01*
X180971Y220626D01*
X180869Y220610D01*
X180852Y220600D01*
X180832Y220596D01*
X180743Y220543D01*
X180652Y220494D01*
X180638Y220480D01*
X180621Y220470D01*
X180554Y220391D01*
X180482Y220316D01*
X180474Y220298D01*
X180461Y220283D01*
X180422Y220187D01*
X180379Y220093D01*
X180377Y220073D01*
X180369Y220055D01*
X180351Y219888D01*
X180351Y217851D01*
X179149Y216649D01*
X164451Y216649D01*
X163247Y217853D01*
X163245Y217864D01*
X163248Y217888D01*
X163226Y217985D01*
X163210Y218083D01*
X163198Y218104D01*
X163193Y218128D01*
X163141Y218213D01*
X163094Y218300D01*
X163077Y218317D01*
X163064Y218337D01*
X162988Y218401D01*
X162916Y218470D01*
X162894Y218480D01*
X162876Y218495D01*
X162783Y218531D01*
X162693Y218573D01*
X162669Y218576D01*
X162647Y218585D01*
X162547Y218589D01*
X162449Y218600D01*
X162425Y218595D01*
X162401Y218596D01*
X162305Y218569D01*
X162208Y218548D01*
X162187Y218536D01*
X162164Y218529D01*
X162082Y218473D01*
X161997Y218422D01*
X161981Y218404D01*
X161962Y218390D01*
X161902Y218311D01*
X161837Y218235D01*
X161828Y218212D01*
X161814Y218193D01*
X161753Y218037D01*
X161668Y217719D01*
X161333Y217140D01*
X160860Y216667D01*
X160281Y216332D01*
X159634Y216159D01*
X154323Y216159D01*
G37*
%LPD*%
%LPC*%
G36*
X255356Y248929D02*
X255356Y248929D01*
X251802Y250402D01*
X251477Y250726D01*
X251403Y250779D01*
X251334Y250839D01*
X251304Y250851D01*
X251277Y250870D01*
X251191Y250897D01*
X251106Y250931D01*
X251065Y250935D01*
X251042Y250942D01*
X251010Y250941D01*
X250939Y250949D01*
X228765Y250949D01*
X228675Y250935D01*
X228584Y250927D01*
X228554Y250915D01*
X228522Y250910D01*
X228441Y250867D01*
X228357Y250831D01*
X228325Y250805D01*
X228305Y250794D01*
X228282Y250771D01*
X228226Y250726D01*
X226949Y249449D01*
X207251Y249449D01*
X205974Y250726D01*
X205900Y250779D01*
X205830Y250839D01*
X205800Y250851D01*
X205774Y250870D01*
X205687Y250897D01*
X205602Y250931D01*
X205561Y250935D01*
X205539Y250942D01*
X205507Y250941D01*
X205435Y250949D01*
X178565Y250949D01*
X178475Y250935D01*
X178384Y250927D01*
X178354Y250915D01*
X178322Y250910D01*
X178241Y250867D01*
X178157Y250831D01*
X178125Y250805D01*
X178105Y250794D01*
X178082Y250771D01*
X178026Y250726D01*
X177449Y250149D01*
X162751Y250149D01*
X161547Y251353D01*
X161545Y251364D01*
X161548Y251388D01*
X161526Y251485D01*
X161510Y251583D01*
X161498Y251604D01*
X161493Y251628D01*
X161441Y251712D01*
X161394Y251800D01*
X161377Y251817D01*
X161364Y251837D01*
X161288Y251901D01*
X161216Y251970D01*
X161194Y251980D01*
X161176Y251995D01*
X161083Y252031D01*
X160993Y252073D01*
X160969Y252076D01*
X160947Y252085D01*
X160847Y252089D01*
X160749Y252100D01*
X160725Y252095D01*
X160701Y252096D01*
X160605Y252069D01*
X160508Y252048D01*
X160488Y252036D01*
X160464Y252029D01*
X160382Y251973D01*
X160297Y251922D01*
X160281Y251904D01*
X160262Y251890D01*
X160202Y251810D01*
X160137Y251735D01*
X160128Y251713D01*
X160114Y251693D01*
X160053Y251537D01*
X159968Y251219D01*
X159633Y250640D01*
X159160Y250167D01*
X158581Y249832D01*
X157934Y249659D01*
X152623Y249659D01*
X152623Y258938D01*
X152620Y258958D01*
X152622Y258977D01*
X152600Y259079D01*
X152583Y259181D01*
X152574Y259198D01*
X152570Y259218D01*
X152517Y259307D01*
X152468Y259398D01*
X152454Y259412D01*
X152444Y259429D01*
X152365Y259496D01*
X152290Y259567D01*
X152272Y259576D01*
X152257Y259589D01*
X152161Y259628D01*
X152067Y259671D01*
X152047Y259673D01*
X152029Y259681D01*
X151862Y259699D01*
X151099Y259699D01*
X151099Y259701D01*
X151862Y259701D01*
X151882Y259704D01*
X151901Y259702D01*
X152003Y259724D01*
X152105Y259741D01*
X152122Y259750D01*
X152142Y259754D01*
X152231Y259807D01*
X152322Y259856D01*
X152336Y259870D01*
X152353Y259880D01*
X152420Y259959D01*
X152491Y260034D01*
X152500Y260052D01*
X152513Y260067D01*
X152552Y260163D01*
X152595Y260257D01*
X152597Y260277D01*
X152605Y260295D01*
X152623Y260462D01*
X152623Y269741D01*
X157934Y269741D01*
X158581Y269568D01*
X159160Y269233D01*
X159633Y268760D01*
X159968Y268181D01*
X160053Y267863D01*
X160063Y267841D01*
X160067Y267817D01*
X160113Y267730D01*
X160154Y267639D01*
X160170Y267621D01*
X160182Y267600D01*
X160253Y267532D01*
X160321Y267459D01*
X160342Y267447D01*
X160360Y267430D01*
X160450Y267389D01*
X160537Y267341D01*
X160561Y267337D01*
X160583Y267327D01*
X160682Y267316D01*
X160780Y267299D01*
X160804Y267302D01*
X160827Y267300D01*
X160924Y267321D01*
X161023Y267336D01*
X161044Y267347D01*
X161068Y267352D01*
X161153Y267403D01*
X161242Y267449D01*
X161258Y267466D01*
X161279Y267478D01*
X161344Y267554D01*
X161413Y267625D01*
X161423Y267647D01*
X161439Y267665D01*
X161476Y267758D01*
X161519Y267847D01*
X161522Y267871D01*
X161531Y267893D01*
X161548Y268048D01*
X162751Y269251D01*
X177449Y269251D01*
X178651Y268049D01*
X178651Y262812D01*
X178654Y262792D01*
X178652Y262773D01*
X178674Y262671D01*
X178690Y262569D01*
X178700Y262552D01*
X178704Y262532D01*
X178757Y262443D01*
X178806Y262352D01*
X178820Y262338D01*
X178830Y262321D01*
X178909Y262254D01*
X178984Y262182D01*
X179002Y262174D01*
X179017Y262161D01*
X179113Y262122D01*
X179207Y262079D01*
X179227Y262077D01*
X179245Y262069D01*
X179412Y262051D01*
X205435Y262051D01*
X205525Y262065D01*
X205616Y262073D01*
X205646Y262085D01*
X205678Y262090D01*
X205759Y262133D01*
X205843Y262169D01*
X205875Y262195D01*
X205895Y262206D01*
X205918Y262229D01*
X205974Y262274D01*
X207251Y263551D01*
X226949Y263551D01*
X228226Y262274D01*
X228300Y262221D01*
X228370Y262161D01*
X228400Y262149D01*
X228426Y262130D01*
X228513Y262103D01*
X228598Y262069D01*
X228639Y262065D01*
X228661Y262058D01*
X228693Y262059D01*
X228765Y262051D01*
X247733Y262051D01*
X247848Y262070D01*
X247964Y262087D01*
X247970Y262089D01*
X247976Y262090D01*
X248079Y262145D01*
X248183Y262198D01*
X248188Y262203D01*
X248193Y262206D01*
X248273Y262290D01*
X248356Y262374D01*
X248359Y262380D01*
X248363Y262384D01*
X248370Y262401D01*
X248436Y262521D01*
X249082Y264078D01*
X251802Y266798D01*
X255356Y268271D01*
X274444Y268271D01*
X277998Y266798D01*
X280718Y264078D01*
X282191Y260524D01*
X282191Y256676D01*
X280718Y253122D01*
X277998Y250402D01*
X274444Y248929D01*
X255356Y248929D01*
G37*
%LPD*%
%LPC*%
G36*
X303899Y106699D02*
X303899Y106699D01*
X303899Y107462D01*
X303896Y107482D01*
X303898Y107501D01*
X303876Y107603D01*
X303859Y107705D01*
X303850Y107722D01*
X303846Y107742D01*
X303793Y107831D01*
X303744Y107922D01*
X303730Y107936D01*
X303720Y107953D01*
X303641Y108020D01*
X303566Y108091D01*
X303548Y108100D01*
X303533Y108113D01*
X303437Y108152D01*
X303343Y108195D01*
X303323Y108197D01*
X303305Y108205D01*
X303138Y108223D01*
X293859Y108223D01*
X293859Y113534D01*
X294032Y114181D01*
X294367Y114760D01*
X294840Y115233D01*
X295419Y115568D01*
X295737Y115653D01*
X295759Y115663D01*
X295783Y115667D01*
X295870Y115713D01*
X295961Y115754D01*
X295979Y115770D01*
X296000Y115782D01*
X296068Y115853D01*
X296141Y115921D01*
X296153Y115942D01*
X296170Y115960D01*
X296211Y116050D01*
X296259Y116137D01*
X296263Y116161D01*
X296273Y116183D01*
X296284Y116282D01*
X296301Y116380D01*
X296298Y116404D01*
X296300Y116427D01*
X296279Y116524D01*
X296264Y116623D01*
X296253Y116644D01*
X296248Y116668D01*
X296197Y116753D01*
X296151Y116842D01*
X296134Y116858D01*
X296122Y116879D01*
X296046Y116944D01*
X295975Y117013D01*
X295953Y117023D01*
X295935Y117039D01*
X295842Y117076D01*
X295753Y117119D01*
X295729Y117122D01*
X295707Y117131D01*
X295552Y117148D01*
X294349Y118351D01*
X294349Y133049D01*
X295551Y134251D01*
X297588Y134251D01*
X297608Y134254D01*
X297627Y134252D01*
X297729Y134274D01*
X297831Y134290D01*
X297848Y134300D01*
X297868Y134304D01*
X297957Y134357D01*
X298048Y134406D01*
X298062Y134420D01*
X298079Y134430D01*
X298146Y134509D01*
X298218Y134584D01*
X298226Y134602D01*
X298239Y134617D01*
X298278Y134713D01*
X298321Y134807D01*
X298323Y134827D01*
X298331Y134845D01*
X298349Y135012D01*
X298349Y145388D01*
X298346Y145408D01*
X298348Y145427D01*
X298326Y145529D01*
X298310Y145631D01*
X298300Y145648D01*
X298296Y145668D01*
X298243Y145757D01*
X298194Y145848D01*
X298180Y145862D01*
X298170Y145879D01*
X298091Y145946D01*
X298016Y146018D01*
X297998Y146026D01*
X297983Y146039D01*
X297887Y146078D01*
X297793Y146121D01*
X297773Y146123D01*
X297755Y146131D01*
X297588Y146149D01*
X295551Y146149D01*
X294349Y147351D01*
X294349Y149388D01*
X294346Y149408D01*
X294348Y149427D01*
X294326Y149529D01*
X294310Y149631D01*
X294300Y149648D01*
X294296Y149668D01*
X294243Y149757D01*
X294194Y149848D01*
X294180Y149862D01*
X294170Y149879D01*
X294091Y149946D01*
X294016Y150018D01*
X293998Y150026D01*
X293983Y150039D01*
X293887Y150078D01*
X293793Y150121D01*
X293773Y150123D01*
X293755Y150131D01*
X293588Y150149D01*
X279661Y150149D01*
X279571Y150135D01*
X279480Y150127D01*
X279450Y150115D01*
X279418Y150110D01*
X279338Y150067D01*
X279254Y150031D01*
X279222Y150005D01*
X279201Y149994D01*
X279179Y149971D01*
X279123Y149926D01*
X277998Y148802D01*
X274444Y147329D01*
X255356Y147329D01*
X251802Y148802D01*
X249082Y151522D01*
X247609Y155076D01*
X247609Y158924D01*
X249082Y162478D01*
X251802Y165198D01*
X255356Y166671D01*
X274444Y166671D01*
X277998Y165198D01*
X280718Y162478D01*
X281032Y161721D01*
X281094Y161621D01*
X281154Y161521D01*
X281158Y161517D01*
X281162Y161512D01*
X281252Y161437D01*
X281341Y161361D01*
X281346Y161359D01*
X281351Y161355D01*
X281460Y161313D01*
X281569Y161269D01*
X281576Y161268D01*
X281581Y161267D01*
X281599Y161266D01*
X281735Y161251D01*
X293588Y161251D01*
X293608Y161254D01*
X293627Y161252D01*
X293729Y161274D01*
X293831Y161290D01*
X293848Y161300D01*
X293868Y161304D01*
X293957Y161357D01*
X294048Y161406D01*
X294062Y161420D01*
X294079Y161430D01*
X294146Y161509D01*
X294218Y161584D01*
X294226Y161602D01*
X294239Y161617D01*
X294278Y161713D01*
X294321Y161807D01*
X294323Y161827D01*
X294331Y161845D01*
X294349Y162012D01*
X294349Y164049D01*
X295551Y165251D01*
X310249Y165251D01*
X311451Y164049D01*
X311451Y147351D01*
X310249Y146149D01*
X310212Y146149D01*
X310192Y146146D01*
X310173Y146148D01*
X310071Y146126D01*
X309969Y146110D01*
X309952Y146100D01*
X309932Y146096D01*
X309843Y146043D01*
X309752Y145994D01*
X309738Y145980D01*
X309721Y145970D01*
X309654Y145891D01*
X309582Y145816D01*
X309574Y145798D01*
X309561Y145783D01*
X309522Y145687D01*
X309479Y145593D01*
X309477Y145573D01*
X309469Y145555D01*
X309451Y145388D01*
X309451Y135012D01*
X309454Y134992D01*
X309452Y134973D01*
X309474Y134871D01*
X309490Y134769D01*
X309500Y134752D01*
X309504Y134732D01*
X309557Y134643D01*
X309606Y134552D01*
X309620Y134538D01*
X309630Y134521D01*
X309709Y134454D01*
X309784Y134382D01*
X309802Y134374D01*
X309817Y134361D01*
X309913Y134322D01*
X310007Y134279D01*
X310027Y134277D01*
X310045Y134269D01*
X310212Y134251D01*
X312249Y134251D01*
X313451Y133049D01*
X313451Y118351D01*
X312247Y117147D01*
X312236Y117145D01*
X312212Y117148D01*
X312115Y117126D01*
X312017Y117110D01*
X311996Y117098D01*
X311972Y117093D01*
X311888Y117041D01*
X311800Y116994D01*
X311783Y116977D01*
X311763Y116964D01*
X311699Y116888D01*
X311630Y116816D01*
X311620Y116794D01*
X311605Y116776D01*
X311569Y116683D01*
X311527Y116593D01*
X311524Y116569D01*
X311515Y116547D01*
X311511Y116447D01*
X311500Y116349D01*
X311505Y116325D01*
X311504Y116301D01*
X311531Y116205D01*
X311552Y116108D01*
X311564Y116088D01*
X311571Y116064D01*
X311627Y115982D01*
X311678Y115897D01*
X311696Y115881D01*
X311710Y115862D01*
X311790Y115802D01*
X311865Y115737D01*
X311887Y115728D01*
X311907Y115714D01*
X312063Y115653D01*
X312381Y115568D01*
X312960Y115233D01*
X313433Y114760D01*
X313768Y114181D01*
X313941Y113534D01*
X313941Y108223D01*
X304662Y108223D01*
X304642Y108220D01*
X304623Y108222D01*
X304521Y108200D01*
X304419Y108183D01*
X304402Y108174D01*
X304382Y108170D01*
X304293Y108117D01*
X304202Y108068D01*
X304188Y108054D01*
X304171Y108044D01*
X304104Y107965D01*
X304033Y107890D01*
X304024Y107872D01*
X304011Y107857D01*
X303972Y107761D01*
X303929Y107667D01*
X303927Y107647D01*
X303919Y107629D01*
X303901Y107462D01*
X303901Y106699D01*
X303899Y106699D01*
G37*
%LPD*%
%LPC*%
G36*
X193299Y335699D02*
X193299Y335699D01*
X193299Y336462D01*
X193296Y336482D01*
X193298Y336501D01*
X193276Y336603D01*
X193259Y336705D01*
X193250Y336722D01*
X193246Y336742D01*
X193193Y336831D01*
X193144Y336922D01*
X193130Y336936D01*
X193120Y336953D01*
X193041Y337020D01*
X192966Y337091D01*
X192948Y337100D01*
X192933Y337113D01*
X192837Y337152D01*
X192743Y337195D01*
X192723Y337197D01*
X192705Y337205D01*
X192538Y337223D01*
X183259Y337223D01*
X183259Y342534D01*
X183432Y343181D01*
X183767Y343760D01*
X184240Y344233D01*
X184819Y344568D01*
X185137Y344653D01*
X185159Y344663D01*
X185183Y344667D01*
X185270Y344713D01*
X185361Y344754D01*
X185379Y344770D01*
X185400Y344782D01*
X185468Y344853D01*
X185541Y344921D01*
X185553Y344942D01*
X185570Y344960D01*
X185611Y345050D01*
X185659Y345137D01*
X185663Y345161D01*
X185673Y345183D01*
X185684Y345282D01*
X185701Y345380D01*
X185698Y345404D01*
X185700Y345427D01*
X185679Y345524D01*
X185664Y345623D01*
X185653Y345644D01*
X185648Y345668D01*
X185597Y345753D01*
X185551Y345842D01*
X185534Y345858D01*
X185522Y345879D01*
X185446Y345944D01*
X185375Y346013D01*
X185353Y346023D01*
X185335Y346039D01*
X185242Y346076D01*
X185153Y346119D01*
X185129Y346122D01*
X185107Y346131D01*
X184952Y346148D01*
X183749Y347351D01*
X183749Y362049D01*
X184951Y363251D01*
X187388Y363251D01*
X187408Y363254D01*
X187427Y363252D01*
X187529Y363274D01*
X187631Y363290D01*
X187648Y363300D01*
X187668Y363304D01*
X187757Y363357D01*
X187848Y363406D01*
X187862Y363420D01*
X187879Y363430D01*
X187946Y363509D01*
X188018Y363584D01*
X188026Y363602D01*
X188039Y363617D01*
X188078Y363713D01*
X188121Y363807D01*
X188123Y363827D01*
X188131Y363845D01*
X188149Y364012D01*
X188149Y443072D01*
X188135Y443162D01*
X188127Y443253D01*
X188115Y443283D01*
X188110Y443315D01*
X188067Y443396D01*
X188031Y443479D01*
X188005Y443512D01*
X187994Y443532D01*
X187971Y443554D01*
X187926Y443610D01*
X185569Y445967D01*
X184109Y449492D01*
X184109Y453308D01*
X185569Y456833D01*
X188267Y459531D01*
X191792Y460991D01*
X195608Y460991D01*
X199133Y459531D01*
X201831Y456833D01*
X203291Y453308D01*
X203291Y449492D01*
X201831Y445967D01*
X199474Y443610D01*
X199421Y443536D01*
X199361Y443467D01*
X199349Y443437D01*
X199330Y443411D01*
X199303Y443324D01*
X199269Y443239D01*
X199265Y443198D01*
X199258Y443176D01*
X199259Y443143D01*
X199251Y443072D01*
X199251Y364012D01*
X199254Y363992D01*
X199252Y363973D01*
X199274Y363871D01*
X199290Y363769D01*
X199300Y363752D01*
X199304Y363732D01*
X199357Y363643D01*
X199406Y363552D01*
X199420Y363538D01*
X199430Y363521D01*
X199509Y363454D01*
X199584Y363382D01*
X199602Y363374D01*
X199617Y363361D01*
X199713Y363322D01*
X199807Y363279D01*
X199827Y363277D01*
X199845Y363269D01*
X200012Y363251D01*
X201649Y363251D01*
X202851Y362049D01*
X202851Y347351D01*
X201647Y346147D01*
X201636Y346145D01*
X201612Y346148D01*
X201515Y346126D01*
X201417Y346110D01*
X201396Y346098D01*
X201372Y346093D01*
X201288Y346041D01*
X201200Y345994D01*
X201183Y345977D01*
X201163Y345964D01*
X201099Y345888D01*
X201030Y345816D01*
X201020Y345794D01*
X201005Y345776D01*
X200969Y345683D01*
X200927Y345593D01*
X200924Y345569D01*
X200915Y345547D01*
X200911Y345447D01*
X200900Y345349D01*
X200905Y345325D01*
X200904Y345301D01*
X200931Y345205D01*
X200952Y345108D01*
X200964Y345088D01*
X200971Y345064D01*
X201027Y344982D01*
X201078Y344897D01*
X201096Y344881D01*
X201110Y344862D01*
X201190Y344802D01*
X201265Y344737D01*
X201287Y344728D01*
X201307Y344714D01*
X201463Y344653D01*
X201781Y344568D01*
X202360Y344233D01*
X202833Y343760D01*
X203168Y343181D01*
X203341Y342534D01*
X203341Y337223D01*
X194062Y337223D01*
X194042Y337220D01*
X194023Y337222D01*
X193921Y337200D01*
X193819Y337183D01*
X193802Y337174D01*
X193782Y337170D01*
X193693Y337117D01*
X193602Y337068D01*
X193588Y337054D01*
X193571Y337044D01*
X193504Y336965D01*
X193433Y336890D01*
X193424Y336872D01*
X193411Y336857D01*
X193372Y336761D01*
X193329Y336667D01*
X193327Y336647D01*
X193319Y336629D01*
X193301Y336462D01*
X193301Y335699D01*
X193299Y335699D01*
G37*
%LPD*%
%LPC*%
G36*
X120160Y498574D02*
X120160Y498574D01*
X111770Y502049D01*
X105349Y508470D01*
X101874Y516860D01*
X101874Y525940D01*
X105349Y534330D01*
X111770Y540751D01*
X120160Y544226D01*
X129240Y544226D01*
X137630Y540751D01*
X144051Y534330D01*
X147526Y525940D01*
X147526Y516860D01*
X144051Y508470D01*
X137630Y502049D01*
X129240Y498574D01*
X120160Y498574D01*
G37*
%LPD*%
%LPC*%
G36*
X208160Y498574D02*
X208160Y498574D01*
X199770Y502049D01*
X193349Y508470D01*
X189874Y516860D01*
X189874Y525940D01*
X193349Y534330D01*
X199770Y540751D01*
X208160Y544226D01*
X217240Y544226D01*
X225630Y540751D01*
X232051Y534330D01*
X235526Y525940D01*
X235526Y516860D01*
X232051Y508470D01*
X225630Y502049D01*
X217240Y498574D01*
X208160Y498574D01*
G37*
%LPD*%
%LPC*%
G36*
X255356Y198129D02*
X255356Y198129D01*
X251802Y199602D01*
X249082Y202322D01*
X247609Y205876D01*
X247609Y209724D01*
X249082Y213278D01*
X251802Y215998D01*
X255356Y217471D01*
X274444Y217471D01*
X277998Y215998D01*
X280423Y213574D01*
X280497Y213521D01*
X280566Y213461D01*
X280596Y213449D01*
X280623Y213430D01*
X280709Y213403D01*
X280794Y213369D01*
X280835Y213365D01*
X280858Y213358D01*
X280890Y213359D01*
X280961Y213351D01*
X286885Y213351D01*
X286976Y213365D01*
X287066Y213373D01*
X287096Y213385D01*
X287128Y213390D01*
X287209Y213433D01*
X287293Y213469D01*
X287325Y213495D01*
X287346Y213506D01*
X287368Y213529D01*
X287424Y213574D01*
X294626Y220776D01*
X294679Y220850D01*
X294739Y220920D01*
X294751Y220950D01*
X294770Y220976D01*
X294797Y221063D01*
X294831Y221148D01*
X294835Y221189D01*
X294842Y221211D01*
X294841Y221243D01*
X294849Y221315D01*
X294849Y230049D01*
X296051Y231251D01*
X310749Y231251D01*
X311951Y230049D01*
X311951Y213351D01*
X310749Y212149D01*
X302015Y212149D01*
X301924Y212135D01*
X301834Y212127D01*
X301804Y212115D01*
X301772Y212110D01*
X301691Y212067D01*
X301607Y212031D01*
X301575Y212005D01*
X301554Y211994D01*
X301532Y211971D01*
X301476Y211926D01*
X292644Y203094D01*
X290604Y202249D01*
X280961Y202249D01*
X280871Y202235D01*
X280780Y202227D01*
X280750Y202215D01*
X280718Y202210D01*
X280638Y202167D01*
X280554Y202131D01*
X280522Y202105D01*
X280501Y202094D01*
X280479Y202071D01*
X280423Y202026D01*
X277998Y199602D01*
X274444Y198129D01*
X255356Y198129D01*
G37*
%LPD*%
%LPC*%
G36*
X255356Y172729D02*
X255356Y172729D01*
X251802Y174202D01*
X249082Y176922D01*
X247609Y180476D01*
X247609Y184324D01*
X249082Y187878D01*
X251802Y190598D01*
X255356Y192071D01*
X274444Y192071D01*
X277998Y190598D01*
X280423Y188174D01*
X280497Y188121D01*
X280566Y188061D01*
X280596Y188049D01*
X280623Y188030D01*
X280709Y188003D01*
X280794Y187969D01*
X280835Y187965D01*
X280858Y187958D01*
X280890Y187959D01*
X280961Y187951D01*
X291985Y187951D01*
X292076Y187965D01*
X292166Y187973D01*
X292196Y187985D01*
X292228Y187990D01*
X292309Y188033D01*
X292393Y188069D01*
X292425Y188095D01*
X292446Y188106D01*
X292468Y188129D01*
X292524Y188174D01*
X294126Y189776D01*
X294179Y189850D01*
X294239Y189920D01*
X294251Y189950D01*
X294270Y189976D01*
X294297Y190063D01*
X294331Y190148D01*
X294335Y190189D01*
X294342Y190211D01*
X294341Y190243D01*
X294349Y190314D01*
X294349Y199049D01*
X295551Y200251D01*
X310249Y200251D01*
X311451Y199049D01*
X311451Y182351D01*
X310249Y181149D01*
X301514Y181149D01*
X301424Y181135D01*
X301333Y181127D01*
X301304Y181115D01*
X301272Y181110D01*
X301191Y181067D01*
X301107Y181031D01*
X301075Y181005D01*
X301054Y180994D01*
X301032Y180971D01*
X300976Y180926D01*
X299413Y179363D01*
X297744Y177694D01*
X295704Y176849D01*
X280961Y176849D01*
X280871Y176835D01*
X280780Y176827D01*
X280750Y176815D01*
X280718Y176810D01*
X280638Y176767D01*
X280554Y176731D01*
X280522Y176705D01*
X280501Y176694D01*
X280479Y176671D01*
X280423Y176626D01*
X277998Y174202D01*
X274444Y172729D01*
X255356Y172729D01*
G37*
%LPD*%
%LPC*%
G36*
X78256Y374029D02*
X78256Y374029D01*
X74702Y375502D01*
X71982Y378222D01*
X71378Y379679D01*
X71316Y379779D01*
X71256Y379879D01*
X71252Y379883D01*
X71248Y379888D01*
X71159Y379963D01*
X71069Y380039D01*
X71064Y380041D01*
X71059Y380045D01*
X70951Y380087D01*
X70841Y380131D01*
X70834Y380132D01*
X70829Y380133D01*
X70811Y380134D01*
X70675Y380149D01*
X58012Y380149D01*
X57992Y380146D01*
X57973Y380148D01*
X57871Y380126D01*
X57769Y380110D01*
X57752Y380100D01*
X57732Y380096D01*
X57643Y380043D01*
X57552Y379994D01*
X57538Y379980D01*
X57521Y379970D01*
X57454Y379891D01*
X57382Y379816D01*
X57374Y379798D01*
X57361Y379783D01*
X57322Y379687D01*
X57279Y379593D01*
X57277Y379573D01*
X57269Y379555D01*
X57251Y379388D01*
X57251Y378351D01*
X56049Y377149D01*
X39351Y377149D01*
X38149Y378351D01*
X38149Y393049D01*
X39351Y394251D01*
X56049Y394251D01*
X57251Y393049D01*
X57251Y392012D01*
X57254Y391992D01*
X57252Y391973D01*
X57274Y391871D01*
X57290Y391769D01*
X57300Y391752D01*
X57304Y391732D01*
X57357Y391643D01*
X57406Y391552D01*
X57420Y391538D01*
X57430Y391521D01*
X57509Y391454D01*
X57584Y391382D01*
X57602Y391374D01*
X57617Y391361D01*
X57713Y391322D01*
X57807Y391279D01*
X57827Y391277D01*
X57845Y391269D01*
X58012Y391251D01*
X73739Y391251D01*
X73829Y391265D01*
X73920Y391273D01*
X73950Y391285D01*
X73982Y391290D01*
X74062Y391333D01*
X74146Y391369D01*
X74178Y391395D01*
X74199Y391406D01*
X74221Y391429D01*
X74277Y391474D01*
X74702Y391898D01*
X78256Y393371D01*
X97344Y393371D01*
X100898Y391898D01*
X103618Y389178D01*
X105091Y385624D01*
X105091Y381776D01*
X103618Y378222D01*
X100898Y375502D01*
X97344Y374029D01*
X78256Y374029D01*
G37*
%LPD*%
%LPC*%
G36*
X144551Y112149D02*
X144551Y112149D01*
X143349Y113351D01*
X143349Y116388D01*
X143346Y116408D01*
X143348Y116427D01*
X143326Y116529D01*
X143310Y116631D01*
X143300Y116648D01*
X143296Y116668D01*
X143243Y116757D01*
X143194Y116848D01*
X143180Y116862D01*
X143170Y116879D01*
X143091Y116946D01*
X143016Y117018D01*
X142998Y117026D01*
X142983Y117039D01*
X142887Y117078D01*
X142793Y117121D01*
X142773Y117123D01*
X142755Y117131D01*
X142588Y117149D01*
X134012Y117149D01*
X133992Y117146D01*
X133973Y117148D01*
X133871Y117126D01*
X133769Y117110D01*
X133752Y117100D01*
X133732Y117096D01*
X133643Y117043D01*
X133552Y116994D01*
X133538Y116980D01*
X133521Y116970D01*
X133454Y116891D01*
X133382Y116816D01*
X133374Y116798D01*
X133361Y116783D01*
X133322Y116687D01*
X133279Y116593D01*
X133277Y116573D01*
X133269Y116555D01*
X133251Y116388D01*
X133251Y115351D01*
X132049Y114149D01*
X115351Y114149D01*
X114149Y115351D01*
X114149Y130049D01*
X115351Y131251D01*
X132049Y131251D01*
X133251Y130049D01*
X133251Y129012D01*
X133254Y128992D01*
X133252Y128973D01*
X133274Y128871D01*
X133290Y128769D01*
X133300Y128752D01*
X133304Y128732D01*
X133357Y128643D01*
X133406Y128552D01*
X133420Y128538D01*
X133430Y128521D01*
X133509Y128454D01*
X133584Y128382D01*
X133602Y128374D01*
X133617Y128361D01*
X133713Y128322D01*
X133807Y128279D01*
X133827Y128277D01*
X133845Y128269D01*
X134012Y128251D01*
X142588Y128251D01*
X142608Y128254D01*
X142627Y128252D01*
X142729Y128274D01*
X142831Y128290D01*
X142848Y128300D01*
X142868Y128304D01*
X142957Y128357D01*
X143048Y128406D01*
X143062Y128420D01*
X143079Y128430D01*
X143146Y128509D01*
X143218Y128584D01*
X143226Y128602D01*
X143239Y128617D01*
X143278Y128713D01*
X143321Y128807D01*
X143323Y128827D01*
X143331Y128845D01*
X143349Y129012D01*
X143349Y130049D01*
X144551Y131251D01*
X159249Y131251D01*
X160451Y130049D01*
X160451Y113351D01*
X159249Y112149D01*
X144551Y112149D01*
G37*
%LPD*%
%LPC*%
G36*
X255356Y350529D02*
X255356Y350529D01*
X251802Y352002D01*
X249082Y354722D01*
X247609Y358276D01*
X247609Y362124D01*
X249082Y365678D01*
X251802Y368398D01*
X255356Y369871D01*
X274444Y369871D01*
X277998Y368398D01*
X280718Y365678D01*
X282191Y362124D01*
X282191Y358276D01*
X280718Y354722D01*
X277998Y352002D01*
X274444Y350529D01*
X255356Y350529D01*
G37*
%LPD*%
%LPC*%
G36*
X255356Y375929D02*
X255356Y375929D01*
X251802Y377402D01*
X249082Y380122D01*
X247609Y383676D01*
X247609Y387524D01*
X249082Y391078D01*
X251802Y393798D01*
X255356Y395271D01*
X274444Y395271D01*
X277998Y393798D01*
X280718Y391078D01*
X282191Y387524D01*
X282191Y383676D01*
X280718Y380122D01*
X277998Y377402D01*
X274444Y375929D01*
X255356Y375929D01*
G37*
%LPD*%
%LPC*%
G36*
X78256Y247029D02*
X78256Y247029D01*
X74702Y248502D01*
X71982Y251222D01*
X70509Y254776D01*
X70509Y258624D01*
X71982Y262178D01*
X74702Y264898D01*
X78256Y266371D01*
X97344Y266371D01*
X100898Y264898D01*
X103618Y262178D01*
X105091Y258624D01*
X105091Y254776D01*
X103618Y251222D01*
X100898Y248502D01*
X97344Y247029D01*
X78256Y247029D01*
G37*
%LPD*%
%LPC*%
G36*
X78256Y272429D02*
X78256Y272429D01*
X74702Y273902D01*
X71982Y276622D01*
X70509Y280176D01*
X70509Y284024D01*
X71982Y287578D01*
X74702Y290298D01*
X78256Y291771D01*
X97344Y291771D01*
X100898Y290298D01*
X103618Y287578D01*
X105091Y284024D01*
X105091Y280176D01*
X103618Y276622D01*
X100898Y273902D01*
X97344Y272429D01*
X78256Y272429D01*
G37*
%LPD*%
%LPC*%
G36*
X78256Y348629D02*
X78256Y348629D01*
X74702Y350102D01*
X71982Y352822D01*
X70509Y356376D01*
X70509Y360224D01*
X71982Y363778D01*
X74702Y366498D01*
X78256Y367971D01*
X97344Y367971D01*
X100898Y366498D01*
X103618Y363778D01*
X105091Y360224D01*
X105091Y356376D01*
X103618Y352822D01*
X100898Y350102D01*
X97344Y348629D01*
X78256Y348629D01*
G37*
%LPD*%
%LPC*%
G36*
X89323Y156623D02*
X89323Y156623D01*
X89323Y165261D01*
X96220Y165261D01*
X97799Y165011D01*
X99320Y164516D01*
X100745Y163790D01*
X102039Y162850D01*
X103170Y161719D01*
X104110Y160425D01*
X104836Y159000D01*
X105331Y157479D01*
X105466Y156623D01*
X89323Y156623D01*
G37*
%LPD*%
%LPC*%
G36*
X266423Y133123D02*
X266423Y133123D01*
X266423Y141761D01*
X273320Y141761D01*
X274899Y141511D01*
X276420Y141016D01*
X277845Y140290D01*
X279139Y139350D01*
X280270Y138219D01*
X281210Y136925D01*
X281936Y135500D01*
X282431Y133979D01*
X282566Y133123D01*
X266423Y133123D01*
G37*
%LPD*%
%LPC*%
G36*
X89323Y182023D02*
X89323Y182023D01*
X89323Y190661D01*
X96220Y190661D01*
X97799Y190411D01*
X99320Y189916D01*
X100745Y189190D01*
X102039Y188250D01*
X103170Y187119D01*
X104110Y185825D01*
X104836Y184400D01*
X105331Y182879D01*
X105466Y182023D01*
X89323Y182023D01*
G37*
%LPD*%
%LPC*%
G36*
X89323Y131223D02*
X89323Y131223D01*
X89323Y139861D01*
X96220Y139861D01*
X97799Y139611D01*
X99320Y139116D01*
X100745Y138390D01*
X102039Y137450D01*
X103170Y136319D01*
X104110Y135025D01*
X104836Y133600D01*
X105331Y132079D01*
X105466Y131223D01*
X89323Y131223D01*
G37*
%LPD*%
%LPC*%
G36*
X266423Y107723D02*
X266423Y107723D01*
X266423Y116361D01*
X273320Y116361D01*
X274899Y116111D01*
X276420Y115616D01*
X277845Y114890D01*
X279139Y113950D01*
X280270Y112819D01*
X281210Y111525D01*
X281936Y110100D01*
X282431Y108579D01*
X282566Y107723D01*
X266423Y107723D01*
G37*
%LPD*%
%LPC*%
G36*
X70134Y156623D02*
X70134Y156623D01*
X70269Y157479D01*
X70764Y159000D01*
X71490Y160425D01*
X72430Y161719D01*
X73561Y162850D01*
X74855Y163790D01*
X76280Y164516D01*
X77801Y165011D01*
X79380Y165261D01*
X86277Y165261D01*
X86277Y156623D01*
X70134Y156623D01*
G37*
%LPD*%
%LPC*%
G36*
X247234Y133123D02*
X247234Y133123D01*
X247369Y133979D01*
X247864Y135500D01*
X248590Y136925D01*
X249530Y138219D01*
X250661Y139350D01*
X251955Y140290D01*
X253380Y141016D01*
X254901Y141511D01*
X256480Y141761D01*
X263377Y141761D01*
X263377Y133123D01*
X247234Y133123D01*
G37*
%LPD*%
%LPC*%
G36*
X70134Y182023D02*
X70134Y182023D01*
X70269Y182879D01*
X70764Y184400D01*
X71490Y185825D01*
X72430Y187119D01*
X73561Y188250D01*
X74855Y189190D01*
X76280Y189916D01*
X77801Y190411D01*
X79380Y190661D01*
X86277Y190661D01*
X86277Y182023D01*
X70134Y182023D01*
G37*
%LPD*%
%LPC*%
G36*
X247234Y107723D02*
X247234Y107723D01*
X247369Y108579D01*
X247864Y110100D01*
X248590Y111525D01*
X249530Y112819D01*
X250661Y113950D01*
X251955Y114890D01*
X253380Y115616D01*
X254901Y116111D01*
X256480Y116361D01*
X263377Y116361D01*
X263377Y107723D01*
X247234Y107723D01*
G37*
%LPD*%
%LPC*%
G36*
X89323Y170339D02*
X89323Y170339D01*
X89323Y178977D01*
X105466Y178977D01*
X105331Y178121D01*
X104836Y176600D01*
X104110Y175175D01*
X103170Y173881D01*
X102039Y172750D01*
X100745Y171810D01*
X99320Y171084D01*
X97799Y170589D01*
X96220Y170339D01*
X89323Y170339D01*
G37*
%LPD*%
%LPC*%
G36*
X266423Y121439D02*
X266423Y121439D01*
X266423Y130077D01*
X282566Y130077D01*
X282431Y129221D01*
X281936Y127700D01*
X281210Y126275D01*
X280270Y124981D01*
X279139Y123850D01*
X277845Y122910D01*
X276420Y122184D01*
X274899Y121689D01*
X273320Y121439D01*
X266423Y121439D01*
G37*
%LPD*%
%LPC*%
G36*
X89323Y144939D02*
X89323Y144939D01*
X89323Y153577D01*
X105466Y153577D01*
X105331Y152721D01*
X104836Y151200D01*
X104110Y149775D01*
X103170Y148481D01*
X102039Y147350D01*
X100745Y146410D01*
X99320Y145684D01*
X97799Y145189D01*
X96220Y144939D01*
X89323Y144939D01*
G37*
%LPD*%
%LPC*%
G36*
X89323Y119539D02*
X89323Y119539D01*
X89323Y128177D01*
X105466Y128177D01*
X105331Y127321D01*
X104836Y125800D01*
X104110Y124375D01*
X103170Y123081D01*
X102039Y121950D01*
X100745Y121010D01*
X99320Y120284D01*
X97799Y119789D01*
X96220Y119539D01*
X89323Y119539D01*
G37*
%LPD*%
%LPC*%
G36*
X266423Y96039D02*
X266423Y96039D01*
X266423Y104677D01*
X282566Y104677D01*
X282431Y103821D01*
X281936Y102300D01*
X281210Y100875D01*
X280270Y99581D01*
X279139Y98450D01*
X277845Y97510D01*
X276420Y96784D01*
X274899Y96289D01*
X273320Y96039D01*
X266423Y96039D01*
G37*
%LPD*%
%LPC*%
G36*
X256480Y96039D02*
X256480Y96039D01*
X254901Y96289D01*
X253380Y96784D01*
X251955Y97510D01*
X250661Y98450D01*
X249530Y99581D01*
X248590Y100875D01*
X247864Y102300D01*
X247369Y103821D01*
X247234Y104677D01*
X263377Y104677D01*
X263377Y96039D01*
X256480Y96039D01*
G37*
%LPD*%
%LPC*%
G36*
X79380Y170339D02*
X79380Y170339D01*
X77801Y170589D01*
X76280Y171084D01*
X74855Y171810D01*
X73561Y172750D01*
X72430Y173881D01*
X71490Y175175D01*
X70764Y176600D01*
X70269Y178121D01*
X70134Y178977D01*
X86277Y178977D01*
X86277Y170339D01*
X79380Y170339D01*
G37*
%LPD*%
%LPC*%
G36*
X79380Y144939D02*
X79380Y144939D01*
X77801Y145189D01*
X76280Y145684D01*
X74855Y146410D01*
X73561Y147350D01*
X72430Y148481D01*
X71490Y149775D01*
X70764Y151200D01*
X70269Y152721D01*
X70134Y153577D01*
X86277Y153577D01*
X86277Y144939D01*
X79380Y144939D01*
G37*
%LPD*%
%LPC*%
G36*
X256480Y121439D02*
X256480Y121439D01*
X254901Y121689D01*
X253380Y122184D01*
X251955Y122910D01*
X250661Y123850D01*
X249530Y124981D01*
X248590Y126275D01*
X247864Y127700D01*
X247369Y129221D01*
X247234Y130077D01*
X263377Y130077D01*
X263377Y121439D01*
X256480Y121439D01*
G37*
%LPD*%
%LPC*%
G36*
X345159Y107723D02*
X345159Y107723D01*
X345159Y115534D01*
X345332Y116181D01*
X345667Y116760D01*
X346140Y117233D01*
X346719Y117568D01*
X347366Y117741D01*
X354177Y117741D01*
X354177Y107723D01*
X345159Y107723D01*
G37*
%LPD*%
%LPC*%
G36*
X139866Y376659D02*
X139866Y376659D01*
X139219Y376832D01*
X138640Y377167D01*
X138167Y377640D01*
X137832Y378219D01*
X137659Y378866D01*
X137659Y386677D01*
X146677Y386677D01*
X146677Y376659D01*
X139866Y376659D01*
G37*
%LPD*%
%LPC*%
G36*
X347366Y94659D02*
X347366Y94659D01*
X346719Y94832D01*
X346140Y95167D01*
X345667Y95640D01*
X345332Y96219D01*
X345159Y96866D01*
X345159Y104677D01*
X354177Y104677D01*
X354177Y94659D01*
X347366Y94659D01*
G37*
%LPD*%
%LPC*%
G36*
X124323Y256953D02*
X124323Y256953D01*
X124323Y263046D01*
X135834Y263046D01*
X136481Y262873D01*
X137060Y262538D01*
X137533Y262065D01*
X137868Y261486D01*
X138041Y260839D01*
X138041Y256953D01*
X124323Y256953D01*
G37*
%LPD*%
%LPC*%
G36*
X107559Y256953D02*
X107559Y256953D01*
X107559Y260839D01*
X107732Y261486D01*
X108067Y262065D01*
X108540Y262538D01*
X109119Y262873D01*
X109766Y263046D01*
X121277Y263046D01*
X121277Y256953D01*
X107559Y256953D01*
G37*
%LPD*%
%LPC*%
G36*
X124323Y247814D02*
X124323Y247814D01*
X124323Y253907D01*
X138041Y253907D01*
X138041Y250020D01*
X137868Y249374D01*
X137533Y248795D01*
X137060Y248322D01*
X136481Y247987D01*
X135834Y247814D01*
X124323Y247814D01*
G37*
%LPD*%
%LPC*%
G36*
X109766Y247814D02*
X109766Y247814D01*
X109119Y247987D01*
X108540Y248322D01*
X108067Y248795D01*
X107732Y249374D01*
X107559Y250021D01*
X107559Y253907D01*
X121277Y253907D01*
X121277Y247814D01*
X109766Y247814D01*
G37*
%LPD*%
%LPC*%
G36*
X140723Y335723D02*
X140723Y335723D01*
X140723Y344241D01*
X146034Y344241D01*
X146681Y344068D01*
X147260Y343733D01*
X147733Y343260D01*
X148068Y342681D01*
X148241Y342034D01*
X148241Y335723D01*
X140723Y335723D01*
G37*
%LPD*%
%LPC*%
G36*
X140723Y324159D02*
X140723Y324159D01*
X140723Y332677D01*
X148241Y332677D01*
X148241Y326366D01*
X148068Y325719D01*
X147733Y325140D01*
X147260Y324667D01*
X146681Y324332D01*
X146034Y324159D01*
X140723Y324159D01*
G37*
%LPD*%
%LPC*%
G36*
X194823Y326659D02*
X194823Y326659D01*
X194823Y334177D01*
X203341Y334177D01*
X203341Y328866D01*
X203168Y328219D01*
X202833Y327640D01*
X202360Y327167D01*
X201781Y326832D01*
X201134Y326659D01*
X194823Y326659D01*
G37*
%LPD*%
%LPC*%
G36*
X295359Y78223D02*
X295359Y78223D01*
X295359Y84534D01*
X295532Y85181D01*
X295867Y85760D01*
X296340Y86233D01*
X296919Y86568D01*
X297566Y86741D01*
X302877Y86741D01*
X302877Y78223D01*
X295359Y78223D01*
G37*
%LPD*%
%LPC*%
G36*
X142059Y261223D02*
X142059Y261223D01*
X142059Y267534D01*
X142232Y268181D01*
X142567Y268760D01*
X143040Y269233D01*
X143619Y269568D01*
X144266Y269741D01*
X149577Y269741D01*
X149577Y261223D01*
X142059Y261223D01*
G37*
%LPD*%
%LPC*%
G36*
X143759Y227723D02*
X143759Y227723D01*
X143759Y234034D01*
X143932Y234681D01*
X144267Y235260D01*
X144740Y235733D01*
X145319Y236068D01*
X145966Y236241D01*
X151277Y236241D01*
X151277Y227723D01*
X143759Y227723D01*
G37*
%LPD*%
%LPC*%
G36*
X305423Y97659D02*
X305423Y97659D01*
X305423Y105177D01*
X313941Y105177D01*
X313941Y99866D01*
X313768Y99219D01*
X313433Y98640D01*
X312960Y98167D01*
X312381Y97832D01*
X311734Y97659D01*
X305423Y97659D01*
G37*
%LPD*%
%LPC*%
G36*
X185466Y326659D02*
X185466Y326659D01*
X184819Y326832D01*
X184240Y327167D01*
X183767Y327640D01*
X183432Y328219D01*
X183259Y328866D01*
X183259Y334177D01*
X191777Y334177D01*
X191777Y326659D01*
X185466Y326659D01*
G37*
%LPD*%
%LPC*%
G36*
X348366Y137659D02*
X348366Y137659D01*
X347719Y137832D01*
X347140Y138167D01*
X346667Y138640D01*
X346332Y139219D01*
X346159Y139866D01*
X346159Y145177D01*
X354677Y145177D01*
X354677Y137659D01*
X348366Y137659D01*
G37*
%LPD*%
%LPC*%
G36*
X297566Y66659D02*
X297566Y66659D01*
X296919Y66832D01*
X296340Y67167D01*
X295867Y67640D01*
X295532Y68219D01*
X295359Y68866D01*
X295359Y75177D01*
X302877Y75177D01*
X302877Y66659D01*
X297566Y66659D01*
G37*
%LPD*%
%LPC*%
G36*
X144266Y249659D02*
X144266Y249659D01*
X143619Y249832D01*
X143040Y250167D01*
X142567Y250640D01*
X142232Y251219D01*
X142059Y251866D01*
X142059Y258177D01*
X149577Y258177D01*
X149577Y249659D01*
X144266Y249659D01*
G37*
%LPD*%
%LPC*%
G36*
X296066Y97659D02*
X296066Y97659D01*
X295419Y97832D01*
X294840Y98167D01*
X294367Y98640D01*
X294032Y99219D01*
X293859Y99866D01*
X293859Y105177D01*
X302377Y105177D01*
X302377Y97659D01*
X296066Y97659D01*
G37*
%LPD*%
%LPC*%
G36*
X145966Y216159D02*
X145966Y216159D01*
X145319Y216332D01*
X144740Y216667D01*
X144267Y217140D01*
X143932Y217719D01*
X143759Y218366D01*
X143759Y224677D01*
X151277Y224677D01*
X151277Y216159D01*
X145966Y216159D01*
G37*
%LPD*%
%LPC*%
G36*
X356123Y64123D02*
X356123Y64123D01*
X356123Y70141D01*
X361934Y70141D01*
X362581Y69968D01*
X363160Y69633D01*
X363633Y69160D01*
X363968Y68581D01*
X364141Y67934D01*
X364141Y64123D01*
X356123Y64123D01*
G37*
%LPD*%
%LPC*%
G36*
X347266Y55059D02*
X347266Y55059D01*
X346619Y55232D01*
X346040Y55567D01*
X345567Y56040D01*
X345232Y56619D01*
X345059Y57266D01*
X345059Y61077D01*
X353077Y61077D01*
X353077Y55059D01*
X347266Y55059D01*
G37*
%LPD*%
%LPC*%
G36*
X264899Y106199D02*
X264899Y106199D01*
X264899Y106201D01*
X264901Y106201D01*
X264901Y106199D01*
X264899Y106199D01*
G37*
%LPD*%
%LPC*%
G36*
X264899Y131599D02*
X264899Y131599D01*
X264899Y131601D01*
X264901Y131601D01*
X264901Y131599D01*
X264899Y131599D01*
G37*
%LPD*%
%LPC*%
G36*
X87799Y155099D02*
X87799Y155099D01*
X87799Y155101D01*
X87801Y155101D01*
X87801Y155099D01*
X87799Y155099D01*
G37*
%LPD*%
%LPC*%
G36*
X87799Y180499D02*
X87799Y180499D01*
X87799Y180501D01*
X87801Y180501D01*
X87801Y180499D01*
X87799Y180499D01*
G37*
%LPD*%
%LPC*%
G36*
X354599Y62599D02*
X354599Y62599D01*
X354599Y62601D01*
X354601Y62601D01*
X354601Y62599D01*
X354599Y62599D01*
G37*
%LPD*%
%LPC*%
G36*
X122799Y255429D02*
X122799Y255429D01*
X122799Y255431D01*
X122801Y255431D01*
X122801Y255429D01*
X122799Y255429D01*
G37*
%LPD*%
D10*
X48500Y254700D03*
X48500Y273700D03*
D11*
X322100Y252100D03*
X350100Y252100D03*
D10*
X349100Y304700D03*
X349100Y285700D03*
D12*
X152800Y226200D03*
X171800Y226200D03*
X151100Y259700D03*
X170100Y259700D03*
D10*
X49900Y205200D03*
X49900Y224200D03*
D13*
X48200Y311200D03*
X48200Y339200D03*
D10*
X356200Y165700D03*
X356200Y146700D03*
D11*
X355700Y106200D03*
X383700Y106200D03*
D12*
X151900Y121700D03*
X170900Y121700D03*
D10*
X123700Y122700D03*
X123700Y103700D03*
D11*
X120200Y388200D03*
X148200Y388200D03*
D12*
X139200Y334200D03*
X120200Y334200D03*
D10*
X303900Y106700D03*
X303900Y125700D03*
D14*
X95420Y383700D02*
X80180Y383700D01*
X80180Y358300D02*
X95420Y358300D01*
X95420Y332900D02*
X80180Y332900D01*
X80180Y307500D02*
X95420Y307500D01*
X95420Y282100D02*
X80180Y282100D01*
X80180Y256700D02*
X95420Y256700D01*
X95420Y231300D02*
X80180Y231300D01*
X80180Y205900D02*
X95420Y205900D01*
X95420Y180500D02*
X80180Y180500D01*
X80180Y155100D02*
X95420Y155100D01*
X95420Y129700D02*
X80180Y129700D01*
X80180Y104300D02*
X95420Y104300D01*
X95420Y78900D02*
X80180Y78900D01*
X80180Y53500D02*
X95420Y53500D01*
X257280Y55400D02*
X272520Y55400D01*
X272520Y80800D02*
X257280Y80800D01*
X257280Y106200D02*
X272520Y106200D01*
X272520Y131600D02*
X257280Y131600D01*
X257280Y157000D02*
X272520Y157000D01*
X272520Y182400D02*
X257280Y182400D01*
X257280Y207800D02*
X272520Y207800D01*
X272520Y233200D02*
X257280Y233200D01*
X257280Y258600D02*
X272520Y258600D01*
X272520Y284000D02*
X257280Y284000D01*
X257280Y309400D02*
X272520Y309400D01*
X272520Y334800D02*
X257280Y334800D01*
X257280Y360200D02*
X272520Y360200D01*
X272520Y385600D02*
X257280Y385600D01*
D15*
X122800Y255430D03*
X122800Y232570D03*
D16*
X378600Y72100D03*
X354600Y62600D03*
X354600Y81600D03*
D17*
X384800Y169420D03*
X384800Y140980D03*
D10*
X193300Y335700D03*
X193300Y354700D03*
D12*
X303400Y221700D03*
X322400Y221700D03*
X302900Y155700D03*
X321900Y155700D03*
X302900Y190700D03*
X321900Y190700D03*
D10*
X47700Y366700D03*
X47700Y385700D03*
D12*
X304400Y76700D03*
X323400Y76700D03*
D17*
X197600Y91980D03*
X197600Y120420D03*
D18*
X143700Y451400D03*
X168700Y451400D03*
X193700Y451400D03*
D19*
X124700Y521400D03*
X212700Y521400D03*
D20*
X217100Y256500D03*
X217100Y231500D03*
D21*
X350100Y252100D02*
X350100Y284700D01*
X349100Y285700D01*
X349400Y286000D01*
X363000Y286000D01*
X363000Y336000D01*
X266100Y336000D01*
X264900Y334800D01*
X302900Y190700D02*
X294600Y182400D01*
X264900Y182400D01*
X264900Y157000D02*
X266200Y155700D01*
X302900Y155700D01*
X303900Y154700D01*
X303900Y125700D01*
X173300Y256500D02*
X170100Y259700D01*
X173300Y256500D02*
X217100Y256500D01*
X262800Y256500D01*
X264900Y258600D01*
X263200Y231500D02*
X217100Y231500D01*
X263200Y231500D02*
X264900Y233200D01*
X217100Y231500D02*
X211800Y226200D01*
X171800Y226200D01*
X289500Y207800D02*
X303400Y221700D01*
X289500Y207800D02*
X264900Y207800D01*
X264900Y131600D02*
X264900Y106200D01*
X303400Y106200D01*
X303900Y106700D01*
X304400Y106200D01*
X355700Y106200D02*
X355700Y146200D01*
X356200Y146700D01*
X355700Y106200D02*
X304400Y106200D01*
X311350Y69750D02*
X311350Y66901D01*
X311350Y69750D02*
X304400Y76700D01*
X315651Y62600D02*
X354600Y62600D01*
X315651Y62600D02*
X311350Y66901D01*
X303900Y77200D02*
X303900Y106700D01*
X303900Y77200D02*
X304400Y76700D01*
X152800Y226200D02*
X107100Y180500D01*
X87800Y180500D01*
X87800Y155100D01*
X87800Y129700D01*
X152800Y156200D02*
X152800Y226200D01*
X211284Y131600D02*
X264900Y131600D01*
X208134Y134750D02*
X174250Y134750D01*
X208134Y134750D02*
X211284Y131600D01*
X174250Y134750D02*
X152800Y156200D01*
X152800Y226200D02*
X152800Y258000D01*
X151100Y259700D01*
X150100Y259700D01*
X148200Y343200D02*
X148200Y388200D01*
X148200Y343200D02*
X139200Y334200D01*
X151100Y268100D02*
X151100Y259700D01*
X151100Y268100D02*
X179000Y296000D01*
X179300Y296000D01*
D22*
X148200Y404816D02*
X155790Y412406D01*
X155790Y465000D01*
D21*
X210000Y465000D01*
X148200Y404816D02*
X148200Y388200D01*
X151100Y259700D02*
X146830Y255430D01*
X122800Y255430D01*
X193300Y310000D02*
X193300Y335700D01*
X193300Y310000D02*
X193300Y309950D01*
X193300Y310000D02*
X179300Y296000D01*
X193300Y309950D02*
X210000Y326650D01*
X210000Y465000D01*
X85800Y385700D02*
X47700Y385700D01*
X85800Y385700D02*
X87800Y383700D01*
X89100Y334200D02*
X120200Y334200D01*
X89100Y334200D02*
X87800Y332900D01*
X143700Y411700D02*
X143700Y451400D01*
X143700Y411700D02*
X120200Y388200D01*
X120200Y334200D01*
X87800Y307500D02*
X165698Y307500D01*
X166790Y449490D02*
X168700Y451400D01*
X165698Y448398D02*
X165698Y307500D01*
X165698Y448398D02*
X168700Y451400D01*
X50600Y205900D02*
X49900Y205200D01*
X50600Y205900D02*
X87800Y205900D01*
X100030Y218130D01*
X100875Y218130D01*
X115315Y232570D02*
X122800Y232570D01*
X115315Y232570D02*
X100875Y218130D01*
X87800Y104300D02*
X122617Y104300D01*
X123700Y103700D01*
X321900Y155700D02*
X321900Y190700D01*
X321900Y221200D01*
X322400Y221700D01*
X322400Y251800D01*
X322100Y252100D01*
X290200Y284000D01*
X264900Y284000D01*
X264900Y309400D01*
X269600Y304700D02*
X349100Y304700D01*
X269600Y304700D02*
X264900Y309400D01*
X48500Y254700D02*
X48500Y225600D01*
X49900Y224200D01*
X48200Y274000D02*
X48200Y311200D01*
X48200Y274000D02*
X48500Y273700D01*
X46700Y365700D02*
X47700Y366700D01*
X323400Y76700D02*
X349700Y76700D01*
X354600Y81600D01*
X364650Y91650D01*
X365999Y91650D01*
X370150Y95801D01*
X370150Y151194D01*
X373486Y154530D01*
X411530Y154530D01*
X359547Y16950D02*
X343950Y16950D01*
X343000Y16000D01*
X359547Y16950D02*
X411530Y68933D01*
X343000Y16000D02*
X99055Y16000D01*
X67010Y48045D01*
X67010Y141990D02*
X33000Y176000D01*
X33000Y338700D01*
X411530Y154530D02*
X411530Y68933D01*
X67010Y48045D02*
X67010Y141990D01*
X48200Y366200D02*
X47700Y366700D01*
X47700Y339700D01*
X48200Y339200D01*
X33500Y339200D01*
X33000Y338700D01*
X170900Y121700D02*
X196320Y121700D01*
X197600Y120420D01*
X244110Y73910D01*
X244110Y49945D01*
X258055Y36000D01*
X353000Y36000D01*
X378600Y61600D02*
X378600Y72100D01*
X378600Y61600D02*
X353000Y36000D01*
X202075Y91980D02*
X197600Y91980D01*
X235060Y54520D01*
X235060Y46196D01*
X255256Y26000D01*
X355799Y26000D02*
X391150Y61351D01*
X355799Y26000D02*
X255256Y26000D01*
X384800Y107300D02*
X384800Y140980D01*
X384800Y107300D02*
X383700Y106200D01*
X391150Y98750D01*
X391150Y61351D01*
X381080Y165700D02*
X384800Y169420D01*
X381080Y165700D02*
X356200Y165700D01*
X151900Y121700D02*
X150900Y122700D01*
X123700Y122700D01*
X193300Y354700D02*
X193700Y355100D01*
X193700Y451400D01*
M02*
