G04 EAGLE Gerber RS-274X export*
G75*
%MOMM*%
%FSLAX34Y34*%
%LPD*%
%IN*%
%IPPOS*%
%AMOC8*
5,1,8,0,0,1.08239X$1,22.5*%
G01*
%ADD10C,0.254000*%


D10*
X0Y0D02*
X450000Y0D01*
X450000Y600000D01*
X0Y600000D01*
X0Y0D01*
X44000Y569500D02*
X43929Y568503D01*
X43786Y567513D01*
X43574Y566536D01*
X43292Y565576D01*
X42943Y564639D01*
X42527Y563729D01*
X42048Y562852D01*
X41507Y562010D01*
X40908Y561210D01*
X40253Y560454D01*
X39546Y559747D01*
X38790Y559092D01*
X37990Y558493D01*
X37148Y557952D01*
X36271Y557473D01*
X35361Y557057D01*
X34424Y556708D01*
X33465Y556426D01*
X32487Y556214D01*
X31498Y556071D01*
X30500Y556000D01*
X29500Y556000D01*
X28503Y556071D01*
X27513Y556214D01*
X26536Y556426D01*
X25576Y556708D01*
X24639Y557057D01*
X23729Y557473D01*
X22852Y557952D01*
X22010Y558493D01*
X21210Y559092D01*
X20454Y559747D01*
X19747Y560454D01*
X19092Y561210D01*
X18493Y562010D01*
X17952Y562852D01*
X17473Y563729D01*
X17057Y564639D01*
X16708Y565576D01*
X16426Y566536D01*
X16214Y567513D01*
X16071Y568503D01*
X16000Y569500D01*
X16000Y570500D01*
X16071Y571498D01*
X16214Y572487D01*
X16426Y573465D01*
X16708Y574424D01*
X17057Y575361D01*
X17473Y576271D01*
X17952Y577148D01*
X18493Y577990D01*
X19092Y578790D01*
X19747Y579546D01*
X20454Y580253D01*
X21210Y580908D01*
X22010Y581507D01*
X22852Y582048D01*
X23729Y582527D01*
X24639Y582943D01*
X25576Y583292D01*
X26536Y583574D01*
X27513Y583786D01*
X28503Y583929D01*
X29500Y584000D01*
X30500Y584000D01*
X31498Y583929D01*
X32487Y583786D01*
X33465Y583574D01*
X34424Y583292D01*
X35361Y582943D01*
X36271Y582527D01*
X37148Y582048D01*
X37990Y581507D01*
X38790Y580908D01*
X39546Y580253D01*
X40253Y579546D01*
X40908Y578790D01*
X41507Y577990D01*
X42048Y577148D01*
X42527Y576271D01*
X42943Y575361D01*
X43292Y574424D01*
X43574Y573465D01*
X43786Y572487D01*
X43929Y571498D01*
X44000Y570500D01*
X44000Y569500D01*
X434000Y569500D02*
X433929Y568503D01*
X433786Y567513D01*
X433574Y566536D01*
X433292Y565576D01*
X432943Y564639D01*
X432527Y563729D01*
X432048Y562852D01*
X431507Y562010D01*
X430908Y561210D01*
X430253Y560454D01*
X429546Y559747D01*
X428790Y559092D01*
X427990Y558493D01*
X427148Y557952D01*
X426271Y557473D01*
X425361Y557057D01*
X424424Y556708D01*
X423465Y556426D01*
X422487Y556214D01*
X421498Y556071D01*
X420500Y556000D01*
X419500Y556000D01*
X418503Y556071D01*
X417513Y556214D01*
X416536Y556426D01*
X415576Y556708D01*
X414639Y557057D01*
X413729Y557473D01*
X412852Y557952D01*
X412010Y558493D01*
X411210Y559092D01*
X410454Y559747D01*
X409747Y560454D01*
X409092Y561210D01*
X408493Y562010D01*
X407952Y562852D01*
X407473Y563729D01*
X407057Y564639D01*
X406708Y565576D01*
X406426Y566536D01*
X406214Y567513D01*
X406071Y568503D01*
X406000Y569500D01*
X406000Y570500D01*
X406071Y571498D01*
X406214Y572487D01*
X406426Y573465D01*
X406708Y574424D01*
X407057Y575361D01*
X407473Y576271D01*
X407952Y577148D01*
X408493Y577990D01*
X409092Y578790D01*
X409747Y579546D01*
X410454Y580253D01*
X411210Y580908D01*
X412010Y581507D01*
X412852Y582048D01*
X413729Y582527D01*
X414639Y582943D01*
X415576Y583292D01*
X416536Y583574D01*
X417513Y583786D01*
X418503Y583929D01*
X419500Y584000D01*
X420500Y584000D01*
X421498Y583929D01*
X422487Y583786D01*
X423465Y583574D01*
X424424Y583292D01*
X425361Y582943D01*
X426271Y582527D01*
X427148Y582048D01*
X427990Y581507D01*
X428790Y580908D01*
X429546Y580253D01*
X430253Y579546D01*
X430908Y578790D01*
X431507Y577990D01*
X432048Y577148D01*
X432527Y576271D01*
X432943Y575361D01*
X433292Y574424D01*
X433574Y573465D01*
X433786Y572487D01*
X433929Y571498D01*
X434000Y570500D01*
X434000Y569500D01*
X434000Y29500D02*
X433929Y28503D01*
X433786Y27513D01*
X433574Y26536D01*
X433292Y25576D01*
X432943Y24639D01*
X432527Y23729D01*
X432048Y22852D01*
X431507Y22010D01*
X430908Y21210D01*
X430253Y20454D01*
X429546Y19747D01*
X428790Y19092D01*
X427990Y18493D01*
X427148Y17952D01*
X426271Y17473D01*
X425361Y17057D01*
X424424Y16708D01*
X423465Y16426D01*
X422487Y16214D01*
X421498Y16071D01*
X420500Y16000D01*
X419500Y16000D01*
X418503Y16071D01*
X417513Y16214D01*
X416536Y16426D01*
X415576Y16708D01*
X414639Y17057D01*
X413729Y17473D01*
X412852Y17952D01*
X412010Y18493D01*
X411210Y19092D01*
X410454Y19747D01*
X409747Y20454D01*
X409092Y21210D01*
X408493Y22010D01*
X407952Y22852D01*
X407473Y23729D01*
X407057Y24639D01*
X406708Y25576D01*
X406426Y26536D01*
X406214Y27513D01*
X406071Y28503D01*
X406000Y29500D01*
X406000Y30500D01*
X406071Y31498D01*
X406214Y32487D01*
X406426Y33465D01*
X406708Y34424D01*
X407057Y35361D01*
X407473Y36271D01*
X407952Y37148D01*
X408493Y37990D01*
X409092Y38790D01*
X409747Y39546D01*
X410454Y40253D01*
X411210Y40908D01*
X412010Y41507D01*
X412852Y42048D01*
X413729Y42527D01*
X414639Y42943D01*
X415576Y43292D01*
X416536Y43574D01*
X417513Y43786D01*
X418503Y43929D01*
X419500Y44000D01*
X420500Y44000D01*
X421498Y43929D01*
X422487Y43786D01*
X423465Y43574D01*
X424424Y43292D01*
X425361Y42943D01*
X426271Y42527D01*
X427148Y42048D01*
X427990Y41507D01*
X428790Y40908D01*
X429546Y40253D01*
X430253Y39546D01*
X430908Y38790D01*
X431507Y37990D01*
X432048Y37148D01*
X432527Y36271D01*
X432943Y35361D01*
X433292Y34424D01*
X433574Y33465D01*
X433786Y32487D01*
X433929Y31498D01*
X434000Y30500D01*
X434000Y29500D01*
X44000Y29500D02*
X43929Y28503D01*
X43786Y27513D01*
X43574Y26536D01*
X43292Y25576D01*
X42943Y24639D01*
X42527Y23729D01*
X42048Y22852D01*
X41507Y22010D01*
X40908Y21210D01*
X40253Y20454D01*
X39546Y19747D01*
X38790Y19092D01*
X37990Y18493D01*
X37148Y17952D01*
X36271Y17473D01*
X35361Y17057D01*
X34424Y16708D01*
X33465Y16426D01*
X32487Y16214D01*
X31498Y16071D01*
X30500Y16000D01*
X29500Y16000D01*
X28503Y16071D01*
X27513Y16214D01*
X26536Y16426D01*
X25576Y16708D01*
X24639Y17057D01*
X23729Y17473D01*
X22852Y17952D01*
X22010Y18493D01*
X21210Y19092D01*
X20454Y19747D01*
X19747Y20454D01*
X19092Y21210D01*
X18493Y22010D01*
X17952Y22852D01*
X17473Y23729D01*
X17057Y24639D01*
X16708Y25576D01*
X16426Y26536D01*
X16214Y27513D01*
X16071Y28503D01*
X16000Y29500D01*
X16000Y30500D01*
X16071Y31498D01*
X16214Y32487D01*
X16426Y33465D01*
X16708Y34424D01*
X17057Y35361D01*
X17473Y36271D01*
X17952Y37148D01*
X18493Y37990D01*
X19092Y38790D01*
X19747Y39546D01*
X20454Y40253D01*
X21210Y40908D01*
X22010Y41507D01*
X22852Y42048D01*
X23729Y42527D01*
X24639Y42943D01*
X25576Y43292D01*
X26536Y43574D01*
X27513Y43786D01*
X28503Y43929D01*
X29500Y44000D01*
X30500Y44000D01*
X31498Y43929D01*
X32487Y43786D01*
X33465Y43574D01*
X34424Y43292D01*
X35361Y42943D01*
X36271Y42527D01*
X37148Y42048D01*
X37990Y41507D01*
X38790Y40908D01*
X39546Y40253D01*
X40253Y39546D01*
X40908Y38790D01*
X41507Y37990D01*
X42048Y37148D01*
X42527Y36271D01*
X42943Y35361D01*
X43292Y34424D01*
X43574Y33465D01*
X43786Y32487D01*
X43929Y31498D01*
X44000Y30500D01*
X44000Y29500D01*
M02*
