G04 EAGLE Gerber RS-274X export*
G75*
%MOMM*%
%FSLAX34Y34*%
%LPD*%
%IN*%
%IPPOS*%
%AMOC8*
5,1,8,0,0,1.08239X$1,22.5*%
G01*
%ADD10C,0.254000*%


D10*
X-30000Y-10000D02*
X450000Y-10000D01*
X450000Y600000D01*
X-30000Y600000D01*
X-30000Y-10000D01*
X14000Y569500D02*
X13929Y568503D01*
X13786Y567513D01*
X13574Y566536D01*
X13292Y565576D01*
X12943Y564639D01*
X12527Y563729D01*
X12048Y562852D01*
X11507Y562010D01*
X10908Y561210D01*
X10253Y560454D01*
X9546Y559747D01*
X8790Y559092D01*
X7990Y558493D01*
X7148Y557952D01*
X6271Y557473D01*
X5361Y557057D01*
X4424Y556708D01*
X3465Y556426D01*
X2487Y556214D01*
X1498Y556071D01*
X500Y556000D01*
X-500Y556000D01*
X-1498Y556071D01*
X-2487Y556214D01*
X-3465Y556426D01*
X-4424Y556708D01*
X-5361Y557057D01*
X-6271Y557473D01*
X-7148Y557952D01*
X-7990Y558493D01*
X-8790Y559092D01*
X-9546Y559747D01*
X-10253Y560454D01*
X-10908Y561210D01*
X-11507Y562010D01*
X-12048Y562852D01*
X-12527Y563729D01*
X-12943Y564639D01*
X-13292Y565576D01*
X-13574Y566536D01*
X-13786Y567513D01*
X-13929Y568503D01*
X-14000Y569500D01*
X-14000Y570500D01*
X-13929Y571498D01*
X-13786Y572487D01*
X-13574Y573465D01*
X-13292Y574424D01*
X-12943Y575361D01*
X-12527Y576271D01*
X-12048Y577148D01*
X-11507Y577990D01*
X-10908Y578790D01*
X-10253Y579546D01*
X-9546Y580253D01*
X-8790Y580908D01*
X-7990Y581507D01*
X-7148Y582048D01*
X-6271Y582527D01*
X-5361Y582943D01*
X-4424Y583292D01*
X-3465Y583574D01*
X-2487Y583786D01*
X-1498Y583929D01*
X-500Y584000D01*
X500Y584000D01*
X1498Y583929D01*
X2487Y583786D01*
X3465Y583574D01*
X4424Y583292D01*
X5361Y582943D01*
X6271Y582527D01*
X7148Y582048D01*
X7990Y581507D01*
X8790Y580908D01*
X9546Y580253D01*
X10253Y579546D01*
X10908Y578790D01*
X11507Y577990D01*
X12048Y577148D01*
X12527Y576271D01*
X12943Y575361D01*
X13292Y574424D01*
X13574Y573465D01*
X13786Y572487D01*
X13929Y571498D01*
X14000Y570500D01*
X14000Y569500D01*
X434000Y569500D02*
X433929Y568503D01*
X433786Y567513D01*
X433574Y566536D01*
X433292Y565576D01*
X432943Y564639D01*
X432527Y563729D01*
X432048Y562852D01*
X431507Y562010D01*
X430908Y561210D01*
X430253Y560454D01*
X429546Y559747D01*
X428790Y559092D01*
X427990Y558493D01*
X427148Y557952D01*
X426271Y557473D01*
X425361Y557057D01*
X424424Y556708D01*
X423465Y556426D01*
X422487Y556214D01*
X421498Y556071D01*
X420500Y556000D01*
X419500Y556000D01*
X418503Y556071D01*
X417513Y556214D01*
X416536Y556426D01*
X415576Y556708D01*
X414639Y557057D01*
X413729Y557473D01*
X412852Y557952D01*
X412010Y558493D01*
X411210Y559092D01*
X410454Y559747D01*
X409747Y560454D01*
X409092Y561210D01*
X408493Y562010D01*
X407952Y562852D01*
X407473Y563729D01*
X407057Y564639D01*
X406708Y565576D01*
X406426Y566536D01*
X406214Y567513D01*
X406071Y568503D01*
X406000Y569500D01*
X406000Y570500D01*
X406071Y571498D01*
X406214Y572487D01*
X406426Y573465D01*
X406708Y574424D01*
X407057Y575361D01*
X407473Y576271D01*
X407952Y577148D01*
X408493Y577990D01*
X409092Y578790D01*
X409747Y579546D01*
X410454Y580253D01*
X411210Y580908D01*
X412010Y581507D01*
X412852Y582048D01*
X413729Y582527D01*
X414639Y582943D01*
X415576Y583292D01*
X416536Y583574D01*
X417513Y583786D01*
X418503Y583929D01*
X419500Y584000D01*
X420500Y584000D01*
X421498Y583929D01*
X422487Y583786D01*
X423465Y583574D01*
X424424Y583292D01*
X425361Y582943D01*
X426271Y582527D01*
X427148Y582048D01*
X427990Y581507D01*
X428790Y580908D01*
X429546Y580253D01*
X430253Y579546D01*
X430908Y578790D01*
X431507Y577990D01*
X432048Y577148D01*
X432527Y576271D01*
X432943Y575361D01*
X433292Y574424D01*
X433574Y573465D01*
X433786Y572487D01*
X433929Y571498D01*
X434000Y570500D01*
X434000Y569500D01*
X434000Y19500D02*
X433929Y18503D01*
X433786Y17513D01*
X433574Y16536D01*
X433292Y15576D01*
X432943Y14639D01*
X432527Y13729D01*
X432048Y12852D01*
X431507Y12010D01*
X430908Y11210D01*
X430253Y10454D01*
X429546Y9747D01*
X428790Y9092D01*
X427990Y8493D01*
X427148Y7952D01*
X426271Y7473D01*
X425361Y7057D01*
X424424Y6708D01*
X423465Y6426D01*
X422487Y6214D01*
X421498Y6071D01*
X420500Y6000D01*
X419500Y6000D01*
X418503Y6071D01*
X417513Y6214D01*
X416536Y6426D01*
X415576Y6708D01*
X414639Y7057D01*
X413729Y7473D01*
X412852Y7952D01*
X412010Y8493D01*
X411210Y9092D01*
X410454Y9747D01*
X409747Y10454D01*
X409092Y11210D01*
X408493Y12010D01*
X407952Y12852D01*
X407473Y13729D01*
X407057Y14639D01*
X406708Y15576D01*
X406426Y16536D01*
X406214Y17513D01*
X406071Y18503D01*
X406000Y19500D01*
X406000Y20500D01*
X406071Y21498D01*
X406214Y22487D01*
X406426Y23465D01*
X406708Y24424D01*
X407057Y25361D01*
X407473Y26271D01*
X407952Y27148D01*
X408493Y27990D01*
X409092Y28790D01*
X409747Y29546D01*
X410454Y30253D01*
X411210Y30908D01*
X412010Y31507D01*
X412852Y32048D01*
X413729Y32527D01*
X414639Y32943D01*
X415576Y33292D01*
X416536Y33574D01*
X417513Y33786D01*
X418503Y33929D01*
X419500Y34000D01*
X420500Y34000D01*
X421498Y33929D01*
X422487Y33786D01*
X423465Y33574D01*
X424424Y33292D01*
X425361Y32943D01*
X426271Y32527D01*
X427148Y32048D01*
X427990Y31507D01*
X428790Y30908D01*
X429546Y30253D01*
X430253Y29546D01*
X430908Y28790D01*
X431507Y27990D01*
X432048Y27148D01*
X432527Y26271D01*
X432943Y25361D01*
X433292Y24424D01*
X433574Y23465D01*
X433786Y22487D01*
X433929Y21498D01*
X434000Y20500D01*
X434000Y19500D01*
X14000Y19500D02*
X13929Y18503D01*
X13786Y17513D01*
X13574Y16536D01*
X13292Y15576D01*
X12943Y14639D01*
X12527Y13729D01*
X12048Y12852D01*
X11507Y12010D01*
X10908Y11210D01*
X10253Y10454D01*
X9546Y9747D01*
X8790Y9092D01*
X7990Y8493D01*
X7148Y7952D01*
X6271Y7473D01*
X5361Y7057D01*
X4424Y6708D01*
X3465Y6426D01*
X2487Y6214D01*
X1498Y6071D01*
X500Y6000D01*
X-500Y6000D01*
X-1498Y6071D01*
X-2487Y6214D01*
X-3465Y6426D01*
X-4424Y6708D01*
X-5361Y7057D01*
X-6271Y7473D01*
X-7148Y7952D01*
X-7990Y8493D01*
X-8790Y9092D01*
X-9546Y9747D01*
X-10253Y10454D01*
X-10908Y11210D01*
X-11507Y12010D01*
X-12048Y12852D01*
X-12527Y13729D01*
X-12943Y14639D01*
X-13292Y15576D01*
X-13574Y16536D01*
X-13786Y17513D01*
X-13929Y18503D01*
X-14000Y19500D01*
X-14000Y20500D01*
X-13929Y21498D01*
X-13786Y22487D01*
X-13574Y23465D01*
X-13292Y24424D01*
X-12943Y25361D01*
X-12527Y26271D01*
X-12048Y27148D01*
X-11507Y27990D01*
X-10908Y28790D01*
X-10253Y29546D01*
X-9546Y30253D01*
X-8790Y30908D01*
X-7990Y31507D01*
X-7148Y32048D01*
X-6271Y32527D01*
X-5361Y32943D01*
X-4424Y33292D01*
X-3465Y33574D01*
X-2487Y33786D01*
X-1498Y33929D01*
X-500Y34000D01*
X500Y34000D01*
X1498Y33929D01*
X2487Y33786D01*
X3465Y33574D01*
X4424Y33292D01*
X5361Y32943D01*
X6271Y32527D01*
X7148Y32048D01*
X7990Y31507D01*
X8790Y30908D01*
X9546Y30253D01*
X10253Y29546D01*
X10908Y28790D01*
X11507Y27990D01*
X12048Y27148D01*
X12527Y26271D01*
X12943Y25361D01*
X13292Y24424D01*
X13574Y23465D01*
X13786Y22487D01*
X13929Y21498D01*
X14000Y20500D01*
X14000Y19500D01*
M02*
