G04 EAGLE Gerber RS-274X export*
G75*
%MOMM*%
%FSLAX34Y34*%
%LPD*%
%INSilkscreen Top*%
%IPPOS*%
%AMOC8*
5,1,8,0,0,1.08239X$1,22.5*%
G01*
%ADD10C,0.101600*%
%ADD11C,0.152400*%
%ADD12C,0.127000*%
%ADD13C,0.200000*%
%ADD14C,0.100000*%
%ADD15C,0.200000*%


D10*
X28801Y252008D02*
X28801Y255254D01*
X28800Y255254D02*
X28802Y255367D01*
X28808Y255480D01*
X28818Y255593D01*
X28832Y255706D01*
X28849Y255818D01*
X28871Y255929D01*
X28896Y256039D01*
X28926Y256149D01*
X28959Y256257D01*
X28996Y256364D01*
X29036Y256470D01*
X29081Y256574D01*
X29129Y256677D01*
X29180Y256778D01*
X29235Y256877D01*
X29293Y256974D01*
X29355Y257069D01*
X29420Y257162D01*
X29488Y257252D01*
X29559Y257340D01*
X29634Y257426D01*
X29711Y257509D01*
X29791Y257589D01*
X29874Y257666D01*
X29960Y257741D01*
X30048Y257812D01*
X30138Y257880D01*
X30231Y257945D01*
X30326Y258007D01*
X30423Y258065D01*
X30522Y258120D01*
X30623Y258171D01*
X30726Y258219D01*
X30830Y258264D01*
X30936Y258304D01*
X31043Y258341D01*
X31151Y258374D01*
X31261Y258404D01*
X31371Y258429D01*
X31482Y258451D01*
X31594Y258468D01*
X31707Y258482D01*
X31820Y258492D01*
X31933Y258498D01*
X32046Y258500D01*
X32159Y258498D01*
X32272Y258492D01*
X32385Y258482D01*
X32498Y258468D01*
X32610Y258451D01*
X32721Y258429D01*
X32831Y258404D01*
X32941Y258374D01*
X33049Y258341D01*
X33156Y258304D01*
X33262Y258264D01*
X33366Y258219D01*
X33469Y258171D01*
X33570Y258120D01*
X33669Y258065D01*
X33766Y258007D01*
X33861Y257945D01*
X33954Y257880D01*
X34044Y257812D01*
X34132Y257741D01*
X34218Y257666D01*
X34301Y257589D01*
X34381Y257509D01*
X34458Y257426D01*
X34533Y257340D01*
X34604Y257252D01*
X34672Y257162D01*
X34737Y257069D01*
X34799Y256974D01*
X34857Y256877D01*
X34912Y256778D01*
X34963Y256677D01*
X35011Y256574D01*
X35056Y256470D01*
X35096Y256364D01*
X35133Y256257D01*
X35166Y256149D01*
X35196Y256039D01*
X35221Y255929D01*
X35243Y255818D01*
X35260Y255706D01*
X35274Y255593D01*
X35284Y255480D01*
X35290Y255367D01*
X35292Y255254D01*
X35292Y252008D01*
X23608Y252008D01*
X23608Y255254D01*
X23610Y255355D01*
X23616Y255455D01*
X23626Y255555D01*
X23639Y255655D01*
X23657Y255754D01*
X23678Y255853D01*
X23703Y255950D01*
X23732Y256047D01*
X23765Y256142D01*
X23801Y256236D01*
X23841Y256328D01*
X23884Y256419D01*
X23931Y256508D01*
X23981Y256595D01*
X24035Y256681D01*
X24092Y256764D01*
X24152Y256844D01*
X24215Y256923D01*
X24282Y256999D01*
X24351Y257072D01*
X24423Y257142D01*
X24497Y257210D01*
X24574Y257275D01*
X24654Y257336D01*
X24736Y257395D01*
X24820Y257450D01*
X24906Y257502D01*
X24994Y257551D01*
X25084Y257596D01*
X25176Y257638D01*
X25269Y257676D01*
X25364Y257710D01*
X25459Y257741D01*
X25556Y257768D01*
X25654Y257791D01*
X25753Y257811D01*
X25853Y257826D01*
X25953Y257838D01*
X26053Y257846D01*
X26154Y257850D01*
X26254Y257850D01*
X26355Y257846D01*
X26455Y257838D01*
X26555Y257826D01*
X26655Y257811D01*
X26754Y257791D01*
X26852Y257768D01*
X26949Y257741D01*
X27044Y257710D01*
X27139Y257676D01*
X27232Y257638D01*
X27324Y257596D01*
X27414Y257551D01*
X27502Y257502D01*
X27588Y257450D01*
X27672Y257395D01*
X27754Y257336D01*
X27834Y257275D01*
X27911Y257210D01*
X27985Y257142D01*
X28057Y257072D01*
X28126Y256999D01*
X28193Y256923D01*
X28256Y256844D01*
X28316Y256764D01*
X28373Y256681D01*
X28427Y256595D01*
X28477Y256508D01*
X28524Y256419D01*
X28567Y256328D01*
X28607Y256236D01*
X28643Y256142D01*
X28676Y256047D01*
X28705Y255950D01*
X28730Y255853D01*
X28751Y255754D01*
X28769Y255655D01*
X28782Y255555D01*
X28792Y255455D01*
X28798Y255355D01*
X28800Y255254D01*
X26204Y262888D02*
X23608Y266133D01*
X35292Y266133D01*
X35292Y262888D02*
X35292Y269379D01*
X326504Y265308D02*
X329101Y265308D01*
X326504Y265308D02*
X326405Y265310D01*
X326305Y265316D01*
X326206Y265325D01*
X326108Y265338D01*
X326010Y265355D01*
X325912Y265376D01*
X325816Y265401D01*
X325721Y265429D01*
X325627Y265461D01*
X325534Y265496D01*
X325442Y265535D01*
X325352Y265578D01*
X325264Y265623D01*
X325177Y265673D01*
X325093Y265725D01*
X325010Y265781D01*
X324930Y265839D01*
X324852Y265901D01*
X324777Y265966D01*
X324704Y266034D01*
X324634Y266104D01*
X324566Y266177D01*
X324501Y266252D01*
X324439Y266330D01*
X324381Y266410D01*
X324325Y266493D01*
X324273Y266577D01*
X324223Y266664D01*
X324178Y266752D01*
X324135Y266842D01*
X324096Y266934D01*
X324061Y267027D01*
X324029Y267121D01*
X324001Y267216D01*
X323976Y267312D01*
X323955Y267410D01*
X323938Y267508D01*
X323925Y267606D01*
X323916Y267705D01*
X323910Y267805D01*
X323908Y267904D01*
X323908Y274396D01*
X323910Y274495D01*
X323916Y274595D01*
X323925Y274694D01*
X323938Y274792D01*
X323955Y274890D01*
X323976Y274988D01*
X324001Y275084D01*
X324029Y275179D01*
X324061Y275273D01*
X324096Y275366D01*
X324135Y275458D01*
X324178Y275548D01*
X324223Y275636D01*
X324273Y275723D01*
X324325Y275807D01*
X324381Y275890D01*
X324439Y275970D01*
X324501Y276048D01*
X324566Y276123D01*
X324634Y276196D01*
X324704Y276266D01*
X324777Y276334D01*
X324852Y276399D01*
X324930Y276461D01*
X325010Y276519D01*
X325093Y276575D01*
X325177Y276627D01*
X325264Y276677D01*
X325352Y276722D01*
X325442Y276765D01*
X325534Y276804D01*
X325626Y276839D01*
X325721Y276871D01*
X325816Y276899D01*
X325912Y276924D01*
X326010Y276945D01*
X326108Y276962D01*
X326206Y276975D01*
X326305Y276984D01*
X326405Y276990D01*
X326504Y276992D01*
X329101Y276992D01*
X333466Y274396D02*
X336712Y276992D01*
X336712Y265308D01*
X339957Y265308D02*
X333466Y265308D01*
X344896Y267904D02*
X347493Y276992D01*
X344896Y267904D02*
X351387Y267904D01*
X349440Y270501D02*
X349440Y265308D01*
X373992Y282509D02*
X373992Y285106D01*
X373992Y282509D02*
X373990Y282410D01*
X373984Y282310D01*
X373975Y282211D01*
X373962Y282113D01*
X373945Y282015D01*
X373924Y281917D01*
X373899Y281821D01*
X373871Y281726D01*
X373839Y281632D01*
X373804Y281539D01*
X373765Y281447D01*
X373722Y281357D01*
X373677Y281269D01*
X373627Y281182D01*
X373575Y281098D01*
X373519Y281015D01*
X373461Y280935D01*
X373399Y280857D01*
X373334Y280782D01*
X373266Y280709D01*
X373196Y280639D01*
X373123Y280571D01*
X373048Y280506D01*
X372970Y280444D01*
X372890Y280386D01*
X372807Y280330D01*
X372723Y280278D01*
X372636Y280228D01*
X372548Y280183D01*
X372458Y280140D01*
X372366Y280101D01*
X372273Y280066D01*
X372179Y280034D01*
X372084Y280006D01*
X371988Y279981D01*
X371890Y279960D01*
X371792Y279943D01*
X371694Y279930D01*
X371595Y279921D01*
X371495Y279915D01*
X371396Y279913D01*
X364904Y279913D01*
X364904Y279912D02*
X364805Y279914D01*
X364705Y279920D01*
X364606Y279929D01*
X364508Y279942D01*
X364410Y279960D01*
X364312Y279980D01*
X364216Y280005D01*
X364120Y280033D01*
X364026Y280065D01*
X363933Y280100D01*
X363842Y280139D01*
X363752Y280182D01*
X363663Y280227D01*
X363577Y280277D01*
X363492Y280329D01*
X363410Y280385D01*
X363330Y280444D01*
X363252Y280505D01*
X363176Y280570D01*
X363103Y280638D01*
X363033Y280708D01*
X362965Y280781D01*
X362900Y280857D01*
X362839Y280935D01*
X362780Y281015D01*
X362724Y281097D01*
X362672Y281182D01*
X362623Y281268D01*
X362577Y281357D01*
X362534Y281447D01*
X362495Y281538D01*
X362460Y281631D01*
X362428Y281725D01*
X362400Y281821D01*
X362375Y281917D01*
X362355Y282015D01*
X362337Y282113D01*
X362324Y282211D01*
X362315Y282310D01*
X362309Y282409D01*
X362307Y282509D01*
X362308Y282509D02*
X362308Y285106D01*
X364904Y289471D02*
X362308Y292716D01*
X373992Y292716D01*
X373992Y289471D02*
X373992Y295962D01*
X373992Y300901D02*
X373992Y304796D01*
X373990Y304895D01*
X373984Y304995D01*
X373975Y305094D01*
X373962Y305192D01*
X373945Y305290D01*
X373924Y305388D01*
X373899Y305484D01*
X373871Y305579D01*
X373839Y305673D01*
X373804Y305766D01*
X373765Y305858D01*
X373722Y305948D01*
X373677Y306036D01*
X373627Y306123D01*
X373575Y306207D01*
X373519Y306290D01*
X373461Y306370D01*
X373399Y306448D01*
X373334Y306523D01*
X373266Y306596D01*
X373196Y306666D01*
X373123Y306734D01*
X373048Y306799D01*
X372970Y306861D01*
X372890Y306919D01*
X372807Y306975D01*
X372723Y307027D01*
X372636Y307077D01*
X372548Y307122D01*
X372458Y307165D01*
X372366Y307204D01*
X372273Y307239D01*
X372179Y307271D01*
X372084Y307299D01*
X371988Y307324D01*
X371890Y307345D01*
X371792Y307362D01*
X371694Y307375D01*
X371595Y307384D01*
X371495Y307390D01*
X371396Y307392D01*
X370097Y307392D01*
X369998Y307390D01*
X369898Y307384D01*
X369799Y307375D01*
X369701Y307362D01*
X369603Y307345D01*
X369505Y307324D01*
X369409Y307299D01*
X369314Y307271D01*
X369220Y307239D01*
X369127Y307204D01*
X369035Y307165D01*
X368945Y307122D01*
X368857Y307077D01*
X368770Y307027D01*
X368686Y306975D01*
X368603Y306919D01*
X368523Y306861D01*
X368445Y306799D01*
X368370Y306734D01*
X368297Y306666D01*
X368227Y306596D01*
X368159Y306523D01*
X368094Y306448D01*
X368032Y306370D01*
X367974Y306290D01*
X367918Y306207D01*
X367866Y306123D01*
X367816Y306036D01*
X367771Y305948D01*
X367728Y305858D01*
X367689Y305766D01*
X367654Y305673D01*
X367622Y305579D01*
X367594Y305484D01*
X367569Y305388D01*
X367548Y305290D01*
X367531Y305192D01*
X367518Y305094D01*
X367509Y304995D01*
X367503Y304895D01*
X367501Y304796D01*
X367501Y300901D01*
X362308Y300901D01*
X362308Y307392D01*
X155301Y239408D02*
X152704Y239408D01*
X152605Y239410D01*
X152505Y239416D01*
X152406Y239425D01*
X152308Y239438D01*
X152210Y239455D01*
X152112Y239476D01*
X152016Y239501D01*
X151921Y239529D01*
X151827Y239561D01*
X151734Y239596D01*
X151642Y239635D01*
X151552Y239678D01*
X151464Y239723D01*
X151377Y239773D01*
X151293Y239825D01*
X151210Y239881D01*
X151130Y239939D01*
X151052Y240001D01*
X150977Y240066D01*
X150904Y240134D01*
X150834Y240204D01*
X150766Y240277D01*
X150701Y240352D01*
X150639Y240430D01*
X150581Y240510D01*
X150525Y240593D01*
X150473Y240677D01*
X150423Y240764D01*
X150378Y240852D01*
X150335Y240942D01*
X150296Y241034D01*
X150261Y241127D01*
X150229Y241221D01*
X150201Y241316D01*
X150176Y241412D01*
X150155Y241510D01*
X150138Y241608D01*
X150125Y241706D01*
X150116Y241805D01*
X150110Y241905D01*
X150108Y242004D01*
X150108Y248496D01*
X150110Y248595D01*
X150116Y248695D01*
X150125Y248794D01*
X150138Y248892D01*
X150155Y248990D01*
X150176Y249088D01*
X150201Y249184D01*
X150229Y249279D01*
X150261Y249373D01*
X150296Y249466D01*
X150335Y249558D01*
X150378Y249648D01*
X150423Y249736D01*
X150473Y249823D01*
X150525Y249907D01*
X150581Y249990D01*
X150639Y250070D01*
X150701Y250148D01*
X150766Y250223D01*
X150834Y250296D01*
X150904Y250366D01*
X150977Y250434D01*
X151052Y250499D01*
X151130Y250561D01*
X151210Y250619D01*
X151293Y250675D01*
X151377Y250727D01*
X151464Y250777D01*
X151552Y250822D01*
X151642Y250865D01*
X151734Y250904D01*
X151826Y250939D01*
X151921Y250971D01*
X152016Y250999D01*
X152112Y251024D01*
X152210Y251045D01*
X152308Y251062D01*
X152406Y251075D01*
X152505Y251084D01*
X152605Y251090D01*
X152704Y251092D01*
X155301Y251092D01*
X159666Y248496D02*
X162912Y251092D01*
X162912Y239408D01*
X166157Y239408D02*
X159666Y239408D01*
X171096Y245899D02*
X174991Y245899D01*
X175090Y245897D01*
X175190Y245891D01*
X175289Y245882D01*
X175387Y245869D01*
X175485Y245852D01*
X175583Y245831D01*
X175679Y245806D01*
X175774Y245778D01*
X175868Y245746D01*
X175961Y245711D01*
X176053Y245672D01*
X176143Y245629D01*
X176231Y245584D01*
X176318Y245534D01*
X176402Y245482D01*
X176485Y245426D01*
X176565Y245368D01*
X176643Y245306D01*
X176718Y245241D01*
X176791Y245173D01*
X176861Y245103D01*
X176929Y245030D01*
X176994Y244955D01*
X177056Y244877D01*
X177114Y244797D01*
X177170Y244714D01*
X177222Y244630D01*
X177272Y244543D01*
X177317Y244455D01*
X177360Y244365D01*
X177399Y244273D01*
X177434Y244180D01*
X177466Y244086D01*
X177494Y243991D01*
X177519Y243895D01*
X177540Y243797D01*
X177557Y243699D01*
X177570Y243601D01*
X177579Y243502D01*
X177585Y243402D01*
X177587Y243303D01*
X177587Y242654D01*
X177588Y242654D02*
X177586Y242541D01*
X177580Y242428D01*
X177570Y242315D01*
X177556Y242202D01*
X177539Y242090D01*
X177517Y241979D01*
X177492Y241869D01*
X177462Y241759D01*
X177429Y241651D01*
X177392Y241544D01*
X177352Y241438D01*
X177307Y241334D01*
X177259Y241231D01*
X177208Y241130D01*
X177153Y241031D01*
X177095Y240934D01*
X177033Y240839D01*
X176968Y240746D01*
X176900Y240656D01*
X176829Y240568D01*
X176754Y240482D01*
X176677Y240399D01*
X176597Y240319D01*
X176514Y240242D01*
X176428Y240167D01*
X176340Y240096D01*
X176250Y240028D01*
X176157Y239963D01*
X176062Y239901D01*
X175965Y239843D01*
X175866Y239788D01*
X175765Y239737D01*
X175662Y239689D01*
X175558Y239644D01*
X175452Y239604D01*
X175345Y239567D01*
X175237Y239534D01*
X175127Y239504D01*
X175017Y239479D01*
X174906Y239457D01*
X174794Y239440D01*
X174681Y239426D01*
X174568Y239416D01*
X174455Y239410D01*
X174342Y239408D01*
X174229Y239410D01*
X174116Y239416D01*
X174003Y239426D01*
X173890Y239440D01*
X173778Y239457D01*
X173667Y239479D01*
X173557Y239504D01*
X173447Y239534D01*
X173339Y239567D01*
X173232Y239604D01*
X173126Y239644D01*
X173022Y239689D01*
X172919Y239737D01*
X172818Y239788D01*
X172719Y239843D01*
X172622Y239901D01*
X172527Y239963D01*
X172434Y240028D01*
X172344Y240096D01*
X172256Y240167D01*
X172170Y240242D01*
X172087Y240319D01*
X172007Y240399D01*
X171930Y240482D01*
X171855Y240568D01*
X171784Y240656D01*
X171716Y240746D01*
X171651Y240839D01*
X171589Y240934D01*
X171531Y241031D01*
X171476Y241130D01*
X171425Y241231D01*
X171377Y241334D01*
X171332Y241438D01*
X171292Y241544D01*
X171255Y241651D01*
X171222Y241759D01*
X171192Y241869D01*
X171167Y241979D01*
X171145Y242090D01*
X171128Y242202D01*
X171114Y242315D01*
X171104Y242428D01*
X171098Y242541D01*
X171096Y242654D01*
X171096Y245899D01*
X171098Y246042D01*
X171104Y246185D01*
X171114Y246328D01*
X171128Y246470D01*
X171145Y246612D01*
X171167Y246754D01*
X171192Y246895D01*
X171222Y247035D01*
X171255Y247174D01*
X171292Y247312D01*
X171333Y247449D01*
X171377Y247585D01*
X171426Y247720D01*
X171478Y247853D01*
X171533Y247985D01*
X171593Y248115D01*
X171656Y248244D01*
X171722Y248371D01*
X171792Y248495D01*
X171865Y248618D01*
X171942Y248739D01*
X172022Y248858D01*
X172105Y248974D01*
X172191Y249089D01*
X172280Y249200D01*
X172373Y249310D01*
X172468Y249416D01*
X172567Y249520D01*
X172668Y249621D01*
X172772Y249720D01*
X172878Y249815D01*
X172988Y249908D01*
X173099Y249997D01*
X173214Y250083D01*
X173330Y250166D01*
X173449Y250246D01*
X173570Y250323D01*
X173692Y250396D01*
X173817Y250466D01*
X173944Y250532D01*
X174073Y250595D01*
X174203Y250655D01*
X174335Y250710D01*
X174468Y250762D01*
X174603Y250811D01*
X174739Y250855D01*
X174876Y250896D01*
X175014Y250933D01*
X175153Y250966D01*
X175293Y250996D01*
X175434Y251021D01*
X175576Y251043D01*
X175718Y251060D01*
X175860Y251074D01*
X176003Y251084D01*
X176146Y251090D01*
X176289Y251092D01*
X153601Y272908D02*
X151004Y272908D01*
X150905Y272910D01*
X150805Y272916D01*
X150706Y272925D01*
X150608Y272938D01*
X150510Y272955D01*
X150412Y272976D01*
X150316Y273001D01*
X150221Y273029D01*
X150127Y273061D01*
X150034Y273096D01*
X149942Y273135D01*
X149852Y273178D01*
X149764Y273223D01*
X149677Y273273D01*
X149593Y273325D01*
X149510Y273381D01*
X149430Y273439D01*
X149352Y273501D01*
X149277Y273566D01*
X149204Y273634D01*
X149134Y273704D01*
X149066Y273777D01*
X149001Y273852D01*
X148939Y273930D01*
X148881Y274010D01*
X148825Y274093D01*
X148773Y274177D01*
X148723Y274264D01*
X148678Y274352D01*
X148635Y274442D01*
X148596Y274534D01*
X148561Y274627D01*
X148529Y274721D01*
X148501Y274816D01*
X148476Y274912D01*
X148455Y275010D01*
X148438Y275108D01*
X148425Y275206D01*
X148416Y275305D01*
X148410Y275405D01*
X148408Y275504D01*
X148408Y281996D01*
X148410Y282095D01*
X148416Y282195D01*
X148425Y282294D01*
X148438Y282392D01*
X148455Y282490D01*
X148476Y282588D01*
X148501Y282684D01*
X148529Y282779D01*
X148561Y282873D01*
X148596Y282966D01*
X148635Y283058D01*
X148678Y283148D01*
X148723Y283236D01*
X148773Y283323D01*
X148825Y283407D01*
X148881Y283490D01*
X148939Y283570D01*
X149001Y283648D01*
X149066Y283723D01*
X149134Y283796D01*
X149204Y283866D01*
X149277Y283934D01*
X149352Y283999D01*
X149430Y284061D01*
X149510Y284119D01*
X149593Y284175D01*
X149677Y284227D01*
X149764Y284277D01*
X149852Y284322D01*
X149942Y284365D01*
X150034Y284404D01*
X150126Y284439D01*
X150221Y284471D01*
X150316Y284499D01*
X150412Y284524D01*
X150510Y284545D01*
X150608Y284562D01*
X150706Y284575D01*
X150805Y284584D01*
X150905Y284590D01*
X151004Y284592D01*
X153601Y284592D01*
X157966Y281996D02*
X161212Y284592D01*
X161212Y272908D01*
X164457Y272908D02*
X157966Y272908D01*
X169396Y283294D02*
X169396Y284592D01*
X175887Y284592D01*
X172642Y272908D01*
X36692Y207701D02*
X36692Y205104D01*
X36690Y205005D01*
X36684Y204905D01*
X36675Y204806D01*
X36662Y204708D01*
X36645Y204610D01*
X36624Y204512D01*
X36599Y204416D01*
X36571Y204321D01*
X36539Y204227D01*
X36504Y204134D01*
X36465Y204042D01*
X36422Y203952D01*
X36377Y203864D01*
X36327Y203777D01*
X36275Y203693D01*
X36219Y203610D01*
X36161Y203530D01*
X36099Y203452D01*
X36034Y203377D01*
X35966Y203304D01*
X35896Y203234D01*
X35823Y203166D01*
X35748Y203101D01*
X35670Y203039D01*
X35590Y202981D01*
X35507Y202925D01*
X35423Y202873D01*
X35336Y202823D01*
X35248Y202778D01*
X35158Y202735D01*
X35066Y202696D01*
X34973Y202661D01*
X34879Y202629D01*
X34784Y202601D01*
X34688Y202576D01*
X34590Y202555D01*
X34492Y202538D01*
X34394Y202525D01*
X34295Y202516D01*
X34195Y202510D01*
X34096Y202508D01*
X27604Y202508D01*
X27505Y202510D01*
X27405Y202516D01*
X27306Y202525D01*
X27208Y202538D01*
X27110Y202556D01*
X27012Y202576D01*
X26916Y202601D01*
X26820Y202629D01*
X26726Y202661D01*
X26633Y202696D01*
X26542Y202735D01*
X26452Y202778D01*
X26363Y202823D01*
X26277Y202873D01*
X26192Y202925D01*
X26110Y202981D01*
X26030Y203040D01*
X25952Y203101D01*
X25876Y203166D01*
X25803Y203234D01*
X25733Y203304D01*
X25665Y203377D01*
X25600Y203453D01*
X25539Y203531D01*
X25480Y203611D01*
X25424Y203693D01*
X25372Y203778D01*
X25323Y203864D01*
X25277Y203953D01*
X25234Y204043D01*
X25195Y204134D01*
X25160Y204227D01*
X25128Y204321D01*
X25100Y204417D01*
X25075Y204513D01*
X25055Y204611D01*
X25037Y204709D01*
X25024Y204807D01*
X25015Y204906D01*
X25009Y205005D01*
X25007Y205105D01*
X25008Y205104D02*
X25008Y207701D01*
X27604Y212066D02*
X25008Y215312D01*
X36692Y215312D01*
X36692Y218557D02*
X36692Y212066D01*
X33446Y223496D02*
X33333Y223498D01*
X33220Y223504D01*
X33107Y223514D01*
X32994Y223528D01*
X32882Y223545D01*
X32771Y223567D01*
X32661Y223592D01*
X32551Y223622D01*
X32443Y223655D01*
X32336Y223692D01*
X32230Y223732D01*
X32126Y223777D01*
X32023Y223825D01*
X31922Y223876D01*
X31823Y223931D01*
X31726Y223989D01*
X31631Y224051D01*
X31538Y224116D01*
X31448Y224184D01*
X31360Y224255D01*
X31274Y224330D01*
X31191Y224407D01*
X31111Y224487D01*
X31034Y224570D01*
X30959Y224656D01*
X30888Y224744D01*
X30820Y224834D01*
X30755Y224927D01*
X30693Y225022D01*
X30635Y225119D01*
X30580Y225218D01*
X30529Y225319D01*
X30481Y225422D01*
X30436Y225526D01*
X30396Y225632D01*
X30359Y225739D01*
X30326Y225847D01*
X30296Y225957D01*
X30271Y226067D01*
X30249Y226178D01*
X30232Y226290D01*
X30218Y226403D01*
X30208Y226516D01*
X30202Y226629D01*
X30200Y226742D01*
X30202Y226855D01*
X30208Y226968D01*
X30218Y227081D01*
X30232Y227194D01*
X30249Y227306D01*
X30271Y227417D01*
X30296Y227527D01*
X30326Y227637D01*
X30359Y227745D01*
X30396Y227852D01*
X30436Y227958D01*
X30481Y228062D01*
X30529Y228165D01*
X30580Y228266D01*
X30635Y228365D01*
X30693Y228462D01*
X30755Y228557D01*
X30820Y228650D01*
X30888Y228740D01*
X30959Y228828D01*
X31034Y228914D01*
X31111Y228997D01*
X31191Y229077D01*
X31274Y229154D01*
X31360Y229229D01*
X31448Y229300D01*
X31538Y229368D01*
X31631Y229433D01*
X31726Y229495D01*
X31823Y229553D01*
X31922Y229608D01*
X32023Y229659D01*
X32126Y229707D01*
X32230Y229752D01*
X32336Y229792D01*
X32443Y229829D01*
X32551Y229862D01*
X32661Y229892D01*
X32771Y229917D01*
X32882Y229939D01*
X32994Y229956D01*
X33107Y229970D01*
X33220Y229980D01*
X33333Y229986D01*
X33446Y229988D01*
X33559Y229986D01*
X33672Y229980D01*
X33785Y229970D01*
X33898Y229956D01*
X34010Y229939D01*
X34121Y229917D01*
X34231Y229892D01*
X34341Y229862D01*
X34449Y229829D01*
X34556Y229792D01*
X34662Y229752D01*
X34766Y229707D01*
X34869Y229659D01*
X34970Y229608D01*
X35069Y229553D01*
X35166Y229495D01*
X35261Y229433D01*
X35354Y229368D01*
X35444Y229300D01*
X35532Y229229D01*
X35618Y229154D01*
X35701Y229077D01*
X35781Y228997D01*
X35858Y228914D01*
X35933Y228828D01*
X36004Y228740D01*
X36072Y228650D01*
X36137Y228557D01*
X36199Y228462D01*
X36257Y228365D01*
X36312Y228266D01*
X36363Y228165D01*
X36411Y228062D01*
X36456Y227958D01*
X36496Y227852D01*
X36533Y227745D01*
X36566Y227637D01*
X36596Y227527D01*
X36621Y227417D01*
X36643Y227306D01*
X36660Y227194D01*
X36674Y227081D01*
X36684Y226968D01*
X36690Y226855D01*
X36692Y226742D01*
X36690Y226629D01*
X36684Y226516D01*
X36674Y226403D01*
X36660Y226290D01*
X36643Y226178D01*
X36621Y226067D01*
X36596Y225957D01*
X36566Y225847D01*
X36533Y225739D01*
X36496Y225632D01*
X36456Y225526D01*
X36411Y225422D01*
X36363Y225319D01*
X36312Y225218D01*
X36257Y225119D01*
X36199Y225022D01*
X36137Y224927D01*
X36072Y224834D01*
X36004Y224744D01*
X35933Y224656D01*
X35858Y224570D01*
X35781Y224487D01*
X35701Y224407D01*
X35618Y224330D01*
X35532Y224255D01*
X35444Y224184D01*
X35354Y224116D01*
X35261Y224051D01*
X35166Y223989D01*
X35069Y223931D01*
X34970Y223876D01*
X34869Y223825D01*
X34766Y223777D01*
X34662Y223732D01*
X34556Y223692D01*
X34449Y223655D01*
X34341Y223622D01*
X34231Y223592D01*
X34121Y223567D01*
X34010Y223545D01*
X33898Y223528D01*
X33785Y223514D01*
X33672Y223504D01*
X33559Y223498D01*
X33446Y223496D01*
X27604Y224146D02*
X27503Y224148D01*
X27403Y224154D01*
X27303Y224164D01*
X27203Y224177D01*
X27104Y224195D01*
X27005Y224216D01*
X26908Y224241D01*
X26811Y224270D01*
X26716Y224303D01*
X26622Y224339D01*
X26530Y224379D01*
X26439Y224422D01*
X26350Y224469D01*
X26263Y224519D01*
X26177Y224573D01*
X26094Y224630D01*
X26014Y224690D01*
X25935Y224753D01*
X25859Y224820D01*
X25786Y224889D01*
X25716Y224961D01*
X25648Y225035D01*
X25583Y225112D01*
X25522Y225192D01*
X25463Y225274D01*
X25408Y225358D01*
X25356Y225444D01*
X25307Y225532D01*
X25262Y225622D01*
X25220Y225714D01*
X25182Y225807D01*
X25148Y225902D01*
X25117Y225997D01*
X25090Y226094D01*
X25067Y226192D01*
X25047Y226291D01*
X25032Y226391D01*
X25020Y226491D01*
X25012Y226591D01*
X25008Y226692D01*
X25008Y226792D01*
X25012Y226893D01*
X25020Y226993D01*
X25032Y227093D01*
X25047Y227193D01*
X25067Y227292D01*
X25090Y227390D01*
X25117Y227487D01*
X25148Y227582D01*
X25182Y227677D01*
X25220Y227770D01*
X25262Y227862D01*
X25307Y227952D01*
X25356Y228040D01*
X25408Y228126D01*
X25463Y228210D01*
X25522Y228292D01*
X25583Y228372D01*
X25648Y228449D01*
X25716Y228523D01*
X25786Y228595D01*
X25859Y228664D01*
X25935Y228731D01*
X26014Y228794D01*
X26094Y228854D01*
X26177Y228911D01*
X26263Y228965D01*
X26350Y229015D01*
X26439Y229062D01*
X26530Y229105D01*
X26622Y229145D01*
X26716Y229181D01*
X26811Y229214D01*
X26908Y229243D01*
X27005Y229268D01*
X27104Y229289D01*
X27203Y229307D01*
X27303Y229320D01*
X27403Y229330D01*
X27503Y229336D01*
X27604Y229338D01*
X27705Y229336D01*
X27805Y229330D01*
X27905Y229320D01*
X28005Y229307D01*
X28104Y229289D01*
X28203Y229268D01*
X28300Y229243D01*
X28397Y229214D01*
X28492Y229181D01*
X28586Y229145D01*
X28678Y229105D01*
X28769Y229062D01*
X28858Y229015D01*
X28945Y228965D01*
X29031Y228911D01*
X29114Y228854D01*
X29194Y228794D01*
X29273Y228731D01*
X29349Y228664D01*
X29422Y228595D01*
X29492Y228523D01*
X29560Y228449D01*
X29625Y228372D01*
X29686Y228292D01*
X29745Y228210D01*
X29800Y228126D01*
X29852Y228040D01*
X29901Y227952D01*
X29946Y227862D01*
X29988Y227770D01*
X30026Y227677D01*
X30060Y227582D01*
X30091Y227487D01*
X30118Y227390D01*
X30141Y227292D01*
X30161Y227193D01*
X30176Y227093D01*
X30188Y226993D01*
X30196Y226893D01*
X30200Y226792D01*
X30200Y226692D01*
X30196Y226591D01*
X30188Y226491D01*
X30176Y226391D01*
X30161Y226291D01*
X30141Y226192D01*
X30118Y226094D01*
X30091Y225997D01*
X30060Y225902D01*
X30026Y225807D01*
X29988Y225714D01*
X29946Y225622D01*
X29901Y225532D01*
X29852Y225444D01*
X29800Y225358D01*
X29745Y225274D01*
X29686Y225192D01*
X29625Y225112D01*
X29560Y225035D01*
X29492Y224961D01*
X29422Y224889D01*
X29349Y224820D01*
X29273Y224753D01*
X29194Y224690D01*
X29114Y224630D01*
X29031Y224573D01*
X28945Y224519D01*
X28858Y224469D01*
X28769Y224422D01*
X28678Y224379D01*
X28586Y224339D01*
X28492Y224303D01*
X28397Y224270D01*
X28300Y224241D01*
X28203Y224216D01*
X28104Y224195D01*
X28005Y224177D01*
X27905Y224164D01*
X27805Y224154D01*
X27705Y224148D01*
X27604Y224146D01*
X34992Y315604D02*
X34992Y318201D01*
X34992Y315604D02*
X34990Y315505D01*
X34984Y315405D01*
X34975Y315306D01*
X34962Y315208D01*
X34945Y315110D01*
X34924Y315012D01*
X34899Y314916D01*
X34871Y314821D01*
X34839Y314727D01*
X34804Y314634D01*
X34765Y314542D01*
X34722Y314452D01*
X34677Y314364D01*
X34627Y314277D01*
X34575Y314193D01*
X34519Y314110D01*
X34461Y314030D01*
X34399Y313952D01*
X34334Y313877D01*
X34266Y313804D01*
X34196Y313734D01*
X34123Y313666D01*
X34048Y313601D01*
X33970Y313539D01*
X33890Y313481D01*
X33807Y313425D01*
X33723Y313373D01*
X33636Y313323D01*
X33548Y313278D01*
X33458Y313235D01*
X33366Y313196D01*
X33273Y313161D01*
X33179Y313129D01*
X33084Y313101D01*
X32988Y313076D01*
X32890Y313055D01*
X32792Y313038D01*
X32694Y313025D01*
X32595Y313016D01*
X32495Y313010D01*
X32396Y313008D01*
X25904Y313008D01*
X25805Y313010D01*
X25705Y313016D01*
X25606Y313025D01*
X25508Y313038D01*
X25410Y313056D01*
X25312Y313076D01*
X25216Y313101D01*
X25120Y313129D01*
X25026Y313161D01*
X24933Y313196D01*
X24842Y313235D01*
X24752Y313278D01*
X24663Y313323D01*
X24577Y313373D01*
X24492Y313425D01*
X24410Y313481D01*
X24330Y313540D01*
X24252Y313601D01*
X24176Y313666D01*
X24103Y313734D01*
X24033Y313804D01*
X23965Y313877D01*
X23900Y313953D01*
X23839Y314031D01*
X23780Y314111D01*
X23724Y314193D01*
X23672Y314278D01*
X23623Y314364D01*
X23577Y314453D01*
X23534Y314543D01*
X23495Y314634D01*
X23460Y314727D01*
X23428Y314821D01*
X23400Y314917D01*
X23375Y315013D01*
X23355Y315111D01*
X23337Y315209D01*
X23324Y315307D01*
X23315Y315406D01*
X23309Y315505D01*
X23307Y315605D01*
X23308Y315604D02*
X23308Y318201D01*
X25904Y322566D02*
X23308Y325812D01*
X34992Y325812D01*
X34992Y329057D02*
X34992Y322566D01*
X29799Y336593D02*
X29799Y340487D01*
X29799Y336593D02*
X29797Y336494D01*
X29791Y336394D01*
X29782Y336295D01*
X29769Y336197D01*
X29752Y336099D01*
X29731Y336001D01*
X29706Y335905D01*
X29678Y335810D01*
X29646Y335716D01*
X29611Y335623D01*
X29572Y335531D01*
X29529Y335441D01*
X29484Y335353D01*
X29434Y335266D01*
X29382Y335182D01*
X29326Y335099D01*
X29268Y335019D01*
X29206Y334941D01*
X29141Y334866D01*
X29073Y334793D01*
X29003Y334723D01*
X28930Y334655D01*
X28855Y334590D01*
X28777Y334528D01*
X28697Y334470D01*
X28614Y334414D01*
X28530Y334362D01*
X28443Y334312D01*
X28355Y334267D01*
X28265Y334224D01*
X28173Y334185D01*
X28080Y334150D01*
X27986Y334118D01*
X27891Y334090D01*
X27795Y334065D01*
X27697Y334044D01*
X27599Y334027D01*
X27501Y334014D01*
X27402Y334005D01*
X27302Y333999D01*
X27203Y333997D01*
X27203Y333996D02*
X26554Y333996D01*
X26441Y333998D01*
X26328Y334004D01*
X26215Y334014D01*
X26102Y334028D01*
X25990Y334045D01*
X25879Y334067D01*
X25769Y334092D01*
X25659Y334122D01*
X25551Y334155D01*
X25444Y334192D01*
X25338Y334232D01*
X25234Y334277D01*
X25131Y334325D01*
X25030Y334376D01*
X24931Y334431D01*
X24834Y334489D01*
X24739Y334551D01*
X24646Y334616D01*
X24556Y334684D01*
X24468Y334755D01*
X24382Y334830D01*
X24299Y334907D01*
X24219Y334987D01*
X24142Y335070D01*
X24067Y335156D01*
X23996Y335244D01*
X23928Y335334D01*
X23863Y335427D01*
X23801Y335522D01*
X23743Y335619D01*
X23688Y335718D01*
X23637Y335819D01*
X23589Y335922D01*
X23544Y336026D01*
X23504Y336132D01*
X23467Y336239D01*
X23434Y336347D01*
X23404Y336457D01*
X23379Y336567D01*
X23357Y336678D01*
X23340Y336790D01*
X23326Y336903D01*
X23316Y337016D01*
X23310Y337129D01*
X23308Y337242D01*
X23310Y337355D01*
X23316Y337468D01*
X23326Y337581D01*
X23340Y337694D01*
X23357Y337806D01*
X23379Y337917D01*
X23404Y338027D01*
X23434Y338137D01*
X23467Y338245D01*
X23504Y338352D01*
X23544Y338458D01*
X23589Y338562D01*
X23637Y338665D01*
X23688Y338766D01*
X23743Y338865D01*
X23801Y338962D01*
X23863Y339057D01*
X23928Y339150D01*
X23996Y339240D01*
X24067Y339328D01*
X24142Y339414D01*
X24219Y339497D01*
X24299Y339577D01*
X24382Y339654D01*
X24468Y339729D01*
X24556Y339800D01*
X24646Y339868D01*
X24739Y339933D01*
X24834Y339995D01*
X24931Y340053D01*
X25030Y340108D01*
X25131Y340159D01*
X25234Y340207D01*
X25338Y340252D01*
X25444Y340292D01*
X25551Y340329D01*
X25659Y340362D01*
X25769Y340392D01*
X25879Y340417D01*
X25990Y340439D01*
X26102Y340456D01*
X26215Y340470D01*
X26328Y340480D01*
X26441Y340486D01*
X26554Y340488D01*
X26554Y340487D02*
X29799Y340487D01*
X29942Y340485D01*
X30085Y340479D01*
X30228Y340469D01*
X30370Y340455D01*
X30512Y340438D01*
X30654Y340416D01*
X30795Y340391D01*
X30935Y340361D01*
X31074Y340328D01*
X31212Y340291D01*
X31349Y340250D01*
X31485Y340206D01*
X31620Y340157D01*
X31753Y340105D01*
X31885Y340050D01*
X32015Y339990D01*
X32144Y339927D01*
X32271Y339861D01*
X32396Y339791D01*
X32518Y339718D01*
X32639Y339641D01*
X32758Y339561D01*
X32874Y339478D01*
X32989Y339392D01*
X33100Y339303D01*
X33210Y339210D01*
X33316Y339115D01*
X33420Y339016D01*
X33521Y338915D01*
X33620Y338811D01*
X33715Y338705D01*
X33808Y338595D01*
X33897Y338484D01*
X33983Y338369D01*
X34066Y338253D01*
X34146Y338134D01*
X34223Y338013D01*
X34296Y337891D01*
X34366Y337766D01*
X34432Y337639D01*
X34495Y337510D01*
X34555Y337380D01*
X34610Y337248D01*
X34662Y337115D01*
X34711Y336980D01*
X34755Y336844D01*
X34796Y336707D01*
X34833Y336569D01*
X34866Y336430D01*
X34896Y336290D01*
X34921Y336149D01*
X34943Y336007D01*
X34960Y335865D01*
X34974Y335723D01*
X34984Y335580D01*
X34990Y335437D01*
X34992Y335294D01*
X381092Y146106D02*
X381092Y143509D01*
X381090Y143410D01*
X381084Y143310D01*
X381075Y143211D01*
X381062Y143113D01*
X381045Y143015D01*
X381024Y142917D01*
X380999Y142821D01*
X380971Y142726D01*
X380939Y142632D01*
X380904Y142539D01*
X380865Y142447D01*
X380822Y142357D01*
X380777Y142269D01*
X380727Y142182D01*
X380675Y142098D01*
X380619Y142015D01*
X380561Y141935D01*
X380499Y141857D01*
X380434Y141782D01*
X380366Y141709D01*
X380296Y141639D01*
X380223Y141571D01*
X380148Y141506D01*
X380070Y141444D01*
X379990Y141386D01*
X379907Y141330D01*
X379823Y141278D01*
X379736Y141228D01*
X379648Y141183D01*
X379558Y141140D01*
X379466Y141101D01*
X379373Y141066D01*
X379279Y141034D01*
X379184Y141006D01*
X379088Y140981D01*
X378990Y140960D01*
X378892Y140943D01*
X378794Y140930D01*
X378695Y140921D01*
X378595Y140915D01*
X378496Y140913D01*
X372004Y140913D01*
X372004Y140912D02*
X371905Y140914D01*
X371805Y140920D01*
X371706Y140929D01*
X371608Y140942D01*
X371510Y140960D01*
X371412Y140980D01*
X371316Y141005D01*
X371220Y141033D01*
X371126Y141065D01*
X371033Y141100D01*
X370942Y141139D01*
X370852Y141182D01*
X370763Y141227D01*
X370677Y141277D01*
X370592Y141329D01*
X370510Y141385D01*
X370430Y141444D01*
X370352Y141505D01*
X370276Y141570D01*
X370203Y141638D01*
X370133Y141708D01*
X370065Y141781D01*
X370000Y141857D01*
X369939Y141935D01*
X369880Y142015D01*
X369824Y142097D01*
X369772Y142182D01*
X369723Y142268D01*
X369677Y142357D01*
X369634Y142447D01*
X369595Y142538D01*
X369560Y142631D01*
X369528Y142725D01*
X369500Y142821D01*
X369475Y142917D01*
X369455Y143015D01*
X369437Y143113D01*
X369424Y143211D01*
X369415Y143310D01*
X369409Y143409D01*
X369407Y143509D01*
X369408Y143509D02*
X369408Y146106D01*
X369408Y154041D02*
X369410Y154148D01*
X369416Y154254D01*
X369426Y154360D01*
X369439Y154466D01*
X369457Y154572D01*
X369478Y154676D01*
X369503Y154780D01*
X369532Y154883D01*
X369564Y154984D01*
X369601Y155084D01*
X369641Y155183D01*
X369684Y155281D01*
X369731Y155377D01*
X369782Y155471D01*
X369836Y155563D01*
X369893Y155653D01*
X369953Y155741D01*
X370017Y155826D01*
X370084Y155909D01*
X370154Y155990D01*
X370226Y156068D01*
X370302Y156144D01*
X370380Y156216D01*
X370461Y156286D01*
X370544Y156353D01*
X370629Y156417D01*
X370717Y156477D01*
X370807Y156534D01*
X370899Y156588D01*
X370993Y156639D01*
X371089Y156686D01*
X371187Y156729D01*
X371286Y156769D01*
X371386Y156806D01*
X371487Y156838D01*
X371590Y156867D01*
X371694Y156892D01*
X371798Y156913D01*
X371904Y156931D01*
X372010Y156944D01*
X372116Y156954D01*
X372222Y156960D01*
X372329Y156962D01*
X369408Y154041D02*
X369410Y153920D01*
X369416Y153799D01*
X369426Y153679D01*
X369439Y153558D01*
X369457Y153439D01*
X369478Y153319D01*
X369503Y153201D01*
X369532Y153084D01*
X369565Y152967D01*
X369601Y152852D01*
X369642Y152738D01*
X369685Y152625D01*
X369733Y152513D01*
X369784Y152404D01*
X369839Y152296D01*
X369897Y152189D01*
X369958Y152085D01*
X370023Y151983D01*
X370091Y151883D01*
X370162Y151785D01*
X370236Y151689D01*
X370313Y151596D01*
X370394Y151506D01*
X370477Y151418D01*
X370563Y151333D01*
X370652Y151250D01*
X370743Y151171D01*
X370837Y151094D01*
X370933Y151021D01*
X371031Y150951D01*
X371132Y150884D01*
X371235Y150820D01*
X371340Y150760D01*
X371447Y150702D01*
X371555Y150649D01*
X371665Y150599D01*
X371777Y150553D01*
X371890Y150510D01*
X372005Y150471D01*
X374601Y155988D02*
X374523Y156067D01*
X374443Y156143D01*
X374360Y156216D01*
X374274Y156286D01*
X374187Y156353D01*
X374096Y156417D01*
X374004Y156477D01*
X373910Y156535D01*
X373813Y156589D01*
X373715Y156639D01*
X373615Y156686D01*
X373514Y156730D01*
X373411Y156770D01*
X373306Y156806D01*
X373201Y156838D01*
X373094Y156867D01*
X372987Y156892D01*
X372878Y156914D01*
X372769Y156931D01*
X372660Y156945D01*
X372550Y156954D01*
X372439Y156960D01*
X372329Y156962D01*
X374601Y155988D02*
X381092Y150471D01*
X381092Y156962D01*
X375250Y161901D02*
X375020Y161904D01*
X374790Y161912D01*
X374561Y161926D01*
X374332Y161945D01*
X374103Y161970D01*
X373875Y162000D01*
X373648Y162035D01*
X373422Y162076D01*
X373197Y162122D01*
X372973Y162174D01*
X372750Y162231D01*
X372529Y162293D01*
X372309Y162361D01*
X372091Y162434D01*
X371875Y162512D01*
X371661Y162595D01*
X371449Y162683D01*
X371238Y162776D01*
X371031Y162875D01*
X371031Y162874D02*
X370941Y162907D01*
X370852Y162943D01*
X370764Y162983D01*
X370679Y163027D01*
X370595Y163074D01*
X370513Y163124D01*
X370433Y163178D01*
X370356Y163234D01*
X370280Y163294D01*
X370207Y163357D01*
X370137Y163422D01*
X370069Y163491D01*
X370005Y163562D01*
X369943Y163635D01*
X369884Y163711D01*
X369828Y163789D01*
X369775Y163870D01*
X369726Y163952D01*
X369680Y164036D01*
X369637Y164123D01*
X369598Y164210D01*
X369562Y164300D01*
X369530Y164390D01*
X369502Y164482D01*
X369477Y164575D01*
X369456Y164669D01*
X369439Y164763D01*
X369425Y164858D01*
X369416Y164954D01*
X369410Y165050D01*
X369408Y165146D01*
X369410Y165242D01*
X369416Y165338D01*
X369425Y165434D01*
X369439Y165529D01*
X369456Y165623D01*
X369477Y165717D01*
X369502Y165810D01*
X369530Y165902D01*
X369562Y165992D01*
X369598Y166082D01*
X369637Y166170D01*
X369680Y166256D01*
X369726Y166340D01*
X369775Y166422D01*
X369828Y166503D01*
X369884Y166581D01*
X369943Y166657D01*
X370005Y166730D01*
X370069Y166801D01*
X370137Y166870D01*
X370207Y166935D01*
X370280Y166998D01*
X370356Y167058D01*
X370433Y167114D01*
X370513Y167168D01*
X370595Y167218D01*
X370679Y167265D01*
X370764Y167309D01*
X370852Y167349D01*
X370941Y167385D01*
X371031Y167418D01*
X371238Y167517D01*
X371449Y167610D01*
X371661Y167698D01*
X371875Y167781D01*
X372091Y167859D01*
X372309Y167932D01*
X372529Y168000D01*
X372750Y168062D01*
X372973Y168119D01*
X373197Y168171D01*
X373422Y168217D01*
X373648Y168258D01*
X373875Y168293D01*
X374103Y168323D01*
X374332Y168348D01*
X374561Y168367D01*
X374790Y168381D01*
X375020Y168389D01*
X375250Y168392D01*
X375250Y161901D02*
X375480Y161904D01*
X375710Y161912D01*
X375939Y161926D01*
X376168Y161945D01*
X376397Y161970D01*
X376625Y162000D01*
X376852Y162035D01*
X377078Y162076D01*
X377303Y162122D01*
X377527Y162174D01*
X377750Y162231D01*
X377971Y162293D01*
X378191Y162361D01*
X378409Y162434D01*
X378625Y162512D01*
X378839Y162595D01*
X379051Y162683D01*
X379262Y162776D01*
X379469Y162875D01*
X379469Y162874D02*
X379559Y162907D01*
X379648Y162943D01*
X379736Y162984D01*
X379821Y163027D01*
X379905Y163074D01*
X379987Y163124D01*
X380067Y163178D01*
X380144Y163234D01*
X380220Y163294D01*
X380293Y163357D01*
X380363Y163422D01*
X380431Y163491D01*
X380495Y163562D01*
X380557Y163635D01*
X380616Y163711D01*
X380672Y163789D01*
X380725Y163870D01*
X380774Y163952D01*
X380820Y164036D01*
X380863Y164123D01*
X380902Y164210D01*
X380938Y164300D01*
X380970Y164390D01*
X380998Y164482D01*
X381023Y164575D01*
X381044Y164669D01*
X381061Y164763D01*
X381075Y164858D01*
X381084Y164954D01*
X381090Y165050D01*
X381092Y165146D01*
X379469Y167418D02*
X379262Y167517D01*
X379051Y167610D01*
X378839Y167698D01*
X378625Y167781D01*
X378409Y167859D01*
X378191Y167932D01*
X377971Y168000D01*
X377750Y168062D01*
X377527Y168119D01*
X377303Y168171D01*
X377078Y168217D01*
X376852Y168258D01*
X376625Y168293D01*
X376397Y168323D01*
X376168Y168348D01*
X375939Y168367D01*
X375710Y168381D01*
X375480Y168389D01*
X375250Y168392D01*
X379469Y167418D02*
X379559Y167385D01*
X379648Y167349D01*
X379736Y167309D01*
X379821Y167265D01*
X379905Y167218D01*
X379987Y167168D01*
X380067Y167114D01*
X380144Y167058D01*
X380220Y166998D01*
X380293Y166935D01*
X380363Y166870D01*
X380431Y166801D01*
X380495Y166730D01*
X380557Y166657D01*
X380616Y166581D01*
X380672Y166503D01*
X380725Y166422D01*
X380774Y166340D01*
X380820Y166256D01*
X380863Y166169D01*
X380902Y166082D01*
X380938Y165992D01*
X380970Y165902D01*
X380998Y165810D01*
X381023Y165717D01*
X381044Y165623D01*
X381061Y165529D01*
X381075Y165434D01*
X381084Y165338D01*
X381090Y165242D01*
X381092Y165146D01*
X378496Y162550D02*
X372004Y167743D01*
X362701Y119408D02*
X360104Y119408D01*
X360005Y119410D01*
X359905Y119416D01*
X359806Y119425D01*
X359708Y119438D01*
X359610Y119455D01*
X359512Y119476D01*
X359416Y119501D01*
X359321Y119529D01*
X359227Y119561D01*
X359134Y119596D01*
X359042Y119635D01*
X358952Y119678D01*
X358864Y119723D01*
X358777Y119773D01*
X358693Y119825D01*
X358610Y119881D01*
X358530Y119939D01*
X358452Y120001D01*
X358377Y120066D01*
X358304Y120134D01*
X358234Y120204D01*
X358166Y120277D01*
X358101Y120352D01*
X358039Y120430D01*
X357981Y120510D01*
X357925Y120593D01*
X357873Y120677D01*
X357823Y120764D01*
X357778Y120852D01*
X357735Y120942D01*
X357696Y121034D01*
X357661Y121127D01*
X357629Y121221D01*
X357601Y121316D01*
X357576Y121412D01*
X357555Y121510D01*
X357538Y121608D01*
X357525Y121706D01*
X357516Y121805D01*
X357510Y121905D01*
X357508Y122004D01*
X357508Y128496D01*
X357510Y128595D01*
X357516Y128695D01*
X357525Y128794D01*
X357538Y128892D01*
X357555Y128990D01*
X357576Y129088D01*
X357601Y129184D01*
X357629Y129279D01*
X357661Y129373D01*
X357696Y129466D01*
X357735Y129558D01*
X357778Y129648D01*
X357823Y129736D01*
X357873Y129823D01*
X357925Y129907D01*
X357981Y129990D01*
X358039Y130070D01*
X358101Y130148D01*
X358166Y130223D01*
X358234Y130296D01*
X358304Y130366D01*
X358377Y130434D01*
X358452Y130499D01*
X358530Y130561D01*
X358610Y130619D01*
X358693Y130675D01*
X358777Y130727D01*
X358864Y130777D01*
X358952Y130822D01*
X359042Y130865D01*
X359134Y130904D01*
X359226Y130939D01*
X359321Y130971D01*
X359416Y130999D01*
X359512Y131024D01*
X359610Y131045D01*
X359708Y131062D01*
X359806Y131075D01*
X359905Y131084D01*
X360005Y131090D01*
X360104Y131092D01*
X362701Y131092D01*
X370636Y131092D02*
X370743Y131090D01*
X370849Y131084D01*
X370955Y131074D01*
X371061Y131061D01*
X371167Y131043D01*
X371271Y131022D01*
X371375Y130997D01*
X371478Y130968D01*
X371579Y130936D01*
X371679Y130899D01*
X371778Y130859D01*
X371876Y130816D01*
X371972Y130769D01*
X372066Y130718D01*
X372158Y130664D01*
X372248Y130607D01*
X372336Y130547D01*
X372421Y130483D01*
X372504Y130416D01*
X372585Y130346D01*
X372663Y130274D01*
X372739Y130198D01*
X372811Y130120D01*
X372881Y130039D01*
X372948Y129956D01*
X373012Y129871D01*
X373072Y129783D01*
X373129Y129693D01*
X373183Y129601D01*
X373234Y129507D01*
X373281Y129411D01*
X373324Y129313D01*
X373364Y129214D01*
X373401Y129114D01*
X373433Y129013D01*
X373462Y128910D01*
X373487Y128806D01*
X373508Y128702D01*
X373526Y128596D01*
X373539Y128490D01*
X373549Y128384D01*
X373555Y128278D01*
X373557Y128171D01*
X370636Y131092D02*
X370515Y131090D01*
X370394Y131084D01*
X370274Y131074D01*
X370153Y131061D01*
X370034Y131043D01*
X369914Y131022D01*
X369796Y130997D01*
X369679Y130968D01*
X369562Y130935D01*
X369447Y130899D01*
X369333Y130858D01*
X369220Y130815D01*
X369108Y130767D01*
X368999Y130716D01*
X368891Y130661D01*
X368784Y130603D01*
X368680Y130542D01*
X368578Y130477D01*
X368478Y130409D01*
X368380Y130338D01*
X368284Y130264D01*
X368191Y130187D01*
X368101Y130106D01*
X368013Y130023D01*
X367928Y129937D01*
X367845Y129848D01*
X367766Y129757D01*
X367689Y129663D01*
X367616Y129567D01*
X367546Y129469D01*
X367479Y129368D01*
X367415Y129265D01*
X367355Y129160D01*
X367298Y129053D01*
X367244Y128945D01*
X367194Y128835D01*
X367148Y128723D01*
X367105Y128610D01*
X367066Y128495D01*
X372584Y125899D02*
X372663Y125976D01*
X372739Y126057D01*
X372812Y126140D01*
X372882Y126225D01*
X372949Y126313D01*
X373013Y126403D01*
X373073Y126495D01*
X373130Y126590D01*
X373184Y126686D01*
X373235Y126784D01*
X373282Y126884D01*
X373326Y126986D01*
X373366Y127089D01*
X373402Y127193D01*
X373434Y127299D01*
X373463Y127405D01*
X373488Y127513D01*
X373510Y127621D01*
X373527Y127731D01*
X373541Y127840D01*
X373550Y127950D01*
X373556Y128061D01*
X373558Y128171D01*
X372584Y125899D02*
X367066Y119408D01*
X373557Y119408D01*
X378496Y128496D02*
X381742Y131092D01*
X381742Y119408D01*
X384987Y119408D02*
X378496Y119408D01*
X154401Y134908D02*
X151804Y134908D01*
X151705Y134910D01*
X151605Y134916D01*
X151506Y134925D01*
X151408Y134938D01*
X151310Y134955D01*
X151212Y134976D01*
X151116Y135001D01*
X151021Y135029D01*
X150927Y135061D01*
X150834Y135096D01*
X150742Y135135D01*
X150652Y135178D01*
X150564Y135223D01*
X150477Y135273D01*
X150393Y135325D01*
X150310Y135381D01*
X150230Y135439D01*
X150152Y135501D01*
X150077Y135566D01*
X150004Y135634D01*
X149934Y135704D01*
X149866Y135777D01*
X149801Y135852D01*
X149739Y135930D01*
X149681Y136010D01*
X149625Y136093D01*
X149573Y136177D01*
X149523Y136264D01*
X149478Y136352D01*
X149435Y136442D01*
X149396Y136534D01*
X149361Y136627D01*
X149329Y136721D01*
X149301Y136816D01*
X149276Y136912D01*
X149255Y137010D01*
X149238Y137108D01*
X149225Y137206D01*
X149216Y137305D01*
X149210Y137405D01*
X149208Y137504D01*
X149208Y143996D01*
X149210Y144095D01*
X149216Y144195D01*
X149225Y144294D01*
X149238Y144392D01*
X149255Y144490D01*
X149276Y144588D01*
X149301Y144684D01*
X149329Y144779D01*
X149361Y144873D01*
X149396Y144966D01*
X149435Y145058D01*
X149478Y145148D01*
X149523Y145236D01*
X149573Y145323D01*
X149625Y145407D01*
X149681Y145490D01*
X149739Y145570D01*
X149801Y145648D01*
X149866Y145723D01*
X149934Y145796D01*
X150004Y145866D01*
X150077Y145934D01*
X150152Y145999D01*
X150230Y146061D01*
X150310Y146119D01*
X150393Y146175D01*
X150477Y146227D01*
X150564Y146277D01*
X150652Y146322D01*
X150742Y146365D01*
X150834Y146404D01*
X150926Y146439D01*
X151021Y146471D01*
X151116Y146499D01*
X151212Y146524D01*
X151310Y146545D01*
X151408Y146562D01*
X151506Y146575D01*
X151605Y146584D01*
X151705Y146590D01*
X151804Y146592D01*
X154401Y146592D01*
X162336Y146592D02*
X162443Y146590D01*
X162549Y146584D01*
X162655Y146574D01*
X162761Y146561D01*
X162867Y146543D01*
X162971Y146522D01*
X163075Y146497D01*
X163178Y146468D01*
X163279Y146436D01*
X163379Y146399D01*
X163478Y146359D01*
X163576Y146316D01*
X163672Y146269D01*
X163766Y146218D01*
X163858Y146164D01*
X163948Y146107D01*
X164036Y146047D01*
X164121Y145983D01*
X164204Y145916D01*
X164285Y145846D01*
X164363Y145774D01*
X164439Y145698D01*
X164511Y145620D01*
X164581Y145539D01*
X164648Y145456D01*
X164712Y145371D01*
X164772Y145283D01*
X164829Y145193D01*
X164883Y145101D01*
X164934Y145007D01*
X164981Y144911D01*
X165024Y144813D01*
X165064Y144714D01*
X165101Y144614D01*
X165133Y144513D01*
X165162Y144410D01*
X165187Y144306D01*
X165208Y144202D01*
X165226Y144096D01*
X165239Y143990D01*
X165249Y143884D01*
X165255Y143778D01*
X165257Y143671D01*
X162336Y146592D02*
X162215Y146590D01*
X162094Y146584D01*
X161974Y146574D01*
X161853Y146561D01*
X161734Y146543D01*
X161614Y146522D01*
X161496Y146497D01*
X161379Y146468D01*
X161262Y146435D01*
X161147Y146399D01*
X161033Y146358D01*
X160920Y146315D01*
X160808Y146267D01*
X160699Y146216D01*
X160591Y146161D01*
X160484Y146103D01*
X160380Y146042D01*
X160278Y145977D01*
X160178Y145909D01*
X160080Y145838D01*
X159984Y145764D01*
X159891Y145687D01*
X159801Y145606D01*
X159713Y145523D01*
X159628Y145437D01*
X159545Y145348D01*
X159466Y145257D01*
X159389Y145163D01*
X159316Y145067D01*
X159246Y144969D01*
X159179Y144868D01*
X159115Y144765D01*
X159055Y144660D01*
X158998Y144553D01*
X158944Y144445D01*
X158894Y144335D01*
X158848Y144223D01*
X158805Y144110D01*
X158766Y143995D01*
X164284Y141399D02*
X164363Y141476D01*
X164439Y141557D01*
X164512Y141640D01*
X164582Y141725D01*
X164649Y141813D01*
X164713Y141903D01*
X164773Y141995D01*
X164830Y142090D01*
X164884Y142186D01*
X164935Y142284D01*
X164982Y142384D01*
X165026Y142486D01*
X165066Y142589D01*
X165102Y142693D01*
X165134Y142799D01*
X165163Y142905D01*
X165188Y143013D01*
X165210Y143121D01*
X165227Y143231D01*
X165241Y143340D01*
X165250Y143450D01*
X165256Y143561D01*
X165258Y143671D01*
X164284Y141399D02*
X158766Y134908D01*
X165257Y134908D01*
X176687Y143671D02*
X176685Y143778D01*
X176679Y143884D01*
X176669Y143990D01*
X176656Y144096D01*
X176638Y144202D01*
X176617Y144306D01*
X176592Y144410D01*
X176563Y144513D01*
X176531Y144614D01*
X176494Y144714D01*
X176454Y144813D01*
X176411Y144911D01*
X176364Y145007D01*
X176313Y145101D01*
X176259Y145193D01*
X176202Y145283D01*
X176142Y145371D01*
X176078Y145456D01*
X176011Y145539D01*
X175941Y145620D01*
X175869Y145698D01*
X175793Y145774D01*
X175715Y145846D01*
X175634Y145916D01*
X175551Y145983D01*
X175466Y146047D01*
X175378Y146107D01*
X175288Y146164D01*
X175196Y146218D01*
X175102Y146269D01*
X175006Y146316D01*
X174908Y146359D01*
X174809Y146399D01*
X174709Y146436D01*
X174608Y146468D01*
X174505Y146497D01*
X174401Y146522D01*
X174297Y146543D01*
X174191Y146561D01*
X174085Y146574D01*
X173979Y146584D01*
X173873Y146590D01*
X173766Y146592D01*
X173645Y146590D01*
X173524Y146584D01*
X173404Y146574D01*
X173283Y146561D01*
X173164Y146543D01*
X173044Y146522D01*
X172926Y146497D01*
X172809Y146468D01*
X172692Y146435D01*
X172577Y146399D01*
X172463Y146358D01*
X172350Y146315D01*
X172238Y146267D01*
X172129Y146216D01*
X172021Y146161D01*
X171914Y146103D01*
X171810Y146042D01*
X171708Y145977D01*
X171608Y145909D01*
X171510Y145838D01*
X171414Y145764D01*
X171321Y145687D01*
X171231Y145606D01*
X171143Y145523D01*
X171058Y145437D01*
X170975Y145348D01*
X170896Y145257D01*
X170819Y145163D01*
X170746Y145067D01*
X170676Y144969D01*
X170609Y144868D01*
X170545Y144765D01*
X170485Y144660D01*
X170428Y144553D01*
X170374Y144445D01*
X170324Y144335D01*
X170278Y144223D01*
X170235Y144110D01*
X170196Y143995D01*
X175714Y141399D02*
X175793Y141476D01*
X175869Y141557D01*
X175942Y141640D01*
X176012Y141725D01*
X176079Y141813D01*
X176143Y141903D01*
X176203Y141995D01*
X176260Y142090D01*
X176314Y142186D01*
X176365Y142284D01*
X176412Y142384D01*
X176456Y142486D01*
X176496Y142589D01*
X176532Y142693D01*
X176564Y142799D01*
X176593Y142905D01*
X176618Y143013D01*
X176640Y143121D01*
X176657Y143231D01*
X176671Y143340D01*
X176680Y143450D01*
X176686Y143561D01*
X176688Y143671D01*
X175714Y141399D02*
X170196Y134908D01*
X176687Y134908D01*
X143592Y103106D02*
X143592Y100509D01*
X143590Y100410D01*
X143584Y100310D01*
X143575Y100211D01*
X143562Y100113D01*
X143545Y100015D01*
X143524Y99917D01*
X143499Y99821D01*
X143471Y99726D01*
X143439Y99632D01*
X143404Y99539D01*
X143365Y99447D01*
X143322Y99357D01*
X143277Y99269D01*
X143227Y99182D01*
X143175Y99098D01*
X143119Y99015D01*
X143061Y98935D01*
X142999Y98857D01*
X142934Y98782D01*
X142866Y98709D01*
X142796Y98639D01*
X142723Y98571D01*
X142648Y98506D01*
X142570Y98444D01*
X142490Y98386D01*
X142407Y98330D01*
X142323Y98278D01*
X142236Y98228D01*
X142148Y98183D01*
X142058Y98140D01*
X141966Y98101D01*
X141873Y98066D01*
X141779Y98034D01*
X141684Y98006D01*
X141588Y97981D01*
X141490Y97960D01*
X141392Y97943D01*
X141294Y97930D01*
X141195Y97921D01*
X141095Y97915D01*
X140996Y97913D01*
X134504Y97913D01*
X134504Y97912D02*
X134405Y97914D01*
X134305Y97920D01*
X134206Y97929D01*
X134108Y97942D01*
X134010Y97960D01*
X133912Y97980D01*
X133816Y98005D01*
X133720Y98033D01*
X133626Y98065D01*
X133533Y98100D01*
X133442Y98139D01*
X133352Y98182D01*
X133263Y98227D01*
X133177Y98277D01*
X133092Y98329D01*
X133010Y98385D01*
X132930Y98444D01*
X132852Y98505D01*
X132776Y98570D01*
X132703Y98638D01*
X132633Y98708D01*
X132565Y98781D01*
X132500Y98857D01*
X132439Y98935D01*
X132380Y99015D01*
X132324Y99097D01*
X132272Y99182D01*
X132223Y99268D01*
X132177Y99357D01*
X132134Y99447D01*
X132095Y99538D01*
X132060Y99631D01*
X132028Y99725D01*
X132000Y99821D01*
X131975Y99917D01*
X131955Y100015D01*
X131937Y100113D01*
X131924Y100211D01*
X131915Y100310D01*
X131909Y100409D01*
X131907Y100509D01*
X131908Y100509D02*
X131908Y103106D01*
X131908Y111041D02*
X131910Y111148D01*
X131916Y111254D01*
X131926Y111360D01*
X131939Y111466D01*
X131957Y111572D01*
X131978Y111676D01*
X132003Y111780D01*
X132032Y111883D01*
X132064Y111984D01*
X132101Y112084D01*
X132141Y112183D01*
X132184Y112281D01*
X132231Y112377D01*
X132282Y112471D01*
X132336Y112563D01*
X132393Y112653D01*
X132453Y112741D01*
X132517Y112826D01*
X132584Y112909D01*
X132654Y112990D01*
X132726Y113068D01*
X132802Y113144D01*
X132880Y113216D01*
X132961Y113286D01*
X133044Y113353D01*
X133129Y113417D01*
X133217Y113477D01*
X133307Y113534D01*
X133399Y113588D01*
X133493Y113639D01*
X133589Y113686D01*
X133687Y113729D01*
X133786Y113769D01*
X133886Y113806D01*
X133987Y113838D01*
X134090Y113867D01*
X134194Y113892D01*
X134298Y113913D01*
X134404Y113931D01*
X134510Y113944D01*
X134616Y113954D01*
X134722Y113960D01*
X134829Y113962D01*
X131908Y111041D02*
X131910Y110920D01*
X131916Y110799D01*
X131926Y110679D01*
X131939Y110558D01*
X131957Y110439D01*
X131978Y110319D01*
X132003Y110201D01*
X132032Y110084D01*
X132065Y109967D01*
X132101Y109852D01*
X132142Y109738D01*
X132185Y109625D01*
X132233Y109513D01*
X132284Y109404D01*
X132339Y109296D01*
X132397Y109189D01*
X132458Y109085D01*
X132523Y108983D01*
X132591Y108883D01*
X132662Y108785D01*
X132736Y108689D01*
X132813Y108596D01*
X132894Y108506D01*
X132977Y108418D01*
X133063Y108333D01*
X133152Y108250D01*
X133243Y108171D01*
X133337Y108094D01*
X133433Y108021D01*
X133531Y107951D01*
X133632Y107884D01*
X133735Y107820D01*
X133840Y107760D01*
X133947Y107702D01*
X134055Y107649D01*
X134165Y107599D01*
X134277Y107553D01*
X134390Y107510D01*
X134505Y107471D01*
X137101Y112988D02*
X137023Y113067D01*
X136943Y113143D01*
X136860Y113216D01*
X136774Y113286D01*
X136687Y113353D01*
X136596Y113417D01*
X136504Y113477D01*
X136410Y113535D01*
X136313Y113589D01*
X136215Y113639D01*
X136115Y113686D01*
X136014Y113730D01*
X135911Y113770D01*
X135806Y113806D01*
X135701Y113838D01*
X135594Y113867D01*
X135487Y113892D01*
X135378Y113914D01*
X135269Y113931D01*
X135160Y113945D01*
X135050Y113954D01*
X134939Y113960D01*
X134829Y113962D01*
X137101Y112988D02*
X143592Y107471D01*
X143592Y113962D01*
X143592Y118901D02*
X143592Y122146D01*
X143590Y122259D01*
X143584Y122372D01*
X143574Y122485D01*
X143560Y122598D01*
X143543Y122710D01*
X143521Y122821D01*
X143496Y122931D01*
X143466Y123041D01*
X143433Y123149D01*
X143396Y123256D01*
X143356Y123362D01*
X143311Y123466D01*
X143263Y123569D01*
X143212Y123670D01*
X143157Y123769D01*
X143099Y123866D01*
X143037Y123961D01*
X142972Y124054D01*
X142904Y124144D01*
X142833Y124232D01*
X142758Y124318D01*
X142681Y124401D01*
X142601Y124481D01*
X142518Y124558D01*
X142432Y124633D01*
X142344Y124704D01*
X142254Y124772D01*
X142161Y124837D01*
X142066Y124899D01*
X141969Y124957D01*
X141870Y125012D01*
X141769Y125063D01*
X141666Y125111D01*
X141562Y125156D01*
X141456Y125196D01*
X141349Y125233D01*
X141241Y125266D01*
X141131Y125296D01*
X141021Y125321D01*
X140910Y125343D01*
X140798Y125360D01*
X140685Y125374D01*
X140572Y125384D01*
X140459Y125390D01*
X140346Y125392D01*
X140233Y125390D01*
X140120Y125384D01*
X140007Y125374D01*
X139894Y125360D01*
X139782Y125343D01*
X139671Y125321D01*
X139561Y125296D01*
X139451Y125266D01*
X139343Y125233D01*
X139236Y125196D01*
X139130Y125156D01*
X139026Y125111D01*
X138923Y125063D01*
X138822Y125012D01*
X138723Y124957D01*
X138626Y124899D01*
X138531Y124837D01*
X138438Y124772D01*
X138348Y124704D01*
X138260Y124633D01*
X138174Y124558D01*
X138091Y124481D01*
X138011Y124401D01*
X137934Y124318D01*
X137859Y124232D01*
X137788Y124144D01*
X137720Y124054D01*
X137655Y123961D01*
X137593Y123866D01*
X137535Y123769D01*
X137480Y123670D01*
X137429Y123569D01*
X137381Y123466D01*
X137336Y123362D01*
X137296Y123256D01*
X137259Y123149D01*
X137226Y123041D01*
X137196Y122931D01*
X137171Y122821D01*
X137149Y122710D01*
X137132Y122598D01*
X137118Y122485D01*
X137108Y122372D01*
X137102Y122259D01*
X137100Y122146D01*
X131908Y122796D02*
X131908Y118901D01*
X131908Y122796D02*
X131910Y122897D01*
X131916Y122997D01*
X131926Y123097D01*
X131939Y123197D01*
X131957Y123296D01*
X131978Y123395D01*
X132003Y123492D01*
X132032Y123589D01*
X132065Y123684D01*
X132101Y123778D01*
X132141Y123870D01*
X132184Y123961D01*
X132231Y124050D01*
X132281Y124137D01*
X132335Y124223D01*
X132392Y124306D01*
X132452Y124386D01*
X132515Y124465D01*
X132582Y124541D01*
X132651Y124614D01*
X132723Y124684D01*
X132797Y124752D01*
X132874Y124817D01*
X132954Y124878D01*
X133036Y124937D01*
X133120Y124992D01*
X133206Y125044D01*
X133294Y125093D01*
X133384Y125138D01*
X133476Y125180D01*
X133569Y125218D01*
X133664Y125252D01*
X133759Y125283D01*
X133856Y125310D01*
X133954Y125333D01*
X134053Y125353D01*
X134153Y125368D01*
X134253Y125380D01*
X134353Y125388D01*
X134454Y125392D01*
X134554Y125392D01*
X134655Y125388D01*
X134755Y125380D01*
X134855Y125368D01*
X134955Y125353D01*
X135054Y125333D01*
X135152Y125310D01*
X135249Y125283D01*
X135344Y125252D01*
X135439Y125218D01*
X135532Y125180D01*
X135624Y125138D01*
X135714Y125093D01*
X135802Y125044D01*
X135888Y124992D01*
X135972Y124937D01*
X136054Y124878D01*
X136134Y124817D01*
X136211Y124752D01*
X136285Y124684D01*
X136357Y124614D01*
X136426Y124541D01*
X136493Y124465D01*
X136556Y124386D01*
X136616Y124306D01*
X136673Y124223D01*
X136727Y124137D01*
X136777Y124050D01*
X136824Y123961D01*
X136867Y123870D01*
X136907Y123778D01*
X136943Y123684D01*
X136976Y123589D01*
X137005Y123492D01*
X137030Y123395D01*
X137051Y123296D01*
X137069Y123197D01*
X137082Y123097D01*
X137092Y122997D01*
X137098Y122897D01*
X137100Y122796D01*
X137101Y122796D02*
X137101Y120199D01*
X137201Y401408D02*
X134604Y401408D01*
X134505Y401410D01*
X134405Y401416D01*
X134306Y401425D01*
X134208Y401438D01*
X134110Y401455D01*
X134012Y401476D01*
X133916Y401501D01*
X133821Y401529D01*
X133727Y401561D01*
X133634Y401596D01*
X133542Y401635D01*
X133452Y401678D01*
X133364Y401723D01*
X133277Y401773D01*
X133193Y401825D01*
X133110Y401881D01*
X133030Y401939D01*
X132952Y402001D01*
X132877Y402066D01*
X132804Y402134D01*
X132734Y402204D01*
X132666Y402277D01*
X132601Y402352D01*
X132539Y402430D01*
X132481Y402510D01*
X132425Y402593D01*
X132373Y402677D01*
X132323Y402764D01*
X132278Y402852D01*
X132235Y402942D01*
X132196Y403034D01*
X132161Y403127D01*
X132129Y403221D01*
X132101Y403316D01*
X132076Y403412D01*
X132055Y403510D01*
X132038Y403608D01*
X132025Y403706D01*
X132016Y403805D01*
X132010Y403905D01*
X132008Y404004D01*
X132008Y410496D01*
X132010Y410595D01*
X132016Y410695D01*
X132025Y410794D01*
X132038Y410892D01*
X132055Y410990D01*
X132076Y411088D01*
X132101Y411184D01*
X132129Y411279D01*
X132161Y411373D01*
X132196Y411466D01*
X132235Y411558D01*
X132278Y411648D01*
X132323Y411736D01*
X132373Y411823D01*
X132425Y411907D01*
X132481Y411990D01*
X132539Y412070D01*
X132601Y412148D01*
X132666Y412223D01*
X132734Y412296D01*
X132804Y412366D01*
X132877Y412434D01*
X132952Y412499D01*
X133030Y412561D01*
X133110Y412619D01*
X133193Y412675D01*
X133277Y412727D01*
X133364Y412777D01*
X133452Y412822D01*
X133542Y412865D01*
X133634Y412904D01*
X133726Y412939D01*
X133821Y412971D01*
X133916Y412999D01*
X134012Y413024D01*
X134110Y413045D01*
X134208Y413062D01*
X134306Y413075D01*
X134405Y413084D01*
X134505Y413090D01*
X134604Y413092D01*
X137201Y413092D01*
X145136Y413092D02*
X145243Y413090D01*
X145349Y413084D01*
X145455Y413074D01*
X145561Y413061D01*
X145667Y413043D01*
X145771Y413022D01*
X145875Y412997D01*
X145978Y412968D01*
X146079Y412936D01*
X146179Y412899D01*
X146278Y412859D01*
X146376Y412816D01*
X146472Y412769D01*
X146566Y412718D01*
X146658Y412664D01*
X146748Y412607D01*
X146836Y412547D01*
X146921Y412483D01*
X147004Y412416D01*
X147085Y412346D01*
X147163Y412274D01*
X147239Y412198D01*
X147311Y412120D01*
X147381Y412039D01*
X147448Y411956D01*
X147512Y411871D01*
X147572Y411783D01*
X147629Y411693D01*
X147683Y411601D01*
X147734Y411507D01*
X147781Y411411D01*
X147824Y411313D01*
X147864Y411214D01*
X147901Y411114D01*
X147933Y411013D01*
X147962Y410910D01*
X147987Y410806D01*
X148008Y410702D01*
X148026Y410596D01*
X148039Y410490D01*
X148049Y410384D01*
X148055Y410278D01*
X148057Y410171D01*
X145136Y413092D02*
X145015Y413090D01*
X144894Y413084D01*
X144774Y413074D01*
X144653Y413061D01*
X144534Y413043D01*
X144414Y413022D01*
X144296Y412997D01*
X144179Y412968D01*
X144062Y412935D01*
X143947Y412899D01*
X143833Y412858D01*
X143720Y412815D01*
X143608Y412767D01*
X143499Y412716D01*
X143391Y412661D01*
X143284Y412603D01*
X143180Y412542D01*
X143078Y412477D01*
X142978Y412409D01*
X142880Y412338D01*
X142784Y412264D01*
X142691Y412187D01*
X142601Y412106D01*
X142513Y412023D01*
X142428Y411937D01*
X142345Y411848D01*
X142266Y411757D01*
X142189Y411663D01*
X142116Y411567D01*
X142046Y411469D01*
X141979Y411368D01*
X141915Y411265D01*
X141855Y411160D01*
X141798Y411053D01*
X141744Y410945D01*
X141694Y410835D01*
X141648Y410723D01*
X141605Y410610D01*
X141566Y410495D01*
X147084Y407899D02*
X147163Y407976D01*
X147239Y408057D01*
X147312Y408140D01*
X147382Y408225D01*
X147449Y408313D01*
X147513Y408403D01*
X147573Y408495D01*
X147630Y408590D01*
X147684Y408686D01*
X147735Y408784D01*
X147782Y408884D01*
X147826Y408986D01*
X147866Y409089D01*
X147902Y409193D01*
X147934Y409299D01*
X147963Y409405D01*
X147988Y409513D01*
X148010Y409621D01*
X148027Y409731D01*
X148041Y409840D01*
X148050Y409950D01*
X148056Y410061D01*
X148058Y410171D01*
X147084Y407899D02*
X141566Y401408D01*
X148057Y401408D01*
X152996Y404004D02*
X155593Y413092D01*
X152996Y404004D02*
X159487Y404004D01*
X157540Y406601D02*
X157540Y401408D01*
X119606Y309308D02*
X117009Y309308D01*
X116910Y309310D01*
X116810Y309316D01*
X116711Y309325D01*
X116613Y309338D01*
X116515Y309355D01*
X116417Y309376D01*
X116321Y309401D01*
X116226Y309429D01*
X116132Y309461D01*
X116039Y309496D01*
X115947Y309535D01*
X115857Y309578D01*
X115769Y309623D01*
X115682Y309673D01*
X115598Y309725D01*
X115515Y309781D01*
X115435Y309839D01*
X115357Y309901D01*
X115282Y309966D01*
X115209Y310034D01*
X115139Y310104D01*
X115071Y310177D01*
X115006Y310252D01*
X114944Y310330D01*
X114886Y310410D01*
X114830Y310493D01*
X114778Y310577D01*
X114728Y310664D01*
X114683Y310752D01*
X114640Y310842D01*
X114601Y310934D01*
X114566Y311027D01*
X114534Y311121D01*
X114506Y311216D01*
X114481Y311312D01*
X114460Y311410D01*
X114443Y311508D01*
X114430Y311606D01*
X114421Y311705D01*
X114415Y311805D01*
X114413Y311904D01*
X114413Y318396D01*
X114415Y318495D01*
X114421Y318595D01*
X114430Y318694D01*
X114443Y318792D01*
X114460Y318890D01*
X114481Y318988D01*
X114506Y319084D01*
X114534Y319179D01*
X114566Y319273D01*
X114601Y319366D01*
X114640Y319458D01*
X114683Y319548D01*
X114728Y319636D01*
X114778Y319723D01*
X114830Y319807D01*
X114886Y319890D01*
X114944Y319970D01*
X115006Y320048D01*
X115071Y320123D01*
X115139Y320196D01*
X115209Y320266D01*
X115282Y320334D01*
X115357Y320399D01*
X115435Y320461D01*
X115515Y320519D01*
X115598Y320575D01*
X115682Y320627D01*
X115769Y320677D01*
X115857Y320722D01*
X115947Y320765D01*
X116039Y320804D01*
X116131Y320839D01*
X116226Y320871D01*
X116321Y320899D01*
X116417Y320924D01*
X116515Y320945D01*
X116613Y320962D01*
X116711Y320975D01*
X116810Y320984D01*
X116910Y320990D01*
X117009Y320992D01*
X119606Y320992D01*
X127541Y320992D02*
X127648Y320990D01*
X127754Y320984D01*
X127860Y320974D01*
X127966Y320961D01*
X128072Y320943D01*
X128176Y320922D01*
X128280Y320897D01*
X128383Y320868D01*
X128484Y320836D01*
X128584Y320799D01*
X128683Y320759D01*
X128781Y320716D01*
X128877Y320669D01*
X128971Y320618D01*
X129063Y320564D01*
X129153Y320507D01*
X129241Y320447D01*
X129326Y320383D01*
X129409Y320316D01*
X129490Y320246D01*
X129568Y320174D01*
X129644Y320098D01*
X129716Y320020D01*
X129786Y319939D01*
X129853Y319856D01*
X129917Y319771D01*
X129977Y319683D01*
X130034Y319593D01*
X130088Y319501D01*
X130139Y319407D01*
X130186Y319311D01*
X130229Y319213D01*
X130269Y319114D01*
X130306Y319014D01*
X130338Y318913D01*
X130367Y318810D01*
X130392Y318706D01*
X130413Y318602D01*
X130431Y318496D01*
X130444Y318390D01*
X130454Y318284D01*
X130460Y318178D01*
X130462Y318071D01*
X127541Y320992D02*
X127420Y320990D01*
X127299Y320984D01*
X127179Y320974D01*
X127058Y320961D01*
X126939Y320943D01*
X126819Y320922D01*
X126701Y320897D01*
X126584Y320868D01*
X126467Y320835D01*
X126352Y320799D01*
X126238Y320758D01*
X126125Y320715D01*
X126013Y320667D01*
X125904Y320616D01*
X125796Y320561D01*
X125689Y320503D01*
X125585Y320442D01*
X125483Y320377D01*
X125383Y320309D01*
X125285Y320238D01*
X125189Y320164D01*
X125096Y320087D01*
X125006Y320006D01*
X124918Y319923D01*
X124833Y319837D01*
X124750Y319748D01*
X124671Y319657D01*
X124594Y319563D01*
X124521Y319467D01*
X124451Y319369D01*
X124384Y319268D01*
X124320Y319165D01*
X124260Y319060D01*
X124203Y318953D01*
X124149Y318845D01*
X124099Y318735D01*
X124053Y318623D01*
X124010Y318510D01*
X123971Y318395D01*
X129489Y315799D02*
X129568Y315876D01*
X129644Y315957D01*
X129717Y316040D01*
X129787Y316125D01*
X129854Y316213D01*
X129918Y316303D01*
X129978Y316395D01*
X130035Y316490D01*
X130089Y316586D01*
X130140Y316684D01*
X130187Y316784D01*
X130231Y316886D01*
X130271Y316989D01*
X130307Y317093D01*
X130339Y317199D01*
X130368Y317305D01*
X130393Y317413D01*
X130415Y317521D01*
X130432Y317631D01*
X130446Y317740D01*
X130455Y317850D01*
X130461Y317961D01*
X130463Y318071D01*
X129488Y315799D02*
X123971Y309308D01*
X130462Y309308D01*
X135401Y309308D02*
X139296Y309308D01*
X139395Y309310D01*
X139495Y309316D01*
X139594Y309325D01*
X139692Y309338D01*
X139790Y309355D01*
X139888Y309376D01*
X139984Y309401D01*
X140079Y309429D01*
X140173Y309461D01*
X140266Y309496D01*
X140358Y309535D01*
X140448Y309578D01*
X140536Y309623D01*
X140623Y309673D01*
X140707Y309725D01*
X140790Y309781D01*
X140870Y309839D01*
X140948Y309901D01*
X141023Y309966D01*
X141096Y310034D01*
X141166Y310104D01*
X141234Y310177D01*
X141299Y310252D01*
X141361Y310330D01*
X141419Y310410D01*
X141475Y310493D01*
X141527Y310577D01*
X141577Y310664D01*
X141622Y310752D01*
X141665Y310842D01*
X141704Y310934D01*
X141739Y311027D01*
X141771Y311121D01*
X141799Y311216D01*
X141824Y311312D01*
X141845Y311410D01*
X141862Y311508D01*
X141875Y311606D01*
X141884Y311705D01*
X141890Y311805D01*
X141892Y311904D01*
X141892Y313203D01*
X141890Y313302D01*
X141884Y313402D01*
X141875Y313501D01*
X141862Y313599D01*
X141845Y313697D01*
X141824Y313795D01*
X141799Y313891D01*
X141771Y313986D01*
X141739Y314080D01*
X141704Y314173D01*
X141665Y314265D01*
X141622Y314355D01*
X141577Y314443D01*
X141527Y314530D01*
X141475Y314614D01*
X141419Y314697D01*
X141361Y314777D01*
X141299Y314855D01*
X141234Y314930D01*
X141166Y315003D01*
X141096Y315073D01*
X141023Y315141D01*
X140948Y315206D01*
X140870Y315268D01*
X140790Y315326D01*
X140707Y315382D01*
X140623Y315434D01*
X140536Y315484D01*
X140448Y315529D01*
X140358Y315572D01*
X140266Y315611D01*
X140173Y315646D01*
X140079Y315678D01*
X139984Y315706D01*
X139888Y315731D01*
X139790Y315752D01*
X139692Y315769D01*
X139594Y315782D01*
X139495Y315791D01*
X139395Y315797D01*
X139296Y315799D01*
X135401Y315799D01*
X135401Y320992D01*
X141892Y320992D01*
X290692Y109201D02*
X290692Y106604D01*
X290690Y106505D01*
X290684Y106405D01*
X290675Y106306D01*
X290662Y106208D01*
X290645Y106110D01*
X290624Y106012D01*
X290599Y105916D01*
X290571Y105821D01*
X290539Y105727D01*
X290504Y105634D01*
X290465Y105542D01*
X290422Y105452D01*
X290377Y105364D01*
X290327Y105277D01*
X290275Y105193D01*
X290219Y105110D01*
X290161Y105030D01*
X290099Y104952D01*
X290034Y104877D01*
X289966Y104804D01*
X289896Y104734D01*
X289823Y104666D01*
X289748Y104601D01*
X289670Y104539D01*
X289590Y104481D01*
X289507Y104425D01*
X289423Y104373D01*
X289336Y104323D01*
X289248Y104278D01*
X289158Y104235D01*
X289066Y104196D01*
X288973Y104161D01*
X288879Y104129D01*
X288784Y104101D01*
X288688Y104076D01*
X288590Y104055D01*
X288492Y104038D01*
X288394Y104025D01*
X288295Y104016D01*
X288195Y104010D01*
X288096Y104008D01*
X281604Y104008D01*
X281505Y104010D01*
X281405Y104016D01*
X281306Y104025D01*
X281208Y104038D01*
X281110Y104056D01*
X281012Y104076D01*
X280916Y104101D01*
X280820Y104129D01*
X280726Y104161D01*
X280633Y104196D01*
X280542Y104235D01*
X280452Y104278D01*
X280363Y104323D01*
X280277Y104373D01*
X280192Y104425D01*
X280110Y104481D01*
X280030Y104540D01*
X279952Y104601D01*
X279876Y104666D01*
X279803Y104734D01*
X279733Y104804D01*
X279665Y104877D01*
X279600Y104953D01*
X279539Y105031D01*
X279480Y105111D01*
X279424Y105193D01*
X279372Y105278D01*
X279323Y105364D01*
X279277Y105453D01*
X279234Y105543D01*
X279195Y105634D01*
X279160Y105727D01*
X279128Y105821D01*
X279100Y105917D01*
X279075Y106013D01*
X279055Y106111D01*
X279037Y106209D01*
X279024Y106307D01*
X279015Y106406D01*
X279009Y106505D01*
X279007Y106605D01*
X279008Y106604D02*
X279008Y109201D01*
X279008Y117136D02*
X279010Y117243D01*
X279016Y117349D01*
X279026Y117455D01*
X279039Y117561D01*
X279057Y117667D01*
X279078Y117771D01*
X279103Y117875D01*
X279132Y117978D01*
X279164Y118079D01*
X279201Y118179D01*
X279241Y118278D01*
X279284Y118376D01*
X279331Y118472D01*
X279382Y118566D01*
X279436Y118658D01*
X279493Y118748D01*
X279553Y118836D01*
X279617Y118921D01*
X279684Y119004D01*
X279754Y119085D01*
X279826Y119163D01*
X279902Y119239D01*
X279980Y119311D01*
X280061Y119381D01*
X280144Y119448D01*
X280229Y119512D01*
X280317Y119572D01*
X280407Y119629D01*
X280499Y119683D01*
X280593Y119734D01*
X280689Y119781D01*
X280787Y119824D01*
X280886Y119864D01*
X280986Y119901D01*
X281087Y119933D01*
X281190Y119962D01*
X281294Y119987D01*
X281398Y120008D01*
X281504Y120026D01*
X281610Y120039D01*
X281716Y120049D01*
X281822Y120055D01*
X281929Y120057D01*
X279008Y117136D02*
X279010Y117015D01*
X279016Y116894D01*
X279026Y116774D01*
X279039Y116653D01*
X279057Y116534D01*
X279078Y116414D01*
X279103Y116296D01*
X279132Y116179D01*
X279165Y116062D01*
X279201Y115947D01*
X279242Y115833D01*
X279285Y115720D01*
X279333Y115608D01*
X279384Y115499D01*
X279439Y115391D01*
X279497Y115284D01*
X279558Y115180D01*
X279623Y115078D01*
X279691Y114978D01*
X279762Y114880D01*
X279836Y114784D01*
X279913Y114691D01*
X279994Y114601D01*
X280077Y114513D01*
X280163Y114428D01*
X280252Y114345D01*
X280343Y114266D01*
X280437Y114189D01*
X280533Y114116D01*
X280631Y114046D01*
X280732Y113979D01*
X280835Y113915D01*
X280940Y113855D01*
X281047Y113797D01*
X281155Y113744D01*
X281265Y113694D01*
X281377Y113648D01*
X281490Y113605D01*
X281605Y113566D01*
X284201Y119083D02*
X284123Y119162D01*
X284043Y119238D01*
X283960Y119311D01*
X283874Y119381D01*
X283787Y119448D01*
X283696Y119512D01*
X283604Y119572D01*
X283510Y119630D01*
X283413Y119684D01*
X283315Y119734D01*
X283215Y119781D01*
X283114Y119825D01*
X283011Y119865D01*
X282906Y119901D01*
X282801Y119933D01*
X282694Y119962D01*
X282587Y119987D01*
X282478Y120009D01*
X282369Y120026D01*
X282260Y120040D01*
X282150Y120049D01*
X282039Y120055D01*
X281929Y120057D01*
X284201Y119084D02*
X290692Y113566D01*
X290692Y120057D01*
X287446Y124996D02*
X287333Y124998D01*
X287220Y125004D01*
X287107Y125014D01*
X286994Y125028D01*
X286882Y125045D01*
X286771Y125067D01*
X286661Y125092D01*
X286551Y125122D01*
X286443Y125155D01*
X286336Y125192D01*
X286230Y125232D01*
X286126Y125277D01*
X286023Y125325D01*
X285922Y125376D01*
X285823Y125431D01*
X285726Y125489D01*
X285631Y125551D01*
X285538Y125616D01*
X285448Y125684D01*
X285360Y125755D01*
X285274Y125830D01*
X285191Y125907D01*
X285111Y125987D01*
X285034Y126070D01*
X284959Y126156D01*
X284888Y126244D01*
X284820Y126334D01*
X284755Y126427D01*
X284693Y126522D01*
X284635Y126619D01*
X284580Y126718D01*
X284529Y126819D01*
X284481Y126922D01*
X284436Y127026D01*
X284396Y127132D01*
X284359Y127239D01*
X284326Y127347D01*
X284296Y127457D01*
X284271Y127567D01*
X284249Y127678D01*
X284232Y127790D01*
X284218Y127903D01*
X284208Y128016D01*
X284202Y128129D01*
X284200Y128242D01*
X284202Y128355D01*
X284208Y128468D01*
X284218Y128581D01*
X284232Y128694D01*
X284249Y128806D01*
X284271Y128917D01*
X284296Y129027D01*
X284326Y129137D01*
X284359Y129245D01*
X284396Y129352D01*
X284436Y129458D01*
X284481Y129562D01*
X284529Y129665D01*
X284580Y129766D01*
X284635Y129865D01*
X284693Y129962D01*
X284755Y130057D01*
X284820Y130150D01*
X284888Y130240D01*
X284959Y130328D01*
X285034Y130414D01*
X285111Y130497D01*
X285191Y130577D01*
X285274Y130654D01*
X285360Y130729D01*
X285448Y130800D01*
X285538Y130868D01*
X285631Y130933D01*
X285726Y130995D01*
X285823Y131053D01*
X285922Y131108D01*
X286023Y131159D01*
X286126Y131207D01*
X286230Y131252D01*
X286336Y131292D01*
X286443Y131329D01*
X286551Y131362D01*
X286661Y131392D01*
X286771Y131417D01*
X286882Y131439D01*
X286994Y131456D01*
X287107Y131470D01*
X287220Y131480D01*
X287333Y131486D01*
X287446Y131488D01*
X287559Y131486D01*
X287672Y131480D01*
X287785Y131470D01*
X287898Y131456D01*
X288010Y131439D01*
X288121Y131417D01*
X288231Y131392D01*
X288341Y131362D01*
X288449Y131329D01*
X288556Y131292D01*
X288662Y131252D01*
X288766Y131207D01*
X288869Y131159D01*
X288970Y131108D01*
X289069Y131053D01*
X289166Y130995D01*
X289261Y130933D01*
X289354Y130868D01*
X289444Y130800D01*
X289532Y130729D01*
X289618Y130654D01*
X289701Y130577D01*
X289781Y130497D01*
X289858Y130414D01*
X289933Y130328D01*
X290004Y130240D01*
X290072Y130150D01*
X290137Y130057D01*
X290199Y129962D01*
X290257Y129865D01*
X290312Y129766D01*
X290363Y129665D01*
X290411Y129562D01*
X290456Y129458D01*
X290496Y129352D01*
X290533Y129245D01*
X290566Y129137D01*
X290596Y129027D01*
X290621Y128917D01*
X290643Y128806D01*
X290660Y128694D01*
X290674Y128581D01*
X290684Y128468D01*
X290690Y128355D01*
X290692Y128242D01*
X290690Y128129D01*
X290684Y128016D01*
X290674Y127903D01*
X290660Y127790D01*
X290643Y127678D01*
X290621Y127567D01*
X290596Y127457D01*
X290566Y127347D01*
X290533Y127239D01*
X290496Y127132D01*
X290456Y127026D01*
X290411Y126922D01*
X290363Y126819D01*
X290312Y126718D01*
X290257Y126619D01*
X290199Y126522D01*
X290137Y126427D01*
X290072Y126334D01*
X290004Y126244D01*
X289933Y126156D01*
X289858Y126070D01*
X289781Y125987D01*
X289701Y125907D01*
X289618Y125830D01*
X289532Y125755D01*
X289444Y125684D01*
X289354Y125616D01*
X289261Y125551D01*
X289166Y125489D01*
X289069Y125431D01*
X288970Y125376D01*
X288869Y125325D01*
X288766Y125277D01*
X288662Y125232D01*
X288556Y125192D01*
X288449Y125155D01*
X288341Y125122D01*
X288231Y125092D01*
X288121Y125067D01*
X288010Y125045D01*
X287898Y125028D01*
X287785Y125014D01*
X287672Y125004D01*
X287559Y124998D01*
X287446Y124996D01*
X281604Y125646D02*
X281503Y125648D01*
X281403Y125654D01*
X281303Y125664D01*
X281203Y125677D01*
X281104Y125695D01*
X281005Y125716D01*
X280908Y125741D01*
X280811Y125770D01*
X280716Y125803D01*
X280622Y125839D01*
X280530Y125879D01*
X280439Y125922D01*
X280350Y125969D01*
X280263Y126019D01*
X280177Y126073D01*
X280094Y126130D01*
X280014Y126190D01*
X279935Y126253D01*
X279859Y126320D01*
X279786Y126389D01*
X279716Y126461D01*
X279648Y126535D01*
X279583Y126612D01*
X279522Y126692D01*
X279463Y126774D01*
X279408Y126858D01*
X279356Y126944D01*
X279307Y127032D01*
X279262Y127122D01*
X279220Y127214D01*
X279182Y127307D01*
X279148Y127402D01*
X279117Y127497D01*
X279090Y127594D01*
X279067Y127692D01*
X279047Y127791D01*
X279032Y127891D01*
X279020Y127991D01*
X279012Y128091D01*
X279008Y128192D01*
X279008Y128292D01*
X279012Y128393D01*
X279020Y128493D01*
X279032Y128593D01*
X279047Y128693D01*
X279067Y128792D01*
X279090Y128890D01*
X279117Y128987D01*
X279148Y129082D01*
X279182Y129177D01*
X279220Y129270D01*
X279262Y129362D01*
X279307Y129452D01*
X279356Y129540D01*
X279408Y129626D01*
X279463Y129710D01*
X279522Y129792D01*
X279583Y129872D01*
X279648Y129949D01*
X279716Y130023D01*
X279786Y130095D01*
X279859Y130164D01*
X279935Y130231D01*
X280014Y130294D01*
X280094Y130354D01*
X280177Y130411D01*
X280263Y130465D01*
X280350Y130515D01*
X280439Y130562D01*
X280530Y130605D01*
X280622Y130645D01*
X280716Y130681D01*
X280811Y130714D01*
X280908Y130743D01*
X281005Y130768D01*
X281104Y130789D01*
X281203Y130807D01*
X281303Y130820D01*
X281403Y130830D01*
X281503Y130836D01*
X281604Y130838D01*
X281705Y130836D01*
X281805Y130830D01*
X281905Y130820D01*
X282005Y130807D01*
X282104Y130789D01*
X282203Y130768D01*
X282300Y130743D01*
X282397Y130714D01*
X282492Y130681D01*
X282586Y130645D01*
X282678Y130605D01*
X282769Y130562D01*
X282858Y130515D01*
X282945Y130465D01*
X283031Y130411D01*
X283114Y130354D01*
X283194Y130294D01*
X283273Y130231D01*
X283349Y130164D01*
X283422Y130095D01*
X283492Y130023D01*
X283560Y129949D01*
X283625Y129872D01*
X283686Y129792D01*
X283745Y129710D01*
X283800Y129626D01*
X283852Y129540D01*
X283901Y129452D01*
X283946Y129362D01*
X283988Y129270D01*
X284026Y129177D01*
X284060Y129082D01*
X284091Y128987D01*
X284118Y128890D01*
X284141Y128792D01*
X284161Y128693D01*
X284176Y128593D01*
X284188Y128493D01*
X284196Y128393D01*
X284200Y128292D01*
X284200Y128192D01*
X284196Y128091D01*
X284188Y127991D01*
X284176Y127891D01*
X284161Y127791D01*
X284141Y127692D01*
X284118Y127594D01*
X284091Y127497D01*
X284060Y127402D01*
X284026Y127307D01*
X283988Y127214D01*
X283946Y127122D01*
X283901Y127032D01*
X283852Y126944D01*
X283800Y126858D01*
X283745Y126774D01*
X283686Y126692D01*
X283625Y126612D01*
X283560Y126535D01*
X283492Y126461D01*
X283422Y126389D01*
X283349Y126320D01*
X283273Y126253D01*
X283194Y126190D01*
X283114Y126130D01*
X283031Y126073D01*
X282945Y126019D01*
X282858Y125969D01*
X282769Y125922D01*
X282678Y125879D01*
X282586Y125839D01*
X282492Y125803D01*
X282397Y125770D01*
X282300Y125741D01*
X282203Y125716D01*
X282104Y125695D01*
X282005Y125677D01*
X281905Y125664D01*
X281805Y125654D01*
X281705Y125648D01*
X281604Y125646D01*
D11*
X100500Y85250D02*
X100500Y72550D01*
X94150Y66200D01*
X81450Y66200D01*
X75100Y72550D01*
X100500Y110650D02*
X94150Y117000D01*
X100500Y110650D02*
X100500Y97950D01*
X94150Y91600D01*
X81450Y91600D01*
X75100Y97950D01*
X75100Y110650D01*
X81450Y117000D01*
X94150Y91600D02*
X100500Y85250D01*
X81450Y91600D02*
X75100Y85250D01*
X75100Y72550D01*
X100500Y148750D02*
X100500Y161450D01*
X100500Y148750D02*
X94150Y142400D01*
X81450Y142400D01*
X75100Y148750D01*
X94150Y142400D02*
X100500Y136050D01*
X100500Y123350D01*
X94150Y117000D01*
X81450Y117000D01*
X75100Y123350D01*
X75100Y136050D01*
X81450Y142400D01*
X100500Y186850D02*
X94150Y193200D01*
X100500Y186850D02*
X100500Y174150D01*
X94150Y167800D01*
X81450Y167800D01*
X75100Y174150D01*
X75100Y186850D01*
X81450Y193200D01*
X94150Y167800D02*
X100500Y161450D01*
X81450Y167800D02*
X75100Y161450D01*
X75100Y148750D01*
X100500Y224950D02*
X100500Y237650D01*
X100500Y224950D02*
X94150Y218600D01*
X81450Y218600D01*
X75100Y224950D01*
X94150Y218600D02*
X100500Y212250D01*
X100500Y199550D01*
X94150Y193200D01*
X81450Y193200D01*
X75100Y199550D01*
X75100Y212250D01*
X81450Y218600D01*
X100500Y263050D02*
X94150Y269400D01*
X100500Y263050D02*
X100500Y250350D01*
X94150Y244000D01*
X81450Y244000D01*
X75100Y250350D01*
X75100Y263050D01*
X81450Y269400D01*
X94150Y244000D02*
X100500Y237650D01*
X81450Y244000D02*
X75100Y237650D01*
X75100Y224950D01*
X100500Y301150D02*
X100500Y313850D01*
X100500Y301150D02*
X94150Y294800D01*
X81450Y294800D01*
X75100Y301150D01*
X94150Y294800D02*
X100500Y288450D01*
X100500Y275750D01*
X94150Y269400D01*
X81450Y269400D01*
X75100Y275750D01*
X75100Y288450D01*
X81450Y294800D01*
X100500Y339250D02*
X94150Y345600D01*
X100500Y339250D02*
X100500Y326550D01*
X94150Y320200D01*
X81450Y320200D01*
X75100Y326550D01*
X75100Y339250D01*
X81450Y345600D01*
X94150Y320200D02*
X100500Y313850D01*
X81450Y320200D02*
X75100Y313850D01*
X75100Y301150D01*
X100500Y377350D02*
X100500Y390050D01*
X100500Y377350D02*
X94150Y371000D01*
X81450Y371000D01*
X75100Y377350D01*
X94150Y371000D02*
X100500Y364650D01*
X100500Y351950D01*
X94150Y345600D01*
X81450Y345600D01*
X75100Y351950D01*
X75100Y364650D01*
X81450Y371000D01*
X81450Y396400D02*
X94150Y396400D01*
X100500Y390050D01*
X81450Y396400D02*
X75100Y390050D01*
X75100Y377350D01*
X94150Y66200D02*
X100500Y59850D01*
X100500Y47150D01*
X94150Y40800D01*
X81450Y40800D01*
X75100Y47150D01*
X75100Y59850D01*
X81450Y66200D01*
D12*
X106723Y373338D02*
X115613Y373338D01*
X115713Y373336D01*
X115812Y373330D01*
X115912Y373320D01*
X116010Y373307D01*
X116109Y373289D01*
X116206Y373268D01*
X116302Y373243D01*
X116398Y373214D01*
X116492Y373181D01*
X116585Y373145D01*
X116676Y373105D01*
X116766Y373061D01*
X116854Y373014D01*
X116940Y372964D01*
X117024Y372910D01*
X117106Y372853D01*
X117185Y372793D01*
X117263Y372729D01*
X117337Y372663D01*
X117409Y372594D01*
X117478Y372522D01*
X117544Y372448D01*
X117608Y372370D01*
X117668Y372291D01*
X117725Y372209D01*
X117779Y372125D01*
X117829Y372039D01*
X117876Y371951D01*
X117920Y371861D01*
X117960Y371770D01*
X117996Y371677D01*
X118029Y371583D01*
X118058Y371487D01*
X118083Y371391D01*
X118104Y371294D01*
X118122Y371195D01*
X118135Y371097D01*
X118145Y370997D01*
X118151Y370898D01*
X118153Y370798D01*
X118153Y369528D01*
X118153Y379319D02*
X106723Y379319D01*
X106723Y382494D01*
X106725Y382605D01*
X106731Y382715D01*
X106740Y382826D01*
X106754Y382936D01*
X106771Y383045D01*
X106792Y383154D01*
X106817Y383262D01*
X106846Y383369D01*
X106878Y383475D01*
X106914Y383580D01*
X106954Y383683D01*
X106997Y383785D01*
X107044Y383886D01*
X107095Y383985D01*
X107148Y384082D01*
X107205Y384176D01*
X107266Y384269D01*
X107329Y384360D01*
X107396Y384449D01*
X107466Y384535D01*
X107539Y384618D01*
X107614Y384700D01*
X107692Y384778D01*
X107774Y384853D01*
X107857Y384926D01*
X107943Y384996D01*
X108032Y385063D01*
X108123Y385126D01*
X108216Y385187D01*
X108311Y385244D01*
X108407Y385297D01*
X108506Y385348D01*
X108607Y385395D01*
X108709Y385438D01*
X108812Y385478D01*
X108917Y385514D01*
X109023Y385546D01*
X109130Y385575D01*
X109238Y385600D01*
X109347Y385621D01*
X109456Y385638D01*
X109566Y385652D01*
X109677Y385661D01*
X109787Y385667D01*
X109898Y385669D01*
X110009Y385667D01*
X110119Y385661D01*
X110230Y385652D01*
X110340Y385638D01*
X110449Y385621D01*
X110558Y385600D01*
X110666Y385575D01*
X110773Y385546D01*
X110879Y385514D01*
X110984Y385478D01*
X111087Y385438D01*
X111189Y385395D01*
X111290Y385348D01*
X111389Y385297D01*
X111486Y385244D01*
X111580Y385187D01*
X111673Y385126D01*
X111764Y385063D01*
X111853Y384996D01*
X111939Y384926D01*
X112022Y384853D01*
X112104Y384778D01*
X112182Y384700D01*
X112257Y384618D01*
X112330Y384535D01*
X112400Y384449D01*
X112467Y384360D01*
X112530Y384269D01*
X112591Y384176D01*
X112648Y384082D01*
X112701Y383985D01*
X112752Y383886D01*
X112799Y383785D01*
X112842Y383683D01*
X112882Y383580D01*
X112918Y383475D01*
X112950Y383369D01*
X112979Y383262D01*
X113004Y383154D01*
X113025Y383045D01*
X113042Y382936D01*
X113056Y382826D01*
X113065Y382715D01*
X113071Y382605D01*
X113073Y382494D01*
X113073Y379319D01*
X118153Y390177D02*
X118153Y393987D01*
X118151Y394087D01*
X118145Y394186D01*
X118135Y394286D01*
X118122Y394384D01*
X118104Y394483D01*
X118083Y394580D01*
X118058Y394676D01*
X118029Y394772D01*
X117996Y394866D01*
X117960Y394959D01*
X117920Y395050D01*
X117876Y395140D01*
X117829Y395228D01*
X117779Y395314D01*
X117725Y395398D01*
X117668Y395480D01*
X117608Y395559D01*
X117544Y395637D01*
X117478Y395711D01*
X117409Y395783D01*
X117337Y395852D01*
X117263Y395918D01*
X117185Y395982D01*
X117106Y396042D01*
X117024Y396099D01*
X116940Y396153D01*
X116854Y396203D01*
X116766Y396250D01*
X116676Y396294D01*
X116585Y396334D01*
X116492Y396370D01*
X116398Y396403D01*
X116302Y396432D01*
X116206Y396457D01*
X116109Y396478D01*
X116010Y396496D01*
X115912Y396509D01*
X115812Y396519D01*
X115713Y396525D01*
X115613Y396527D01*
X114343Y396527D01*
X114243Y396525D01*
X114144Y396519D01*
X114044Y396509D01*
X113946Y396496D01*
X113847Y396478D01*
X113750Y396457D01*
X113654Y396432D01*
X113558Y396403D01*
X113464Y396370D01*
X113371Y396334D01*
X113280Y396294D01*
X113190Y396250D01*
X113102Y396203D01*
X113016Y396153D01*
X112932Y396099D01*
X112850Y396042D01*
X112771Y395982D01*
X112693Y395918D01*
X112619Y395852D01*
X112547Y395783D01*
X112478Y395711D01*
X112412Y395637D01*
X112348Y395559D01*
X112288Y395480D01*
X112231Y395398D01*
X112177Y395314D01*
X112127Y395228D01*
X112080Y395140D01*
X112036Y395050D01*
X111996Y394959D01*
X111960Y394866D01*
X111927Y394772D01*
X111898Y394676D01*
X111873Y394580D01*
X111852Y394483D01*
X111834Y394384D01*
X111821Y394286D01*
X111811Y394186D01*
X111805Y394087D01*
X111803Y393987D01*
X111803Y390177D01*
X106723Y390177D01*
X106723Y396527D01*
D11*
X252200Y366550D02*
X252200Y353850D01*
X252200Y366550D02*
X258550Y372900D01*
X271250Y372900D01*
X277600Y366550D01*
X252200Y328450D02*
X258550Y322100D01*
X252200Y328450D02*
X252200Y341150D01*
X258550Y347500D01*
X271250Y347500D01*
X277600Y341150D01*
X277600Y328450D01*
X271250Y322100D01*
X258550Y347500D02*
X252200Y353850D01*
X271250Y347500D02*
X277600Y353850D01*
X277600Y366550D01*
X252200Y290350D02*
X252200Y277650D01*
X252200Y290350D02*
X258550Y296700D01*
X271250Y296700D01*
X277600Y290350D01*
X258550Y296700D02*
X252200Y303050D01*
X252200Y315750D01*
X258550Y322100D01*
X271250Y322100D01*
X277600Y315750D01*
X277600Y303050D01*
X271250Y296700D01*
X252200Y252250D02*
X258550Y245900D01*
X252200Y252250D02*
X252200Y264950D01*
X258550Y271300D01*
X271250Y271300D01*
X277600Y264950D01*
X277600Y252250D01*
X271250Y245900D01*
X258550Y271300D02*
X252200Y277650D01*
X271250Y271300D02*
X277600Y277650D01*
X277600Y290350D01*
X252200Y214150D02*
X252200Y201450D01*
X252200Y214150D02*
X258550Y220500D01*
X271250Y220500D01*
X277600Y214150D01*
X258550Y220500D02*
X252200Y226850D01*
X252200Y239550D01*
X258550Y245900D01*
X271250Y245900D01*
X277600Y239550D01*
X277600Y226850D01*
X271250Y220500D01*
X252200Y176050D02*
X258550Y169700D01*
X252200Y176050D02*
X252200Y188750D01*
X258550Y195100D01*
X271250Y195100D01*
X277600Y188750D01*
X277600Y176050D01*
X271250Y169700D01*
X258550Y195100D02*
X252200Y201450D01*
X271250Y195100D02*
X277600Y201450D01*
X277600Y214150D01*
X252200Y137950D02*
X252200Y125250D01*
X252200Y137950D02*
X258550Y144300D01*
X271250Y144300D01*
X277600Y137950D01*
X258550Y144300D02*
X252200Y150650D01*
X252200Y163350D01*
X258550Y169700D01*
X271250Y169700D01*
X277600Y163350D01*
X277600Y150650D01*
X271250Y144300D01*
X252200Y99850D02*
X258550Y93500D01*
X252200Y99850D02*
X252200Y112550D01*
X258550Y118900D01*
X271250Y118900D01*
X277600Y112550D01*
X277600Y99850D01*
X271250Y93500D01*
X258550Y118900D02*
X252200Y125250D01*
X271250Y118900D02*
X277600Y125250D01*
X277600Y137950D01*
X252200Y61750D02*
X252200Y49050D01*
X252200Y61750D02*
X258550Y68100D01*
X271250Y68100D01*
X277600Y61750D01*
X258550Y68100D02*
X252200Y74450D01*
X252200Y87150D01*
X258550Y93500D01*
X271250Y93500D01*
X277600Y87150D01*
X277600Y74450D01*
X271250Y68100D01*
X271250Y42700D02*
X258550Y42700D01*
X252200Y49050D01*
X271250Y42700D02*
X277600Y49050D01*
X277600Y61750D01*
X258550Y372900D02*
X252200Y379250D01*
X252200Y391950D01*
X258550Y398300D01*
X271250Y398300D01*
X277600Y391950D01*
X277600Y379250D01*
X271250Y372900D01*
D12*
X243437Y46383D02*
X234547Y46383D01*
X243437Y46383D02*
X243537Y46381D01*
X243636Y46375D01*
X243736Y46365D01*
X243834Y46352D01*
X243933Y46334D01*
X244030Y46313D01*
X244126Y46288D01*
X244222Y46259D01*
X244316Y46226D01*
X244409Y46190D01*
X244500Y46150D01*
X244590Y46106D01*
X244678Y46059D01*
X244764Y46009D01*
X244848Y45955D01*
X244930Y45898D01*
X245009Y45838D01*
X245087Y45774D01*
X245161Y45708D01*
X245233Y45639D01*
X245302Y45567D01*
X245368Y45493D01*
X245432Y45415D01*
X245492Y45336D01*
X245549Y45254D01*
X245603Y45170D01*
X245653Y45084D01*
X245700Y44996D01*
X245744Y44906D01*
X245784Y44815D01*
X245820Y44722D01*
X245853Y44628D01*
X245882Y44532D01*
X245907Y44436D01*
X245928Y44339D01*
X245946Y44240D01*
X245959Y44142D01*
X245969Y44042D01*
X245975Y43943D01*
X245977Y43843D01*
X245977Y42573D01*
X245977Y52363D02*
X234547Y52363D01*
X234547Y55538D01*
X234549Y55649D01*
X234555Y55759D01*
X234564Y55870D01*
X234578Y55980D01*
X234595Y56089D01*
X234616Y56198D01*
X234641Y56306D01*
X234670Y56413D01*
X234702Y56519D01*
X234738Y56624D01*
X234778Y56727D01*
X234821Y56829D01*
X234868Y56930D01*
X234919Y57029D01*
X234972Y57125D01*
X235029Y57220D01*
X235090Y57313D01*
X235153Y57404D01*
X235220Y57493D01*
X235290Y57579D01*
X235363Y57662D01*
X235438Y57744D01*
X235516Y57822D01*
X235598Y57897D01*
X235681Y57970D01*
X235767Y58040D01*
X235856Y58107D01*
X235947Y58170D01*
X236040Y58231D01*
X236135Y58288D01*
X236231Y58341D01*
X236330Y58392D01*
X236431Y58439D01*
X236533Y58482D01*
X236636Y58522D01*
X236741Y58558D01*
X236847Y58590D01*
X236954Y58619D01*
X237062Y58644D01*
X237171Y58665D01*
X237280Y58682D01*
X237390Y58696D01*
X237501Y58705D01*
X237611Y58711D01*
X237722Y58713D01*
X237833Y58711D01*
X237943Y58705D01*
X238054Y58696D01*
X238164Y58682D01*
X238273Y58665D01*
X238382Y58644D01*
X238490Y58619D01*
X238597Y58590D01*
X238703Y58558D01*
X238808Y58522D01*
X238911Y58482D01*
X239013Y58439D01*
X239114Y58392D01*
X239213Y58341D01*
X239310Y58288D01*
X239404Y58231D01*
X239497Y58170D01*
X239588Y58107D01*
X239677Y58040D01*
X239763Y57970D01*
X239846Y57897D01*
X239928Y57822D01*
X240006Y57744D01*
X240081Y57662D01*
X240154Y57579D01*
X240224Y57493D01*
X240291Y57404D01*
X240354Y57313D01*
X240415Y57220D01*
X240472Y57126D01*
X240525Y57029D01*
X240576Y56930D01*
X240623Y56829D01*
X240666Y56727D01*
X240706Y56624D01*
X240742Y56519D01*
X240774Y56413D01*
X240803Y56306D01*
X240828Y56198D01*
X240849Y56089D01*
X240866Y55980D01*
X240880Y55870D01*
X240889Y55759D01*
X240895Y55649D01*
X240897Y55538D01*
X240897Y52363D01*
X239627Y63222D02*
X239627Y67032D01*
X239629Y67132D01*
X239635Y67231D01*
X239645Y67331D01*
X239658Y67429D01*
X239676Y67528D01*
X239697Y67625D01*
X239722Y67721D01*
X239751Y67817D01*
X239784Y67911D01*
X239820Y68004D01*
X239860Y68095D01*
X239904Y68185D01*
X239951Y68273D01*
X240001Y68359D01*
X240055Y68443D01*
X240112Y68525D01*
X240172Y68604D01*
X240236Y68682D01*
X240302Y68756D01*
X240371Y68828D01*
X240443Y68897D01*
X240517Y68963D01*
X240595Y69027D01*
X240674Y69087D01*
X240756Y69144D01*
X240840Y69198D01*
X240926Y69248D01*
X241014Y69295D01*
X241104Y69339D01*
X241195Y69379D01*
X241288Y69415D01*
X241382Y69448D01*
X241478Y69477D01*
X241574Y69502D01*
X241671Y69523D01*
X241770Y69541D01*
X241868Y69554D01*
X241968Y69564D01*
X242067Y69570D01*
X242167Y69572D01*
X242802Y69572D01*
X242913Y69570D01*
X243023Y69564D01*
X243134Y69555D01*
X243244Y69541D01*
X243353Y69524D01*
X243462Y69503D01*
X243570Y69478D01*
X243677Y69449D01*
X243783Y69417D01*
X243888Y69381D01*
X243991Y69341D01*
X244093Y69298D01*
X244194Y69251D01*
X244293Y69200D01*
X244390Y69147D01*
X244484Y69090D01*
X244577Y69029D01*
X244668Y68966D01*
X244757Y68899D01*
X244843Y68829D01*
X244926Y68756D01*
X245008Y68681D01*
X245086Y68603D01*
X245161Y68521D01*
X245234Y68438D01*
X245304Y68352D01*
X245371Y68263D01*
X245434Y68172D01*
X245495Y68079D01*
X245552Y67984D01*
X245605Y67888D01*
X245656Y67789D01*
X245703Y67688D01*
X245746Y67586D01*
X245786Y67483D01*
X245822Y67378D01*
X245854Y67272D01*
X245883Y67165D01*
X245908Y67057D01*
X245929Y66948D01*
X245946Y66839D01*
X245960Y66729D01*
X245969Y66618D01*
X245975Y66508D01*
X245977Y66397D01*
X245975Y66286D01*
X245969Y66176D01*
X245960Y66065D01*
X245946Y65955D01*
X245929Y65846D01*
X245908Y65737D01*
X245883Y65629D01*
X245854Y65522D01*
X245822Y65416D01*
X245786Y65311D01*
X245746Y65208D01*
X245703Y65106D01*
X245656Y65005D01*
X245605Y64906D01*
X245552Y64809D01*
X245495Y64715D01*
X245434Y64622D01*
X245371Y64531D01*
X245304Y64442D01*
X245234Y64356D01*
X245161Y64273D01*
X245086Y64191D01*
X245008Y64113D01*
X244926Y64038D01*
X244843Y63965D01*
X244757Y63895D01*
X244668Y63828D01*
X244577Y63765D01*
X244484Y63704D01*
X244389Y63647D01*
X244293Y63594D01*
X244194Y63543D01*
X244093Y63496D01*
X243991Y63453D01*
X243888Y63413D01*
X243783Y63377D01*
X243677Y63345D01*
X243570Y63316D01*
X243462Y63291D01*
X243353Y63270D01*
X243244Y63253D01*
X243134Y63239D01*
X243023Y63230D01*
X242913Y63224D01*
X242802Y63222D01*
X239627Y63222D01*
X239487Y63224D01*
X239347Y63230D01*
X239207Y63239D01*
X239068Y63253D01*
X238929Y63270D01*
X238791Y63291D01*
X238653Y63316D01*
X238516Y63345D01*
X238380Y63377D01*
X238245Y63414D01*
X238111Y63454D01*
X237978Y63497D01*
X237846Y63545D01*
X237715Y63595D01*
X237586Y63650D01*
X237459Y63708D01*
X237333Y63769D01*
X237209Y63834D01*
X237087Y63903D01*
X236967Y63974D01*
X236849Y64049D01*
X236732Y64127D01*
X236618Y64209D01*
X236507Y64293D01*
X236398Y64381D01*
X236291Y64471D01*
X236186Y64565D01*
X236085Y64661D01*
X235986Y64760D01*
X235890Y64861D01*
X235796Y64966D01*
X235706Y65073D01*
X235618Y65182D01*
X235534Y65293D01*
X235452Y65407D01*
X235374Y65524D01*
X235299Y65642D01*
X235228Y65762D01*
X235159Y65884D01*
X235094Y66008D01*
X235033Y66134D01*
X234975Y66261D01*
X234920Y66390D01*
X234870Y66521D01*
X234822Y66653D01*
X234779Y66786D01*
X234739Y66920D01*
X234702Y67055D01*
X234670Y67191D01*
X234641Y67328D01*
X234616Y67466D01*
X234595Y67604D01*
X234578Y67743D01*
X234564Y67882D01*
X234555Y68022D01*
X234549Y68162D01*
X234547Y68302D01*
D13*
X134050Y244000D02*
X111550Y244000D01*
D10*
X126958Y236003D02*
X138642Y236003D01*
X138642Y241196D01*
X129554Y245506D02*
X126958Y248751D01*
X138642Y248751D01*
X138642Y245506D02*
X138642Y251997D01*
X389404Y73007D02*
X394596Y73007D01*
X389404Y73007D02*
X389291Y73009D01*
X389178Y73015D01*
X389065Y73025D01*
X388952Y73039D01*
X388840Y73056D01*
X388729Y73078D01*
X388619Y73103D01*
X388509Y73133D01*
X388401Y73166D01*
X388294Y73203D01*
X388188Y73243D01*
X388084Y73288D01*
X387981Y73336D01*
X387880Y73387D01*
X387781Y73442D01*
X387684Y73500D01*
X387589Y73562D01*
X387496Y73627D01*
X387406Y73695D01*
X387318Y73766D01*
X387232Y73841D01*
X387149Y73918D01*
X387069Y73998D01*
X386992Y74081D01*
X386917Y74167D01*
X386846Y74255D01*
X386778Y74345D01*
X386713Y74438D01*
X386651Y74533D01*
X386593Y74630D01*
X386538Y74729D01*
X386487Y74830D01*
X386439Y74933D01*
X386394Y75037D01*
X386354Y75143D01*
X386317Y75250D01*
X386284Y75358D01*
X386254Y75468D01*
X386229Y75578D01*
X386207Y75689D01*
X386190Y75801D01*
X386176Y75914D01*
X386166Y76027D01*
X386160Y76140D01*
X386158Y76253D01*
X386160Y76366D01*
X386166Y76479D01*
X386176Y76592D01*
X386190Y76705D01*
X386207Y76817D01*
X386229Y76928D01*
X386254Y77038D01*
X386284Y77148D01*
X386317Y77256D01*
X386354Y77363D01*
X386394Y77469D01*
X386439Y77573D01*
X386487Y77676D01*
X386538Y77777D01*
X386593Y77876D01*
X386651Y77973D01*
X386713Y78068D01*
X386778Y78161D01*
X386846Y78251D01*
X386917Y78339D01*
X386992Y78425D01*
X387069Y78508D01*
X387149Y78588D01*
X387232Y78665D01*
X387318Y78740D01*
X387406Y78811D01*
X387496Y78879D01*
X387589Y78944D01*
X387684Y79006D01*
X387781Y79064D01*
X387880Y79119D01*
X387981Y79170D01*
X388084Y79218D01*
X388188Y79263D01*
X388294Y79303D01*
X388401Y79340D01*
X388509Y79373D01*
X388619Y79403D01*
X388729Y79428D01*
X388840Y79450D01*
X388952Y79467D01*
X389065Y79481D01*
X389178Y79491D01*
X389291Y79497D01*
X389404Y79499D01*
X389404Y79498D02*
X394596Y79498D01*
X394596Y79499D02*
X394709Y79497D01*
X394822Y79491D01*
X394935Y79481D01*
X395048Y79467D01*
X395160Y79450D01*
X395271Y79428D01*
X395381Y79403D01*
X395491Y79373D01*
X395599Y79340D01*
X395706Y79303D01*
X395812Y79263D01*
X395916Y79218D01*
X396019Y79170D01*
X396120Y79119D01*
X396219Y79064D01*
X396316Y79006D01*
X396411Y78944D01*
X396504Y78879D01*
X396594Y78811D01*
X396682Y78740D01*
X396768Y78665D01*
X396851Y78588D01*
X396931Y78508D01*
X397008Y78425D01*
X397083Y78339D01*
X397154Y78251D01*
X397222Y78161D01*
X397287Y78068D01*
X397349Y77973D01*
X397407Y77876D01*
X397462Y77777D01*
X397513Y77676D01*
X397561Y77573D01*
X397606Y77469D01*
X397646Y77363D01*
X397683Y77256D01*
X397716Y77148D01*
X397746Y77038D01*
X397771Y76928D01*
X397793Y76817D01*
X397810Y76705D01*
X397824Y76592D01*
X397834Y76479D01*
X397840Y76366D01*
X397842Y76253D01*
X397840Y76140D01*
X397834Y76027D01*
X397824Y75914D01*
X397810Y75801D01*
X397793Y75689D01*
X397771Y75578D01*
X397746Y75468D01*
X397716Y75358D01*
X397683Y75250D01*
X397646Y75143D01*
X397606Y75037D01*
X397561Y74933D01*
X397513Y74830D01*
X397462Y74729D01*
X397407Y74630D01*
X397349Y74533D01*
X397287Y74438D01*
X397222Y74345D01*
X397154Y74255D01*
X397083Y74167D01*
X397008Y74081D01*
X396931Y73998D01*
X396851Y73918D01*
X396768Y73841D01*
X396682Y73766D01*
X396594Y73695D01*
X396504Y73627D01*
X396411Y73562D01*
X396316Y73500D01*
X396219Y73442D01*
X396120Y73387D01*
X396019Y73336D01*
X395916Y73288D01*
X395812Y73243D01*
X395706Y73203D01*
X395599Y73166D01*
X395491Y73133D01*
X395381Y73103D01*
X395271Y73078D01*
X395160Y73056D01*
X395048Y73039D01*
X394935Y73025D01*
X394822Y73015D01*
X394709Y73009D01*
X394596Y73007D01*
X395246Y78200D02*
X397842Y80796D01*
X388754Y84151D02*
X386158Y87396D01*
X397842Y87396D01*
X397842Y84151D02*
X397842Y90642D01*
X371592Y143008D02*
X359908Y143008D01*
X359908Y146254D01*
X359910Y146367D01*
X359916Y146480D01*
X359926Y146593D01*
X359940Y146706D01*
X359957Y146818D01*
X359979Y146929D01*
X360004Y147039D01*
X360034Y147149D01*
X360067Y147257D01*
X360104Y147364D01*
X360144Y147470D01*
X360189Y147574D01*
X360237Y147677D01*
X360288Y147778D01*
X360343Y147877D01*
X360401Y147974D01*
X360463Y148069D01*
X360528Y148162D01*
X360596Y148252D01*
X360667Y148340D01*
X360742Y148426D01*
X360819Y148509D01*
X360899Y148589D01*
X360982Y148666D01*
X361068Y148741D01*
X361156Y148812D01*
X361246Y148880D01*
X361339Y148945D01*
X361434Y149007D01*
X361531Y149065D01*
X361630Y149120D01*
X361731Y149171D01*
X361834Y149219D01*
X361938Y149264D01*
X362044Y149304D01*
X362151Y149341D01*
X362259Y149374D01*
X362369Y149404D01*
X362479Y149429D01*
X362590Y149451D01*
X362702Y149468D01*
X362815Y149482D01*
X362928Y149492D01*
X363041Y149498D01*
X363154Y149500D01*
X363267Y149498D01*
X363380Y149492D01*
X363493Y149482D01*
X363606Y149468D01*
X363718Y149451D01*
X363829Y149429D01*
X363939Y149404D01*
X364049Y149374D01*
X364157Y149341D01*
X364264Y149304D01*
X364370Y149264D01*
X364474Y149219D01*
X364577Y149171D01*
X364678Y149120D01*
X364777Y149065D01*
X364874Y149007D01*
X364969Y148945D01*
X365062Y148880D01*
X365152Y148812D01*
X365240Y148741D01*
X365326Y148666D01*
X365409Y148589D01*
X365489Y148509D01*
X365566Y148426D01*
X365641Y148340D01*
X365712Y148252D01*
X365780Y148162D01*
X365845Y148069D01*
X365907Y147974D01*
X365965Y147877D01*
X366020Y147778D01*
X366071Y147677D01*
X366119Y147574D01*
X366164Y147470D01*
X366204Y147364D01*
X366241Y147257D01*
X366274Y147149D01*
X366304Y147039D01*
X366329Y146929D01*
X366351Y146818D01*
X366368Y146706D01*
X366382Y146593D01*
X366392Y146480D01*
X366398Y146367D01*
X366400Y146254D01*
X366399Y146254D02*
X366399Y143008D01*
X366399Y146903D02*
X371592Y149499D01*
X362504Y154364D02*
X359908Y157610D01*
X371592Y157610D01*
X371592Y160855D02*
X371592Y154364D01*
X365750Y165794D02*
X365520Y165797D01*
X365290Y165805D01*
X365061Y165819D01*
X364832Y165838D01*
X364603Y165863D01*
X364375Y165893D01*
X364148Y165928D01*
X363922Y165969D01*
X363697Y166015D01*
X363473Y166067D01*
X363250Y166124D01*
X363029Y166186D01*
X362809Y166254D01*
X362591Y166327D01*
X362375Y166405D01*
X362161Y166488D01*
X361949Y166576D01*
X361738Y166669D01*
X361531Y166768D01*
X361441Y166801D01*
X361352Y166837D01*
X361264Y166877D01*
X361179Y166921D01*
X361095Y166968D01*
X361013Y167018D01*
X360933Y167072D01*
X360856Y167128D01*
X360780Y167188D01*
X360707Y167251D01*
X360637Y167316D01*
X360569Y167385D01*
X360505Y167456D01*
X360443Y167529D01*
X360384Y167605D01*
X360328Y167683D01*
X360275Y167764D01*
X360226Y167846D01*
X360180Y167930D01*
X360137Y168017D01*
X360098Y168104D01*
X360062Y168194D01*
X360030Y168284D01*
X360002Y168376D01*
X359977Y168469D01*
X359956Y168563D01*
X359939Y168657D01*
X359925Y168752D01*
X359916Y168848D01*
X359910Y168944D01*
X359908Y169040D01*
X359910Y169136D01*
X359916Y169232D01*
X359925Y169328D01*
X359939Y169423D01*
X359956Y169517D01*
X359977Y169611D01*
X360002Y169704D01*
X360030Y169796D01*
X360062Y169886D01*
X360098Y169976D01*
X360137Y170064D01*
X360180Y170150D01*
X360226Y170234D01*
X360275Y170316D01*
X360328Y170397D01*
X360384Y170475D01*
X360443Y170551D01*
X360505Y170624D01*
X360569Y170695D01*
X360637Y170764D01*
X360707Y170829D01*
X360780Y170892D01*
X360856Y170952D01*
X360933Y171008D01*
X361013Y171062D01*
X361095Y171112D01*
X361179Y171159D01*
X361264Y171203D01*
X361352Y171243D01*
X361441Y171279D01*
X361531Y171312D01*
X361738Y171411D01*
X361949Y171504D01*
X362161Y171592D01*
X362375Y171675D01*
X362591Y171753D01*
X362809Y171826D01*
X363029Y171894D01*
X363250Y171956D01*
X363473Y172013D01*
X363697Y172065D01*
X363922Y172111D01*
X364148Y172152D01*
X364375Y172187D01*
X364603Y172217D01*
X364832Y172242D01*
X365061Y172261D01*
X365290Y172275D01*
X365520Y172283D01*
X365750Y172286D01*
X365750Y165794D02*
X365980Y165797D01*
X366210Y165805D01*
X366439Y165819D01*
X366668Y165838D01*
X366897Y165863D01*
X367125Y165893D01*
X367352Y165928D01*
X367578Y165969D01*
X367803Y166015D01*
X368027Y166067D01*
X368250Y166124D01*
X368471Y166186D01*
X368691Y166254D01*
X368909Y166327D01*
X369125Y166405D01*
X369339Y166488D01*
X369551Y166576D01*
X369762Y166669D01*
X369969Y166768D01*
X370059Y166801D01*
X370148Y166837D01*
X370236Y166878D01*
X370321Y166921D01*
X370405Y166968D01*
X370487Y167018D01*
X370567Y167072D01*
X370644Y167128D01*
X370720Y167188D01*
X370793Y167251D01*
X370863Y167316D01*
X370931Y167385D01*
X370995Y167456D01*
X371057Y167529D01*
X371116Y167605D01*
X371172Y167683D01*
X371225Y167764D01*
X371274Y167846D01*
X371320Y167930D01*
X371363Y168017D01*
X371402Y168104D01*
X371438Y168194D01*
X371470Y168284D01*
X371498Y168376D01*
X371523Y168469D01*
X371544Y168563D01*
X371561Y168657D01*
X371575Y168752D01*
X371584Y168848D01*
X371590Y168944D01*
X371592Y169040D01*
X369969Y171312D02*
X369762Y171411D01*
X369551Y171504D01*
X369339Y171592D01*
X369125Y171675D01*
X368909Y171753D01*
X368691Y171826D01*
X368471Y171894D01*
X368250Y171956D01*
X368027Y172013D01*
X367803Y172065D01*
X367578Y172111D01*
X367352Y172152D01*
X367125Y172187D01*
X366897Y172217D01*
X366668Y172242D01*
X366439Y172261D01*
X366210Y172275D01*
X365980Y172283D01*
X365750Y172286D01*
X369969Y171312D02*
X370059Y171279D01*
X370148Y171243D01*
X370236Y171203D01*
X370321Y171159D01*
X370405Y171112D01*
X370487Y171062D01*
X370567Y171008D01*
X370644Y170952D01*
X370720Y170892D01*
X370793Y170829D01*
X370863Y170764D01*
X370931Y170695D01*
X370995Y170624D01*
X371057Y170551D01*
X371116Y170475D01*
X371172Y170397D01*
X371225Y170316D01*
X371274Y170234D01*
X371320Y170150D01*
X371363Y170063D01*
X371402Y169976D01*
X371438Y169886D01*
X371470Y169796D01*
X371498Y169704D01*
X371523Y169611D01*
X371544Y169517D01*
X371561Y169423D01*
X371575Y169328D01*
X371584Y169232D01*
X371590Y169136D01*
X371592Y169040D01*
X368996Y166443D02*
X362504Y171636D01*
X307058Y234908D02*
X307058Y246592D01*
X310304Y246592D01*
X310417Y246590D01*
X310530Y246584D01*
X310643Y246574D01*
X310756Y246560D01*
X310868Y246543D01*
X310979Y246521D01*
X311089Y246496D01*
X311199Y246466D01*
X311307Y246433D01*
X311414Y246396D01*
X311520Y246356D01*
X311624Y246311D01*
X311727Y246263D01*
X311828Y246212D01*
X311927Y246157D01*
X312024Y246099D01*
X312119Y246037D01*
X312212Y245972D01*
X312302Y245904D01*
X312390Y245833D01*
X312476Y245758D01*
X312559Y245681D01*
X312639Y245601D01*
X312716Y245518D01*
X312791Y245432D01*
X312862Y245344D01*
X312930Y245254D01*
X312995Y245161D01*
X313057Y245066D01*
X313115Y244969D01*
X313170Y244870D01*
X313221Y244769D01*
X313269Y244666D01*
X313314Y244562D01*
X313354Y244456D01*
X313391Y244349D01*
X313424Y244241D01*
X313454Y244131D01*
X313479Y244021D01*
X313501Y243910D01*
X313518Y243798D01*
X313532Y243685D01*
X313542Y243572D01*
X313548Y243459D01*
X313550Y243346D01*
X313548Y243233D01*
X313542Y243120D01*
X313532Y243007D01*
X313518Y242894D01*
X313501Y242782D01*
X313479Y242671D01*
X313454Y242561D01*
X313424Y242451D01*
X313391Y242343D01*
X313354Y242236D01*
X313314Y242130D01*
X313269Y242026D01*
X313221Y241923D01*
X313170Y241822D01*
X313115Y241723D01*
X313057Y241626D01*
X312995Y241531D01*
X312930Y241438D01*
X312862Y241348D01*
X312791Y241260D01*
X312716Y241174D01*
X312639Y241091D01*
X312559Y241011D01*
X312476Y240934D01*
X312390Y240859D01*
X312302Y240788D01*
X312212Y240720D01*
X312119Y240655D01*
X312024Y240593D01*
X311927Y240535D01*
X311828Y240480D01*
X311727Y240429D01*
X311624Y240381D01*
X311520Y240336D01*
X311414Y240296D01*
X311307Y240259D01*
X311199Y240226D01*
X311089Y240196D01*
X310979Y240171D01*
X310868Y240149D01*
X310756Y240132D01*
X310643Y240118D01*
X310530Y240108D01*
X310417Y240102D01*
X310304Y240100D01*
X310304Y240101D02*
X307058Y240101D01*
X310953Y240101D02*
X313549Y234908D01*
X318414Y243996D02*
X321660Y246592D01*
X321660Y234908D01*
X324905Y234908D02*
X318414Y234908D01*
X329844Y234908D02*
X333739Y234908D01*
X333838Y234910D01*
X333938Y234916D01*
X334037Y234925D01*
X334135Y234938D01*
X334233Y234955D01*
X334331Y234976D01*
X334427Y235001D01*
X334522Y235029D01*
X334616Y235061D01*
X334709Y235096D01*
X334801Y235135D01*
X334891Y235178D01*
X334979Y235223D01*
X335066Y235273D01*
X335150Y235325D01*
X335233Y235381D01*
X335313Y235439D01*
X335391Y235501D01*
X335466Y235566D01*
X335539Y235634D01*
X335609Y235704D01*
X335677Y235777D01*
X335742Y235852D01*
X335804Y235930D01*
X335862Y236010D01*
X335918Y236093D01*
X335970Y236177D01*
X336020Y236264D01*
X336065Y236352D01*
X336108Y236442D01*
X336147Y236534D01*
X336182Y236627D01*
X336214Y236721D01*
X336242Y236816D01*
X336267Y236912D01*
X336288Y237010D01*
X336305Y237108D01*
X336318Y237206D01*
X336327Y237305D01*
X336333Y237405D01*
X336335Y237504D01*
X336335Y238803D01*
X336333Y238902D01*
X336327Y239002D01*
X336318Y239101D01*
X336305Y239199D01*
X336288Y239297D01*
X336267Y239395D01*
X336242Y239491D01*
X336214Y239586D01*
X336182Y239680D01*
X336147Y239773D01*
X336108Y239865D01*
X336065Y239955D01*
X336020Y240043D01*
X335970Y240130D01*
X335918Y240214D01*
X335862Y240297D01*
X335804Y240377D01*
X335742Y240455D01*
X335677Y240530D01*
X335609Y240603D01*
X335539Y240673D01*
X335466Y240741D01*
X335391Y240806D01*
X335313Y240868D01*
X335233Y240926D01*
X335150Y240982D01*
X335066Y241034D01*
X334979Y241084D01*
X334891Y241129D01*
X334801Y241172D01*
X334709Y241211D01*
X334616Y241246D01*
X334522Y241278D01*
X334427Y241306D01*
X334331Y241331D01*
X334233Y241352D01*
X334135Y241369D01*
X334037Y241382D01*
X333938Y241391D01*
X333838Y241397D01*
X333739Y241399D01*
X329844Y241399D01*
X329844Y246592D01*
X336335Y246592D01*
X306558Y180592D02*
X306558Y168908D01*
X306558Y180592D02*
X309804Y180592D01*
X309917Y180590D01*
X310030Y180584D01*
X310143Y180574D01*
X310256Y180560D01*
X310368Y180543D01*
X310479Y180521D01*
X310589Y180496D01*
X310699Y180466D01*
X310807Y180433D01*
X310914Y180396D01*
X311020Y180356D01*
X311124Y180311D01*
X311227Y180263D01*
X311328Y180212D01*
X311427Y180157D01*
X311524Y180099D01*
X311619Y180037D01*
X311712Y179972D01*
X311802Y179904D01*
X311890Y179833D01*
X311976Y179758D01*
X312059Y179681D01*
X312139Y179601D01*
X312216Y179518D01*
X312291Y179432D01*
X312362Y179344D01*
X312430Y179254D01*
X312495Y179161D01*
X312557Y179066D01*
X312615Y178969D01*
X312670Y178870D01*
X312721Y178769D01*
X312769Y178666D01*
X312814Y178562D01*
X312854Y178456D01*
X312891Y178349D01*
X312924Y178241D01*
X312954Y178131D01*
X312979Y178021D01*
X313001Y177910D01*
X313018Y177798D01*
X313032Y177685D01*
X313042Y177572D01*
X313048Y177459D01*
X313050Y177346D01*
X313048Y177233D01*
X313042Y177120D01*
X313032Y177007D01*
X313018Y176894D01*
X313001Y176782D01*
X312979Y176671D01*
X312954Y176561D01*
X312924Y176451D01*
X312891Y176343D01*
X312854Y176236D01*
X312814Y176130D01*
X312769Y176026D01*
X312721Y175923D01*
X312670Y175822D01*
X312615Y175723D01*
X312557Y175626D01*
X312495Y175531D01*
X312430Y175438D01*
X312362Y175348D01*
X312291Y175260D01*
X312216Y175174D01*
X312139Y175091D01*
X312059Y175011D01*
X311976Y174934D01*
X311890Y174859D01*
X311802Y174788D01*
X311712Y174720D01*
X311619Y174655D01*
X311524Y174593D01*
X311427Y174535D01*
X311328Y174480D01*
X311227Y174429D01*
X311124Y174381D01*
X311020Y174336D01*
X310914Y174296D01*
X310807Y174259D01*
X310699Y174226D01*
X310589Y174196D01*
X310479Y174171D01*
X310368Y174149D01*
X310256Y174132D01*
X310143Y174118D01*
X310030Y174108D01*
X309917Y174102D01*
X309804Y174100D01*
X309804Y174101D02*
X306558Y174101D01*
X310453Y174101D02*
X313049Y168908D01*
X317914Y177996D02*
X321160Y180592D01*
X321160Y168908D01*
X324405Y168908D02*
X317914Y168908D01*
X329344Y175399D02*
X333239Y175399D01*
X333338Y175397D01*
X333438Y175391D01*
X333537Y175382D01*
X333635Y175369D01*
X333733Y175352D01*
X333831Y175331D01*
X333927Y175306D01*
X334022Y175278D01*
X334116Y175246D01*
X334209Y175211D01*
X334301Y175172D01*
X334391Y175129D01*
X334479Y175084D01*
X334566Y175034D01*
X334650Y174982D01*
X334733Y174926D01*
X334813Y174868D01*
X334891Y174806D01*
X334966Y174741D01*
X335039Y174673D01*
X335109Y174603D01*
X335177Y174530D01*
X335242Y174455D01*
X335304Y174377D01*
X335362Y174297D01*
X335418Y174214D01*
X335470Y174130D01*
X335520Y174043D01*
X335565Y173955D01*
X335608Y173865D01*
X335647Y173773D01*
X335682Y173680D01*
X335714Y173586D01*
X335742Y173491D01*
X335767Y173395D01*
X335788Y173297D01*
X335805Y173199D01*
X335818Y173101D01*
X335827Y173002D01*
X335833Y172902D01*
X335835Y172803D01*
X335835Y172154D01*
X335836Y172154D02*
X335834Y172041D01*
X335828Y171928D01*
X335818Y171815D01*
X335804Y171702D01*
X335787Y171590D01*
X335765Y171479D01*
X335740Y171369D01*
X335710Y171259D01*
X335677Y171151D01*
X335640Y171044D01*
X335600Y170938D01*
X335555Y170834D01*
X335507Y170731D01*
X335456Y170630D01*
X335401Y170531D01*
X335343Y170434D01*
X335281Y170339D01*
X335216Y170246D01*
X335148Y170156D01*
X335077Y170068D01*
X335002Y169982D01*
X334925Y169899D01*
X334845Y169819D01*
X334762Y169742D01*
X334676Y169667D01*
X334588Y169596D01*
X334498Y169528D01*
X334405Y169463D01*
X334310Y169401D01*
X334213Y169343D01*
X334114Y169288D01*
X334013Y169237D01*
X333910Y169189D01*
X333806Y169144D01*
X333700Y169104D01*
X333593Y169067D01*
X333485Y169034D01*
X333375Y169004D01*
X333265Y168979D01*
X333154Y168957D01*
X333042Y168940D01*
X332929Y168926D01*
X332816Y168916D01*
X332703Y168910D01*
X332590Y168908D01*
X332477Y168910D01*
X332364Y168916D01*
X332251Y168926D01*
X332138Y168940D01*
X332026Y168957D01*
X331915Y168979D01*
X331805Y169004D01*
X331695Y169034D01*
X331587Y169067D01*
X331480Y169104D01*
X331374Y169144D01*
X331270Y169189D01*
X331167Y169237D01*
X331066Y169288D01*
X330967Y169343D01*
X330870Y169401D01*
X330775Y169463D01*
X330682Y169528D01*
X330592Y169596D01*
X330504Y169667D01*
X330418Y169742D01*
X330335Y169819D01*
X330255Y169899D01*
X330178Y169982D01*
X330103Y170068D01*
X330032Y170156D01*
X329964Y170246D01*
X329899Y170339D01*
X329837Y170434D01*
X329779Y170531D01*
X329724Y170630D01*
X329673Y170731D01*
X329625Y170834D01*
X329580Y170938D01*
X329540Y171044D01*
X329503Y171151D01*
X329470Y171259D01*
X329440Y171369D01*
X329415Y171479D01*
X329393Y171590D01*
X329376Y171702D01*
X329362Y171815D01*
X329352Y171928D01*
X329346Y172041D01*
X329344Y172154D01*
X329344Y175399D01*
X329346Y175542D01*
X329352Y175685D01*
X329362Y175828D01*
X329376Y175970D01*
X329393Y176112D01*
X329415Y176254D01*
X329440Y176395D01*
X329470Y176535D01*
X329503Y176674D01*
X329540Y176812D01*
X329581Y176949D01*
X329625Y177085D01*
X329674Y177220D01*
X329726Y177353D01*
X329781Y177485D01*
X329841Y177615D01*
X329904Y177744D01*
X329970Y177871D01*
X330040Y177995D01*
X330113Y178118D01*
X330190Y178239D01*
X330270Y178358D01*
X330353Y178474D01*
X330439Y178589D01*
X330528Y178700D01*
X330621Y178810D01*
X330716Y178916D01*
X330815Y179020D01*
X330916Y179121D01*
X331020Y179220D01*
X331126Y179315D01*
X331236Y179408D01*
X331347Y179497D01*
X331462Y179583D01*
X331578Y179666D01*
X331697Y179746D01*
X331818Y179823D01*
X331940Y179896D01*
X332065Y179966D01*
X332192Y180032D01*
X332321Y180095D01*
X332451Y180155D01*
X332583Y180210D01*
X332716Y180262D01*
X332851Y180311D01*
X332987Y180355D01*
X333124Y180396D01*
X333262Y180433D01*
X333401Y180466D01*
X333541Y180496D01*
X333682Y180521D01*
X333824Y180543D01*
X333966Y180560D01*
X334108Y180574D01*
X334251Y180584D01*
X334394Y180590D01*
X334537Y180592D01*
X306558Y203908D02*
X306558Y215592D01*
X309804Y215592D01*
X309917Y215590D01*
X310030Y215584D01*
X310143Y215574D01*
X310256Y215560D01*
X310368Y215543D01*
X310479Y215521D01*
X310589Y215496D01*
X310699Y215466D01*
X310807Y215433D01*
X310914Y215396D01*
X311020Y215356D01*
X311124Y215311D01*
X311227Y215263D01*
X311328Y215212D01*
X311427Y215157D01*
X311524Y215099D01*
X311619Y215037D01*
X311712Y214972D01*
X311802Y214904D01*
X311890Y214833D01*
X311976Y214758D01*
X312059Y214681D01*
X312139Y214601D01*
X312216Y214518D01*
X312291Y214432D01*
X312362Y214344D01*
X312430Y214254D01*
X312495Y214161D01*
X312557Y214066D01*
X312615Y213969D01*
X312670Y213870D01*
X312721Y213769D01*
X312769Y213666D01*
X312814Y213562D01*
X312854Y213456D01*
X312891Y213349D01*
X312924Y213241D01*
X312954Y213131D01*
X312979Y213021D01*
X313001Y212910D01*
X313018Y212798D01*
X313032Y212685D01*
X313042Y212572D01*
X313048Y212459D01*
X313050Y212346D01*
X313048Y212233D01*
X313042Y212120D01*
X313032Y212007D01*
X313018Y211894D01*
X313001Y211782D01*
X312979Y211671D01*
X312954Y211561D01*
X312924Y211451D01*
X312891Y211343D01*
X312854Y211236D01*
X312814Y211130D01*
X312769Y211026D01*
X312721Y210923D01*
X312670Y210822D01*
X312615Y210723D01*
X312557Y210626D01*
X312495Y210531D01*
X312430Y210438D01*
X312362Y210348D01*
X312291Y210260D01*
X312216Y210174D01*
X312139Y210091D01*
X312059Y210011D01*
X311976Y209934D01*
X311890Y209859D01*
X311802Y209788D01*
X311712Y209720D01*
X311619Y209655D01*
X311524Y209593D01*
X311427Y209535D01*
X311328Y209480D01*
X311227Y209429D01*
X311124Y209381D01*
X311020Y209336D01*
X310914Y209296D01*
X310807Y209259D01*
X310699Y209226D01*
X310589Y209196D01*
X310479Y209171D01*
X310368Y209149D01*
X310256Y209132D01*
X310143Y209118D01*
X310030Y209108D01*
X309917Y209102D01*
X309804Y209100D01*
X309804Y209101D02*
X306558Y209101D01*
X310453Y209101D02*
X313049Y203908D01*
X317914Y212996D02*
X321160Y215592D01*
X321160Y203908D01*
X324405Y203908D02*
X317914Y203908D01*
X329344Y207154D02*
X329346Y207267D01*
X329352Y207380D01*
X329362Y207493D01*
X329376Y207606D01*
X329393Y207718D01*
X329415Y207829D01*
X329440Y207939D01*
X329470Y208049D01*
X329503Y208157D01*
X329540Y208264D01*
X329580Y208370D01*
X329625Y208474D01*
X329673Y208577D01*
X329724Y208678D01*
X329779Y208777D01*
X329837Y208874D01*
X329899Y208969D01*
X329964Y209062D01*
X330032Y209152D01*
X330103Y209240D01*
X330178Y209326D01*
X330255Y209409D01*
X330335Y209489D01*
X330418Y209566D01*
X330504Y209641D01*
X330592Y209712D01*
X330682Y209780D01*
X330775Y209845D01*
X330870Y209907D01*
X330967Y209965D01*
X331066Y210020D01*
X331167Y210071D01*
X331270Y210119D01*
X331374Y210164D01*
X331480Y210204D01*
X331587Y210241D01*
X331695Y210274D01*
X331805Y210304D01*
X331915Y210329D01*
X332026Y210351D01*
X332138Y210368D01*
X332251Y210382D01*
X332364Y210392D01*
X332477Y210398D01*
X332590Y210400D01*
X332703Y210398D01*
X332816Y210392D01*
X332929Y210382D01*
X333042Y210368D01*
X333154Y210351D01*
X333265Y210329D01*
X333375Y210304D01*
X333485Y210274D01*
X333593Y210241D01*
X333700Y210204D01*
X333806Y210164D01*
X333910Y210119D01*
X334013Y210071D01*
X334114Y210020D01*
X334213Y209965D01*
X334310Y209907D01*
X334405Y209845D01*
X334498Y209780D01*
X334588Y209712D01*
X334676Y209641D01*
X334762Y209566D01*
X334845Y209489D01*
X334925Y209409D01*
X335002Y209326D01*
X335077Y209240D01*
X335148Y209152D01*
X335216Y209062D01*
X335281Y208969D01*
X335343Y208874D01*
X335401Y208777D01*
X335456Y208678D01*
X335507Y208577D01*
X335555Y208474D01*
X335600Y208370D01*
X335640Y208264D01*
X335677Y208157D01*
X335710Y208049D01*
X335740Y207939D01*
X335765Y207829D01*
X335787Y207718D01*
X335804Y207606D01*
X335818Y207493D01*
X335828Y207380D01*
X335834Y207267D01*
X335836Y207154D01*
X335834Y207041D01*
X335828Y206928D01*
X335818Y206815D01*
X335804Y206702D01*
X335787Y206590D01*
X335765Y206479D01*
X335740Y206369D01*
X335710Y206259D01*
X335677Y206151D01*
X335640Y206044D01*
X335600Y205938D01*
X335555Y205834D01*
X335507Y205731D01*
X335456Y205630D01*
X335401Y205531D01*
X335343Y205434D01*
X335281Y205339D01*
X335216Y205246D01*
X335148Y205156D01*
X335077Y205068D01*
X335002Y204982D01*
X334925Y204899D01*
X334845Y204819D01*
X334762Y204742D01*
X334676Y204667D01*
X334588Y204596D01*
X334498Y204528D01*
X334405Y204463D01*
X334310Y204401D01*
X334213Y204343D01*
X334114Y204288D01*
X334013Y204237D01*
X333910Y204189D01*
X333806Y204144D01*
X333700Y204104D01*
X333593Y204067D01*
X333485Y204034D01*
X333375Y204004D01*
X333265Y203979D01*
X333154Y203957D01*
X333042Y203940D01*
X332929Y203926D01*
X332816Y203916D01*
X332703Y203910D01*
X332590Y203908D01*
X332477Y203910D01*
X332364Y203916D01*
X332251Y203926D01*
X332138Y203940D01*
X332026Y203957D01*
X331915Y203979D01*
X331805Y204004D01*
X331695Y204034D01*
X331587Y204067D01*
X331480Y204104D01*
X331374Y204144D01*
X331270Y204189D01*
X331167Y204237D01*
X331066Y204288D01*
X330967Y204343D01*
X330870Y204401D01*
X330775Y204463D01*
X330682Y204528D01*
X330592Y204596D01*
X330504Y204667D01*
X330418Y204742D01*
X330335Y204819D01*
X330255Y204899D01*
X330178Y204982D01*
X330103Y205068D01*
X330032Y205156D01*
X329964Y205246D01*
X329899Y205339D01*
X329837Y205434D01*
X329779Y205531D01*
X329724Y205630D01*
X329673Y205731D01*
X329625Y205834D01*
X329580Y205938D01*
X329540Y206044D01*
X329503Y206151D01*
X329470Y206259D01*
X329440Y206369D01*
X329415Y206479D01*
X329393Y206590D01*
X329376Y206702D01*
X329362Y206815D01*
X329352Y206928D01*
X329346Y207041D01*
X329344Y207154D01*
X329994Y212996D02*
X329996Y213097D01*
X330002Y213197D01*
X330012Y213297D01*
X330025Y213397D01*
X330043Y213496D01*
X330064Y213595D01*
X330089Y213692D01*
X330118Y213789D01*
X330151Y213884D01*
X330187Y213978D01*
X330227Y214070D01*
X330270Y214161D01*
X330317Y214250D01*
X330367Y214337D01*
X330421Y214423D01*
X330478Y214506D01*
X330538Y214586D01*
X330601Y214665D01*
X330668Y214741D01*
X330737Y214814D01*
X330809Y214884D01*
X330883Y214952D01*
X330960Y215017D01*
X331040Y215078D01*
X331122Y215137D01*
X331206Y215192D01*
X331292Y215244D01*
X331380Y215293D01*
X331470Y215338D01*
X331562Y215380D01*
X331655Y215418D01*
X331750Y215452D01*
X331845Y215483D01*
X331942Y215510D01*
X332040Y215533D01*
X332139Y215553D01*
X332239Y215568D01*
X332339Y215580D01*
X332439Y215588D01*
X332540Y215592D01*
X332640Y215592D01*
X332741Y215588D01*
X332841Y215580D01*
X332941Y215568D01*
X333041Y215553D01*
X333140Y215533D01*
X333238Y215510D01*
X333335Y215483D01*
X333430Y215452D01*
X333525Y215418D01*
X333618Y215380D01*
X333710Y215338D01*
X333800Y215293D01*
X333888Y215244D01*
X333974Y215192D01*
X334058Y215137D01*
X334140Y215078D01*
X334220Y215017D01*
X334297Y214952D01*
X334371Y214884D01*
X334443Y214814D01*
X334512Y214741D01*
X334579Y214665D01*
X334642Y214586D01*
X334702Y214506D01*
X334759Y214423D01*
X334813Y214337D01*
X334863Y214250D01*
X334910Y214161D01*
X334953Y214070D01*
X334993Y213978D01*
X335029Y213884D01*
X335062Y213789D01*
X335091Y213692D01*
X335116Y213595D01*
X335137Y213496D01*
X335155Y213397D01*
X335168Y213297D01*
X335178Y213197D01*
X335184Y213097D01*
X335186Y212996D01*
X335184Y212895D01*
X335178Y212795D01*
X335168Y212695D01*
X335155Y212595D01*
X335137Y212496D01*
X335116Y212397D01*
X335091Y212300D01*
X335062Y212203D01*
X335029Y212108D01*
X334993Y212014D01*
X334953Y211922D01*
X334910Y211831D01*
X334863Y211742D01*
X334813Y211655D01*
X334759Y211569D01*
X334702Y211486D01*
X334642Y211406D01*
X334579Y211327D01*
X334512Y211251D01*
X334443Y211178D01*
X334371Y211108D01*
X334297Y211040D01*
X334220Y210975D01*
X334140Y210914D01*
X334058Y210855D01*
X333974Y210800D01*
X333888Y210748D01*
X333800Y210699D01*
X333710Y210654D01*
X333618Y210612D01*
X333525Y210574D01*
X333430Y210540D01*
X333335Y210509D01*
X333238Y210482D01*
X333140Y210459D01*
X333041Y210439D01*
X332941Y210424D01*
X332841Y210412D01*
X332741Y210404D01*
X332640Y210400D01*
X332540Y210400D01*
X332439Y210404D01*
X332339Y210412D01*
X332239Y210424D01*
X332139Y210439D01*
X332040Y210459D01*
X331942Y210482D01*
X331845Y210509D01*
X331750Y210540D01*
X331655Y210574D01*
X331562Y210612D01*
X331470Y210654D01*
X331380Y210699D01*
X331292Y210748D01*
X331206Y210800D01*
X331122Y210855D01*
X331040Y210914D01*
X330960Y210975D01*
X330883Y211040D01*
X330809Y211108D01*
X330737Y211178D01*
X330668Y211251D01*
X330601Y211327D01*
X330538Y211406D01*
X330478Y211486D01*
X330421Y211569D01*
X330367Y211655D01*
X330317Y211742D01*
X330270Y211831D01*
X330227Y211922D01*
X330187Y212014D01*
X330151Y212108D01*
X330118Y212203D01*
X330089Y212300D01*
X330064Y212397D01*
X330043Y212496D01*
X330025Y212595D01*
X330012Y212695D01*
X330002Y212795D01*
X329996Y212895D01*
X329994Y212996D01*
X34492Y370358D02*
X22808Y370358D01*
X22808Y373604D01*
X22810Y373717D01*
X22816Y373830D01*
X22826Y373943D01*
X22840Y374056D01*
X22857Y374168D01*
X22879Y374279D01*
X22904Y374389D01*
X22934Y374499D01*
X22967Y374607D01*
X23004Y374714D01*
X23044Y374820D01*
X23089Y374924D01*
X23137Y375027D01*
X23188Y375128D01*
X23243Y375227D01*
X23301Y375324D01*
X23363Y375419D01*
X23428Y375512D01*
X23496Y375602D01*
X23567Y375690D01*
X23642Y375776D01*
X23719Y375859D01*
X23799Y375939D01*
X23882Y376016D01*
X23968Y376091D01*
X24056Y376162D01*
X24146Y376230D01*
X24239Y376295D01*
X24334Y376357D01*
X24431Y376415D01*
X24530Y376470D01*
X24631Y376521D01*
X24734Y376569D01*
X24838Y376614D01*
X24944Y376654D01*
X25051Y376691D01*
X25159Y376724D01*
X25269Y376754D01*
X25379Y376779D01*
X25490Y376801D01*
X25602Y376818D01*
X25715Y376832D01*
X25828Y376842D01*
X25941Y376848D01*
X26054Y376850D01*
X26167Y376848D01*
X26280Y376842D01*
X26393Y376832D01*
X26506Y376818D01*
X26618Y376801D01*
X26729Y376779D01*
X26839Y376754D01*
X26949Y376724D01*
X27057Y376691D01*
X27164Y376654D01*
X27270Y376614D01*
X27374Y376569D01*
X27477Y376521D01*
X27578Y376470D01*
X27677Y376415D01*
X27774Y376357D01*
X27869Y376295D01*
X27962Y376230D01*
X28052Y376162D01*
X28140Y376091D01*
X28226Y376016D01*
X28309Y375939D01*
X28389Y375859D01*
X28466Y375776D01*
X28541Y375690D01*
X28612Y375602D01*
X28680Y375512D01*
X28745Y375419D01*
X28807Y375324D01*
X28865Y375227D01*
X28920Y375128D01*
X28971Y375027D01*
X29019Y374924D01*
X29064Y374820D01*
X29104Y374714D01*
X29141Y374607D01*
X29174Y374499D01*
X29204Y374389D01*
X29229Y374279D01*
X29251Y374168D01*
X29268Y374056D01*
X29282Y373943D01*
X29292Y373830D01*
X29298Y373717D01*
X29300Y373604D01*
X29299Y373604D02*
X29299Y370358D01*
X29299Y374253D02*
X34492Y376849D01*
X24106Y381714D02*
X22808Y381714D01*
X22808Y388205D01*
X34492Y384960D01*
X210808Y100545D02*
X222492Y100545D01*
X210808Y100545D02*
X210808Y103790D01*
X210810Y103903D01*
X210816Y104016D01*
X210826Y104129D01*
X210840Y104242D01*
X210857Y104354D01*
X210879Y104465D01*
X210904Y104575D01*
X210934Y104685D01*
X210967Y104793D01*
X211004Y104900D01*
X211044Y105006D01*
X211089Y105110D01*
X211137Y105213D01*
X211188Y105314D01*
X211243Y105413D01*
X211301Y105510D01*
X211363Y105605D01*
X211428Y105698D01*
X211496Y105788D01*
X211567Y105876D01*
X211642Y105962D01*
X211719Y106045D01*
X211799Y106125D01*
X211882Y106202D01*
X211968Y106277D01*
X212056Y106348D01*
X212146Y106416D01*
X212239Y106481D01*
X212334Y106543D01*
X212431Y106601D01*
X212530Y106656D01*
X212631Y106707D01*
X212734Y106755D01*
X212838Y106800D01*
X212944Y106840D01*
X213051Y106877D01*
X213159Y106910D01*
X213269Y106940D01*
X213379Y106965D01*
X213490Y106987D01*
X213602Y107004D01*
X213715Y107018D01*
X213828Y107028D01*
X213941Y107034D01*
X214054Y107036D01*
X214167Y107034D01*
X214280Y107028D01*
X214393Y107018D01*
X214506Y107004D01*
X214618Y106987D01*
X214729Y106965D01*
X214839Y106940D01*
X214949Y106910D01*
X215057Y106877D01*
X215164Y106840D01*
X215270Y106800D01*
X215374Y106755D01*
X215477Y106707D01*
X215578Y106656D01*
X215677Y106601D01*
X215774Y106543D01*
X215869Y106481D01*
X215962Y106416D01*
X216052Y106348D01*
X216140Y106277D01*
X216226Y106202D01*
X216309Y106125D01*
X216389Y106045D01*
X216466Y105962D01*
X216541Y105876D01*
X216612Y105788D01*
X216680Y105698D01*
X216745Y105605D01*
X216807Y105510D01*
X216865Y105413D01*
X216920Y105314D01*
X216971Y105213D01*
X217019Y105110D01*
X217064Y105006D01*
X217104Y104900D01*
X217141Y104793D01*
X217174Y104685D01*
X217204Y104575D01*
X217229Y104465D01*
X217251Y104354D01*
X217268Y104242D01*
X217282Y104129D01*
X217292Y104016D01*
X217298Y103903D01*
X217300Y103790D01*
X217299Y103790D02*
X217299Y100545D01*
X217299Y104439D02*
X222492Y107036D01*
X217299Y114497D02*
X217299Y118392D01*
X217299Y114497D02*
X217297Y114398D01*
X217291Y114298D01*
X217282Y114199D01*
X217269Y114101D01*
X217252Y114003D01*
X217231Y113905D01*
X217206Y113809D01*
X217178Y113714D01*
X217146Y113620D01*
X217111Y113527D01*
X217072Y113435D01*
X217029Y113345D01*
X216984Y113257D01*
X216934Y113170D01*
X216882Y113086D01*
X216826Y113003D01*
X216768Y112923D01*
X216706Y112845D01*
X216641Y112770D01*
X216573Y112697D01*
X216503Y112627D01*
X216430Y112559D01*
X216355Y112494D01*
X216277Y112432D01*
X216197Y112374D01*
X216114Y112318D01*
X216030Y112266D01*
X215943Y112216D01*
X215855Y112171D01*
X215765Y112128D01*
X215673Y112089D01*
X215580Y112054D01*
X215486Y112022D01*
X215391Y111994D01*
X215295Y111969D01*
X215197Y111948D01*
X215099Y111931D01*
X215001Y111918D01*
X214902Y111909D01*
X214802Y111903D01*
X214703Y111901D01*
X214054Y111901D01*
X214054Y111900D02*
X213941Y111902D01*
X213828Y111908D01*
X213715Y111918D01*
X213602Y111932D01*
X213490Y111949D01*
X213379Y111971D01*
X213269Y111996D01*
X213159Y112026D01*
X213051Y112059D01*
X212944Y112096D01*
X212838Y112136D01*
X212734Y112181D01*
X212631Y112229D01*
X212530Y112280D01*
X212431Y112335D01*
X212334Y112393D01*
X212239Y112455D01*
X212146Y112520D01*
X212056Y112588D01*
X211968Y112659D01*
X211882Y112734D01*
X211799Y112811D01*
X211719Y112891D01*
X211642Y112974D01*
X211567Y113060D01*
X211496Y113148D01*
X211428Y113238D01*
X211363Y113331D01*
X211301Y113426D01*
X211243Y113523D01*
X211188Y113622D01*
X211137Y113723D01*
X211089Y113826D01*
X211044Y113930D01*
X211004Y114036D01*
X210967Y114143D01*
X210934Y114251D01*
X210904Y114361D01*
X210879Y114471D01*
X210857Y114582D01*
X210840Y114694D01*
X210826Y114807D01*
X210816Y114920D01*
X210810Y115033D01*
X210808Y115146D01*
X210810Y115259D01*
X210816Y115372D01*
X210826Y115485D01*
X210840Y115598D01*
X210857Y115710D01*
X210879Y115821D01*
X210904Y115931D01*
X210934Y116041D01*
X210967Y116149D01*
X211004Y116256D01*
X211044Y116362D01*
X211089Y116466D01*
X211137Y116569D01*
X211188Y116670D01*
X211243Y116769D01*
X211301Y116866D01*
X211363Y116961D01*
X211428Y117054D01*
X211496Y117144D01*
X211567Y117232D01*
X211642Y117318D01*
X211719Y117401D01*
X211799Y117481D01*
X211882Y117558D01*
X211968Y117633D01*
X212056Y117704D01*
X212146Y117772D01*
X212239Y117837D01*
X212334Y117899D01*
X212431Y117957D01*
X212530Y118012D01*
X212631Y118063D01*
X212734Y118111D01*
X212838Y118156D01*
X212944Y118196D01*
X213051Y118233D01*
X213159Y118266D01*
X213269Y118296D01*
X213379Y118321D01*
X213490Y118343D01*
X213602Y118360D01*
X213715Y118374D01*
X213828Y118384D01*
X213941Y118390D01*
X214054Y118392D01*
X217299Y118392D01*
X217442Y118390D01*
X217585Y118384D01*
X217728Y118374D01*
X217870Y118360D01*
X218012Y118343D01*
X218154Y118321D01*
X218295Y118296D01*
X218435Y118266D01*
X218574Y118233D01*
X218712Y118196D01*
X218849Y118155D01*
X218985Y118111D01*
X219120Y118062D01*
X219253Y118010D01*
X219385Y117955D01*
X219515Y117895D01*
X219644Y117832D01*
X219771Y117766D01*
X219896Y117696D01*
X220018Y117623D01*
X220139Y117546D01*
X220258Y117466D01*
X220374Y117383D01*
X220489Y117297D01*
X220600Y117208D01*
X220710Y117115D01*
X220816Y117020D01*
X220920Y116921D01*
X221021Y116820D01*
X221120Y116716D01*
X221215Y116610D01*
X221308Y116500D01*
X221397Y116389D01*
X221483Y116274D01*
X221566Y116158D01*
X221646Y116039D01*
X221723Y115918D01*
X221796Y115796D01*
X221866Y115671D01*
X221932Y115544D01*
X221995Y115415D01*
X222055Y115285D01*
X222110Y115153D01*
X222162Y115020D01*
X222211Y114885D01*
X222255Y114749D01*
X222296Y114612D01*
X222333Y114474D01*
X222366Y114335D01*
X222396Y114195D01*
X222421Y114054D01*
X222443Y113912D01*
X222460Y113770D01*
X222474Y113628D01*
X222484Y113485D01*
X222490Y113342D01*
X222492Y113199D01*
D14*
X119700Y543900D02*
X119700Y576400D01*
X217700Y576400D01*
X217700Y543900D01*
X119700Y498900D02*
X119700Y466400D01*
X217700Y466400D01*
X217700Y498900D01*
D15*
X128700Y438900D03*
D13*
X128698Y438944D01*
X128692Y438987D01*
X128683Y439029D01*
X128670Y439071D01*
X128653Y439111D01*
X128633Y439150D01*
X128610Y439187D01*
X128583Y439221D01*
X128554Y439254D01*
X128521Y439283D01*
X128487Y439310D01*
X128450Y439333D01*
X128411Y439353D01*
X128371Y439370D01*
X128329Y439383D01*
X128287Y439392D01*
X128244Y439398D01*
X128200Y439400D01*
X128156Y439398D01*
X128113Y439392D01*
X128071Y439383D01*
X128029Y439370D01*
X127989Y439353D01*
X127950Y439333D01*
X127913Y439310D01*
X127879Y439283D01*
X127846Y439254D01*
X127817Y439221D01*
X127790Y439187D01*
X127767Y439150D01*
X127747Y439111D01*
X127730Y439071D01*
X127717Y439029D01*
X127708Y438987D01*
X127702Y438944D01*
X127700Y438900D01*
D15*
X127700Y438900D03*
D13*
X127702Y438856D01*
X127708Y438813D01*
X127717Y438771D01*
X127730Y438729D01*
X127747Y438689D01*
X127767Y438650D01*
X127790Y438613D01*
X127817Y438579D01*
X127846Y438546D01*
X127879Y438517D01*
X127913Y438490D01*
X127950Y438467D01*
X127989Y438447D01*
X128029Y438430D01*
X128071Y438417D01*
X128113Y438408D01*
X128156Y438402D01*
X128200Y438400D01*
X128244Y438402D01*
X128287Y438408D01*
X128329Y438417D01*
X128371Y438430D01*
X128411Y438447D01*
X128450Y438467D01*
X128487Y438490D01*
X128521Y438517D01*
X128554Y438546D01*
X128583Y438579D01*
X128610Y438613D01*
X128633Y438650D01*
X128653Y438689D01*
X128670Y438729D01*
X128683Y438771D01*
X128692Y438813D01*
X128698Y438856D01*
X128700Y438900D01*
D10*
X157404Y482558D02*
X153509Y494242D01*
X161299Y494242D02*
X157404Y482558D01*
X166043Y482558D02*
X166043Y494242D01*
X169289Y494242D01*
X169402Y494240D01*
X169515Y494234D01*
X169628Y494224D01*
X169741Y494210D01*
X169853Y494193D01*
X169964Y494171D01*
X170074Y494146D01*
X170184Y494116D01*
X170292Y494083D01*
X170399Y494046D01*
X170505Y494006D01*
X170609Y493961D01*
X170712Y493913D01*
X170813Y493862D01*
X170912Y493807D01*
X171009Y493749D01*
X171104Y493687D01*
X171197Y493622D01*
X171287Y493554D01*
X171375Y493483D01*
X171461Y493408D01*
X171544Y493331D01*
X171624Y493251D01*
X171701Y493168D01*
X171776Y493082D01*
X171847Y492994D01*
X171915Y492904D01*
X171980Y492811D01*
X172042Y492716D01*
X172100Y492619D01*
X172155Y492520D01*
X172206Y492419D01*
X172254Y492316D01*
X172299Y492212D01*
X172339Y492106D01*
X172376Y491999D01*
X172409Y491891D01*
X172439Y491781D01*
X172464Y491671D01*
X172486Y491560D01*
X172503Y491448D01*
X172517Y491335D01*
X172527Y491222D01*
X172533Y491109D01*
X172535Y490996D01*
X172533Y490883D01*
X172527Y490770D01*
X172517Y490657D01*
X172503Y490544D01*
X172486Y490432D01*
X172464Y490321D01*
X172439Y490211D01*
X172409Y490101D01*
X172376Y489993D01*
X172339Y489886D01*
X172299Y489780D01*
X172254Y489676D01*
X172206Y489573D01*
X172155Y489472D01*
X172100Y489373D01*
X172042Y489276D01*
X171980Y489181D01*
X171915Y489088D01*
X171847Y488998D01*
X171776Y488910D01*
X171701Y488824D01*
X171624Y488741D01*
X171544Y488661D01*
X171461Y488584D01*
X171375Y488509D01*
X171287Y488438D01*
X171197Y488370D01*
X171104Y488305D01*
X171009Y488243D01*
X170912Y488185D01*
X170813Y488130D01*
X170712Y488079D01*
X170609Y488031D01*
X170505Y487986D01*
X170399Y487946D01*
X170292Y487909D01*
X170184Y487876D01*
X170074Y487846D01*
X169964Y487821D01*
X169853Y487799D01*
X169741Y487782D01*
X169628Y487768D01*
X169515Y487758D01*
X169402Y487752D01*
X169289Y487750D01*
X169289Y487751D02*
X166043Y487751D01*
X169938Y487751D02*
X172534Y482558D01*
X177399Y491646D02*
X180645Y494242D01*
X180645Y482558D01*
X177399Y482558D02*
X183891Y482558D01*
D14*
X224600Y248000D02*
X224600Y239000D01*
X209600Y239000D02*
X209600Y248000D01*
D10*
X206775Y238610D02*
X201258Y234715D01*
X206775Y238610D02*
X201258Y242504D01*
X206775Y238610D02*
X212942Y238610D01*
X203854Y246794D02*
X201258Y250040D01*
X212942Y250040D01*
X212942Y253285D02*
X212942Y246794D01*
D13*
X36000Y80000D02*
X-24000Y80000D01*
X-24000Y130000D02*
X36000Y130000D01*
X51510Y110420D02*
X51512Y110460D01*
X51518Y110499D01*
X51528Y110538D01*
X51541Y110575D01*
X51559Y110611D01*
X51580Y110645D01*
X51604Y110677D01*
X51631Y110706D01*
X51661Y110733D01*
X51693Y110756D01*
X51728Y110776D01*
X51764Y110792D01*
X51802Y110805D01*
X51841Y110814D01*
X51880Y110819D01*
X51920Y110820D01*
X51960Y110817D01*
X51999Y110810D01*
X52037Y110799D01*
X52075Y110785D01*
X52110Y110766D01*
X52143Y110745D01*
X52175Y110720D01*
X52203Y110692D01*
X52229Y110662D01*
X52251Y110629D01*
X52270Y110594D01*
X52286Y110557D01*
X52298Y110519D01*
X52306Y110480D01*
X52310Y110440D01*
X52310Y110400D01*
X52306Y110360D01*
X52298Y110321D01*
X52286Y110283D01*
X52270Y110246D01*
X52251Y110211D01*
X52229Y110178D01*
X52203Y110148D01*
X52175Y110120D01*
X52143Y110095D01*
X52110Y110074D01*
X52075Y110055D01*
X52037Y110041D01*
X51999Y110030D01*
X51960Y110023D01*
X51920Y110020D01*
X51880Y110021D01*
X51841Y110026D01*
X51802Y110035D01*
X51764Y110048D01*
X51728Y110064D01*
X51693Y110084D01*
X51661Y110107D01*
X51631Y110134D01*
X51604Y110163D01*
X51580Y110195D01*
X51559Y110229D01*
X51541Y110265D01*
X51528Y110302D01*
X51518Y110341D01*
X51512Y110380D01*
X51510Y110420D01*
X36000Y92650D02*
X36000Y80000D01*
X36000Y117350D02*
X36000Y130000D01*
X-24000Y112910D02*
X-24000Y97090D01*
D10*
X4668Y97075D02*
X13756Y97075D01*
X13855Y97073D01*
X13955Y97067D01*
X14054Y97058D01*
X14152Y97045D01*
X14250Y97028D01*
X14348Y97007D01*
X14444Y96982D01*
X14539Y96954D01*
X14633Y96922D01*
X14726Y96887D01*
X14818Y96848D01*
X14908Y96805D01*
X14996Y96760D01*
X15083Y96710D01*
X15167Y96658D01*
X15250Y96602D01*
X15330Y96544D01*
X15408Y96482D01*
X15483Y96417D01*
X15556Y96349D01*
X15626Y96279D01*
X15694Y96206D01*
X15759Y96131D01*
X15821Y96053D01*
X15879Y95973D01*
X15935Y95890D01*
X15987Y95806D01*
X16037Y95719D01*
X16082Y95631D01*
X16125Y95541D01*
X16164Y95449D01*
X16199Y95356D01*
X16231Y95262D01*
X16259Y95167D01*
X16284Y95071D01*
X16305Y94973D01*
X16322Y94875D01*
X16335Y94777D01*
X16344Y94678D01*
X16350Y94578D01*
X16352Y94479D01*
X16352Y93180D01*
X7264Y102349D02*
X4668Y105594D01*
X16352Y105594D01*
X16352Y102349D02*
X16352Y108840D01*
D11*
X342700Y527150D02*
X342700Y539850D01*
X342700Y527150D02*
X336350Y520800D01*
X323650Y520800D02*
X317300Y527150D01*
X336350Y520800D02*
X342700Y514450D01*
X342700Y501750D01*
X336350Y495400D01*
X323650Y495400D02*
X317300Y501750D01*
X317300Y514450D01*
X323650Y520800D01*
X323650Y546200D02*
X336350Y546200D01*
X342700Y539850D01*
X323650Y546200D02*
X317300Y539850D01*
X317300Y527150D01*
X336350Y495400D02*
X342700Y489050D01*
X342700Y476350D01*
X336350Y470000D01*
X323650Y470000D02*
X317300Y476350D01*
X317300Y489050D01*
X323650Y495400D01*
X342700Y463650D02*
X342700Y450950D01*
X336350Y444600D01*
X323650Y444600D02*
X317300Y450950D01*
X336350Y444600D02*
X342700Y438250D01*
X342700Y425550D01*
X336350Y419200D01*
X323650Y419200D02*
X317300Y425550D01*
X317300Y438250D01*
X323650Y444600D01*
X342700Y463650D02*
X336350Y470000D01*
X323650Y470000D02*
X317300Y463650D01*
X317300Y450950D01*
X336350Y419200D02*
X342700Y412850D01*
X342700Y400150D01*
X336350Y393800D01*
X323650Y393800D02*
X317300Y400150D01*
X317300Y412850D01*
X323650Y419200D01*
X323650Y393800D02*
X336350Y393800D01*
D12*
X303965Y532865D02*
X301425Y536040D01*
X312855Y536040D01*
X312855Y532865D02*
X312855Y539215D01*
X352225Y409675D02*
X352225Y405865D01*
X352225Y409675D02*
X352227Y409775D01*
X352233Y409874D01*
X352243Y409974D01*
X352256Y410072D01*
X352274Y410171D01*
X352295Y410268D01*
X352320Y410364D01*
X352349Y410460D01*
X352382Y410554D01*
X352418Y410647D01*
X352458Y410738D01*
X352502Y410828D01*
X352549Y410916D01*
X352599Y411002D01*
X352653Y411086D01*
X352710Y411168D01*
X352770Y411247D01*
X352834Y411325D01*
X352900Y411399D01*
X352969Y411471D01*
X353041Y411540D01*
X353115Y411606D01*
X353193Y411670D01*
X353272Y411730D01*
X353354Y411787D01*
X353438Y411841D01*
X353524Y411891D01*
X353612Y411938D01*
X353702Y411982D01*
X353793Y412022D01*
X353886Y412058D01*
X353980Y412091D01*
X354076Y412120D01*
X354172Y412145D01*
X354269Y412166D01*
X354368Y412184D01*
X354466Y412197D01*
X354566Y412207D01*
X354665Y412213D01*
X354765Y412215D01*
X355400Y412215D01*
X355511Y412213D01*
X355621Y412207D01*
X355732Y412198D01*
X355842Y412184D01*
X355951Y412167D01*
X356060Y412146D01*
X356168Y412121D01*
X356275Y412092D01*
X356381Y412060D01*
X356486Y412024D01*
X356589Y411984D01*
X356691Y411941D01*
X356792Y411894D01*
X356891Y411843D01*
X356988Y411790D01*
X357082Y411733D01*
X357175Y411672D01*
X357266Y411609D01*
X357355Y411542D01*
X357441Y411472D01*
X357524Y411399D01*
X357606Y411324D01*
X357684Y411246D01*
X357759Y411164D01*
X357832Y411081D01*
X357902Y410995D01*
X357969Y410906D01*
X358032Y410815D01*
X358093Y410722D01*
X358150Y410627D01*
X358203Y410531D01*
X358254Y410432D01*
X358301Y410331D01*
X358344Y410229D01*
X358384Y410126D01*
X358420Y410021D01*
X358452Y409915D01*
X358481Y409808D01*
X358506Y409700D01*
X358527Y409591D01*
X358544Y409482D01*
X358558Y409372D01*
X358567Y409261D01*
X358573Y409151D01*
X358575Y409040D01*
X358573Y408929D01*
X358567Y408819D01*
X358558Y408708D01*
X358544Y408598D01*
X358527Y408489D01*
X358506Y408380D01*
X358481Y408272D01*
X358452Y408165D01*
X358420Y408059D01*
X358384Y407954D01*
X358344Y407851D01*
X358301Y407749D01*
X358254Y407648D01*
X358203Y407549D01*
X358150Y407452D01*
X358093Y407358D01*
X358032Y407265D01*
X357969Y407174D01*
X357902Y407085D01*
X357832Y406999D01*
X357759Y406916D01*
X357684Y406834D01*
X357606Y406756D01*
X357524Y406681D01*
X357441Y406608D01*
X357355Y406538D01*
X357266Y406471D01*
X357175Y406408D01*
X357082Y406347D01*
X356988Y406290D01*
X356891Y406237D01*
X356792Y406186D01*
X356691Y406139D01*
X356589Y406096D01*
X356486Y406056D01*
X356381Y406020D01*
X356275Y405988D01*
X356168Y405959D01*
X356060Y405934D01*
X355951Y405913D01*
X355842Y405896D01*
X355732Y405882D01*
X355621Y405873D01*
X355511Y405867D01*
X355400Y405865D01*
X352225Y405865D01*
X352085Y405867D01*
X351945Y405873D01*
X351805Y405882D01*
X351666Y405896D01*
X351527Y405913D01*
X351389Y405934D01*
X351251Y405959D01*
X351114Y405988D01*
X350978Y406020D01*
X350843Y406057D01*
X350709Y406097D01*
X350576Y406140D01*
X350444Y406188D01*
X350313Y406238D01*
X350184Y406293D01*
X350057Y406351D01*
X349931Y406412D01*
X349807Y406477D01*
X349685Y406546D01*
X349565Y406617D01*
X349447Y406692D01*
X349330Y406770D01*
X349216Y406852D01*
X349105Y406936D01*
X348996Y407024D01*
X348889Y407114D01*
X348784Y407208D01*
X348683Y407304D01*
X348584Y407403D01*
X348488Y407504D01*
X348394Y407609D01*
X348304Y407716D01*
X348216Y407825D01*
X348132Y407936D01*
X348050Y408050D01*
X347972Y408167D01*
X347897Y408285D01*
X347826Y408405D01*
X347757Y408527D01*
X347692Y408651D01*
X347631Y408777D01*
X347573Y408904D01*
X347518Y409033D01*
X347468Y409164D01*
X347420Y409296D01*
X347377Y409429D01*
X347337Y409563D01*
X347300Y409698D01*
X347268Y409834D01*
X347239Y409971D01*
X347214Y410109D01*
X347193Y410247D01*
X347176Y410386D01*
X347162Y410525D01*
X347153Y410665D01*
X347147Y410805D01*
X347145Y410945D01*
X358575Y520546D02*
X358573Y520646D01*
X358567Y520745D01*
X358557Y520845D01*
X358544Y520943D01*
X358526Y521042D01*
X358505Y521139D01*
X358480Y521235D01*
X358451Y521331D01*
X358418Y521425D01*
X358382Y521518D01*
X358342Y521609D01*
X358298Y521699D01*
X358251Y521787D01*
X358201Y521873D01*
X358147Y521957D01*
X358090Y522039D01*
X358030Y522118D01*
X357966Y522196D01*
X357900Y522270D01*
X357831Y522342D01*
X357759Y522411D01*
X357685Y522477D01*
X357607Y522541D01*
X357528Y522601D01*
X357446Y522658D01*
X357362Y522712D01*
X357276Y522762D01*
X357188Y522809D01*
X357098Y522853D01*
X357007Y522893D01*
X356914Y522929D01*
X356820Y522962D01*
X356724Y522991D01*
X356628Y523016D01*
X356531Y523037D01*
X356432Y523055D01*
X356334Y523068D01*
X356234Y523078D01*
X356135Y523084D01*
X356035Y523086D01*
X358575Y520546D02*
X358573Y520405D01*
X358568Y520264D01*
X358558Y520123D01*
X358545Y519982D01*
X358529Y519842D01*
X358508Y519702D01*
X358484Y519563D01*
X358456Y519424D01*
X358425Y519287D01*
X358390Y519150D01*
X358352Y519014D01*
X358310Y518879D01*
X358264Y518746D01*
X358215Y518613D01*
X358162Y518482D01*
X358106Y518353D01*
X358047Y518224D01*
X357984Y518098D01*
X357918Y517973D01*
X357849Y517850D01*
X357776Y517729D01*
X357700Y517610D01*
X357621Y517492D01*
X357540Y517377D01*
X357455Y517265D01*
X357367Y517154D01*
X357276Y517046D01*
X357183Y516940D01*
X357086Y516837D01*
X356987Y516736D01*
X349685Y517054D02*
X349585Y517056D01*
X349486Y517062D01*
X349386Y517072D01*
X349288Y517085D01*
X349189Y517103D01*
X349092Y517124D01*
X348996Y517149D01*
X348900Y517178D01*
X348806Y517211D01*
X348713Y517247D01*
X348622Y517287D01*
X348532Y517331D01*
X348444Y517378D01*
X348358Y517428D01*
X348274Y517482D01*
X348192Y517539D01*
X348113Y517599D01*
X348035Y517663D01*
X347961Y517729D01*
X347889Y517798D01*
X347820Y517870D01*
X347754Y517944D01*
X347690Y518022D01*
X347630Y518101D01*
X347573Y518183D01*
X347519Y518267D01*
X347469Y518353D01*
X347422Y518441D01*
X347378Y518531D01*
X347338Y518622D01*
X347302Y518715D01*
X347269Y518809D01*
X347240Y518905D01*
X347215Y519001D01*
X347194Y519098D01*
X347176Y519197D01*
X347163Y519295D01*
X347153Y519395D01*
X347147Y519494D01*
X347145Y519594D01*
X347147Y519727D01*
X347152Y519860D01*
X347162Y519993D01*
X347175Y520126D01*
X347192Y520258D01*
X347212Y520390D01*
X347236Y520521D01*
X347264Y520651D01*
X347295Y520781D01*
X347330Y520909D01*
X347369Y521037D01*
X347411Y521163D01*
X347457Y521288D01*
X347506Y521412D01*
X347558Y521535D01*
X347614Y521656D01*
X347674Y521775D01*
X347736Y521893D01*
X347802Y522008D01*
X347871Y522122D01*
X347944Y522234D01*
X348019Y522344D01*
X348098Y522452D01*
X351908Y518323D02*
X351856Y518239D01*
X351801Y518156D01*
X351742Y518076D01*
X351681Y517998D01*
X351617Y517923D01*
X351549Y517850D01*
X351479Y517779D01*
X351407Y517712D01*
X351332Y517647D01*
X351254Y517585D01*
X351174Y517526D01*
X351092Y517470D01*
X351008Y517418D01*
X350922Y517369D01*
X350834Y517323D01*
X350744Y517280D01*
X350653Y517241D01*
X350560Y517206D01*
X350466Y517174D01*
X350371Y517146D01*
X350275Y517121D01*
X350178Y517101D01*
X350080Y517083D01*
X349982Y517070D01*
X349883Y517061D01*
X349784Y517055D01*
X349685Y517053D01*
X353812Y521816D02*
X353864Y521900D01*
X353919Y521983D01*
X353978Y522063D01*
X354039Y522141D01*
X354103Y522216D01*
X354171Y522289D01*
X354241Y522360D01*
X354313Y522427D01*
X354388Y522492D01*
X354466Y522554D01*
X354546Y522613D01*
X354628Y522669D01*
X354712Y522721D01*
X354798Y522770D01*
X354886Y522816D01*
X354976Y522859D01*
X355067Y522898D01*
X355160Y522933D01*
X355254Y522965D01*
X355349Y522993D01*
X355445Y523018D01*
X355542Y523038D01*
X355640Y523056D01*
X355738Y523069D01*
X355837Y523078D01*
X355936Y523084D01*
X356035Y523086D01*
X353813Y521816D02*
X351908Y518324D01*
X347145Y527150D02*
X358575Y530960D01*
X347145Y534770D01*
X349685Y539215D02*
X347145Y542390D01*
X358575Y542390D01*
X358575Y539215D02*
X358575Y545565D01*
D11*
X186350Y172700D02*
X173650Y172700D01*
X186350Y172700D02*
X192700Y166350D01*
X192700Y153650D01*
X186350Y147300D01*
X167300Y153650D02*
X167300Y166350D01*
X173650Y172700D01*
X167300Y153650D02*
X173650Y147300D01*
X186350Y147300D01*
D12*
X170983Y181463D02*
X170983Y190353D01*
X170983Y181463D02*
X170981Y181363D01*
X170975Y181264D01*
X170965Y181164D01*
X170952Y181066D01*
X170934Y180967D01*
X170913Y180870D01*
X170888Y180774D01*
X170859Y180678D01*
X170826Y180584D01*
X170790Y180491D01*
X170750Y180400D01*
X170706Y180310D01*
X170659Y180222D01*
X170609Y180136D01*
X170555Y180052D01*
X170498Y179970D01*
X170438Y179891D01*
X170374Y179813D01*
X170308Y179739D01*
X170239Y179667D01*
X170167Y179598D01*
X170093Y179532D01*
X170015Y179468D01*
X169936Y179408D01*
X169854Y179351D01*
X169770Y179297D01*
X169684Y179247D01*
X169596Y179200D01*
X169506Y179156D01*
X169415Y179116D01*
X169322Y179080D01*
X169228Y179047D01*
X169132Y179018D01*
X169036Y178993D01*
X168939Y178972D01*
X168840Y178954D01*
X168742Y178941D01*
X168642Y178931D01*
X168543Y178925D01*
X168443Y178923D01*
X167173Y178923D01*
X176963Y178923D02*
X176963Y190353D01*
X180138Y190353D01*
X180249Y190351D01*
X180359Y190345D01*
X180470Y190336D01*
X180580Y190322D01*
X180689Y190305D01*
X180798Y190284D01*
X180906Y190259D01*
X181013Y190230D01*
X181119Y190198D01*
X181224Y190162D01*
X181327Y190122D01*
X181429Y190079D01*
X181530Y190032D01*
X181629Y189981D01*
X181726Y189928D01*
X181820Y189871D01*
X181913Y189810D01*
X182004Y189747D01*
X182093Y189680D01*
X182179Y189610D01*
X182262Y189537D01*
X182344Y189462D01*
X182422Y189384D01*
X182497Y189302D01*
X182570Y189219D01*
X182640Y189133D01*
X182707Y189044D01*
X182770Y188953D01*
X182831Y188860D01*
X182888Y188765D01*
X182941Y188669D01*
X182992Y188570D01*
X183039Y188469D01*
X183082Y188367D01*
X183122Y188264D01*
X183158Y188159D01*
X183190Y188053D01*
X183219Y187946D01*
X183244Y187838D01*
X183265Y187729D01*
X183282Y187620D01*
X183296Y187510D01*
X183305Y187399D01*
X183311Y187289D01*
X183313Y187178D01*
X183311Y187067D01*
X183305Y186957D01*
X183296Y186846D01*
X183282Y186736D01*
X183265Y186627D01*
X183244Y186518D01*
X183219Y186410D01*
X183190Y186303D01*
X183158Y186197D01*
X183122Y186092D01*
X183082Y185989D01*
X183039Y185887D01*
X182992Y185786D01*
X182941Y185687D01*
X182888Y185590D01*
X182831Y185496D01*
X182770Y185403D01*
X182707Y185312D01*
X182640Y185223D01*
X182570Y185137D01*
X182497Y185054D01*
X182422Y184972D01*
X182344Y184894D01*
X182262Y184819D01*
X182179Y184746D01*
X182093Y184676D01*
X182004Y184609D01*
X181913Y184546D01*
X181820Y184485D01*
X181725Y184428D01*
X181629Y184375D01*
X181530Y184324D01*
X181429Y184277D01*
X181327Y184234D01*
X181224Y184194D01*
X181119Y184158D01*
X181013Y184126D01*
X180906Y184097D01*
X180798Y184072D01*
X180689Y184051D01*
X180580Y184034D01*
X180470Y184020D01*
X180359Y184011D01*
X180249Y184005D01*
X180138Y184003D01*
X176963Y184003D01*
X187822Y187813D02*
X190997Y190353D01*
X190997Y178923D01*
X187822Y178923D02*
X194172Y178923D01*
D11*
X196350Y202700D02*
X183650Y202700D01*
X196350Y202700D02*
X202700Y196350D01*
X202700Y183650D01*
X196350Y177300D01*
X177300Y183650D02*
X177300Y196350D01*
X183650Y202700D01*
X177300Y183650D02*
X183650Y177300D01*
X196350Y177300D01*
D12*
X180983Y211463D02*
X180983Y220353D01*
X180983Y211463D02*
X180981Y211363D01*
X180975Y211264D01*
X180965Y211164D01*
X180952Y211066D01*
X180934Y210967D01*
X180913Y210870D01*
X180888Y210774D01*
X180859Y210678D01*
X180826Y210584D01*
X180790Y210491D01*
X180750Y210400D01*
X180706Y210310D01*
X180659Y210222D01*
X180609Y210136D01*
X180555Y210052D01*
X180498Y209970D01*
X180438Y209891D01*
X180374Y209813D01*
X180308Y209739D01*
X180239Y209667D01*
X180167Y209598D01*
X180093Y209532D01*
X180015Y209468D01*
X179936Y209408D01*
X179854Y209351D01*
X179770Y209297D01*
X179684Y209247D01*
X179596Y209200D01*
X179506Y209156D01*
X179415Y209116D01*
X179322Y209080D01*
X179228Y209047D01*
X179132Y209018D01*
X179036Y208993D01*
X178939Y208972D01*
X178840Y208954D01*
X178742Y208941D01*
X178642Y208931D01*
X178543Y208925D01*
X178443Y208923D01*
X177173Y208923D01*
X186963Y208923D02*
X186963Y220353D01*
X190138Y220353D01*
X190249Y220351D01*
X190359Y220345D01*
X190470Y220336D01*
X190580Y220322D01*
X190689Y220305D01*
X190798Y220284D01*
X190906Y220259D01*
X191013Y220230D01*
X191119Y220198D01*
X191224Y220162D01*
X191327Y220122D01*
X191429Y220079D01*
X191530Y220032D01*
X191629Y219981D01*
X191726Y219928D01*
X191820Y219871D01*
X191913Y219810D01*
X192004Y219747D01*
X192093Y219680D01*
X192179Y219610D01*
X192262Y219537D01*
X192344Y219462D01*
X192422Y219384D01*
X192497Y219302D01*
X192570Y219219D01*
X192640Y219133D01*
X192707Y219044D01*
X192770Y218953D01*
X192831Y218860D01*
X192888Y218765D01*
X192941Y218669D01*
X192992Y218570D01*
X193039Y218469D01*
X193082Y218367D01*
X193122Y218264D01*
X193158Y218159D01*
X193190Y218053D01*
X193219Y217946D01*
X193244Y217838D01*
X193265Y217729D01*
X193282Y217620D01*
X193296Y217510D01*
X193305Y217399D01*
X193311Y217289D01*
X193313Y217178D01*
X193311Y217067D01*
X193305Y216957D01*
X193296Y216846D01*
X193282Y216736D01*
X193265Y216627D01*
X193244Y216518D01*
X193219Y216410D01*
X193190Y216303D01*
X193158Y216197D01*
X193122Y216092D01*
X193082Y215989D01*
X193039Y215887D01*
X192992Y215786D01*
X192941Y215687D01*
X192888Y215590D01*
X192831Y215496D01*
X192770Y215403D01*
X192707Y215312D01*
X192640Y215223D01*
X192570Y215137D01*
X192497Y215054D01*
X192422Y214972D01*
X192344Y214894D01*
X192262Y214819D01*
X192179Y214746D01*
X192093Y214676D01*
X192004Y214609D01*
X191913Y214546D01*
X191820Y214485D01*
X191725Y214428D01*
X191629Y214375D01*
X191530Y214324D01*
X191429Y214277D01*
X191327Y214234D01*
X191224Y214194D01*
X191119Y214158D01*
X191013Y214126D01*
X190906Y214097D01*
X190798Y214072D01*
X190689Y214051D01*
X190580Y214034D01*
X190470Y214020D01*
X190359Y214011D01*
X190249Y214005D01*
X190138Y214003D01*
X186963Y214003D01*
X201314Y220354D02*
X201418Y220352D01*
X201523Y220346D01*
X201627Y220337D01*
X201730Y220324D01*
X201833Y220306D01*
X201935Y220286D01*
X202037Y220261D01*
X202137Y220233D01*
X202237Y220201D01*
X202335Y220165D01*
X202432Y220126D01*
X202527Y220084D01*
X202621Y220038D01*
X202713Y219988D01*
X202803Y219936D01*
X202891Y219880D01*
X202977Y219820D01*
X203061Y219758D01*
X203142Y219693D01*
X203221Y219625D01*
X203298Y219553D01*
X203371Y219480D01*
X203443Y219403D01*
X203511Y219324D01*
X203576Y219243D01*
X203638Y219159D01*
X203698Y219073D01*
X203754Y218985D01*
X203806Y218895D01*
X203856Y218803D01*
X203902Y218709D01*
X203944Y218614D01*
X203983Y218517D01*
X204019Y218419D01*
X204051Y218319D01*
X204079Y218219D01*
X204104Y218117D01*
X204124Y218015D01*
X204142Y217912D01*
X204155Y217809D01*
X204164Y217705D01*
X204170Y217600D01*
X204172Y217496D01*
X201314Y220353D02*
X201196Y220351D01*
X201077Y220345D01*
X200959Y220336D01*
X200842Y220323D01*
X200725Y220305D01*
X200608Y220285D01*
X200492Y220260D01*
X200377Y220232D01*
X200264Y220199D01*
X200151Y220164D01*
X200039Y220124D01*
X199929Y220082D01*
X199820Y220035D01*
X199712Y219985D01*
X199607Y219932D01*
X199503Y219875D01*
X199401Y219815D01*
X199301Y219752D01*
X199203Y219685D01*
X199107Y219616D01*
X199014Y219543D01*
X198923Y219467D01*
X198834Y219389D01*
X198748Y219307D01*
X198665Y219223D01*
X198584Y219137D01*
X198507Y219047D01*
X198432Y218956D01*
X198360Y218862D01*
X198291Y218765D01*
X198226Y218667D01*
X198163Y218566D01*
X198104Y218463D01*
X198048Y218359D01*
X197996Y218253D01*
X197947Y218145D01*
X197902Y218036D01*
X197860Y217925D01*
X197822Y217813D01*
X203220Y215274D02*
X203296Y215349D01*
X203371Y215428D01*
X203442Y215509D01*
X203511Y215593D01*
X203576Y215679D01*
X203638Y215767D01*
X203698Y215857D01*
X203754Y215949D01*
X203807Y216044D01*
X203856Y216140D01*
X203902Y216238D01*
X203945Y216337D01*
X203984Y216438D01*
X204019Y216540D01*
X204051Y216643D01*
X204079Y216747D01*
X204104Y216852D01*
X204125Y216959D01*
X204142Y217065D01*
X204155Y217172D01*
X204164Y217280D01*
X204170Y217388D01*
X204172Y217496D01*
X203219Y215273D02*
X197822Y208923D01*
X204172Y208923D01*
D11*
X223650Y212700D02*
X236350Y212700D01*
X242700Y206350D01*
X242700Y193650D01*
X236350Y187300D01*
X217300Y193650D02*
X217300Y206350D01*
X223650Y212700D01*
X217300Y193650D02*
X223650Y187300D01*
X236350Y187300D01*
D12*
X220983Y221463D02*
X220983Y230353D01*
X220983Y221463D02*
X220981Y221363D01*
X220975Y221264D01*
X220965Y221164D01*
X220952Y221066D01*
X220934Y220967D01*
X220913Y220870D01*
X220888Y220774D01*
X220859Y220678D01*
X220826Y220584D01*
X220790Y220491D01*
X220750Y220400D01*
X220706Y220310D01*
X220659Y220222D01*
X220609Y220136D01*
X220555Y220052D01*
X220498Y219970D01*
X220438Y219891D01*
X220374Y219813D01*
X220308Y219739D01*
X220239Y219667D01*
X220167Y219598D01*
X220093Y219532D01*
X220015Y219468D01*
X219936Y219408D01*
X219854Y219351D01*
X219770Y219297D01*
X219684Y219247D01*
X219596Y219200D01*
X219506Y219156D01*
X219415Y219116D01*
X219322Y219080D01*
X219228Y219047D01*
X219132Y219018D01*
X219036Y218993D01*
X218939Y218972D01*
X218840Y218954D01*
X218742Y218941D01*
X218642Y218931D01*
X218543Y218925D01*
X218443Y218923D01*
X217173Y218923D01*
X226963Y218923D02*
X226963Y230353D01*
X230138Y230353D01*
X230249Y230351D01*
X230359Y230345D01*
X230470Y230336D01*
X230580Y230322D01*
X230689Y230305D01*
X230798Y230284D01*
X230906Y230259D01*
X231013Y230230D01*
X231119Y230198D01*
X231224Y230162D01*
X231327Y230122D01*
X231429Y230079D01*
X231530Y230032D01*
X231629Y229981D01*
X231726Y229928D01*
X231820Y229871D01*
X231913Y229810D01*
X232004Y229747D01*
X232093Y229680D01*
X232179Y229610D01*
X232262Y229537D01*
X232344Y229462D01*
X232422Y229384D01*
X232497Y229302D01*
X232570Y229219D01*
X232640Y229133D01*
X232707Y229044D01*
X232770Y228953D01*
X232831Y228860D01*
X232888Y228765D01*
X232941Y228669D01*
X232992Y228570D01*
X233039Y228469D01*
X233082Y228367D01*
X233122Y228264D01*
X233158Y228159D01*
X233190Y228053D01*
X233219Y227946D01*
X233244Y227838D01*
X233265Y227729D01*
X233282Y227620D01*
X233296Y227510D01*
X233305Y227399D01*
X233311Y227289D01*
X233313Y227178D01*
X233311Y227067D01*
X233305Y226957D01*
X233296Y226846D01*
X233282Y226736D01*
X233265Y226627D01*
X233244Y226518D01*
X233219Y226410D01*
X233190Y226303D01*
X233158Y226197D01*
X233122Y226092D01*
X233082Y225989D01*
X233039Y225887D01*
X232992Y225786D01*
X232941Y225687D01*
X232888Y225590D01*
X232831Y225496D01*
X232770Y225403D01*
X232707Y225312D01*
X232640Y225223D01*
X232570Y225137D01*
X232497Y225054D01*
X232422Y224972D01*
X232344Y224894D01*
X232262Y224819D01*
X232179Y224746D01*
X232093Y224676D01*
X232004Y224609D01*
X231913Y224546D01*
X231820Y224485D01*
X231725Y224428D01*
X231629Y224375D01*
X231530Y224324D01*
X231429Y224277D01*
X231327Y224234D01*
X231224Y224194D01*
X231119Y224158D01*
X231013Y224126D01*
X230906Y224097D01*
X230798Y224072D01*
X230689Y224051D01*
X230580Y224034D01*
X230470Y224020D01*
X230359Y224011D01*
X230249Y224005D01*
X230138Y224003D01*
X226963Y224003D01*
X237822Y218923D02*
X240997Y218923D01*
X241108Y218925D01*
X241218Y218931D01*
X241329Y218940D01*
X241439Y218954D01*
X241548Y218971D01*
X241657Y218992D01*
X241765Y219017D01*
X241872Y219046D01*
X241978Y219078D01*
X242083Y219114D01*
X242186Y219154D01*
X242288Y219197D01*
X242389Y219244D01*
X242488Y219295D01*
X242584Y219348D01*
X242679Y219405D01*
X242772Y219466D01*
X242863Y219529D01*
X242952Y219596D01*
X243038Y219666D01*
X243121Y219739D01*
X243203Y219814D01*
X243281Y219892D01*
X243356Y219974D01*
X243429Y220057D01*
X243499Y220143D01*
X243566Y220232D01*
X243629Y220323D01*
X243690Y220416D01*
X243747Y220510D01*
X243800Y220607D01*
X243851Y220706D01*
X243898Y220807D01*
X243941Y220909D01*
X243981Y221012D01*
X244017Y221117D01*
X244049Y221223D01*
X244078Y221330D01*
X244103Y221438D01*
X244124Y221547D01*
X244141Y221656D01*
X244155Y221766D01*
X244164Y221877D01*
X244170Y221987D01*
X244172Y222098D01*
X244170Y222209D01*
X244164Y222319D01*
X244155Y222430D01*
X244141Y222540D01*
X244124Y222649D01*
X244103Y222758D01*
X244078Y222866D01*
X244049Y222973D01*
X244017Y223079D01*
X243981Y223184D01*
X243941Y223287D01*
X243898Y223389D01*
X243851Y223490D01*
X243800Y223589D01*
X243747Y223685D01*
X243690Y223780D01*
X243629Y223873D01*
X243566Y223964D01*
X243499Y224053D01*
X243429Y224139D01*
X243356Y224222D01*
X243281Y224304D01*
X243203Y224382D01*
X243121Y224457D01*
X243038Y224530D01*
X242952Y224600D01*
X242863Y224667D01*
X242772Y224730D01*
X242679Y224791D01*
X242585Y224848D01*
X242488Y224901D01*
X242389Y224952D01*
X242288Y224999D01*
X242186Y225042D01*
X242083Y225082D01*
X241978Y225118D01*
X241872Y225150D01*
X241765Y225179D01*
X241657Y225204D01*
X241548Y225225D01*
X241439Y225242D01*
X241329Y225256D01*
X241218Y225265D01*
X241108Y225271D01*
X240997Y225273D01*
X241632Y230353D02*
X237822Y230353D01*
X241632Y230353D02*
X241732Y230351D01*
X241831Y230345D01*
X241931Y230335D01*
X242029Y230322D01*
X242128Y230304D01*
X242225Y230283D01*
X242321Y230258D01*
X242417Y230229D01*
X242511Y230196D01*
X242604Y230160D01*
X242695Y230120D01*
X242785Y230076D01*
X242873Y230029D01*
X242959Y229979D01*
X243043Y229925D01*
X243125Y229868D01*
X243204Y229808D01*
X243282Y229744D01*
X243356Y229678D01*
X243428Y229609D01*
X243497Y229537D01*
X243563Y229463D01*
X243627Y229385D01*
X243687Y229306D01*
X243744Y229224D01*
X243798Y229140D01*
X243848Y229054D01*
X243895Y228966D01*
X243939Y228876D01*
X243979Y228785D01*
X244015Y228692D01*
X244048Y228598D01*
X244077Y228502D01*
X244102Y228406D01*
X244123Y228309D01*
X244141Y228210D01*
X244154Y228112D01*
X244164Y228012D01*
X244170Y227913D01*
X244172Y227813D01*
X244170Y227713D01*
X244164Y227614D01*
X244154Y227514D01*
X244141Y227416D01*
X244123Y227317D01*
X244102Y227220D01*
X244077Y227124D01*
X244048Y227028D01*
X244015Y226934D01*
X243979Y226841D01*
X243939Y226750D01*
X243895Y226660D01*
X243848Y226572D01*
X243798Y226486D01*
X243744Y226402D01*
X243687Y226320D01*
X243627Y226241D01*
X243563Y226163D01*
X243497Y226089D01*
X243428Y226017D01*
X243356Y225948D01*
X243282Y225882D01*
X243204Y225818D01*
X243125Y225758D01*
X243043Y225701D01*
X242959Y225647D01*
X242873Y225597D01*
X242785Y225550D01*
X242695Y225506D01*
X242604Y225466D01*
X242511Y225430D01*
X242417Y225397D01*
X242321Y225368D01*
X242225Y225343D01*
X242128Y225322D01*
X242029Y225304D01*
X241931Y225291D01*
X241831Y225281D01*
X241732Y225275D01*
X241632Y225273D01*
X239092Y225273D01*
D11*
X403650Y362700D02*
X416350Y362700D01*
X422700Y356350D01*
X422700Y343650D01*
X416350Y337300D01*
X397300Y343650D02*
X397300Y356350D01*
X403650Y362700D01*
X397300Y343650D02*
X403650Y337300D01*
X416350Y337300D01*
D12*
X400983Y371463D02*
X400983Y380353D01*
X400983Y371463D02*
X400981Y371363D01*
X400975Y371264D01*
X400965Y371164D01*
X400952Y371066D01*
X400934Y370967D01*
X400913Y370870D01*
X400888Y370774D01*
X400859Y370678D01*
X400826Y370584D01*
X400790Y370491D01*
X400750Y370400D01*
X400706Y370310D01*
X400659Y370222D01*
X400609Y370136D01*
X400555Y370052D01*
X400498Y369970D01*
X400438Y369891D01*
X400374Y369813D01*
X400308Y369739D01*
X400239Y369667D01*
X400167Y369598D01*
X400093Y369532D01*
X400015Y369468D01*
X399936Y369408D01*
X399854Y369351D01*
X399770Y369297D01*
X399684Y369247D01*
X399596Y369200D01*
X399506Y369156D01*
X399415Y369116D01*
X399322Y369080D01*
X399228Y369047D01*
X399132Y369018D01*
X399036Y368993D01*
X398939Y368972D01*
X398840Y368954D01*
X398742Y368941D01*
X398642Y368931D01*
X398543Y368925D01*
X398443Y368923D01*
X397173Y368923D01*
X406963Y368923D02*
X406963Y380353D01*
X410138Y380353D01*
X410249Y380351D01*
X410359Y380345D01*
X410470Y380336D01*
X410580Y380322D01*
X410689Y380305D01*
X410798Y380284D01*
X410906Y380259D01*
X411013Y380230D01*
X411119Y380198D01*
X411224Y380162D01*
X411327Y380122D01*
X411429Y380079D01*
X411530Y380032D01*
X411629Y379981D01*
X411726Y379928D01*
X411820Y379871D01*
X411913Y379810D01*
X412004Y379747D01*
X412093Y379680D01*
X412179Y379610D01*
X412262Y379537D01*
X412344Y379462D01*
X412422Y379384D01*
X412497Y379302D01*
X412570Y379219D01*
X412640Y379133D01*
X412707Y379044D01*
X412770Y378953D01*
X412831Y378860D01*
X412888Y378765D01*
X412941Y378669D01*
X412992Y378570D01*
X413039Y378469D01*
X413082Y378367D01*
X413122Y378264D01*
X413158Y378159D01*
X413190Y378053D01*
X413219Y377946D01*
X413244Y377838D01*
X413265Y377729D01*
X413282Y377620D01*
X413296Y377510D01*
X413305Y377399D01*
X413311Y377289D01*
X413313Y377178D01*
X413311Y377067D01*
X413305Y376957D01*
X413296Y376846D01*
X413282Y376736D01*
X413265Y376627D01*
X413244Y376518D01*
X413219Y376410D01*
X413190Y376303D01*
X413158Y376197D01*
X413122Y376092D01*
X413082Y375989D01*
X413039Y375887D01*
X412992Y375786D01*
X412941Y375687D01*
X412888Y375590D01*
X412831Y375496D01*
X412770Y375403D01*
X412707Y375312D01*
X412640Y375223D01*
X412570Y375137D01*
X412497Y375054D01*
X412422Y374972D01*
X412344Y374894D01*
X412262Y374819D01*
X412179Y374746D01*
X412093Y374676D01*
X412004Y374609D01*
X411913Y374546D01*
X411820Y374485D01*
X411726Y374428D01*
X411629Y374375D01*
X411530Y374324D01*
X411429Y374277D01*
X411327Y374234D01*
X411224Y374194D01*
X411119Y374158D01*
X411013Y374126D01*
X410906Y374097D01*
X410798Y374072D01*
X410689Y374051D01*
X410580Y374034D01*
X410470Y374020D01*
X410359Y374011D01*
X410249Y374005D01*
X410138Y374003D01*
X406963Y374003D01*
X417822Y371463D02*
X420362Y380353D01*
X417822Y371463D02*
X424172Y371463D01*
X422267Y374003D02*
X422267Y368923D01*
D11*
X416350Y422700D02*
X403650Y422700D01*
X416350Y422700D02*
X422700Y416350D01*
X422700Y403650D01*
X416350Y397300D01*
X397300Y403650D02*
X397300Y416350D01*
X403650Y422700D01*
X397300Y403650D02*
X403650Y397300D01*
X416350Y397300D01*
D12*
X400983Y431463D02*
X400983Y440353D01*
X400983Y431463D02*
X400981Y431363D01*
X400975Y431264D01*
X400965Y431164D01*
X400952Y431066D01*
X400934Y430967D01*
X400913Y430870D01*
X400888Y430774D01*
X400859Y430678D01*
X400826Y430584D01*
X400790Y430491D01*
X400750Y430400D01*
X400706Y430310D01*
X400659Y430222D01*
X400609Y430136D01*
X400555Y430052D01*
X400498Y429970D01*
X400438Y429891D01*
X400374Y429813D01*
X400308Y429739D01*
X400239Y429667D01*
X400167Y429598D01*
X400093Y429532D01*
X400015Y429468D01*
X399936Y429408D01*
X399854Y429351D01*
X399770Y429297D01*
X399684Y429247D01*
X399596Y429200D01*
X399506Y429156D01*
X399415Y429116D01*
X399322Y429080D01*
X399228Y429047D01*
X399132Y429018D01*
X399036Y428993D01*
X398939Y428972D01*
X398840Y428954D01*
X398742Y428941D01*
X398642Y428931D01*
X398543Y428925D01*
X398443Y428923D01*
X397173Y428923D01*
X406963Y428923D02*
X406963Y440353D01*
X410138Y440353D01*
X410249Y440351D01*
X410359Y440345D01*
X410470Y440336D01*
X410580Y440322D01*
X410689Y440305D01*
X410798Y440284D01*
X410906Y440259D01*
X411013Y440230D01*
X411119Y440198D01*
X411224Y440162D01*
X411327Y440122D01*
X411429Y440079D01*
X411530Y440032D01*
X411629Y439981D01*
X411726Y439928D01*
X411820Y439871D01*
X411913Y439810D01*
X412004Y439747D01*
X412093Y439680D01*
X412179Y439610D01*
X412262Y439537D01*
X412344Y439462D01*
X412422Y439384D01*
X412497Y439302D01*
X412570Y439219D01*
X412640Y439133D01*
X412707Y439044D01*
X412770Y438953D01*
X412831Y438860D01*
X412888Y438765D01*
X412941Y438669D01*
X412992Y438570D01*
X413039Y438469D01*
X413082Y438367D01*
X413122Y438264D01*
X413158Y438159D01*
X413190Y438053D01*
X413219Y437946D01*
X413244Y437838D01*
X413265Y437729D01*
X413282Y437620D01*
X413296Y437510D01*
X413305Y437399D01*
X413311Y437289D01*
X413313Y437178D01*
X413311Y437067D01*
X413305Y436957D01*
X413296Y436846D01*
X413282Y436736D01*
X413265Y436627D01*
X413244Y436518D01*
X413219Y436410D01*
X413190Y436303D01*
X413158Y436197D01*
X413122Y436092D01*
X413082Y435989D01*
X413039Y435887D01*
X412992Y435786D01*
X412941Y435687D01*
X412888Y435590D01*
X412831Y435496D01*
X412770Y435403D01*
X412707Y435312D01*
X412640Y435223D01*
X412570Y435137D01*
X412497Y435054D01*
X412422Y434972D01*
X412344Y434894D01*
X412262Y434819D01*
X412179Y434746D01*
X412093Y434676D01*
X412004Y434609D01*
X411913Y434546D01*
X411820Y434485D01*
X411726Y434428D01*
X411629Y434375D01*
X411530Y434324D01*
X411429Y434277D01*
X411327Y434234D01*
X411224Y434194D01*
X411119Y434158D01*
X411013Y434126D01*
X410906Y434097D01*
X410798Y434072D01*
X410689Y434051D01*
X410580Y434034D01*
X410470Y434020D01*
X410359Y434011D01*
X410249Y434005D01*
X410138Y434003D01*
X406963Y434003D01*
X417822Y439083D02*
X417822Y440353D01*
X424172Y440353D01*
X420997Y428923D01*
D11*
X416350Y502700D02*
X403650Y502700D01*
X416350Y502700D02*
X422700Y496350D01*
X422700Y483650D01*
X416350Y477300D01*
X397300Y483650D02*
X397300Y496350D01*
X403650Y502700D01*
X397300Y483650D02*
X403650Y477300D01*
X416350Y477300D01*
D12*
X400983Y511463D02*
X400983Y520353D01*
X400983Y511463D02*
X400981Y511363D01*
X400975Y511264D01*
X400965Y511164D01*
X400952Y511066D01*
X400934Y510967D01*
X400913Y510870D01*
X400888Y510774D01*
X400859Y510678D01*
X400826Y510584D01*
X400790Y510491D01*
X400750Y510400D01*
X400706Y510310D01*
X400659Y510222D01*
X400609Y510136D01*
X400555Y510052D01*
X400498Y509970D01*
X400438Y509891D01*
X400374Y509813D01*
X400308Y509739D01*
X400239Y509667D01*
X400167Y509598D01*
X400093Y509532D01*
X400015Y509468D01*
X399936Y509408D01*
X399854Y509351D01*
X399770Y509297D01*
X399684Y509247D01*
X399596Y509200D01*
X399506Y509156D01*
X399415Y509116D01*
X399322Y509080D01*
X399228Y509047D01*
X399132Y509018D01*
X399036Y508993D01*
X398939Y508972D01*
X398840Y508954D01*
X398742Y508941D01*
X398642Y508931D01*
X398543Y508925D01*
X398443Y508923D01*
X397173Y508923D01*
X406963Y508923D02*
X406963Y520353D01*
X410138Y520353D01*
X410249Y520351D01*
X410359Y520345D01*
X410470Y520336D01*
X410580Y520322D01*
X410689Y520305D01*
X410798Y520284D01*
X410906Y520259D01*
X411013Y520230D01*
X411119Y520198D01*
X411224Y520162D01*
X411327Y520122D01*
X411429Y520079D01*
X411530Y520032D01*
X411629Y519981D01*
X411726Y519928D01*
X411820Y519871D01*
X411913Y519810D01*
X412004Y519747D01*
X412093Y519680D01*
X412179Y519610D01*
X412262Y519537D01*
X412344Y519462D01*
X412422Y519384D01*
X412497Y519302D01*
X412570Y519219D01*
X412640Y519133D01*
X412707Y519044D01*
X412770Y518953D01*
X412831Y518860D01*
X412888Y518765D01*
X412941Y518669D01*
X412992Y518570D01*
X413039Y518469D01*
X413082Y518367D01*
X413122Y518264D01*
X413158Y518159D01*
X413190Y518053D01*
X413219Y517946D01*
X413244Y517838D01*
X413265Y517729D01*
X413282Y517620D01*
X413296Y517510D01*
X413305Y517399D01*
X413311Y517289D01*
X413313Y517178D01*
X413311Y517067D01*
X413305Y516957D01*
X413296Y516846D01*
X413282Y516736D01*
X413265Y516627D01*
X413244Y516518D01*
X413219Y516410D01*
X413190Y516303D01*
X413158Y516197D01*
X413122Y516092D01*
X413082Y515989D01*
X413039Y515887D01*
X412992Y515786D01*
X412941Y515687D01*
X412888Y515590D01*
X412831Y515496D01*
X412770Y515403D01*
X412707Y515312D01*
X412640Y515223D01*
X412570Y515137D01*
X412497Y515054D01*
X412422Y514972D01*
X412344Y514894D01*
X412262Y514819D01*
X412179Y514746D01*
X412093Y514676D01*
X412004Y514609D01*
X411913Y514546D01*
X411820Y514485D01*
X411726Y514428D01*
X411629Y514375D01*
X411530Y514324D01*
X411429Y514277D01*
X411327Y514234D01*
X411224Y514194D01*
X411119Y514158D01*
X411013Y514126D01*
X410906Y514097D01*
X410798Y514072D01*
X410689Y514051D01*
X410580Y514034D01*
X410470Y514020D01*
X410359Y514011D01*
X410249Y514005D01*
X410138Y514003D01*
X406963Y514003D01*
X417822Y512098D02*
X417824Y512209D01*
X417830Y512319D01*
X417839Y512430D01*
X417853Y512540D01*
X417870Y512649D01*
X417891Y512758D01*
X417916Y512866D01*
X417945Y512973D01*
X417977Y513079D01*
X418013Y513184D01*
X418053Y513287D01*
X418096Y513389D01*
X418143Y513490D01*
X418194Y513589D01*
X418247Y513686D01*
X418304Y513780D01*
X418365Y513873D01*
X418428Y513964D01*
X418495Y514053D01*
X418565Y514139D01*
X418638Y514222D01*
X418713Y514304D01*
X418791Y514382D01*
X418873Y514457D01*
X418956Y514530D01*
X419042Y514600D01*
X419131Y514667D01*
X419222Y514730D01*
X419315Y514791D01*
X419410Y514848D01*
X419506Y514901D01*
X419605Y514952D01*
X419706Y514999D01*
X419808Y515042D01*
X419911Y515082D01*
X420016Y515118D01*
X420122Y515150D01*
X420229Y515179D01*
X420337Y515204D01*
X420446Y515225D01*
X420555Y515242D01*
X420665Y515256D01*
X420776Y515265D01*
X420886Y515271D01*
X420997Y515273D01*
X421108Y515271D01*
X421218Y515265D01*
X421329Y515256D01*
X421439Y515242D01*
X421548Y515225D01*
X421657Y515204D01*
X421765Y515179D01*
X421872Y515150D01*
X421978Y515118D01*
X422083Y515082D01*
X422186Y515042D01*
X422288Y514999D01*
X422389Y514952D01*
X422488Y514901D01*
X422585Y514848D01*
X422679Y514791D01*
X422772Y514730D01*
X422863Y514667D01*
X422952Y514600D01*
X423038Y514530D01*
X423121Y514457D01*
X423203Y514382D01*
X423281Y514304D01*
X423356Y514222D01*
X423429Y514139D01*
X423499Y514053D01*
X423566Y513964D01*
X423629Y513873D01*
X423690Y513780D01*
X423747Y513686D01*
X423800Y513589D01*
X423851Y513490D01*
X423898Y513389D01*
X423941Y513287D01*
X423981Y513184D01*
X424017Y513079D01*
X424049Y512973D01*
X424078Y512866D01*
X424103Y512758D01*
X424124Y512649D01*
X424141Y512540D01*
X424155Y512430D01*
X424164Y512319D01*
X424170Y512209D01*
X424172Y512098D01*
X424170Y511987D01*
X424164Y511877D01*
X424155Y511766D01*
X424141Y511656D01*
X424124Y511547D01*
X424103Y511438D01*
X424078Y511330D01*
X424049Y511223D01*
X424017Y511117D01*
X423981Y511012D01*
X423941Y510909D01*
X423898Y510807D01*
X423851Y510706D01*
X423800Y510607D01*
X423747Y510510D01*
X423690Y510416D01*
X423629Y510323D01*
X423566Y510232D01*
X423499Y510143D01*
X423429Y510057D01*
X423356Y509974D01*
X423281Y509892D01*
X423203Y509814D01*
X423121Y509739D01*
X423038Y509666D01*
X422952Y509596D01*
X422863Y509529D01*
X422772Y509466D01*
X422679Y509405D01*
X422584Y509348D01*
X422488Y509295D01*
X422389Y509244D01*
X422288Y509197D01*
X422186Y509154D01*
X422083Y509114D01*
X421978Y509078D01*
X421872Y509046D01*
X421765Y509017D01*
X421657Y508992D01*
X421548Y508971D01*
X421439Y508954D01*
X421329Y508940D01*
X421218Y508931D01*
X421108Y508925D01*
X420997Y508923D01*
X420886Y508925D01*
X420776Y508931D01*
X420665Y508940D01*
X420555Y508954D01*
X420446Y508971D01*
X420337Y508992D01*
X420229Y509017D01*
X420122Y509046D01*
X420016Y509078D01*
X419911Y509114D01*
X419808Y509154D01*
X419706Y509197D01*
X419605Y509244D01*
X419506Y509295D01*
X419410Y509348D01*
X419315Y509405D01*
X419222Y509466D01*
X419131Y509529D01*
X419042Y509596D01*
X418956Y509666D01*
X418873Y509739D01*
X418791Y509814D01*
X418713Y509892D01*
X418638Y509974D01*
X418565Y510057D01*
X418495Y510143D01*
X418428Y510232D01*
X418365Y510323D01*
X418304Y510416D01*
X418247Y510511D01*
X418194Y510607D01*
X418143Y510706D01*
X418096Y510807D01*
X418053Y510909D01*
X418013Y511012D01*
X417977Y511117D01*
X417945Y511223D01*
X417916Y511330D01*
X417891Y511438D01*
X417870Y511547D01*
X417853Y511656D01*
X417839Y511766D01*
X417830Y511877D01*
X417824Y511987D01*
X417822Y512098D01*
X418457Y517813D02*
X418459Y517913D01*
X418465Y518012D01*
X418475Y518112D01*
X418488Y518210D01*
X418506Y518309D01*
X418527Y518406D01*
X418552Y518502D01*
X418581Y518598D01*
X418614Y518692D01*
X418650Y518785D01*
X418690Y518876D01*
X418734Y518966D01*
X418781Y519054D01*
X418831Y519140D01*
X418885Y519224D01*
X418942Y519306D01*
X419002Y519385D01*
X419066Y519463D01*
X419132Y519537D01*
X419201Y519609D01*
X419273Y519678D01*
X419347Y519744D01*
X419425Y519808D01*
X419504Y519868D01*
X419586Y519925D01*
X419670Y519979D01*
X419756Y520029D01*
X419844Y520076D01*
X419934Y520120D01*
X420025Y520160D01*
X420118Y520196D01*
X420212Y520229D01*
X420308Y520258D01*
X420404Y520283D01*
X420501Y520304D01*
X420600Y520322D01*
X420698Y520335D01*
X420798Y520345D01*
X420897Y520351D01*
X420997Y520353D01*
X421097Y520351D01*
X421196Y520345D01*
X421296Y520335D01*
X421394Y520322D01*
X421493Y520304D01*
X421590Y520283D01*
X421686Y520258D01*
X421782Y520229D01*
X421876Y520196D01*
X421969Y520160D01*
X422060Y520120D01*
X422150Y520076D01*
X422238Y520029D01*
X422324Y519979D01*
X422408Y519925D01*
X422490Y519868D01*
X422569Y519808D01*
X422647Y519744D01*
X422721Y519678D01*
X422793Y519609D01*
X422862Y519537D01*
X422928Y519463D01*
X422992Y519385D01*
X423052Y519306D01*
X423109Y519224D01*
X423163Y519140D01*
X423213Y519054D01*
X423260Y518966D01*
X423304Y518876D01*
X423344Y518785D01*
X423380Y518692D01*
X423413Y518598D01*
X423442Y518502D01*
X423467Y518406D01*
X423488Y518309D01*
X423506Y518210D01*
X423519Y518112D01*
X423529Y518012D01*
X423535Y517913D01*
X423537Y517813D01*
X423535Y517713D01*
X423529Y517614D01*
X423519Y517514D01*
X423506Y517416D01*
X423488Y517317D01*
X423467Y517220D01*
X423442Y517124D01*
X423413Y517028D01*
X423380Y516934D01*
X423344Y516841D01*
X423304Y516750D01*
X423260Y516660D01*
X423213Y516572D01*
X423163Y516486D01*
X423109Y516402D01*
X423052Y516320D01*
X422992Y516241D01*
X422928Y516163D01*
X422862Y516089D01*
X422793Y516017D01*
X422721Y515948D01*
X422647Y515882D01*
X422569Y515818D01*
X422490Y515758D01*
X422408Y515701D01*
X422324Y515647D01*
X422238Y515597D01*
X422150Y515550D01*
X422060Y515506D01*
X421969Y515466D01*
X421876Y515430D01*
X421782Y515397D01*
X421686Y515368D01*
X421590Y515343D01*
X421493Y515322D01*
X421394Y515304D01*
X421296Y515291D01*
X421196Y515281D01*
X421097Y515275D01*
X420997Y515273D01*
X420897Y515275D01*
X420798Y515281D01*
X420698Y515291D01*
X420600Y515304D01*
X420501Y515322D01*
X420404Y515343D01*
X420308Y515368D01*
X420212Y515397D01*
X420118Y515430D01*
X420025Y515466D01*
X419934Y515506D01*
X419844Y515550D01*
X419756Y515597D01*
X419670Y515647D01*
X419586Y515701D01*
X419504Y515758D01*
X419425Y515818D01*
X419347Y515882D01*
X419273Y515948D01*
X419201Y516017D01*
X419132Y516089D01*
X419066Y516163D01*
X419002Y516241D01*
X418942Y516320D01*
X418885Y516402D01*
X418831Y516486D01*
X418781Y516572D01*
X418734Y516660D01*
X418690Y516750D01*
X418650Y516841D01*
X418614Y516934D01*
X418581Y517028D01*
X418552Y517124D01*
X418527Y517220D01*
X418506Y517317D01*
X418488Y517416D01*
X418475Y517514D01*
X418465Y517614D01*
X418459Y517713D01*
X418457Y517813D01*
D13*
X180000Y86000D02*
X180000Y26000D01*
X130000Y26000D02*
X130000Y86000D01*
X149180Y101910D02*
X149182Y101950D01*
X149188Y101989D01*
X149198Y102028D01*
X149211Y102065D01*
X149229Y102101D01*
X149250Y102135D01*
X149274Y102167D01*
X149301Y102196D01*
X149331Y102223D01*
X149363Y102246D01*
X149398Y102266D01*
X149434Y102282D01*
X149472Y102295D01*
X149511Y102304D01*
X149550Y102309D01*
X149590Y102310D01*
X149630Y102307D01*
X149669Y102300D01*
X149707Y102289D01*
X149745Y102275D01*
X149780Y102256D01*
X149813Y102235D01*
X149845Y102210D01*
X149873Y102182D01*
X149899Y102152D01*
X149921Y102119D01*
X149940Y102084D01*
X149956Y102047D01*
X149968Y102009D01*
X149976Y101970D01*
X149980Y101930D01*
X149980Y101890D01*
X149976Y101850D01*
X149968Y101811D01*
X149956Y101773D01*
X149940Y101736D01*
X149921Y101701D01*
X149899Y101668D01*
X149873Y101638D01*
X149845Y101610D01*
X149813Y101585D01*
X149780Y101564D01*
X149745Y101545D01*
X149707Y101531D01*
X149669Y101520D01*
X149630Y101513D01*
X149590Y101510D01*
X149550Y101511D01*
X149511Y101516D01*
X149472Y101525D01*
X149434Y101538D01*
X149398Y101554D01*
X149363Y101574D01*
X149331Y101597D01*
X149301Y101624D01*
X149274Y101653D01*
X149250Y101685D01*
X149229Y101719D01*
X149211Y101755D01*
X149198Y101792D01*
X149188Y101831D01*
X149182Y101870D01*
X149180Y101910D01*
X167350Y86000D02*
X180000Y86000D01*
X142650Y86000D02*
X130000Y86000D01*
X147090Y26000D02*
X162910Y26000D01*
D10*
X155055Y57264D02*
X155055Y66352D01*
X155055Y57264D02*
X155053Y57165D01*
X155047Y57065D01*
X155038Y56966D01*
X155025Y56868D01*
X155008Y56770D01*
X154987Y56672D01*
X154962Y56576D01*
X154934Y56481D01*
X154902Y56387D01*
X154867Y56294D01*
X154828Y56202D01*
X154785Y56112D01*
X154740Y56024D01*
X154690Y55937D01*
X154638Y55853D01*
X154582Y55770D01*
X154524Y55690D01*
X154462Y55612D01*
X154397Y55537D01*
X154329Y55464D01*
X154259Y55394D01*
X154186Y55326D01*
X154111Y55261D01*
X154033Y55199D01*
X153953Y55141D01*
X153870Y55085D01*
X153786Y55033D01*
X153699Y54983D01*
X153611Y54938D01*
X153521Y54895D01*
X153429Y54856D01*
X153336Y54821D01*
X153242Y54789D01*
X153147Y54761D01*
X153051Y54736D01*
X152953Y54715D01*
X152855Y54698D01*
X152757Y54685D01*
X152658Y54676D01*
X152558Y54670D01*
X152459Y54668D01*
X151160Y54668D01*
X163899Y66352D02*
X164006Y66350D01*
X164112Y66344D01*
X164218Y66334D01*
X164324Y66321D01*
X164430Y66303D01*
X164534Y66282D01*
X164638Y66257D01*
X164741Y66228D01*
X164842Y66196D01*
X164942Y66159D01*
X165041Y66119D01*
X165139Y66076D01*
X165235Y66029D01*
X165329Y65978D01*
X165421Y65924D01*
X165511Y65867D01*
X165599Y65807D01*
X165684Y65743D01*
X165767Y65676D01*
X165848Y65606D01*
X165926Y65534D01*
X166002Y65458D01*
X166074Y65380D01*
X166144Y65299D01*
X166211Y65216D01*
X166275Y65131D01*
X166335Y65043D01*
X166392Y64953D01*
X166446Y64861D01*
X166497Y64767D01*
X166544Y64671D01*
X166587Y64573D01*
X166627Y64474D01*
X166664Y64374D01*
X166696Y64273D01*
X166725Y64170D01*
X166750Y64066D01*
X166771Y63962D01*
X166789Y63856D01*
X166802Y63750D01*
X166812Y63644D01*
X166818Y63538D01*
X166820Y63431D01*
X163899Y66352D02*
X163778Y66350D01*
X163657Y66344D01*
X163537Y66334D01*
X163416Y66321D01*
X163297Y66303D01*
X163177Y66282D01*
X163059Y66257D01*
X162942Y66228D01*
X162825Y66195D01*
X162710Y66159D01*
X162596Y66118D01*
X162483Y66075D01*
X162371Y66027D01*
X162262Y65976D01*
X162154Y65921D01*
X162047Y65863D01*
X161943Y65802D01*
X161841Y65737D01*
X161741Y65669D01*
X161643Y65598D01*
X161547Y65524D01*
X161454Y65447D01*
X161364Y65366D01*
X161276Y65283D01*
X161191Y65197D01*
X161108Y65108D01*
X161029Y65017D01*
X160952Y64923D01*
X160879Y64827D01*
X160809Y64729D01*
X160742Y64628D01*
X160678Y64525D01*
X160618Y64420D01*
X160561Y64313D01*
X160507Y64205D01*
X160457Y64095D01*
X160411Y63983D01*
X160368Y63870D01*
X160329Y63755D01*
X165846Y61159D02*
X165925Y61236D01*
X166001Y61317D01*
X166074Y61400D01*
X166144Y61485D01*
X166211Y61573D01*
X166275Y61663D01*
X166335Y61755D01*
X166392Y61850D01*
X166446Y61946D01*
X166497Y62044D01*
X166544Y62144D01*
X166588Y62246D01*
X166628Y62349D01*
X166664Y62453D01*
X166696Y62559D01*
X166725Y62665D01*
X166750Y62773D01*
X166772Y62881D01*
X166789Y62991D01*
X166803Y63100D01*
X166812Y63210D01*
X166818Y63321D01*
X166820Y63431D01*
X165846Y61159D02*
X160328Y54668D01*
X166820Y54668D01*
D13*
X46000Y425000D02*
X-14000Y425000D01*
X-14000Y475000D02*
X46000Y475000D01*
X61510Y455420D02*
X61512Y455460D01*
X61518Y455499D01*
X61528Y455538D01*
X61541Y455575D01*
X61559Y455611D01*
X61580Y455645D01*
X61604Y455677D01*
X61631Y455706D01*
X61661Y455733D01*
X61693Y455756D01*
X61728Y455776D01*
X61764Y455792D01*
X61802Y455805D01*
X61841Y455814D01*
X61880Y455819D01*
X61920Y455820D01*
X61960Y455817D01*
X61999Y455810D01*
X62037Y455799D01*
X62075Y455785D01*
X62110Y455766D01*
X62143Y455745D01*
X62175Y455720D01*
X62203Y455692D01*
X62229Y455662D01*
X62251Y455629D01*
X62270Y455594D01*
X62286Y455557D01*
X62298Y455519D01*
X62306Y455480D01*
X62310Y455440D01*
X62310Y455400D01*
X62306Y455360D01*
X62298Y455321D01*
X62286Y455283D01*
X62270Y455246D01*
X62251Y455211D01*
X62229Y455178D01*
X62203Y455148D01*
X62175Y455120D01*
X62143Y455095D01*
X62110Y455074D01*
X62075Y455055D01*
X62037Y455041D01*
X61999Y455030D01*
X61960Y455023D01*
X61920Y455020D01*
X61880Y455021D01*
X61841Y455026D01*
X61802Y455035D01*
X61764Y455048D01*
X61728Y455064D01*
X61693Y455084D01*
X61661Y455107D01*
X61631Y455134D01*
X61604Y455163D01*
X61580Y455195D01*
X61559Y455229D01*
X61541Y455265D01*
X61528Y455302D01*
X61518Y455341D01*
X61512Y455380D01*
X61510Y455420D01*
X46000Y437650D02*
X46000Y425000D01*
X46000Y462350D02*
X46000Y475000D01*
X-14000Y457910D02*
X-14000Y442090D01*
D10*
X14668Y442075D02*
X23756Y442075D01*
X23855Y442073D01*
X23955Y442067D01*
X24054Y442058D01*
X24152Y442045D01*
X24250Y442028D01*
X24348Y442007D01*
X24444Y441982D01*
X24539Y441954D01*
X24633Y441922D01*
X24726Y441887D01*
X24818Y441848D01*
X24908Y441805D01*
X24996Y441760D01*
X25083Y441710D01*
X25167Y441658D01*
X25250Y441602D01*
X25330Y441544D01*
X25408Y441482D01*
X25483Y441417D01*
X25556Y441349D01*
X25626Y441279D01*
X25694Y441206D01*
X25759Y441131D01*
X25821Y441053D01*
X25879Y440973D01*
X25935Y440890D01*
X25987Y440806D01*
X26037Y440719D01*
X26082Y440631D01*
X26125Y440541D01*
X26164Y440449D01*
X26199Y440356D01*
X26231Y440262D01*
X26259Y440167D01*
X26284Y440071D01*
X26305Y439973D01*
X26322Y439875D01*
X26335Y439777D01*
X26344Y439678D01*
X26350Y439578D01*
X26352Y439479D01*
X26352Y438180D01*
X26352Y447349D02*
X26352Y450594D01*
X26350Y450707D01*
X26344Y450820D01*
X26334Y450933D01*
X26320Y451046D01*
X26303Y451158D01*
X26281Y451269D01*
X26256Y451379D01*
X26226Y451489D01*
X26193Y451597D01*
X26156Y451704D01*
X26116Y451810D01*
X26071Y451914D01*
X26023Y452017D01*
X25972Y452118D01*
X25917Y452217D01*
X25859Y452314D01*
X25797Y452409D01*
X25732Y452502D01*
X25664Y452592D01*
X25593Y452680D01*
X25518Y452766D01*
X25441Y452849D01*
X25361Y452929D01*
X25278Y453006D01*
X25192Y453081D01*
X25104Y453152D01*
X25014Y453220D01*
X24921Y453285D01*
X24826Y453347D01*
X24729Y453405D01*
X24630Y453460D01*
X24529Y453511D01*
X24426Y453559D01*
X24322Y453604D01*
X24216Y453644D01*
X24109Y453681D01*
X24001Y453714D01*
X23891Y453744D01*
X23781Y453769D01*
X23670Y453791D01*
X23558Y453808D01*
X23445Y453822D01*
X23332Y453832D01*
X23219Y453838D01*
X23106Y453840D01*
X22993Y453838D01*
X22880Y453832D01*
X22767Y453822D01*
X22654Y453808D01*
X22542Y453791D01*
X22431Y453769D01*
X22321Y453744D01*
X22211Y453714D01*
X22103Y453681D01*
X21996Y453644D01*
X21890Y453604D01*
X21786Y453559D01*
X21683Y453511D01*
X21582Y453460D01*
X21483Y453405D01*
X21386Y453347D01*
X21291Y453285D01*
X21198Y453220D01*
X21108Y453152D01*
X21020Y453081D01*
X20934Y453006D01*
X20851Y452929D01*
X20771Y452849D01*
X20694Y452766D01*
X20619Y452680D01*
X20548Y452592D01*
X20480Y452502D01*
X20415Y452409D01*
X20353Y452314D01*
X20295Y452217D01*
X20240Y452118D01*
X20189Y452017D01*
X20141Y451914D01*
X20096Y451810D01*
X20056Y451704D01*
X20019Y451597D01*
X19986Y451489D01*
X19956Y451379D01*
X19931Y451269D01*
X19909Y451158D01*
X19892Y451046D01*
X19878Y450933D01*
X19868Y450820D01*
X19862Y450707D01*
X19860Y450594D01*
X14668Y451243D02*
X14668Y447349D01*
X14668Y451243D02*
X14670Y451344D01*
X14676Y451444D01*
X14686Y451544D01*
X14699Y451644D01*
X14717Y451743D01*
X14738Y451842D01*
X14763Y451939D01*
X14792Y452036D01*
X14825Y452131D01*
X14861Y452225D01*
X14901Y452317D01*
X14944Y452408D01*
X14991Y452497D01*
X15041Y452584D01*
X15095Y452670D01*
X15152Y452753D01*
X15212Y452833D01*
X15275Y452912D01*
X15342Y452988D01*
X15411Y453061D01*
X15483Y453131D01*
X15557Y453199D01*
X15634Y453264D01*
X15714Y453325D01*
X15796Y453384D01*
X15880Y453439D01*
X15966Y453491D01*
X16054Y453540D01*
X16144Y453585D01*
X16236Y453627D01*
X16329Y453665D01*
X16424Y453699D01*
X16519Y453730D01*
X16616Y453757D01*
X16714Y453780D01*
X16813Y453800D01*
X16913Y453815D01*
X17013Y453827D01*
X17113Y453835D01*
X17214Y453839D01*
X17314Y453839D01*
X17415Y453835D01*
X17515Y453827D01*
X17615Y453815D01*
X17715Y453800D01*
X17814Y453780D01*
X17912Y453757D01*
X18009Y453730D01*
X18104Y453699D01*
X18199Y453665D01*
X18292Y453627D01*
X18384Y453585D01*
X18474Y453540D01*
X18562Y453491D01*
X18648Y453439D01*
X18732Y453384D01*
X18814Y453325D01*
X18894Y453264D01*
X18971Y453199D01*
X19045Y453131D01*
X19117Y453061D01*
X19186Y452988D01*
X19253Y452912D01*
X19316Y452833D01*
X19376Y452753D01*
X19433Y452670D01*
X19487Y452584D01*
X19537Y452497D01*
X19584Y452408D01*
X19627Y452317D01*
X19667Y452225D01*
X19703Y452131D01*
X19736Y452036D01*
X19765Y451939D01*
X19790Y451842D01*
X19811Y451743D01*
X19829Y451644D01*
X19842Y451544D01*
X19852Y451444D01*
X19858Y451344D01*
X19860Y451243D01*
X19861Y451243D02*
X19861Y448647D01*
D11*
X18650Y247700D02*
X31350Y247700D01*
X37700Y241350D01*
X37700Y228650D01*
X31350Y222300D01*
X12300Y228650D02*
X12300Y241350D01*
X18650Y247700D01*
X12300Y228650D02*
X18650Y222300D01*
X31350Y222300D01*
D12*
X15983Y256463D02*
X15983Y265353D01*
X15983Y256463D02*
X15981Y256363D01*
X15975Y256264D01*
X15965Y256164D01*
X15952Y256066D01*
X15934Y255967D01*
X15913Y255870D01*
X15888Y255774D01*
X15859Y255678D01*
X15826Y255584D01*
X15790Y255491D01*
X15750Y255400D01*
X15706Y255310D01*
X15659Y255222D01*
X15609Y255136D01*
X15555Y255052D01*
X15498Y254970D01*
X15438Y254891D01*
X15374Y254813D01*
X15308Y254739D01*
X15239Y254667D01*
X15167Y254598D01*
X15093Y254532D01*
X15015Y254468D01*
X14936Y254408D01*
X14854Y254351D01*
X14770Y254297D01*
X14684Y254247D01*
X14596Y254200D01*
X14506Y254156D01*
X14415Y254116D01*
X14322Y254080D01*
X14228Y254047D01*
X14132Y254018D01*
X14036Y253993D01*
X13939Y253972D01*
X13840Y253954D01*
X13742Y253941D01*
X13642Y253931D01*
X13543Y253925D01*
X13443Y253923D01*
X12173Y253923D01*
X21963Y253923D02*
X21963Y265353D01*
X25138Y265353D01*
X25249Y265351D01*
X25359Y265345D01*
X25470Y265336D01*
X25580Y265322D01*
X25689Y265305D01*
X25798Y265284D01*
X25906Y265259D01*
X26013Y265230D01*
X26119Y265198D01*
X26224Y265162D01*
X26327Y265122D01*
X26429Y265079D01*
X26530Y265032D01*
X26629Y264981D01*
X26726Y264928D01*
X26820Y264871D01*
X26913Y264810D01*
X27004Y264747D01*
X27093Y264680D01*
X27179Y264610D01*
X27262Y264537D01*
X27344Y264462D01*
X27422Y264384D01*
X27497Y264302D01*
X27570Y264219D01*
X27640Y264133D01*
X27707Y264044D01*
X27770Y263953D01*
X27831Y263860D01*
X27888Y263765D01*
X27941Y263669D01*
X27992Y263570D01*
X28039Y263469D01*
X28082Y263367D01*
X28122Y263264D01*
X28158Y263159D01*
X28190Y263053D01*
X28219Y262946D01*
X28244Y262838D01*
X28265Y262729D01*
X28282Y262620D01*
X28296Y262510D01*
X28305Y262399D01*
X28311Y262289D01*
X28313Y262178D01*
X28311Y262067D01*
X28305Y261957D01*
X28296Y261846D01*
X28282Y261736D01*
X28265Y261627D01*
X28244Y261518D01*
X28219Y261410D01*
X28190Y261303D01*
X28158Y261197D01*
X28122Y261092D01*
X28082Y260989D01*
X28039Y260887D01*
X27992Y260786D01*
X27941Y260687D01*
X27888Y260590D01*
X27831Y260496D01*
X27770Y260403D01*
X27707Y260312D01*
X27640Y260223D01*
X27570Y260137D01*
X27497Y260054D01*
X27422Y259972D01*
X27344Y259894D01*
X27262Y259819D01*
X27179Y259746D01*
X27093Y259676D01*
X27004Y259609D01*
X26913Y259546D01*
X26820Y259485D01*
X26725Y259428D01*
X26629Y259375D01*
X26530Y259324D01*
X26429Y259277D01*
X26327Y259234D01*
X26224Y259194D01*
X26119Y259158D01*
X26013Y259126D01*
X25906Y259097D01*
X25798Y259072D01*
X25689Y259051D01*
X25580Y259034D01*
X25470Y259020D01*
X25359Y259011D01*
X25249Y259005D01*
X25138Y259003D01*
X21963Y259003D01*
X35362Y259003D02*
X39172Y259003D01*
X35362Y259003D02*
X35262Y259005D01*
X35163Y259011D01*
X35063Y259021D01*
X34965Y259034D01*
X34866Y259052D01*
X34769Y259073D01*
X34673Y259098D01*
X34577Y259127D01*
X34483Y259160D01*
X34390Y259196D01*
X34299Y259236D01*
X34209Y259280D01*
X34121Y259327D01*
X34035Y259377D01*
X33951Y259431D01*
X33869Y259488D01*
X33790Y259548D01*
X33712Y259612D01*
X33638Y259678D01*
X33566Y259747D01*
X33497Y259819D01*
X33431Y259893D01*
X33367Y259971D01*
X33307Y260050D01*
X33250Y260132D01*
X33196Y260216D01*
X33146Y260302D01*
X33099Y260390D01*
X33055Y260480D01*
X33015Y260571D01*
X32979Y260664D01*
X32946Y260758D01*
X32917Y260854D01*
X32892Y260950D01*
X32871Y261047D01*
X32853Y261146D01*
X32840Y261244D01*
X32830Y261344D01*
X32824Y261443D01*
X32822Y261543D01*
X32822Y262178D01*
X32824Y262289D01*
X32830Y262399D01*
X32839Y262510D01*
X32853Y262620D01*
X32870Y262729D01*
X32891Y262838D01*
X32916Y262946D01*
X32945Y263053D01*
X32977Y263159D01*
X33013Y263264D01*
X33053Y263367D01*
X33096Y263469D01*
X33143Y263570D01*
X33194Y263669D01*
X33247Y263766D01*
X33304Y263860D01*
X33365Y263953D01*
X33428Y264044D01*
X33495Y264133D01*
X33565Y264219D01*
X33638Y264302D01*
X33713Y264384D01*
X33791Y264462D01*
X33873Y264537D01*
X33956Y264610D01*
X34042Y264680D01*
X34131Y264747D01*
X34222Y264810D01*
X34315Y264871D01*
X34409Y264928D01*
X34506Y264981D01*
X34605Y265032D01*
X34706Y265079D01*
X34808Y265122D01*
X34911Y265162D01*
X35016Y265198D01*
X35122Y265230D01*
X35229Y265259D01*
X35337Y265284D01*
X35446Y265305D01*
X35555Y265322D01*
X35665Y265336D01*
X35776Y265345D01*
X35886Y265351D01*
X35997Y265353D01*
X36108Y265351D01*
X36218Y265345D01*
X36329Y265336D01*
X36439Y265322D01*
X36548Y265305D01*
X36657Y265284D01*
X36765Y265259D01*
X36872Y265230D01*
X36978Y265198D01*
X37083Y265162D01*
X37186Y265122D01*
X37288Y265079D01*
X37389Y265032D01*
X37488Y264981D01*
X37585Y264928D01*
X37679Y264871D01*
X37772Y264810D01*
X37863Y264747D01*
X37952Y264680D01*
X38038Y264610D01*
X38121Y264537D01*
X38203Y264462D01*
X38281Y264384D01*
X38356Y264302D01*
X38429Y264219D01*
X38499Y264133D01*
X38566Y264044D01*
X38629Y263953D01*
X38690Y263860D01*
X38747Y263766D01*
X38800Y263669D01*
X38851Y263570D01*
X38898Y263469D01*
X38941Y263367D01*
X38981Y263264D01*
X39017Y263159D01*
X39049Y263053D01*
X39078Y262946D01*
X39103Y262838D01*
X39124Y262729D01*
X39141Y262620D01*
X39155Y262510D01*
X39164Y262399D01*
X39170Y262289D01*
X39172Y262178D01*
X39172Y259003D01*
X39170Y258863D01*
X39164Y258723D01*
X39155Y258583D01*
X39141Y258444D01*
X39124Y258305D01*
X39103Y258167D01*
X39078Y258029D01*
X39049Y257892D01*
X39017Y257756D01*
X38980Y257621D01*
X38940Y257487D01*
X38897Y257354D01*
X38849Y257222D01*
X38799Y257091D01*
X38744Y256962D01*
X38686Y256835D01*
X38625Y256709D01*
X38560Y256585D01*
X38491Y256463D01*
X38420Y256343D01*
X38345Y256225D01*
X38267Y256108D01*
X38185Y255994D01*
X38101Y255883D01*
X38013Y255774D01*
X37923Y255667D01*
X37829Y255562D01*
X37733Y255461D01*
X37634Y255362D01*
X37533Y255266D01*
X37428Y255172D01*
X37321Y255082D01*
X37212Y254994D01*
X37101Y254910D01*
X36987Y254828D01*
X36870Y254750D01*
X36752Y254675D01*
X36632Y254604D01*
X36510Y254535D01*
X36386Y254470D01*
X36260Y254409D01*
X36133Y254351D01*
X36004Y254296D01*
X35873Y254246D01*
X35741Y254198D01*
X35608Y254155D01*
X35474Y254115D01*
X35339Y254078D01*
X35203Y254046D01*
X35066Y254017D01*
X34928Y253992D01*
X34790Y253971D01*
X34651Y253954D01*
X34512Y253940D01*
X34372Y253931D01*
X34232Y253925D01*
X34092Y253923D01*
D11*
X21350Y517700D02*
X8650Y517700D01*
X21350Y517700D02*
X27700Y511350D01*
X27700Y498650D01*
X21350Y492300D01*
X2300Y498650D02*
X2300Y511350D01*
X8650Y517700D01*
X2300Y498650D02*
X8650Y492300D01*
X21350Y492300D01*
D12*
X5983Y526463D02*
X5983Y535353D01*
X5983Y526463D02*
X5981Y526363D01*
X5975Y526264D01*
X5965Y526164D01*
X5952Y526066D01*
X5934Y525967D01*
X5913Y525870D01*
X5888Y525774D01*
X5859Y525678D01*
X5826Y525584D01*
X5790Y525491D01*
X5750Y525400D01*
X5706Y525310D01*
X5659Y525222D01*
X5609Y525136D01*
X5555Y525052D01*
X5498Y524970D01*
X5438Y524891D01*
X5374Y524813D01*
X5308Y524739D01*
X5239Y524667D01*
X5167Y524598D01*
X5093Y524532D01*
X5015Y524468D01*
X4936Y524408D01*
X4854Y524351D01*
X4770Y524297D01*
X4684Y524247D01*
X4596Y524200D01*
X4506Y524156D01*
X4415Y524116D01*
X4322Y524080D01*
X4228Y524047D01*
X4132Y524018D01*
X4036Y523993D01*
X3939Y523972D01*
X3840Y523954D01*
X3742Y523941D01*
X3642Y523931D01*
X3543Y523925D01*
X3443Y523923D01*
X2173Y523923D01*
X11963Y523923D02*
X11963Y535353D01*
X15138Y535353D01*
X15249Y535351D01*
X15359Y535345D01*
X15470Y535336D01*
X15580Y535322D01*
X15689Y535305D01*
X15798Y535284D01*
X15906Y535259D01*
X16013Y535230D01*
X16119Y535198D01*
X16224Y535162D01*
X16327Y535122D01*
X16429Y535079D01*
X16530Y535032D01*
X16629Y534981D01*
X16726Y534928D01*
X16820Y534871D01*
X16913Y534810D01*
X17004Y534747D01*
X17093Y534680D01*
X17179Y534610D01*
X17262Y534537D01*
X17344Y534462D01*
X17422Y534384D01*
X17497Y534302D01*
X17570Y534219D01*
X17640Y534133D01*
X17707Y534044D01*
X17770Y533953D01*
X17831Y533860D01*
X17888Y533765D01*
X17941Y533669D01*
X17992Y533570D01*
X18039Y533469D01*
X18082Y533367D01*
X18122Y533264D01*
X18158Y533159D01*
X18190Y533053D01*
X18219Y532946D01*
X18244Y532838D01*
X18265Y532729D01*
X18282Y532620D01*
X18296Y532510D01*
X18305Y532399D01*
X18311Y532289D01*
X18313Y532178D01*
X18311Y532067D01*
X18305Y531957D01*
X18296Y531846D01*
X18282Y531736D01*
X18265Y531627D01*
X18244Y531518D01*
X18219Y531410D01*
X18190Y531303D01*
X18158Y531197D01*
X18122Y531092D01*
X18082Y530989D01*
X18039Y530887D01*
X17992Y530786D01*
X17941Y530687D01*
X17888Y530591D01*
X17831Y530496D01*
X17770Y530403D01*
X17707Y530312D01*
X17640Y530223D01*
X17570Y530137D01*
X17497Y530054D01*
X17422Y529972D01*
X17344Y529894D01*
X17262Y529819D01*
X17179Y529746D01*
X17093Y529676D01*
X17004Y529609D01*
X16913Y529546D01*
X16820Y529485D01*
X16725Y529428D01*
X16629Y529375D01*
X16530Y529324D01*
X16429Y529277D01*
X16327Y529234D01*
X16224Y529194D01*
X16119Y529158D01*
X16013Y529126D01*
X15906Y529097D01*
X15798Y529072D01*
X15689Y529051D01*
X15580Y529034D01*
X15470Y529020D01*
X15359Y529011D01*
X15249Y529005D01*
X15138Y529003D01*
X11963Y529003D01*
X22822Y532813D02*
X25997Y535353D01*
X25997Y523923D01*
X22822Y523923D02*
X29172Y523923D01*
X34252Y529638D02*
X34255Y529863D01*
X34263Y530088D01*
X34276Y530312D01*
X34295Y530536D01*
X34319Y530760D01*
X34348Y530983D01*
X34383Y531205D01*
X34423Y531426D01*
X34469Y531646D01*
X34519Y531865D01*
X34575Y532083D01*
X34636Y532300D01*
X34702Y532515D01*
X34773Y532728D01*
X34850Y532939D01*
X34931Y533149D01*
X35017Y533357D01*
X35108Y533562D01*
X35204Y533765D01*
X35204Y533766D02*
X35236Y533854D01*
X35272Y533941D01*
X35311Y534027D01*
X35354Y534111D01*
X35400Y534193D01*
X35449Y534273D01*
X35501Y534351D01*
X35557Y534427D01*
X35615Y534501D01*
X35677Y534572D01*
X35741Y534641D01*
X35808Y534707D01*
X35877Y534770D01*
X35949Y534831D01*
X36023Y534889D01*
X36100Y534943D01*
X36178Y534995D01*
X36259Y535043D01*
X36341Y535088D01*
X36426Y535130D01*
X36512Y535168D01*
X36599Y535203D01*
X36687Y535235D01*
X36777Y535262D01*
X36868Y535287D01*
X36960Y535307D01*
X37052Y535324D01*
X37146Y535337D01*
X37239Y535346D01*
X37333Y535352D01*
X37427Y535354D01*
X37521Y535352D01*
X37615Y535346D01*
X37708Y535337D01*
X37802Y535324D01*
X37894Y535307D01*
X37986Y535287D01*
X38077Y535262D01*
X38167Y535235D01*
X38255Y535203D01*
X38342Y535168D01*
X38428Y535130D01*
X38513Y535088D01*
X38595Y535043D01*
X38676Y534995D01*
X38754Y534943D01*
X38831Y534889D01*
X38905Y534831D01*
X38977Y534770D01*
X39046Y534707D01*
X39113Y534641D01*
X39177Y534572D01*
X39239Y534501D01*
X39297Y534427D01*
X39353Y534351D01*
X39405Y534273D01*
X39454Y534193D01*
X39500Y534111D01*
X39543Y534027D01*
X39582Y533941D01*
X39618Y533854D01*
X39650Y533766D01*
X39650Y533765D02*
X39746Y533562D01*
X39837Y533357D01*
X39923Y533149D01*
X40004Y532939D01*
X40081Y532728D01*
X40152Y532515D01*
X40218Y532300D01*
X40279Y532083D01*
X40335Y531865D01*
X40385Y531646D01*
X40431Y531426D01*
X40471Y531205D01*
X40506Y530983D01*
X40535Y530760D01*
X40559Y530536D01*
X40578Y530312D01*
X40591Y530088D01*
X40599Y529863D01*
X40602Y529638D01*
X34252Y529638D02*
X34255Y529413D01*
X34263Y529188D01*
X34276Y528964D01*
X34295Y528740D01*
X34319Y528516D01*
X34348Y528293D01*
X34383Y528071D01*
X34423Y527850D01*
X34469Y527630D01*
X34519Y527411D01*
X34575Y527193D01*
X34636Y526976D01*
X34702Y526761D01*
X34773Y526548D01*
X34850Y526337D01*
X34931Y526127D01*
X35017Y525919D01*
X35108Y525714D01*
X35204Y525511D01*
X35236Y525423D01*
X35272Y525336D01*
X35311Y525250D01*
X35354Y525166D01*
X35400Y525084D01*
X35449Y525004D01*
X35501Y524926D01*
X35557Y524850D01*
X35615Y524776D01*
X35677Y524705D01*
X35741Y524636D01*
X35808Y524570D01*
X35877Y524507D01*
X35949Y524446D01*
X36023Y524388D01*
X36100Y524334D01*
X36178Y524282D01*
X36259Y524234D01*
X36341Y524189D01*
X36426Y524147D01*
X36512Y524109D01*
X36599Y524074D01*
X36687Y524042D01*
X36777Y524015D01*
X36868Y523990D01*
X36960Y523970D01*
X37052Y523953D01*
X37146Y523940D01*
X37239Y523931D01*
X37333Y523925D01*
X37427Y523923D01*
X39650Y525511D02*
X39746Y525714D01*
X39837Y525919D01*
X39923Y526127D01*
X40004Y526337D01*
X40081Y526548D01*
X40152Y526761D01*
X40218Y526976D01*
X40279Y527193D01*
X40335Y527411D01*
X40385Y527630D01*
X40431Y527850D01*
X40471Y528071D01*
X40506Y528293D01*
X40535Y528516D01*
X40559Y528740D01*
X40578Y528964D01*
X40591Y529188D01*
X40599Y529413D01*
X40602Y529638D01*
X39650Y525511D02*
X39618Y525423D01*
X39582Y525336D01*
X39543Y525250D01*
X39500Y525166D01*
X39454Y525084D01*
X39405Y525004D01*
X39353Y524926D01*
X39297Y524850D01*
X39239Y524776D01*
X39177Y524705D01*
X39113Y524636D01*
X39046Y524570D01*
X38977Y524507D01*
X38905Y524446D01*
X38831Y524388D01*
X38754Y524334D01*
X38676Y524282D01*
X38595Y524234D01*
X38513Y524189D01*
X38428Y524147D01*
X38342Y524109D01*
X38255Y524074D01*
X38167Y524042D01*
X38077Y524015D01*
X37986Y523990D01*
X37894Y523970D01*
X37802Y523953D01*
X37708Y523940D01*
X37615Y523931D01*
X37521Y523925D01*
X37427Y523923D01*
X34887Y526463D02*
X39967Y532813D01*
M02*
