G04 EAGLE Gerber RS-274X export*
G75*
%MOMM*%
%FSLAX34Y34*%
%LPD*%
%INSilkscreen Top*%
%IPPOS*%
%AMOC8*
5,1,8,0,0,1.08239X$1,22.5*%
G01*
%ADD10C,0.101600*%
%ADD11C,0.152400*%
%ADD12C,0.127000*%
%ADD13C,0.200000*%
%ADD14C,0.100000*%
%ADD15C,0.200000*%


D10*
X28801Y252008D02*
X28801Y255254D01*
X28800Y255254D02*
X28802Y255367D01*
X28808Y255480D01*
X28818Y255593D01*
X28832Y255706D01*
X28849Y255818D01*
X28871Y255929D01*
X28896Y256039D01*
X28926Y256149D01*
X28959Y256257D01*
X28996Y256364D01*
X29036Y256470D01*
X29081Y256574D01*
X29129Y256677D01*
X29180Y256778D01*
X29235Y256877D01*
X29293Y256974D01*
X29355Y257069D01*
X29420Y257162D01*
X29488Y257252D01*
X29559Y257340D01*
X29634Y257426D01*
X29711Y257509D01*
X29791Y257589D01*
X29874Y257666D01*
X29960Y257741D01*
X30048Y257812D01*
X30138Y257880D01*
X30231Y257945D01*
X30326Y258007D01*
X30423Y258065D01*
X30522Y258120D01*
X30623Y258171D01*
X30726Y258219D01*
X30830Y258264D01*
X30936Y258304D01*
X31043Y258341D01*
X31151Y258374D01*
X31261Y258404D01*
X31371Y258429D01*
X31482Y258451D01*
X31594Y258468D01*
X31707Y258482D01*
X31820Y258492D01*
X31933Y258498D01*
X32046Y258500D01*
X32159Y258498D01*
X32272Y258492D01*
X32385Y258482D01*
X32498Y258468D01*
X32610Y258451D01*
X32721Y258429D01*
X32831Y258404D01*
X32941Y258374D01*
X33049Y258341D01*
X33156Y258304D01*
X33262Y258264D01*
X33366Y258219D01*
X33469Y258171D01*
X33570Y258120D01*
X33669Y258065D01*
X33766Y258007D01*
X33861Y257945D01*
X33954Y257880D01*
X34044Y257812D01*
X34132Y257741D01*
X34218Y257666D01*
X34301Y257589D01*
X34381Y257509D01*
X34458Y257426D01*
X34533Y257340D01*
X34604Y257252D01*
X34672Y257162D01*
X34737Y257069D01*
X34799Y256974D01*
X34857Y256877D01*
X34912Y256778D01*
X34963Y256677D01*
X35011Y256574D01*
X35056Y256470D01*
X35096Y256364D01*
X35133Y256257D01*
X35166Y256149D01*
X35196Y256039D01*
X35221Y255929D01*
X35243Y255818D01*
X35260Y255706D01*
X35274Y255593D01*
X35284Y255480D01*
X35290Y255367D01*
X35292Y255254D01*
X35292Y252008D01*
X23608Y252008D01*
X23608Y255254D01*
X23610Y255355D01*
X23616Y255455D01*
X23626Y255555D01*
X23639Y255655D01*
X23657Y255754D01*
X23678Y255853D01*
X23703Y255950D01*
X23732Y256047D01*
X23765Y256142D01*
X23801Y256236D01*
X23841Y256328D01*
X23884Y256419D01*
X23931Y256508D01*
X23981Y256595D01*
X24035Y256681D01*
X24092Y256764D01*
X24152Y256844D01*
X24215Y256923D01*
X24282Y256999D01*
X24351Y257072D01*
X24423Y257142D01*
X24497Y257210D01*
X24574Y257275D01*
X24654Y257336D01*
X24736Y257395D01*
X24820Y257450D01*
X24906Y257502D01*
X24994Y257551D01*
X25084Y257596D01*
X25176Y257638D01*
X25269Y257676D01*
X25364Y257710D01*
X25459Y257741D01*
X25556Y257768D01*
X25654Y257791D01*
X25753Y257811D01*
X25853Y257826D01*
X25953Y257838D01*
X26053Y257846D01*
X26154Y257850D01*
X26254Y257850D01*
X26355Y257846D01*
X26455Y257838D01*
X26555Y257826D01*
X26655Y257811D01*
X26754Y257791D01*
X26852Y257768D01*
X26949Y257741D01*
X27044Y257710D01*
X27139Y257676D01*
X27232Y257638D01*
X27324Y257596D01*
X27414Y257551D01*
X27502Y257502D01*
X27588Y257450D01*
X27672Y257395D01*
X27754Y257336D01*
X27834Y257275D01*
X27911Y257210D01*
X27985Y257142D01*
X28057Y257072D01*
X28126Y256999D01*
X28193Y256923D01*
X28256Y256844D01*
X28316Y256764D01*
X28373Y256681D01*
X28427Y256595D01*
X28477Y256508D01*
X28524Y256419D01*
X28567Y256328D01*
X28607Y256236D01*
X28643Y256142D01*
X28676Y256047D01*
X28705Y255950D01*
X28730Y255853D01*
X28751Y255754D01*
X28769Y255655D01*
X28782Y255555D01*
X28792Y255455D01*
X28798Y255355D01*
X28800Y255254D01*
X26204Y262888D02*
X23608Y266133D01*
X35292Y266133D01*
X35292Y262888D02*
X35292Y269379D01*
X326504Y265308D02*
X329101Y265308D01*
X326504Y265308D02*
X326405Y265310D01*
X326305Y265316D01*
X326206Y265325D01*
X326108Y265338D01*
X326010Y265355D01*
X325912Y265376D01*
X325816Y265401D01*
X325721Y265429D01*
X325627Y265461D01*
X325534Y265496D01*
X325442Y265535D01*
X325352Y265578D01*
X325264Y265623D01*
X325177Y265673D01*
X325093Y265725D01*
X325010Y265781D01*
X324930Y265839D01*
X324852Y265901D01*
X324777Y265966D01*
X324704Y266034D01*
X324634Y266104D01*
X324566Y266177D01*
X324501Y266252D01*
X324439Y266330D01*
X324381Y266410D01*
X324325Y266493D01*
X324273Y266577D01*
X324223Y266664D01*
X324178Y266752D01*
X324135Y266842D01*
X324096Y266934D01*
X324061Y267027D01*
X324029Y267121D01*
X324001Y267216D01*
X323976Y267312D01*
X323955Y267410D01*
X323938Y267508D01*
X323925Y267606D01*
X323916Y267705D01*
X323910Y267805D01*
X323908Y267904D01*
X323908Y274396D01*
X323910Y274495D01*
X323916Y274595D01*
X323925Y274694D01*
X323938Y274792D01*
X323955Y274890D01*
X323976Y274988D01*
X324001Y275084D01*
X324029Y275179D01*
X324061Y275273D01*
X324096Y275366D01*
X324135Y275458D01*
X324178Y275548D01*
X324223Y275636D01*
X324273Y275723D01*
X324325Y275807D01*
X324381Y275890D01*
X324439Y275970D01*
X324501Y276048D01*
X324566Y276123D01*
X324634Y276196D01*
X324704Y276266D01*
X324777Y276334D01*
X324852Y276399D01*
X324930Y276461D01*
X325010Y276519D01*
X325093Y276575D01*
X325177Y276627D01*
X325264Y276677D01*
X325352Y276722D01*
X325442Y276765D01*
X325534Y276804D01*
X325626Y276839D01*
X325721Y276871D01*
X325816Y276899D01*
X325912Y276924D01*
X326010Y276945D01*
X326108Y276962D01*
X326206Y276975D01*
X326305Y276984D01*
X326405Y276990D01*
X326504Y276992D01*
X329101Y276992D01*
X333466Y274396D02*
X336712Y276992D01*
X336712Y265308D01*
X339957Y265308D02*
X333466Y265308D01*
X344896Y267904D02*
X347493Y276992D01*
X344896Y267904D02*
X351387Y267904D01*
X349440Y270501D02*
X349440Y265308D01*
X373992Y282509D02*
X373992Y285106D01*
X373992Y282509D02*
X373990Y282410D01*
X373984Y282310D01*
X373975Y282211D01*
X373962Y282113D01*
X373945Y282015D01*
X373924Y281917D01*
X373899Y281821D01*
X373871Y281726D01*
X373839Y281632D01*
X373804Y281539D01*
X373765Y281447D01*
X373722Y281357D01*
X373677Y281269D01*
X373627Y281182D01*
X373575Y281098D01*
X373519Y281015D01*
X373461Y280935D01*
X373399Y280857D01*
X373334Y280782D01*
X373266Y280709D01*
X373196Y280639D01*
X373123Y280571D01*
X373048Y280506D01*
X372970Y280444D01*
X372890Y280386D01*
X372807Y280330D01*
X372723Y280278D01*
X372636Y280228D01*
X372548Y280183D01*
X372458Y280140D01*
X372366Y280101D01*
X372273Y280066D01*
X372179Y280034D01*
X372084Y280006D01*
X371988Y279981D01*
X371890Y279960D01*
X371792Y279943D01*
X371694Y279930D01*
X371595Y279921D01*
X371495Y279915D01*
X371396Y279913D01*
X364904Y279913D01*
X364904Y279912D02*
X364805Y279914D01*
X364705Y279920D01*
X364606Y279929D01*
X364508Y279942D01*
X364410Y279960D01*
X364312Y279980D01*
X364216Y280005D01*
X364120Y280033D01*
X364026Y280065D01*
X363933Y280100D01*
X363842Y280139D01*
X363752Y280182D01*
X363663Y280227D01*
X363577Y280277D01*
X363492Y280329D01*
X363410Y280385D01*
X363330Y280444D01*
X363252Y280505D01*
X363176Y280570D01*
X363103Y280638D01*
X363033Y280708D01*
X362965Y280781D01*
X362900Y280857D01*
X362839Y280935D01*
X362780Y281015D01*
X362724Y281097D01*
X362672Y281182D01*
X362623Y281268D01*
X362577Y281357D01*
X362534Y281447D01*
X362495Y281538D01*
X362460Y281631D01*
X362428Y281725D01*
X362400Y281821D01*
X362375Y281917D01*
X362355Y282015D01*
X362337Y282113D01*
X362324Y282211D01*
X362315Y282310D01*
X362309Y282409D01*
X362307Y282509D01*
X362308Y282509D02*
X362308Y285106D01*
X364904Y289471D02*
X362308Y292716D01*
X373992Y292716D01*
X373992Y289471D02*
X373992Y295962D01*
X373992Y300901D02*
X373992Y304796D01*
X373990Y304895D01*
X373984Y304995D01*
X373975Y305094D01*
X373962Y305192D01*
X373945Y305290D01*
X373924Y305388D01*
X373899Y305484D01*
X373871Y305579D01*
X373839Y305673D01*
X373804Y305766D01*
X373765Y305858D01*
X373722Y305948D01*
X373677Y306036D01*
X373627Y306123D01*
X373575Y306207D01*
X373519Y306290D01*
X373461Y306370D01*
X373399Y306448D01*
X373334Y306523D01*
X373266Y306596D01*
X373196Y306666D01*
X373123Y306734D01*
X373048Y306799D01*
X372970Y306861D01*
X372890Y306919D01*
X372807Y306975D01*
X372723Y307027D01*
X372636Y307077D01*
X372548Y307122D01*
X372458Y307165D01*
X372366Y307204D01*
X372273Y307239D01*
X372179Y307271D01*
X372084Y307299D01*
X371988Y307324D01*
X371890Y307345D01*
X371792Y307362D01*
X371694Y307375D01*
X371595Y307384D01*
X371495Y307390D01*
X371396Y307392D01*
X370097Y307392D01*
X369998Y307390D01*
X369898Y307384D01*
X369799Y307375D01*
X369701Y307362D01*
X369603Y307345D01*
X369505Y307324D01*
X369409Y307299D01*
X369314Y307271D01*
X369220Y307239D01*
X369127Y307204D01*
X369035Y307165D01*
X368945Y307122D01*
X368857Y307077D01*
X368770Y307027D01*
X368686Y306975D01*
X368603Y306919D01*
X368523Y306861D01*
X368445Y306799D01*
X368370Y306734D01*
X368297Y306666D01*
X368227Y306596D01*
X368159Y306523D01*
X368094Y306448D01*
X368032Y306370D01*
X367974Y306290D01*
X367918Y306207D01*
X367866Y306123D01*
X367816Y306036D01*
X367771Y305948D01*
X367728Y305858D01*
X367689Y305766D01*
X367654Y305673D01*
X367622Y305579D01*
X367594Y305484D01*
X367569Y305388D01*
X367548Y305290D01*
X367531Y305192D01*
X367518Y305094D01*
X367509Y304995D01*
X367503Y304895D01*
X367501Y304796D01*
X367501Y300901D01*
X362308Y300901D01*
X362308Y307392D01*
X155301Y239408D02*
X152704Y239408D01*
X152605Y239410D01*
X152505Y239416D01*
X152406Y239425D01*
X152308Y239438D01*
X152210Y239455D01*
X152112Y239476D01*
X152016Y239501D01*
X151921Y239529D01*
X151827Y239561D01*
X151734Y239596D01*
X151642Y239635D01*
X151552Y239678D01*
X151464Y239723D01*
X151377Y239773D01*
X151293Y239825D01*
X151210Y239881D01*
X151130Y239939D01*
X151052Y240001D01*
X150977Y240066D01*
X150904Y240134D01*
X150834Y240204D01*
X150766Y240277D01*
X150701Y240352D01*
X150639Y240430D01*
X150581Y240510D01*
X150525Y240593D01*
X150473Y240677D01*
X150423Y240764D01*
X150378Y240852D01*
X150335Y240942D01*
X150296Y241034D01*
X150261Y241127D01*
X150229Y241221D01*
X150201Y241316D01*
X150176Y241412D01*
X150155Y241510D01*
X150138Y241608D01*
X150125Y241706D01*
X150116Y241805D01*
X150110Y241905D01*
X150108Y242004D01*
X150108Y248496D01*
X150110Y248595D01*
X150116Y248695D01*
X150125Y248794D01*
X150138Y248892D01*
X150155Y248990D01*
X150176Y249088D01*
X150201Y249184D01*
X150229Y249279D01*
X150261Y249373D01*
X150296Y249466D01*
X150335Y249558D01*
X150378Y249648D01*
X150423Y249736D01*
X150473Y249823D01*
X150525Y249907D01*
X150581Y249990D01*
X150639Y250070D01*
X150701Y250148D01*
X150766Y250223D01*
X150834Y250296D01*
X150904Y250366D01*
X150977Y250434D01*
X151052Y250499D01*
X151130Y250561D01*
X151210Y250619D01*
X151293Y250675D01*
X151377Y250727D01*
X151464Y250777D01*
X151552Y250822D01*
X151642Y250865D01*
X151734Y250904D01*
X151826Y250939D01*
X151921Y250971D01*
X152016Y250999D01*
X152112Y251024D01*
X152210Y251045D01*
X152308Y251062D01*
X152406Y251075D01*
X152505Y251084D01*
X152605Y251090D01*
X152704Y251092D01*
X155301Y251092D01*
X159666Y248496D02*
X162912Y251092D01*
X162912Y239408D01*
X166157Y239408D02*
X159666Y239408D01*
X171096Y245899D02*
X174991Y245899D01*
X175090Y245897D01*
X175190Y245891D01*
X175289Y245882D01*
X175387Y245869D01*
X175485Y245852D01*
X175583Y245831D01*
X175679Y245806D01*
X175774Y245778D01*
X175868Y245746D01*
X175961Y245711D01*
X176053Y245672D01*
X176143Y245629D01*
X176231Y245584D01*
X176318Y245534D01*
X176402Y245482D01*
X176485Y245426D01*
X176565Y245368D01*
X176643Y245306D01*
X176718Y245241D01*
X176791Y245173D01*
X176861Y245103D01*
X176929Y245030D01*
X176994Y244955D01*
X177056Y244877D01*
X177114Y244797D01*
X177170Y244714D01*
X177222Y244630D01*
X177272Y244543D01*
X177317Y244455D01*
X177360Y244365D01*
X177399Y244273D01*
X177434Y244180D01*
X177466Y244086D01*
X177494Y243991D01*
X177519Y243895D01*
X177540Y243797D01*
X177557Y243699D01*
X177570Y243601D01*
X177579Y243502D01*
X177585Y243402D01*
X177587Y243303D01*
X177587Y242654D01*
X177588Y242654D02*
X177586Y242541D01*
X177580Y242428D01*
X177570Y242315D01*
X177556Y242202D01*
X177539Y242090D01*
X177517Y241979D01*
X177492Y241869D01*
X177462Y241759D01*
X177429Y241651D01*
X177392Y241544D01*
X177352Y241438D01*
X177307Y241334D01*
X177259Y241231D01*
X177208Y241130D01*
X177153Y241031D01*
X177095Y240934D01*
X177033Y240839D01*
X176968Y240746D01*
X176900Y240656D01*
X176829Y240568D01*
X176754Y240482D01*
X176677Y240399D01*
X176597Y240319D01*
X176514Y240242D01*
X176428Y240167D01*
X176340Y240096D01*
X176250Y240028D01*
X176157Y239963D01*
X176062Y239901D01*
X175965Y239843D01*
X175866Y239788D01*
X175765Y239737D01*
X175662Y239689D01*
X175558Y239644D01*
X175452Y239604D01*
X175345Y239567D01*
X175237Y239534D01*
X175127Y239504D01*
X175017Y239479D01*
X174906Y239457D01*
X174794Y239440D01*
X174681Y239426D01*
X174568Y239416D01*
X174455Y239410D01*
X174342Y239408D01*
X174229Y239410D01*
X174116Y239416D01*
X174003Y239426D01*
X173890Y239440D01*
X173778Y239457D01*
X173667Y239479D01*
X173557Y239504D01*
X173447Y239534D01*
X173339Y239567D01*
X173232Y239604D01*
X173126Y239644D01*
X173022Y239689D01*
X172919Y239737D01*
X172818Y239788D01*
X172719Y239843D01*
X172622Y239901D01*
X172527Y239963D01*
X172434Y240028D01*
X172344Y240096D01*
X172256Y240167D01*
X172170Y240242D01*
X172087Y240319D01*
X172007Y240399D01*
X171930Y240482D01*
X171855Y240568D01*
X171784Y240656D01*
X171716Y240746D01*
X171651Y240839D01*
X171589Y240934D01*
X171531Y241031D01*
X171476Y241130D01*
X171425Y241231D01*
X171377Y241334D01*
X171332Y241438D01*
X171292Y241544D01*
X171255Y241651D01*
X171222Y241759D01*
X171192Y241869D01*
X171167Y241979D01*
X171145Y242090D01*
X171128Y242202D01*
X171114Y242315D01*
X171104Y242428D01*
X171098Y242541D01*
X171096Y242654D01*
X171096Y245899D01*
X171098Y246042D01*
X171104Y246185D01*
X171114Y246328D01*
X171128Y246470D01*
X171145Y246612D01*
X171167Y246754D01*
X171192Y246895D01*
X171222Y247035D01*
X171255Y247174D01*
X171292Y247312D01*
X171333Y247449D01*
X171377Y247585D01*
X171426Y247720D01*
X171478Y247853D01*
X171533Y247985D01*
X171593Y248115D01*
X171656Y248244D01*
X171722Y248371D01*
X171792Y248495D01*
X171865Y248618D01*
X171942Y248739D01*
X172022Y248858D01*
X172105Y248974D01*
X172191Y249089D01*
X172280Y249200D01*
X172373Y249310D01*
X172468Y249416D01*
X172567Y249520D01*
X172668Y249621D01*
X172772Y249720D01*
X172878Y249815D01*
X172988Y249908D01*
X173099Y249997D01*
X173214Y250083D01*
X173330Y250166D01*
X173449Y250246D01*
X173570Y250323D01*
X173692Y250396D01*
X173817Y250466D01*
X173944Y250532D01*
X174073Y250595D01*
X174203Y250655D01*
X174335Y250710D01*
X174468Y250762D01*
X174603Y250811D01*
X174739Y250855D01*
X174876Y250896D01*
X175014Y250933D01*
X175153Y250966D01*
X175293Y250996D01*
X175434Y251021D01*
X175576Y251043D01*
X175718Y251060D01*
X175860Y251074D01*
X176003Y251084D01*
X176146Y251090D01*
X176289Y251092D01*
X153601Y272908D02*
X151004Y272908D01*
X150905Y272910D01*
X150805Y272916D01*
X150706Y272925D01*
X150608Y272938D01*
X150510Y272955D01*
X150412Y272976D01*
X150316Y273001D01*
X150221Y273029D01*
X150127Y273061D01*
X150034Y273096D01*
X149942Y273135D01*
X149852Y273178D01*
X149764Y273223D01*
X149677Y273273D01*
X149593Y273325D01*
X149510Y273381D01*
X149430Y273439D01*
X149352Y273501D01*
X149277Y273566D01*
X149204Y273634D01*
X149134Y273704D01*
X149066Y273777D01*
X149001Y273852D01*
X148939Y273930D01*
X148881Y274010D01*
X148825Y274093D01*
X148773Y274177D01*
X148723Y274264D01*
X148678Y274352D01*
X148635Y274442D01*
X148596Y274534D01*
X148561Y274627D01*
X148529Y274721D01*
X148501Y274816D01*
X148476Y274912D01*
X148455Y275010D01*
X148438Y275108D01*
X148425Y275206D01*
X148416Y275305D01*
X148410Y275405D01*
X148408Y275504D01*
X148408Y281996D01*
X148410Y282095D01*
X148416Y282195D01*
X148425Y282294D01*
X148438Y282392D01*
X148455Y282490D01*
X148476Y282588D01*
X148501Y282684D01*
X148529Y282779D01*
X148561Y282873D01*
X148596Y282966D01*
X148635Y283058D01*
X148678Y283148D01*
X148723Y283236D01*
X148773Y283323D01*
X148825Y283407D01*
X148881Y283490D01*
X148939Y283570D01*
X149001Y283648D01*
X149066Y283723D01*
X149134Y283796D01*
X149204Y283866D01*
X149277Y283934D01*
X149352Y283999D01*
X149430Y284061D01*
X149510Y284119D01*
X149593Y284175D01*
X149677Y284227D01*
X149764Y284277D01*
X149852Y284322D01*
X149942Y284365D01*
X150034Y284404D01*
X150126Y284439D01*
X150221Y284471D01*
X150316Y284499D01*
X150412Y284524D01*
X150510Y284545D01*
X150608Y284562D01*
X150706Y284575D01*
X150805Y284584D01*
X150905Y284590D01*
X151004Y284592D01*
X153601Y284592D01*
X157966Y281996D02*
X161212Y284592D01*
X161212Y272908D01*
X164457Y272908D02*
X157966Y272908D01*
X169396Y283294D02*
X169396Y284592D01*
X175887Y284592D01*
X172642Y272908D01*
X36692Y207701D02*
X36692Y205104D01*
X36690Y205005D01*
X36684Y204905D01*
X36675Y204806D01*
X36662Y204708D01*
X36645Y204610D01*
X36624Y204512D01*
X36599Y204416D01*
X36571Y204321D01*
X36539Y204227D01*
X36504Y204134D01*
X36465Y204042D01*
X36422Y203952D01*
X36377Y203864D01*
X36327Y203777D01*
X36275Y203693D01*
X36219Y203610D01*
X36161Y203530D01*
X36099Y203452D01*
X36034Y203377D01*
X35966Y203304D01*
X35896Y203234D01*
X35823Y203166D01*
X35748Y203101D01*
X35670Y203039D01*
X35590Y202981D01*
X35507Y202925D01*
X35423Y202873D01*
X35336Y202823D01*
X35248Y202778D01*
X35158Y202735D01*
X35066Y202696D01*
X34973Y202661D01*
X34879Y202629D01*
X34784Y202601D01*
X34688Y202576D01*
X34590Y202555D01*
X34492Y202538D01*
X34394Y202525D01*
X34295Y202516D01*
X34195Y202510D01*
X34096Y202508D01*
X27604Y202508D01*
X27505Y202510D01*
X27405Y202516D01*
X27306Y202525D01*
X27208Y202538D01*
X27110Y202556D01*
X27012Y202576D01*
X26916Y202601D01*
X26820Y202629D01*
X26726Y202661D01*
X26633Y202696D01*
X26542Y202735D01*
X26452Y202778D01*
X26363Y202823D01*
X26277Y202873D01*
X26192Y202925D01*
X26110Y202981D01*
X26030Y203040D01*
X25952Y203101D01*
X25876Y203166D01*
X25803Y203234D01*
X25733Y203304D01*
X25665Y203377D01*
X25600Y203453D01*
X25539Y203531D01*
X25480Y203611D01*
X25424Y203693D01*
X25372Y203778D01*
X25323Y203864D01*
X25277Y203953D01*
X25234Y204043D01*
X25195Y204134D01*
X25160Y204227D01*
X25128Y204321D01*
X25100Y204417D01*
X25075Y204513D01*
X25055Y204611D01*
X25037Y204709D01*
X25024Y204807D01*
X25015Y204906D01*
X25009Y205005D01*
X25007Y205105D01*
X25008Y205104D02*
X25008Y207701D01*
X27604Y212066D02*
X25008Y215312D01*
X36692Y215312D01*
X36692Y218557D02*
X36692Y212066D01*
X33446Y223496D02*
X33333Y223498D01*
X33220Y223504D01*
X33107Y223514D01*
X32994Y223528D01*
X32882Y223545D01*
X32771Y223567D01*
X32661Y223592D01*
X32551Y223622D01*
X32443Y223655D01*
X32336Y223692D01*
X32230Y223732D01*
X32126Y223777D01*
X32023Y223825D01*
X31922Y223876D01*
X31823Y223931D01*
X31726Y223989D01*
X31631Y224051D01*
X31538Y224116D01*
X31448Y224184D01*
X31360Y224255D01*
X31274Y224330D01*
X31191Y224407D01*
X31111Y224487D01*
X31034Y224570D01*
X30959Y224656D01*
X30888Y224744D01*
X30820Y224834D01*
X30755Y224927D01*
X30693Y225022D01*
X30635Y225119D01*
X30580Y225218D01*
X30529Y225319D01*
X30481Y225422D01*
X30436Y225526D01*
X30396Y225632D01*
X30359Y225739D01*
X30326Y225847D01*
X30296Y225957D01*
X30271Y226067D01*
X30249Y226178D01*
X30232Y226290D01*
X30218Y226403D01*
X30208Y226516D01*
X30202Y226629D01*
X30200Y226742D01*
X30202Y226855D01*
X30208Y226968D01*
X30218Y227081D01*
X30232Y227194D01*
X30249Y227306D01*
X30271Y227417D01*
X30296Y227527D01*
X30326Y227637D01*
X30359Y227745D01*
X30396Y227852D01*
X30436Y227958D01*
X30481Y228062D01*
X30529Y228165D01*
X30580Y228266D01*
X30635Y228365D01*
X30693Y228462D01*
X30755Y228557D01*
X30820Y228650D01*
X30888Y228740D01*
X30959Y228828D01*
X31034Y228914D01*
X31111Y228997D01*
X31191Y229077D01*
X31274Y229154D01*
X31360Y229229D01*
X31448Y229300D01*
X31538Y229368D01*
X31631Y229433D01*
X31726Y229495D01*
X31823Y229553D01*
X31922Y229608D01*
X32023Y229659D01*
X32126Y229707D01*
X32230Y229752D01*
X32336Y229792D01*
X32443Y229829D01*
X32551Y229862D01*
X32661Y229892D01*
X32771Y229917D01*
X32882Y229939D01*
X32994Y229956D01*
X33107Y229970D01*
X33220Y229980D01*
X33333Y229986D01*
X33446Y229988D01*
X33559Y229986D01*
X33672Y229980D01*
X33785Y229970D01*
X33898Y229956D01*
X34010Y229939D01*
X34121Y229917D01*
X34231Y229892D01*
X34341Y229862D01*
X34449Y229829D01*
X34556Y229792D01*
X34662Y229752D01*
X34766Y229707D01*
X34869Y229659D01*
X34970Y229608D01*
X35069Y229553D01*
X35166Y229495D01*
X35261Y229433D01*
X35354Y229368D01*
X35444Y229300D01*
X35532Y229229D01*
X35618Y229154D01*
X35701Y229077D01*
X35781Y228997D01*
X35858Y228914D01*
X35933Y228828D01*
X36004Y228740D01*
X36072Y228650D01*
X36137Y228557D01*
X36199Y228462D01*
X36257Y228365D01*
X36312Y228266D01*
X36363Y228165D01*
X36411Y228062D01*
X36456Y227958D01*
X36496Y227852D01*
X36533Y227745D01*
X36566Y227637D01*
X36596Y227527D01*
X36621Y227417D01*
X36643Y227306D01*
X36660Y227194D01*
X36674Y227081D01*
X36684Y226968D01*
X36690Y226855D01*
X36692Y226742D01*
X36690Y226629D01*
X36684Y226516D01*
X36674Y226403D01*
X36660Y226290D01*
X36643Y226178D01*
X36621Y226067D01*
X36596Y225957D01*
X36566Y225847D01*
X36533Y225739D01*
X36496Y225632D01*
X36456Y225526D01*
X36411Y225422D01*
X36363Y225319D01*
X36312Y225218D01*
X36257Y225119D01*
X36199Y225022D01*
X36137Y224927D01*
X36072Y224834D01*
X36004Y224744D01*
X35933Y224656D01*
X35858Y224570D01*
X35781Y224487D01*
X35701Y224407D01*
X35618Y224330D01*
X35532Y224255D01*
X35444Y224184D01*
X35354Y224116D01*
X35261Y224051D01*
X35166Y223989D01*
X35069Y223931D01*
X34970Y223876D01*
X34869Y223825D01*
X34766Y223777D01*
X34662Y223732D01*
X34556Y223692D01*
X34449Y223655D01*
X34341Y223622D01*
X34231Y223592D01*
X34121Y223567D01*
X34010Y223545D01*
X33898Y223528D01*
X33785Y223514D01*
X33672Y223504D01*
X33559Y223498D01*
X33446Y223496D01*
X27604Y224146D02*
X27503Y224148D01*
X27403Y224154D01*
X27303Y224164D01*
X27203Y224177D01*
X27104Y224195D01*
X27005Y224216D01*
X26908Y224241D01*
X26811Y224270D01*
X26716Y224303D01*
X26622Y224339D01*
X26530Y224379D01*
X26439Y224422D01*
X26350Y224469D01*
X26263Y224519D01*
X26177Y224573D01*
X26094Y224630D01*
X26014Y224690D01*
X25935Y224753D01*
X25859Y224820D01*
X25786Y224889D01*
X25716Y224961D01*
X25648Y225035D01*
X25583Y225112D01*
X25522Y225192D01*
X25463Y225274D01*
X25408Y225358D01*
X25356Y225444D01*
X25307Y225532D01*
X25262Y225622D01*
X25220Y225714D01*
X25182Y225807D01*
X25148Y225902D01*
X25117Y225997D01*
X25090Y226094D01*
X25067Y226192D01*
X25047Y226291D01*
X25032Y226391D01*
X25020Y226491D01*
X25012Y226591D01*
X25008Y226692D01*
X25008Y226792D01*
X25012Y226893D01*
X25020Y226993D01*
X25032Y227093D01*
X25047Y227193D01*
X25067Y227292D01*
X25090Y227390D01*
X25117Y227487D01*
X25148Y227582D01*
X25182Y227677D01*
X25220Y227770D01*
X25262Y227862D01*
X25307Y227952D01*
X25356Y228040D01*
X25408Y228126D01*
X25463Y228210D01*
X25522Y228292D01*
X25583Y228372D01*
X25648Y228449D01*
X25716Y228523D01*
X25786Y228595D01*
X25859Y228664D01*
X25935Y228731D01*
X26014Y228794D01*
X26094Y228854D01*
X26177Y228911D01*
X26263Y228965D01*
X26350Y229015D01*
X26439Y229062D01*
X26530Y229105D01*
X26622Y229145D01*
X26716Y229181D01*
X26811Y229214D01*
X26908Y229243D01*
X27005Y229268D01*
X27104Y229289D01*
X27203Y229307D01*
X27303Y229320D01*
X27403Y229330D01*
X27503Y229336D01*
X27604Y229338D01*
X27705Y229336D01*
X27805Y229330D01*
X27905Y229320D01*
X28005Y229307D01*
X28104Y229289D01*
X28203Y229268D01*
X28300Y229243D01*
X28397Y229214D01*
X28492Y229181D01*
X28586Y229145D01*
X28678Y229105D01*
X28769Y229062D01*
X28858Y229015D01*
X28945Y228965D01*
X29031Y228911D01*
X29114Y228854D01*
X29194Y228794D01*
X29273Y228731D01*
X29349Y228664D01*
X29422Y228595D01*
X29492Y228523D01*
X29560Y228449D01*
X29625Y228372D01*
X29686Y228292D01*
X29745Y228210D01*
X29800Y228126D01*
X29852Y228040D01*
X29901Y227952D01*
X29946Y227862D01*
X29988Y227770D01*
X30026Y227677D01*
X30060Y227582D01*
X30091Y227487D01*
X30118Y227390D01*
X30141Y227292D01*
X30161Y227193D01*
X30176Y227093D01*
X30188Y226993D01*
X30196Y226893D01*
X30200Y226792D01*
X30200Y226692D01*
X30196Y226591D01*
X30188Y226491D01*
X30176Y226391D01*
X30161Y226291D01*
X30141Y226192D01*
X30118Y226094D01*
X30091Y225997D01*
X30060Y225902D01*
X30026Y225807D01*
X29988Y225714D01*
X29946Y225622D01*
X29901Y225532D01*
X29852Y225444D01*
X29800Y225358D01*
X29745Y225274D01*
X29686Y225192D01*
X29625Y225112D01*
X29560Y225035D01*
X29492Y224961D01*
X29422Y224889D01*
X29349Y224820D01*
X29273Y224753D01*
X29194Y224690D01*
X29114Y224630D01*
X29031Y224573D01*
X28945Y224519D01*
X28858Y224469D01*
X28769Y224422D01*
X28678Y224379D01*
X28586Y224339D01*
X28492Y224303D01*
X28397Y224270D01*
X28300Y224241D01*
X28203Y224216D01*
X28104Y224195D01*
X28005Y224177D01*
X27905Y224164D01*
X27805Y224154D01*
X27705Y224148D01*
X27604Y224146D01*
X34992Y315604D02*
X34992Y318201D01*
X34992Y315604D02*
X34990Y315505D01*
X34984Y315405D01*
X34975Y315306D01*
X34962Y315208D01*
X34945Y315110D01*
X34924Y315012D01*
X34899Y314916D01*
X34871Y314821D01*
X34839Y314727D01*
X34804Y314634D01*
X34765Y314542D01*
X34722Y314452D01*
X34677Y314364D01*
X34627Y314277D01*
X34575Y314193D01*
X34519Y314110D01*
X34461Y314030D01*
X34399Y313952D01*
X34334Y313877D01*
X34266Y313804D01*
X34196Y313734D01*
X34123Y313666D01*
X34048Y313601D01*
X33970Y313539D01*
X33890Y313481D01*
X33807Y313425D01*
X33723Y313373D01*
X33636Y313323D01*
X33548Y313278D01*
X33458Y313235D01*
X33366Y313196D01*
X33273Y313161D01*
X33179Y313129D01*
X33084Y313101D01*
X32988Y313076D01*
X32890Y313055D01*
X32792Y313038D01*
X32694Y313025D01*
X32595Y313016D01*
X32495Y313010D01*
X32396Y313008D01*
X25904Y313008D01*
X25805Y313010D01*
X25705Y313016D01*
X25606Y313025D01*
X25508Y313038D01*
X25410Y313056D01*
X25312Y313076D01*
X25216Y313101D01*
X25120Y313129D01*
X25026Y313161D01*
X24933Y313196D01*
X24842Y313235D01*
X24752Y313278D01*
X24663Y313323D01*
X24577Y313373D01*
X24492Y313425D01*
X24410Y313481D01*
X24330Y313540D01*
X24252Y313601D01*
X24176Y313666D01*
X24103Y313734D01*
X24033Y313804D01*
X23965Y313877D01*
X23900Y313953D01*
X23839Y314031D01*
X23780Y314111D01*
X23724Y314193D01*
X23672Y314278D01*
X23623Y314364D01*
X23577Y314453D01*
X23534Y314543D01*
X23495Y314634D01*
X23460Y314727D01*
X23428Y314821D01*
X23400Y314917D01*
X23375Y315013D01*
X23355Y315111D01*
X23337Y315209D01*
X23324Y315307D01*
X23315Y315406D01*
X23309Y315505D01*
X23307Y315605D01*
X23308Y315604D02*
X23308Y318201D01*
X25904Y322566D02*
X23308Y325812D01*
X34992Y325812D01*
X34992Y329057D02*
X34992Y322566D01*
X29799Y336593D02*
X29799Y340487D01*
X29799Y336593D02*
X29797Y336494D01*
X29791Y336394D01*
X29782Y336295D01*
X29769Y336197D01*
X29752Y336099D01*
X29731Y336001D01*
X29706Y335905D01*
X29678Y335810D01*
X29646Y335716D01*
X29611Y335623D01*
X29572Y335531D01*
X29529Y335441D01*
X29484Y335353D01*
X29434Y335266D01*
X29382Y335182D01*
X29326Y335099D01*
X29268Y335019D01*
X29206Y334941D01*
X29141Y334866D01*
X29073Y334793D01*
X29003Y334723D01*
X28930Y334655D01*
X28855Y334590D01*
X28777Y334528D01*
X28697Y334470D01*
X28614Y334414D01*
X28530Y334362D01*
X28443Y334312D01*
X28355Y334267D01*
X28265Y334224D01*
X28173Y334185D01*
X28080Y334150D01*
X27986Y334118D01*
X27891Y334090D01*
X27795Y334065D01*
X27697Y334044D01*
X27599Y334027D01*
X27501Y334014D01*
X27402Y334005D01*
X27302Y333999D01*
X27203Y333997D01*
X27203Y333996D02*
X26554Y333996D01*
X26441Y333998D01*
X26328Y334004D01*
X26215Y334014D01*
X26102Y334028D01*
X25990Y334045D01*
X25879Y334067D01*
X25769Y334092D01*
X25659Y334122D01*
X25551Y334155D01*
X25444Y334192D01*
X25338Y334232D01*
X25234Y334277D01*
X25131Y334325D01*
X25030Y334376D01*
X24931Y334431D01*
X24834Y334489D01*
X24739Y334551D01*
X24646Y334616D01*
X24556Y334684D01*
X24468Y334755D01*
X24382Y334830D01*
X24299Y334907D01*
X24219Y334987D01*
X24142Y335070D01*
X24067Y335156D01*
X23996Y335244D01*
X23928Y335334D01*
X23863Y335427D01*
X23801Y335522D01*
X23743Y335619D01*
X23688Y335718D01*
X23637Y335819D01*
X23589Y335922D01*
X23544Y336026D01*
X23504Y336132D01*
X23467Y336239D01*
X23434Y336347D01*
X23404Y336457D01*
X23379Y336567D01*
X23357Y336678D01*
X23340Y336790D01*
X23326Y336903D01*
X23316Y337016D01*
X23310Y337129D01*
X23308Y337242D01*
X23310Y337355D01*
X23316Y337468D01*
X23326Y337581D01*
X23340Y337694D01*
X23357Y337806D01*
X23379Y337917D01*
X23404Y338027D01*
X23434Y338137D01*
X23467Y338245D01*
X23504Y338352D01*
X23544Y338458D01*
X23589Y338562D01*
X23637Y338665D01*
X23688Y338766D01*
X23743Y338865D01*
X23801Y338962D01*
X23863Y339057D01*
X23928Y339150D01*
X23996Y339240D01*
X24067Y339328D01*
X24142Y339414D01*
X24219Y339497D01*
X24299Y339577D01*
X24382Y339654D01*
X24468Y339729D01*
X24556Y339800D01*
X24646Y339868D01*
X24739Y339933D01*
X24834Y339995D01*
X24931Y340053D01*
X25030Y340108D01*
X25131Y340159D01*
X25234Y340207D01*
X25338Y340252D01*
X25444Y340292D01*
X25551Y340329D01*
X25659Y340362D01*
X25769Y340392D01*
X25879Y340417D01*
X25990Y340439D01*
X26102Y340456D01*
X26215Y340470D01*
X26328Y340480D01*
X26441Y340486D01*
X26554Y340488D01*
X26554Y340487D02*
X29799Y340487D01*
X29942Y340485D01*
X30085Y340479D01*
X30228Y340469D01*
X30370Y340455D01*
X30512Y340438D01*
X30654Y340416D01*
X30795Y340391D01*
X30935Y340361D01*
X31074Y340328D01*
X31212Y340291D01*
X31349Y340250D01*
X31485Y340206D01*
X31620Y340157D01*
X31753Y340105D01*
X31885Y340050D01*
X32015Y339990D01*
X32144Y339927D01*
X32271Y339861D01*
X32396Y339791D01*
X32518Y339718D01*
X32639Y339641D01*
X32758Y339561D01*
X32874Y339478D01*
X32989Y339392D01*
X33100Y339303D01*
X33210Y339210D01*
X33316Y339115D01*
X33420Y339016D01*
X33521Y338915D01*
X33620Y338811D01*
X33715Y338705D01*
X33808Y338595D01*
X33897Y338484D01*
X33983Y338369D01*
X34066Y338253D01*
X34146Y338134D01*
X34223Y338013D01*
X34296Y337891D01*
X34366Y337766D01*
X34432Y337639D01*
X34495Y337510D01*
X34555Y337380D01*
X34610Y337248D01*
X34662Y337115D01*
X34711Y336980D01*
X34755Y336844D01*
X34796Y336707D01*
X34833Y336569D01*
X34866Y336430D01*
X34896Y336290D01*
X34921Y336149D01*
X34943Y336007D01*
X34960Y335865D01*
X34974Y335723D01*
X34984Y335580D01*
X34990Y335437D01*
X34992Y335294D01*
X381092Y146106D02*
X381092Y143509D01*
X381090Y143410D01*
X381084Y143310D01*
X381075Y143211D01*
X381062Y143113D01*
X381045Y143015D01*
X381024Y142917D01*
X380999Y142821D01*
X380971Y142726D01*
X380939Y142632D01*
X380904Y142539D01*
X380865Y142447D01*
X380822Y142357D01*
X380777Y142269D01*
X380727Y142182D01*
X380675Y142098D01*
X380619Y142015D01*
X380561Y141935D01*
X380499Y141857D01*
X380434Y141782D01*
X380366Y141709D01*
X380296Y141639D01*
X380223Y141571D01*
X380148Y141506D01*
X380070Y141444D01*
X379990Y141386D01*
X379907Y141330D01*
X379823Y141278D01*
X379736Y141228D01*
X379648Y141183D01*
X379558Y141140D01*
X379466Y141101D01*
X379373Y141066D01*
X379279Y141034D01*
X379184Y141006D01*
X379088Y140981D01*
X378990Y140960D01*
X378892Y140943D01*
X378794Y140930D01*
X378695Y140921D01*
X378595Y140915D01*
X378496Y140913D01*
X372004Y140913D01*
X372004Y140912D02*
X371905Y140914D01*
X371805Y140920D01*
X371706Y140929D01*
X371608Y140942D01*
X371510Y140960D01*
X371412Y140980D01*
X371316Y141005D01*
X371220Y141033D01*
X371126Y141065D01*
X371033Y141100D01*
X370942Y141139D01*
X370852Y141182D01*
X370763Y141227D01*
X370677Y141277D01*
X370592Y141329D01*
X370510Y141385D01*
X370430Y141444D01*
X370352Y141505D01*
X370276Y141570D01*
X370203Y141638D01*
X370133Y141708D01*
X370065Y141781D01*
X370000Y141857D01*
X369939Y141935D01*
X369880Y142015D01*
X369824Y142097D01*
X369772Y142182D01*
X369723Y142268D01*
X369677Y142357D01*
X369634Y142447D01*
X369595Y142538D01*
X369560Y142631D01*
X369528Y142725D01*
X369500Y142821D01*
X369475Y142917D01*
X369455Y143015D01*
X369437Y143113D01*
X369424Y143211D01*
X369415Y143310D01*
X369409Y143409D01*
X369407Y143509D01*
X369408Y143509D02*
X369408Y146106D01*
X369408Y154041D02*
X369410Y154148D01*
X369416Y154254D01*
X369426Y154360D01*
X369439Y154466D01*
X369457Y154572D01*
X369478Y154676D01*
X369503Y154780D01*
X369532Y154883D01*
X369564Y154984D01*
X369601Y155084D01*
X369641Y155183D01*
X369684Y155281D01*
X369731Y155377D01*
X369782Y155471D01*
X369836Y155563D01*
X369893Y155653D01*
X369953Y155741D01*
X370017Y155826D01*
X370084Y155909D01*
X370154Y155990D01*
X370226Y156068D01*
X370302Y156144D01*
X370380Y156216D01*
X370461Y156286D01*
X370544Y156353D01*
X370629Y156417D01*
X370717Y156477D01*
X370807Y156534D01*
X370899Y156588D01*
X370993Y156639D01*
X371089Y156686D01*
X371187Y156729D01*
X371286Y156769D01*
X371386Y156806D01*
X371487Y156838D01*
X371590Y156867D01*
X371694Y156892D01*
X371798Y156913D01*
X371904Y156931D01*
X372010Y156944D01*
X372116Y156954D01*
X372222Y156960D01*
X372329Y156962D01*
X369408Y154041D02*
X369410Y153920D01*
X369416Y153799D01*
X369426Y153679D01*
X369439Y153558D01*
X369457Y153439D01*
X369478Y153319D01*
X369503Y153201D01*
X369532Y153084D01*
X369565Y152967D01*
X369601Y152852D01*
X369642Y152738D01*
X369685Y152625D01*
X369733Y152513D01*
X369784Y152404D01*
X369839Y152296D01*
X369897Y152189D01*
X369958Y152085D01*
X370023Y151983D01*
X370091Y151883D01*
X370162Y151785D01*
X370236Y151689D01*
X370313Y151596D01*
X370394Y151506D01*
X370477Y151418D01*
X370563Y151333D01*
X370652Y151250D01*
X370743Y151171D01*
X370837Y151094D01*
X370933Y151021D01*
X371031Y150951D01*
X371132Y150884D01*
X371235Y150820D01*
X371340Y150760D01*
X371447Y150702D01*
X371555Y150649D01*
X371665Y150599D01*
X371777Y150553D01*
X371890Y150510D01*
X372005Y150471D01*
X374601Y155988D02*
X374523Y156067D01*
X374443Y156143D01*
X374360Y156216D01*
X374274Y156286D01*
X374187Y156353D01*
X374096Y156417D01*
X374004Y156477D01*
X373910Y156535D01*
X373813Y156589D01*
X373715Y156639D01*
X373615Y156686D01*
X373514Y156730D01*
X373411Y156770D01*
X373306Y156806D01*
X373201Y156838D01*
X373094Y156867D01*
X372987Y156892D01*
X372878Y156914D01*
X372769Y156931D01*
X372660Y156945D01*
X372550Y156954D01*
X372439Y156960D01*
X372329Y156962D01*
X374601Y155988D02*
X381092Y150471D01*
X381092Y156962D01*
X375250Y161901D02*
X375020Y161904D01*
X374790Y161912D01*
X374561Y161926D01*
X374332Y161945D01*
X374103Y161970D01*
X373875Y162000D01*
X373648Y162035D01*
X373422Y162076D01*
X373197Y162122D01*
X372973Y162174D01*
X372750Y162231D01*
X372529Y162293D01*
X372309Y162361D01*
X372091Y162434D01*
X371875Y162512D01*
X371661Y162595D01*
X371449Y162683D01*
X371238Y162776D01*
X371031Y162875D01*
X371031Y162874D02*
X370941Y162907D01*
X370852Y162943D01*
X370764Y162983D01*
X370679Y163027D01*
X370595Y163074D01*
X370513Y163124D01*
X370433Y163178D01*
X370356Y163234D01*
X370280Y163294D01*
X370207Y163357D01*
X370137Y163422D01*
X370069Y163491D01*
X370005Y163562D01*
X369943Y163635D01*
X369884Y163711D01*
X369828Y163789D01*
X369775Y163870D01*
X369726Y163952D01*
X369680Y164036D01*
X369637Y164123D01*
X369598Y164210D01*
X369562Y164300D01*
X369530Y164390D01*
X369502Y164482D01*
X369477Y164575D01*
X369456Y164669D01*
X369439Y164763D01*
X369425Y164858D01*
X369416Y164954D01*
X369410Y165050D01*
X369408Y165146D01*
X369410Y165242D01*
X369416Y165338D01*
X369425Y165434D01*
X369439Y165529D01*
X369456Y165623D01*
X369477Y165717D01*
X369502Y165810D01*
X369530Y165902D01*
X369562Y165992D01*
X369598Y166082D01*
X369637Y166170D01*
X369680Y166256D01*
X369726Y166340D01*
X369775Y166422D01*
X369828Y166503D01*
X369884Y166581D01*
X369943Y166657D01*
X370005Y166730D01*
X370069Y166801D01*
X370137Y166870D01*
X370207Y166935D01*
X370280Y166998D01*
X370356Y167058D01*
X370433Y167114D01*
X370513Y167168D01*
X370595Y167218D01*
X370679Y167265D01*
X370764Y167309D01*
X370852Y167349D01*
X370941Y167385D01*
X371031Y167418D01*
X371238Y167517D01*
X371449Y167610D01*
X371661Y167698D01*
X371875Y167781D01*
X372091Y167859D01*
X372309Y167932D01*
X372529Y168000D01*
X372750Y168062D01*
X372973Y168119D01*
X373197Y168171D01*
X373422Y168217D01*
X373648Y168258D01*
X373875Y168293D01*
X374103Y168323D01*
X374332Y168348D01*
X374561Y168367D01*
X374790Y168381D01*
X375020Y168389D01*
X375250Y168392D01*
X375250Y161901D02*
X375480Y161904D01*
X375710Y161912D01*
X375939Y161926D01*
X376168Y161945D01*
X376397Y161970D01*
X376625Y162000D01*
X376852Y162035D01*
X377078Y162076D01*
X377303Y162122D01*
X377527Y162174D01*
X377750Y162231D01*
X377971Y162293D01*
X378191Y162361D01*
X378409Y162434D01*
X378625Y162512D01*
X378839Y162595D01*
X379051Y162683D01*
X379262Y162776D01*
X379469Y162875D01*
X379469Y162874D02*
X379559Y162907D01*
X379648Y162943D01*
X379736Y162984D01*
X379821Y163027D01*
X379905Y163074D01*
X379987Y163124D01*
X380067Y163178D01*
X380144Y163234D01*
X380220Y163294D01*
X380293Y163357D01*
X380363Y163422D01*
X380431Y163491D01*
X380495Y163562D01*
X380557Y163635D01*
X380616Y163711D01*
X380672Y163789D01*
X380725Y163870D01*
X380774Y163952D01*
X380820Y164036D01*
X380863Y164123D01*
X380902Y164210D01*
X380938Y164300D01*
X380970Y164390D01*
X380998Y164482D01*
X381023Y164575D01*
X381044Y164669D01*
X381061Y164763D01*
X381075Y164858D01*
X381084Y164954D01*
X381090Y165050D01*
X381092Y165146D01*
X379469Y167418D02*
X379262Y167517D01*
X379051Y167610D01*
X378839Y167698D01*
X378625Y167781D01*
X378409Y167859D01*
X378191Y167932D01*
X377971Y168000D01*
X377750Y168062D01*
X377527Y168119D01*
X377303Y168171D01*
X377078Y168217D01*
X376852Y168258D01*
X376625Y168293D01*
X376397Y168323D01*
X376168Y168348D01*
X375939Y168367D01*
X375710Y168381D01*
X375480Y168389D01*
X375250Y168392D01*
X379469Y167418D02*
X379559Y167385D01*
X379648Y167349D01*
X379736Y167309D01*
X379821Y167265D01*
X379905Y167218D01*
X379987Y167168D01*
X380067Y167114D01*
X380144Y167058D01*
X380220Y166998D01*
X380293Y166935D01*
X380363Y166870D01*
X380431Y166801D01*
X380495Y166730D01*
X380557Y166657D01*
X380616Y166581D01*
X380672Y166503D01*
X380725Y166422D01*
X380774Y166340D01*
X380820Y166256D01*
X380863Y166169D01*
X380902Y166082D01*
X380938Y165992D01*
X380970Y165902D01*
X380998Y165810D01*
X381023Y165717D01*
X381044Y165623D01*
X381061Y165529D01*
X381075Y165434D01*
X381084Y165338D01*
X381090Y165242D01*
X381092Y165146D01*
X378496Y162550D02*
X372004Y167743D01*
X362701Y119408D02*
X360104Y119408D01*
X360005Y119410D01*
X359905Y119416D01*
X359806Y119425D01*
X359708Y119438D01*
X359610Y119455D01*
X359512Y119476D01*
X359416Y119501D01*
X359321Y119529D01*
X359227Y119561D01*
X359134Y119596D01*
X359042Y119635D01*
X358952Y119678D01*
X358864Y119723D01*
X358777Y119773D01*
X358693Y119825D01*
X358610Y119881D01*
X358530Y119939D01*
X358452Y120001D01*
X358377Y120066D01*
X358304Y120134D01*
X358234Y120204D01*
X358166Y120277D01*
X358101Y120352D01*
X358039Y120430D01*
X357981Y120510D01*
X357925Y120593D01*
X357873Y120677D01*
X357823Y120764D01*
X357778Y120852D01*
X357735Y120942D01*
X357696Y121034D01*
X357661Y121127D01*
X357629Y121221D01*
X357601Y121316D01*
X357576Y121412D01*
X357555Y121510D01*
X357538Y121608D01*
X357525Y121706D01*
X357516Y121805D01*
X357510Y121905D01*
X357508Y122004D01*
X357508Y128496D01*
X357510Y128595D01*
X357516Y128695D01*
X357525Y128794D01*
X357538Y128892D01*
X357555Y128990D01*
X357576Y129088D01*
X357601Y129184D01*
X357629Y129279D01*
X357661Y129373D01*
X357696Y129466D01*
X357735Y129558D01*
X357778Y129648D01*
X357823Y129736D01*
X357873Y129823D01*
X357925Y129907D01*
X357981Y129990D01*
X358039Y130070D01*
X358101Y130148D01*
X358166Y130223D01*
X358234Y130296D01*
X358304Y130366D01*
X358377Y130434D01*
X358452Y130499D01*
X358530Y130561D01*
X358610Y130619D01*
X358693Y130675D01*
X358777Y130727D01*
X358864Y130777D01*
X358952Y130822D01*
X359042Y130865D01*
X359134Y130904D01*
X359226Y130939D01*
X359321Y130971D01*
X359416Y130999D01*
X359512Y131024D01*
X359610Y131045D01*
X359708Y131062D01*
X359806Y131075D01*
X359905Y131084D01*
X360005Y131090D01*
X360104Y131092D01*
X362701Y131092D01*
X370636Y131092D02*
X370743Y131090D01*
X370849Y131084D01*
X370955Y131074D01*
X371061Y131061D01*
X371167Y131043D01*
X371271Y131022D01*
X371375Y130997D01*
X371478Y130968D01*
X371579Y130936D01*
X371679Y130899D01*
X371778Y130859D01*
X371876Y130816D01*
X371972Y130769D01*
X372066Y130718D01*
X372158Y130664D01*
X372248Y130607D01*
X372336Y130547D01*
X372421Y130483D01*
X372504Y130416D01*
X372585Y130346D01*
X372663Y130274D01*
X372739Y130198D01*
X372811Y130120D01*
X372881Y130039D01*
X372948Y129956D01*
X373012Y129871D01*
X373072Y129783D01*
X373129Y129693D01*
X373183Y129601D01*
X373234Y129507D01*
X373281Y129411D01*
X373324Y129313D01*
X373364Y129214D01*
X373401Y129114D01*
X373433Y129013D01*
X373462Y128910D01*
X373487Y128806D01*
X373508Y128702D01*
X373526Y128596D01*
X373539Y128490D01*
X373549Y128384D01*
X373555Y128278D01*
X373557Y128171D01*
X370636Y131092D02*
X370515Y131090D01*
X370394Y131084D01*
X370274Y131074D01*
X370153Y131061D01*
X370034Y131043D01*
X369914Y131022D01*
X369796Y130997D01*
X369679Y130968D01*
X369562Y130935D01*
X369447Y130899D01*
X369333Y130858D01*
X369220Y130815D01*
X369108Y130767D01*
X368999Y130716D01*
X368891Y130661D01*
X368784Y130603D01*
X368680Y130542D01*
X368578Y130477D01*
X368478Y130409D01*
X368380Y130338D01*
X368284Y130264D01*
X368191Y130187D01*
X368101Y130106D01*
X368013Y130023D01*
X367928Y129937D01*
X367845Y129848D01*
X367766Y129757D01*
X367689Y129663D01*
X367616Y129567D01*
X367546Y129469D01*
X367479Y129368D01*
X367415Y129265D01*
X367355Y129160D01*
X367298Y129053D01*
X367244Y128945D01*
X367194Y128835D01*
X367148Y128723D01*
X367105Y128610D01*
X367066Y128495D01*
X372584Y125899D02*
X372663Y125976D01*
X372739Y126057D01*
X372812Y126140D01*
X372882Y126225D01*
X372949Y126313D01*
X373013Y126403D01*
X373073Y126495D01*
X373130Y126590D01*
X373184Y126686D01*
X373235Y126784D01*
X373282Y126884D01*
X373326Y126986D01*
X373366Y127089D01*
X373402Y127193D01*
X373434Y127299D01*
X373463Y127405D01*
X373488Y127513D01*
X373510Y127621D01*
X373527Y127731D01*
X373541Y127840D01*
X373550Y127950D01*
X373556Y128061D01*
X373558Y128171D01*
X372584Y125899D02*
X367066Y119408D01*
X373557Y119408D01*
X378496Y128496D02*
X381742Y131092D01*
X381742Y119408D01*
X384987Y119408D02*
X378496Y119408D01*
X154401Y134908D02*
X151804Y134908D01*
X151705Y134910D01*
X151605Y134916D01*
X151506Y134925D01*
X151408Y134938D01*
X151310Y134955D01*
X151212Y134976D01*
X151116Y135001D01*
X151021Y135029D01*
X150927Y135061D01*
X150834Y135096D01*
X150742Y135135D01*
X150652Y135178D01*
X150564Y135223D01*
X150477Y135273D01*
X150393Y135325D01*
X150310Y135381D01*
X150230Y135439D01*
X150152Y135501D01*
X150077Y135566D01*
X150004Y135634D01*
X149934Y135704D01*
X149866Y135777D01*
X149801Y135852D01*
X149739Y135930D01*
X149681Y136010D01*
X149625Y136093D01*
X149573Y136177D01*
X149523Y136264D01*
X149478Y136352D01*
X149435Y136442D01*
X149396Y136534D01*
X149361Y136627D01*
X149329Y136721D01*
X149301Y136816D01*
X149276Y136912D01*
X149255Y137010D01*
X149238Y137108D01*
X149225Y137206D01*
X149216Y137305D01*
X149210Y137405D01*
X149208Y137504D01*
X149208Y143996D01*
X149210Y144095D01*
X149216Y144195D01*
X149225Y144294D01*
X149238Y144392D01*
X149255Y144490D01*
X149276Y144588D01*
X149301Y144684D01*
X149329Y144779D01*
X149361Y144873D01*
X149396Y144966D01*
X149435Y145058D01*
X149478Y145148D01*
X149523Y145236D01*
X149573Y145323D01*
X149625Y145407D01*
X149681Y145490D01*
X149739Y145570D01*
X149801Y145648D01*
X149866Y145723D01*
X149934Y145796D01*
X150004Y145866D01*
X150077Y145934D01*
X150152Y145999D01*
X150230Y146061D01*
X150310Y146119D01*
X150393Y146175D01*
X150477Y146227D01*
X150564Y146277D01*
X150652Y146322D01*
X150742Y146365D01*
X150834Y146404D01*
X150926Y146439D01*
X151021Y146471D01*
X151116Y146499D01*
X151212Y146524D01*
X151310Y146545D01*
X151408Y146562D01*
X151506Y146575D01*
X151605Y146584D01*
X151705Y146590D01*
X151804Y146592D01*
X154401Y146592D01*
X162336Y146592D02*
X162443Y146590D01*
X162549Y146584D01*
X162655Y146574D01*
X162761Y146561D01*
X162867Y146543D01*
X162971Y146522D01*
X163075Y146497D01*
X163178Y146468D01*
X163279Y146436D01*
X163379Y146399D01*
X163478Y146359D01*
X163576Y146316D01*
X163672Y146269D01*
X163766Y146218D01*
X163858Y146164D01*
X163948Y146107D01*
X164036Y146047D01*
X164121Y145983D01*
X164204Y145916D01*
X164285Y145846D01*
X164363Y145774D01*
X164439Y145698D01*
X164511Y145620D01*
X164581Y145539D01*
X164648Y145456D01*
X164712Y145371D01*
X164772Y145283D01*
X164829Y145193D01*
X164883Y145101D01*
X164934Y145007D01*
X164981Y144911D01*
X165024Y144813D01*
X165064Y144714D01*
X165101Y144614D01*
X165133Y144513D01*
X165162Y144410D01*
X165187Y144306D01*
X165208Y144202D01*
X165226Y144096D01*
X165239Y143990D01*
X165249Y143884D01*
X165255Y143778D01*
X165257Y143671D01*
X162336Y146592D02*
X162215Y146590D01*
X162094Y146584D01*
X161974Y146574D01*
X161853Y146561D01*
X161734Y146543D01*
X161614Y146522D01*
X161496Y146497D01*
X161379Y146468D01*
X161262Y146435D01*
X161147Y146399D01*
X161033Y146358D01*
X160920Y146315D01*
X160808Y146267D01*
X160699Y146216D01*
X160591Y146161D01*
X160484Y146103D01*
X160380Y146042D01*
X160278Y145977D01*
X160178Y145909D01*
X160080Y145838D01*
X159984Y145764D01*
X159891Y145687D01*
X159801Y145606D01*
X159713Y145523D01*
X159628Y145437D01*
X159545Y145348D01*
X159466Y145257D01*
X159389Y145163D01*
X159316Y145067D01*
X159246Y144969D01*
X159179Y144868D01*
X159115Y144765D01*
X159055Y144660D01*
X158998Y144553D01*
X158944Y144445D01*
X158894Y144335D01*
X158848Y144223D01*
X158805Y144110D01*
X158766Y143995D01*
X164284Y141399D02*
X164363Y141476D01*
X164439Y141557D01*
X164512Y141640D01*
X164582Y141725D01*
X164649Y141813D01*
X164713Y141903D01*
X164773Y141995D01*
X164830Y142090D01*
X164884Y142186D01*
X164935Y142284D01*
X164982Y142384D01*
X165026Y142486D01*
X165066Y142589D01*
X165102Y142693D01*
X165134Y142799D01*
X165163Y142905D01*
X165188Y143013D01*
X165210Y143121D01*
X165227Y143231D01*
X165241Y143340D01*
X165250Y143450D01*
X165256Y143561D01*
X165258Y143671D01*
X164284Y141399D02*
X158766Y134908D01*
X165257Y134908D01*
X176687Y143671D02*
X176685Y143778D01*
X176679Y143884D01*
X176669Y143990D01*
X176656Y144096D01*
X176638Y144202D01*
X176617Y144306D01*
X176592Y144410D01*
X176563Y144513D01*
X176531Y144614D01*
X176494Y144714D01*
X176454Y144813D01*
X176411Y144911D01*
X176364Y145007D01*
X176313Y145101D01*
X176259Y145193D01*
X176202Y145283D01*
X176142Y145371D01*
X176078Y145456D01*
X176011Y145539D01*
X175941Y145620D01*
X175869Y145698D01*
X175793Y145774D01*
X175715Y145846D01*
X175634Y145916D01*
X175551Y145983D01*
X175466Y146047D01*
X175378Y146107D01*
X175288Y146164D01*
X175196Y146218D01*
X175102Y146269D01*
X175006Y146316D01*
X174908Y146359D01*
X174809Y146399D01*
X174709Y146436D01*
X174608Y146468D01*
X174505Y146497D01*
X174401Y146522D01*
X174297Y146543D01*
X174191Y146561D01*
X174085Y146574D01*
X173979Y146584D01*
X173873Y146590D01*
X173766Y146592D01*
X173645Y146590D01*
X173524Y146584D01*
X173404Y146574D01*
X173283Y146561D01*
X173164Y146543D01*
X173044Y146522D01*
X172926Y146497D01*
X172809Y146468D01*
X172692Y146435D01*
X172577Y146399D01*
X172463Y146358D01*
X172350Y146315D01*
X172238Y146267D01*
X172129Y146216D01*
X172021Y146161D01*
X171914Y146103D01*
X171810Y146042D01*
X171708Y145977D01*
X171608Y145909D01*
X171510Y145838D01*
X171414Y145764D01*
X171321Y145687D01*
X171231Y145606D01*
X171143Y145523D01*
X171058Y145437D01*
X170975Y145348D01*
X170896Y145257D01*
X170819Y145163D01*
X170746Y145067D01*
X170676Y144969D01*
X170609Y144868D01*
X170545Y144765D01*
X170485Y144660D01*
X170428Y144553D01*
X170374Y144445D01*
X170324Y144335D01*
X170278Y144223D01*
X170235Y144110D01*
X170196Y143995D01*
X175714Y141399D02*
X175793Y141476D01*
X175869Y141557D01*
X175942Y141640D01*
X176012Y141725D01*
X176079Y141813D01*
X176143Y141903D01*
X176203Y141995D01*
X176260Y142090D01*
X176314Y142186D01*
X176365Y142284D01*
X176412Y142384D01*
X176456Y142486D01*
X176496Y142589D01*
X176532Y142693D01*
X176564Y142799D01*
X176593Y142905D01*
X176618Y143013D01*
X176640Y143121D01*
X176657Y143231D01*
X176671Y143340D01*
X176680Y143450D01*
X176686Y143561D01*
X176688Y143671D01*
X175714Y141399D02*
X170196Y134908D01*
X176687Y134908D01*
X148592Y103106D02*
X148592Y100509D01*
X148590Y100410D01*
X148584Y100310D01*
X148575Y100211D01*
X148562Y100113D01*
X148545Y100015D01*
X148524Y99917D01*
X148499Y99821D01*
X148471Y99726D01*
X148439Y99632D01*
X148404Y99539D01*
X148365Y99447D01*
X148322Y99357D01*
X148277Y99269D01*
X148227Y99182D01*
X148175Y99098D01*
X148119Y99015D01*
X148061Y98935D01*
X147999Y98857D01*
X147934Y98782D01*
X147866Y98709D01*
X147796Y98639D01*
X147723Y98571D01*
X147648Y98506D01*
X147570Y98444D01*
X147490Y98386D01*
X147407Y98330D01*
X147323Y98278D01*
X147236Y98228D01*
X147148Y98183D01*
X147058Y98140D01*
X146966Y98101D01*
X146873Y98066D01*
X146779Y98034D01*
X146684Y98006D01*
X146588Y97981D01*
X146490Y97960D01*
X146392Y97943D01*
X146294Y97930D01*
X146195Y97921D01*
X146095Y97915D01*
X145996Y97913D01*
X139504Y97913D01*
X139504Y97912D02*
X139405Y97914D01*
X139305Y97920D01*
X139206Y97929D01*
X139108Y97942D01*
X139010Y97960D01*
X138912Y97980D01*
X138816Y98005D01*
X138720Y98033D01*
X138626Y98065D01*
X138533Y98100D01*
X138442Y98139D01*
X138352Y98182D01*
X138263Y98227D01*
X138177Y98277D01*
X138092Y98329D01*
X138010Y98385D01*
X137930Y98444D01*
X137852Y98505D01*
X137776Y98570D01*
X137703Y98638D01*
X137633Y98708D01*
X137565Y98781D01*
X137500Y98857D01*
X137439Y98935D01*
X137380Y99015D01*
X137324Y99097D01*
X137272Y99182D01*
X137223Y99268D01*
X137177Y99357D01*
X137134Y99447D01*
X137095Y99538D01*
X137060Y99631D01*
X137028Y99725D01*
X137000Y99821D01*
X136975Y99917D01*
X136955Y100015D01*
X136937Y100113D01*
X136924Y100211D01*
X136915Y100310D01*
X136909Y100409D01*
X136907Y100509D01*
X136908Y100509D02*
X136908Y103106D01*
X136908Y111041D02*
X136910Y111148D01*
X136916Y111254D01*
X136926Y111360D01*
X136939Y111466D01*
X136957Y111572D01*
X136978Y111676D01*
X137003Y111780D01*
X137032Y111883D01*
X137064Y111984D01*
X137101Y112084D01*
X137141Y112183D01*
X137184Y112281D01*
X137231Y112377D01*
X137282Y112471D01*
X137336Y112563D01*
X137393Y112653D01*
X137453Y112741D01*
X137517Y112826D01*
X137584Y112909D01*
X137654Y112990D01*
X137726Y113068D01*
X137802Y113144D01*
X137880Y113216D01*
X137961Y113286D01*
X138044Y113353D01*
X138129Y113417D01*
X138217Y113477D01*
X138307Y113534D01*
X138399Y113588D01*
X138493Y113639D01*
X138589Y113686D01*
X138687Y113729D01*
X138786Y113769D01*
X138886Y113806D01*
X138987Y113838D01*
X139090Y113867D01*
X139194Y113892D01*
X139298Y113913D01*
X139404Y113931D01*
X139510Y113944D01*
X139616Y113954D01*
X139722Y113960D01*
X139829Y113962D01*
X136908Y111041D02*
X136910Y110920D01*
X136916Y110799D01*
X136926Y110679D01*
X136939Y110558D01*
X136957Y110439D01*
X136978Y110319D01*
X137003Y110201D01*
X137032Y110084D01*
X137065Y109967D01*
X137101Y109852D01*
X137142Y109738D01*
X137185Y109625D01*
X137233Y109513D01*
X137284Y109404D01*
X137339Y109296D01*
X137397Y109189D01*
X137458Y109085D01*
X137523Y108983D01*
X137591Y108883D01*
X137662Y108785D01*
X137736Y108689D01*
X137813Y108596D01*
X137894Y108506D01*
X137977Y108418D01*
X138063Y108333D01*
X138152Y108250D01*
X138243Y108171D01*
X138337Y108094D01*
X138433Y108021D01*
X138531Y107951D01*
X138632Y107884D01*
X138735Y107820D01*
X138840Y107760D01*
X138947Y107702D01*
X139055Y107649D01*
X139165Y107599D01*
X139277Y107553D01*
X139390Y107510D01*
X139505Y107471D01*
X142101Y112988D02*
X142023Y113067D01*
X141943Y113143D01*
X141860Y113216D01*
X141774Y113286D01*
X141687Y113353D01*
X141596Y113417D01*
X141504Y113477D01*
X141410Y113535D01*
X141313Y113589D01*
X141215Y113639D01*
X141115Y113686D01*
X141014Y113730D01*
X140911Y113770D01*
X140806Y113806D01*
X140701Y113838D01*
X140594Y113867D01*
X140487Y113892D01*
X140378Y113914D01*
X140269Y113931D01*
X140160Y113945D01*
X140050Y113954D01*
X139939Y113960D01*
X139829Y113962D01*
X142101Y112988D02*
X148592Y107471D01*
X148592Y113962D01*
X148592Y118901D02*
X148592Y122146D01*
X148590Y122259D01*
X148584Y122372D01*
X148574Y122485D01*
X148560Y122598D01*
X148543Y122710D01*
X148521Y122821D01*
X148496Y122931D01*
X148466Y123041D01*
X148433Y123149D01*
X148396Y123256D01*
X148356Y123362D01*
X148311Y123466D01*
X148263Y123569D01*
X148212Y123670D01*
X148157Y123769D01*
X148099Y123866D01*
X148037Y123961D01*
X147972Y124054D01*
X147904Y124144D01*
X147833Y124232D01*
X147758Y124318D01*
X147681Y124401D01*
X147601Y124481D01*
X147518Y124558D01*
X147432Y124633D01*
X147344Y124704D01*
X147254Y124772D01*
X147161Y124837D01*
X147066Y124899D01*
X146969Y124957D01*
X146870Y125012D01*
X146769Y125063D01*
X146666Y125111D01*
X146562Y125156D01*
X146456Y125196D01*
X146349Y125233D01*
X146241Y125266D01*
X146131Y125296D01*
X146021Y125321D01*
X145910Y125343D01*
X145798Y125360D01*
X145685Y125374D01*
X145572Y125384D01*
X145459Y125390D01*
X145346Y125392D01*
X145233Y125390D01*
X145120Y125384D01*
X145007Y125374D01*
X144894Y125360D01*
X144782Y125343D01*
X144671Y125321D01*
X144561Y125296D01*
X144451Y125266D01*
X144343Y125233D01*
X144236Y125196D01*
X144130Y125156D01*
X144026Y125111D01*
X143923Y125063D01*
X143822Y125012D01*
X143723Y124957D01*
X143626Y124899D01*
X143531Y124837D01*
X143438Y124772D01*
X143348Y124704D01*
X143260Y124633D01*
X143174Y124558D01*
X143091Y124481D01*
X143011Y124401D01*
X142934Y124318D01*
X142859Y124232D01*
X142788Y124144D01*
X142720Y124054D01*
X142655Y123961D01*
X142593Y123866D01*
X142535Y123769D01*
X142480Y123670D01*
X142429Y123569D01*
X142381Y123466D01*
X142336Y123362D01*
X142296Y123256D01*
X142259Y123149D01*
X142226Y123041D01*
X142196Y122931D01*
X142171Y122821D01*
X142149Y122710D01*
X142132Y122598D01*
X142118Y122485D01*
X142108Y122372D01*
X142102Y122259D01*
X142100Y122146D01*
X136908Y122796D02*
X136908Y118901D01*
X136908Y122796D02*
X136910Y122897D01*
X136916Y122997D01*
X136926Y123097D01*
X136939Y123197D01*
X136957Y123296D01*
X136978Y123395D01*
X137003Y123492D01*
X137032Y123589D01*
X137065Y123684D01*
X137101Y123778D01*
X137141Y123870D01*
X137184Y123961D01*
X137231Y124050D01*
X137281Y124137D01*
X137335Y124223D01*
X137392Y124306D01*
X137452Y124386D01*
X137515Y124465D01*
X137582Y124541D01*
X137651Y124614D01*
X137723Y124684D01*
X137797Y124752D01*
X137874Y124817D01*
X137954Y124878D01*
X138036Y124937D01*
X138120Y124992D01*
X138206Y125044D01*
X138294Y125093D01*
X138384Y125138D01*
X138476Y125180D01*
X138569Y125218D01*
X138664Y125252D01*
X138759Y125283D01*
X138856Y125310D01*
X138954Y125333D01*
X139053Y125353D01*
X139153Y125368D01*
X139253Y125380D01*
X139353Y125388D01*
X139454Y125392D01*
X139554Y125392D01*
X139655Y125388D01*
X139755Y125380D01*
X139855Y125368D01*
X139955Y125353D01*
X140054Y125333D01*
X140152Y125310D01*
X140249Y125283D01*
X140344Y125252D01*
X140439Y125218D01*
X140532Y125180D01*
X140624Y125138D01*
X140714Y125093D01*
X140802Y125044D01*
X140888Y124992D01*
X140972Y124937D01*
X141054Y124878D01*
X141134Y124817D01*
X141211Y124752D01*
X141285Y124684D01*
X141357Y124614D01*
X141426Y124541D01*
X141493Y124465D01*
X141556Y124386D01*
X141616Y124306D01*
X141673Y124223D01*
X141727Y124137D01*
X141777Y124050D01*
X141824Y123961D01*
X141867Y123870D01*
X141907Y123778D01*
X141943Y123684D01*
X141976Y123589D01*
X142005Y123492D01*
X142030Y123395D01*
X142051Y123296D01*
X142069Y123197D01*
X142082Y123097D01*
X142092Y122997D01*
X142098Y122897D01*
X142100Y122796D01*
X142101Y122796D02*
X142101Y120199D01*
X127201Y401408D02*
X124604Y401408D01*
X124505Y401410D01*
X124405Y401416D01*
X124306Y401425D01*
X124208Y401438D01*
X124110Y401455D01*
X124012Y401476D01*
X123916Y401501D01*
X123821Y401529D01*
X123727Y401561D01*
X123634Y401596D01*
X123542Y401635D01*
X123452Y401678D01*
X123364Y401723D01*
X123277Y401773D01*
X123193Y401825D01*
X123110Y401881D01*
X123030Y401939D01*
X122952Y402001D01*
X122877Y402066D01*
X122804Y402134D01*
X122734Y402204D01*
X122666Y402277D01*
X122601Y402352D01*
X122539Y402430D01*
X122481Y402510D01*
X122425Y402593D01*
X122373Y402677D01*
X122323Y402764D01*
X122278Y402852D01*
X122235Y402942D01*
X122196Y403034D01*
X122161Y403127D01*
X122129Y403221D01*
X122101Y403316D01*
X122076Y403412D01*
X122055Y403510D01*
X122038Y403608D01*
X122025Y403706D01*
X122016Y403805D01*
X122010Y403905D01*
X122008Y404004D01*
X122008Y410496D01*
X122010Y410595D01*
X122016Y410695D01*
X122025Y410794D01*
X122038Y410892D01*
X122055Y410990D01*
X122076Y411088D01*
X122101Y411184D01*
X122129Y411279D01*
X122161Y411373D01*
X122196Y411466D01*
X122235Y411558D01*
X122278Y411648D01*
X122323Y411736D01*
X122373Y411823D01*
X122425Y411907D01*
X122481Y411990D01*
X122539Y412070D01*
X122601Y412148D01*
X122666Y412223D01*
X122734Y412296D01*
X122804Y412366D01*
X122877Y412434D01*
X122952Y412499D01*
X123030Y412561D01*
X123110Y412619D01*
X123193Y412675D01*
X123277Y412727D01*
X123364Y412777D01*
X123452Y412822D01*
X123542Y412865D01*
X123634Y412904D01*
X123726Y412939D01*
X123821Y412971D01*
X123916Y412999D01*
X124012Y413024D01*
X124110Y413045D01*
X124208Y413062D01*
X124306Y413075D01*
X124405Y413084D01*
X124505Y413090D01*
X124604Y413092D01*
X127201Y413092D01*
X135136Y413092D02*
X135243Y413090D01*
X135349Y413084D01*
X135455Y413074D01*
X135561Y413061D01*
X135667Y413043D01*
X135771Y413022D01*
X135875Y412997D01*
X135978Y412968D01*
X136079Y412936D01*
X136179Y412899D01*
X136278Y412859D01*
X136376Y412816D01*
X136472Y412769D01*
X136566Y412718D01*
X136658Y412664D01*
X136748Y412607D01*
X136836Y412547D01*
X136921Y412483D01*
X137004Y412416D01*
X137085Y412346D01*
X137163Y412274D01*
X137239Y412198D01*
X137311Y412120D01*
X137381Y412039D01*
X137448Y411956D01*
X137512Y411871D01*
X137572Y411783D01*
X137629Y411693D01*
X137683Y411601D01*
X137734Y411507D01*
X137781Y411411D01*
X137824Y411313D01*
X137864Y411214D01*
X137901Y411114D01*
X137933Y411013D01*
X137962Y410910D01*
X137987Y410806D01*
X138008Y410702D01*
X138026Y410596D01*
X138039Y410490D01*
X138049Y410384D01*
X138055Y410278D01*
X138057Y410171D01*
X135136Y413092D02*
X135015Y413090D01*
X134894Y413084D01*
X134774Y413074D01*
X134653Y413061D01*
X134534Y413043D01*
X134414Y413022D01*
X134296Y412997D01*
X134179Y412968D01*
X134062Y412935D01*
X133947Y412899D01*
X133833Y412858D01*
X133720Y412815D01*
X133608Y412767D01*
X133499Y412716D01*
X133391Y412661D01*
X133284Y412603D01*
X133180Y412542D01*
X133078Y412477D01*
X132978Y412409D01*
X132880Y412338D01*
X132784Y412264D01*
X132691Y412187D01*
X132601Y412106D01*
X132513Y412023D01*
X132428Y411937D01*
X132345Y411848D01*
X132266Y411757D01*
X132189Y411663D01*
X132116Y411567D01*
X132046Y411469D01*
X131979Y411368D01*
X131915Y411265D01*
X131855Y411160D01*
X131798Y411053D01*
X131744Y410945D01*
X131694Y410835D01*
X131648Y410723D01*
X131605Y410610D01*
X131566Y410495D01*
X137084Y407899D02*
X137163Y407976D01*
X137239Y408057D01*
X137312Y408140D01*
X137382Y408225D01*
X137449Y408313D01*
X137513Y408403D01*
X137573Y408495D01*
X137630Y408590D01*
X137684Y408686D01*
X137735Y408784D01*
X137782Y408884D01*
X137826Y408986D01*
X137866Y409089D01*
X137902Y409193D01*
X137934Y409299D01*
X137963Y409405D01*
X137988Y409513D01*
X138010Y409621D01*
X138027Y409731D01*
X138041Y409840D01*
X138050Y409950D01*
X138056Y410061D01*
X138058Y410171D01*
X137084Y407899D02*
X131566Y401408D01*
X138057Y401408D01*
X142996Y404004D02*
X145593Y413092D01*
X142996Y404004D02*
X149487Y404004D01*
X147540Y406601D02*
X147540Y401408D01*
X119606Y309308D02*
X117009Y309308D01*
X116910Y309310D01*
X116810Y309316D01*
X116711Y309325D01*
X116613Y309338D01*
X116515Y309355D01*
X116417Y309376D01*
X116321Y309401D01*
X116226Y309429D01*
X116132Y309461D01*
X116039Y309496D01*
X115947Y309535D01*
X115857Y309578D01*
X115769Y309623D01*
X115682Y309673D01*
X115598Y309725D01*
X115515Y309781D01*
X115435Y309839D01*
X115357Y309901D01*
X115282Y309966D01*
X115209Y310034D01*
X115139Y310104D01*
X115071Y310177D01*
X115006Y310252D01*
X114944Y310330D01*
X114886Y310410D01*
X114830Y310493D01*
X114778Y310577D01*
X114728Y310664D01*
X114683Y310752D01*
X114640Y310842D01*
X114601Y310934D01*
X114566Y311027D01*
X114534Y311121D01*
X114506Y311216D01*
X114481Y311312D01*
X114460Y311410D01*
X114443Y311508D01*
X114430Y311606D01*
X114421Y311705D01*
X114415Y311805D01*
X114413Y311904D01*
X114413Y318396D01*
X114415Y318495D01*
X114421Y318595D01*
X114430Y318694D01*
X114443Y318792D01*
X114460Y318890D01*
X114481Y318988D01*
X114506Y319084D01*
X114534Y319179D01*
X114566Y319273D01*
X114601Y319366D01*
X114640Y319458D01*
X114683Y319548D01*
X114728Y319636D01*
X114778Y319723D01*
X114830Y319807D01*
X114886Y319890D01*
X114944Y319970D01*
X115006Y320048D01*
X115071Y320123D01*
X115139Y320196D01*
X115209Y320266D01*
X115282Y320334D01*
X115357Y320399D01*
X115435Y320461D01*
X115515Y320519D01*
X115598Y320575D01*
X115682Y320627D01*
X115769Y320677D01*
X115857Y320722D01*
X115947Y320765D01*
X116039Y320804D01*
X116131Y320839D01*
X116226Y320871D01*
X116321Y320899D01*
X116417Y320924D01*
X116515Y320945D01*
X116613Y320962D01*
X116711Y320975D01*
X116810Y320984D01*
X116910Y320990D01*
X117009Y320992D01*
X119606Y320992D01*
X127541Y320992D02*
X127648Y320990D01*
X127754Y320984D01*
X127860Y320974D01*
X127966Y320961D01*
X128072Y320943D01*
X128176Y320922D01*
X128280Y320897D01*
X128383Y320868D01*
X128484Y320836D01*
X128584Y320799D01*
X128683Y320759D01*
X128781Y320716D01*
X128877Y320669D01*
X128971Y320618D01*
X129063Y320564D01*
X129153Y320507D01*
X129241Y320447D01*
X129326Y320383D01*
X129409Y320316D01*
X129490Y320246D01*
X129568Y320174D01*
X129644Y320098D01*
X129716Y320020D01*
X129786Y319939D01*
X129853Y319856D01*
X129917Y319771D01*
X129977Y319683D01*
X130034Y319593D01*
X130088Y319501D01*
X130139Y319407D01*
X130186Y319311D01*
X130229Y319213D01*
X130269Y319114D01*
X130306Y319014D01*
X130338Y318913D01*
X130367Y318810D01*
X130392Y318706D01*
X130413Y318602D01*
X130431Y318496D01*
X130444Y318390D01*
X130454Y318284D01*
X130460Y318178D01*
X130462Y318071D01*
X127541Y320992D02*
X127420Y320990D01*
X127299Y320984D01*
X127179Y320974D01*
X127058Y320961D01*
X126939Y320943D01*
X126819Y320922D01*
X126701Y320897D01*
X126584Y320868D01*
X126467Y320835D01*
X126352Y320799D01*
X126238Y320758D01*
X126125Y320715D01*
X126013Y320667D01*
X125904Y320616D01*
X125796Y320561D01*
X125689Y320503D01*
X125585Y320442D01*
X125483Y320377D01*
X125383Y320309D01*
X125285Y320238D01*
X125189Y320164D01*
X125096Y320087D01*
X125006Y320006D01*
X124918Y319923D01*
X124833Y319837D01*
X124750Y319748D01*
X124671Y319657D01*
X124594Y319563D01*
X124521Y319467D01*
X124451Y319369D01*
X124384Y319268D01*
X124320Y319165D01*
X124260Y319060D01*
X124203Y318953D01*
X124149Y318845D01*
X124099Y318735D01*
X124053Y318623D01*
X124010Y318510D01*
X123971Y318395D01*
X129489Y315799D02*
X129568Y315876D01*
X129644Y315957D01*
X129717Y316040D01*
X129787Y316125D01*
X129854Y316213D01*
X129918Y316303D01*
X129978Y316395D01*
X130035Y316490D01*
X130089Y316586D01*
X130140Y316684D01*
X130187Y316784D01*
X130231Y316886D01*
X130271Y316989D01*
X130307Y317093D01*
X130339Y317199D01*
X130368Y317305D01*
X130393Y317413D01*
X130415Y317521D01*
X130432Y317631D01*
X130446Y317740D01*
X130455Y317850D01*
X130461Y317961D01*
X130463Y318071D01*
X129488Y315799D02*
X123971Y309308D01*
X130462Y309308D01*
X135401Y309308D02*
X139296Y309308D01*
X139395Y309310D01*
X139495Y309316D01*
X139594Y309325D01*
X139692Y309338D01*
X139790Y309355D01*
X139888Y309376D01*
X139984Y309401D01*
X140079Y309429D01*
X140173Y309461D01*
X140266Y309496D01*
X140358Y309535D01*
X140448Y309578D01*
X140536Y309623D01*
X140623Y309673D01*
X140707Y309725D01*
X140790Y309781D01*
X140870Y309839D01*
X140948Y309901D01*
X141023Y309966D01*
X141096Y310034D01*
X141166Y310104D01*
X141234Y310177D01*
X141299Y310252D01*
X141361Y310330D01*
X141419Y310410D01*
X141475Y310493D01*
X141527Y310577D01*
X141577Y310664D01*
X141622Y310752D01*
X141665Y310842D01*
X141704Y310934D01*
X141739Y311027D01*
X141771Y311121D01*
X141799Y311216D01*
X141824Y311312D01*
X141845Y311410D01*
X141862Y311508D01*
X141875Y311606D01*
X141884Y311705D01*
X141890Y311805D01*
X141892Y311904D01*
X141892Y313203D01*
X141890Y313302D01*
X141884Y313402D01*
X141875Y313501D01*
X141862Y313599D01*
X141845Y313697D01*
X141824Y313795D01*
X141799Y313891D01*
X141771Y313986D01*
X141739Y314080D01*
X141704Y314173D01*
X141665Y314265D01*
X141622Y314355D01*
X141577Y314443D01*
X141527Y314530D01*
X141475Y314614D01*
X141419Y314697D01*
X141361Y314777D01*
X141299Y314855D01*
X141234Y314930D01*
X141166Y315003D01*
X141096Y315073D01*
X141023Y315141D01*
X140948Y315206D01*
X140870Y315268D01*
X140790Y315326D01*
X140707Y315382D01*
X140623Y315434D01*
X140536Y315484D01*
X140448Y315529D01*
X140358Y315572D01*
X140266Y315611D01*
X140173Y315646D01*
X140079Y315678D01*
X139984Y315706D01*
X139888Y315731D01*
X139790Y315752D01*
X139692Y315769D01*
X139594Y315782D01*
X139495Y315791D01*
X139395Y315797D01*
X139296Y315799D01*
X135401Y315799D01*
X135401Y320992D01*
X141892Y320992D01*
X290692Y109201D02*
X290692Y106604D01*
X290690Y106505D01*
X290684Y106405D01*
X290675Y106306D01*
X290662Y106208D01*
X290645Y106110D01*
X290624Y106012D01*
X290599Y105916D01*
X290571Y105821D01*
X290539Y105727D01*
X290504Y105634D01*
X290465Y105542D01*
X290422Y105452D01*
X290377Y105364D01*
X290327Y105277D01*
X290275Y105193D01*
X290219Y105110D01*
X290161Y105030D01*
X290099Y104952D01*
X290034Y104877D01*
X289966Y104804D01*
X289896Y104734D01*
X289823Y104666D01*
X289748Y104601D01*
X289670Y104539D01*
X289590Y104481D01*
X289507Y104425D01*
X289423Y104373D01*
X289336Y104323D01*
X289248Y104278D01*
X289158Y104235D01*
X289066Y104196D01*
X288973Y104161D01*
X288879Y104129D01*
X288784Y104101D01*
X288688Y104076D01*
X288590Y104055D01*
X288492Y104038D01*
X288394Y104025D01*
X288295Y104016D01*
X288195Y104010D01*
X288096Y104008D01*
X281604Y104008D01*
X281505Y104010D01*
X281405Y104016D01*
X281306Y104025D01*
X281208Y104038D01*
X281110Y104056D01*
X281012Y104076D01*
X280916Y104101D01*
X280820Y104129D01*
X280726Y104161D01*
X280633Y104196D01*
X280542Y104235D01*
X280452Y104278D01*
X280363Y104323D01*
X280277Y104373D01*
X280192Y104425D01*
X280110Y104481D01*
X280030Y104540D01*
X279952Y104601D01*
X279876Y104666D01*
X279803Y104734D01*
X279733Y104804D01*
X279665Y104877D01*
X279600Y104953D01*
X279539Y105031D01*
X279480Y105111D01*
X279424Y105193D01*
X279372Y105278D01*
X279323Y105364D01*
X279277Y105453D01*
X279234Y105543D01*
X279195Y105634D01*
X279160Y105727D01*
X279128Y105821D01*
X279100Y105917D01*
X279075Y106013D01*
X279055Y106111D01*
X279037Y106209D01*
X279024Y106307D01*
X279015Y106406D01*
X279009Y106505D01*
X279007Y106605D01*
X279008Y106604D02*
X279008Y109201D01*
X279008Y117136D02*
X279010Y117243D01*
X279016Y117349D01*
X279026Y117455D01*
X279039Y117561D01*
X279057Y117667D01*
X279078Y117771D01*
X279103Y117875D01*
X279132Y117978D01*
X279164Y118079D01*
X279201Y118179D01*
X279241Y118278D01*
X279284Y118376D01*
X279331Y118472D01*
X279382Y118566D01*
X279436Y118658D01*
X279493Y118748D01*
X279553Y118836D01*
X279617Y118921D01*
X279684Y119004D01*
X279754Y119085D01*
X279826Y119163D01*
X279902Y119239D01*
X279980Y119311D01*
X280061Y119381D01*
X280144Y119448D01*
X280229Y119512D01*
X280317Y119572D01*
X280407Y119629D01*
X280499Y119683D01*
X280593Y119734D01*
X280689Y119781D01*
X280787Y119824D01*
X280886Y119864D01*
X280986Y119901D01*
X281087Y119933D01*
X281190Y119962D01*
X281294Y119987D01*
X281398Y120008D01*
X281504Y120026D01*
X281610Y120039D01*
X281716Y120049D01*
X281822Y120055D01*
X281929Y120057D01*
X279008Y117136D02*
X279010Y117015D01*
X279016Y116894D01*
X279026Y116774D01*
X279039Y116653D01*
X279057Y116534D01*
X279078Y116414D01*
X279103Y116296D01*
X279132Y116179D01*
X279165Y116062D01*
X279201Y115947D01*
X279242Y115833D01*
X279285Y115720D01*
X279333Y115608D01*
X279384Y115499D01*
X279439Y115391D01*
X279497Y115284D01*
X279558Y115180D01*
X279623Y115078D01*
X279691Y114978D01*
X279762Y114880D01*
X279836Y114784D01*
X279913Y114691D01*
X279994Y114601D01*
X280077Y114513D01*
X280163Y114428D01*
X280252Y114345D01*
X280343Y114266D01*
X280437Y114189D01*
X280533Y114116D01*
X280631Y114046D01*
X280732Y113979D01*
X280835Y113915D01*
X280940Y113855D01*
X281047Y113797D01*
X281155Y113744D01*
X281265Y113694D01*
X281377Y113648D01*
X281490Y113605D01*
X281605Y113566D01*
X284201Y119083D02*
X284123Y119162D01*
X284043Y119238D01*
X283960Y119311D01*
X283874Y119381D01*
X283787Y119448D01*
X283696Y119512D01*
X283604Y119572D01*
X283510Y119630D01*
X283413Y119684D01*
X283315Y119734D01*
X283215Y119781D01*
X283114Y119825D01*
X283011Y119865D01*
X282906Y119901D01*
X282801Y119933D01*
X282694Y119962D01*
X282587Y119987D01*
X282478Y120009D01*
X282369Y120026D01*
X282260Y120040D01*
X282150Y120049D01*
X282039Y120055D01*
X281929Y120057D01*
X284201Y119084D02*
X290692Y113566D01*
X290692Y120057D01*
X287446Y124996D02*
X287333Y124998D01*
X287220Y125004D01*
X287107Y125014D01*
X286994Y125028D01*
X286882Y125045D01*
X286771Y125067D01*
X286661Y125092D01*
X286551Y125122D01*
X286443Y125155D01*
X286336Y125192D01*
X286230Y125232D01*
X286126Y125277D01*
X286023Y125325D01*
X285922Y125376D01*
X285823Y125431D01*
X285726Y125489D01*
X285631Y125551D01*
X285538Y125616D01*
X285448Y125684D01*
X285360Y125755D01*
X285274Y125830D01*
X285191Y125907D01*
X285111Y125987D01*
X285034Y126070D01*
X284959Y126156D01*
X284888Y126244D01*
X284820Y126334D01*
X284755Y126427D01*
X284693Y126522D01*
X284635Y126619D01*
X284580Y126718D01*
X284529Y126819D01*
X284481Y126922D01*
X284436Y127026D01*
X284396Y127132D01*
X284359Y127239D01*
X284326Y127347D01*
X284296Y127457D01*
X284271Y127567D01*
X284249Y127678D01*
X284232Y127790D01*
X284218Y127903D01*
X284208Y128016D01*
X284202Y128129D01*
X284200Y128242D01*
X284202Y128355D01*
X284208Y128468D01*
X284218Y128581D01*
X284232Y128694D01*
X284249Y128806D01*
X284271Y128917D01*
X284296Y129027D01*
X284326Y129137D01*
X284359Y129245D01*
X284396Y129352D01*
X284436Y129458D01*
X284481Y129562D01*
X284529Y129665D01*
X284580Y129766D01*
X284635Y129865D01*
X284693Y129962D01*
X284755Y130057D01*
X284820Y130150D01*
X284888Y130240D01*
X284959Y130328D01*
X285034Y130414D01*
X285111Y130497D01*
X285191Y130577D01*
X285274Y130654D01*
X285360Y130729D01*
X285448Y130800D01*
X285538Y130868D01*
X285631Y130933D01*
X285726Y130995D01*
X285823Y131053D01*
X285922Y131108D01*
X286023Y131159D01*
X286126Y131207D01*
X286230Y131252D01*
X286336Y131292D01*
X286443Y131329D01*
X286551Y131362D01*
X286661Y131392D01*
X286771Y131417D01*
X286882Y131439D01*
X286994Y131456D01*
X287107Y131470D01*
X287220Y131480D01*
X287333Y131486D01*
X287446Y131488D01*
X287559Y131486D01*
X287672Y131480D01*
X287785Y131470D01*
X287898Y131456D01*
X288010Y131439D01*
X288121Y131417D01*
X288231Y131392D01*
X288341Y131362D01*
X288449Y131329D01*
X288556Y131292D01*
X288662Y131252D01*
X288766Y131207D01*
X288869Y131159D01*
X288970Y131108D01*
X289069Y131053D01*
X289166Y130995D01*
X289261Y130933D01*
X289354Y130868D01*
X289444Y130800D01*
X289532Y130729D01*
X289618Y130654D01*
X289701Y130577D01*
X289781Y130497D01*
X289858Y130414D01*
X289933Y130328D01*
X290004Y130240D01*
X290072Y130150D01*
X290137Y130057D01*
X290199Y129962D01*
X290257Y129865D01*
X290312Y129766D01*
X290363Y129665D01*
X290411Y129562D01*
X290456Y129458D01*
X290496Y129352D01*
X290533Y129245D01*
X290566Y129137D01*
X290596Y129027D01*
X290621Y128917D01*
X290643Y128806D01*
X290660Y128694D01*
X290674Y128581D01*
X290684Y128468D01*
X290690Y128355D01*
X290692Y128242D01*
X290690Y128129D01*
X290684Y128016D01*
X290674Y127903D01*
X290660Y127790D01*
X290643Y127678D01*
X290621Y127567D01*
X290596Y127457D01*
X290566Y127347D01*
X290533Y127239D01*
X290496Y127132D01*
X290456Y127026D01*
X290411Y126922D01*
X290363Y126819D01*
X290312Y126718D01*
X290257Y126619D01*
X290199Y126522D01*
X290137Y126427D01*
X290072Y126334D01*
X290004Y126244D01*
X289933Y126156D01*
X289858Y126070D01*
X289781Y125987D01*
X289701Y125907D01*
X289618Y125830D01*
X289532Y125755D01*
X289444Y125684D01*
X289354Y125616D01*
X289261Y125551D01*
X289166Y125489D01*
X289069Y125431D01*
X288970Y125376D01*
X288869Y125325D01*
X288766Y125277D01*
X288662Y125232D01*
X288556Y125192D01*
X288449Y125155D01*
X288341Y125122D01*
X288231Y125092D01*
X288121Y125067D01*
X288010Y125045D01*
X287898Y125028D01*
X287785Y125014D01*
X287672Y125004D01*
X287559Y124998D01*
X287446Y124996D01*
X281604Y125646D02*
X281503Y125648D01*
X281403Y125654D01*
X281303Y125664D01*
X281203Y125677D01*
X281104Y125695D01*
X281005Y125716D01*
X280908Y125741D01*
X280811Y125770D01*
X280716Y125803D01*
X280622Y125839D01*
X280530Y125879D01*
X280439Y125922D01*
X280350Y125969D01*
X280263Y126019D01*
X280177Y126073D01*
X280094Y126130D01*
X280014Y126190D01*
X279935Y126253D01*
X279859Y126320D01*
X279786Y126389D01*
X279716Y126461D01*
X279648Y126535D01*
X279583Y126612D01*
X279522Y126692D01*
X279463Y126774D01*
X279408Y126858D01*
X279356Y126944D01*
X279307Y127032D01*
X279262Y127122D01*
X279220Y127214D01*
X279182Y127307D01*
X279148Y127402D01*
X279117Y127497D01*
X279090Y127594D01*
X279067Y127692D01*
X279047Y127791D01*
X279032Y127891D01*
X279020Y127991D01*
X279012Y128091D01*
X279008Y128192D01*
X279008Y128292D01*
X279012Y128393D01*
X279020Y128493D01*
X279032Y128593D01*
X279047Y128693D01*
X279067Y128792D01*
X279090Y128890D01*
X279117Y128987D01*
X279148Y129082D01*
X279182Y129177D01*
X279220Y129270D01*
X279262Y129362D01*
X279307Y129452D01*
X279356Y129540D01*
X279408Y129626D01*
X279463Y129710D01*
X279522Y129792D01*
X279583Y129872D01*
X279648Y129949D01*
X279716Y130023D01*
X279786Y130095D01*
X279859Y130164D01*
X279935Y130231D01*
X280014Y130294D01*
X280094Y130354D01*
X280177Y130411D01*
X280263Y130465D01*
X280350Y130515D01*
X280439Y130562D01*
X280530Y130605D01*
X280622Y130645D01*
X280716Y130681D01*
X280811Y130714D01*
X280908Y130743D01*
X281005Y130768D01*
X281104Y130789D01*
X281203Y130807D01*
X281303Y130820D01*
X281403Y130830D01*
X281503Y130836D01*
X281604Y130838D01*
X281705Y130836D01*
X281805Y130830D01*
X281905Y130820D01*
X282005Y130807D01*
X282104Y130789D01*
X282203Y130768D01*
X282300Y130743D01*
X282397Y130714D01*
X282492Y130681D01*
X282586Y130645D01*
X282678Y130605D01*
X282769Y130562D01*
X282858Y130515D01*
X282945Y130465D01*
X283031Y130411D01*
X283114Y130354D01*
X283194Y130294D01*
X283273Y130231D01*
X283349Y130164D01*
X283422Y130095D01*
X283492Y130023D01*
X283560Y129949D01*
X283625Y129872D01*
X283686Y129792D01*
X283745Y129710D01*
X283800Y129626D01*
X283852Y129540D01*
X283901Y129452D01*
X283946Y129362D01*
X283988Y129270D01*
X284026Y129177D01*
X284060Y129082D01*
X284091Y128987D01*
X284118Y128890D01*
X284141Y128792D01*
X284161Y128693D01*
X284176Y128593D01*
X284188Y128493D01*
X284196Y128393D01*
X284200Y128292D01*
X284200Y128192D01*
X284196Y128091D01*
X284188Y127991D01*
X284176Y127891D01*
X284161Y127791D01*
X284141Y127692D01*
X284118Y127594D01*
X284091Y127497D01*
X284060Y127402D01*
X284026Y127307D01*
X283988Y127214D01*
X283946Y127122D01*
X283901Y127032D01*
X283852Y126944D01*
X283800Y126858D01*
X283745Y126774D01*
X283686Y126692D01*
X283625Y126612D01*
X283560Y126535D01*
X283492Y126461D01*
X283422Y126389D01*
X283349Y126320D01*
X283273Y126253D01*
X283194Y126190D01*
X283114Y126130D01*
X283031Y126073D01*
X282945Y126019D01*
X282858Y125969D01*
X282769Y125922D01*
X282678Y125879D01*
X282586Y125839D01*
X282492Y125803D01*
X282397Y125770D01*
X282300Y125741D01*
X282203Y125716D01*
X282104Y125695D01*
X282005Y125677D01*
X281905Y125664D01*
X281805Y125654D01*
X281705Y125648D01*
X281604Y125646D01*
D11*
X100500Y85250D02*
X100500Y72550D01*
X94150Y66200D01*
X81450Y66200D01*
X75100Y72550D01*
X100500Y110650D02*
X94150Y117000D01*
X100500Y110650D02*
X100500Y97950D01*
X94150Y91600D01*
X81450Y91600D01*
X75100Y97950D01*
X75100Y110650D01*
X81450Y117000D01*
X94150Y91600D02*
X100500Y85250D01*
X81450Y91600D02*
X75100Y85250D01*
X75100Y72550D01*
X100500Y148750D02*
X100500Y161450D01*
X100500Y148750D02*
X94150Y142400D01*
X81450Y142400D01*
X75100Y148750D01*
X94150Y142400D02*
X100500Y136050D01*
X100500Y123350D01*
X94150Y117000D01*
X81450Y117000D01*
X75100Y123350D01*
X75100Y136050D01*
X81450Y142400D01*
X100500Y186850D02*
X94150Y193200D01*
X100500Y186850D02*
X100500Y174150D01*
X94150Y167800D01*
X81450Y167800D01*
X75100Y174150D01*
X75100Y186850D01*
X81450Y193200D01*
X94150Y167800D02*
X100500Y161450D01*
X81450Y167800D02*
X75100Y161450D01*
X75100Y148750D01*
X100500Y224950D02*
X100500Y237650D01*
X100500Y224950D02*
X94150Y218600D01*
X81450Y218600D01*
X75100Y224950D01*
X94150Y218600D02*
X100500Y212250D01*
X100500Y199550D01*
X94150Y193200D01*
X81450Y193200D01*
X75100Y199550D01*
X75100Y212250D01*
X81450Y218600D01*
X100500Y263050D02*
X94150Y269400D01*
X100500Y263050D02*
X100500Y250350D01*
X94150Y244000D01*
X81450Y244000D01*
X75100Y250350D01*
X75100Y263050D01*
X81450Y269400D01*
X94150Y244000D02*
X100500Y237650D01*
X81450Y244000D02*
X75100Y237650D01*
X75100Y224950D01*
X100500Y301150D02*
X100500Y313850D01*
X100500Y301150D02*
X94150Y294800D01*
X81450Y294800D01*
X75100Y301150D01*
X94150Y294800D02*
X100500Y288450D01*
X100500Y275750D01*
X94150Y269400D01*
X81450Y269400D01*
X75100Y275750D01*
X75100Y288450D01*
X81450Y294800D01*
X100500Y339250D02*
X94150Y345600D01*
X100500Y339250D02*
X100500Y326550D01*
X94150Y320200D01*
X81450Y320200D01*
X75100Y326550D01*
X75100Y339250D01*
X81450Y345600D01*
X94150Y320200D02*
X100500Y313850D01*
X81450Y320200D02*
X75100Y313850D01*
X75100Y301150D01*
X100500Y377350D02*
X100500Y390050D01*
X100500Y377350D02*
X94150Y371000D01*
X81450Y371000D01*
X75100Y377350D01*
X94150Y371000D02*
X100500Y364650D01*
X100500Y351950D01*
X94150Y345600D01*
X81450Y345600D01*
X75100Y351950D01*
X75100Y364650D01*
X81450Y371000D01*
X81450Y396400D02*
X94150Y396400D01*
X100500Y390050D01*
X81450Y396400D02*
X75100Y390050D01*
X75100Y377350D01*
X94150Y66200D02*
X100500Y59850D01*
X100500Y47150D01*
X94150Y40800D01*
X81450Y40800D01*
X75100Y47150D01*
X75100Y59850D01*
X81450Y66200D01*
D12*
X106723Y373338D02*
X115613Y373338D01*
X115713Y373336D01*
X115812Y373330D01*
X115912Y373320D01*
X116010Y373307D01*
X116109Y373289D01*
X116206Y373268D01*
X116302Y373243D01*
X116398Y373214D01*
X116492Y373181D01*
X116585Y373145D01*
X116676Y373105D01*
X116766Y373061D01*
X116854Y373014D01*
X116940Y372964D01*
X117024Y372910D01*
X117106Y372853D01*
X117185Y372793D01*
X117263Y372729D01*
X117337Y372663D01*
X117409Y372594D01*
X117478Y372522D01*
X117544Y372448D01*
X117608Y372370D01*
X117668Y372291D01*
X117725Y372209D01*
X117779Y372125D01*
X117829Y372039D01*
X117876Y371951D01*
X117920Y371861D01*
X117960Y371770D01*
X117996Y371677D01*
X118029Y371583D01*
X118058Y371487D01*
X118083Y371391D01*
X118104Y371294D01*
X118122Y371195D01*
X118135Y371097D01*
X118145Y370997D01*
X118151Y370898D01*
X118153Y370798D01*
X118153Y369528D01*
X118153Y379319D02*
X106723Y379319D01*
X106723Y382494D01*
X106725Y382605D01*
X106731Y382715D01*
X106740Y382826D01*
X106754Y382936D01*
X106771Y383045D01*
X106792Y383154D01*
X106817Y383262D01*
X106846Y383369D01*
X106878Y383475D01*
X106914Y383580D01*
X106954Y383683D01*
X106997Y383785D01*
X107044Y383886D01*
X107095Y383985D01*
X107148Y384082D01*
X107205Y384176D01*
X107266Y384269D01*
X107329Y384360D01*
X107396Y384449D01*
X107466Y384535D01*
X107539Y384618D01*
X107614Y384700D01*
X107692Y384778D01*
X107774Y384853D01*
X107857Y384926D01*
X107943Y384996D01*
X108032Y385063D01*
X108123Y385126D01*
X108216Y385187D01*
X108311Y385244D01*
X108407Y385297D01*
X108506Y385348D01*
X108607Y385395D01*
X108709Y385438D01*
X108812Y385478D01*
X108917Y385514D01*
X109023Y385546D01*
X109130Y385575D01*
X109238Y385600D01*
X109347Y385621D01*
X109456Y385638D01*
X109566Y385652D01*
X109677Y385661D01*
X109787Y385667D01*
X109898Y385669D01*
X110009Y385667D01*
X110119Y385661D01*
X110230Y385652D01*
X110340Y385638D01*
X110449Y385621D01*
X110558Y385600D01*
X110666Y385575D01*
X110773Y385546D01*
X110879Y385514D01*
X110984Y385478D01*
X111087Y385438D01*
X111189Y385395D01*
X111290Y385348D01*
X111389Y385297D01*
X111486Y385244D01*
X111580Y385187D01*
X111673Y385126D01*
X111764Y385063D01*
X111853Y384996D01*
X111939Y384926D01*
X112022Y384853D01*
X112104Y384778D01*
X112182Y384700D01*
X112257Y384618D01*
X112330Y384535D01*
X112400Y384449D01*
X112467Y384360D01*
X112530Y384269D01*
X112591Y384176D01*
X112648Y384082D01*
X112701Y383985D01*
X112752Y383886D01*
X112799Y383785D01*
X112842Y383683D01*
X112882Y383580D01*
X112918Y383475D01*
X112950Y383369D01*
X112979Y383262D01*
X113004Y383154D01*
X113025Y383045D01*
X113042Y382936D01*
X113056Y382826D01*
X113065Y382715D01*
X113071Y382605D01*
X113073Y382494D01*
X113073Y379319D01*
X118153Y390177D02*
X118153Y393987D01*
X118151Y394087D01*
X118145Y394186D01*
X118135Y394286D01*
X118122Y394384D01*
X118104Y394483D01*
X118083Y394580D01*
X118058Y394676D01*
X118029Y394772D01*
X117996Y394866D01*
X117960Y394959D01*
X117920Y395050D01*
X117876Y395140D01*
X117829Y395228D01*
X117779Y395314D01*
X117725Y395398D01*
X117668Y395480D01*
X117608Y395559D01*
X117544Y395637D01*
X117478Y395711D01*
X117409Y395783D01*
X117337Y395852D01*
X117263Y395918D01*
X117185Y395982D01*
X117106Y396042D01*
X117024Y396099D01*
X116940Y396153D01*
X116854Y396203D01*
X116766Y396250D01*
X116676Y396294D01*
X116585Y396334D01*
X116492Y396370D01*
X116398Y396403D01*
X116302Y396432D01*
X116206Y396457D01*
X116109Y396478D01*
X116010Y396496D01*
X115912Y396509D01*
X115812Y396519D01*
X115713Y396525D01*
X115613Y396527D01*
X114343Y396527D01*
X114243Y396525D01*
X114144Y396519D01*
X114044Y396509D01*
X113946Y396496D01*
X113847Y396478D01*
X113750Y396457D01*
X113654Y396432D01*
X113558Y396403D01*
X113464Y396370D01*
X113371Y396334D01*
X113280Y396294D01*
X113190Y396250D01*
X113102Y396203D01*
X113016Y396153D01*
X112932Y396099D01*
X112850Y396042D01*
X112771Y395982D01*
X112693Y395918D01*
X112619Y395852D01*
X112547Y395783D01*
X112478Y395711D01*
X112412Y395637D01*
X112348Y395559D01*
X112288Y395480D01*
X112231Y395398D01*
X112177Y395314D01*
X112127Y395228D01*
X112080Y395140D01*
X112036Y395050D01*
X111996Y394959D01*
X111960Y394866D01*
X111927Y394772D01*
X111898Y394676D01*
X111873Y394580D01*
X111852Y394483D01*
X111834Y394384D01*
X111821Y394286D01*
X111811Y394186D01*
X111805Y394087D01*
X111803Y393987D01*
X111803Y390177D01*
X106723Y390177D01*
X106723Y396527D01*
D11*
X252200Y366550D02*
X252200Y353850D01*
X252200Y366550D02*
X258550Y372900D01*
X271250Y372900D01*
X277600Y366550D01*
X252200Y328450D02*
X258550Y322100D01*
X252200Y328450D02*
X252200Y341150D01*
X258550Y347500D01*
X271250Y347500D01*
X277600Y341150D01*
X277600Y328450D01*
X271250Y322100D01*
X258550Y347500D02*
X252200Y353850D01*
X271250Y347500D02*
X277600Y353850D01*
X277600Y366550D01*
X252200Y290350D02*
X252200Y277650D01*
X252200Y290350D02*
X258550Y296700D01*
X271250Y296700D01*
X277600Y290350D01*
X258550Y296700D02*
X252200Y303050D01*
X252200Y315750D01*
X258550Y322100D01*
X271250Y322100D01*
X277600Y315750D01*
X277600Y303050D01*
X271250Y296700D01*
X252200Y252250D02*
X258550Y245900D01*
X252200Y252250D02*
X252200Y264950D01*
X258550Y271300D01*
X271250Y271300D01*
X277600Y264950D01*
X277600Y252250D01*
X271250Y245900D01*
X258550Y271300D02*
X252200Y277650D01*
X271250Y271300D02*
X277600Y277650D01*
X277600Y290350D01*
X252200Y214150D02*
X252200Y201450D01*
X252200Y214150D02*
X258550Y220500D01*
X271250Y220500D01*
X277600Y214150D01*
X258550Y220500D02*
X252200Y226850D01*
X252200Y239550D01*
X258550Y245900D01*
X271250Y245900D01*
X277600Y239550D01*
X277600Y226850D01*
X271250Y220500D01*
X252200Y176050D02*
X258550Y169700D01*
X252200Y176050D02*
X252200Y188750D01*
X258550Y195100D01*
X271250Y195100D01*
X277600Y188750D01*
X277600Y176050D01*
X271250Y169700D01*
X258550Y195100D02*
X252200Y201450D01*
X271250Y195100D02*
X277600Y201450D01*
X277600Y214150D01*
X252200Y137950D02*
X252200Y125250D01*
X252200Y137950D02*
X258550Y144300D01*
X271250Y144300D01*
X277600Y137950D01*
X258550Y144300D02*
X252200Y150650D01*
X252200Y163350D01*
X258550Y169700D01*
X271250Y169700D01*
X277600Y163350D01*
X277600Y150650D01*
X271250Y144300D01*
X252200Y99850D02*
X258550Y93500D01*
X252200Y99850D02*
X252200Y112550D01*
X258550Y118900D01*
X271250Y118900D01*
X277600Y112550D01*
X277600Y99850D01*
X271250Y93500D01*
X258550Y118900D02*
X252200Y125250D01*
X271250Y118900D02*
X277600Y125250D01*
X277600Y137950D01*
X252200Y61750D02*
X252200Y49050D01*
X252200Y61750D02*
X258550Y68100D01*
X271250Y68100D01*
X277600Y61750D01*
X258550Y68100D02*
X252200Y74450D01*
X252200Y87150D01*
X258550Y93500D01*
X271250Y93500D01*
X277600Y87150D01*
X277600Y74450D01*
X271250Y68100D01*
X271250Y42700D02*
X258550Y42700D01*
X252200Y49050D01*
X271250Y42700D02*
X277600Y49050D01*
X277600Y61750D01*
X258550Y372900D02*
X252200Y379250D01*
X252200Y391950D01*
X258550Y398300D01*
X271250Y398300D01*
X277600Y391950D01*
X277600Y379250D01*
X271250Y372900D01*
D12*
X243437Y46383D02*
X234547Y46383D01*
X243437Y46383D02*
X243537Y46381D01*
X243636Y46375D01*
X243736Y46365D01*
X243834Y46352D01*
X243933Y46334D01*
X244030Y46313D01*
X244126Y46288D01*
X244222Y46259D01*
X244316Y46226D01*
X244409Y46190D01*
X244500Y46150D01*
X244590Y46106D01*
X244678Y46059D01*
X244764Y46009D01*
X244848Y45955D01*
X244930Y45898D01*
X245009Y45838D01*
X245087Y45774D01*
X245161Y45708D01*
X245233Y45639D01*
X245302Y45567D01*
X245368Y45493D01*
X245432Y45415D01*
X245492Y45336D01*
X245549Y45254D01*
X245603Y45170D01*
X245653Y45084D01*
X245700Y44996D01*
X245744Y44906D01*
X245784Y44815D01*
X245820Y44722D01*
X245853Y44628D01*
X245882Y44532D01*
X245907Y44436D01*
X245928Y44339D01*
X245946Y44240D01*
X245959Y44142D01*
X245969Y44042D01*
X245975Y43943D01*
X245977Y43843D01*
X245977Y42573D01*
X245977Y52363D02*
X234547Y52363D01*
X234547Y55538D01*
X234549Y55649D01*
X234555Y55759D01*
X234564Y55870D01*
X234578Y55980D01*
X234595Y56089D01*
X234616Y56198D01*
X234641Y56306D01*
X234670Y56413D01*
X234702Y56519D01*
X234738Y56624D01*
X234778Y56727D01*
X234821Y56829D01*
X234868Y56930D01*
X234919Y57029D01*
X234972Y57125D01*
X235029Y57220D01*
X235090Y57313D01*
X235153Y57404D01*
X235220Y57493D01*
X235290Y57579D01*
X235363Y57662D01*
X235438Y57744D01*
X235516Y57822D01*
X235598Y57897D01*
X235681Y57970D01*
X235767Y58040D01*
X235856Y58107D01*
X235947Y58170D01*
X236040Y58231D01*
X236135Y58288D01*
X236231Y58341D01*
X236330Y58392D01*
X236431Y58439D01*
X236533Y58482D01*
X236636Y58522D01*
X236741Y58558D01*
X236847Y58590D01*
X236954Y58619D01*
X237062Y58644D01*
X237171Y58665D01*
X237280Y58682D01*
X237390Y58696D01*
X237501Y58705D01*
X237611Y58711D01*
X237722Y58713D01*
X237833Y58711D01*
X237943Y58705D01*
X238054Y58696D01*
X238164Y58682D01*
X238273Y58665D01*
X238382Y58644D01*
X238490Y58619D01*
X238597Y58590D01*
X238703Y58558D01*
X238808Y58522D01*
X238911Y58482D01*
X239013Y58439D01*
X239114Y58392D01*
X239213Y58341D01*
X239310Y58288D01*
X239404Y58231D01*
X239497Y58170D01*
X239588Y58107D01*
X239677Y58040D01*
X239763Y57970D01*
X239846Y57897D01*
X239928Y57822D01*
X240006Y57744D01*
X240081Y57662D01*
X240154Y57579D01*
X240224Y57493D01*
X240291Y57404D01*
X240354Y57313D01*
X240415Y57220D01*
X240472Y57126D01*
X240525Y57029D01*
X240576Y56930D01*
X240623Y56829D01*
X240666Y56727D01*
X240706Y56624D01*
X240742Y56519D01*
X240774Y56413D01*
X240803Y56306D01*
X240828Y56198D01*
X240849Y56089D01*
X240866Y55980D01*
X240880Y55870D01*
X240889Y55759D01*
X240895Y55649D01*
X240897Y55538D01*
X240897Y52363D01*
X239627Y63222D02*
X239627Y67032D01*
X239629Y67132D01*
X239635Y67231D01*
X239645Y67331D01*
X239658Y67429D01*
X239676Y67528D01*
X239697Y67625D01*
X239722Y67721D01*
X239751Y67817D01*
X239784Y67911D01*
X239820Y68004D01*
X239860Y68095D01*
X239904Y68185D01*
X239951Y68273D01*
X240001Y68359D01*
X240055Y68443D01*
X240112Y68525D01*
X240172Y68604D01*
X240236Y68682D01*
X240302Y68756D01*
X240371Y68828D01*
X240443Y68897D01*
X240517Y68963D01*
X240595Y69027D01*
X240674Y69087D01*
X240756Y69144D01*
X240840Y69198D01*
X240926Y69248D01*
X241014Y69295D01*
X241104Y69339D01*
X241195Y69379D01*
X241288Y69415D01*
X241382Y69448D01*
X241478Y69477D01*
X241574Y69502D01*
X241671Y69523D01*
X241770Y69541D01*
X241868Y69554D01*
X241968Y69564D01*
X242067Y69570D01*
X242167Y69572D01*
X242802Y69572D01*
X242913Y69570D01*
X243023Y69564D01*
X243134Y69555D01*
X243244Y69541D01*
X243353Y69524D01*
X243462Y69503D01*
X243570Y69478D01*
X243677Y69449D01*
X243783Y69417D01*
X243888Y69381D01*
X243991Y69341D01*
X244093Y69298D01*
X244194Y69251D01*
X244293Y69200D01*
X244390Y69147D01*
X244484Y69090D01*
X244577Y69029D01*
X244668Y68966D01*
X244757Y68899D01*
X244843Y68829D01*
X244926Y68756D01*
X245008Y68681D01*
X245086Y68603D01*
X245161Y68521D01*
X245234Y68438D01*
X245304Y68352D01*
X245371Y68263D01*
X245434Y68172D01*
X245495Y68079D01*
X245552Y67984D01*
X245605Y67888D01*
X245656Y67789D01*
X245703Y67688D01*
X245746Y67586D01*
X245786Y67483D01*
X245822Y67378D01*
X245854Y67272D01*
X245883Y67165D01*
X245908Y67057D01*
X245929Y66948D01*
X245946Y66839D01*
X245960Y66729D01*
X245969Y66618D01*
X245975Y66508D01*
X245977Y66397D01*
X245975Y66286D01*
X245969Y66176D01*
X245960Y66065D01*
X245946Y65955D01*
X245929Y65846D01*
X245908Y65737D01*
X245883Y65629D01*
X245854Y65522D01*
X245822Y65416D01*
X245786Y65311D01*
X245746Y65208D01*
X245703Y65106D01*
X245656Y65005D01*
X245605Y64906D01*
X245552Y64809D01*
X245495Y64715D01*
X245434Y64622D01*
X245371Y64531D01*
X245304Y64442D01*
X245234Y64356D01*
X245161Y64273D01*
X245086Y64191D01*
X245008Y64113D01*
X244926Y64038D01*
X244843Y63965D01*
X244757Y63895D01*
X244668Y63828D01*
X244577Y63765D01*
X244484Y63704D01*
X244389Y63647D01*
X244293Y63594D01*
X244194Y63543D01*
X244093Y63496D01*
X243991Y63453D01*
X243888Y63413D01*
X243783Y63377D01*
X243677Y63345D01*
X243570Y63316D01*
X243462Y63291D01*
X243353Y63270D01*
X243244Y63253D01*
X243134Y63239D01*
X243023Y63230D01*
X242913Y63224D01*
X242802Y63222D01*
X239627Y63222D01*
X239487Y63224D01*
X239347Y63230D01*
X239207Y63239D01*
X239068Y63253D01*
X238929Y63270D01*
X238791Y63291D01*
X238653Y63316D01*
X238516Y63345D01*
X238380Y63377D01*
X238245Y63414D01*
X238111Y63454D01*
X237978Y63497D01*
X237846Y63545D01*
X237715Y63595D01*
X237586Y63650D01*
X237459Y63708D01*
X237333Y63769D01*
X237209Y63834D01*
X237087Y63903D01*
X236967Y63974D01*
X236849Y64049D01*
X236732Y64127D01*
X236618Y64209D01*
X236507Y64293D01*
X236398Y64381D01*
X236291Y64471D01*
X236186Y64565D01*
X236085Y64661D01*
X235986Y64760D01*
X235890Y64861D01*
X235796Y64966D01*
X235706Y65073D01*
X235618Y65182D01*
X235534Y65293D01*
X235452Y65407D01*
X235374Y65524D01*
X235299Y65642D01*
X235228Y65762D01*
X235159Y65884D01*
X235094Y66008D01*
X235033Y66134D01*
X234975Y66261D01*
X234920Y66390D01*
X234870Y66521D01*
X234822Y66653D01*
X234779Y66786D01*
X234739Y66920D01*
X234702Y67055D01*
X234670Y67191D01*
X234641Y67328D01*
X234616Y67466D01*
X234595Y67604D01*
X234578Y67743D01*
X234564Y67882D01*
X234555Y68022D01*
X234549Y68162D01*
X234547Y68302D01*
D13*
X134050Y244000D02*
X111550Y244000D01*
D10*
X126958Y236003D02*
X138642Y236003D01*
X138642Y241196D01*
X129554Y245506D02*
X126958Y248751D01*
X138642Y248751D01*
X138642Y245506D02*
X138642Y251997D01*
X389404Y73007D02*
X394596Y73007D01*
X389404Y73007D02*
X389291Y73009D01*
X389178Y73015D01*
X389065Y73025D01*
X388952Y73039D01*
X388840Y73056D01*
X388729Y73078D01*
X388619Y73103D01*
X388509Y73133D01*
X388401Y73166D01*
X388294Y73203D01*
X388188Y73243D01*
X388084Y73288D01*
X387981Y73336D01*
X387880Y73387D01*
X387781Y73442D01*
X387684Y73500D01*
X387589Y73562D01*
X387496Y73627D01*
X387406Y73695D01*
X387318Y73766D01*
X387232Y73841D01*
X387149Y73918D01*
X387069Y73998D01*
X386992Y74081D01*
X386917Y74167D01*
X386846Y74255D01*
X386778Y74345D01*
X386713Y74438D01*
X386651Y74533D01*
X386593Y74630D01*
X386538Y74729D01*
X386487Y74830D01*
X386439Y74933D01*
X386394Y75037D01*
X386354Y75143D01*
X386317Y75250D01*
X386284Y75358D01*
X386254Y75468D01*
X386229Y75578D01*
X386207Y75689D01*
X386190Y75801D01*
X386176Y75914D01*
X386166Y76027D01*
X386160Y76140D01*
X386158Y76253D01*
X386160Y76366D01*
X386166Y76479D01*
X386176Y76592D01*
X386190Y76705D01*
X386207Y76817D01*
X386229Y76928D01*
X386254Y77038D01*
X386284Y77148D01*
X386317Y77256D01*
X386354Y77363D01*
X386394Y77469D01*
X386439Y77573D01*
X386487Y77676D01*
X386538Y77777D01*
X386593Y77876D01*
X386651Y77973D01*
X386713Y78068D01*
X386778Y78161D01*
X386846Y78251D01*
X386917Y78339D01*
X386992Y78425D01*
X387069Y78508D01*
X387149Y78588D01*
X387232Y78665D01*
X387318Y78740D01*
X387406Y78811D01*
X387496Y78879D01*
X387589Y78944D01*
X387684Y79006D01*
X387781Y79064D01*
X387880Y79119D01*
X387981Y79170D01*
X388084Y79218D01*
X388188Y79263D01*
X388294Y79303D01*
X388401Y79340D01*
X388509Y79373D01*
X388619Y79403D01*
X388729Y79428D01*
X388840Y79450D01*
X388952Y79467D01*
X389065Y79481D01*
X389178Y79491D01*
X389291Y79497D01*
X389404Y79499D01*
X389404Y79498D02*
X394596Y79498D01*
X394596Y79499D02*
X394709Y79497D01*
X394822Y79491D01*
X394935Y79481D01*
X395048Y79467D01*
X395160Y79450D01*
X395271Y79428D01*
X395381Y79403D01*
X395491Y79373D01*
X395599Y79340D01*
X395706Y79303D01*
X395812Y79263D01*
X395916Y79218D01*
X396019Y79170D01*
X396120Y79119D01*
X396219Y79064D01*
X396316Y79006D01*
X396411Y78944D01*
X396504Y78879D01*
X396594Y78811D01*
X396682Y78740D01*
X396768Y78665D01*
X396851Y78588D01*
X396931Y78508D01*
X397008Y78425D01*
X397083Y78339D01*
X397154Y78251D01*
X397222Y78161D01*
X397287Y78068D01*
X397349Y77973D01*
X397407Y77876D01*
X397462Y77777D01*
X397513Y77676D01*
X397561Y77573D01*
X397606Y77469D01*
X397646Y77363D01*
X397683Y77256D01*
X397716Y77148D01*
X397746Y77038D01*
X397771Y76928D01*
X397793Y76817D01*
X397810Y76705D01*
X397824Y76592D01*
X397834Y76479D01*
X397840Y76366D01*
X397842Y76253D01*
X397840Y76140D01*
X397834Y76027D01*
X397824Y75914D01*
X397810Y75801D01*
X397793Y75689D01*
X397771Y75578D01*
X397746Y75468D01*
X397716Y75358D01*
X397683Y75250D01*
X397646Y75143D01*
X397606Y75037D01*
X397561Y74933D01*
X397513Y74830D01*
X397462Y74729D01*
X397407Y74630D01*
X397349Y74533D01*
X397287Y74438D01*
X397222Y74345D01*
X397154Y74255D01*
X397083Y74167D01*
X397008Y74081D01*
X396931Y73998D01*
X396851Y73918D01*
X396768Y73841D01*
X396682Y73766D01*
X396594Y73695D01*
X396504Y73627D01*
X396411Y73562D01*
X396316Y73500D01*
X396219Y73442D01*
X396120Y73387D01*
X396019Y73336D01*
X395916Y73288D01*
X395812Y73243D01*
X395706Y73203D01*
X395599Y73166D01*
X395491Y73133D01*
X395381Y73103D01*
X395271Y73078D01*
X395160Y73056D01*
X395048Y73039D01*
X394935Y73025D01*
X394822Y73015D01*
X394709Y73009D01*
X394596Y73007D01*
X395246Y78200D02*
X397842Y80796D01*
X388754Y84151D02*
X386158Y87396D01*
X397842Y87396D01*
X397842Y84151D02*
X397842Y90642D01*
X371592Y143008D02*
X359908Y143008D01*
X359908Y146254D01*
X359910Y146367D01*
X359916Y146480D01*
X359926Y146593D01*
X359940Y146706D01*
X359957Y146818D01*
X359979Y146929D01*
X360004Y147039D01*
X360034Y147149D01*
X360067Y147257D01*
X360104Y147364D01*
X360144Y147470D01*
X360189Y147574D01*
X360237Y147677D01*
X360288Y147778D01*
X360343Y147877D01*
X360401Y147974D01*
X360463Y148069D01*
X360528Y148162D01*
X360596Y148252D01*
X360667Y148340D01*
X360742Y148426D01*
X360819Y148509D01*
X360899Y148589D01*
X360982Y148666D01*
X361068Y148741D01*
X361156Y148812D01*
X361246Y148880D01*
X361339Y148945D01*
X361434Y149007D01*
X361531Y149065D01*
X361630Y149120D01*
X361731Y149171D01*
X361834Y149219D01*
X361938Y149264D01*
X362044Y149304D01*
X362151Y149341D01*
X362259Y149374D01*
X362369Y149404D01*
X362479Y149429D01*
X362590Y149451D01*
X362702Y149468D01*
X362815Y149482D01*
X362928Y149492D01*
X363041Y149498D01*
X363154Y149500D01*
X363267Y149498D01*
X363380Y149492D01*
X363493Y149482D01*
X363606Y149468D01*
X363718Y149451D01*
X363829Y149429D01*
X363939Y149404D01*
X364049Y149374D01*
X364157Y149341D01*
X364264Y149304D01*
X364370Y149264D01*
X364474Y149219D01*
X364577Y149171D01*
X364678Y149120D01*
X364777Y149065D01*
X364874Y149007D01*
X364969Y148945D01*
X365062Y148880D01*
X365152Y148812D01*
X365240Y148741D01*
X365326Y148666D01*
X365409Y148589D01*
X365489Y148509D01*
X365566Y148426D01*
X365641Y148340D01*
X365712Y148252D01*
X365780Y148162D01*
X365845Y148069D01*
X365907Y147974D01*
X365965Y147877D01*
X366020Y147778D01*
X366071Y147677D01*
X366119Y147574D01*
X366164Y147470D01*
X366204Y147364D01*
X366241Y147257D01*
X366274Y147149D01*
X366304Y147039D01*
X366329Y146929D01*
X366351Y146818D01*
X366368Y146706D01*
X366382Y146593D01*
X366392Y146480D01*
X366398Y146367D01*
X366400Y146254D01*
X366399Y146254D02*
X366399Y143008D01*
X366399Y146903D02*
X371592Y149499D01*
X362504Y154364D02*
X359908Y157610D01*
X371592Y157610D01*
X371592Y160855D02*
X371592Y154364D01*
X365750Y165794D02*
X365520Y165797D01*
X365290Y165805D01*
X365061Y165819D01*
X364832Y165838D01*
X364603Y165863D01*
X364375Y165893D01*
X364148Y165928D01*
X363922Y165969D01*
X363697Y166015D01*
X363473Y166067D01*
X363250Y166124D01*
X363029Y166186D01*
X362809Y166254D01*
X362591Y166327D01*
X362375Y166405D01*
X362161Y166488D01*
X361949Y166576D01*
X361738Y166669D01*
X361531Y166768D01*
X361441Y166801D01*
X361352Y166837D01*
X361264Y166877D01*
X361179Y166921D01*
X361095Y166968D01*
X361013Y167018D01*
X360933Y167072D01*
X360856Y167128D01*
X360780Y167188D01*
X360707Y167251D01*
X360637Y167316D01*
X360569Y167385D01*
X360505Y167456D01*
X360443Y167529D01*
X360384Y167605D01*
X360328Y167683D01*
X360275Y167764D01*
X360226Y167846D01*
X360180Y167930D01*
X360137Y168017D01*
X360098Y168104D01*
X360062Y168194D01*
X360030Y168284D01*
X360002Y168376D01*
X359977Y168469D01*
X359956Y168563D01*
X359939Y168657D01*
X359925Y168752D01*
X359916Y168848D01*
X359910Y168944D01*
X359908Y169040D01*
X359910Y169136D01*
X359916Y169232D01*
X359925Y169328D01*
X359939Y169423D01*
X359956Y169517D01*
X359977Y169611D01*
X360002Y169704D01*
X360030Y169796D01*
X360062Y169886D01*
X360098Y169976D01*
X360137Y170064D01*
X360180Y170150D01*
X360226Y170234D01*
X360275Y170316D01*
X360328Y170397D01*
X360384Y170475D01*
X360443Y170551D01*
X360505Y170624D01*
X360569Y170695D01*
X360637Y170764D01*
X360707Y170829D01*
X360780Y170892D01*
X360856Y170952D01*
X360933Y171008D01*
X361013Y171062D01*
X361095Y171112D01*
X361179Y171159D01*
X361264Y171203D01*
X361352Y171243D01*
X361441Y171279D01*
X361531Y171312D01*
X361738Y171411D01*
X361949Y171504D01*
X362161Y171592D01*
X362375Y171675D01*
X362591Y171753D01*
X362809Y171826D01*
X363029Y171894D01*
X363250Y171956D01*
X363473Y172013D01*
X363697Y172065D01*
X363922Y172111D01*
X364148Y172152D01*
X364375Y172187D01*
X364603Y172217D01*
X364832Y172242D01*
X365061Y172261D01*
X365290Y172275D01*
X365520Y172283D01*
X365750Y172286D01*
X365750Y165794D02*
X365980Y165797D01*
X366210Y165805D01*
X366439Y165819D01*
X366668Y165838D01*
X366897Y165863D01*
X367125Y165893D01*
X367352Y165928D01*
X367578Y165969D01*
X367803Y166015D01*
X368027Y166067D01*
X368250Y166124D01*
X368471Y166186D01*
X368691Y166254D01*
X368909Y166327D01*
X369125Y166405D01*
X369339Y166488D01*
X369551Y166576D01*
X369762Y166669D01*
X369969Y166768D01*
X370059Y166801D01*
X370148Y166837D01*
X370236Y166878D01*
X370321Y166921D01*
X370405Y166968D01*
X370487Y167018D01*
X370567Y167072D01*
X370644Y167128D01*
X370720Y167188D01*
X370793Y167251D01*
X370863Y167316D01*
X370931Y167385D01*
X370995Y167456D01*
X371057Y167529D01*
X371116Y167605D01*
X371172Y167683D01*
X371225Y167764D01*
X371274Y167846D01*
X371320Y167930D01*
X371363Y168017D01*
X371402Y168104D01*
X371438Y168194D01*
X371470Y168284D01*
X371498Y168376D01*
X371523Y168469D01*
X371544Y168563D01*
X371561Y168657D01*
X371575Y168752D01*
X371584Y168848D01*
X371590Y168944D01*
X371592Y169040D01*
X369969Y171312D02*
X369762Y171411D01*
X369551Y171504D01*
X369339Y171592D01*
X369125Y171675D01*
X368909Y171753D01*
X368691Y171826D01*
X368471Y171894D01*
X368250Y171956D01*
X368027Y172013D01*
X367803Y172065D01*
X367578Y172111D01*
X367352Y172152D01*
X367125Y172187D01*
X366897Y172217D01*
X366668Y172242D01*
X366439Y172261D01*
X366210Y172275D01*
X365980Y172283D01*
X365750Y172286D01*
X369969Y171312D02*
X370059Y171279D01*
X370148Y171243D01*
X370236Y171203D01*
X370321Y171159D01*
X370405Y171112D01*
X370487Y171062D01*
X370567Y171008D01*
X370644Y170952D01*
X370720Y170892D01*
X370793Y170829D01*
X370863Y170764D01*
X370931Y170695D01*
X370995Y170624D01*
X371057Y170551D01*
X371116Y170475D01*
X371172Y170397D01*
X371225Y170316D01*
X371274Y170234D01*
X371320Y170150D01*
X371363Y170063D01*
X371402Y169976D01*
X371438Y169886D01*
X371470Y169796D01*
X371498Y169704D01*
X371523Y169611D01*
X371544Y169517D01*
X371561Y169423D01*
X371575Y169328D01*
X371584Y169232D01*
X371590Y169136D01*
X371592Y169040D01*
X368996Y166443D02*
X362504Y171636D01*
X307058Y234908D02*
X307058Y246592D01*
X310304Y246592D01*
X310417Y246590D01*
X310530Y246584D01*
X310643Y246574D01*
X310756Y246560D01*
X310868Y246543D01*
X310979Y246521D01*
X311089Y246496D01*
X311199Y246466D01*
X311307Y246433D01*
X311414Y246396D01*
X311520Y246356D01*
X311624Y246311D01*
X311727Y246263D01*
X311828Y246212D01*
X311927Y246157D01*
X312024Y246099D01*
X312119Y246037D01*
X312212Y245972D01*
X312302Y245904D01*
X312390Y245833D01*
X312476Y245758D01*
X312559Y245681D01*
X312639Y245601D01*
X312716Y245518D01*
X312791Y245432D01*
X312862Y245344D01*
X312930Y245254D01*
X312995Y245161D01*
X313057Y245066D01*
X313115Y244969D01*
X313170Y244870D01*
X313221Y244769D01*
X313269Y244666D01*
X313314Y244562D01*
X313354Y244456D01*
X313391Y244349D01*
X313424Y244241D01*
X313454Y244131D01*
X313479Y244021D01*
X313501Y243910D01*
X313518Y243798D01*
X313532Y243685D01*
X313542Y243572D01*
X313548Y243459D01*
X313550Y243346D01*
X313548Y243233D01*
X313542Y243120D01*
X313532Y243007D01*
X313518Y242894D01*
X313501Y242782D01*
X313479Y242671D01*
X313454Y242561D01*
X313424Y242451D01*
X313391Y242343D01*
X313354Y242236D01*
X313314Y242130D01*
X313269Y242026D01*
X313221Y241923D01*
X313170Y241822D01*
X313115Y241723D01*
X313057Y241626D01*
X312995Y241531D01*
X312930Y241438D01*
X312862Y241348D01*
X312791Y241260D01*
X312716Y241174D01*
X312639Y241091D01*
X312559Y241011D01*
X312476Y240934D01*
X312390Y240859D01*
X312302Y240788D01*
X312212Y240720D01*
X312119Y240655D01*
X312024Y240593D01*
X311927Y240535D01*
X311828Y240480D01*
X311727Y240429D01*
X311624Y240381D01*
X311520Y240336D01*
X311414Y240296D01*
X311307Y240259D01*
X311199Y240226D01*
X311089Y240196D01*
X310979Y240171D01*
X310868Y240149D01*
X310756Y240132D01*
X310643Y240118D01*
X310530Y240108D01*
X310417Y240102D01*
X310304Y240100D01*
X310304Y240101D02*
X307058Y240101D01*
X310953Y240101D02*
X313549Y234908D01*
X318414Y243996D02*
X321660Y246592D01*
X321660Y234908D01*
X324905Y234908D02*
X318414Y234908D01*
X329844Y234908D02*
X333739Y234908D01*
X333838Y234910D01*
X333938Y234916D01*
X334037Y234925D01*
X334135Y234938D01*
X334233Y234955D01*
X334331Y234976D01*
X334427Y235001D01*
X334522Y235029D01*
X334616Y235061D01*
X334709Y235096D01*
X334801Y235135D01*
X334891Y235178D01*
X334979Y235223D01*
X335066Y235273D01*
X335150Y235325D01*
X335233Y235381D01*
X335313Y235439D01*
X335391Y235501D01*
X335466Y235566D01*
X335539Y235634D01*
X335609Y235704D01*
X335677Y235777D01*
X335742Y235852D01*
X335804Y235930D01*
X335862Y236010D01*
X335918Y236093D01*
X335970Y236177D01*
X336020Y236264D01*
X336065Y236352D01*
X336108Y236442D01*
X336147Y236534D01*
X336182Y236627D01*
X336214Y236721D01*
X336242Y236816D01*
X336267Y236912D01*
X336288Y237010D01*
X336305Y237108D01*
X336318Y237206D01*
X336327Y237305D01*
X336333Y237405D01*
X336335Y237504D01*
X336335Y238803D01*
X336333Y238902D01*
X336327Y239002D01*
X336318Y239101D01*
X336305Y239199D01*
X336288Y239297D01*
X336267Y239395D01*
X336242Y239491D01*
X336214Y239586D01*
X336182Y239680D01*
X336147Y239773D01*
X336108Y239865D01*
X336065Y239955D01*
X336020Y240043D01*
X335970Y240130D01*
X335918Y240214D01*
X335862Y240297D01*
X335804Y240377D01*
X335742Y240455D01*
X335677Y240530D01*
X335609Y240603D01*
X335539Y240673D01*
X335466Y240741D01*
X335391Y240806D01*
X335313Y240868D01*
X335233Y240926D01*
X335150Y240982D01*
X335066Y241034D01*
X334979Y241084D01*
X334891Y241129D01*
X334801Y241172D01*
X334709Y241211D01*
X334616Y241246D01*
X334522Y241278D01*
X334427Y241306D01*
X334331Y241331D01*
X334233Y241352D01*
X334135Y241369D01*
X334037Y241382D01*
X333938Y241391D01*
X333838Y241397D01*
X333739Y241399D01*
X329844Y241399D01*
X329844Y246592D01*
X336335Y246592D01*
X306558Y180592D02*
X306558Y168908D01*
X306558Y180592D02*
X309804Y180592D01*
X309917Y180590D01*
X310030Y180584D01*
X310143Y180574D01*
X310256Y180560D01*
X310368Y180543D01*
X310479Y180521D01*
X310589Y180496D01*
X310699Y180466D01*
X310807Y180433D01*
X310914Y180396D01*
X311020Y180356D01*
X311124Y180311D01*
X311227Y180263D01*
X311328Y180212D01*
X311427Y180157D01*
X311524Y180099D01*
X311619Y180037D01*
X311712Y179972D01*
X311802Y179904D01*
X311890Y179833D01*
X311976Y179758D01*
X312059Y179681D01*
X312139Y179601D01*
X312216Y179518D01*
X312291Y179432D01*
X312362Y179344D01*
X312430Y179254D01*
X312495Y179161D01*
X312557Y179066D01*
X312615Y178969D01*
X312670Y178870D01*
X312721Y178769D01*
X312769Y178666D01*
X312814Y178562D01*
X312854Y178456D01*
X312891Y178349D01*
X312924Y178241D01*
X312954Y178131D01*
X312979Y178021D01*
X313001Y177910D01*
X313018Y177798D01*
X313032Y177685D01*
X313042Y177572D01*
X313048Y177459D01*
X313050Y177346D01*
X313048Y177233D01*
X313042Y177120D01*
X313032Y177007D01*
X313018Y176894D01*
X313001Y176782D01*
X312979Y176671D01*
X312954Y176561D01*
X312924Y176451D01*
X312891Y176343D01*
X312854Y176236D01*
X312814Y176130D01*
X312769Y176026D01*
X312721Y175923D01*
X312670Y175822D01*
X312615Y175723D01*
X312557Y175626D01*
X312495Y175531D01*
X312430Y175438D01*
X312362Y175348D01*
X312291Y175260D01*
X312216Y175174D01*
X312139Y175091D01*
X312059Y175011D01*
X311976Y174934D01*
X311890Y174859D01*
X311802Y174788D01*
X311712Y174720D01*
X311619Y174655D01*
X311524Y174593D01*
X311427Y174535D01*
X311328Y174480D01*
X311227Y174429D01*
X311124Y174381D01*
X311020Y174336D01*
X310914Y174296D01*
X310807Y174259D01*
X310699Y174226D01*
X310589Y174196D01*
X310479Y174171D01*
X310368Y174149D01*
X310256Y174132D01*
X310143Y174118D01*
X310030Y174108D01*
X309917Y174102D01*
X309804Y174100D01*
X309804Y174101D02*
X306558Y174101D01*
X310453Y174101D02*
X313049Y168908D01*
X317914Y177996D02*
X321160Y180592D01*
X321160Y168908D01*
X324405Y168908D02*
X317914Y168908D01*
X329344Y175399D02*
X333239Y175399D01*
X333338Y175397D01*
X333438Y175391D01*
X333537Y175382D01*
X333635Y175369D01*
X333733Y175352D01*
X333831Y175331D01*
X333927Y175306D01*
X334022Y175278D01*
X334116Y175246D01*
X334209Y175211D01*
X334301Y175172D01*
X334391Y175129D01*
X334479Y175084D01*
X334566Y175034D01*
X334650Y174982D01*
X334733Y174926D01*
X334813Y174868D01*
X334891Y174806D01*
X334966Y174741D01*
X335039Y174673D01*
X335109Y174603D01*
X335177Y174530D01*
X335242Y174455D01*
X335304Y174377D01*
X335362Y174297D01*
X335418Y174214D01*
X335470Y174130D01*
X335520Y174043D01*
X335565Y173955D01*
X335608Y173865D01*
X335647Y173773D01*
X335682Y173680D01*
X335714Y173586D01*
X335742Y173491D01*
X335767Y173395D01*
X335788Y173297D01*
X335805Y173199D01*
X335818Y173101D01*
X335827Y173002D01*
X335833Y172902D01*
X335835Y172803D01*
X335835Y172154D01*
X335836Y172154D02*
X335834Y172041D01*
X335828Y171928D01*
X335818Y171815D01*
X335804Y171702D01*
X335787Y171590D01*
X335765Y171479D01*
X335740Y171369D01*
X335710Y171259D01*
X335677Y171151D01*
X335640Y171044D01*
X335600Y170938D01*
X335555Y170834D01*
X335507Y170731D01*
X335456Y170630D01*
X335401Y170531D01*
X335343Y170434D01*
X335281Y170339D01*
X335216Y170246D01*
X335148Y170156D01*
X335077Y170068D01*
X335002Y169982D01*
X334925Y169899D01*
X334845Y169819D01*
X334762Y169742D01*
X334676Y169667D01*
X334588Y169596D01*
X334498Y169528D01*
X334405Y169463D01*
X334310Y169401D01*
X334213Y169343D01*
X334114Y169288D01*
X334013Y169237D01*
X333910Y169189D01*
X333806Y169144D01*
X333700Y169104D01*
X333593Y169067D01*
X333485Y169034D01*
X333375Y169004D01*
X333265Y168979D01*
X333154Y168957D01*
X333042Y168940D01*
X332929Y168926D01*
X332816Y168916D01*
X332703Y168910D01*
X332590Y168908D01*
X332477Y168910D01*
X332364Y168916D01*
X332251Y168926D01*
X332138Y168940D01*
X332026Y168957D01*
X331915Y168979D01*
X331805Y169004D01*
X331695Y169034D01*
X331587Y169067D01*
X331480Y169104D01*
X331374Y169144D01*
X331270Y169189D01*
X331167Y169237D01*
X331066Y169288D01*
X330967Y169343D01*
X330870Y169401D01*
X330775Y169463D01*
X330682Y169528D01*
X330592Y169596D01*
X330504Y169667D01*
X330418Y169742D01*
X330335Y169819D01*
X330255Y169899D01*
X330178Y169982D01*
X330103Y170068D01*
X330032Y170156D01*
X329964Y170246D01*
X329899Y170339D01*
X329837Y170434D01*
X329779Y170531D01*
X329724Y170630D01*
X329673Y170731D01*
X329625Y170834D01*
X329580Y170938D01*
X329540Y171044D01*
X329503Y171151D01*
X329470Y171259D01*
X329440Y171369D01*
X329415Y171479D01*
X329393Y171590D01*
X329376Y171702D01*
X329362Y171815D01*
X329352Y171928D01*
X329346Y172041D01*
X329344Y172154D01*
X329344Y175399D01*
X329346Y175542D01*
X329352Y175685D01*
X329362Y175828D01*
X329376Y175970D01*
X329393Y176112D01*
X329415Y176254D01*
X329440Y176395D01*
X329470Y176535D01*
X329503Y176674D01*
X329540Y176812D01*
X329581Y176949D01*
X329625Y177085D01*
X329674Y177220D01*
X329726Y177353D01*
X329781Y177485D01*
X329841Y177615D01*
X329904Y177744D01*
X329970Y177871D01*
X330040Y177995D01*
X330113Y178118D01*
X330190Y178239D01*
X330270Y178358D01*
X330353Y178474D01*
X330439Y178589D01*
X330528Y178700D01*
X330621Y178810D01*
X330716Y178916D01*
X330815Y179020D01*
X330916Y179121D01*
X331020Y179220D01*
X331126Y179315D01*
X331236Y179408D01*
X331347Y179497D01*
X331462Y179583D01*
X331578Y179666D01*
X331697Y179746D01*
X331818Y179823D01*
X331940Y179896D01*
X332065Y179966D01*
X332192Y180032D01*
X332321Y180095D01*
X332451Y180155D01*
X332583Y180210D01*
X332716Y180262D01*
X332851Y180311D01*
X332987Y180355D01*
X333124Y180396D01*
X333262Y180433D01*
X333401Y180466D01*
X333541Y180496D01*
X333682Y180521D01*
X333824Y180543D01*
X333966Y180560D01*
X334108Y180574D01*
X334251Y180584D01*
X334394Y180590D01*
X334537Y180592D01*
X306558Y203908D02*
X306558Y215592D01*
X309804Y215592D01*
X309917Y215590D01*
X310030Y215584D01*
X310143Y215574D01*
X310256Y215560D01*
X310368Y215543D01*
X310479Y215521D01*
X310589Y215496D01*
X310699Y215466D01*
X310807Y215433D01*
X310914Y215396D01*
X311020Y215356D01*
X311124Y215311D01*
X311227Y215263D01*
X311328Y215212D01*
X311427Y215157D01*
X311524Y215099D01*
X311619Y215037D01*
X311712Y214972D01*
X311802Y214904D01*
X311890Y214833D01*
X311976Y214758D01*
X312059Y214681D01*
X312139Y214601D01*
X312216Y214518D01*
X312291Y214432D01*
X312362Y214344D01*
X312430Y214254D01*
X312495Y214161D01*
X312557Y214066D01*
X312615Y213969D01*
X312670Y213870D01*
X312721Y213769D01*
X312769Y213666D01*
X312814Y213562D01*
X312854Y213456D01*
X312891Y213349D01*
X312924Y213241D01*
X312954Y213131D01*
X312979Y213021D01*
X313001Y212910D01*
X313018Y212798D01*
X313032Y212685D01*
X313042Y212572D01*
X313048Y212459D01*
X313050Y212346D01*
X313048Y212233D01*
X313042Y212120D01*
X313032Y212007D01*
X313018Y211894D01*
X313001Y211782D01*
X312979Y211671D01*
X312954Y211561D01*
X312924Y211451D01*
X312891Y211343D01*
X312854Y211236D01*
X312814Y211130D01*
X312769Y211026D01*
X312721Y210923D01*
X312670Y210822D01*
X312615Y210723D01*
X312557Y210626D01*
X312495Y210531D01*
X312430Y210438D01*
X312362Y210348D01*
X312291Y210260D01*
X312216Y210174D01*
X312139Y210091D01*
X312059Y210011D01*
X311976Y209934D01*
X311890Y209859D01*
X311802Y209788D01*
X311712Y209720D01*
X311619Y209655D01*
X311524Y209593D01*
X311427Y209535D01*
X311328Y209480D01*
X311227Y209429D01*
X311124Y209381D01*
X311020Y209336D01*
X310914Y209296D01*
X310807Y209259D01*
X310699Y209226D01*
X310589Y209196D01*
X310479Y209171D01*
X310368Y209149D01*
X310256Y209132D01*
X310143Y209118D01*
X310030Y209108D01*
X309917Y209102D01*
X309804Y209100D01*
X309804Y209101D02*
X306558Y209101D01*
X310453Y209101D02*
X313049Y203908D01*
X317914Y212996D02*
X321160Y215592D01*
X321160Y203908D01*
X324405Y203908D02*
X317914Y203908D01*
X329344Y207154D02*
X329346Y207267D01*
X329352Y207380D01*
X329362Y207493D01*
X329376Y207606D01*
X329393Y207718D01*
X329415Y207829D01*
X329440Y207939D01*
X329470Y208049D01*
X329503Y208157D01*
X329540Y208264D01*
X329580Y208370D01*
X329625Y208474D01*
X329673Y208577D01*
X329724Y208678D01*
X329779Y208777D01*
X329837Y208874D01*
X329899Y208969D01*
X329964Y209062D01*
X330032Y209152D01*
X330103Y209240D01*
X330178Y209326D01*
X330255Y209409D01*
X330335Y209489D01*
X330418Y209566D01*
X330504Y209641D01*
X330592Y209712D01*
X330682Y209780D01*
X330775Y209845D01*
X330870Y209907D01*
X330967Y209965D01*
X331066Y210020D01*
X331167Y210071D01*
X331270Y210119D01*
X331374Y210164D01*
X331480Y210204D01*
X331587Y210241D01*
X331695Y210274D01*
X331805Y210304D01*
X331915Y210329D01*
X332026Y210351D01*
X332138Y210368D01*
X332251Y210382D01*
X332364Y210392D01*
X332477Y210398D01*
X332590Y210400D01*
X332703Y210398D01*
X332816Y210392D01*
X332929Y210382D01*
X333042Y210368D01*
X333154Y210351D01*
X333265Y210329D01*
X333375Y210304D01*
X333485Y210274D01*
X333593Y210241D01*
X333700Y210204D01*
X333806Y210164D01*
X333910Y210119D01*
X334013Y210071D01*
X334114Y210020D01*
X334213Y209965D01*
X334310Y209907D01*
X334405Y209845D01*
X334498Y209780D01*
X334588Y209712D01*
X334676Y209641D01*
X334762Y209566D01*
X334845Y209489D01*
X334925Y209409D01*
X335002Y209326D01*
X335077Y209240D01*
X335148Y209152D01*
X335216Y209062D01*
X335281Y208969D01*
X335343Y208874D01*
X335401Y208777D01*
X335456Y208678D01*
X335507Y208577D01*
X335555Y208474D01*
X335600Y208370D01*
X335640Y208264D01*
X335677Y208157D01*
X335710Y208049D01*
X335740Y207939D01*
X335765Y207829D01*
X335787Y207718D01*
X335804Y207606D01*
X335818Y207493D01*
X335828Y207380D01*
X335834Y207267D01*
X335836Y207154D01*
X335834Y207041D01*
X335828Y206928D01*
X335818Y206815D01*
X335804Y206702D01*
X335787Y206590D01*
X335765Y206479D01*
X335740Y206369D01*
X335710Y206259D01*
X335677Y206151D01*
X335640Y206044D01*
X335600Y205938D01*
X335555Y205834D01*
X335507Y205731D01*
X335456Y205630D01*
X335401Y205531D01*
X335343Y205434D01*
X335281Y205339D01*
X335216Y205246D01*
X335148Y205156D01*
X335077Y205068D01*
X335002Y204982D01*
X334925Y204899D01*
X334845Y204819D01*
X334762Y204742D01*
X334676Y204667D01*
X334588Y204596D01*
X334498Y204528D01*
X334405Y204463D01*
X334310Y204401D01*
X334213Y204343D01*
X334114Y204288D01*
X334013Y204237D01*
X333910Y204189D01*
X333806Y204144D01*
X333700Y204104D01*
X333593Y204067D01*
X333485Y204034D01*
X333375Y204004D01*
X333265Y203979D01*
X333154Y203957D01*
X333042Y203940D01*
X332929Y203926D01*
X332816Y203916D01*
X332703Y203910D01*
X332590Y203908D01*
X332477Y203910D01*
X332364Y203916D01*
X332251Y203926D01*
X332138Y203940D01*
X332026Y203957D01*
X331915Y203979D01*
X331805Y204004D01*
X331695Y204034D01*
X331587Y204067D01*
X331480Y204104D01*
X331374Y204144D01*
X331270Y204189D01*
X331167Y204237D01*
X331066Y204288D01*
X330967Y204343D01*
X330870Y204401D01*
X330775Y204463D01*
X330682Y204528D01*
X330592Y204596D01*
X330504Y204667D01*
X330418Y204742D01*
X330335Y204819D01*
X330255Y204899D01*
X330178Y204982D01*
X330103Y205068D01*
X330032Y205156D01*
X329964Y205246D01*
X329899Y205339D01*
X329837Y205434D01*
X329779Y205531D01*
X329724Y205630D01*
X329673Y205731D01*
X329625Y205834D01*
X329580Y205938D01*
X329540Y206044D01*
X329503Y206151D01*
X329470Y206259D01*
X329440Y206369D01*
X329415Y206479D01*
X329393Y206590D01*
X329376Y206702D01*
X329362Y206815D01*
X329352Y206928D01*
X329346Y207041D01*
X329344Y207154D01*
X329994Y212996D02*
X329996Y213097D01*
X330002Y213197D01*
X330012Y213297D01*
X330025Y213397D01*
X330043Y213496D01*
X330064Y213595D01*
X330089Y213692D01*
X330118Y213789D01*
X330151Y213884D01*
X330187Y213978D01*
X330227Y214070D01*
X330270Y214161D01*
X330317Y214250D01*
X330367Y214337D01*
X330421Y214423D01*
X330478Y214506D01*
X330538Y214586D01*
X330601Y214665D01*
X330668Y214741D01*
X330737Y214814D01*
X330809Y214884D01*
X330883Y214952D01*
X330960Y215017D01*
X331040Y215078D01*
X331122Y215137D01*
X331206Y215192D01*
X331292Y215244D01*
X331380Y215293D01*
X331470Y215338D01*
X331562Y215380D01*
X331655Y215418D01*
X331750Y215452D01*
X331845Y215483D01*
X331942Y215510D01*
X332040Y215533D01*
X332139Y215553D01*
X332239Y215568D01*
X332339Y215580D01*
X332439Y215588D01*
X332540Y215592D01*
X332640Y215592D01*
X332741Y215588D01*
X332841Y215580D01*
X332941Y215568D01*
X333041Y215553D01*
X333140Y215533D01*
X333238Y215510D01*
X333335Y215483D01*
X333430Y215452D01*
X333525Y215418D01*
X333618Y215380D01*
X333710Y215338D01*
X333800Y215293D01*
X333888Y215244D01*
X333974Y215192D01*
X334058Y215137D01*
X334140Y215078D01*
X334220Y215017D01*
X334297Y214952D01*
X334371Y214884D01*
X334443Y214814D01*
X334512Y214741D01*
X334579Y214665D01*
X334642Y214586D01*
X334702Y214506D01*
X334759Y214423D01*
X334813Y214337D01*
X334863Y214250D01*
X334910Y214161D01*
X334953Y214070D01*
X334993Y213978D01*
X335029Y213884D01*
X335062Y213789D01*
X335091Y213692D01*
X335116Y213595D01*
X335137Y213496D01*
X335155Y213397D01*
X335168Y213297D01*
X335178Y213197D01*
X335184Y213097D01*
X335186Y212996D01*
X335184Y212895D01*
X335178Y212795D01*
X335168Y212695D01*
X335155Y212595D01*
X335137Y212496D01*
X335116Y212397D01*
X335091Y212300D01*
X335062Y212203D01*
X335029Y212108D01*
X334993Y212014D01*
X334953Y211922D01*
X334910Y211831D01*
X334863Y211742D01*
X334813Y211655D01*
X334759Y211569D01*
X334702Y211486D01*
X334642Y211406D01*
X334579Y211327D01*
X334512Y211251D01*
X334443Y211178D01*
X334371Y211108D01*
X334297Y211040D01*
X334220Y210975D01*
X334140Y210914D01*
X334058Y210855D01*
X333974Y210800D01*
X333888Y210748D01*
X333800Y210699D01*
X333710Y210654D01*
X333618Y210612D01*
X333525Y210574D01*
X333430Y210540D01*
X333335Y210509D01*
X333238Y210482D01*
X333140Y210459D01*
X333041Y210439D01*
X332941Y210424D01*
X332841Y210412D01*
X332741Y210404D01*
X332640Y210400D01*
X332540Y210400D01*
X332439Y210404D01*
X332339Y210412D01*
X332239Y210424D01*
X332139Y210439D01*
X332040Y210459D01*
X331942Y210482D01*
X331845Y210509D01*
X331750Y210540D01*
X331655Y210574D01*
X331562Y210612D01*
X331470Y210654D01*
X331380Y210699D01*
X331292Y210748D01*
X331206Y210800D01*
X331122Y210855D01*
X331040Y210914D01*
X330960Y210975D01*
X330883Y211040D01*
X330809Y211108D01*
X330737Y211178D01*
X330668Y211251D01*
X330601Y211327D01*
X330538Y211406D01*
X330478Y211486D01*
X330421Y211569D01*
X330367Y211655D01*
X330317Y211742D01*
X330270Y211831D01*
X330227Y211922D01*
X330187Y212014D01*
X330151Y212108D01*
X330118Y212203D01*
X330089Y212300D01*
X330064Y212397D01*
X330043Y212496D01*
X330025Y212595D01*
X330012Y212695D01*
X330002Y212795D01*
X329996Y212895D01*
X329994Y212996D01*
X34492Y370358D02*
X22808Y370358D01*
X22808Y373604D01*
X22810Y373717D01*
X22816Y373830D01*
X22826Y373943D01*
X22840Y374056D01*
X22857Y374168D01*
X22879Y374279D01*
X22904Y374389D01*
X22934Y374499D01*
X22967Y374607D01*
X23004Y374714D01*
X23044Y374820D01*
X23089Y374924D01*
X23137Y375027D01*
X23188Y375128D01*
X23243Y375227D01*
X23301Y375324D01*
X23363Y375419D01*
X23428Y375512D01*
X23496Y375602D01*
X23567Y375690D01*
X23642Y375776D01*
X23719Y375859D01*
X23799Y375939D01*
X23882Y376016D01*
X23968Y376091D01*
X24056Y376162D01*
X24146Y376230D01*
X24239Y376295D01*
X24334Y376357D01*
X24431Y376415D01*
X24530Y376470D01*
X24631Y376521D01*
X24734Y376569D01*
X24838Y376614D01*
X24944Y376654D01*
X25051Y376691D01*
X25159Y376724D01*
X25269Y376754D01*
X25379Y376779D01*
X25490Y376801D01*
X25602Y376818D01*
X25715Y376832D01*
X25828Y376842D01*
X25941Y376848D01*
X26054Y376850D01*
X26167Y376848D01*
X26280Y376842D01*
X26393Y376832D01*
X26506Y376818D01*
X26618Y376801D01*
X26729Y376779D01*
X26839Y376754D01*
X26949Y376724D01*
X27057Y376691D01*
X27164Y376654D01*
X27270Y376614D01*
X27374Y376569D01*
X27477Y376521D01*
X27578Y376470D01*
X27677Y376415D01*
X27774Y376357D01*
X27869Y376295D01*
X27962Y376230D01*
X28052Y376162D01*
X28140Y376091D01*
X28226Y376016D01*
X28309Y375939D01*
X28389Y375859D01*
X28466Y375776D01*
X28541Y375690D01*
X28612Y375602D01*
X28680Y375512D01*
X28745Y375419D01*
X28807Y375324D01*
X28865Y375227D01*
X28920Y375128D01*
X28971Y375027D01*
X29019Y374924D01*
X29064Y374820D01*
X29104Y374714D01*
X29141Y374607D01*
X29174Y374499D01*
X29204Y374389D01*
X29229Y374279D01*
X29251Y374168D01*
X29268Y374056D01*
X29282Y373943D01*
X29292Y373830D01*
X29298Y373717D01*
X29300Y373604D01*
X29299Y373604D02*
X29299Y370358D01*
X29299Y374253D02*
X34492Y376849D01*
X24106Y381714D02*
X22808Y381714D01*
X22808Y388205D01*
X34492Y384960D01*
X210808Y100545D02*
X222492Y100545D01*
X210808Y100545D02*
X210808Y103790D01*
X210810Y103903D01*
X210816Y104016D01*
X210826Y104129D01*
X210840Y104242D01*
X210857Y104354D01*
X210879Y104465D01*
X210904Y104575D01*
X210934Y104685D01*
X210967Y104793D01*
X211004Y104900D01*
X211044Y105006D01*
X211089Y105110D01*
X211137Y105213D01*
X211188Y105314D01*
X211243Y105413D01*
X211301Y105510D01*
X211363Y105605D01*
X211428Y105698D01*
X211496Y105788D01*
X211567Y105876D01*
X211642Y105962D01*
X211719Y106045D01*
X211799Y106125D01*
X211882Y106202D01*
X211968Y106277D01*
X212056Y106348D01*
X212146Y106416D01*
X212239Y106481D01*
X212334Y106543D01*
X212431Y106601D01*
X212530Y106656D01*
X212631Y106707D01*
X212734Y106755D01*
X212838Y106800D01*
X212944Y106840D01*
X213051Y106877D01*
X213159Y106910D01*
X213269Y106940D01*
X213379Y106965D01*
X213490Y106987D01*
X213602Y107004D01*
X213715Y107018D01*
X213828Y107028D01*
X213941Y107034D01*
X214054Y107036D01*
X214167Y107034D01*
X214280Y107028D01*
X214393Y107018D01*
X214506Y107004D01*
X214618Y106987D01*
X214729Y106965D01*
X214839Y106940D01*
X214949Y106910D01*
X215057Y106877D01*
X215164Y106840D01*
X215270Y106800D01*
X215374Y106755D01*
X215477Y106707D01*
X215578Y106656D01*
X215677Y106601D01*
X215774Y106543D01*
X215869Y106481D01*
X215962Y106416D01*
X216052Y106348D01*
X216140Y106277D01*
X216226Y106202D01*
X216309Y106125D01*
X216389Y106045D01*
X216466Y105962D01*
X216541Y105876D01*
X216612Y105788D01*
X216680Y105698D01*
X216745Y105605D01*
X216807Y105510D01*
X216865Y105413D01*
X216920Y105314D01*
X216971Y105213D01*
X217019Y105110D01*
X217064Y105006D01*
X217104Y104900D01*
X217141Y104793D01*
X217174Y104685D01*
X217204Y104575D01*
X217229Y104465D01*
X217251Y104354D01*
X217268Y104242D01*
X217282Y104129D01*
X217292Y104016D01*
X217298Y103903D01*
X217300Y103790D01*
X217299Y103790D02*
X217299Y100545D01*
X217299Y104439D02*
X222492Y107036D01*
X217299Y114497D02*
X217299Y118392D01*
X217299Y114497D02*
X217297Y114398D01*
X217291Y114298D01*
X217282Y114199D01*
X217269Y114101D01*
X217252Y114003D01*
X217231Y113905D01*
X217206Y113809D01*
X217178Y113714D01*
X217146Y113620D01*
X217111Y113527D01*
X217072Y113435D01*
X217029Y113345D01*
X216984Y113257D01*
X216934Y113170D01*
X216882Y113086D01*
X216826Y113003D01*
X216768Y112923D01*
X216706Y112845D01*
X216641Y112770D01*
X216573Y112697D01*
X216503Y112627D01*
X216430Y112559D01*
X216355Y112494D01*
X216277Y112432D01*
X216197Y112374D01*
X216114Y112318D01*
X216030Y112266D01*
X215943Y112216D01*
X215855Y112171D01*
X215765Y112128D01*
X215673Y112089D01*
X215580Y112054D01*
X215486Y112022D01*
X215391Y111994D01*
X215295Y111969D01*
X215197Y111948D01*
X215099Y111931D01*
X215001Y111918D01*
X214902Y111909D01*
X214802Y111903D01*
X214703Y111901D01*
X214054Y111901D01*
X214054Y111900D02*
X213941Y111902D01*
X213828Y111908D01*
X213715Y111918D01*
X213602Y111932D01*
X213490Y111949D01*
X213379Y111971D01*
X213269Y111996D01*
X213159Y112026D01*
X213051Y112059D01*
X212944Y112096D01*
X212838Y112136D01*
X212734Y112181D01*
X212631Y112229D01*
X212530Y112280D01*
X212431Y112335D01*
X212334Y112393D01*
X212239Y112455D01*
X212146Y112520D01*
X212056Y112588D01*
X211968Y112659D01*
X211882Y112734D01*
X211799Y112811D01*
X211719Y112891D01*
X211642Y112974D01*
X211567Y113060D01*
X211496Y113148D01*
X211428Y113238D01*
X211363Y113331D01*
X211301Y113426D01*
X211243Y113523D01*
X211188Y113622D01*
X211137Y113723D01*
X211089Y113826D01*
X211044Y113930D01*
X211004Y114036D01*
X210967Y114143D01*
X210934Y114251D01*
X210904Y114361D01*
X210879Y114471D01*
X210857Y114582D01*
X210840Y114694D01*
X210826Y114807D01*
X210816Y114920D01*
X210810Y115033D01*
X210808Y115146D01*
X210810Y115259D01*
X210816Y115372D01*
X210826Y115485D01*
X210840Y115598D01*
X210857Y115710D01*
X210879Y115821D01*
X210904Y115931D01*
X210934Y116041D01*
X210967Y116149D01*
X211004Y116256D01*
X211044Y116362D01*
X211089Y116466D01*
X211137Y116569D01*
X211188Y116670D01*
X211243Y116769D01*
X211301Y116866D01*
X211363Y116961D01*
X211428Y117054D01*
X211496Y117144D01*
X211567Y117232D01*
X211642Y117318D01*
X211719Y117401D01*
X211799Y117481D01*
X211882Y117558D01*
X211968Y117633D01*
X212056Y117704D01*
X212146Y117772D01*
X212239Y117837D01*
X212334Y117899D01*
X212431Y117957D01*
X212530Y118012D01*
X212631Y118063D01*
X212734Y118111D01*
X212838Y118156D01*
X212944Y118196D01*
X213051Y118233D01*
X213159Y118266D01*
X213269Y118296D01*
X213379Y118321D01*
X213490Y118343D01*
X213602Y118360D01*
X213715Y118374D01*
X213828Y118384D01*
X213941Y118390D01*
X214054Y118392D01*
X217299Y118392D01*
X217442Y118390D01*
X217585Y118384D01*
X217728Y118374D01*
X217870Y118360D01*
X218012Y118343D01*
X218154Y118321D01*
X218295Y118296D01*
X218435Y118266D01*
X218574Y118233D01*
X218712Y118196D01*
X218849Y118155D01*
X218985Y118111D01*
X219120Y118062D01*
X219253Y118010D01*
X219385Y117955D01*
X219515Y117895D01*
X219644Y117832D01*
X219771Y117766D01*
X219896Y117696D01*
X220018Y117623D01*
X220139Y117546D01*
X220258Y117466D01*
X220374Y117383D01*
X220489Y117297D01*
X220600Y117208D01*
X220710Y117115D01*
X220816Y117020D01*
X220920Y116921D01*
X221021Y116820D01*
X221120Y116716D01*
X221215Y116610D01*
X221308Y116500D01*
X221397Y116389D01*
X221483Y116274D01*
X221566Y116158D01*
X221646Y116039D01*
X221723Y115918D01*
X221796Y115796D01*
X221866Y115671D01*
X221932Y115544D01*
X221995Y115415D01*
X222055Y115285D01*
X222110Y115153D01*
X222162Y115020D01*
X222211Y114885D01*
X222255Y114749D01*
X222296Y114612D01*
X222333Y114474D01*
X222366Y114335D01*
X222396Y114195D01*
X222421Y114054D01*
X222443Y113912D01*
X222460Y113770D01*
X222474Y113628D01*
X222484Y113485D01*
X222490Y113342D01*
X222492Y113199D01*
D14*
X119700Y543900D02*
X119700Y576400D01*
X217700Y576400D01*
X217700Y543900D01*
X119700Y498900D02*
X119700Y466400D01*
X217700Y466400D01*
X217700Y498900D01*
D15*
X128700Y438900D03*
D13*
X128698Y438944D01*
X128692Y438987D01*
X128683Y439029D01*
X128670Y439071D01*
X128653Y439111D01*
X128633Y439150D01*
X128610Y439187D01*
X128583Y439221D01*
X128554Y439254D01*
X128521Y439283D01*
X128487Y439310D01*
X128450Y439333D01*
X128411Y439353D01*
X128371Y439370D01*
X128329Y439383D01*
X128287Y439392D01*
X128244Y439398D01*
X128200Y439400D01*
X128156Y439398D01*
X128113Y439392D01*
X128071Y439383D01*
X128029Y439370D01*
X127989Y439353D01*
X127950Y439333D01*
X127913Y439310D01*
X127879Y439283D01*
X127846Y439254D01*
X127817Y439221D01*
X127790Y439187D01*
X127767Y439150D01*
X127747Y439111D01*
X127730Y439071D01*
X127717Y439029D01*
X127708Y438987D01*
X127702Y438944D01*
X127700Y438900D01*
D15*
X127700Y438900D03*
D13*
X127702Y438856D01*
X127708Y438813D01*
X127717Y438771D01*
X127730Y438729D01*
X127747Y438689D01*
X127767Y438650D01*
X127790Y438613D01*
X127817Y438579D01*
X127846Y438546D01*
X127879Y438517D01*
X127913Y438490D01*
X127950Y438467D01*
X127989Y438447D01*
X128029Y438430D01*
X128071Y438417D01*
X128113Y438408D01*
X128156Y438402D01*
X128200Y438400D01*
X128244Y438402D01*
X128287Y438408D01*
X128329Y438417D01*
X128371Y438430D01*
X128411Y438447D01*
X128450Y438467D01*
X128487Y438490D01*
X128521Y438517D01*
X128554Y438546D01*
X128583Y438579D01*
X128610Y438613D01*
X128633Y438650D01*
X128653Y438689D01*
X128670Y438729D01*
X128683Y438771D01*
X128692Y438813D01*
X128698Y438856D01*
X128700Y438900D01*
D10*
X157404Y482558D02*
X153509Y494242D01*
X161299Y494242D02*
X157404Y482558D01*
X166043Y482558D02*
X166043Y494242D01*
X169289Y494242D01*
X169402Y494240D01*
X169515Y494234D01*
X169628Y494224D01*
X169741Y494210D01*
X169853Y494193D01*
X169964Y494171D01*
X170074Y494146D01*
X170184Y494116D01*
X170292Y494083D01*
X170399Y494046D01*
X170505Y494006D01*
X170609Y493961D01*
X170712Y493913D01*
X170813Y493862D01*
X170912Y493807D01*
X171009Y493749D01*
X171104Y493687D01*
X171197Y493622D01*
X171287Y493554D01*
X171375Y493483D01*
X171461Y493408D01*
X171544Y493331D01*
X171624Y493251D01*
X171701Y493168D01*
X171776Y493082D01*
X171847Y492994D01*
X171915Y492904D01*
X171980Y492811D01*
X172042Y492716D01*
X172100Y492619D01*
X172155Y492520D01*
X172206Y492419D01*
X172254Y492316D01*
X172299Y492212D01*
X172339Y492106D01*
X172376Y491999D01*
X172409Y491891D01*
X172439Y491781D01*
X172464Y491671D01*
X172486Y491560D01*
X172503Y491448D01*
X172517Y491335D01*
X172527Y491222D01*
X172533Y491109D01*
X172535Y490996D01*
X172533Y490883D01*
X172527Y490770D01*
X172517Y490657D01*
X172503Y490544D01*
X172486Y490432D01*
X172464Y490321D01*
X172439Y490211D01*
X172409Y490101D01*
X172376Y489993D01*
X172339Y489886D01*
X172299Y489780D01*
X172254Y489676D01*
X172206Y489573D01*
X172155Y489472D01*
X172100Y489373D01*
X172042Y489276D01*
X171980Y489181D01*
X171915Y489088D01*
X171847Y488998D01*
X171776Y488910D01*
X171701Y488824D01*
X171624Y488741D01*
X171544Y488661D01*
X171461Y488584D01*
X171375Y488509D01*
X171287Y488438D01*
X171197Y488370D01*
X171104Y488305D01*
X171009Y488243D01*
X170912Y488185D01*
X170813Y488130D01*
X170712Y488079D01*
X170609Y488031D01*
X170505Y487986D01*
X170399Y487946D01*
X170292Y487909D01*
X170184Y487876D01*
X170074Y487846D01*
X169964Y487821D01*
X169853Y487799D01*
X169741Y487782D01*
X169628Y487768D01*
X169515Y487758D01*
X169402Y487752D01*
X169289Y487750D01*
X169289Y487751D02*
X166043Y487751D01*
X169938Y487751D02*
X172534Y482558D01*
X177399Y491646D02*
X180645Y494242D01*
X180645Y482558D01*
X177399Y482558D02*
X183891Y482558D01*
D14*
X224600Y248000D02*
X224600Y239000D01*
X209600Y239000D02*
X209600Y248000D01*
D10*
X206775Y238610D02*
X201258Y234715D01*
X206775Y238610D02*
X201258Y242504D01*
X206775Y238610D02*
X212942Y238610D01*
X203854Y246794D02*
X201258Y250040D01*
X212942Y250040D01*
X212942Y253285D02*
X212942Y246794D01*
M02*
