G04 EAGLE Gerber RS-274X export*
G75*
%MOMM*%
%FSLAX34Y34*%
%LPD*%
%INSoldermask Top*%
%IPPOS*%
%AMOC8*
5,1,8,0,0,1.08239X$1,22.5*%
G01*
%ADD10C,3.003200*%
%ADD11R,1.703200X1.503200*%
%ADD12R,1.803200X2.003200*%
%ADD13R,1.503200X1.703200*%
%ADD14R,2.003200X1.803200*%
%ADD15C,1.727200*%
%ADD16R,2.743200X1.218200*%
%ADD17R,1.603200X1.203200*%
%ADD18R,2.006200X1.803200*%
%ADD19C,1.711200*%
%ADD20C,4.358200*%
%ADD21R,2.003200X1.203200*%


D10*
X30000Y570000D03*
X420000Y570000D03*
X420000Y30000D03*
X30000Y30000D03*
D11*
X48500Y254700D03*
X48500Y273700D03*
D12*
X322100Y252100D03*
X350100Y252100D03*
D11*
X349100Y304700D03*
X349100Y285700D03*
D13*
X152800Y226200D03*
X171800Y226200D03*
X151100Y259700D03*
X170100Y259700D03*
D11*
X49900Y205200D03*
X49900Y224200D03*
D14*
X48200Y311200D03*
X48200Y339200D03*
D11*
X356200Y165700D03*
X356200Y146700D03*
D12*
X355700Y106200D03*
X383700Y106200D03*
D13*
X151900Y121700D03*
X170900Y121700D03*
D11*
X123700Y122700D03*
X123700Y103700D03*
D12*
X120200Y388200D03*
X148200Y388200D03*
D13*
X139200Y334200D03*
X120200Y334200D03*
D11*
X303900Y106700D03*
X303900Y125700D03*
D15*
X95420Y383700D02*
X80180Y383700D01*
X80180Y358300D02*
X95420Y358300D01*
X95420Y332900D02*
X80180Y332900D01*
X80180Y307500D02*
X95420Y307500D01*
X95420Y282100D02*
X80180Y282100D01*
X80180Y256700D02*
X95420Y256700D01*
X95420Y231300D02*
X80180Y231300D01*
X80180Y205900D02*
X95420Y205900D01*
X95420Y180500D02*
X80180Y180500D01*
X80180Y155100D02*
X95420Y155100D01*
X95420Y129700D02*
X80180Y129700D01*
X80180Y104300D02*
X95420Y104300D01*
X95420Y78900D02*
X80180Y78900D01*
X80180Y53500D02*
X95420Y53500D01*
X257280Y55400D02*
X272520Y55400D01*
X272520Y80800D02*
X257280Y80800D01*
X257280Y106200D02*
X272520Y106200D01*
X272520Y131600D02*
X257280Y131600D01*
X257280Y157000D02*
X272520Y157000D01*
X272520Y182400D02*
X257280Y182400D01*
X257280Y207800D02*
X272520Y207800D01*
X272520Y233200D02*
X257280Y233200D01*
X257280Y258600D02*
X272520Y258600D01*
X272520Y284000D02*
X257280Y284000D01*
X257280Y309400D02*
X272520Y309400D01*
X272520Y334800D02*
X257280Y334800D01*
X257280Y360200D02*
X272520Y360200D01*
X272520Y385600D02*
X257280Y385600D01*
D16*
X122800Y255430D03*
X122800Y232570D03*
D17*
X378600Y72100D03*
X354600Y62600D03*
X354600Y81600D03*
D18*
X384800Y169420D03*
X384800Y140980D03*
D11*
X193300Y335700D03*
X193300Y354700D03*
D13*
X303400Y221700D03*
X322400Y221700D03*
X302900Y155700D03*
X321900Y155700D03*
X302900Y190700D03*
X321900Y190700D03*
D11*
X47700Y366700D03*
X47700Y385700D03*
D13*
X304400Y76700D03*
X323400Y76700D03*
D18*
X197600Y91980D03*
X197600Y120420D03*
D19*
X143700Y451400D03*
X168700Y451400D03*
X193700Y451400D03*
D20*
X124700Y521400D03*
X212700Y521400D03*
D21*
X217100Y256500D03*
X217100Y231500D03*
M02*
