G04 EAGLE Gerber RS-274X export*
G75*
%MOMM*%
%FSLAX34Y34*%
%LPD*%
%INSoldermask Top*%
%IPPOS*%
%AMOC8*
5,1,8,0,0,1.08239X$1,22.5*%
G01*
%ADD10C,3.003200*%
%ADD11R,1.703200X1.503200*%
%ADD12R,1.803200X2.003200*%
%ADD13R,1.503200X1.703200*%
%ADD14R,2.003200X1.803200*%
%ADD15C,1.727200*%
%ADD16R,2.743200X1.218200*%
%ADD17R,1.603200X1.203200*%
%ADD18R,2.006200X1.803200*%
%ADD19C,1.711200*%
%ADD20C,4.358200*%
%ADD21R,2.003200X1.203200*%
%ADD22R,1.903200X0.803200*%
%ADD23R,3.003200X1.203200*%
%ADD24P,1.869504X8X22.500000*%
%ADD25R,0.803200X1.903200*%
%ADD26R,1.203200X3.003200*%


D10*
X0Y570000D03*
X420000Y570000D03*
X420000Y20000D03*
X0Y20000D03*
D11*
X48500Y254700D03*
X48500Y273700D03*
D12*
X322100Y252100D03*
X350100Y252100D03*
D11*
X349100Y304700D03*
X349100Y285700D03*
D13*
X152800Y226200D03*
X171800Y226200D03*
X151100Y259700D03*
X170100Y259700D03*
D11*
X49900Y205200D03*
X49900Y224200D03*
D14*
X48200Y311200D03*
X48200Y339200D03*
D11*
X356200Y165700D03*
X356200Y146700D03*
D12*
X355700Y106200D03*
X383700Y106200D03*
D13*
X151900Y121700D03*
X170900Y121700D03*
D11*
X118700Y122700D03*
X118700Y103700D03*
D12*
X130200Y388200D03*
X158200Y388200D03*
D13*
X139200Y334200D03*
X120200Y334200D03*
D11*
X303900Y106700D03*
X303900Y125700D03*
D15*
X95420Y383700D02*
X80180Y383700D01*
X80180Y358300D02*
X95420Y358300D01*
X95420Y332900D02*
X80180Y332900D01*
X80180Y307500D02*
X95420Y307500D01*
X95420Y282100D02*
X80180Y282100D01*
X80180Y256700D02*
X95420Y256700D01*
X95420Y231300D02*
X80180Y231300D01*
X80180Y205900D02*
X95420Y205900D01*
X95420Y180500D02*
X80180Y180500D01*
X80180Y155100D02*
X95420Y155100D01*
X95420Y129700D02*
X80180Y129700D01*
X80180Y104300D02*
X95420Y104300D01*
X95420Y78900D02*
X80180Y78900D01*
X80180Y53500D02*
X95420Y53500D01*
X257280Y55400D02*
X272520Y55400D01*
X272520Y80800D02*
X257280Y80800D01*
X257280Y106200D02*
X272520Y106200D01*
X272520Y131600D02*
X257280Y131600D01*
X257280Y157000D02*
X272520Y157000D01*
X272520Y182400D02*
X257280Y182400D01*
X257280Y207800D02*
X272520Y207800D01*
X272520Y233200D02*
X257280Y233200D01*
X257280Y258600D02*
X272520Y258600D01*
X272520Y284000D02*
X257280Y284000D01*
X257280Y309400D02*
X272520Y309400D01*
X272520Y334800D02*
X257280Y334800D01*
X257280Y360200D02*
X272520Y360200D01*
X272520Y385600D02*
X257280Y385600D01*
D16*
X122800Y255430D03*
X122800Y232570D03*
D17*
X378600Y72100D03*
X354600Y62600D03*
X354600Y81600D03*
D18*
X384800Y169420D03*
X384800Y140980D03*
D11*
X193300Y335700D03*
X193300Y354700D03*
D13*
X303400Y221700D03*
X322400Y221700D03*
X302900Y155700D03*
X321900Y155700D03*
X302900Y190700D03*
X321900Y190700D03*
D11*
X47700Y366700D03*
X47700Y385700D03*
D13*
X304400Y76700D03*
X323400Y76700D03*
D18*
X197600Y91980D03*
X197600Y120420D03*
D19*
X143700Y451400D03*
X168700Y451400D03*
X193700Y451400D03*
D20*
X124700Y521400D03*
X212700Y521400D03*
D21*
X217100Y256500D03*
X217100Y231500D03*
D22*
X40000Y110000D03*
X40000Y100000D03*
D23*
X-11500Y89000D03*
X-11500Y121000D03*
D15*
X322380Y533500D02*
X337620Y533500D01*
X337620Y508100D02*
X322380Y508100D01*
X322380Y482700D02*
X337620Y482700D01*
X337620Y457300D02*
X322380Y457300D01*
X322380Y431900D02*
X337620Y431900D01*
X337620Y406500D02*
X322380Y406500D01*
D24*
X180000Y160000D03*
X190000Y190000D03*
X230000Y200000D03*
X410000Y350000D03*
X410000Y410000D03*
X410000Y490000D03*
D25*
X150000Y90000D03*
X160000Y90000D03*
D26*
X171000Y38500D03*
X139000Y38500D03*
D22*
X50000Y455000D03*
X50000Y445000D03*
D23*
X-1500Y434000D03*
X-1500Y466000D03*
D24*
X25000Y235000D03*
X15000Y505000D03*
M02*
