G04 EAGLE Gerber RS-274X export*
G75*
%MOMM*%
%FSLAX34Y34*%
%LPD*%
%INSolderpaste Top*%
%IPPOS*%
%AMOC8*
5,1,8,0,0,1.08239X$1,22.5*%
G01*
%ADD10R,1.500000X1.300000*%
%ADD11R,1.600000X1.800000*%
%ADD12R,1.300000X1.500000*%
%ADD13R,1.800000X1.600000*%
%ADD14R,2.540000X1.015000*%
%ADD15R,1.400000X1.000000*%
%ADD16R,1.803000X1.600000*%
%ADD17R,1.800000X1.000000*%
%ADD18R,1.700000X0.600000*%
%ADD19R,2.800000X1.000000*%
%ADD20R,0.600000X1.700000*%
%ADD21R,1.000000X2.800000*%


D10*
X48500Y254700D03*
X48500Y273700D03*
D11*
X322100Y252100D03*
X350100Y252100D03*
D10*
X349100Y304700D03*
X349100Y285700D03*
D12*
X152800Y226200D03*
X171800Y226200D03*
X151100Y259700D03*
X170100Y259700D03*
D10*
X49900Y205200D03*
X49900Y224200D03*
D13*
X48200Y311200D03*
X48200Y339200D03*
D10*
X356200Y165700D03*
X356200Y146700D03*
D11*
X355700Y106200D03*
X383700Y106200D03*
D12*
X151900Y121700D03*
X170900Y121700D03*
D10*
X118700Y122700D03*
X118700Y103700D03*
D11*
X130200Y388200D03*
X158200Y388200D03*
D12*
X139200Y334200D03*
X120200Y334200D03*
D10*
X303900Y106700D03*
X303900Y125700D03*
D14*
X122800Y255430D03*
X122800Y232570D03*
D15*
X378600Y72100D03*
X354600Y62600D03*
X354600Y81600D03*
D16*
X384800Y169420D03*
X384800Y140980D03*
D10*
X193300Y335700D03*
X193300Y354700D03*
D12*
X303400Y221700D03*
X322400Y221700D03*
X302900Y155700D03*
X321900Y155700D03*
X302900Y190700D03*
X321900Y190700D03*
D10*
X47700Y366700D03*
X47700Y385700D03*
D12*
X304400Y76700D03*
X323400Y76700D03*
D16*
X197600Y91980D03*
X197600Y120420D03*
D17*
X217100Y256500D03*
X217100Y231500D03*
D18*
X40000Y110000D03*
X40000Y100000D03*
D19*
X-11500Y89000D03*
X-11500Y121000D03*
D20*
X150000Y90000D03*
X160000Y90000D03*
D21*
X171000Y38500D03*
X139000Y38500D03*
D18*
X50000Y455000D03*
X50000Y445000D03*
D19*
X-1500Y434000D03*
X-1500Y466000D03*
M02*
