M48
;GenerationSoftware,Autodesk,EAGLE,9.6.1*%
;CreationDate,2020-05-16T21:46:41Z*%
FMAT,2
ICI,OFF
METRIC,TZ,000.000
T5C1.000
T4C1.016
T3C2.770
T2C2.800
%
G90
M71
T2
X42000Y57000
X42000Y3000
X3000Y3000
X3000Y57000
T3
X21270Y52140
X12470Y52140
T4
X26490Y13160
X8780Y38370
X8780Y35830
X26490Y38560
X26490Y36020
X26490Y33480
X26490Y30940
X26490Y28400
X26490Y25860
X26490Y23320
X26490Y20780
X26490Y18240
X26490Y15700
X8780Y33290
X8780Y18050
X8780Y30750
X8780Y28210
X8780Y25670
X8780Y23130
X8780Y20590
X26490Y10620
X8780Y15510
X8780Y12970
X8780Y10430
X8780Y7890
X8780Y5350
X26490Y5540
X26490Y8080
T5
X14370Y45140
X16870Y45140
X19370Y45140
M30