M48
;GenerationSoftware,Autodesk,EAGLE,9.6.1*%
;CreationDate,2020-07-05T12:50:10Z*%
FMAT,2
ICI,OFF
METRIC,TZ,000.000
T4C1.000
T3C1.016
T2C2.770
T1C2.800
%
G90
M71
T1
X0Y57000
X42000Y57000
X42000Y2000
X0Y2000
T2
X21270Y52140
X12470Y52140
T3
X8780Y33290
X8780Y30750
X8780Y28210
X8780Y25670
X8780Y23130
X8780Y20590
X8780Y18050
X8780Y15510
X8780Y12970
X8780Y10430
X8780Y7890
X8780Y5350
X26490Y5540
X26490Y8080
X26490Y10620
X26490Y13160
X26490Y15700
X26490Y18240
X26490Y20780
X26490Y23320
X26490Y25860
X26490Y28400
X26490Y30940
X26490Y33480
X26490Y36020
X26490Y38560
X1500Y50500
X2500Y23500
X41000Y49000
X8780Y35830
X8780Y38370
X33000Y53350
X33000Y50810
X33000Y48270
X33000Y45730
X33000Y43190
X33000Y40650
X18000Y16000
X19000Y19000
X23000Y20000
X41000Y35000
X41000Y41000
T4
X19370Y45140
X16870Y45140
X14370Y45140
M30